<svg xmlns="http://www.w3.org/2000/svg" xml:space="preserve" width="450" height="450" style="enable-background:new 0 0 450 450"><style>.st0{fill:#fffcf1}.st2{fill:#dad1c8}.st3{fill:#c9c4bd}.st4{fill:#558597}.st5{fill:#ffb0a1}.st6{fill:#08cfd4}.st7{fill:#a1e8db}</style><g id="min_copia"><path d="M77.2 77.2c22.6-22.6 49.4-39.3 78.6-49.5v18.2c-1 1.5-1.5 3.4-1.3 5.1-13.7 2.2-43.4 12.2-76.6 56.4l-35.2 39H31.2c10.4-25.6 25.9-49.1 46-69.2z" class="st0"/><path d="M64.2 146.4 90 117.8c.2-.2.3-.4.5-.6C110.9 90 129.2 77.6 140.9 72c6.3-3 11.4-4.4 14.9-5.1v79.4H64.2z" style="fill:#ffd8a3"/><path d="m211.4 87.9-39.6-39.6V22.8c15.4-4 31.3-6.3 47.6-6.7v63.5l-8 8.3z" class="st2"/><path d="M235.4 16.2c13.4.6 26.6 2.6 39.4 5.7l-39.4 41V16.2z" class="st3"/><path d="M171.8 146.4V70.9l75.5 75.5z" class="st4"/><path d="m269.9 146.4-47.2-47.2L292 26.9c4.2 1.4 8.4 3 12.5 4.7v114.8h-34.6z" class="st2"/><path d="M320.5 146.4V81.2c9.8 4.5 25.5 14.8 38.5 37.2.1.2.2.3.3.5.6.8 10.4 15 30.3 27.4h-69.1z" class="st0"/><path d="M417 142.1c-28.2-10.7-42.8-29.9-44.3-31.9-18-30.8-41.2-42.3-52.1-46.1V39c19.1 9.8 36.7 22.6 52.3 38.2 18.9 19 33.7 41 44.1 64.9z" class="st3"/><path d="M21.9 274.5 134 162.3h21.8v55.1l-11.7 2c-1.6.3-3.2 1.1-4.3 2.2l-72.1 72.1H27.5c-2.2-6.3-4.1-12.7-5.6-19.2z" class="st5"/><path d="M25.5 162.3h85.9l-53 53H16.2c.8-18.2 4-35.9 9.3-53z" class="st4"/><path d="M16.1 231.3h26.4l-24.3 24.3c-1.2-8-1.9-16.1-2.1-24.3zM92.9 291.2l56.4-56.5 6.5-1.1v60.1l-65.7.3zM218.9 227.9l64.4-65.6h21.3v131.4h-19.8z" class="st0"/><path d="M262.2 293.7h-90.4v-61.3h29z" class="st6"/><path d="M207.8 216.4h-36v-54.1h89.1z" class="st7"/><path d="M320.5 231.3h47.4v62.4h-47.4z" class="st4"/><path d="M320.5 162.3h47.4v53h-47.4zM383.9 162.3h40.6c5.3 17 8.5 34.8 9.3 53h-49.9v-53z" class="st5"/><path d="M422.5 293.7h-38.6v-62.4h50c-.6 21.6-4.5 42.6-11.4 62.4z" class="st7"/><path d="M155.8 309.7v77.2c-16.7-4.2-30-13.9-39.6-29.1-.4-1.2-1-2.3-2-3.3-2.3-3.9-4.3-8.2-6.1-12.8-4.7-12-6.9-23.9-7.8-32h55.5zM274.7 309.7l-53.1 54.7c-1.4 1.5-2.3 3.5-2.3 5.6v63.9c-16.2-.4-32.2-2.7-47.6-6.7V309.7h103z" class="st0"/><path d="m235.4 373.2 61.7-63.5h7.5v108.7c-21.8 9-45.1 14.2-69.2 15.4v-60.6z" class="st5"/><path d="M320.5 309.7h68.2c-15.5 16.2-27.4 29.9-27.5 30l-.3.3c-14.9 19.1-31.5 25.2-40.5 27.1v-57.4z" class="st0"/><path d="M33.8 309.7h50.4c1 9.1 3.3 23 8.9 37.4 1.7 4.3 3.6 8.5 5.6 12.3l-15.9 18.7c-1.9-1.7-3.7-3.5-5.5-5.3-18.6-18.5-33.2-39.9-43.5-63.1z" class="st7"/><path d="m94.8 388.6 12.9-15.1c12.2 15.7 28.4 25.8 48.1 29.8v19.1c-21.9-7.7-42.5-19.1-61-33.8z" class="st6"/><path d="M372.8 372.8c-15.6 15.6-33.2 28.4-52.3 38.2v-27.6c10.9-1.8 33.4-8.5 52.9-33.3 1.6-1.8 18.3-21 37.6-40.4h5.1c-10.2 23.2-24.8 44.6-43.3 63.1z" class="st3"/><path d="M432.3 137.4c-11.3-26.8-27.6-50.9-48.2-71.5-20.7-20.7-44.7-36.9-71.5-48.2C284.8 6 255.4 0 225 0c-30.4 0-59.8 6-87.6 17.7C110.6 29 86.6 45.2 65.9 65.9 45.2 86.6 29 110.6 17.7 137.4 6 165.2 0 194.6 0 225c0 30.4 6 59.8 17.7 87.6 11.3 26.8 27.6 50.9 48.2 71.5 20.7 20.7 44.7 36.9 71.5 48.2C165.2 444 194.6 450 225 450c30.4 0 59.8-6 87.6-17.7 26.8-11.3 50.9-27.6 71.5-48.2 20.7-20.7 36.9-44.7 48.2-71.5C444 284.8 450 255.4 450 225c0-30.4-6-59.8-17.7-87.6zM21.9 274.5 134 162.3h21.8v55.1l-11.7 2c-1.6.3-3.2 1.1-4.3 2.2l-72.1 72.1H27.5c-2.2-6.3-4.1-12.7-5.6-19.2zm3.6-112.2h85.9l-53 53H16.2c.8-18.2 4-35.9 9.3-53zm38.7-15.9L90 117.8c.2-.2.3-.4.5-.6C110.9 90 129.2 77.6 140.9 72c6.3-3 11.4-4.4 14.9-5.1v79.4H64.2zm-48.1 84.9h26.4l-24.3 24.3c-1.2-8-1.9-16.1-2.1-24.3zm76.8 59.9 56.4-56.4 6.5-1.1v60.1l-65.7.2 2.8-2.8zm62.9 18.5v77.2c-16.7-4.2-30-13.9-39.6-29.1-.4-1.2-1-2.3-2-3.3-2.3-3.9-4.3-8.2-6.1-12.8-4.7-12-6.9-23.9-7.8-32h55.5zm79.6-293.5c13.4.6 26.6 2.6 39.4 5.7l-39.4 41V16.2zm-16.5 211.7 64.4-65.5h21.3v131.4h-19.8l-65.9-65.9zm43.3 65.8h-90.3v-61.4h29l61.3 61.4zm-54.4-77.3h-36v-54h89l-53 54zm-36-70V70.9l75.5 75.5h-75.5zm39.6-58.5-39.6-39.6V22.8c15.4-4 31.3-6.3 47.6-6.7v63.5l-8 8.3zm63.3 221.8-53.1 54.7c-1.4 1.5-2.3 3.5-2.3 5.6v63.9c-16.2-.4-32.2-2.7-47.6-6.7V309.7h103zm-39.3 63.5 61.7-63.5h7.5v108.7c-21.8 9-45.1 14.2-69.2 15.4v-60.6zm34.5-226.8-47.2-47.2L292 26.9c4.2 1.4 8.4 3 12.5 4.7v114.8h-34.6zm50.6 84.9h47.4v62.4h-47.4v-62.4zm0 78.4h68.2c-15.5 16.2-27.4 29.9-27.5 30l-.3.3c-14.9 19.1-31.5 25.2-40.5 27.1v-57.4zm47.4-94.4h-47.4v-53h47.4v53zm-47.4-68.9V81.2c9.8 4.5 25.5 14.8 38.5 37.2.1.2.2.3.3.5.6.8 10.4 15 30.3 27.4h-69.1zm63.4 15.9h40.6c5.3 17 8.5 34.8 9.3 53h-49.9v-53zm33.1-20.2c-28.2-10.7-42.8-29.9-44.3-31.9-18-30.8-41.2-42.3-52.1-46.1V39c19.1 9.8 36.7 22.6 52.3 38.2 18.9 19 33.7 41 44.1 64.9zM77.2 77.2c22.6-22.6 49.4-39.3 78.6-49.5v18.2c-1 1.5-1.5 3.4-1.3 5.1-13.7 2.2-43.4 12.2-76.6 56.4l-35.2 39H31.2c10.4-25.6 25.9-49.1 46-69.2zM33.8 309.7h50.4c1 9.1 3.3 23 8.9 37.4 1.7 4.3 3.6 8.5 5.6 12.3l-15.9 18.7c-1.9-1.7-3.7-3.5-5.5-5.3-18.6-18.5-33.2-39.9-43.5-63.1zm61 78.9 12.9-15.1c12.2 15.7 28.4 25.8 48.1 29.8v19.1c-21.9-7.7-42.5-19.1-61-33.8zm278-15.8c-15.6 15.6-33.2 28.4-52.3 38.2v-27.6c10.9-1.8 33.4-8.5 52.9-33.3 1.6-1.8 18.3-21 37.6-40.4h5.1c-10.2 23.2-24.8 44.6-43.3 63.1zm49.7-79.1h-38.6v-62.4h50c-.6 21.6-4.5 42.6-11.4 62.4z"/></g></svg>