<?xml version="1.0" encoding="utf-8"?>
<!-- Generator: Adobe Illustrator 24.0.3, SVG Export Plug-In . SVG Version: 6.00 Build 0)  -->
<svg version="1.1" id="Capa_1" xmlns="http://www.w3.org/2000/svg" xmlns:xlink="http://www.w3.org/1999/xlink" x="0px" y="0px"
	 viewBox="0 0 16 16" style="enable-background:new 0 0 16 16;" xml:space="preserve">
<style type="text/css">
	.st0{fill:#39BDFF;}
	.st1{fill:#333333;}
</style>
<g>
	<path class="st0" d="M6.8,16C3,16,0,13,0,9.2c0-2.3,1.1-4.4,3-5.6C4.2,1.4,6.5,0,9.1,0C12.9,0,16,3.1,16,6.9c0,2.5-1.4,4.9-3.6,6.1
		C11.1,14.9,9.1,16,6.8,16z M4.4,8.6C4.8,9.2,5.3,9.7,5.9,10c0.6,0.4,1.3,0.5,2,0.5c1,0,2-0.4,2.8-1.1c0.8-0.7,1.2-1.6,1.3-2.6
		c0-0.3,0.2-0.5,0.5-0.5c0.3,0,0.5,0.1,0.6,0.4c0.3,0.7,0.5,1.5,0.5,2.3c0.3-0.6,0.4-1.3,0.4-2C14,4.2,11.8,2,9.1,2
		C6.3,2,4.1,4.2,4.1,6.9C4.1,7.5,4.2,8.1,4.4,8.6z"/>
	<path class="st1" d="M15.4,6.9c0-3.5-2.8-6.4-6.4-6.4C6.6,0.6,4.5,2,3.4,4C1.7,5.1,0.6,7,0.6,9.2c0,3.4,2.8,6.2,6.2,6.2
		c2.2,0,4.1-1.1,5.2-2.8C14,11.5,15.4,9.4,15.4,6.9z M12.7,11.1c0.2-0.6,0.3-1.2,0.3-1.9c0-0.8-0.2-1.6-0.4-2.3
		c-0.2,2.4-2.2,4.3-4.7,4.3c-1.7,0-3.2-0.9-4-2.3C3.7,8.3,3.5,7.6,3.5,6.9c0-3,2.5-5.5,5.5-5.5s5.5,2.5,5.5,5.5
		C14.6,8.6,13.9,10,12.7,11.1z"/>
</g>
</svg>
