<?xml version="1.0" encoding="utf-8"?>
<!-- Generator: Adobe Illustrator 24.0.3, SVG Export Plug-In . SVG Version: 6.00 Build 0)  -->
<svg version="1.1" id="Capa_1" xmlns="http://www.w3.org/2000/svg" xmlns:xlink="http://www.w3.org/1999/xlink" x="0px" y="0px"
	 viewBox="0 0 16 16" style="enable-background:new 0 0 16 16;" xml:space="preserve">
<style type="text/css">
	.st0{fill:#39BDFF;}
	.st1{fill:#333333;}
	.st2{fill:#7AC943;}
	.st3{fill:#FF931E;}
	.st4{fill:#926DCC;}
	.st5{fill:#FF7BAC;}
	.st6{fill:#CCCCCC;}
</style>
<g>
	<g>
		<g>
			<path class="st0" d="M6.8,16C3,16,0,13,0,9.2c0-2.3,1.1-4.4,3-5.6C4.2,1.4,6.5,0,9.1,0C12.9,0,16,3.1,16,6.9
				c0,2.5-1.4,4.9-3.6,6.1C11.1,14.9,9.1,16,6.8,16z M4.4,8.6C4.8,9.2,5.3,9.7,5.9,10c0.6,0.4,1.3,0.5,2,0.5c1,0,2-0.4,2.8-1.1
				c0.8-0.7,1.2-1.6,1.3-2.6c0-0.3,0.2-0.5,0.5-0.5c0.3,0,0.5,0.1,0.6,0.4c0.3,0.7,0.5,1.5,0.5,2.3c0.3-0.6,0.4-1.3,0.4-2
				C14,4.2,11.8,2,9.1,2C6.3,2,4.1,4.2,4.1,6.9C4.1,7.5,4.2,8.1,4.4,8.6z"/>
			<path class="st1" d="M15.4,6.9c0-3.5-2.8-6.4-6.4-6.4C6.6,0.6,4.5,2,3.4,4C1.7,5.1,0.6,7,0.6,9.2c0,3.4,2.8,6.2,6.2,6.2
				c2.2,0,4.1-1.1,5.2-2.8C14,11.5,15.4,9.4,15.4,6.9z M12.7,11.1c0.2-0.6,0.3-1.2,0.3-1.9c0-0.8-0.2-1.6-0.4-2.3
				c-0.2,2.4-2.2,4.3-4.7,4.3c-1.7,0-3.2-0.9-4-2.3C3.7,8.3,3.5,7.6,3.5,6.9c0-3,2.5-5.5,5.5-5.5s5.5,2.5,5.5,5.5
				C14.6,8.6,13.9,10,12.7,11.1z"/>
		</g>
		<g>
			<path class="st1" d="M15.5,7.1H7.6c-0.3,0-0.5,0.2-0.5,0.5v7.9c0,0.3,0.2,0.5,0.5,0.5h7.9c0.3,0,0.5-0.2,0.5-0.5V7.6
				C16,7.3,15.8,7.1,15.5,7.1z"/>
			<g>
				<path class="st2" d="M9.6,15.1c-0.4,0-0.7-0.1-0.9-0.3s-0.3-0.6-0.3-1.2v-1c0-0.5-0.1-0.7-0.4-0.7v-0.7c0.3,0,0.4-0.3,0.4-0.8
					V9.5c0-0.6,0.1-0.9,0.3-1.2C8.9,8.1,9.2,8,9.6,8v0.8C9.3,8.7,9.2,9,9.2,9.4v0.9c0,0.6-0.1,1.1-0.4,1.2v0
					c0.3,0.2,0.4,0.6,0.4,1.2v0.8c0,0.3,0,0.5,0.1,0.6c0.1,0.1,0.2,0.2,0.4,0.2V15.1z"/>
				<path class="st2" d="M15.1,11.9c-0.3,0-0.4,0.3-0.4,0.8v0.9c0,0.6-0.1,1-0.3,1.2s-0.5,0.3-0.9,0.3v-0.8c0.2,0,0.3-0.1,0.4-0.2
					c0.1-0.1,0.1-0.3,0.1-0.6v-0.9c0-0.6,0.1-1.1,0.4-1.2v0c-0.3-0.2-0.4-0.6-0.4-1.3V9.4c0-0.5-0.2-0.7-0.5-0.7V8
					c0.4,0,0.7,0.1,0.9,0.3c0.2,0.2,0.3,0.6,0.3,1.2v0.9c0,0.5,0.1,0.8,0.4,0.8V11.9z"/>
				<circle class="st3" cx="11.6" cy="9.1" r="0.9"/>
				<polygon class="st4" points="12.4,12.4 10.7,10.7 12.4,10.7 				"/>
				<rect x="10.7" y="13.2" class="st5" width="1.8" height="1.8"/>
			</g>
		</g>
	</g>
	<polygon class="st6" points="16,12.8 12,16 8,12.8 8,10.4 12,13.6 16,10.4 	"/>
</g>
</svg>
