<?xml version="1.0" encoding="utf-8"?>
<!-- Generator: Adobe Illustrator 24.0.3, SVG Export Plug-In . SVG Version: 6.00 Build 0)  -->
<svg version="1.1" id="Capa_1" xmlns="http://www.w3.org/2000/svg" xmlns:xlink="http://www.w3.org/1999/xlink" x="0px" y="0px"
	 viewBox="0 0 16 16" style="enable-background:new 0 0 16 16;" xml:space="preserve">
<style type="text/css">
	.st0{fill:#FDDF00;}
	.st1{fill:#F2F2F2;}
	.st2{fill:#333333;}
	.st3{fill:#7AC943;}
	.st4{fill:#FF7BAC;}
	.st5{fill:#926DCC;}
</style>
<g>
	<path class="st0" d="M14.4,3.6L8.3,0.2C7.9,0,7.5,0,7.1,0.2L1,3.6C0.6,3.8,0.3,4.2,0.3,4.7v6.6c0,0.5,0.2,0.9,0.6,1.1l6.1,3.4
		c0.4,0.2,0.8,0.2,1.2,0l6.1-3.4c0.4-0.2,0.6-0.6,0.6-1.1V4.7C15.1,4.2,14.8,3.8,14.4,3.6z M12.1,3.3l1.9,1.1l-2,1.1L12.1,3.3z
		 M7.7,0.9l0.9,0.5L7.7,3.3L6.9,1.4L7.7,0.9z M7.4,6.5c0,0.7-0.6,1.3-1.3,1.3S4.7,7.3,4.7,6.5c0,0,0-0.1,0-0.1L7.4,6.5
		C7.4,6.5,7.4,6.5,7.4,6.5z M1.3,5.3l1.6,0.8L1.3,7V5.3z M3.5,7v2.4l-2-1V7.9L3.5,7z M1.4,9.2L2.8,10l-1.4,0.8V9.2z M3.5,12.7
		l-1.9-1l2-1L3.5,12.7z M1.5,4.4l1.9-1.1l0.2,2L1.5,4.4z M6.2,1.7l0.6,1.9L4.4,4.9l-0.3-2L6.2,1.7z M6.2,14.2l-2-1.1l0.3-2l2.3,1.2
		L6.2,14.2z M7.7,15.1l-0.8-0.4l0.8-1.9l0.9,1.9L7.7,15.1z M9.3,14.2l-0.6-1.9l2.3-1.2l0.3,2L9.3,14.2z M9.9,7.9
		c-0.7,0-1.3-0.6-1.3-1.3c0,0,0-0.1,0-0.1h2.7c0,0,0,0.1,0,0.1C11.3,7.3,10.7,7.9,9.9,7.9z M11,4.9L8.7,3.6l0.6-1.8l2,1.1L11,4.9z
		 M12.1,12.6L12,10.7l1.9,0.9L12.1,12.6z M14.1,10.8L12.6,10l1.5-0.8V10.8z M14.1,8.4l-2,1V6.8l2,1V8.4z M14.1,6.9l-1.6-0.8l1.6-0.8
		V6.9z"/>
	<path class="st1" d="M7.4,6.5c0,0.7-0.6,1.3-1.3,1.3S4.7,7.3,4.7,6.5c0,0,0-0.1,0-0.1L7.4,6.5C7.4,6.5,7.4,6.5,7.4,6.5z"/>
	<path class="st1" d="M9.9,7.9c-0.7,0-1.3-0.6-1.3-1.3c0,0,0-0.1,0-0.1h2.7c0,0,0,0.1,0,0.1C11.3,7.3,10.7,7.9,9.9,7.9z"/>
	<path class="st2" d="M9.4,6.4c0.1,0.4,0.4,0.6,0.8,0.6c0.4,0,0.7-0.3,0.8-0.6H9.4z"/>
	<path class="st2" d="M5.5,6.4C5.6,6.8,6,7.1,6.4,7.1c0.4,0,0.7-0.3,0.8-0.6H5.5z"/>
	<path class="st2" d="M7.7,16c-0.2,0-0.4-0.1-0.6-0.2L1,12.5c-0.4-0.2-0.7-0.7-0.7-1.1V4.7c0-0.5,0.3-0.9,0.7-1.1l6.1-3.4
		c0.4-0.2,0.9-0.2,1.3,0l6.1,3.4c0.4,0.2,0.7,0.7,0.7,1.1v6.6c0,0.5-0.3,0.9-0.7,1.1l-6.1,3.4C8.1,15.9,7.9,16,7.7,16z M7.7,0.1
		c-0.2,0-0.4,0-0.6,0.1L1,3.6c-0.4,0.2-0.6,0.6-0.6,1v6.6c0,0.4,0.2,0.8,0.6,1l6.1,3.4c0.4,0.2,0.8,0.2,1.1,0l6.1-3.4
		c0.4-0.2,0.6-0.6,0.6-1V4.7c0-0.4-0.2-0.8-0.6-1L8.3,0.3C8.1,0.2,7.9,0.1,7.7,0.1z M7.7,15.1l-0.9-0.5l0.9-2l1,2L7.7,15.1z M7,14.6
		L7.7,15l0.8-0.4l-0.8-1.7L7,14.6z M9.3,14.3l-0.7-2L11,11l0.3,2.2L9.3,14.3z M8.8,12.3l0.6,1.7l1.9-1l-0.2-1.9L8.8,12.3z M6.2,14.3
		l-2-1.1L4.5,11l2.4,1.3L6.2,14.3z M4.3,13.1l1.9,1l0.6-1.7l-2.2-1.2L4.3,13.1z M3.5,12.8l-2-1.1l2.1-1.1L3.5,12.8z M1.7,11.7
		l1.7,0.9l0.1-1.8L1.7,11.7z M12,12.7l-0.1-2.1l2.1,1L12,12.7z M12,10.8l0.1,1.7l1.6-0.9L12,10.8z M1.4,10.9V9.1L3,10L1.4,10.9z
		 M1.5,9.3v1.4L2.7,10L1.5,9.3z M14.2,10.9L12.5,10l1.7-0.9V10.9z M12.7,10l1.3,0.7V9.3L12.7,10z M12,9.5V6.7l2.2,1v0.7L12,9.5z
		 M12.1,6.9v2.4L14,8.4V7.8L12.1,6.9z M3.5,9.5l-2.2-1V7.8l2.2-0.9V9.5z M1.5,8.4l1.9,0.9V7.1L1.5,7.9V8.4z M9.9,7.9
		c-0.8,0-1.4-0.6-1.4-1.4c0,0,0-0.1,0-0.1l0-0.1h2.8l0,0.1c0,0,0,0,0,0.1C11.3,7.3,10.7,7.9,9.9,7.9z M8.7,6.5
		C8.7,6.5,8.7,6.5,8.7,6.5c0,0.7,0.6,1.3,1.3,1.3c0.7,0,1.3-0.6,1.3-1.3c0,0,0,0,0,0H8.7z M6,7.9c-0.8,0-1.4-0.6-1.4-1.4
		c0,0,0-0.1,0-0.1l0-0.1h2.8l0,0.1c0,0,0,0.1,0,0.1C7.4,7.3,6.8,7.9,6,7.9z M4.8,6.5C4.8,6.5,4.8,6.5,4.8,6.5c0,0.7,0.6,1.3,1.3,1.3
		s1.3-0.6,1.3-1.3c0,0,0,0,0,0H4.8z M1.3,7.1V5.2L3,6.1L1.3,7.1z M1.4,5.4v1.5l1.4-0.8L1.4,5.4z M14.2,7l-1.8-0.9l1.8-0.9V7z
		 M12.6,6.1L14,6.8V5.4L12.6,6.1z M11.9,5.6L12,3.2l2,1.2L11.9,5.6z M12.1,3.4L12,5.4l1.8-1L12.1,3.4z M3.6,5.5L1.4,4.4l2-1.2
		L3.6,5.5z M1.6,4.4l1.8,0.9L3.3,3.4L1.6,4.4z M11,5L8.6,3.6l0.7-1.9l2,1.1L11,5z M8.8,3.6l2.2,1.3l0.2-1.9l-1.9-1L8.8,3.6z M4.4,5
		L4.1,2.9l2.1-1.2l0.7,2L4.4,5z M4.2,2.9l0.2,1.9l2.3-1.3L6.2,1.8L4.2,2.9z M7.7,3.4l-0.9-2l0.9-0.5l1,0.6L7.7,3.4z M7,1.4l0.7,1.7
		l0.8-1.6L7.7,1L7,1.4z"/>
	<path class="st2" d="M8.2,10.1c0.5,0,1,0,1.4-0.2c0.4-0.2,0.6-0.5,0.7-0.9c0-0.1,0.2-0.2,0.3-0.2c0.1,0,0.2,0.2,0.2,0.3
		c-0.1,0.5-0.5,1-0.9,1.2c-0.5,0.3-1.1,0.4-1.7,0.3c-0.1,0-0.3-0.1-0.3-0.3C8,10.3,8.1,10.1,8.2,10.1z"/>
	<g>
		<path class="st2" d="M15.2,7.1H7.3C7,7.1,6.8,7.3,6.8,7.6v7.9C6.8,15.8,7,16,7.3,16h7.9c0.3,0,0.5-0.2,0.5-0.5V7.6
			C15.7,7.3,15.5,7.1,15.2,7.1z"/>
		<rect x="7.7" y="9.4" class="st3" width="3.4" height="3.4"/>
		<rect x="11.4" y="8.8" class="st4" width="3.4" height="3.4"/>
		<rect x="9.7" y="10.9" class="st5" width="3.4" height="3.4"/>
	</g>
</g>
</svg>
