<?xml version="1.0" encoding="utf-8"?>
<!-- Generator: Adobe Illustrator 24.0.3, SVG Export Plug-In . SVG Version: 6.00 Build 0)  -->
<svg version="1.1" id="Capa_1" xmlns="http://www.w3.org/2000/svg" xmlns:xlink="http://www.w3.org/1999/xlink" x="0px" y="0px"
	 viewBox="0 0 16 16" style="enable-background:new 0 0 16 16;" xml:space="preserve">
<style type="text/css">
	.st0{fill:#FDDF00;}
	.st1{fill:#F2F2F2;}
	.st2{fill:#333333;}
	.st3{fill:#F2F8F1;}
	.st4{fill:#91C16A;}
</style>
<g>
	<g>
		<path class="st0" d="M14.1,3.6L8,0.2C7.6,0,7.2,0,6.8,0.2L0.7,3.6C0.3,3.8,0.1,4.2,0.1,4.7v6.6c0,0.5,0.2,0.9,0.6,1.1l6.1,3.4
			C7.2,16,7.6,16,8,15.8l6.1-3.4c0.4-0.2,0.6-0.6,0.6-1.1V4.7C14.8,4.2,14.5,3.8,14.1,3.6z M11.8,3.3l1.9,1.1l-2,1.1L11.8,3.3z
			 M7.4,0.9l0.9,0.5L7.4,3.3L6.6,1.4L7.4,0.9z M7.1,6.5c0,0.7-0.6,1.3-1.3,1.3S4.4,7.3,4.4,6.5c0,0,0-0.1,0-0.1L7.1,6.5
			C7.1,6.5,7.1,6.5,7.1,6.5z M1,5.3l1.6,0.8L1,7V5.3z M3.2,7v2.4l-2-1V7.9L3.2,7z M1.1,9.2L2.5,10l-1.4,0.8V9.2z M3.2,12.7l-1.9-1
			l2-1L3.2,12.7z M1.2,4.4l1.9-1.1l0.2,2L1.2,4.4z M5.9,1.7l0.6,1.9L4.1,4.9l-0.3-2L5.9,1.7z M5.9,14.2l-2-1.1l0.3-2l2.3,1.2
			L5.9,14.2z M7.4,15.1l-0.8-0.4l0.8-1.9l0.9,1.9L7.4,15.1z M9,14.2l-0.6-1.9l2.3-1.2l0.3,2L9,14.2z M9.6,7.9
			c-0.7,0-1.3-0.6-1.3-1.3c0,0,0-0.1,0-0.1H11c0,0,0,0.1,0,0.1C11,7.3,10.4,7.9,9.6,7.9z M10.7,4.9L8.4,3.6L9,1.8l2,1.1L10.7,4.9z
			 M11.8,12.6l-0.1-1.9l1.9,0.9L11.8,12.6z M13.8,10.8L12.3,10l1.5-0.8V10.8z M13.8,8.4l-2,1V6.8l2,1V8.4z M13.8,6.9l-1.6-0.8
			l1.6-0.8V6.9z"/>
		<path class="st1" d="M7.1,6.5c0,0.7-0.6,1.3-1.3,1.3S4.4,7.3,4.4,6.5c0,0,0-0.1,0-0.1L7.1,6.5C7.1,6.5,7.1,6.5,7.1,6.5z"/>
		<path class="st1" d="M9.6,7.9c-0.7,0-1.3-0.6-1.3-1.3c0,0,0-0.1,0-0.1H11c0,0,0,0.1,0,0.1C11,7.3,10.4,7.9,9.6,7.9z"/>
		<path class="st2" d="M9.1,6.4C9.3,6.8,9.6,7.1,10,7.1c0.4,0,0.7-0.3,0.8-0.6H9.1z"/>
		<path class="st2" d="M5.2,6.4c0.1,0.4,0.4,0.6,0.8,0.6c0.4,0,0.7-0.3,0.8-0.6H5.2z"/>
		<path class="st2" d="M7.4,16c-0.2,0-0.4-0.1-0.6-0.2l-6.1-3.4C0.3,12.2,0,11.8,0,11.3V4.7c0-0.5,0.3-0.9,0.7-1.1l6.1-3.4
			c0.4-0.2,0.9-0.2,1.3,0l6.1,3.4c0.4,0.2,0.7,0.7,0.7,1.1v6.6c0,0.5-0.3,0.9-0.7,1.1L8,15.8C7.9,15.9,7.6,16,7.4,16z M7.4,0.1
			c-0.2,0-0.4,0-0.6,0.1L0.7,3.6c-0.4,0.2-0.6,0.6-0.6,1v6.6c0,0.4,0.2,0.8,0.6,1l6.1,3.4c0.4,0.2,0.8,0.2,1.1,0l6.1-3.4
			c0.4-0.2,0.6-0.6,0.6-1V4.7c0-0.4-0.2-0.8-0.6-1L8,0.3C7.8,0.2,7.6,0.1,7.4,0.1z M7.4,15.1l-0.9-0.5l0.9-2l1,2L7.4,15.1z
			 M6.7,14.6L7.4,15l0.8-0.4l-0.8-1.7L6.7,14.6z M9,14.3l-0.7-2l2.4-1.3l0.3,2.2L9,14.3z M8.5,12.3l0.6,1.7l1.9-1l-0.2-1.9L8.5,12.3
			z M5.9,14.3l-2-1.1L4.2,11l2.4,1.3L5.9,14.3z M4,13.1l1.9,1l0.6-1.7l-2.2-1.2L4,13.1z M3.2,12.8l-2-1.1l2.1-1.1L3.2,12.8z
			 M1.4,11.7l1.7,0.9l0.1-1.8L1.4,11.7z M11.7,12.7l-0.1-2.1l2.1,1L11.7,12.7z M11.7,10.8l0.1,1.7l1.6-0.9L11.7,10.8z M1.1,10.9V9.1
			L2.7,10L1.1,10.9z M1.2,9.3v1.4L2.4,10L1.2,9.3z M13.9,10.9L12.2,10l1.7-0.9V10.9z M12.4,10l1.3,0.7V9.3L12.4,10z M11.7,9.5V6.7
			l2.2,1v0.7L11.7,9.5z M11.8,6.9v2.4l1.9-0.9V7.8L11.8,6.9z M3.2,9.5l-2.2-1V7.8l2.2-0.9V9.5z M1.2,8.4l1.9,0.9V7.1L1.2,7.9V8.4z
			 M9.6,7.9c-0.8,0-1.4-0.6-1.4-1.4c0,0,0-0.1,0-0.1l0-0.1H11l0,0.1c0,0,0,0,0,0.1C11,7.3,10.4,7.9,9.6,7.9z M8.4,6.5
			C8.4,6.5,8.4,6.5,8.4,6.5c0,0.7,0.6,1.3,1.3,1.3c0.7,0,1.3-0.6,1.3-1.3c0,0,0,0,0,0H8.4z M5.7,7.9C5,7.9,4.3,7.3,4.3,6.5
			c0,0,0-0.1,0-0.1l0-0.1h2.8l0,0.1c0,0,0,0.1,0,0.1C7.1,7.3,6.5,7.9,5.7,7.9z M4.5,6.5C4.5,6.5,4.5,6.5,4.5,6.5
			c0,0.7,0.6,1.3,1.3,1.3S7,7.2,7,6.5c0,0,0,0,0,0H4.5z M1,7.1V5.2l1.8,0.9L1,7.1z M1.1,5.4v1.5l1.4-0.8L1.1,5.4z M13.9,7l-1.8-0.9
			l1.8-0.9V7z M12.3,6.1l1.4,0.7V5.4L12.3,6.1z M11.6,5.6l0.1-2.3l2,1.2L11.6,5.6z M11.8,3.4l-0.1,1.9l1.8-1L11.8,3.4z M3.3,5.5
			L1.1,4.4l2-1.2L3.3,5.5z M1.3,4.4l1.8,0.9L3,3.4L1.3,4.4z M10.8,5L8.3,3.6L9,1.7l2,1.1L10.8,5z M8.5,3.6l2.2,1.3l0.2-1.9l-1.9-1
			L8.5,3.6z M4.1,5L3.8,2.9l2.1-1.2l0.7,2L4.1,5z M3.9,2.9l0.2,1.9l2.3-1.3L5.9,1.8L3.9,2.9z M7.4,3.4l-0.9-2l0.9-0.5l1,0.6L7.4,3.4
			z M6.7,1.4l0.7,1.7l0.8-1.6L7.4,1L6.7,1.4z"/>
		<path class="st2" d="M8,10.1c0.5,0,1,0,1.4-0.2c0.4-0.2,0.6-0.5,0.7-0.9c0-0.1,0.2-0.2,0.3-0.2c0.1,0,0.2,0.2,0.2,0.3
			c-0.1,0.5-0.5,1-0.9,1.2c-0.5,0.3-1.1,0.4-1.7,0.3c-0.1,0-0.3-0.1-0.3-0.3C7.7,10.3,7.8,10.1,8,10.1z"/>
	</g>
	<g>
		<path class="st3" d="M14.8,15.6H8.3c-0.4,0-0.8-0.3-0.8-0.8V9h8.1v5.8C15.6,15.3,15.3,15.6,14.8,15.6z"/>
		<path class="st4" d="M8.3,7.5h6.6c0.4,0,0.8,0.3,0.8,0.8v0.4H7.5V8.3C7.5,7.9,7.9,7.5,8.3,7.5z"/>
		<path d="M14.8,7.1H8.3c-0.6,0-1.2,0.5-1.2,1.2v6.6c0,0.6,0.5,1.2,1.2,1.2h6.6c0.6,0,1.2-0.5,1.2-1.2V8.3C16,7.6,15.5,7.1,14.8,7.1
			z M8.3,7.5h6.6c0.4,0,0.8,0.3,0.8,0.8v0.4H7.5V8.3C7.5,7.9,7.9,7.5,8.3,7.5z M14.8,15.6H8.3c-0.4,0-0.8-0.3-0.8-0.8V9h8.1v5.8
			C15.6,15.3,15.3,15.6,14.8,15.6z"/>
		<g>
			<circle cx="8.3" cy="8.1" r="0.2"/>
			<circle cx="9.2" cy="8.1" r="0.2"/>
			<circle cx="13.7" cy="8.1" r="0.3"/>
			<circle cx="14.8" cy="8.1" r="0.3"/>
		</g>
		<g>
			<path d="M14.6,10.6H8.5c-0.1,0-0.3-0.1-0.3-0.3v0c0-0.1,0.1-0.3,0.3-0.3h6.1c0.2,0,0.3,0.1,0.3,0.3v0
				C14.9,10.5,14.8,10.6,14.6,10.6z"/>
			<path d="M12.8,11.6H8.5c-0.1,0-0.3-0.1-0.3-0.3v0c0-0.1,0.1-0.3,0.3-0.3h4.3c0.2,0,0.3,0.1,0.3,0.3l0,0
				C13.1,11.5,13,11.6,12.8,11.6z"/>
			<path d="M14,12.6H8.5c-0.1,0-0.3-0.1-0.3-0.3v0c0-0.1,0.1-0.3,0.3-0.3h5.5c0.2,0,0.3,0.1,0.3,0.3v0C14.2,12.5,14.1,12.6,14,12.6z
				"/>
			<path d="M14.6,13.6H8.5c-0.1,0-0.3-0.1-0.3-0.3v0c0-0.1,0.1-0.3,0.3-0.3h6.1c0.2,0,0.3,0.1,0.3,0.3v0
				C14.9,13.5,14.8,13.6,14.6,13.6z"/>
			<path d="M14.6,14.6H8.5c-0.1,0-0.3-0.1-0.3-0.3v0c0-0.1,0.1-0.3,0.3-0.3h6.1c0.2,0,0.3,0.1,0.3,0.3l0,0
				C14.9,14.4,14.8,14.6,14.6,14.6z"/>
		</g>
	</g>
</g>
</svg>
