<?xml version="1.0" encoding="utf-8"?>
<!-- Generator: Adobe Illustrator 24.0.3, SVG Export Plug-In . SVG Version: 6.00 Build 0)  -->
<svg version="1.1" id="Capa_1" xmlns="http://www.w3.org/2000/svg" xmlns:xlink="http://www.w3.org/1999/xlink" x="0px" y="0px"
	 viewBox="0 0 16 16" style="enable-background:new 0 0 16 16;" xml:space="preserve">
<style type="text/css">
	.st0{fill-rule:evenodd;clip-rule:evenodd;fill:#FFFFFF;filter:url(#Adobe_OpacityMaskFilter);}
	.st1{mask:url(#mask0_2_);}
	.st2{fill:#0065A9;}
	.st3{fill:#007ACC;}
	.st4{fill:#1F9CF0;}
	.st5{opacity:0.25;}
	.st6{fill-rule:evenodd;clip-rule:evenodd;fill:url(#SVGID_1_);}
</style>
<defs>
	<filter id="Adobe_OpacityMaskFilter" filterUnits="userSpaceOnUse" x="0" y="0" width="16" height="16">
		<feColorMatrix  type="matrix" values="1 0 0 0 0  0 1 0 0 0  0 0 1 0 0  0 0 0 1 0"/>
	</filter>
</defs>
<mask maskUnits="userSpaceOnUse" x="0" y="0" width="16" height="16" id="mask0_2_">
	<path class="st0" d="M11.3,15.9c0.3,0.1,0.5,0.1,0.8,0l3.3-1.6c0.3-0.2,0.6-0.5,0.6-0.9V2.6c0-0.4-0.2-0.7-0.6-0.9l-3.3-1.6
		c-0.3-0.2-0.7-0.1-1,0.1c0,0-0.1,0.1-0.1,0.1L4.7,6.1L2,4C1.7,3.8,1.3,3.8,1.1,4L0.2,4.8c-0.3,0.3-0.3,0.7,0,1L2.6,8l-2.4,2.2
		c-0.3,0.3-0.3,0.7,0,1L1.1,12c0.2,0.2,0.6,0.2,0.9,0l2.7-2.1l6.3,5.8C11.1,15.8,11.2,15.9,11.3,15.9z M12,4.3L7.2,8l4.8,3.7V4.3z"
		/>
</mask>
<g class="st1">
	<path class="st2" d="M15.4,1.7l-3.3-1.6C11.8-0.1,11.3,0,11,0.3L0.2,10.2c-0.3,0.3-0.3,0.7,0,1L1.1,12c0.2,0.2,0.6,0.2,0.9,0
		l13-9.9c0.4-0.3,1.1,0,1.1,0.5v0C16,2.2,15.8,1.9,15.4,1.7z"/>
	<g>
		<path class="st3" d="M15.4,14.3l-3.3,1.6c-0.4,0.2-0.8,0.1-1.1-0.2L0.2,5.8c-0.3-0.3-0.3-0.7,0-1L1.1,4c0.2-0.2,0.6-0.2,0.9,0
			l13,9.9c0.4,0.3,1.1,0,1.1-0.5v0C16,13.8,15.8,14.1,15.4,14.3z"/>
	</g>
	<g>
		<path class="st4" d="M12.1,15.9c-0.4,0.2-0.8,0.1-1.1-0.2c0.4,0.4,1,0.1,1-0.4V0.7c0-0.5-0.6-0.8-1-0.4c0.3-0.3,0.8-0.4,1.1-0.2
			l3.3,1.6C15.8,1.9,16,2.2,16,2.6v10.8c0,0.4-0.2,0.7-0.6,0.9L12.1,15.9z"/>
	</g>
	<g class="st5">
		
			<linearGradient id="SVGID_1_" gradientUnits="userSpaceOnUse" x1="7.9951" y1="18" x2="7.9951" y2="2" gradientTransform="matrix(1 0 0 -1 0 18)">
			<stop  offset="0" style="stop-color:#FFFFFF"/>
			<stop  offset="1" style="stop-color:#FFFFFF;stop-opacity:0"/>
		</linearGradient>
		<path class="st6" d="M11.3,15.9c0.3,0.1,0.5,0.1,0.8,0l3.3-1.6c0.3-0.2,0.6-0.5,0.6-0.9V2.6c0-0.4-0.2-0.7-0.6-0.9l-3.3-1.6
			c-0.3-0.2-0.7-0.1-1,0.1c0,0-0.1,0.1-0.1,0.1L4.7,6.1L1.9,4C1.7,3.8,1.3,3.8,1.1,4L0.2,4.8c-0.3,0.3-0.3,0.7,0,1L2.6,8l-2.4,2.2
			c-0.3,0.3-0.3,0.7,0,1L1.1,12c0.2,0.2,0.6,0.2,0.9,0l2.7-2.1l6.3,5.8C11.1,15.8,11.2,15.9,11.3,15.9z M12,4.3L7.2,8l4.8,3.7V4.3z"
			/>
	</g>
</g>
</svg>
