<?xml version="1.0" encoding="utf-8"?>
<!-- Generator: Adobe Illustrator 24.0.3, SVG Export Plug-In . SVG Version: 6.00 Build 0)  -->
<svg version="1.1" id="Capa_1" xmlns="http://www.w3.org/2000/svg" xmlns:xlink="http://www.w3.org/1999/xlink" x="0px" y="0px"
	 viewBox="0 0 16 16" style="enable-background:new 0 0 16 16;" xml:space="preserve">
<style type="text/css">
	.st0{fill:#261300;}
	.st1{fill:#FF731E;}
</style>
<g>
	<g>
		<path id="_x30_2_6_" class="st0" d="M10.4,0H3.7c-1.1,0-2,0.9-2,2v12c0,1.1,0.9,2,2,2h8.7c1.1,0,2-0.9,2-2V3.9L10.4,0z"/>
		<g>
			<path id="_x30_2_5_" class="st1" d="M10.1,0.7l3.5,3.5V14c0,0.7-0.6,1.3-1.3,1.3H3.7c-0.7,0-1.3-0.6-1.3-1.3V2
				c0-0.7,0.6-1.3,1.3-1.3H10.1 M10.4,0H3.7c-1.1,0-2,0.9-2,2v12c0,1.1,0.9,2,2,2h8.7c1.1,0,2-0.9,2-2V3.9L10.4,0L10.4,0z"/>
			<path id="_x30_2_4_" class="st1" d="M10.2,2V0l4.1,4.1h-2C11.2,4.1,10.2,3.2,10.2,2z"/>
		</g>
	</g>
	<g>
		<path class="st1" d="M8.2,10.8h-2l-0.4,1.2H4.5l2.1-5.6h1.1l2.1,5.6H8.6L8.2,10.8z M6.4,9.8h1.4L7.1,7.7L6.4,9.8z"/>
		<path class="st1" d="M10.2,6.6c0-0.2,0.1-0.3,0.2-0.4c0.1-0.1,0.3-0.2,0.5-0.2c0.2,0,0.3,0.1,0.5,0.2s0.2,0.2,0.2,0.4
			c0,0.2-0.1,0.3-0.2,0.4c-0.1,0.1-0.3,0.2-0.5,0.2s-0.3-0.1-0.5-0.2C10.3,7,10.2,6.8,10.2,6.6z M11.4,11.9h-1.1V7.7h1.1V11.9z"/>
	</g>
</g>
</svg>
