<?xml version="1.0" encoding="utf-8"?>
<!-- Generator: Adobe Illustrator 24.0.3, SVG Export Plug-In . SVG Version: 6.00 Build 0)  -->
<svg version="1.1" id="Capa_1" xmlns="http://www.w3.org/2000/svg" xmlns:xlink="http://www.w3.org/1999/xlink" x="0px" y="0px"
	 viewBox="0 0 16 16" style="enable-background:new 0 0 16 16;" xml:space="preserve">
<style type="text/css">
	.st0{fill:#CCCCCC;}
	.st1{fill:#4D4D4D;}
	.st2{fill:#926DCC;}
	.st3{fill:#7AC943;}
</style>
<g>
	<g>
		<g>
			<path id="_x30_2_3_" class="st0" d="M11.2,0H4.5c-1.1,0-2,0.9-2,2v12c0,1.1,0.9,2,2,2h8.7c1.1,0,2-0.9,2-2V3.9L11.2,0z"/>
			<g>
				<path id="_x30_2_2_" class="st1" d="M11,0.7l3.5,3.5V14c0,0.7-0.6,1.3-1.3,1.3H4.5c-0.7,0-1.3-0.6-1.3-1.3V2
					c0-0.7,0.6-1.3,1.3-1.3H11 M11.2,0H4.5c-1.1,0-2,0.9-2,2v12c0,1.1,0.9,2,2,2h8.7c1.1,0,2-0.9,2-2V3.9L11.2,0L11.2,0z"/>
				<path id="_x30_2_1_" class="st1" d="M11,2V0l4.1,4.1h-2C12,4.1,11,3.2,11,2z"/>
			</g>
		</g>
		<g>
			<path class="st1" d="M10.2,6.1c0.3-0.4,0.5-0.8,0.5-1.3l0,0c0-0.1,0-0.1,0-0.2c-0.2,0-0.5,0.1-0.7,0.2C9.7,5,9.5,5.1,9.4,5.3
				C9,5.7,8.8,6.1,8.8,6.6c0,0.1,0,0.1,0,0.2C9.4,6.8,9.8,6.5,10.2,6.1z"/>
			<path class="st1" d="M12.6,11.2c-0.2-0.1-0.4-0.2-0.6-0.4c-0.4-0.4-0.6-0.9-0.6-1.4c0-0.7,0.3-1.3,1-1.7
				c-0.4-0.5-0.9-0.8-1.7-0.9c-0.3,0-0.6,0-1,0.2C9.2,7.1,9,7.2,8.9,7.2C8.8,7.2,8.6,7.1,8.2,7C7.9,6.8,7.6,6.8,7.4,6.8
				C7,6.8,6.6,6.9,6.3,7.1S5.6,7.6,5.4,7.9C5.2,8.4,5,8.9,5,9.5c0,0.5,0.1,1.1,0.3,1.6c0.2,0.5,0.4,1,0.7,1.4
				c0.3,0.4,0.5,0.6,0.7,0.8c0.3,0.3,0.5,0.4,0.8,0.4c0.2,0,0.4-0.1,0.7-0.2c0.3-0.1,0.6-0.2,0.8-0.2c0.2,0,0.5,0.1,0.8,0.2
				c0.3,0.1,0.5,0.2,0.7,0.2c0.3,0,0.6-0.1,0.8-0.4c0.2-0.1,0.4-0.4,0.6-0.8c0.2-0.3,0.3-0.6,0.5-0.9l0,0
				C12.5,11.5,12.6,11.4,12.6,11.2z"/>
		</g>
	</g>
	<g>
		<rect x="0.8" y="0" class="st2" width="9.7" height="7"/>
		<g>
			<path class="st3" d="M5.6,3.5c0,0.4,0,0.8-0.1,1.1C5.4,4.9,5.3,5.1,5.1,5.3C4.9,5.6,4.7,5.7,4.5,5.8S4,6,3.7,6
				C3.4,6,3.2,6,2.9,5.9C2.7,5.8,2.5,5.6,2.4,5.4C2.2,5.2,2.1,5,2,4.6C1.9,4.3,1.8,4,1.8,3.5c0-0.4,0-0.8,0.1-1.1s0.2-0.6,0.4-0.8
				C2.5,1.4,2.7,1.3,3,1.2C3.2,1.1,3.5,1,3.8,1C4,1,4.3,1,4.5,1.1s0.4,0.2,0.6,0.4S5.4,2,5.5,2.3C5.6,2.7,5.6,3,5.6,3.5z M2.7,3.5
				c0,0,0,0.1,0,0.1c0,0,0,0.1,0,0.1l1.8-1.3C4.5,2.2,4.4,2,4.2,1.9C4.1,1.8,3.9,1.7,3.7,1.7c-0.1,0-0.3,0-0.4,0.1
				C3.2,1.9,3.1,2,3,2.2S2.9,2.5,2.8,2.7C2.8,2.9,2.7,3.2,2.7,3.5z M4.7,3.5c0,0,0-0.1,0-0.1c0,0,0-0.1,0-0.1L2.9,4.6
				C3,4.8,3.1,5,3.2,5.1s0.3,0.2,0.5,0.2c0.1,0,0.3,0,0.4-0.1C4.2,5.1,4.3,5,4.4,4.8c0.1-0.1,0.2-0.3,0.2-0.5
				C4.7,4.1,4.7,3.8,4.7,3.5z"/>
			<path class="st3" d="M6.4,5.9V5.1h1.2V2L6.5,2.6L6.2,1.9l1.5-0.8h0.8v4.1h1.1v0.8H6.4z"/>
		</g>
	</g>
</g>
</svg>
