<?xml version="1.0" encoding="utf-8"?>
<!-- Generator: Adobe Illustrator 24.0.3, SVG Export Plug-In . SVG Version: 6.00 Build 0)  -->
<svg version="1.1" id="Capa_1" xmlns="http://www.w3.org/2000/svg" xmlns:xlink="http://www.w3.org/1999/xlink" x="0px" y="0px"
	 viewBox="0 0 16 16" style="enable-background:new 0 0 16 16;" xml:space="preserve">
<style type="text/css">
	.st0{fill:#CCCCCC;}
	.st1{fill:#4D4D4D;}
</style>
<g>
	<g>
		<path id="_x30_2_9_" class="st0" d="M10.4,0H3.7c-1.1,0-2,0.9-2,2v12c0,1.1,0.9,2,2,2h8.7c1.1,0,2-0.9,2-2V3.9L10.4,0z"/>
		<g>
			<path id="_x30_2_8_" class="st1" d="M10.1,0.7l3.5,3.5V14c0,0.7-0.6,1.3-1.3,1.3H3.7c-0.7,0-1.3-0.6-1.3-1.3V2
				c0-0.7,0.6-1.3,1.3-1.3H10.1 M10.4,0H3.7c-1.1,0-2,0.9-2,2v12c0,1.1,0.9,2,2,2h8.7c1.1,0,2-0.9,2-2V3.9L10.4,0L10.4,0z"/>
			<path id="_x30_2_7_" class="st1" d="M10.2,2V0l4.1,4.1h-2C11.2,4.1,10.2,3.2,10.2,2z"/>
		</g>
	</g>
	<g>
		<path class="st1" d="M9.4,6.1c0.3-0.4,0.5-0.8,0.5-1.3l0,0c0-0.1,0-0.1,0-0.2c-0.2,0-0.5,0.1-0.7,0.2C8.9,5,8.7,5.1,8.5,5.3
			C8.2,5.7,8,6.1,8,6.6c0,0.1,0,0.1,0,0.2C8.5,6.8,9,6.5,9.4,6.1z"/>
		<path class="st1" d="M11.8,11.2c-0.2-0.1-0.4-0.2-0.6-0.4c-0.4-0.4-0.6-0.9-0.6-1.4c0-0.7,0.3-1.3,1-1.7c-0.4-0.5-0.9-0.8-1.7-0.9
			c-0.3,0-0.6,0-1,0.2C8.4,7.1,8.1,7.2,8.1,7.2C8,7.2,7.7,7.1,7.4,7C7,6.8,6.7,6.8,6.5,6.8c-0.4,0-0.8,0.1-1.1,0.3
			C5.1,7.3,4.8,7.6,4.6,7.9c-0.3,0.4-0.4,1-0.4,1.6c0,0.5,0.1,1.1,0.3,1.6c0.2,0.5,0.4,1,0.7,1.4c0.3,0.4,0.5,0.6,0.7,0.8
			c0.3,0.3,0.5,0.4,0.8,0.4c0.2,0,0.4-0.1,0.7-0.2c0.3-0.1,0.6-0.2,0.8-0.2c0.2,0,0.5,0.1,0.8,0.2c0.3,0.1,0.5,0.2,0.7,0.2
			c0.3,0,0.6-0.1,0.8-0.4c0.2-0.1,0.4-0.4,0.6-0.8c0.2-0.3,0.3-0.6,0.5-0.9l0,0C11.7,11.5,11.7,11.4,11.8,11.2z"/>
	</g>
</g>
</svg>
