<?xml version="1.0" encoding="utf-8"?>
<!-- Generator: Adobe Illustrator 24.0.3, SVG Export Plug-In . SVG Version: 6.00 Build 0)  -->
<svg version="1.1" id="Capa_1" xmlns="http://www.w3.org/2000/svg" xmlns:xlink="http://www.w3.org/1999/xlink" x="0px" y="0px"
	 viewBox="0 0 16 16" style="enable-background:new 0 0 16 16;" xml:space="preserve">
<style type="text/css">
	.st0{fill:#CCCCCC;}
	.st1{fill:#4D4D4D;}
	.st2{fill:#926DCC;}
	.st3{fill:#7AC943;}
</style>
<g>
	<g>
		<g>
			<path id="_x30_2_3_" class="st0" d="M11.2,0H4.5c-1.1,0-2,0.9-2,2v12c0,1.1,0.9,2,2,2h8.7c1.1,0,2-0.9,2-2V3.9L11.2,0z"/>
			<g>
				<path id="_x30_2_2_" class="st1" d="M11,0.7l3.5,3.5V14c0,0.7-0.6,1.3-1.3,1.3H4.5c-0.7,0-1.3-0.6-1.3-1.3V2
					c0-0.7,0.6-1.3,1.3-1.3H11 M11.2,0H4.5c-1.1,0-2,0.9-2,2v12c0,1.1,0.9,2,2,2h8.7c1.1,0,2-0.9,2-2V3.9L11.2,0L11.2,0z"/>
				<path id="_x30_2_1_" class="st1" d="M11,2V0l4.1,4.1h-2C12,4.1,11,3.2,11,2z"/>
			</g>
		</g>
		<g>
			<path class="st1" d="M10.2,6.1c0.3-0.4,0.5-0.8,0.5-1.3l0,0c0-0.1,0-0.1,0-0.2c-0.2,0-0.5,0.1-0.7,0.2C9.7,5,9.5,5.1,9.4,5.3
				C9,5.7,8.8,6.1,8.8,6.6c0,0.1,0,0.1,0,0.2C9.4,6.8,9.8,6.5,10.2,6.1z"/>
			<path class="st1" d="M12.6,11.2c-0.2-0.1-0.4-0.2-0.6-0.4c-0.4-0.4-0.6-0.9-0.6-1.4c0-0.7,0.3-1.3,1-1.7
				c-0.4-0.5-0.9-0.8-1.7-0.9c-0.3,0-0.6,0-1,0.2C9.2,7.1,9,7.2,8.9,7.2C8.8,7.2,8.6,7.1,8.2,7C7.9,6.8,7.6,6.8,7.4,6.8
				C7,6.8,6.6,6.9,6.3,7.1S5.6,7.6,5.4,7.9C5.2,8.4,5,8.9,5,9.5c0,0.5,0.1,1.1,0.3,1.6c0.2,0.5,0.4,1,0.7,1.4
				c0.3,0.4,0.5,0.6,0.7,0.8c0.3,0.3,0.5,0.4,0.8,0.4c0.2,0,0.4-0.1,0.7-0.2c0.3-0.1,0.6-0.2,0.8-0.2c0.2,0,0.5,0.1,0.8,0.2
				c0.3,0.1,0.5,0.2,0.7,0.2c0.3,0,0.6-0.1,0.8-0.4c0.2-0.1,0.4-0.4,0.6-0.8c0.2-0.3,0.3-0.6,0.5-0.9l0,0
				C12.5,11.5,12.6,11.4,12.6,11.2z"/>
		</g>
	</g>
	<g>
		<path class="st2" d="M10.7,9.9c0.2-0.2,0.2-0.4,0-0.6L9,7.6c0.3-0.6,0.2-1.3-0.3-1.8L8.4,5.5c0.1-0.6,0-1.3-0.5-1.8L5.3,1.1
			c-0.6-0.6-1.6-0.6-2.2,0L2.8,1.4L2.5,1.1l0.4-0.4C3,0.6,3,0.3,2.9,0.1C2.7,0,2.4,0,2.3,0.1L1,1.4C0.8,1.6,0.8,1.8,1,2
			c0.2,0.2,0.4,0.2,0.6,0l0.4-0.4L2.2,2L1.9,2.3c-0.6,0.6-0.6,1.6,0,2.2l2.6,2.6C5,7.6,5.7,7.8,6.3,7.6L6.7,8
			c0.5,0.5,1.2,0.6,1.8,0.3l1.7,1.7C10.3,10,10.5,10,10.7,9.9z M5.2,6.6L2.5,3.9c-0.3-0.3-0.3-0.7,0-1c0,0,0.7-0.7,1.2-1.2
			c0.3-0.3,0.7-0.3,0.9,0l0.1,0.1L4.2,2.5C4,2.6,4,2.9,4.2,3.1s0.4,0.2,0.6,0l0.7-0.7l0.5,0.5L5.2,3.5C5.1,3.7,5.1,4,5.2,4.1
			c0.2,0.2,0.4,0.2,0.6,0l0.7-0.7l0.4,0.4L6.3,4.6C6.1,4.7,6.1,5,6.3,5.2c0.2,0.2,0.4,0.2,0.6,0l0.6-0.6c0.3,0.4,0.2,1-0.1,1.3
			L6.7,6.6C6.3,7,5.6,7,5.2,6.6z M7.3,7.4L7.2,7.2l0.9-0.9l0.1,0.1c0.3,0.3,0.3,0.7,0,0.9C7.9,7.6,7.5,7.6,7.3,7.4z"/>
		<path class="st3" d="M5.2,6.6L2.5,3.9c-0.3-0.3-0.3-0.7,0-1c0,0,0.7-0.7,1.2-1.2c0.3-0.3,0.7-0.3,0.9,0l0.1,0.1L4.2,2.5
			C4,2.6,4,2.9,4.2,3.1s0.4,0.2,0.6,0l0.7-0.7l0.5,0.5L5.2,3.5C5.1,3.7,5.1,4,5.2,4.1c0.2,0.2,0.4,0.2,0.6,0l0.7-0.7l0.4,0.4
			L6.3,4.6C6.1,4.7,6.1,5,6.3,5.2c0.2,0.2,0.4,0.2,0.6,0l0.6-0.6c0.3,0.4,0.2,1-0.1,1.3L6.7,6.6C6.3,7,5.6,7,5.2,6.6z"/>
		<path class="st3" d="M7.3,7.4L7.2,7.2l0.9-0.9l0.1,0.1c0.3,0.3,0.3,0.7,0,0.9C7.9,7.6,7.5,7.6,7.3,7.4z"/>
	</g>
</g>
</svg>
