<?xml version="1.0" encoding="utf-8"?>
<!-- Generator: Adobe Illustrator 24.0.3, SVG Export Plug-In . SVG Version: 6.00 Build 0)  -->
<svg version="1.1" id="Capa_1" xmlns="http://www.w3.org/2000/svg" xmlns:xlink="http://www.w3.org/1999/xlink" x="0px" y="0px"
	 viewBox="0 0 16 16" style="enable-background:new 0 0 16 16;" xml:space="preserve">
<style type="text/css">
	.st0{fill-rule:evenodd;clip-rule:evenodd;fill:#FF731E;}
</style>
<title>file_type_astro</title>
<path class="st0" d="M2,9.7c-0.2,0.5-0.3,1-0.3,1.6c0,0.3,0.1,0.7,0.3,0.9c0.4,0.4,0.8,0.7,1.3,1l3.1,2c0.4,0.3,0.8,0.5,1.3,0.7
	c0.3,0.1,0.6,0.1,0.9,0c0.5-0.2,0.9-0.4,1.3-0.7l3.1-2c0.5-0.3,0.9-0.6,1.3-1c0.2-0.3,0.3-0.6,0.3-0.9c0-0.5-0.1-1.1-0.4-1.6
	l-2.7-8.5c-0.1-0.3-0.2-0.5-0.3-0.8c-0.1-0.1-0.3-0.2-0.4-0.3C10.3,0,10,0,9.7,0H6.2C5.9,0,5.6,0,5.4,0.1C5.2,0.1,5.1,0.3,5,0.4
	C4.8,0.6,4.7,0.9,4.6,1.2L2,9.7L2,9.7z M9.9,1.8C10,2,10.1,2.2,10.1,2.5l2.3,7.6c-0.9-0.5-1.8-0.8-2.8-0.9L8.2,4.1
	C8.1,4,8,3.9,7.9,3.9c0,0,0,0-0.1,0c0,0-0.1,0.1-0.1,0.1L6.3,9.2c-1,0.2-1.9,0.5-2.8,0.9l2.3-7.6C5.9,2.2,6,2,6.1,1.8
	c0.1-0.1,0.2-0.2,0.3-0.3c0.2-0.1,0.5-0.1,0.7-0.1h1.7c0.2,0,0.5,0,0.7,0.1C9.7,1.6,9.8,1.7,9.9,1.8L9.9,1.8z M8.1,11
	c0.7,0,1.4-0.2,2-0.6c0.1,0.4,0.1,0.9-0.1,1.3c-0.2,0.4-0.5,0.7-0.9,0.9c-0.4,0.3-0.7,0.5-0.7,1.1c0,0.2,0,0.4,0.1,0.5
	c-0.6-0.2-0.9-0.8-0.9-1.4v0c0-0.4,0-0.9-0.6-0.9c-0.1,0-0.2,0-0.2,0c-0.1,0.1-0.3,0.2-0.3,0.3c0,0.1,0,0.2,0,0.2
	c-0.4-0.4-0.6-1-0.6-1.6c0-0.3,0-0.5,0.1-0.7C6.1,10.7,7,11,8.1,11L8.1,11z"/>
</svg>
