<?xml version="1.0" encoding="utf-8"?>
<!-- Generator: Adobe Illustrator 24.0.3, SVG Export Plug-In . SVG Version: 6.00 Build 0)  -->
<svg version="1.1" id="Capa_1" xmlns="http://www.w3.org/2000/svg" xmlns:xlink="http://www.w3.org/1999/xlink" x="0px" y="0px"
	 viewBox="0 0 16 16" style="enable-background:new 0 0 16 16;" xml:space="preserve">
<style type="text/css">
	.st0{opacity:0.5;fill:#BDCCD4;}
	.st1{fill:#FF731E;}
	.st2{fill:#3FA9F5;}
	.st3{fill:#FF7BAC;}
</style>
<g>
	<path class="st0" d="M15.1,0H0.9C0.4,0,0,0.4,0,0.9v14.2C0,15.6,0.4,16,0.9,16h14.2c0.5,0,0.9-0.4,0.9-0.9V0.9
		C16,0.4,15.6,0,15.1,0z M13.9,8.9l-3.6,1.6v1.6c0,0.1,0,0.2,0,0.3c0,0,0,0.1,0,0.1c0,0.1,0,0.1-0.1,0.2c0,0,0,0.1-0.1,0.1
		c0,0-0.1,0.1-0.1,0.1c0,0-0.1,0-0.1,0.1c0,0-0.1,0-0.1,0.1c0,0,0,0,0,0c0,0,0,0,0,0c0,0,0,0,0,0c-0.1,0-0.2,0.1-0.4,0.1
		c0,0,0,0,0,0c0,0,0,0,0,0c-0.1,0-0.2,0-0.3-0.1c0,0-0.1,0-0.1,0c0,0-0.1,0-0.1,0L2,8.9C1.7,8.7,1.5,8.4,1.5,8S1.7,7.3,2,7.1L8.8,3
		c0,0,0.1,0,0.1,0C8.9,3,9,3,9,3c0.1,0,0.2-0.1,0.3-0.1c0,0,0,0,0,0h0c0,0,0,0,0,0c0.1,0,0.2,0,0.4,0.1c0,0,0,0,0,0c0,0,0,0,0,0
		c0,0,0,0,0,0c0,0,0.1,0,0.1,0.1c0,0,0.1,0,0.1,0.1c0,0,0.1,0.1,0.1,0.1c0,0,0,0.1,0.1,0.1c0,0.1,0.1,0.1,0.1,0.2c0,0,0,0.1,0,0.1
		c0,0.1,0,0.2,0,0.3v1.6l3.6,1.6c0.4,0.2,0.6,0.5,0.6,0.9S14.3,8.7,13.9,8.9z"/>
	<g>
		<polygon class="st1" points="9.3,12.1 2.5,8 9.3,3.9 		"/>
	</g>
	<g>
		<polygon class="st2" points="9.3,12.1 7.7,10.6 9.3,9.9 		"/>
	</g>
	<g>
		<polygon class="st2" points="7.7,5.4 9.3,3.9 9.3,6.1 		"/>
	</g>
	<g>
		<polygon class="st3" points="13.5,8 7.7,10.6 7.7,5.4 		"/>
	</g>
</g>
</svg>
