<?xml version="1.0" encoding="utf-8"?>
<!-- Generator: Adobe Illustrator 24.0.3, SVG Export Plug-In . SVG Version: 6.00 Build 0)  -->
<svg version="1.1" id="Capa_1" xmlns="http://www.w3.org/2000/svg" xmlns:xlink="http://www.w3.org/1999/xlink" x="0px" y="0px"
	 viewBox="0 0 16 16" style="enable-background:new 0 0 16 16;" xml:space="preserve">
<style type="text/css">
	.st0{fill:#666666;}
	.st1{fill:#3FA9F5;}
	.st2{fill:#FF731E;}
</style>
<g>
	<path class="st0" d="M14.5,0.4h-13C0.7,0.4,0,1.1,0,1.9v12.2c0,0.8,0.7,1.5,1.5,1.5h13c0.8,0,1.5-0.7,1.5-1.5V1.9
		C16,1.1,15.3,0.4,14.5,0.4z M15,14.1c0,0.3-0.2,0.5-0.5,0.5h-13c-0.3,0-0.5-0.2-0.5-0.5V4.5h14L15,14.1L15,14.1L15,14.1z"/>
	<path class="st1" d="M2.4,11c0.4,0.1,0.7,0.3,0.9,0.7c0.2,0.3,0.3,0.8,0.2,1.2c0,0,0,0.1,0,0.1l0.9,0.7c0.1,0,0.1,0,0.1,0
		c0.2-0.1,0.4-0.2,0.6-0.2c0.2,0,0.4,0,0.6,0c0.4,0.1,0.7,0.3,0.9,0.7c0,0,0.1,0,0.1,0L7.9,14c0,0,0.1,0,0.1-0.1
		c0.1-0.4,0.3-0.7,0.7-0.9c0.3-0.2,0.7-0.3,1.1-0.2c0,0,0-0.1,0-0.1c0-0.1,0-0.1,0-0.2c0-0.1-0.1-0.1-0.2-0.1
		c-0.2,0-0.3-0.2-0.4-0.4l-0.1-0.5c0-0.2,0.1-0.4,0.2-0.5c0.1,0,0.1-0.1,0.1-0.2c0-0.1,0-0.1,0-0.2c-0.1-0.2-0.1-0.4,0-0.6l0.3-0.4
		c0.1-0.1,0.2-0.2,0.3-0.2l0.1,0l0.1,0c0.1,0,0.1,0,0.2,0c0.1,0,0.1-0.1,0.1-0.2c0-0.2,0.2-0.3,0.4-0.4l-0.1-0.3c0,0,0-0.1-0.1-0.1
		c-0.4-0.1-0.7-0.3-0.9-0.7C9.7,7.4,9.6,7,9.7,6.6c0,0,0-0.1,0-0.1L8.8,5.8c-0.1,0-0.1,0-0.1,0C8.4,6,7.9,6.1,7.5,6
		C7.2,5.9,6.8,5.7,6.6,5.3c0,0-0.1,0-0.1,0L5.4,5.4c0,0-0.1,0-0.1,0.1C5.2,5.9,5,6.2,4.7,6.5C4.3,6.7,3.9,6.7,3.5,6.6
		c0,0-0.1,0-0.1,0L2.7,7.6c0,0,0,0.1,0,0.1C3,8,3,8.4,2.9,8.8C2.8,9.2,2.6,9.6,2.2,9.8c0,0,0,0.1,0,0.1L2.4,11C2.4,11,2.4,11,2.4,11
		z M6.3,7.5c1.2-0.2,2.3,0.6,2.5,1.8C9,10.6,8.2,11.7,7,11.9c-1.2,0.2-2.3-0.6-2.5-1.8C4.3,8.9,5.1,7.7,6.3,7.5z"/>
	<path class="st2" d="M10.9,9.2c0,0.2-0.2,0.3-0.3,0.4c-0.2,0.1-0.4,0.1-0.5,0.1c0,0,0,0,0,0l-0.3,0.4c0,0,0,0,0,0
		c0.1,0.2,0.1,0.4,0.1,0.5c0,0.2-0.2,0.3-0.3,0.4c0,0,0,0,0,0l0.1,0.5c0,0,0,0,0,0c0.2,0,0.3,0.2,0.4,0.3c0.1,0.2,0.1,0.4,0.1,0.5
		c0,0,0,0,0,0l0.4,0.3c0,0,0,0,0,0c0.1-0.1,0.2-0.1,0.3-0.1c0.1,0,0.2,0,0.3,0c0.2,0,0.3,0.2,0.4,0.3c0,0,0,0,0,0l0.5-0.1
		c0,0,0,0,0,0c0-0.2,0.2-0.3,0.3-0.4c0.2-0.1,0.4-0.1,0.5-0.1c0,0,0,0,0,0l0.3-0.4c0,0,0,0,0,0c-0.1-0.2-0.1-0.4-0.1-0.5
		c0-0.2,0.2-0.3,0.3-0.4c0,0,0,0,0,0l-0.1-0.5c0,0,0,0,0,0c-0.2,0-0.3-0.2-0.4-0.3C13,10.1,12.9,9.9,13,9.7c0,0,0,0,0,0l-0.4-0.3
		c0,0,0,0,0,0c-0.2,0.1-0.4,0.1-0.5,0.1c-0.2,0-0.3-0.2-0.4-0.3c0,0,0,0,0,0L10.9,9.2C10.9,9.2,10.9,9.2,10.9,9.2z M12.6,11
		c0.1,0.6-0.3,1.1-0.9,1.2c-0.6,0.1-1.1-0.3-1.2-0.9c-0.1-0.6,0.3-1.1,0.9-1.2C11.9,10.1,12.5,10.5,12.6,11z"/>
</g>
</svg>
