<?xml version="1.0" encoding="utf-8"?>
<!-- Generator: Adobe Illustrator 24.0.3, SVG Export Plug-In . SVG Version: 6.00 Build 0)  -->
<svg version="1.1" id="Capa_1" xmlns="http://www.w3.org/2000/svg" xmlns:xlink="http://www.w3.org/1999/xlink" x="0px" y="0px"
	 viewBox="0 0 16 16" style="enable-background:new 0 0 16 16;" xml:space="preserve">
<style type="text/css">
	.st0{fill:#BDCCD4;}
	.st1{fill:#4D4D4D;}
	.st2{fill:#4D4D4D;fill-opacity:0.1569;}
	.st3{fill:#F2F2F2;}
	.st4{opacity:0.3;fill:#4D4D4D;}
</style>
<path id="rect4121_2_" class="st0" d="M3.3,15.8l4.8,0l4.9,0c1.6-0.2,2.9-1.5,2.9-3.2c0,0,0,0,0,0c0,0,0,0,0,0c0-0.7,0-1.6,0-2.9v-5
	l-2.3-2.3l-2.3-2.3l-5,0c-1.3,0-2.3,0-3,0c-1.7,0.1-3,1.4-3.1,3.1c0,1,0,2.5,0,4.7c0,2.2,0,3.7,0,4.7C0.2,14.4,1.6,15.8,3.3,15.8
	L3.3,15.8z"/>
<path class="st1" d="M3.3,16C3.3,16,3.3,16,3.3,16c-0.9,0-1.7-0.4-2.3-1c-0.6-0.6-1-1.4-1-2.3c0,0,0,0,0,0c0-1,0-2.4,0-4.7
	c0-2.3,0-3.7,0-4.7c0,0,0,0,0,0C0.1,1.5,1.5,0.1,3.2,0c0,0,0,0,0,0c0.7,0,1.7,0,3,0l5,0c0,0,0,0,0,0c0,0,0.1,0,0.1,0l2.3,2.3L16,4.6
	c0,0,0,0.1,0,0.1v5.5c0,1,0,1.8,0,2.4v0c0,0,0,0,0,0c0,0,0,0,0,0c0,0.8-0.3,1.6-0.9,2.2c-0.6,0.6-1.3,1-2.2,1.1c0,0,0,0,0,0l-4.9,0
	L3.3,16C3.3,16,3.3,16,3.3,16z M0.3,12.7c0,0.8,0.4,1.5,0.9,2.1c0.6,0.5,1.3,0.9,2.1,0.9l4.8,0l4.9,0c0.7-0.1,1.4-0.4,1.9-1
	c0.5-0.6,0.8-1.3,0.8-2c0,0,0,0,0,0v0c0-0.6,0-1.4,0-2.4V4.8l-2.2-2.2l-2.2-2.2l-5,0c-1.3,0-2.3,0-3,0c-1.6,0.1-2.9,1.4-2.9,3
	c0,1,0,2.4,0,4.7C0.3,10.3,0.3,11.7,0.3,12.7z"/>
<path id="path6657_1_" class="st2" d="M11.3,0.2v3.4c0,0.3,0.1,0.6,0.4,0.8l4.2,4.2V4.7l-2.3-2.3L11.3,0.2z"/>
<path id="path24_2_" class="st3" d="M11.3,0.2v3.4c0,0.6,0.5,1.1,1.1,1.1h3.4L11.3,0.2"/>
<path class="st1" d="M15.8,4.9h-3.4c-0.7,0-1.3-0.6-1.3-1.3V0.2c0-0.1,0-0.1,0.1-0.2c0.1,0,0.1,0,0.2,0L16,4.6c0,0,0.1,0.1,0,0.2
	C16,4.8,15.9,4.9,15.8,4.9z M11.5,0.6v3c0,0.5,0.4,1,1,1h3L11.5,0.6z"/>
<path class="st4" d="M10.1,2.4h-8C1.9,2.4,1.7,2.3,1.7,2v0c0-0.2,0.2-0.4,0.4-0.4h8c0.2,0,0.4,0.2,0.4,0.4v0
	C10.5,2.3,10.3,2.4,10.1,2.4z"/>
<path class="st4" d="M10.1,4.4h-8C1.9,4.4,1.7,4.2,1.7,4v0c0-0.2,0.2-0.4,0.4-0.4h8c0.2,0,0.4,0.2,0.4,0.4v0
	C10.5,4.2,10.3,4.4,10.1,4.4z"/>
<path class="st4" d="M10.1,6.3h-8c-0.2,0-0.4-0.2-0.4-0.4v0c0-0.2,0.2-0.4,0.4-0.4h8c0.2,0,0.4,0.2,0.4,0.4v0
	C10.5,6.1,10.3,6.3,10.1,6.3z"/>
<path class="st4" d="M10.1,8.2h-8c-0.2,0-0.4-0.2-0.4-0.4v0c0-0.2,0.2-0.4,0.4-0.4h8c0.2,0,0.4,0.2,0.4,0.4v0
	C10.5,8.1,10.3,8.2,10.1,8.2z"/>
<path class="st4" d="M10.1,10.2h-8c-0.2,0-0.4-0.2-0.4-0.4l0,0c0-0.2,0.2-0.4,0.4-0.4h8c0.2,0,0.4,0.2,0.4,0.4l0,0
	C10.5,10,10.3,10.2,10.1,10.2z"/>
<path class="st4" d="M10.1,12.1h-8c-0.2,0-0.4-0.2-0.4-0.4v0c0-0.2,0.2-0.4,0.4-0.4h8c0.2,0,0.4,0.2,0.4,0.4v0
	C10.5,11.9,10.3,12.1,10.1,12.1z"/>
<path class="st4" d="M10.1,14.1h-8c-0.2,0-0.4-0.2-0.4-0.4v0c0-0.2,0.2-0.4,0.4-0.4h8c0.2,0,0.4,0.2,0.4,0.4v0
	C10.5,13.9,10.3,14.1,10.1,14.1z"/>
<path id="path14_1_" class="st1" d="M9.3,6.2v0.2c0.4,0,0.5,0,0.6,0.2l1.3,1.9L10,10.2c-0.3,0.4-0.7,0.4-0.9,0.4v0.2
	c0.1,0,0.3,0,0.4,0c-0.1,0.9-0.3,1.3-1.4,1.3H7.3C7,12.1,7,12,7,11.8V9.9h0.6c0.6,0,0.7,0.2,0.7,0.8h0.1V9H8.3
	c0,0.6-0.1,0.8-0.7,0.8H7V8.1c0-0.2,0-0.3,0.3-0.3h0.9c1,0,1.2,0.4,1.3,1.3h0.1L9.4,7.6H6.5L6.3,6.2H2.4L2.3,7.7h0.1
	c0.1-1.1,0.2-1.3,1.2-1.3h0.4c0.1,0,0.1,0.1,0.1,0.3v3.7c0,0.2,0,0.3-0.6,0.3H3.4v0.2c0.3,0,0.7,0,1,0c0.3,0,0.7,0,1,0v-0.2H5.2
	c-0.6,0-0.6-0.1-0.6-0.3V6.6c0-0.1,0-0.2,0.1-0.3h0.4c1,0,1.1,0.2,1.2,1.3H6v0.2c0.5,0,0.6,0,0.6,0.3v3.6c0,0.3-0.1,0.3-0.6,0.3v0.2
	h3.5l0.2-1.5c0,0,0,0,0.1,0c0.2,0,0.5,0,0.7,0v-0.2c-0.2,0-0.3-0.2-0.3-0.3c0-0.1,0-0.1,0.1-0.2l1.1-1.6l1.2,1.7
	c0.1,0.1,0.1,0.1,0.1,0.1c0,0.1-0.1,0.2-0.3,0.2v0.2c0.2,0,0.5,0,0.8,0c0.2,0,0.5,0,0.7,0v-0.2c-0.4,0-0.5,0-0.6-0.2l-1.5-2.2l1-1.4
	c0.1-0.1,0.3-0.4,0.9-0.4V6.2c-0.2,0-0.4,0-0.6,0c-0.2,0-0.5,0-0.7,0v0.2c0.2,0,0.3,0.2,0.3,0.3c0,0.1,0,0.1-0.1,0.2l-0.9,1.3
	l-1-1.5c0-0.1-0.1-0.1-0.1-0.1c0-0.1,0.1-0.2,0.3-0.2V6.2c-0.2,0-0.5,0-0.8,0C9.8,6.2,9.4,6.2,9.3,6.2L9.3,6.2z"/>
</svg>
