<?xml version="1.0" encoding="utf-8"?>
<!-- Generator: Adobe Illustrator 24.0.3, SVG Export Plug-In . SVG Version: 6.00 Build 0)  -->
<svg version="1.1" id="Capa_1" xmlns="http://www.w3.org/2000/svg" xmlns:xlink="http://www.w3.org/1999/xlink" x="0px" y="0px"
	 viewBox="0 0 16 16" style="enable-background:new 0 0 16 16;" xml:space="preserve">
<style type="text/css">
	.st0{fill:#FF0068;}
	.st1{fill:#333333;}
</style>
<g>
	<path class="st0" d="M8.3,16H7.6c0,0-0.1,0-0.1,0c0,0-0.1,0-0.1,0H3.5c-0.2,0-0.4-0.1-0.5-0.2C2.9,15.9,2.8,16,2.6,16H2.4
		c0,0,0,0,0,0c0,0,0,0,0,0H1.6c-0.3,0-0.6-0.2-0.6-0.5c0-0.1-0.1-0.7,0.2-1.3C1.5,13.6,2,12.9,3,12.5c0-0.1-0.1-0.1-0.1-0.2
		c-0.1-0.2-2-2.9-2.4-4.6C0.4,7.6,0.1,6.2,0,5.2c0,0,0,0,0,0c0,0,0-1.2,0.6-2.4C1.2,1.6,2.4,0.2,5.1,0c0,0,0,0,0,0c0,0,1,0,2.1,0.5
		C8.2,1,9.5,2,9.7,4.2c0,0,0,0.1,0,0.1c0.4-0.5,0.9-0.8,1.3-0.9c0.8-0.3,1.5-0.2,1.5-0.2c0,0,0,0,0,0c1.9,0.2,2.7,1.3,3.1,2.1
		C16,6.1,16,6.9,16,7c0,1.4-0.7,2.3-1.3,2.8c0.3,0.2,0.7,0.7,1,1.2c0.8,1.6,0.2,3.2-0.4,4.2c-0.1,0.3-0.5,0.4-0.7,0.2
		c-0.3-0.1-0.4-0.4-0.4-0.7c0,0,0.1-0.6,0.1-1.3c-0.1-0.8-0.4-1.3-0.9-1.7c-0.1,0-0.2,0-0.3,0c-0.2,0-0.5-0.2-0.6-0.3
		c-0.2,0.1-0.4,0.1-0.6,0.1c-0.2,0.2-0.5,0.5-1,0.5c0,0,0,0.1,0,0.1c0,0,0,0,0.1,0c0.1,0,0.8-0.1,1.4,0.3c0.3,0.2,0.6,0.6,0.7,1.3
		c0,0,0,0,0,0c0,0.1,0.1,0.7-0.4,1.3c-0.4,0.4-0.9,0.6-1.6,0.7c-0.2,0-1.1,0.1-2.2-0.4c0,0.1-0.1,0.2-0.1,0.3
		C8.7,15.9,8.5,16,8.3,16z M3.5,4.8c0,0.1,0,1.4,1.1,3.1c0,0,0,0,0,0L6,10C6.5,9.5,7.2,9,8.2,8.5c0,0,0,0,0.1,0
		c0.1,0,1.5-0.4,3.1-0.2c0,0,0,0,0,0c1,0,1.7-0.2,2-0.6c0.5-0.6,0.3-1.4,0.3-1.4c0,0,0,0,0,0c-0.1-0.6-0.4-0.9-0.8-1.1
		c-0.3-0.1-0.6-0.1-0.7-0.1c-1.6,0.3-1.6,1-1.6,1.1c0.1,0.4,0.3,0.6,0.5,0.7c0.3,0.1,0.7-0.2,0.8-0.3c0.2-0.2,0.5-0.2,0.7-0.1
		c0.2,0.1,0.3,0.4,0.3,0.6c-0.1,0.5-0.5,0.8-1,1c-0.3,0.1-0.7,0.2-0.7,0.2c0,0-0.1,0-0.1,0c-0.8-0.1-1.5-0.5-1.8-1.2
		C9.2,7,9.2,6.9,9.2,6.8C8.7,7.3,8.1,7.8,6.9,8c0,0-0.1,0-0.1,0C6.7,8.1,5,8.1,4.6,7c0,0,0-0.1,0-0.1C4.5,6.4,4.6,5.4,5.5,4.8
		c0.2-0.2,0.5-0.1,0.7,0.1C6.5,5,6.5,5.3,6.4,5.6C6.2,5.8,6,6.2,6,6.4c0.2,0,0.7,0,1-0.3c0.3-0.2,0.4-0.5,0.5-1c0-0.1,0-0.6-0.3-1.1
		C6.9,3.4,6.3,3,5.5,2.8c-0.1,0-0.6,0.1-1,0.3C3.9,3.5,3.6,4,3.5,4.8z"/>
	<path class="st1" d="M14,10c-0.1-0.1-0.3-0.2-0.4-0.3c0.7-0.4,1.7-1.1,1.8-2.8c0,0,0.2-2.8-2.9-3.2c0,0-2.4-0.3-2.9,2.3
		c0,0,0,1.5,1.5,1.6c0,0,1-0.1,1.2-0.7c0,0-1.6,1.5-2.3-0.7c0,0-0.3-1.4,2.1-1.8c0,0,1.8-0.2,2.1,1.7c0,0,0.8,2.9-2.9,2.7
		c0,0,0,0,0,0C9.9,8.7,8.5,9.1,8.5,9.1C7.1,9.6,6.3,10.5,6,11.1l0,0L4.2,8.2C2.9,6.3,2.9,4.8,2.9,4.8c0.1-2.5,2.6-2.5,2.6-2.5
		c2.7,0.4,2.6,2.9,2.6,2.9C7.9,7.3,5.9,6.9,5.9,6.9c-1-0.2,0-1.7,0-1.7C5,5.8,5.2,6.8,5.2,6.8c0.3,0.7,1.6,0.7,1.6,0.7
		c2.8-0.5,2.3-3.1,2.3-3.1c-0.5-3.9-4-3.7-4-3.7C0.5,1,0.6,5.2,0.6,5.2c0.1,1,0.5,2.4,0.5,2.4C1.4,9.2,3.4,12,3.4,12
		c0.2,0.3,0.3,0.6,0.4,0.9c0,0,0,0,0,0c-2.4,0.6-2.2,2.5-2.2,2.5h0.7c0,0,0,0,0,0c0-0.8,0.4-1.3,0.8-1.6c0.4-0.3,0.7-0.3,0.7-0.3
		c0,0,0,0,0,0c0,0,0,0,0,0c0,0-0.4,0.1-0.7,0.3c-0.3,0.2-0.7,0.7-0.7,1.5h0.2c0.2-1.4,1.2-1.6,1.2-1.6c0.1,0,0.2-0.1,0.2-0.1
		c0.1,1.1-0.5,1.7-0.5,1.7h3.8c0,0,0.2-0.5,0.6-1.3c0.1,0,0.1,0.1,0.2,0.1c-0.2,0.4-0.3,0.7-0.5,1.2h0.7c0.1-0.3,0.3-0.6,0.4-0.9
		c0,0,0,0,0,0c1.2,0.8,2.4,0.7,2.4,0.7c1.6-0.1,1.5-1.3,1.5-1.3c-0.2-1.3-1.5-1.1-1.5-1.1c1.4,0.3,1.2,1.1,1.2,1.1
		c0.1,0.9-1.2,0.9-1.2,0.9C10,14.8,9,14,8.9,13.9C9,13.7,9,13.6,9,13.6c0.8-0.3,0.5-0.9,0.5-0.9l0.1-0.3c0.9-0.1,0.7-0.7,0.7-0.7
		l0.3-0.2c0.8,0.1,0.8-0.4,0.8-0.4l0.4-0.2c0.2,0.2,0.5,0,0.5,0h0.4c0.1,0.4,0.8,0.3,0.8,0.3c1.8,1.1,1.2,3.7,1.2,3.7
		C16.6,11.7,14,10,14,10z M2,15.2c-0.1,0-0.2-0.1-0.2-0.2s0.1-0.2,0.2-0.2s0.2,0.1,0.2,0.2S2.1,15.2,2,15.2z M2.2,14.6
		c-0.1,0-0.2-0.1-0.2-0.2s0.1-0.2,0.2-0.2c0.1,0,0.2,0.1,0.2,0.2S2.3,14.6,2.2,14.6z M2.5,14.1c-0.1,0-0.2-0.1-0.2-0.2
		s0.1-0.2,0.2-0.2s0.2,0.1,0.2,0.2S2.6,14.1,2.5,14.1z M3,13.7c-0.1,0-0.1-0.1-0.1-0.1c0-0.1,0.1-0.1,0.1-0.1c0.1,0,0.1,0.1,0.1,0.1
		C3.2,13.6,3.1,13.7,3,13.7z M3.6,13.4c-0.1,0-0.1,0-0.1-0.1c0-0.1,0.1-0.1,0.1-0.1s0.1,0,0.1,0.1C3.7,13.3,3.6,13.4,3.6,13.4z
		 M4.2,9c0.2,0,0.3,0.1,0.3,0.3c0,0.2-0.2,0.3-0.3,0.3C4,9.6,3.8,9.5,3.8,9.3C3.8,9.1,4,9,4.2,9z M3.8,8.1c0,0.2-0.2,0.3-0.3,0.3
		c-0.2,0-0.3-0.1-0.3-0.3c0-0.2,0.2-0.3,0.3-0.3C3.7,7.8,3.8,7.9,3.8,8.1z M3.3,7.1c0,0.2-0.1,0.3-0.3,0.3S2.7,7.2,2.7,7.1
		S2.8,6.8,3,6.8S3.3,6.9,3.3,7.1z M3,6.2c0,0.1-0.1,0.2-0.2,0.2S2.5,6.3,2.5,6.2C2.5,6.1,2.6,6,2.7,6S3,6.1,3,6.2z M2.5,5.1
		c0.1,0,0.2,0.1,0.2,0.2c0,0.1-0.1,0.2-0.2,0.2c-0.1,0-0.2-0.1-0.2-0.2C2.3,5.2,2.4,5.1,2.5,5.1z M2.3,4.4c0-0.1,0.1-0.2,0.2-0.2
		s0.2,0.1,0.2,0.2c0,0.1-0.1,0.2-0.2,0.2S2.3,4.5,2.3,4.4z M2.9,3.8c-0.1,0-0.1,0-0.1-0.1c0-0.1,0-0.1,0.1-0.1c0.1,0,0.1,0,0.1,0.1
		C3,3.7,2.9,3.8,2.9,3.8z M3.4,3.1c-0.1,0-0.1,0-0.1-0.1c0-0.1,0-0.1,0.1-0.1S3.5,3,3.5,3C3.5,3.1,3.5,3.1,3.4,3.1z M2.9,8.9
		C1.6,6.7,2,4.7,2,4.7C2.2,2.2,4.3,2,4.3,2C0.8,3.1,2.4,7.3,2.4,7.3c0.1,0.6,1.4,2.8,1.4,2.8C4.3,10.8,4.8,12,5,12.8
		c-0.1,0-0.1,0-0.2,0C4.2,10.7,2.9,8.9,2.9,8.9z M5.2,13.6L5,13.8c0-0.1,0-0.1,0-0.2C5.1,13.5,5.1,13.5,5.2,13.6
		C5.2,13.6,5.2,13.6,5.2,13.6z M5,10.9c-0.2,0-0.4-0.2-0.4-0.4c0-0.2,0.2-0.4,0.4-0.4c0.2,0,0.4,0.2,0.4,0.4
		C5.4,10.7,5.2,10.9,5,10.9z M5.7,12.1C5.7,12.2,5.7,12.2,5.7,12.1C5.6,12.2,5.6,12.2,5.7,12.1c-0.2,0-0.4-0.1-0.4-0.3
		s0.1-0.3,0.3-0.3c0.1,0,0.1,0,0.2,0.1C5.7,11.9,5.7,12.1,5.7,12.1z M14.8,7.4c0,0,0,1.2-0.9,1.6c0,0-0.3,0.2-0.9,0.4
		c0,0-0.1,0-0.1,0c0.7-0.2,1-0.4,1-0.4l0,0C14.7,8.5,14.7,7.4,14.8,7.4L14.8,7.4z M14.6,6.7c0,0,0.1,0.1,0.1,0.2s0,0.2-0.1,0.2
		s-0.1-0.1-0.1-0.2S14.6,6.7,14.6,6.7z M14.5,7.3c0,0,0.1,0.1,0.1,0.2s0,0.2-0.1,0.2c0,0-0.1-0.1-0.1-0.2S14.5,7.3,14.5,7.3z
		 M14.2,8c0-0.1,0.1-0.2,0.2-0.1c0.1,0,0.1,0.1,0.1,0.2c0,0.1-0.1,0.2-0.2,0.1C14.2,8.3,14.1,8.2,14.2,8z M13.8,8.5
		c0.1,0,0.2,0.1,0.2,0.1s-0.1,0.1-0.2,0.1c-0.1,0-0.2-0.1-0.2-0.1S13.7,8.5,13.8,8.5z M13.1,8.9c0.1,0,0.2,0.1,0.2,0.1
		c0,0.1-0.1,0.1-0.2,0.1c-0.1,0-0.2-0.1-0.2-0.1C12.8,8.9,12.9,8.9,13.1,8.9z M12.5,9.1c-0.1,0-0.2-0.1-0.3-0.1
		C12.3,9.1,12.5,9.1,12.5,9.1z M10.9,10.7c0,0-1.1,0.3-2.4,2.9c-0.1,0-0.1-0.1-0.2-0.1c0.5-1,1.2-2.1,1.8-2.4c0,0,2.5-2.1,4.5,0.7
		C14.5,11.7,12.9,9.7,10.9,10.7z"/>
</g>
</svg>
