<?xml version="1.0" encoding="utf-8"?>
<!-- Generator: Adobe Illustrator 24.0.3, SVG Export Plug-In . SVG Version: 6.00 Build 0)  -->
<svg version="1.1" id="Capa_1" xmlns="http://www.w3.org/2000/svg" xmlns:xlink="http://www.w3.org/1999/xlink" x="0px" y="0px"
	 viewBox="0 0 16 16" style="enable-background:new 0 0 16 16;" xml:space="preserve">
<style type="text/css">
	.st0{fill:#A9FFFD;}
	.st1{fill:#333333;}
</style>
<g>
	<path class="st0" d="M13.4,10.6c-0.3,0-0.7,0.2-0.9,0.5c-0.2,0.3-0.5,0.5-0.8,0.5c0,0-0.1,0-0.1,0c-0.3,0-0.7-0.2-0.9-0.5
		c-0.1-0.3-0.4-0.5-0.7-0.5c-0.1,0-0.1,0-0.2,0c-0.3,0-0.6,0.1-0.8,0.3c-0.1,0.1-0.2,0.3-0.3,0.4c-0.2,0.2-0.4,0.3-0.7,0.3
		c0,0-0.1,0-0.1,0c-0.3,0-0.7-0.2-0.9-0.5c0-0.1-0.2-0.2-0.3-0.3c-0.2-0.1-0.4-0.2-0.7-0.2c-0.1,0-0.1,0-0.2,0
		c-0.2,0-0.5,0.2-0.6,0.3c-0.1,0.1-0.2,0.2-0.3,0.4c-0.2,0.2-0.5,0.3-0.8,0.3c0,0,0,0,0,0c0,0,0,0,0,0c-0.3,0-0.6-0.2-0.8-0.4
		c0-0.1-0.1-0.1-0.1-0.2c-0.2-0.3-0.5-0.4-0.8-0.4c0,0,0,0-0.1,0c-0.1,0-0.3,0-0.4,0.1c0.7,1.4,1.8,2.5,3.2,3.1
		c0,0.1,0.1,0.1,0.1,0.2c0.2,0.2,0.4,0.3,0.6,0.3c0,0,0,0,0,0c0,0,0,0,0,0c0.1,0,0.3,0,0.4-0.1c0.5,0.1,1,0.2,1.5,0.2
		c0.5,0,1-0.1,1.4-0.2c0.1,0.1,0.3,0.1,0.4,0.1c0.3,0,0.6-0.1,0.8-0.4c0.1-0.1,0.1-0.1,0.2-0.2c1.3-0.6,2.4-1.7,3-3
		C13.7,10.7,13.6,10.7,13.4,10.6C13.4,10.6,13.4,10.6,13.4,10.6z M11.2,12.9c-0.1,0-0.1,0.1-0.2,0.1c0-0.2-0.1-0.4-0.2-0.5
		c-0.2-0.2-0.5-0.4-0.9-0.4c0,0-0.1,0-0.1,0c-0.4,0-0.8,0.4-0.9,0.8c-0.1,0.3,0,0.6,0.1,0.8c-0.3,0-0.6,0.1-0.9,0.1
		c-0.3,0-0.7,0-1-0.1c0-0.1,0-0.2,0-0.3c0-0.4-0.4-0.8-0.9-0.8c-0.1,0-0.1,0-0.2,0c-0.3,0.1-0.5,0.3-0.6,0.5C5.2,13.1,5,13,4.8,12.9
		c-0.3-0.2-0.6-0.4-0.9-0.7c0.1,0,0.3,0,0.4,0l0,0c0.5,0,0.9-0.2,1.2-0.5c0.1-0.1,0.2-0.2,0.2-0.3c0,0,0.1-0.1,0.1-0.1c0,0,0,0,0,0
		c0.1-0.1,0.2-0.1,0.3-0.1c0,0,0,0,0,0c0,0,0,0,0.1,0c0.1,0,0.2,0,0.3,0.1c0.1,0,0.1,0.1,0.1,0.1c0,0,0,0.1,0.1,0.1
		c0.1,0.2,0.3,0.4,0.6,0.5c-0.1,0.1-0.1,0.2-0.1,0.4c0,0.2,0,0.5,0.2,0.7c0.2,0.2,0.4,0.3,0.6,0.3c0,0,0,0,0,0c0,0,0,0,0,0
		c0.2,0,0.5-0.1,0.6-0.3c0.2-0.2,0.2-0.4,0.2-0.6c0-0.1,0-0.2-0.1-0.3C8.8,12,9,11.9,9.2,11.8c0.1-0.1,0.2-0.2,0.2-0.3
		c0,0,0.1-0.1,0.1-0.1c0,0,0,0,0,0c0.1-0.1,0.2-0.1,0.3-0.1c0,0,0.1,0,0.1,0c0,0,0,0,0,0c0.1,0,0.2,0.1,0.3,0.2c0,0,0,0,0,0
		c0.3,0.5,0.8,0.8,1.4,0.8c0.1,0,0.1,0,0.2,0c0.1,0,0.2,0,0.3-0.1C11.8,12.4,11.5,12.7,11.2,12.9z"/>
	<path class="st0" d="M13.7,2.3C12.1,0.8,10.1,0,8,0S3.9,0.8,2.3,2.3C0.8,3.9,0,5.9,0,8s0.8,4.1,2.3,5.7C3.9,15.2,5.9,16,8,16
		s4.1-0.8,5.7-2.3C15.2,12.1,16,10.1,16,8S15.2,3.9,13.7,2.3z M8,15.4c-4.1,0-7.4-3.3-7.4-7.4S3.9,0.6,8,0.6s7.4,3.3,7.4,7.4
		S12.1,15.4,8,15.4z"/>
	<path class="st0" d="M8,1.6C4.5,1.6,1.6,4.5,1.6,8c0,0.4,0.1,1.1,0.1,1.2c0.7,0,1.4,0,2-0.3c0.6-0.2,1.1-0.6,1.5-1.1
		c0.7-0.7,1.2-1.5,1.8-2.2c0.3-0.5,0.7-0.9,1.1-1.2c0.3-0.2,0.6-0.4,0.9-0.5c0.3-0.1,0.5-0.1,0.8-0.1c0.1,0,0.1,0,0.2,0
		c0.3,0,0.7,0.2,0.9,0.4c0.2,0.2,0.4,0.4,0.4,0.6c0,0.1-0.1,0.2-0.2,0.2c0,0,0,0-0.1,0c-0.1,0-0.2-0.1-0.3-0.1c-0.1,0-0.1,0-0.2,0
		C10.4,4.9,10.2,5,10,5.2C9.7,5.6,9.6,6,9.5,6.5c0,0.3,0,0.5,0.1,0.8c0.1,0.3,0.4,0.6,0.6,0.8c0.5,0.4,1.1,0.7,1.8,0.9
		c0.7,0.2,1.5,0.3,2.3,0.3c0.1-0.4,0.1-0.8,0.1-1.2C14.4,4.5,11.5,1.6,8,1.6z M13.8,8.6c-0.6,0-1.1-0.1-1.6-0.2
		c-0.7-0.2-1.2-0.4-1.5-0.7c-0.2-0.2-0.4-0.4-0.5-0.6c-0.1-0.1-0.1-0.3-0.1-0.4c0,0,0,0,0,0c0.1-0.4,0.2-0.7,0.4-1
		c0.1-0.1,0.2-0.2,0.3-0.2c0,0,0,0,0,0c0,0,0,0,0,0c0,0,0,0,0.1,0c0,0,0,0,0,0c0.1,0,0.2,0.1,0.3,0.1c0.2,0,0.5-0.1,0.6-0.3
		C12,5,12,4.8,12,4.5c0,0,0,0,0,0c-0.1-0.4-0.3-0.7-0.6-0.9C11,3.3,10.6,3.1,10.1,3C10,3,9.9,3,9.9,3c-0.3,0-0.7,0.1-1,0.2
		C8.5,3.4,8.1,3.6,7.8,3.8C7.4,4.2,7,4.6,6.6,5.2C6,6,5.5,6.7,4.8,7.4C4.4,7.9,4,8.2,3.5,8.3c0,0,0,0,0,0C3.1,8.5,2.6,8.5,2.2,8.6
		c0-0.3,0-0.5,0-0.6c0-1.6,0.6-3,1.7-4.1C5,2.8,6.4,2.2,8,2.2s3,0.6,4.1,1.7C13.2,5,13.8,6.4,13.8,8C13.8,8.2,13.8,8.4,13.8,8.6z"/>
	<path class="st1" d="M6.4,13.5c0-0.2-0.2-0.3-0.3-0.2c-0.1,0-0.2,0.1-0.2,0.2c0,0.1,0.1,0.3,0.3,0.3C6.3,13.8,6.4,13.6,6.4,13.5z"
		/>
	<path class="st1" d="M10.2,13.6c0.2-0.2,0.2-0.5,0-0.7c-0.1-0.1-0.3-0.2-0.5-0.2c-0.2,0-0.4,0.2-0.4,0.4c-0.1,0.2,0,0.5,0.2,0.6
		C9.8,13.8,10.1,13.8,10.2,13.6z"/>
	<path class="st1" d="M8.2,12.5c0-0.2-0.2-0.3-0.3-0.2c-0.1,0-0.2,0.1-0.2,0.2c0,0.2,0.1,0.3,0.3,0.3C8,12.8,8.2,12.7,8.2,12.5z"/>
	<path class="st1" d="M8,0.6C3.9,0.6,0.6,3.9,0.6,8s3.3,7.4,7.4,7.4s7.4-3.3,7.4-7.4S12.1,0.6,8,0.6z M8,1.6c3.5,0,6.4,2.9,6.4,6.4
		c0,0.4,0,0.8-0.1,1.2c-0.8,0-1.5-0.1-2.3-0.3c-0.6-0.2-1.3-0.4-1.8-0.9C10,7.8,9.8,7.6,9.6,7.2C9.5,7,9.5,6.7,9.5,6.5
		C9.6,6,9.7,5.6,10,5.2c0.2-0.2,0.4-0.4,0.6-0.5c0.2,0,0.3,0,0.5,0c0.1,0.1,0.3,0,0.3-0.2C11.3,4.4,11.2,4.2,11,4
		c-0.3-0.2-0.6-0.3-0.9-0.4c-0.3,0-0.7,0-1,0.1C8.7,3.9,8.4,4.1,8.2,4.3C7.7,4.6,7.4,5.1,7.1,5.5C6.5,6.3,5.9,7.1,5.3,7.8
		C4.8,8.2,4.3,8.6,3.7,8.9c-0.6,0.3-1.4,0.3-2,0.3c0,0.1-0.1-0.7-0.1-1.2C1.6,4.5,4.5,1.6,8,1.6z M8,14.4c-2.6,0-4.8-1.5-5.8-3.7
		c0.1-0.1,0.3-0.1,0.5-0.1c0.3,0,0.6,0.2,0.8,0.4c0,0.1,0.1,0.1,0.1,0.2c0.2,0.3,0.5,0.4,0.8,0.4c0.3,0,0.6-0.1,0.8-0.3
		c0.1-0.1,0.2-0.2,0.3-0.4c0.2-0.2,0.4-0.3,0.6-0.3c0.3,0,0.6,0,0.8,0.2C7,11,7.1,11.1,7.1,11.2c0.2,0.3,0.6,0.5,1,0.5
		c0.3,0,0.5-0.1,0.7-0.3c0.1-0.1,0.2-0.3,0.3-0.4c0.2-0.2,0.6-0.4,0.9-0.3c0.3,0.1,0.6,0.2,0.7,0.5c0.2,0.3,0.6,0.5,1,0.5
		c0.3,0,0.6-0.2,0.8-0.5c0.2-0.3,0.6-0.5,0.9-0.5c0.1,0,0.3,0,0.4,0.1C12.8,12.9,10.6,14.4,8,14.4z"/>
</g>
</svg>
