<?xml version="1.0" encoding="utf-8"?>
<!-- Generator: Adobe Illustrator 24.0.3, SVG Export Plug-In . SVG Version: 6.00 Build 0)  -->
<svg version="1.1" id="Capa_1" xmlns="http://www.w3.org/2000/svg" xmlns:xlink="http://www.w3.org/1999/xlink" x="0px" y="0px"
	 viewBox="0 0 16 16" style="enable-background:new 0 0 16 16;" xml:space="preserve">
<style type="text/css">
	.st0{fill:none;}
	.st1{fill:#9966FC;}
	.st2{fill:#333333;}
	.st3{fill:#CCCCCC;}
</style>
<g>
	<rect x="0" class="st0" width="16" height="16"/>
	<g>
		<path class="st1" d="M8.4,14.9c-4.3,0-7.6-0.3-7.7-0.3c-0.1,0-0.1,0-0.2-0.1c-0.2-0.1-0.4-0.3-0.4-0.5C0,14,0,14,0,14
			c-0.1-0.4,0.1-0.7,0.2-0.8c0.3-0.3,0.6-0.3,0.8-0.2c0,0,0,0,0.1,0c0.1-0.1,0.4-0.3,0.8-0.1c0.2-0.3,0.5-0.6,1-0.6c0,0,0.1,0,0.1,0
			c-0.3-0.3-0.7-1.1-0.6-2c0-0.1,0-0.2,0.1-0.3c-0.1,0-0.3,0.1-0.4,0.3c0,0,0,0,0,0c0,0.1,0,0.3-0.1,0.4c0,0-0.1,0.1-0.1,0.1
			c-0.2,0.2-0.4,0.3-0.7,0.2l-0.1,0c-0.2,0-0.4-0.1-0.5-0.3l-0.2-0.3c0,0,0,0,0,0C0.2,9.8,0.3,9.4,0.5,9.2C0.6,9.1,0.7,9,0.7,8.9
			V8.6c0-0.1,0-0.1,0-0.2c0-0.1,0.2-0.4,0.4-0.7c0.1-0.1,0.2-0.3,0.2-0.4C1.2,7.3,1,7,1.1,6.8c0-0.3,0.2-0.5,0.5-0.6
			c0.1,0,0.6-0.1,1,0.3c0,0,0.1,0.1,0.1,0.1c0.3-0.1,0.6-0.2,1-0.3c0.3,0,0.6,0.2,0.7,0.5c0,0,0,0.1,0,0.1c0-0.2,0.1-0.4,0.2-0.6
			c0,0,0,0,0,0c0,0,0.2-0.5,0.1-1.1c0-0.1-0.1-0.2-0.3-0.3c0,0-0.1,0-0.1,0c0,0-0.1,0-0.1,0L4.1,4.9C4,5,3.9,5,3.8,5L3.6,5.1
			c-0.1,0-0.3,0-0.4,0L3,5C2.9,5,2.8,4.9,2.7,4.7c0,0,0,0,0-0.1C2.5,4.5,2.3,4.2,2.1,4.2H1.7C1.5,4.2,1.3,4.1,1.2,4
			C1.1,3.9,1.1,3.7,1.1,3.5c0,0,0,0,0,0C1,3.3,1,3.1,1.2,2.9l0.2-0.3C1.6,2.3,2,2.1,2.5,2.3c0,0,0.1,0,0.1,0.1
			c0.1,0,0.2,0.1,0.3,0.1c0,0,0,0,0,0c0,0,0,0,0.1,0c0,0,0.1,0,0.1-0.1c0.1,0,0.6-0.2,1.2,0.2c0.1,0,0.3,0.1,0.6-0.2
			c0.2-0.2,0.4-0.2,0.6-0.1C5.8,2.2,6,2.4,6,2.6C6.1,2.8,6,3,6,3.2c0.3,0.1,0.6,0.2,0.8,0.3c0.1-0.1,0.1-0.2,0.2-0.2c0,0,0,0,0,0
			C6.8,3,6.8,2.7,7.1,2.5C7.1,2.4,7.6,2,8.6,2c0,0,0-0.1,0-0.1c0-0.3,0.2-0.4,0.5-0.5c0.2,0,0.6,0,1.1,0.4c0-0.2,0.1-0.4,0.3-0.5
			C10.7,1,11,1,11.2,1.1c0.2,0.1,0.4,0.3,0.4,0.6c0,0.1,0,0.6,0.5,1.2c0.3,0.2,1,0.6,1.1,1.3c0,0,0,0,0.1,0l0.4,0.2
			c0.3,0.2,0.6,0.5,0.5,1c0,0,0,0,0,0L13.9,6c0,0.1,0,0.1-0.1,0.2l0.3,0c0,0,0,0,0,0c0.3,0,0.6,0.3,0.7,0.7C14.9,7,15,7.3,15,7.5
			c0,0.2-0.1,0.4-0.2,0.5c0,0-0.1,0.1-0.1,0.1c-0.1,0.1-0.2,0.2-0.3,0.3c0,0,0.1,0.1,0.1,0.2c0.3,0.2,0.6,0.6,0.7,1.1
			c0,0,0.1,0.1,0.1,0.1c0,0,0.1,0,0.1,0.1c0.3,0.2,0.4,0.6,0.2,1L15.5,11c-0.1,0.2-0.3,0.4-0.5,0.4c-0.1,0.1-0.3,0.1-0.5,0
			c-0.2-0.1-0.4-0.2-0.4-0.4c0,0-0.1-0.1-0.3-0.2c0.1,0.5,0.1,1.1-0.3,1.8c0,0,0,0,0,0c0,0,0,0,0.1,0c0.1,0.1,0.2,0.1,0.3,0.2
			c0.1-0.2,0.3-0.3,0.7-0.4c0.6-0.1,1.4,0.2,1.5,1c0,0,0,0,0,0c0,0.1,0.1,0.5-0.2,0.8c-0.2,0.2-0.4,0.3-0.6,0.4
			C12.9,14.9,10.5,14.9,8.4,14.9z M4.8,13.6c1.9,0.1,4.3,0.1,6.7,0c-0.1-0.1-0.2-0.2-0.3-0.3c-0.1-0.2-0.1-0.3,0-0.5
			c-0.4,0.1-0.7,0.1-0.8,0.1c-0.2,0-0.5-0.1-0.6-0.4c-0.1-0.2-0.1-0.5,0.1-0.7c0.6-0.7,0.8-2,0.8-2.7c0,0,0,0.1,0,0.1
			c-0.1,0.6-0.4,1-0.4,1c-0.1,0.2-0.4,0.3-0.6,0.3c-0.2,0-0.4-0.2-0.5-0.4c0-0.1-0.1-0.2-0.2-0.3c0,0-0.1-0.1-0.1-0.1
			c0.3,0.5,0.3,0.9,0.3,1c0,0.2-0.1,0.5-0.3,0.6c-0.2,0.1-0.5,0.1-0.7-0.1c-0.1-0.1-0.3-0.2-0.4-0.2c0,0,0,0,0,0
			c-0.2-0.1-0.3-0.1-0.5-0.2c0.2,0.4,0.2,0.8,0.1,1.1c-0.1,0.3-0.4,0.4-0.6,0.5c0,0-0.1,0-0.1,0c-0.6,0-1.4-0.2-1.5-0.2
			c-0.3-0.1-0.5-0.2-0.7-0.3C4.6,12,4.8,12.1,5,12.2c0.3,0.2,0.4,0.5,0.3,0.8c-0.1,0.2-0.2,0.3-0.4,0.3C4.9,13.5,4.8,13.6,4.8,13.6z
			 M13.3,13.5C13.3,13.5,13.3,13.5,13.3,13.5C13.3,13.5,13.3,13.5,13.3,13.5z M13.3,13.5C13.3,13.5,13.3,13.5,13.3,13.5
			C13.3,13.5,13.3,13.5,13.3,13.5z M14.7,13.1C14.7,13.1,14.7,13.1,14.7,13.1L14.7,13.1z M15.1,11.3C15.1,11.3,15.1,11.3,15.1,11.3
			C15.1,11.3,15.1,11.3,15.1,11.3z M4.9,10.7c0.1,0.1,0.2,0.2,0.5,0.3c0,0,0,0,0,0c0,0,0.1,0,0.2,0c-0.2-0.1-0.4-0.3-0.5-0.5
			C5,10.5,5,10.6,4.9,10.7z M14,11C14,11,14,11,14,11C14,11,14,11,14,11z M14,11C14,11,14,11,14,11C14,11,14,11,14,11z M14,11
			C14,11,14,11,14,11C14,11,14,11,14,11z M14,11C14,11,14,11,14,11C14,11,14,11,14,11z M1.5,10.8C1.5,10.8,1.5,10.8,1.5,10.8
			C1.5,10.8,1.5,10.8,1.5,10.8z M1.5,10.8C1.5,10.8,1.5,10.8,1.5,10.8C1.5,10.8,1.5,10.8,1.5,10.8z M1.5,10.8
			C1.5,10.8,1.5,10.8,1.5,10.8C1.5,10.8,1.5,10.8,1.5,10.8z M1.5,10.8C1.5,10.8,1.5,10.8,1.5,10.8C1.5,10.8,1.5,10.8,1.5,10.8z
			 M1.5,10.8C1.5,10.8,1.5,10.8,1.5,10.8C1.5,10.8,1.5,10.8,1.5,10.8z M1.5,10.8C1.5,10.8,1.5,10.8,1.5,10.8
			C1.5,10.8,1.5,10.8,1.5,10.8z M1.5,10.8C1.5,10.8,1.5,10.8,1.5,10.8C1.5,10.8,1.5,10.8,1.5,10.8z M1.5,10.8
			C1.5,10.8,1.5,10.8,1.5,10.8C1.5,10.8,1.5,10.8,1.5,10.8z M1.5,10.8C1.5,10.8,1.5,10.8,1.5,10.8C1.5,10.8,1.5,10.8,1.5,10.8z
			 M1.5,10.8C1.5,10.8,1.5,10.8,1.5,10.8C1.5,10.8,1.5,10.8,1.5,10.8z M1.5,10.8C1.5,10.8,1.5,10.8,1.5,10.8
			C1.5,10.8,1.5,10.8,1.5,10.8z M1.5,10.8C1.5,10.8,1.5,10.8,1.5,10.8C1.5,10.8,1.5,10.8,1.5,10.8z M1.5,10.8
			C1.5,10.8,1.5,10.8,1.5,10.8C1.5,10.8,1.5,10.8,1.5,10.8z M1.5,10.8C1.5,10.8,1.5,10.8,1.5,10.8C1.5,10.8,1.5,10.8,1.5,10.8z
			 M1.5,10.8C1.5,10.8,1.5,10.8,1.5,10.8C1.5,10.8,1.5,10.8,1.5,10.8z M9.2,10.2L9.2,10.2L9.2,10.2z M9.2,10.2
			C9.2,10.2,9.2,10.2,9.2,10.2C9.2,10.2,9.2,10.2,9.2,10.2z M2.1,10C2.1,10,2.1,10,2.1,10C2.1,10,2.1,10,2.1,10z M8.1,9
			c0.1,0,0.1,0.1,0.2,0.1c0,0,0,0,0,0C8.3,9,8.2,8.8,8.2,8.6C8.2,8.8,8.2,8.9,8.1,9C8.1,9,8.1,9,8.1,9z M6.9,9C6.9,9,6.9,9,6.9,9
			C6.9,9,6.9,9,6.9,9C6.7,8.8,6.6,8.5,6.7,8.3c0,0,0.2-0.5,0.5-1c0-0.1-0.1-0.1-0.1-0.2c0,0,0,0,0,0c-0.1,0.4-0.2,0.7-0.5,1
			c0,0,0,0-0.1,0.1C6.6,8.4,6.6,8.7,6.9,9L6.9,9z M6.9,9C6.9,9,6.9,9,6.9,9L6.9,9z M8.1,9L8.1,9L8.1,9z M9.5,8.6c0,0,0,0.1,0.1,0.1
			c0-0.1,0-0.2,0-0.3C9.5,8.5,9.5,8.6,9.5,8.6z M9.5,8.6L9.5,8.6L9.5,8.6z M14.7,8C14.7,8,14.7,8,14.7,8C14.7,8,14.7,8,14.7,8z
			 M8.4,7.8C8.4,7.8,8.4,7.8,8.4,7.8C8.5,7.8,8.5,7.8,8.4,7.8C8.5,7.8,8.5,7.8,8.4,7.8z M3.5,7.8L3.5,7.8L3.5,7.8z M9.7,6.8
			c0.2,0,0.4,0.1,0.5,0.2c0.1,0.1,0.1,0.1,0.2,0.2c0-0.1,0-0.3,0-0.4c0-0.1,0-0.1,0.1-0.1c-0.1,0-0.1,0-0.2-0.1
			c-0.1,0-0.3-0.1-0.4-0.1c-0.1,0-0.1,0-0.2-0.1c-0.6-0.3-0.9-0.7-1-0.8C8.2,5,8.3,4.2,8.3,4.1c0,0,0-0.1,0-0.1
			c0-0.1,0.1-0.2,0.1-0.3C8.4,3.8,8.2,3.8,8.1,3.9c0,0.1,0,0.2,0,0.3C8,4.6,8,4.8,8,5.1c0.1,0,0.2,0.1,0.3,0.2C8.5,5.6,8.9,5.9,9,6
			C9,6,9.1,6.1,9.1,6.1c0,0,0,0,0.1,0c0.2,0.1,0.4,0.3,0.5,0.4C9.7,6.7,9.7,6.8,9.7,6.8C9.7,6.8,9.7,6.8,9.7,6.8z M10.2,6.6
			C10.2,6.6,10.2,6.6,10.2,6.6C10.2,6.6,10.2,6.6,10.2,6.6z M10.2,6.6C10.2,6.6,10.2,6.6,10.2,6.6C10.2,6.6,10.2,6.6,10.2,6.6z
			 M5.9,6.1c0,0.1,0,0.2-0.1,0.3c0,0,0.1,0,0.1-0.1C5.9,6.2,5.9,6.2,5.9,6.1z M5.9,5.4C5.9,5.5,5.9,5.5,5.9,5.4
			C5.9,5.5,6,5.5,5.9,5.4C6,5.4,5.9,5.4,5.9,5.4z M9.8,5c0,0,0.1,0.2,0.4,0.3c0-0.1,0.1-0.3,0.1-0.3c0,0,0,0,0,0c0,0,0-0.1,0-0.1
			V4.5c-0.1-0.1-0.3-0.2-0.7-0.1c0,0,0,0,0,0c0,0.1,0,0.3,0.2,0.5C9.7,4.9,9.8,4.9,9.8,5z M9.8,5L9.8,5L9.8,5z M4.3,4.9L4.3,4.9
			L4.3,4.9z M2.7,4.5C2.7,4.5,2.7,4.5,2.7,4.5C2.7,4.5,2.7,4.5,2.7,4.5z M2.7,4.5C2.7,4.5,2.7,4.5,2.7,4.5C2.7,4.5,2.7,4.5,2.7,4.5z
			 M2.7,4.5C2.7,4.5,2.7,4.5,2.7,4.5C2.7,4.5,2.7,4.5,2.7,4.5z M13.1,4.1C13.1,4.1,13.1,4.1,13.1,4.1S13.1,4.1,13.1,4.1z M1.2,3.7
			C1.2,3.7,1.2,3.7,1.2,3.7C1.2,3.7,1.2,3.7,1.2,3.7z M3.7,3.6L3.6,3.7C3.7,3.7,3.7,3.7,3.7,3.6C3.7,3.6,3.7,3.6,3.7,3.6
			C3.7,3.6,3.7,3.6,3.7,3.6z M3.1,2.4C3.1,2.4,3.1,2.4,3.1,2.4C3.1,2.4,3.1,2.4,3.1,2.4z M3,2.4C3,2.4,3,2.4,3,2.4
			C3,2.4,3,2.4,3,2.4z M3,2.4C3,2.4,3,2.4,3,2.4C3,2.4,3,2.4,3,2.4z M3,2.4C3,2.4,3,2.4,3,2.4C3,2.4,3,2.4,3,2.4z M3,2.4
			C3,2.4,3,2.4,3,2.4C3,2.4,3,2.4,3,2.4z"/>
		<path class="st2" d="M15.4,13.5c-0.1-0.6-0.8-0.5-0.8-0.5c-0.4,0.1-0.3,0.3-0.3,0.3c0.2,0.5,0.5,0.1,0.5,0.1
			c0.1-0.2-0.1-0.1-0.1-0.1c-0.2,0.2-0.2,0-0.2,0c0-0.2,0.2-0.1,0.2-0.1c0.5,0.2,0.2,0.4,0.2,0.4c-0.6,0.3-1.8-0.4-1.8-0.4
			c-0.3-0.2-0.4,0-0.4,0c-0.3,0.2-0.3,0.1-0.3,0.1c-0.1-0.1,0.1-0.3,0.1-0.3c0.2-0.1-0.1-0.1-0.1-0.1c-0.2,0-0.7,0.2-0.7,0.2
			c0.8-0.4,0.9-0.7,0.9-0.7c0.8-1,0.2-1.7,0.2-1.7c-0.3-0.6-0.3-0.7-0.3-0.7c0.1-0.6,0.4-0.5,0.4-0.5c0.6,0.1,0.3,0.5,0.3,0.5
			c0,0.1,0.1,0.2,0.1,0.2c1,0.2,1.1,0.8,1.1,0.8c0.1-0.1,0.3-0.1,0.3-0.1l0.1-0.3c0.1-0.2,0-0.3,0-0.3c-0.3-0.2-0.4-0.5-0.4-0.5
			C14.7,9.4,14.1,9,14.1,9C13.3,8.1,14,7.9,14,7.9c-0.7,0.1-0.5,0.8-0.5,0.8c-0.7-0.7-1.3-0.4-1.3-0.4c0.5,0.1,0.7,0.3,0.7,0.3
			c-0.9-0.1-1.3,0.7-1.3,0.7c0.3-0.2,0.7-0.2,0.7-0.2c-0.6,0.3-0.9,1.2-0.9,1.2c0.2-0.3,0.4-0.5,0.4-0.5c-0.4,1.1,0.3,1.5,0.3,1.5
			c-0.1-0.3-0.2-0.7-0.2-0.7c1.2,1.6-1.5,1.6-1.5,1.6c1-1.2,0.9-3.5,0.9-3.5C11.5,7.7,11,7.1,11,7.1c0.4-0.1,0.6,0.1,0.6,0.1
			c0.1,0.2,0.2,0.3,0.2,0.3C11.8,7.9,12,7.8,12,7.8c1.5-0.7,2.1,0,2.1,0c0.1-0.2,0.2-0.3,0.2-0.3c0-0.2-0.1-0.5-0.1-0.5
			C14.2,6.8,14,6.8,14,6.8l-0.7-0.1c-0.4-0.1-0.5-0.4-0.5-0.4c-0.2-0.3-0.7-0.3-0.7-0.3c-0.3,0-0.5-0.1-0.5-0.1
			c-0.9-0.3-1-0.8-1-0.8c-0.2,0.4,0.6,1,0.6,1c-0.1-0.1-0.8-0.1-0.8-0.1C10.5,6,10,5.9,10,5.9C9.4,5.6,9.2,5.3,9.2,5.3
			c-0.4-0.5-0.3-1-0.3-1c0.2-0.5,0.4-0.5,0.4-0.5c1.3-0.2,1.5,0.6,1.5,0.6v0.5L11,5c1.6,0.1,2,1,2,1c0.1-0.1,0.3-0.2,0.3-0.2
			l0.1-0.5C13.5,5,13.3,5,13.3,5l-0.5-0.3c-0.4-0.3-0.3-0.5-0.3-0.5c0-0.5-0.8-0.8-0.8-0.8c-0.8-0.8-0.8-1.7-0.8-1.7
			c-0.4,0.3,0.3,1.6,0.3,1.6c-0.3-0.3-0.7-0.4-0.7-0.4C9.7,1.9,9.2,2,9.2,2c0.9,0.6,0.7,0.9,0.7,0.9C8.3,2.2,7.5,2.9,7.5,2.9
			c0.9-0.4,1.6,0,1.6,0C7.5,3,6.9,4.4,6.9,4.4c0.4-0.4,0.7-0.4,0.7-0.4C7,5.9,8,6.6,8,6.6C7.8,6.1,7.8,5.7,7.8,5.7
			c0.3,0.4,0.8,0.8,0.8,0.8C8,6.6,7.7,6.9,7.7,6.9c1.2-0.5,1.3-0.1,1.3-0.1C7.7,7.1,7.3,8.4,7.3,8.4C7.5,8.1,7.8,8,7.8,8
			C7.5,8.6,7.5,8.9,7.5,8.9C7.4,10,8,10.4,8,10.4C7.8,9.9,7.9,9.5,7.9,9.5c0.7,0.8,0.7,1.2,0.7,1.2c-0.2-0.2-0.6-0.3-0.6-0.3
			c-1-0.4-1.5-1.1-1.5-1.1C5.8,8.6,5.9,7.9,5.9,7.9c0.1-0.7,0.3-1,0.3-1c0.1,0.4,0,0.8,0,0.8c0.6-0.6,0.3-1.8,0.3-1.8
			c0.2,0.1,0.3,0.8,0.3,0.8c0.4-1.5-0.5-1.8-0.5-1.8C6.6,4.8,7,5.4,7,5.4c-0.2-1-1.3-1.3-1.3-1.3C5.9,4,6.6,4.1,6.6,4.1
			C6.3,3.9,4.8,3.5,4.8,3.5c0.7-0.2,0.6-0.8,0.6-0.8C4.7,3.4,4.1,3.1,4.1,3.1C3.6,2.8,3.4,2.9,3.4,2.9C3.1,3.1,2.9,3,2.9,3
			C2.6,3,2.3,2.8,2.3,2.8C2,2.7,1.9,2.9,1.9,2.9L1.7,3.3c0.1,0.1,0,0.3,0,0.3h0.4c0.6,0.1,1.1,0.7,1.1,0.7c0.1,0.1,0.1,0.2,0.1,0.2
			l0.1,0.1l0.3-0.1l0.2-0.2c0.4-0.1,0.7,0.1,0.7,0.1C5.1,4.5,5.3,5,5.3,5c0.2,0.9-0.2,1.5-0.2,1.5C4.9,6.9,4.9,7.3,4.9,7.3
			C4.6,8.3,5.2,9.4,5.2,9.4c0.3,0.8,1.3,1.4,1.3,1.4C6.6,10.9,6.6,11,6.6,11c0.4,0.7,0,0.7,0,0.7c-0.5,0-1.3-0.2-1.3-0.2
			c-0.9-0.2-1-0.8-1-0.8C4,10.1,4.4,9.7,4.4,9.7c0.1,0.2,0,0.7,0,0.7c0.7-0.9,0-1.8,0-1.8c0.4,0.2,0.5,0.3,0.5,0.3
			c-0.4-1.1-1.1-1-1.1-1C3.7,7.7,4.5,8,4.5,8C3.8,7.2,2.9,7.5,2.9,7.5C3.1,7.2,3.7,7,3.7,7C2.6,7.1,2.3,7.7,2.3,7.7
			c0.1-1-0.7-0.8-0.7-0.8c0.8,0.3-0.1,1.3-0.1,1.3C1.4,8.3,1.3,8.6,1.3,8.6v0.5C1.3,9.2,0.9,9.6,0.9,9.6c-0.1,0.1,0,0.2,0,0.2
			l0.2,0.3l0.2,0l0.1,0c0-0.1,0.1-0.1,0.1-0.1C1.4,10,1.6,9.7,1.6,9.7c0.3-0.4,0.8-0.5,0.8-0.5c0.4-0.1,0.2-0.4,0.2-0.4
			C2.4,8.5,2.7,8.4,2.7,8.4c0.5-0.2,0.7,0.4,0.7,0.4c0.1,0.5-0.1,0.9-0.1,0.9c-0.2,0.3-0.2,0.6-0.2,0.6c-0.2,1,0.6,1.7,0.6,1.7
			c0.3,0.4,1.1,0.8,1.1,0.8c-0.4-0.2-0.8,0-0.8,0c0.7,0.4,0.2,0.5,0.2,0.5c-0.4,0-0.7-0.3-0.7-0.3C3.3,12.7,3,12.8,3,12.8
			c-0.6,0.1-0.7,0.7-0.7,0.7c0.3-0.4,0.4-0.2,0.4-0.2c0.2,0.2-0.2,0.3-0.2,0.3c-0.4,0.1-0.7-0.2-0.7-0.2c-0.3-0.2-0.2,0-0.2,0
			c0,0.2,0,0.2,0,0.2C1.2,13.8,1,13.8,1,13.8c-0.2,0-0.2-0.1-0.2-0.1c0-0.1,0.2-0.1,0.2-0.1s0.1,0,0,0c0,0-0.4-0.1-0.4,0.3
			c0,0,0,0.1,0.1,0.1c0,0,7.5,0.7,14.3,0C15.4,14,15.4,13.5,15.4,13.5z M14.1,9.4c0,0,0.1,0,0.2,0.4c0,0,0,0.1-0.1,0
			c0,0-0.2-0.3-0.2-0.2C14,9.5,14,9.4,14.1,9.4z M12.2,6.5c0,0,0.4-0.1,0.7,0.3c0,0-0.2-0.1-0.4-0.1c0,0-0.2,0-0.2,0
			C12.2,6.8,12.1,6.6,12.2,6.5z M11.7,3.9c0,0,0.4,0.1,0.5,0.5l0,0.1c0,0-0.3-0.4-0.5-0.4C11.7,4.1,11.7,4,11.7,3.9z M3.8,3.4
			c0,0,0,0.1-0.1,0.1c0,0-0.1,0-0.2-0.1c0,0-0.1-0.1-0.4-0.1c0,0-0.1,0,0,0C3.2,3.3,3.4,3.2,3.8,3.4L3.8,3.4z M1.8,8.7
			C1.7,8.8,1.7,8.9,1.7,9c0,0-0.1,0.1-0.1,0l0-0.2c0,0,0.1-0.2,0.2-0.3C1.8,8.5,1.9,8.6,1.8,8.7C1.9,8.6,1.9,8.6,1.8,8.7z M9.8,10
			C9.7,9.7,9.4,9.4,9.4,9.4C8.9,9.1,8.9,8.6,8.9,8.6c0.1-0.9,0.9-1.2,0.9-1.2C10.7,8.6,9.8,10,9.8,10z"/>
	</g>
	<polygon class="st3" points="16,12.8 12,16 8,12.8 8,10.4 12,13.6 16,10.4 	"/>
</g>
</svg>
