<?xml version="1.0" encoding="utf-8"?>
<!-- Generator: Adobe Illustrator 24.0.3, SVG Export Plug-In . SVG Version: 6.00 Build 0)  -->
<svg version="1.1" id="Capa_1" xmlns="http://www.w3.org/2000/svg" xmlns:xlink="http://www.w3.org/1999/xlink" x="0px" y="0px"
	 viewBox="0 0 16 16" style="enable-background:new 0 0 16 16;" xml:space="preserve">
<style type="text/css">
	.st0{fill:none;}
	.st1{fill:#EBCE2A;}
	.st2{fill:#333333;}
</style>
<g>
	<rect class="st0" width="16" height="16"/>
	<g>
		<path class="st1" d="M5.6,14.4c-0.1,0-0.1,0-0.2,0C5.2,14.3,5,14.1,5,13.9c0-0.2-0.1-0.4-0.1-0.5c-0.3-0.1-0.7-0.3-1-0.4
			c-0.1,0.1-0.2,0.2-0.3,0.3c-0.2,0.2-0.5,0.3-0.7,0.2c-0.3-0.1-0.4-0.4-0.3-0.7c0-0.2,0.1-0.4,0.1-0.6c0,0,0,0,0-0.1
			c0,0-0.1,0-0.1-0.1c-0.1,0.1-0.2,0.1-0.3,0.2c-0.2,0.1-0.5,0.1-0.7-0.1c-0.2-0.2-0.2-0.5-0.1-0.7c0.1-0.1,0.1-0.2,0.2-0.4
			c-0.2-0.3-0.4-0.6-0.5-0.9c0,0-0.1,0-0.1,0c-0.3,0-0.5-0.1-0.7-0.3c-0.1-0.3,0-0.5,0.2-0.7C0.6,9.1,0.6,9,0.7,9
			c-0.1-0.6-0.1-1.3,0-1.9c0,0-0.1,0-0.1-0.1C0.3,6.8,0.1,6.5,0,6.1c0,0,0-0.1,0-0.1V5.9c0,0,0-0.1,0-0.1c0.1-0.5,0.3-0.8,0.8-1
			c0.1,0,0.1-0.1,0.2-0.1c0,0,0-0.1,0-0.1c0-0.1,0-0.2,0-0.3c0,0,0,0,0,0c0-0.5,0.4-0.9,0.8-1.1c0.5-0.2,1-0.1,1.3,0.3c0,0,0,0,0,0
			c0.6-0.4,1.3-0.7,2-0.9c0,0,0,0,0,0c0-0.1,0-0.2,0-0.4c0-0.3,0.2-0.5,0.5-0.6c0.3-0.1,0.5,0.1,0.7,0.3c0.1,0.1,0.1,0.3,0.2,0.4
			c1.8-0.1,3.5,0.4,4.9,1.5c0.1,0,0.1-0.1,0.2-0.1c0.7-0.4,1.6-0.5,2.4-0.2c0.8,0.3,1.5,0.9,1.8,1.7C15.9,5.5,16,5.7,16,6l0,0
			c0,0,0,0.1,0,0.1v0.3c0,0,0,0,0,0C16,7,15.8,7.5,15.5,8c-0.2,0.3-0.5,0.6-0.8,0.9C14.4,9,14,9,13.8,8.8c-0.1-0.1-0.1-0.1-0.2-0.2
			c0,0.1,0,0.3-0.1,0.4c0,0,0.1,0.1,0.1,0.1C14,9.3,14,9.6,13.9,9.9c-0.1,0.3-0.4,0.4-0.6,0.4l-0.1,0c-0.2,0.4-0.4,0.8-0.7,1.1
			c0.1,0.2,0.2,0.4,0.3,0.6c0.1,0.2,0.1,0.6-0.1,0.7c-0.2,0.2-0.5,0.2-0.8,0.1l-0.1-0.1c-0.1-0.1-0.2-0.2-0.3-0.2
			c-0.6,0.4-1.3,0.8-2,1c0,0.1,0,0.2,0,0.3c0,0.3-0.2,0.5-0.4,0.6c-0.3,0.1-0.6,0-0.7-0.3c-0.1-0.1-0.2-0.2-0.2-0.4
			c-0.6,0.1-1.2,0.1-1.9,0l0,0.1c0,0,0,0,0,0c0,0,0,0,0,0c0,0.1-0.1,0.2-0.2,0.3C5.9,14.3,5.8,14.4,5.6,14.4z"/>
		<path class="st2" d="M5.8,2.2C5.9,2.5,6,2.8,6.2,3C8,2.8,10,3.3,11.4,4.6c0.2-0.1,0.3-0.3,0.5-0.3c0.6-0.3,1.3-0.4,1.9-0.2
			c0.6,0.2,1.2,0.7,1.4,1.4c0.1,0.2,0.1,0.4,0.2,0.7v0.3c0,0.4-0.2,0.9-0.4,1.2c-0.2,0.3-0.4,0.5-0.7,0.7c-0.3-0.2-0.5-0.5-0.7-0.8
			c-0.2,0.1-0.3,0.2-0.5,0.2c0.1,0.5,0,1.1-0.1,1.6c0.1,0.1,0.3,0.2,0.5,0.3c-0.2,0-0.3,0-0.5-0.1c-0.2,0.6-0.6,1.2-1,1.7
			c0.2,0.3,0.3,0.6,0.5,0.9c-0.3-0.2-0.6-0.4-0.8-0.6c-0.7,0.7-1.7,1.1-2.6,1.3c0,0.3,0,0.5,0,0.8c-0.1-0.2-0.3-0.5-0.4-0.7
			c-0.9,0.1-1.7,0.1-2.6-0.1c-0.1,0.2-0.1,0.4-0.2,0.6c0,0.1,0,0.1-0.1,0.2c0-0.3-0.1-0.6-0.1-0.9c-0.6-0.2-1.2-0.4-1.7-0.7
			c-0.2,0.2-0.4,0.5-0.6,0.7c0.1-0.3,0.1-0.7,0.2-1c-0.2-0.2-0.5-0.4-0.7-0.6c-0.2,0.1-0.5,0.3-0.7,0.4c0.1-0.2,0.3-0.5,0.4-0.7
			C2,10.6,1.7,10,1.5,9.5c-0.2,0-0.4,0.1-0.6,0.1c0.2-0.1,0.3-0.2,0.5-0.4c-0.3-0.8-0.3-1.7,0-2.6c-0.2,0-0.3,0-0.5-0.1
			C0.7,6.4,0.6,6.2,0.6,6V5.9c0-0.2,0.2-0.5,0.4-0.5c0.2-0.1,0.3-0.1,0.5-0.1C1.6,5,1.6,4.7,1.6,4.4c0-0.3,0.2-0.5,0.4-0.6
			c0.2-0.1,0.5,0,0.7,0.1c0.1,0.1,0.2,0.3,0.2,0.5c0.8-0.7,1.7-1.1,2.7-1.3c0,0,0.1,0,0.1,0C5.8,2.8,5.8,2.5,5.8,2.2 M5.1,4.1
			c-0.2,0-0.4,0.1-0.5,0.3c-0.3,0.3-0.3,0.9,0,1.2C4.8,6,5.3,6.1,5.7,5.9c0.4-0.2,0.6-0.7,0.4-1.1C6,4.3,5.5,4,5.1,4.1 M6.6,6.7
			C6.4,6.8,6.4,7.1,6.6,7.2C6.7,7.3,7,7.2,7,7C7.1,6.8,6.8,6.6,6.6,6.7 M8.2,7.9C8.1,8,8,8.1,8,8.2c0,0.2,0.1,0.4,0.4,0.4
			c0.2,0,0.4-0.2,0.4-0.4C8.7,8,8.4,7.9,8.2,7.9 M5.5,8.4c-0.2,0-0.3,0.2-0.3,0.3c0,0.2,0,0.4,0.2,0.5c0.2,0.1,0.4,0.1,0.6,0
			c0.2-0.1,0.3-0.4,0.2-0.6C6,8.5,5.7,8.4,5.5,8.4 M8.2,10.5C8,10.6,8,10.9,8.2,11c0.2,0.1,0.4,0,0.5-0.2
			C8.7,10.6,8.4,10.4,8.2,10.5z"/>
		<path class="st2" d="M5.1,4.6C5.4,4.5,5.7,4.7,5.7,5c0,0.3-0.2,0.6-0.5,0.5c-0.3,0-0.5-0.3-0.4-0.6C4.8,4.8,4.9,4.6,5.1,4.6z"/>
	</g>
</g>
</svg>
