<?xml version="1.0" encoding="utf-8"?>
<!-- Generator: Adobe Illustrator 24.0.3, SVG Export Plug-In . SVG Version: 6.00 Build 0)  -->
<svg version="1.1" id="Capa_1" xmlns="http://www.w3.org/2000/svg" xmlns:xlink="http://www.w3.org/1999/xlink" x="0px" y="0px"
	 viewBox="0 0 16 16" style="enable-background:new 0 0 16 16;" xml:space="preserve">
<style type="text/css">
	.st0{fill:#333333;}
	.st1{fill:#EF8539;}
	.st2{fill:#CCCCCC;}
</style>
<g>
	<g>
		<path class="st0" d="M15.4,12.3l-1.9-2c-1,1.1-2.4,1.6-3.8,1.6c1-1,1.6-2.4,1.6-3.9c0-1.5-0.6-2.9-1.6-3.9c1.4,0,2.7,0.5,3.8,1.6
			l1.9-2c-2.6-2.7-6.6-3.1-9.7-1.4L4,0.6C2.9,1.7,2.2,3.1,1.8,4.5c0,0,0,0,0,0C1,5.4,0.6,6.7,0.6,8c0,1.3,0.5,2.6,1.3,3.5
			c0,0,0,0,0,0c0.3,1.4,1.1,2.8,2.2,3.9l1.8-1.8C8.8,15.4,12.8,14.9,15.4,12.3z"/>
		<path class="st1" d="M4,0.6l1.8,1.8c1.2-0.7,2.6-1.1,4-1.1c2.1,0,4.1,0.8,5.7,2.4l-1.9,2c-1-1.1-2.4-1.6-3.8-1.6c0,0,0,0,0,0
			c1,1,1.6,2.4,1.6,3.9c0,1.5-0.6,2.9-1.6,3.9c0,0,0,0,0,0c1.4,0,2.7-0.5,3.8-1.6l1.9,2c-1.6,1.6-3.7,2.4-5.7,2.4
			c-1.4,0-2.7-0.4-4-1.1L4,15.4c-1.1-1.1-1.8-2.5-2.2-3.9c0,0,0,0,0,0C1,10.6,0.6,9.3,0.6,8c0-1.3,0.5-2.6,1.3-3.5c0,0,0,0,0,0
			C2.2,3.1,2.9,1.7,4,0.6 M4,0C4,0,4,0,4,0C3.8,0,3.7,0.1,3.6,0.2c-1.1,1.1-1.9,2.5-2.3,4C0.5,5.3,0,6.6,0,8c0,1.4,0.5,2.7,1.3,3.8
			c0.4,1.5,1.2,2.9,2.3,4.1C3.7,15.9,3.8,16,4,16c0,0,0,0,0,0c0.1,0,0.3-0.1,0.4-0.2l1.5-1.5c1.2,0.6,2.5,0.9,3.9,0.9
			c1.1,0,2.2-0.2,3.3-0.6c1.1-0.4,2-1.1,2.9-1.9c0.1-0.1,0.2-0.3,0.2-0.4c0-0.2-0.1-0.3-0.2-0.4l-1.9-2c-0.1-0.1-0.3-0.2-0.4-0.2
			c-0.1,0-0.3,0.1-0.4,0.2c-0.6,0.6-1.3,1-2.1,1.3c0.1-0.2,0.3-0.5,0.4-0.8c0.3-0.7,0.5-1.5,0.5-2.4c0-0.8-0.2-1.6-0.5-2.4
			c-0.1-0.3-0.2-0.5-0.4-0.8c0.8,0.2,1.5,0.6,2.1,1.3c0.1,0.1,0.3,0.2,0.4,0.2c0.1,0,0.3-0.1,0.4-0.2l1.9-2C15.9,4,16,3.9,16,3.7
			c0-0.2-0.1-0.3-0.2-0.4C15,2.5,14,1.8,13,1.4c-1-0.4-2.1-0.6-3.3-0.6C8.4,0.8,7,1.1,5.8,1.7L4.4,0.2C4.3,0.1,4.1,0,4,0L4,0z"/>
		<path class="st1" d="M5.9,10.3C5.3,9.6,4.8,8.8,4.6,8c0.2-0.8,0.7-1.6,1.3-2.3c1-1.1,2.4-1.6,3.8-1.6c-1-1-2.3-1.6-3.8-1.6
			c-1.6,0-3.1,0.8-4.1,1.9C1.6,5.6,1.5,6.8,1.7,8c-0.2,1.2-0.2,2.4,0.1,3.5c1,1.2,2.5,1.9,4.1,1.9c1.5,0,2.8-0.6,3.8-1.6
			C8.3,11.9,7,11.3,5.9,10.3z"/>
	</g>
	<polygon class="st2" points="16,12.8 12,16 8,12.8 8,10.4 12,13.6 16,10.4 	"/>
</g>
</svg>
