<?xml version="1.0" encoding="utf-8"?>
<!-- Generator: Adobe Illustrator 24.0.3, SVG Export Plug-In . SVG Version: 6.00 Build 0)  -->
<svg version="1.1" id="Capa_1" xmlns="http://www.w3.org/2000/svg" xmlns:xlink="http://www.w3.org/1999/xlink" x="0px" y="0px"
	 viewBox="0 0 16 16" style="enable-background:new 0 0 16 16;" xml:space="preserve">
<style type="text/css">
	.st0{fill:#00A4FF;}
	.st1{fill:#333333;}
</style>
<g>
	<path class="st0" d="M4.1,16c-0.5,0-1.1-0.1-1.8-0.2c-0.4,0-1.2-0.1-1.5-0.7c-0.1-0.1-0.1-0.3-0.1-0.6c-0.2-0.2-0.4-0.5-0.4-0.9
		c0-0.2,0.1-0.6,0.6-0.9c0,0,0,0,0.1,0c0,0,0,0,0-0.1c0-0.1,0-0.1,0-0.2c0-0.5,0-0.9,0.1-1.3c0-0.2,0.1-0.3,0.1-0.5
		c0,0,0-0.1,0.1-0.1C1.4,10.1,2,9.2,0.4,8.1c0,0,0,0,0,0C0.1,7.8-0.1,7.4,0,6.8c0.1-0.5,0.4-1,0.8-1.2c0.3-0.1,0.6,0,0.8,0.2
		C1.8,6.1,2,6.3,2.1,6.6C2.3,6.8,2.5,7,2.6,7.2c0,0,0.1,0,0.1,0.1c0-0.1,0-0.3,0-0.4c0-0.3,0-0.6,0.1-0.9c0.1-0.3,0.1-0.6,0.1-0.6
		c0,0,0,0,0,0c0,0,0,0,0-0.1C2.2,4.7,1.7,3.8,1.7,2.9C1.7,1.3,3,0,4.6,0s2.9,1.3,2.9,2.9c0,1.5-1.1,2.7-2.6,2.9C5,5.9,5,6,5,6.1
		C5,6.1,5,6.2,5,6.3c0.2,0,0.4,0,0.5,0.1C6,6.6,6.1,7.1,6.1,7.2c0,0.1,0,0.1,0,0.2C6,7.4,6,7.5,5.9,7.6c0.2,0,0.4,0.2,0.6,0.4
		c0.1-0.1,0.2-0.3,0.3-0.4c0,0,0,0,0,0C6.8,7.5,6.7,7.4,6.7,7.3C6.6,7.1,6.2,6.7,6.5,6.2C6.5,6.1,6.7,5.9,7,5.8
		c0.2,0,0.4-0.1,0.7,0.1C7.6,5.6,7.6,5.3,7.6,5c0-1.6,1.3-2.9,2.9-2.9c1.6,0,2.9,1.3,2.9,2.9c0,0.8-0.3,1.5-0.8,2c0.2,0,0.3,0,0.5,0
		c1.6,0,2.9,1.3,2.9,2.9s-1.3,2.9-2.9,2.9c-0.7,0-1.5-0.3-2-0.8c-0.2,0-0.4,0-0.6-0.1c-0.3,0-0.7-0.1-0.9-0.1
		c-0.3,0-0.4,0.1-0.4,0.1c0,0,0,0,0,0c0.1,0,0.2,0,0.2,0c0.2,0,0.5,0.1,0.8,0.2c0,0,0,0,0,0c0.3,0.2,0.5,0.4,0.6,0.6c0,0,0,0,0,0.1
		c0.1,0.2,0.1,0.4,0,0.6c-0.1,0.2-0.3,0.3-0.5,0.3c-1-0.1-1.5,0-1.8,0.3c0.1,0.1,0.2,0.3,0.4,0.6c0.1,0.2,0,0.5-0.1,0.6
		c-0.1,0.1-0.3,0.3-1,0.5C7,16,6.1,16.1,5.1,15.9C5,15.9,4.6,16,4.1,16z M1.9,14.5c0.1,0,0.4,0.1,0.5,0.1c0,0,0.1,0,0.1,0
		C3.8,15,5,14.8,5,14.8c0.1,0,0.1,0,0.2,0c1.2,0.2,1.9,0,2.3-0.2c-0.2-0.1-0.3-0.4-0.3-0.7c-0.1,0-0.2,0-0.3-0.1
		c-0.3-0.2-0.6-0.3-0.6-0.3c-0.2,0-0.4-0.2-0.4-0.4c-0.1-0.2-0.2-0.5-0.4-0.6c-0.1-0.1-0.1-0.1-0.1-0.2c-0.1,0-0.2,0-0.3-0.1
		C4.6,11.9,4,11.8,4,11.8c0,0,0,0,0,0c-0.4-0.1-0.7,0.3-0.7,0.5c-0.1,0.2-0.3,0.3-0.5,0.3c-0.2,0-0.4-0.1-0.5-0.3c0,0,0,0,0-0.1
		c0,0,0,0,0-0.1c0,0.1,0,0.2,0,0.3c0,0.1,0,0.2-0.1,0.3c0,0,0,0,0,0c0,0.2-0.1,0.6-0.6,0.9c0,0,0.1,0.1,0.2,0.1
		C1.8,13.9,1.9,14,2,14.2C2,14.3,2,14.4,1.9,14.5z M8,12.1c0,0,0,0.1,0,0.1c0,0.3,0,0.5,0,0.8c0.1-0.1,0.2-0.1,0.3-0.2
		C8.1,12.6,8,12.4,8,12.2c0,0,0,0,0,0C8,12.1,8,12.1,8,12.1C8,12.1,8,12.1,8,12.1z M6.7,12.1c0,0,0.1,0.1,0.1,0.1
		C6.8,12.2,6.8,12.2,6.7,12.1c0.1-0.1,0.1-0.1,0.1-0.1C6.8,12,6.8,12,6.7,12.1C6.8,12.1,6.8,12.1,6.7,12.1z M2.3,10.9
		c0,0.1,0,0.1,0,0.2c0.1-0.1,0.2-0.2,0.3-0.3c0,0-0.1-0.1-0.1-0.1C2.4,10.7,2.3,10.8,2.3,10.9z M4.7,10.8c0.1,0,0.3,0.1,0.4,0.1
		c0-0.1,0-0.2,0-0.3c0-0.3,0.1-0.7,0.4-0.9C5.4,9.5,5.3,9.3,5.2,9.2c0,0,0,0,0,0C5.1,9.1,4.9,8.9,4.8,8.7C4.7,8.8,4.5,9,4.4,9.2
		c0,0,0,0,0.1,0c0.2,0.1,0.4,0.3,0.4,0.5c0,0,0,0,0,0C5,9.9,5,10.3,4.7,10.8z M12.8,10.7c0.2,0.1,0.4,0.1,0.6,0c0,0,0,0,0,0
		c0.5-0.2,0.7-0.7,0.5-1.1c-0.2-0.5-0.7-0.7-1.1-0.5c-0.2,0.1-0.4,0.2-0.5,0.5c-0.1,0.2-0.1,0.5,0,0.7c0.1,0.1,0.1,0.3,0.2,0.4
		C12.6,10.6,12.7,10.6,12.8,10.7z M8.6,10C8.6,10.1,8.6,10.1,8.6,10c0.1,0,0.2,0,0.3-0.1c0,0,0,0,0,0C8.9,10,8.8,10,8.6,10z
		 M2.2,8.3c0.3,0.4,0.4,0.9,0.4,1.3C2.8,9.4,3,9.2,3.2,8.9c0.3-0.4,0.5-0.8,0.9-1.1c0,0,0,0,0,0C3.9,7.7,3.9,7.6,3.8,7.5
		c0,0,0,0,0,0.1C3.7,8,3.4,8.2,3.2,8.3C2.9,8.4,2.5,8.4,2.2,8.3z M5.6,9.6L5.6,9.6L5.6,9.6z M9,8.3c0.1,0,0.3,0,0.4,0.1
		c0.2,0.1,0.3,0.3,0.4,0.5c0,0.1,0,0.1,0,0.2c0,0.1,0,0.2-0.1,0.3c0,0,0.1-0.1,0.1-0.1c0.1-0.1,0.3-0.2,0.4-0.2
		c0.1-0.4,0.4-0.9,0.7-1.2c-0.2,0-0.3,0-0.5,0c-0.4,0-0.8-0.1-1.1-0.2c0,0.1-0.1,0.1-0.1,0.2C9.2,8,9.2,8,9.1,8C9,8.1,9,8.2,8.9,8.3
		C8.9,8.3,9,8.3,9,8.3z M1.2,7.2C1.2,7.2,1.2,7.2,1.2,7.2C1.2,7.2,1.2,7.2,1.2,7.2C1.2,7.2,1.2,7.2,1.2,7.2C1.2,7.2,1.2,7.2,1.2,7.2
		z M7.1,6.9L7.1,6.9L7.1,6.9z M3.9,6.4c0,0.1,0,0.2,0,0.3C3.9,6.6,3.9,6.5,3.9,6.4C3.9,6.4,3.9,6.4,3.9,6.4z M0.8,6.7
		C0.8,6.7,0.8,6.7,0.8,6.7C0.8,6.7,0.8,6.7,0.8,6.7z M3.9,6.5C3.9,6.5,3.9,6.5,3.9,6.5C3.9,6.5,3.9,6.5,3.9,6.5z M10.5,4.1
		c-0.3,0-0.5,0.1-0.7,0.4l0,0C9.6,4.7,9.6,4.9,9.6,5.2c0,0.2,0.2,0.4,0.4,0.6c0.2,0.1,0.4,0.2,0.7,0.1c0.2,0,0.4-0.2,0.6-0.4
		c0.1-0.2,0.2-0.4,0.1-0.7c0-0.2-0.2-0.4-0.4-0.6C10.8,4.2,10.6,4.1,10.5,4.1z M9.3,4.2L9.3,4.2L9.3,4.2z M4.6,2
		C4.2,2,3.8,2.4,3.8,2.9s0.4,0.9,0.9,0.9s0.9-0.4,0.9-0.9S5.1,2,4.6,2z"/>
	<path class="st1" d="M13.1,7.5c-1.3,0-2.3,1-2.3,2.3c0,0,0,0,0,0.1c-0.1-0.2-0.4-0.4-0.5-0.2c-0.7,0.7-1.8,1-2.4,1.8
		c0-0.5,0.4-0.9,0.2-1.4c-0.9,0.7-0.5,2.2-0.8,3.2C6.9,13.1,6.5,13,6.5,13c-0.1-0.4-0.3-0.6-0.5-0.9c0.3-0.2,0.4-0.4,0.4-0.4
		c0.3-0.3,0.1-0.6,0.1-0.6c-0.2-0.6,0.8-1.2,0.8-1.2c0.2,0.1,1.5-0.5,1.5-0.5C9.3,9.3,9.3,9,9.3,9C9.2,8.7,8.7,8.9,8.7,8.9
		C8.6,9.1,7.9,9.2,7.9,9.2C7.2,9.3,7.5,9,7.5,9c0-0.2,1.2-1.4,1.2-1.4C8.9,7.3,9,7.1,9.1,6.9c0.4,0.3,0.9,0.4,1.4,0.4
		c1.3,0,2.3-1,2.3-2.3c0-1.3-1-2.3-2.3-2.3c-1.3,0-2.3,1-2.3,2.3c0,0.6,0.2,1.1,0.5,1.5C8.3,7.1,8.1,7.4,8.1,7.4C8,7.2,8,6.9,8,6.9
		C7.9,6.7,7.5,6.4,7.5,6.4C7.1,6.2,7,6.5,7,6.5C6.8,6.7,7.4,7.3,7.4,7.3c0.2,0.1,0,0.6,0,0.6C7,8.2,6.5,9.1,6.5,9.1
		c0-0.2-0.4-0.7-0.4-0.7C5.8,8,5.5,8.2,5.5,8.2c-0.3,0.2,0,0.6,0,0.6C5.8,9,6.1,9.6,6.1,9.6c0.1,0.3-0.2,0.5-0.2,0.5
		c-0.3,0.1-0.2,0.5-0.2,0.5c0,0.4-0.1,0.7-0.1,0.7c0,0.2-0.1,0.4-0.1,0.5C4.8,11.3,4,11.2,4,11.2c-0.7-0.1-1.1,0.4-1.3,0.7
		c0,0,0-0.1-0.1-0.1c-0.2-0.2,0.1-0.6,0.5-0.8c0.1-0.1,0.3-0.2,0.5-0.3c0.5-0.2,0.9-0.5,0.8-0.9C4.3,9.7,4,9.7,3.7,9.8
		c-0.3,0.1-0.6,0.3-0.9,0.4c0.6-0.6,1-1.5,1.6-2C4.6,8.1,4.7,8,4.9,7.9C5,7.8,5.2,7.7,5.3,7.6c0.1-0.1,0.2-0.3,0.2-0.4
		c0,0,0-0.6-0.7-0.2L4.4,7.3c0,0,0-0.2,0.1-0.4c0-0.2,0.1-0.5,0-0.6c0,0-0.1-0.3,0-0.7c0,0,0-0.1,0-0.3c0,0,0.1,0,0.1,0
		c1.3,0,2.3-1,2.3-2.3s-1-2.3-2.3-2.3c-1.3,0-2.3,1-2.3,2.3c0,0.9,0.5,1.7,1.3,2.1C3.6,5.1,3.5,5.2,3.5,5.4c0,0,0,0.3-0.1,0.7
		C3.2,6.7,3.4,7.6,3,7.7C2.1,8.1,1.8,6.9,1.2,6.3c-0.3-0.4-0.9,1-0.5,1.3c1.1,0.8,1.7,1.8,1,3c0,0.2-0.1,0.3-0.1,0.5
		c-0.1,0.4-0.1,0.9,0,1.3c-0.1,0.2,0,0.5-0.4,0.7c-0.8,0.4,0.2,1.1,0.2,1.1c-0.6,0.8,1,0.9,1,0.9c1.4,0.4,2.7,0.1,2.7,0.1
		c2.3,0.3,3.2-0.5,3.2-0.5c-0.2-0.5-0.5-0.7-0.5-0.7c0.4-1.2,1.5-1.1,2.5-1c-0.1-0.2-0.2-0.3-0.4-0.4c-0.5-0.2-1.4-0.1-1.4-0.5
		c-0.1-1.4,1.7-0.8,2.8-0.8c0.4,0.5,1.1,0.8,1.7,0.8c1.3,0,2.3-1,2.3-2.3C15.4,8.6,14.4,7.5,13.1,7.5z M9.3,4.2
		c0.5-0.7,1.4-0.8,2-0.4c0.7,0.5,0.8,1.4,0.4,2c-0.5,0.7-1.4,0.8-2,0.4C9,5.7,8.8,4.8,9.3,4.2z M4.6,1.5c0.8,0,1.5,0.7,1.5,1.5
		c0,0.8-0.7,1.5-1.5,1.5c-0.8,0-1.5-0.7-1.5-1.5C3.2,2.1,3.8,1.5,4.6,1.5z M10.1,10.7c0.3-0.1,0.6-0.3,0.6-0.6
		c0,0.2,0.1,0.4,0.2,0.7C10.7,10.7,10.4,10.7,10.1,10.7z M13.6,11.2c-0.4,0.1-0.8,0.1-1.1-0.1c-0.1-0.1-0.2-0.1-0.3-0.2
		c-0.2-0.2-0.4-0.4-0.5-0.6c-0.3-0.8,0.1-1.6,0.9-1.9c0.8-0.3,1.6,0.1,1.9,0.9C14.7,10.1,14.3,10.9,13.6,11.2z"/>
</g>
</svg>
