<?xml version="1.0" encoding="utf-8"?>
<!-- Generator: Adobe Illustrator 24.0.3, SVG Export Plug-In . SVG Version: 6.00 Build 0)  -->
<svg version="1.1" id="Capa_1" xmlns="http://www.w3.org/2000/svg" xmlns:xlink="http://www.w3.org/1999/xlink" x="0px" y="0px"
	 viewBox="0 0 16 16" style="enable-background:new 0 0 16 16;" xml:space="preserve">
<style type="text/css">
	.st0{fill:#8CC63F;}
	.st1{fill:#333333;}
	.st2{fill:#CCCCCC;}
</style>
<g>
	<g>
		<g>
			<path class="st0" d="M13.5,10.4c-0.1,0-0.1,0-0.2,0c-0.6,0.2-1.2,0.5-1.6,0.9c-0.6,0.5-1.1,1.2-1.4,2c0,0.1,0,0.3,0,0.4
				c0.2,0.4,0.5,0.8,0.7,1.2c0.1,0.2,0.2,0.3,0.3,0.5c0.1,0.1,0.1,0.2,0.2,0.2c0.5,0.2,1,0.3,1.4,0.3c0.3,0,0.6,0,0.9-0.1
				c0.4-0.1,0.8-0.3,1.1-0.6c0,0,0,0,0,0l0.1-0.1c0,0,0,0,0,0c0.4-0.5,0.7-1.1,0.7-1.7c0-0.5-0.1-1.1-0.3-1.7c0-0.1-0.1-0.2-0.2-0.2
				c-0.1-0.1-0.3-0.2-0.4-0.2c-0.4-0.2-0.8-0.5-1.3-0.8C13.7,10.4,13.6,10.4,13.5,10.4L13.5,10.4z"/>
			<path class="st0" d="M11.1,5.4C11.1,5.4,11.1,5.4,11.1,5.4C9.7,5.7,8.5,6.3,7.5,7.2c-1.1,1-1.8,2.4-2.1,3.8c0,0.1,0,0.2,0.1,0.3
				c0.4,0.8,1,1.8,1.9,2.3c0,0,0,0,0,0C7.7,13.9,8.1,14,8.5,14c0.4,0,0.7-0.1,1.1-0.3c0.4-0.2,0.6-0.5,0.8-0.8c0,0,0,0,0,0
				c0.5-1.1,1.4-2,2.5-2.5c0,0,0,0,0,0c0.5-0.3,0.8-0.7,1-1.3C14.1,8.6,14,8,13.7,7.5c0,0,0,0,0,0c-0.4-0.7-1.1-1.2-1.6-1.5
				c-0.1-0.1-0.3-0.2-0.4-0.3c-0.1-0.1-0.2-0.1-0.3-0.2C11.3,5.5,11.2,5.4,11.1,5.4L11.1,5.4z"/>
			<path class="st0" d="M6.4,0.9c-0.1,0-0.2,0-0.3,0.1C6,1.1,5.9,1.2,5.8,1.4c0,0.1,0,0.1,0,0.2c0,0.2,0,0.3-0.1,0.4c0,0,0,0,0,0
				C5.6,3.2,4.9,4.2,3.9,4.9c0,0,0,0,0,0C3.2,5.5,2.3,5.8,1.4,5.8C1.2,5.9,1.1,6,1,6.1C0.9,6.3,0.9,6.4,1,6.6
				c0.1,0.3,0.3,0.6,0.5,0.9C1.3,8.2,1.4,8.8,1.6,9.3c0.3,0.5,0.8,1,1.4,1.3c0.5,0.3,1.1,0.3,1.7,0.4c0.1,0,0.1,0,0.2,0
				c0,0,0.1,0,0.1,0c0.2,0,0.4-0.1,0.5-0.4c0-0.1,0.1-0.2,0.1-0.3c0-0.1,0.1-0.2,0.1-0.3c0,0,0,0,0,0c0.4-1.1,1-2.2,1.9-3
				c0,0,0,0,0,0c0.8-0.8,1.9-1.3,3.1-1.6c0.3-0.1,0.4-0.3,0.4-0.6c0,0,0-0.1,0-0.1c-0.1-0.5-0.2-1.1-0.4-1.6
				c-0.3-0.6-0.7-1.1-1.2-1.4C9,1.5,8.6,1.4,8.2,1.4c-0.2,0-0.4,0-0.7,0.1C7.2,1.2,6.9,1.1,6.6,1C6.5,0.9,6.5,0.9,6.4,0.9L6.4,0.9z"
				/>
			<path class="st0" d="M2.4,0C1.8,0,1.2,0,0.8,0.1c0,0,0,0,0,0c-0.1,0-0.3,0.1-0.4,0.2l0,0C0.2,0.4,0.1,0.6,0.1,0.7c0,0,0,0,0,0
				C0,1.3,0,1.8,0,2.5c0,1,0.2,2,0.5,2.9C0.5,5.6,0.7,5.7,1,5.7c0,0,0.1,0,0.1,0c0.8,0,1.6-0.2,2.3-0.6c0.9-0.5,1.6-1.3,2-2.2
				C5.6,2.3,5.8,1.6,5.7,1c0-0.2-0.2-0.4-0.4-0.5C4.4,0.2,3.5,0,2.5,0C2.4,0,2.4,0,2.4,0L2.4,0z"/>
		</g>
		<g>
			<path class="st1" d="M4.9,2.7C5.1,2.2,5.2,1.6,5.2,1C4.3,0.7,3.4,0.5,2.5,0.5c-0.5,0-1.1,0-1.6,0.1c0,0-0.1,0-0.1,0l0,0
				c0,0,0,0.1,0,0.1C0.6,1.4,0.5,1.9,0.5,2.5c0,0.9,0.2,1.9,0.4,2.7c0.8,0,1.5-0.2,2.2-0.5C3.9,4.2,4.5,3.5,4.9,2.7z M2.4,2.4
				C2.2,2.2,2.1,1.8,2.3,1.6c0.2-0.2,0.5-0.3,0.8-0.1C3.4,1.6,3.4,2,3.2,2.3C3,2.6,2.7,2.6,2.4,2.4z"/>
			<path class="st1" d="M7.2,6.7c0.9-0.9,2.1-1.5,3.3-1.8c-0.1-0.6-0.2-1.1-0.4-1.6c-0.2-0.5-0.5-0.9-1-1.1C8.6,1.9,8,1.9,7.4,2
				c-0.3-0.2-0.7-0.4-1-0.6c0,0.2,0,0.4-0.1,0.7c-0.2,1.3-1,2.5-2,3.2c-0.8,0.6-1.8,1-2.8,1c0.2,0.4,0.4,0.7,0.6,1
				C1.9,8,1.9,8.5,2.1,9.1c0.2,0.5,0.7,0.8,1.1,1c0.5,0.2,1.1,0.3,1.7,0.4C5,10.3,5,10.1,5.1,9.9C5.5,8.6,6.2,7.5,7.2,6.7z"/>
			<path class="st1" d="M12.7,10c0.7-0.4,1-1.5,0.6-2.2c-0.3-0.6-0.9-1-1.4-1.3c-0.2-0.2-0.5-0.3-0.8-0.4C9.9,6.2,8.8,6.8,7.9,7.6
				c-1,0.9-1.7,2.2-1.9,3.5c0.4,0.8,0.9,1.6,1.7,2.1c0.7,0.5,1.8,0.2,2.3-0.6C10.5,11.5,11.5,10.5,12.7,10z"/>
			<path class="st1" d="M15.2,11.9c-0.6-0.3-1.1-0.7-1.7-1c-0.5,0.2-1,0.4-1.4,0.8c-0.6,0.5-1,1.1-1.2,1.8c0.3,0.6,0.7,1.1,1,1.7
				c0.6,0.3,1.3,0.4,1.9,0.2c0.3-0.1,0.6-0.3,0.9-0.5l0.1-0.1c0.4-0.4,0.6-0.9,0.6-1.4C15.5,12.8,15.4,12.3,15.2,11.9z"/>
		</g>
	</g>
	<polygon class="st2" points="16,12.8 12,16 8,12.8 8,10.4 12,13.6 16,10.4 	"/>
</g>
</svg>
