<?xml version="1.0" encoding="utf-8"?>
<!-- Generator: Adobe Illustrator 24.0.3, SVG Export Plug-In . SVG Version: 6.00 Build 0)  -->
<svg version="1.1" id="Capa_1" xmlns="http://www.w3.org/2000/svg" xmlns:xlink="http://www.w3.org/1999/xlink" x="0px" y="0px"
	 viewBox="0 0 16 16" style="enable-background:new 0 0 16 16;" xml:space="preserve">
<style type="text/css">
	.st0{fill:#3FA9F5;}
	.st1{fill:#333333;}
</style>
<g>
	<path class="st0" d="M9.1,0C7.8,0,6.5,0.4,5.4,1C4.4,1.7,3.6,2.5,3,3.6C2.1,4.2,1.4,5,0.9,5.9C0.3,6.9,0,8.1,0,9.2
		c0,0.9,0.2,1.8,0.5,2.6C0.9,12.7,1.4,13.4,2,14s1.3,1.1,2.2,1.5C5,15.8,5.9,16,6.8,16c1.2,0,2.3-0.3,3.3-0.9
		c0.9-0.5,1.7-1.3,2.3-2.1c1-0.6,1.9-1.4,2.6-2.4c0.7-1.1,1-2.3,1-3.6c0-0.9-0.2-1.8-0.5-2.7C15.1,3.4,14.6,2.7,14,2
		c-0.6-0.6-1.4-1.1-2.2-1.5C10.9,0.2,10,0,9.1,0L9.1,0z"/>
	<path class="st1" d="M15.5,6.9c0-3.5-2.9-6.4-6.4-6.4C6.6,0.5,4.5,1.9,3.4,4C1.7,5.1,0.5,7,0.5,9.2c0,3.5,2.8,6.3,6.3,6.3
		c2.2,0,4.2-1.1,5.3-2.9C14.1,11.5,15.5,9.4,15.5,6.9z M12.8,11.1c0.2-0.6,0.3-1.2,0.3-1.9c0-0.8-0.2-1.6-0.5-2.3
		c-0.2,2.4-2.2,4.3-4.7,4.3c-1.7,0-3.2-0.9-4-2.3c-0.2-0.6-0.4-1.3-0.4-2c0-3.1,2.5-5.6,5.6-5.6s5.6,2.5,5.6,5.6
		C14.6,8.6,13.9,10.1,12.8,11.1z"/>
</g>
</svg>
