<?xml version="1.0" encoding="utf-8"?>
<!-- Generator: Adobe Illustrator 24.0.3, SVG Export Plug-In . SVG Version: 6.00 Build 0)  -->
<svg version="1.1" id="Capa_1" xmlns="http://www.w3.org/2000/svg" xmlns:xlink="http://www.w3.org/1999/xlink" x="0px" y="0px"
	 viewBox="0 0 16 16" style="enable-background:new 0 0 16 16;" xml:space="preserve">
<style type="text/css">
	.st0{display:none;}
	.st1{display:inline;fill:#B3B3B3;}
	.st2{display:inline;fill:#333333;}
	.st3{fill:#926DCC;}
	.st4{fill:#333333;}
	.st5{fill:#B3B3B3;}
</style>
<g>
	<g class="st0">
		<path class="st1" d="M13.6,16.2c-0.3,0-0.5-0.2-0.5-0.5v-0.3h-0.7v0.3c0,0.3-0.2,0.5-0.5,0.5s-0.5-0.2-0.5-0.5v-0.3h-0.6
			c-0.3,0-0.5-0.2-0.5-0.5v-0.6H9.8c-0.3,0-0.5-0.2-0.5-0.5c0-0.3,0.2-0.5,0.5-0.5h0.3v-0.7H9.8c-0.3,0-0.5-0.2-0.5-0.5
			s0.2-0.5,0.5-0.5h0.3v-0.6c0-0.3,0.2-0.5,0.5-0.5h0.6V9.8c0-0.3,0.2-0.5,0.5-0.5s0.5,0.2,0.5,0.5v0.3h0.7V9.8
			c0-0.3,0.2-0.5,0.5-0.5c0.3,0,0.5,0.2,0.5,0.5v0.3h0.6c0.3,0,0.5,0.2,0.5,0.5v0.6h0.3c0.3,0,0.5,0.2,0.5,0.5s-0.2,0.5-0.5,0.5
			h-0.3v0.7h0.3c0.3,0,0.5,0.2,0.5,0.5c0,0.3-0.2,0.5-0.5,0.5h-0.3v0.6c0,0.3-0.2,0.5-0.5,0.5h-0.6v0.3C14.2,16,13.9,16.2,13.6,16.2
			z M13.7,13.7v-1.9h-1.9v1.9H13.7z M11.9,13.6v-1.7h1.7v1.7H11.9z"/>
		<path class="st2" d="M13.6,9.5c0.2,0,0.3,0.1,0.3,0.3v0.6h0.9c0.2,0,0.3,0.1,0.3,0.3v0.9h0.6c0.2,0,0.3,0.1,0.3,0.3
			s-0.1,0.3-0.3,0.3h-0.6v1.2h0.6c0.2,0,0.3,0.1,0.3,0.3s-0.1,0.3-0.3,0.3h-0.6v0.9c0,0.2-0.1,0.3-0.3,0.3h-0.9v0.6
			c0,0.2-0.1,0.3-0.3,0.3s-0.3-0.1-0.3-0.3v-0.6h-1.2v0.6c0,0.2-0.1,0.3-0.3,0.3s-0.3-0.1-0.3-0.3v-0.6h-0.9c-0.2,0-0.3-0.1-0.3-0.3
			v-0.9H9.8c-0.2,0-0.3-0.1-0.3-0.3s0.1-0.3,0.3-0.3h0.6v-1.2H9.8c-0.2,0-0.3-0.1-0.3-0.3s0.1-0.3,0.3-0.3h0.6v-0.9
			c0-0.2,0.1-0.3,0.3-0.3h0.9V9.8c0-0.2,0.1-0.3,0.3-0.3s0.3,0.1,0.3,0.3v0.6h1.2V9.8C13.4,9.7,13.5,9.5,13.6,9.5 M11.6,13.9h2.4
			v-2.4h-2.4V13.9 M13.4,12.2v1.2h-1.2v-1.2H13.4 M13.6,9c-0.4,0-0.8,0.4-0.8,0.8v0.1h-0.2V9.8c0-0.4-0.4-0.8-0.8-0.8
			s-0.8,0.4-0.8,0.8v0.1h-0.4c-0.4,0-0.8,0.4-0.8,0.8v0.4H9.8c-0.4,0-0.8,0.4-0.8,0.8s0.4,0.8,0.8,0.8h0.1v0.2H9.8
			c-0.4,0-0.8,0.4-0.8,0.8s0.4,0.8,0.8,0.8h0.1v0.4c0,0.4,0.4,0.8,0.8,0.8h0.4v0.1c0,0.4,0.4,0.8,0.8,0.8s0.8-0.4,0.8-0.8v-0.1h0.2
			v0.1c0,0.4,0.4,0.8,0.8,0.8s0.8-0.4,0.8-0.8v-0.1h0.4c0.4,0,0.8-0.4,0.8-0.8v-0.4h0.1c0.4,0,0.8-0.4,0.8-0.8s-0.4-0.8-0.8-0.8
			h-0.1v-0.2h0.1c0.4,0,0.8-0.4,0.8-0.8s-0.4-0.8-0.8-0.8h-0.1v-0.4c0-0.4-0.4-0.8-0.8-0.8h-0.4V9.8C14.4,9.4,14.1,9,13.6,9L13.6,9z
			"/>
	</g>
	<path class="st3" d="M9.1,0C7.8,0,6.5,0.4,5.4,1C4.4,1.7,3.6,2.5,3,3.6C2.1,4.2,1.4,5,0.9,5.9C0.3,6.9,0,8.1,0,9.2
		c0,0.9,0.2,1.8,0.5,2.6C0.9,12.7,1.4,13.4,2,14s1.3,1.1,2.2,1.5C5,15.8,5.9,16,6.8,16c1.2,0,2.3-0.3,3.3-0.9
		c0.9-0.5,1.7-1.3,2.3-2.1c1-0.6,1.9-1.4,2.6-2.4c0.7-1.1,1-2.3,1-3.6c0-0.9-0.2-1.8-0.5-2.7C15.1,3.4,14.6,2.7,14,2
		c-0.6-0.6-1.4-1.1-2.2-1.5C10.9,0.2,10,0,9.1,0L9.1,0z"/>
	<path class="st4" d="M15.5,6.9c0-3.5-2.9-6.4-6.4-6.4C6.6,0.5,4.5,1.9,3.4,4C1.7,5.1,0.5,7,0.5,9.2c0,3.5,2.8,6.3,6.3,6.3
		c2.2,0,4.2-1.1,5.3-2.9C14.1,11.5,15.5,9.4,15.5,6.9z M12.8,11.1c0.2-0.6,0.3-1.2,0.3-1.9c0-0.8-0.2-1.6-0.5-2.3
		c-0.2,2.4-2.2,4.3-4.7,4.3c-1.7,0-3.2-0.9-4-2.3c-0.2-0.6-0.4-1.3-0.4-2c0-3.1,2.5-5.6,5.6-5.6s5.6,2.5,5.6,5.6
		C14.6,8.6,13.9,10.1,12.8,11.1z"/>
	<g>
		<path class="st5" d="M15.2,12.9h-0.6v-1.2h0.6c0.2,0,0.3-0.1,0.3-0.3s-0.1-0.3-0.3-0.3h-0.6v-0.9c0-0.2-0.1-0.3-0.3-0.3h-0.9V9.3
			c0-0.2-0.1-0.3-0.3-0.3s-0.3,0.1-0.3,0.3v0.6h-1.2V9.3c0-0.2-0.1-0.3-0.3-0.3s-0.3,0.1-0.3,0.3v0.6h-0.9c-0.2,0-0.3,0.1-0.3,0.3
			v0.9H9.3c-0.2,0-0.3,0.1-0.3,0.3s0.1,0.3,0.3,0.3h0.6v1.2H9.3C9.2,12.9,9,13,9,13.1s0.1,0.3,0.3,0.3h0.6v0.9
			c0,0.2,0.1,0.3,0.3,0.3h0.9v0.6c0,0.2,0.1,0.3,0.3,0.3s0.3-0.1,0.3-0.3v-0.6h1.2v0.6c0,0.2,0.1,0.3,0.3,0.3s0.3-0.1,0.3-0.3v-0.6
			h0.9c0.2,0,0.3-0.1,0.3-0.3v-0.9h0.6c0.2,0,0.3-0.1,0.3-0.3S15.4,12.9,15.2,12.9z M13.4,13.4h-2.4v-2.4h2.4V13.4z M12.9,11.7h-1.2
			v1.2h1.2V11.7z"/>
		<path class="st4" d="M13.1,9c0.2,0,0.3,0.1,0.3,0.3v0.6h0.9c0.2,0,0.3,0.1,0.3,0.3v0.9h0.6c0.2,0,0.3,0.1,0.3,0.3
			s-0.1,0.3-0.3,0.3h-0.6v1.2h0.6c0.2,0,0.3,0.1,0.3,0.3s-0.1,0.3-0.3,0.3h-0.6v0.9c0,0.2-0.1,0.3-0.3,0.3h-0.9v0.6
			c0,0.2-0.1,0.3-0.3,0.3c-0.2,0-0.3-0.1-0.3-0.3v-0.6h-1.2v0.6c0,0.2-0.1,0.3-0.3,0.3s-0.3-0.1-0.3-0.3v-0.6h-0.9
			c-0.2,0-0.3-0.1-0.3-0.3v-0.9H9.3c-0.2,0-0.3-0.1-0.3-0.3s0.1-0.3,0.3-0.3h0.6v-1.2H9.3c-0.2,0-0.3-0.1-0.3-0.3s0.1-0.3,0.3-0.3
			h0.6v-0.9c0-0.2,0.1-0.3,0.3-0.3h0.9V9.3c0-0.2,0.1-0.3,0.3-0.3s0.3,0.1,0.3,0.3v0.6h1.2V9.3C12.9,9.2,13,9,13.1,9 M11.1,13.4h2.4
			v-2.4h-2.4V13.4 M12.9,11.7v1.2h-1.2v-1.2H12.9 M13.1,8.5c-0.4,0-0.8,0.4-0.8,0.8v0.1h-0.2V9.3c0-0.4-0.4-0.8-0.8-0.8
			s-0.8,0.4-0.8,0.8v0.1h-0.4c-0.4,0-0.8,0.4-0.8,0.8v0.4H9.3c-0.4,0-0.8,0.4-0.8,0.8s0.4,0.8,0.8,0.8h0.1v0.2H9.3
			c-0.4,0-0.8,0.4-0.8,0.8s0.4,0.8,0.8,0.8h0.1v0.4c0,0.4,0.4,0.8,0.8,0.8h0.4v0.1c0,0.4,0.4,0.8,0.8,0.8s0.8-0.4,0.8-0.8v-0.1h0.2
			v0.1c0,0.4,0.4,0.8,0.8,0.8s0.8-0.4,0.8-0.8v-0.1h0.4c0.4,0,0.8-0.4,0.8-0.8v-0.4h0.1c0.4,0,0.8-0.4,0.8-0.8s-0.4-0.8-0.8-0.8
			h-0.1v-0.2h0.1c0.4,0,0.8-0.4,0.8-0.8s-0.4-0.8-0.8-0.8h-0.1v-0.4c0-0.4-0.4-0.8-0.8-0.8h-0.4V9.3C13.9,8.9,13.6,8.5,13.1,8.5
			L13.1,8.5z"/>
	</g>
</g>
</svg>
