<?xml version="1.0" encoding="utf-8"?>
<!-- Generator: Adobe Illustrator 24.0.3, SVG Export Plug-In . SVG Version: 6.00 Build 0)  -->
<svg version="1.1" id="Capa_1" xmlns="http://www.w3.org/2000/svg" xmlns:xlink="http://www.w3.org/1999/xlink" x="0px" y="0px"
	 viewBox="0 0 16 16" style="enable-background:new 0 0 16 16;" xml:space="preserve">
<style type="text/css">
	.st0{fill:#BDCCD4;}
	.st1{fill:#333333;}
	.st2{fill:#B3B3B3;}
</style>
<g>
	<g>
		<path class="st0" d="M9.1,0C7.8,0,6.5,0.4,5.4,1C4.4,1.7,3.6,2.5,3,3.6C2.1,4.2,1.4,5,0.9,5.9C0.3,6.9,0,8.1,0,9.2
			c0,0.9,0.2,1.8,0.5,2.6C0.9,12.7,1.4,13.4,2,14s1.3,1.1,2.2,1.5C5,15.8,5.9,16,6.8,16c1.2,0,2.3-0.3,3.3-0.9
			c0.9-0.5,1.7-1.3,2.3-2.1c1-0.6,1.9-1.4,2.6-2.4c0.7-1.1,1-2.3,1-3.6c0-0.9-0.2-1.8-0.5-2.7C15.1,3.4,14.6,2.7,14,2
			c-0.6-0.6-1.4-1.1-2.2-1.5C10.9,0.2,10,0,9.1,0L9.1,0z"/>
		<path class="st1" d="M15.5,6.9c0-3.5-2.9-6.4-6.4-6.4C6.6,0.5,4.5,1.9,3.4,4C1.7,5.1,0.5,7,0.5,9.2c0,3.5,2.8,6.3,6.3,6.3
			c2.2,0,4.2-1.1,5.3-2.9C14.1,11.5,15.5,9.4,15.5,6.9z M12.8,11.1c0.2-0.6,0.3-1.2,0.3-1.9c0-0.8-0.2-1.6-0.5-2.3
			c-0.2,2.4-2.2,4.3-4.7,4.3c-1.7,0-3.2-0.9-4-2.3c-0.2-0.6-0.4-1.3-0.4-2c0-3.1,2.5-5.6,5.6-5.6s5.6,2.5,5.6,5.6
			C14.6,8.6,13.9,10.1,12.8,11.1z"/>
	</g>
	<g>
		<path class="st2" d="M14.2,14.4l0.2-0.2c1,0,1,0,1-0.1l0.3-0.6l0-0.1l0-0.1c0,0,0-0.1-0.7-0.7v-0.3c0.7-0.7,0.7-0.7,0.6-0.8
			l-0.3-0.6c0-0.1-0.1-0.1-1-0.1l-0.2-0.2c0-0.3,0-0.6,0-0.9l0-0.1l-0.7-0.3c-0.1,0-0.1-0.1-0.8,0.6l-0.3,0
			c-0.7-0.7-0.7-0.7-0.8-0.7l-0.6,0.3c-0.1,0-0.1,0.1-0.1,1l-0.2,0.2c-1,0-1,0-1,0.1l-0.3,0.6l0,0.1l0,0.1c0,0,0,0.1,0.7,0.7v0.3
			c-0.7,0.7-0.7,0.7-0.6,0.8l0.3,0.6c0,0.1,0.1,0.1,1,0.1l0.2,0.2c0,0.3,0,0.6,0,0.9l0,0.1l0.7,0.3c0.1,0,0.1,0.1,0.8-0.6l0.3,0
			c0.7,0.7,0.7,0.7,0.8,0.7l0.6-0.3C14.2,15.4,14.2,15.4,14.2,14.4z M11.4,12.9c-0.2-0.6,0.1-1.3,0.7-1.5c0.6-0.2,1.3,0.1,1.5,0.7
			c0.2,0.6-0.1,1.2-0.6,1.5C12.3,13.8,11.7,13.5,11.4,12.9z"/>
		<path class="st1" d="M13.4,16c-0.2,0-0.4-0.2-0.9-0.7l-0.1,0c-0.6,0.6-0.7,0.7-1,0.6l-0.8-0.3l-0.1-0.2c0-0.3-0.1-0.6,0-0.9l0,0
			c-0.8,0-1,0-1.2-0.3L9,13.5c-0.1-0.3,0-0.4,0.6-1v-0.1c-0.6-0.5-0.6-0.6-0.6-0.7l0-0.1l0-0.2l0.3-0.6c0.1-0.3,0.3-0.3,1.2-0.3l0,0
			c0-0.8,0-1,0.3-1.2L11.4,9c0.3-0.1,0.4,0,1,0.6l0.1,0c0.5-0.6,0.7-0.8,1-0.6l0.8,0.3l0.1,0.2c0,0.3,0.1,0.6,0,0.9l0,0
			c0.8,0,1,0,1.2,0.3l0.3,0.6c0.1,0.3,0,0.4-0.6,1v0.1c0.6,0.5,0.6,0.6,0.6,0.7l0,0.1l0,0.2l-0.3,0.6c-0.1,0.3-0.4,0.3-1.2,0.3l0,0
			c0,0.8,0,1-0.3,1.2L13.6,16C13.5,16,13.4,16,13.4,16z M12.2,14.8l0.5,0l0.1,0.1c0.1,0.1,0.4,0.5,0.6,0.6l0.5-0.2
			c0-0.2,0-0.6,0-0.8l0-0.1l0.4-0.4l0.1,0c0.2,0,0.6,0,0.8,0l0.2-0.5c-0.1-0.1-0.2-0.2-0.6-0.6l-0.1-0.1v-0.5l0.1-0.1
			c0.1-0.1,0.4-0.4,0.6-0.6l-0.2-0.5c-0.1,0-0.4,0-0.8,0l-0.1,0l-0.4-0.4l0-0.1c0-0.3,0-0.5,0-0.8l-0.5-0.2
			c-0.1,0.1-0.4,0.4-0.5,0.6l-0.1,0.1l-0.5,0l-0.1-0.1C12,10,11.7,9.7,11.6,9.6l-0.5,0.2c0,0.2,0,0.6,0,0.8l0,0.1L10.7,11l-0.1,0
			c-0.2,0-0.6,0-0.8,0l-0.2,0.5c0.1,0.1,0.2,0.2,0.6,0.6l0.1,0.1v0.5l-0.1,0.1c-0.1,0.1-0.4,0.4-0.6,0.6l0.2,0.5c0.2,0,0.6,0,0.8,0
			l0.1,0l0.4,0.4l0,0.1c0,0.3,0,0.5,0,0.8l0.5,0.2C11.7,15.3,12,15,12.2,14.8L12.2,14.8z M12.5,13.9c-0.6,0-1.1-0.3-1.3-0.9l0,0
			c-0.1-0.3-0.1-0.7,0-1.1c0.2-0.3,0.4-0.6,0.8-0.7c0.7-0.3,1.6,0.1,1.8,0.8c0.3,0.7-0.1,1.5-0.8,1.8C12.9,13.9,12.7,13.9,12.5,13.9
			z M11.7,12.8c0.2,0.5,0.7,0.7,1.2,0.5c0.5-0.2,0.7-0.7,0.5-1.1c-0.2-0.5-0.7-0.7-1.2-0.5c-0.2,0.1-0.4,0.2-0.5,0.5
			C11.6,12.4,11.6,12.6,11.7,12.8z"/>
	</g>
</g>
</svg>
