<?xml version="1.0" encoding="utf-8"?>
<!-- Generator: Adobe Illustrator 24.0.3, SVG Export Plug-In . SVG Version: 6.00 Build 0)  -->
<svg version="1.1" id="Capa_1" xmlns="http://www.w3.org/2000/svg" xmlns:xlink="http://www.w3.org/1999/xlink" x="0px" y="0px"
	 viewBox="0 0 16 16" style="enable-background:new 0 0 16 16;" xml:space="preserve">
<style type="text/css">
	.st0{fill:#333333;}
	.st1{fill:#CCCCCC;}
	.st2{fill:#FFFDF3;}
	.st3{fill:#FF931E;}
	.st4{fill:#FFFFFF;}
</style>
<g>
	<path class="st0" d="M12.3,7.9c0,0,3.5-0.6,3.7,2.9c0,0,0.1,2.5-2.4,2.9H2.1c0,0-1.9-0.5-2.1-2.7c0,0-0.1-3.4,3.7-3.1l1.1-1.1
		C5,3.6,7.9,3.7,7.9,3.7s2.8-0.3,3.6,3.1L12.3,7.9z"/>
	<g>
		<path class="st1" d="M13.3,7.5c0-0.3,0.3-0.6,0.6-0.6c0-0.2-0.1-0.3-0.2-0.5c-0.2,0.2-0.6,0.2-0.8,0c-0.2-0.2-0.2-0.6,0-0.8
			c-0.1-0.1-0.3-0.2-0.5-0.2c0,0.3-0.3,0.6-0.6,0.6c-0.3,0-0.6-0.3-0.6-0.6c-0.2,0-0.3,0.1-0.5,0.2c0,0,0,0,0,0
			c0.2,0.2,0.2,0.6,0,0.8c-0.2,0.2-0.6,0.2-0.8,0C9.9,6.6,9.9,6.7,9.8,6.9c0,0,0,0,0,0c0.3,0,0.6,0.3,0.6,0.6c0,0.3-0.3,0.6-0.6,0.6
			c0,0,0,0,0,0c0,0.2,0.1,0.3,0.2,0.5c0,0,0,0,0,0c0.2-0.2,0.6-0.2,0.8,0c0.2,0.2,0.2,0.6,0,0.8c0.1,0.1,0.3,0.2,0.5,0.2
			c0-0.3,0.3-0.6,0.6-0.6c0.3,0,0.6,0.3,0.6,0.6c0.2,0,0.3-0.1,0.5-0.2c-0.2-0.2-0.2-0.6,0-0.8c0.2-0.2,0.6-0.2,0.8,0
			c0.1-0.1,0.1-0.3,0.2-0.5C13.6,8,13.3,7.8,13.3,7.5z"/>
		<path class="st0" d="M11.3,9.5L11.3,9.5c-0.2-0.1-0.3-0.1-0.5-0.2l0,0l0,0c0.2-0.2,0.2-0.6,0-0.8c-0.1-0.1-0.2-0.2-0.4-0.2
			c-0.1,0-0.3,0.1-0.4,0.2l0,0l0,0C9.9,8.4,9.9,8.2,9.8,8l0,0h0c0.3,0,0.6-0.2,0.6-0.6s-0.2-0.6-0.6-0.6h0l0,0
			c0-0.2,0.1-0.3,0.2-0.5l0,0l0,0c0.2,0.2,0.6,0.2,0.8,0C10.9,6.3,11,6.2,11,6s-0.1-0.3-0.2-0.4l0,0l0,0l0,0
			c0.2-0.1,0.3-0.2,0.5-0.2l0,0l0,0c0,0.3,0.2,0.5,0.6,0.5c0.3,0,0.5-0.2,0.6-0.5l0,0l0,0c0.2,0,0.3,0.1,0.5,0.2l0,0l0,0
			c-0.2,0.2-0.2,0.6,0,0.8c0.2,0.2,0.6,0.2,0.8,0l0,0l0,0c0.1,0.2,0.2,0.3,0.2,0.5l0,0l0,0c-0.3,0-0.5,0.2-0.5,0.6
			c0,0.3,0.2,0.5,0.5,0.6l0,0l0,0c0,0.2-0.1,0.3-0.2,0.5l0,0l0,0c-0.2-0.2-0.6-0.2-0.8,0c-0.2,0.2-0.2,0.6,0,0.8l0,0l0,0
			c-0.2,0.1-0.3,0.2-0.5,0.2l0,0l0,0c0-0.3-0.2-0.5-0.6-0.5C11.6,8.9,11.3,9.2,11.3,9.5L11.3,9.5z M10.8,9.3
			c0.1,0.1,0.3,0.1,0.4,0.2c0-0.3,0.3-0.6,0.6-0.6c0.3,0,0.6,0.2,0.6,0.6c0.2,0,0.3-0.1,0.4-0.2c-0.2-0.2-0.2-0.6,0-0.8
			c0.2-0.2,0.6-0.2,0.8,0c0.1-0.1,0.1-0.3,0.2-0.4c-0.3,0-0.6-0.3-0.6-0.6c0-0.3,0.2-0.6,0.6-0.6c0-0.2-0.1-0.3-0.2-0.4
			c-0.2,0.2-0.6,0.2-0.8,0c-0.2-0.2-0.2-0.6,0-0.8c-0.1-0.1-0.3-0.1-0.4-0.2c0,0.3-0.3,0.6-0.6,0.6c-0.3,0-0.6-0.2-0.6-0.6
			c-0.2,0-0.3,0.1-0.4,0.2C10.9,5.7,11,5.9,11,6c0,0.2-0.1,0.3-0.2,0.4c-0.2,0.2-0.6,0.2-0.8,0C9.9,6.6,9.9,6.7,9.8,6.9
			c0.3,0,0.6,0.3,0.6,0.6c0,0.3-0.2,0.6-0.6,0.6c0,0.2,0.1,0.3,0.2,0.4c0.1-0.1,0.2-0.2,0.4-0.2c0.2,0,0.3,0.1,0.4,0.2
			C11.1,8.7,11.1,9.1,10.8,9.3z"/>
	</g>
	<g>
		<path class="st1" d="M5.8,7.5c0-0.3,0.3-0.6,0.6-0.6c0-0.2-0.1-0.3-0.2-0.5C6,6.6,5.6,6.6,5.4,6.4c-0.2-0.2-0.2-0.6,0-0.8
			C5.3,5.5,5.1,5.5,4.9,5.4C4.9,5.7,4.7,6,4.4,6C4,6,3.8,5.7,3.8,5.4c-0.2,0-0.3,0.1-0.5,0.2c0,0,0,0,0,0c0.2,0.2,0.2,0.6,0,0.8
			c-0.2,0.2-0.6,0.2-0.8,0C2.4,6.6,2.4,6.7,2.3,6.9c0,0,0,0,0,0c0.3,0,0.6,0.3,0.6,0.6C2.9,7.8,2.6,8,2.3,8c0,0,0,0,0,0
			c0,0.2,0.1,0.3,0.2,0.5c0,0,0,0,0,0c0.2-0.2,0.6-0.2,0.8,0c0.2,0.2,0.2,0.6,0,0.8c0.1,0.1,0.3,0.2,0.5,0.2c0-0.3,0.3-0.6,0.6-0.6
			c0.3,0,0.6,0.3,0.6,0.6c0.2,0,0.3-0.1,0.5-0.2c-0.2-0.2-0.2-0.6,0-0.8c0.2-0.2,0.6-0.2,0.8,0C6.3,8.3,6.4,8.2,6.4,8
			C6.1,8,5.8,7.8,5.8,7.5z"/>
		<path class="st0" d="M3.8,9.5L3.8,9.5C3.6,9.5,3.5,9.4,3.3,9.3l0,0l0,0c0.2-0.2,0.2-0.6,0-0.8C3.2,8.4,3.1,8.3,2.9,8.3
			S2.6,8.4,2.5,8.5l0,0l0,0C2.4,8.4,2.4,8.2,2.3,8l0,0h0c0.3,0,0.6-0.2,0.6-0.6S2.6,6.9,2.3,6.9h0l0,0c0-0.2,0.1-0.3,0.2-0.5l0,0
			l0,0c0.2,0.2,0.6,0.2,0.8,0C3.4,6.3,3.5,6.2,3.5,6S3.4,5.7,3.3,5.6l0,0l0,0c0.2-0.1,0.3-0.2,0.5-0.2l0,0l0,0C3.8,5.7,4.1,6,4.4,6
			s0.6-0.2,0.6-0.5l0,0l0,0c0.2,0,0.3,0.1,0.5,0.2l0,0l0,0c-0.2,0.2-0.2,0.6,0,0.8c0.2,0.2,0.6,0.2,0.8,0l0,0l0,0
			c0.1,0.2,0.2,0.3,0.2,0.5l0,0l0,0c-0.3,0-0.5,0.2-0.5,0.6C5.9,7.8,6.1,8,6.4,8l0,0l0,0c0,0.2-0.1,0.3-0.2,0.5l0,0l0,0
			C6,8.3,5.6,8.3,5.4,8.5c-0.2,0.2-0.2,0.6,0,0.8l0,0l0,0C5.3,9.4,5.1,9.5,4.9,9.5l0,0l0,0c0-0.3-0.2-0.5-0.6-0.5
			C4.1,8.9,3.8,9.2,3.8,9.5L3.8,9.5z M3.3,9.3c0.1,0.1,0.3,0.1,0.4,0.2c0-0.3,0.3-0.6,0.6-0.6c0.3,0,0.6,0.2,0.6,0.6
			c0.2,0,0.3-0.1,0.4-0.2c-0.2-0.2-0.2-0.6,0-0.8c0.2-0.2,0.6-0.2,0.8,0C6.3,8.3,6.3,8.2,6.4,8C6.1,8,5.8,7.8,5.8,7.5
			c0-0.3,0.2-0.6,0.6-0.6c0-0.2-0.1-0.3-0.2-0.4C6,6.7,5.6,6.6,5.4,6.4c-0.2-0.2-0.2-0.6,0-0.8C5.2,5.5,5.1,5.5,4.9,5.4
			C4.9,5.7,4.7,6,4.4,6S3.8,5.7,3.8,5.4c-0.2,0-0.3,0.1-0.4,0.2c0.2,0.2,0.2,0.6,0,0.8c-0.2,0.2-0.6,0.2-0.8,0
			C2.4,6.6,2.4,6.7,2.3,6.9c0.3,0,0.6,0.3,0.6,0.6C2.9,7.8,2.7,8,2.3,8c0,0.2,0.1,0.3,0.2,0.4c0.2-0.2,0.6-0.2,0.8,0
			C3.6,8.7,3.6,9.1,3.3,9.3z"/>
	</g>
	<g>
		<path class="st1" d="M10.9,6.3c0-0.6,0.5-1.1,1.1-1.1c-0.1-0.3-0.2-0.6-0.4-0.9c-0.4,0.4-1.1,0.4-1.6,0c-0.4-0.4-0.4-1.1,0-1.6
			C9.8,2.5,9.5,2.4,9.1,2.3c0,0.6-0.5,1.1-1.1,1.1c-0.6,0-1.1-0.5-1.1-1.1C6.6,2.4,6.2,2.5,6,2.7c0,0,0,0,0,0c0.4,0.4,0.4,1.1,0,1.6
			c-0.4,0.4-1.1,0.4-1.6,0C4.2,4.6,4.1,4.9,4,5.2c0,0,0,0,0,0c0.6,0,1.1,0.5,1.1,1.1c0,0.6-0.5,1.1-1.1,1.1c0,0,0,0,0,0
			c0.1,0.3,0.2,0.6,0.4,0.9c0,0,0,0,0,0C4.8,8,5.5,8,6,8.4C6.4,8.8,6.4,9.5,6,10c0.3,0.2,0.6,0.3,0.9,0.4c0-0.6,0.5-1.1,1.1-1.1
			c0.6,0,1.1,0.5,1.1,1.1c0.3-0.1,0.6-0.2,0.9-0.4c-0.4-0.4-0.4-1.1,0-1.6c0.4-0.4,1.1-0.4,1.6,0C11.8,8.1,12,7.8,12,7.4
			C11.4,7.4,10.9,6.9,10.9,6.3z"/>
		<path class="st0" d="M6.9,10.4L6.9,10.4c-0.3-0.1-0.7-0.2-1-0.4l0,0l0,0c0.4-0.4,0.4-1.1,0-1.6C5.5,8,4.8,8,4.4,8.4l0,0l0,0
			C4.2,8.1,4.1,7.8,4,7.5l0,0h0c0.6,0,1.1-0.5,1.1-1.1S4.6,5.2,4,5.2h0l0,0c0.1-0.3,0.2-0.6,0.4-0.9l0,0l0,0c0.4,0.4,1.1,0.4,1.6,0
			c0.4-0.4,0.4-1.1,0-1.6l0,0l0,0c0.3-0.2,0.6-0.3,0.9-0.4l0,0l0,0c0,0.6,0.5,1.1,1.1,1.1s1.1-0.5,1.1-1.1l0,0l0,0
			c0.3,0.1,0.6,0.2,0.9,0.4l0,0l0,0c-0.4,0.4-0.4,1.1,0,1.6c0.4,0.4,1.1,0.4,1.6,0l0,0l0,0c0.2,0.3,0.3,0.6,0.4,0.9l0,0l0,0
			c-0.6,0-1.1,0.5-1.1,1.1c0,0.6,0.5,1.1,1.1,1.1l0,0l0,0c-0.1,0.3-0.2,0.6-0.4,0.9l0,0l0,0c-0.4-0.4-1.1-0.4-1.6,0
			c-0.4,0.4-0.4,1.1,0,1.6l0,0l0,0c-0.3,0.2-0.6,0.3-0.9,0.4l0,0l0,0c0-0.6-0.5-1.1-1.1-1.1C7.4,9.3,6.9,9.8,6.9,10.4L6.9,10.4z
			 M6,10c0.3,0.2,0.6,0.3,0.9,0.4c0-0.6,0.5-1.1,1.1-1.1c0.6,0,1.1,0.5,1.1,1.1c0.3-0.1,0.6-0.2,0.9-0.4c-0.4-0.4-0.4-1.2,0-1.6
			c0.4-0.4,1.1-0.4,1.6,0c0.2-0.3,0.3-0.6,0.4-0.9c-0.6,0-1.1-0.5-1.1-1.1c0-0.6,0.5-1.1,1.1-1.1c-0.1-0.3-0.2-0.6-0.4-0.9
			c-0.4,0.4-1.2,0.4-1.6,0c-0.4-0.4-0.4-1.1,0-1.6C9.8,2.5,9.5,2.4,9.1,2.3c0,0.6-0.5,1.1-1.1,1.1c-0.6,0-1.1-0.5-1.1-1.1
			C6.6,2.4,6.3,2.5,6,2.7c0.4,0.4,0.4,1.2,0,1.6c-0.4,0.4-1.1,0.4-1.6,0C4.2,4.6,4.1,4.9,4,5.2c0.6,0,1.1,0.5,1.1,1.1
			c0,0.6-0.5,1.1-1.1,1.1c0.1,0.3,0.2,0.6,0.4,0.9c0.4-0.4,1.2-0.4,1.6,0C6.4,8.8,6.4,9.5,6,10z"/>
	</g>
	<g>
		<path class="st2" d="M5.2,6.4c0,0,0.4-2.1,2.7-2.2c0,0,2.4-0.1,2.9,2.2c0,0,2.2-0.6,2.5,2c0,0,2,0.1,2.2,2.5c0,0,0.1,2-2.1,2.4
			H2.5c0,0-1.8-0.3-1.9-2.4c0,0,0-2.3,2.2-2.4c0,0,0-1,0.8-1.7C3.5,6.7,4.3,6,5.2,6.4z"/>
		<path class="st0" d="M2.5,13.2c0,0-0.5-0.1-0.9-0.4c-0.4-0.3-1-0.9-1-2c0,0,0-0.6,0.3-1.2C1,9.2,1.6,8.5,2.7,8.4
			c0-0.1,0.1-1,0.8-1.7c0,0,0.8-0.7,1.7-0.3c0-0.1,0.1-0.6,0.5-1C6,4.8,6.7,4.2,8,4.2c0,0,0.6,0,1.3,0.3c0.6,0.2,1.4,0.8,1.6,1.9
			c0.1,0,0.9-0.2,1.6,0.2c0.5,0.3,0.8,0.9,0.9,1.8c0.1,0,0.6,0,1,0.3c0.9,0.5,1.1,1.5,1.2,2.2c0,0,0,0.5-0.2,1.1
			c-0.2,0.5-0.8,1.1-1.9,1.3L2.5,13.2z M4.7,6.3C4,6.3,3.5,6.7,3.5,6.7C2.7,7.4,2.7,8.4,2.7,8.4v0l0,0C1.6,8.5,1.1,9.2,0.8,9.7
			c-0.3,0.6-0.3,1.1-0.3,1.1c0.1,1.1,0.6,1.6,1,2c0.5,0.3,0.9,0.4,0.9,0.4l10.9,0c0.6-0.1,1.5-0.4,1.9-1.3c0.2-0.5,0.2-1,0.2-1
			c0-0.7-0.3-1.6-1.1-2.1c-0.5-0.3-1-0.3-1-0.3l0,0l0,0c-0.1-0.9-0.4-1.5-0.9-1.8c-0.7-0.5-1.6-0.2-1.6-0.2l0,0l0,0
			c-0.2-1.2-1-1.7-1.6-1.9C8.6,4.2,8,4.2,8,4.2C6.7,4.2,6.1,4.8,5.7,5.3c-0.4,0.5-0.5,1-0.5,1.1l0,0l0,0C5,6.3,4.8,6.3,4.7,6.3z"/>
	</g>
	<g>
		<g>
			<circle class="st3" cx="5.2" cy="10.2" r="0.3"/>
			<circle class="st3" cx="11" cy="10.2" r="0.3"/>
		</g>
		<g>
			<circle class="st0" cx="5.4" cy="8.9" r="0.7"/>
			<circle class="st4" cx="5.4" cy="8.8" r="0.2"/>
		</g>
		<g>
			<circle class="st0" cx="10.7" cy="8.9" r="0.7"/>
			<circle class="st4" cx="10.7" cy="8.8" r="0.2"/>
		</g>
		<path class="st0" d="M9.2,10.4c-1.2,1.2-2.3,0-2.3,0s-0.2-0.3-0.4-0.1c0,0-0.2,0.1,0,0.4c0,0,1.4,1.6,3.1,0c0,0,0.2-0.2,0-0.5
			C9.6,10.3,9.5,10.1,9.2,10.4z"/>
	</g>
</g>
</svg>
