<?xml version="1.0" encoding="utf-8"?>
<!-- Generator: Adobe Illustrator 24.0.3, SVG Export Plug-In . SVG Version: 6.00 Build 0)  -->
<svg version="1.1" id="Capa_1" xmlns="http://www.w3.org/2000/svg" xmlns:xlink="http://www.w3.org/1999/xlink" x="0px" y="0px"
	 viewBox="0 0 16 16" style="enable-background:new 0 0 16 16;" xml:space="preserve">
<style type="text/css">
	.st0{fill:#3FA9F5;}
	.st1{fill:#7AC943;}
</style>
<g>
	<path class="st0" d="M10.5,11.4c1.1-0.8,1.7-2.1,1.7-3.4c0-2.3-1.9-4.2-4.2-4.2C7.5,3.8,7.1,3.8,6.7,4c0.9,1,1.3,2.4,1.7,3.9l0,0
		c0,0,0.1,0.4,0.3,1c0.2,0.6,0.5,1.3,0.9,1.8c0.2,0.3,0.5,0.6,0.6,0.7l0,0C10.2,11.3,10.3,11.4,10.5,11.4z"/>
	<path class="st1" d="M3.8,8c0,1.4,0.7,2.6,1.7,3.4c0.3-1.1,0.9-2.1,1.9-4.1C7.3,7.2,7.3,7,7.2,6.9C6.9,6.2,6.5,5.4,6.2,5
		C6,4.8,5.8,4.7,5.6,4.5l0,0C4.4,5.3,3.8,6.6,3.8,8z"/>
	<path class="st1" d="M11.7,12.9L11.7,12.9c-0.6-0.1-1-0.2-1.4-0.3c-2.5,1.2-5.6,0.2-6.8-2.3c-1-2.1-0.5-4.5,1.2-6.1
		C4.4,4.1,4.1,4.1,3.8,4.1C2.3,4.1,0.7,4.9,0,7.1c0,0.1,0,0.1,0,0.2l0,0.1c0,0,0,0.1,0,0.1l0,0.1c0,0.1,0,0.1,0,0.2l0,0.1
		C0,7.9,0,7.9,0,8c0,4.4,3.6,8,8,8h0c0.1,0,0.2,0,0.3,0l0.1,0l0.2,0l0.1,0l0.1,0c0,0,0.1,0,0.1,0c0.1,0,0.2,0,0.3,0c0,0,0.1,0,0.1,0
		l0.1,0l0.1,0c0,0,0.1,0,0.1,0l0.1,0l0.1,0c0,0,0.1,0,0.1,0l0.1,0l0.1,0l0.1,0l0.1,0c0,0,0.1,0,0.1,0l0.1,0l0.1,0l0.1,0l0.1,0l0.1,0
		l0.1-0.1l0.1,0l0.1-0.1l0.1,0c0,0,0.1,0,0.1-0.1l0.1,0l0.1-0.1l0.1,0c0,0,0.1,0,0.1-0.1l0.1,0l0.1-0.1l0.1-0.1l0.1-0.1l0.1,0
		c0,0,0.1-0.1,0.1-0.1l0.1,0l0.1-0.1l0.1,0c0,0,0.1-0.1,0.1-0.1l0,0c0,0,0.1-0.1,0.1-0.1l0,0c0,0,0.1-0.1,0.1-0.1l0,0l0.2-0.2
		l0.1-0.1c0.1-0.1,0.1-0.1,0.2-0.2l0.1-0.1c0,0,0-0.1,0.1-0.1l0.1-0.1l0.1-0.1l0.1-0.1l0.1-0.1l0,0c0.1-0.1,0.1-0.2,0.2-0.3v0
		c-0.8,0.2-1.5,0.3-2.2,0.3C12.1,12.9,11.9,12.9,11.7,12.9z"/>
	<path class="st1" d="M7.7,8.1C7.6,8.3,7.5,8.5,7.4,8.7c-0.3,0.7-0.7,1.6-0.8,2.2c0,0.2-0.1,0.5-0.1,0.7c0,0.1,0,0.2,0,0.3
		c0.9,0.3,1.9,0.3,2.8,0c-0.1-0.1-0.2-0.2-0.3-0.3C8.5,11,8.2,9.9,7.7,8.1L7.7,8.1z"/>
	<path class="st0" d="M8,0L8,0C7.8,0,7.7,0,7.6,0L7.5,0L7.3,0L7.2,0c-0.1,0-0.1,0-0.2,0c0,0-0.1,0-0.1,0c-0.1,0-0.1,0-0.2,0l-0.1,0
		l-0.2,0l-0.1,0l-0.2,0c-0.1,0-0.2,0-0.2,0.1L6,0.3l-0.1,0l-0.1,0c-0.1,0-0.2,0-0.2,0.1l-0.1,0l-0.1,0c-0.1,0-0.1,0-0.2,0.1l-0.1,0
		C5,0.6,5,0.6,4.9,0.6l-0.1,0L4.7,0.7l0,0C4.3,0.9,4,1.1,3.7,1.3l0,0c-0.1,0-0.1,0.1-0.2,0.1l0,0c-0.1,0-0.1,0.1-0.1,0.1l0,0
		L3.1,1.6C3.1,1.7,3,1.7,3,1.8l-0.1,0c0,0-0.1,0.1-0.1,0.1L2.7,2L2.6,2.1l-0.1,0c0,0-0.1,0.1-0.1,0.1l0,0L2.3,2.4l0,0
		c0,0-0.1,0.1-0.1,0.1C2,2.7,2,2.7,1.9,2.8l0,0L1.8,3l0,0c0,0.1-0.1,0.1-0.1,0.2l0,0L1.5,3.3c0.7-0.4,1.4-0.6,2.2-0.6
		c0.9,0,1.7,0.3,2,0.5c0.1,0,0.2,0.1,0.2,0.2c2.6-1.1,5.6,0,6.7,2.6c0.3,0.6,0.4,1.3,0.4,2c0,1.4-0.5,2.7-1.5,3.6c0.2,0,0.5,0,0.7,0
		c0.9,0,1.8-0.2,2.6-0.8c0.5-0.4,0.9-1,1.1-1.8C16,8.7,16,8.3,16,8C16,3.6,12.4,0,8,0z"/>
</g>
</svg>
