<?xml version="1.0" encoding="utf-8"?>
<!-- Generator: Adobe Illustrator 24.0.3, SVG Export Plug-In . SVG Version: 6.00 Build 0)  -->
<svg version="1.1" id="Capa_1" xmlns="http://www.w3.org/2000/svg" xmlns:xlink="http://www.w3.org/1999/xlink" x="0px" y="0px"
	 viewBox="0 0 16 16" style="enable-background:new 0 0 16 16;" xml:space="preserve">
<style type="text/css">
	.st0{fill:#7AC943;}
	.st1{fill:#3FA9F5;}
</style>
<g>
	<path class="st0" d="M4.4,16c-2-0.6-2.9-1.8-2.9-3.8v-1.6C1.5,9.4,1,8.8,0,8.8V7.2c0.9,0,1.4-0.5,1.5-1.6V3.8c0-1,0.2-1.8,0.7-2.4
		S3.4,0.3,4.4,0l0.5,1.3C4.4,1.5,4.1,1.7,3.9,2.1S3.6,3,3.6,3.7v1.7c0,1.2-0.5,2.1-1.5,2.6c1,0.5,1.5,1.4,1.5,2.6v1.7
		c0,1.3,0.5,2.1,1.3,2.3L4.4,16z"/>
	<path class="st0" d="M11.2,14.7c0.8-0.3,1.3-1.1,1.3-2.4v-1.7c0-1.2,0.5-2.1,1.5-2.6c-1-0.5-1.5-1.3-1.5-2.6V3.7
		c0-1.3-0.4-2.1-1.3-2.4L11.6,0c1,0.3,1.7,0.7,2.2,1.3s0.7,1.4,0.7,2.4v1.8c0,1.1,0.5,1.6,1.5,1.6v1.7c-1,0-1.5,0.6-1.5,1.7v1.8
		c0,1.9-1,3.1-2.9,3.7L11.2,14.7z"/>
	<path class="st1" d="M11.2,7.4L6.3,4.3c-0.5-0.3-1.3-0.3-1.9,0v7.5c0.5,0.3,1.3,0.3,1.9,0l4.9-3.2C11.7,8.3,11.7,7.8,11.2,7.4z"/>
</g>
</svg>
