<?xml version="1.0" encoding="utf-8"?>
<!-- Generator: Adobe Illustrator 24.0.3, SVG Export Plug-In . SVG Version: 6.00 Build 0)  -->
<svg version="1.1" id="Capa_1" xmlns="http://www.w3.org/2000/svg" xmlns:xlink="http://www.w3.org/1999/xlink" x="0px" y="0px"
	 viewBox="0 0 16 16" style="enable-background:new 0 0 16 16;" xml:space="preserve">
<style type="text/css">
	.st0{fill:#3FA9F5;}
	.st1{fill:#7AC943;}
</style>
<g>
	<path class="st0" d="M1.6,3.8c0-1.4,0.3-2.4,0.8-3C2.8,0.3,3.6,0,4.7,0c0.5,0,0.9,0.1,1.2,0.2c0.3,0.1,0.6,0.3,0.8,0.5
		s0.4,0.4,0.5,0.6c0.1,0.2,0.2,0.5,0.3,0.8c0.1,0.6,0.2,1.1,0.2,1.7c0,1.4-0.2,2.3-0.7,3C6.5,7.4,5.7,7.7,4.6,7.7
		C4,7.7,3.5,7.6,3.1,7.4s-0.7-0.5-1-0.9C2,6.3,1.8,5.9,1.7,5.4C1.6,4.9,1.6,4.4,1.6,3.8z M3.6,3.8c0,1,0.1,1.6,0.3,1.9
		C4,6.1,4.3,6.3,4.6,6.3c0.2,0,0.4-0.1,0.5-0.2c0.2-0.1,0.3-0.4,0.3-0.7c0.1-0.3,0.1-0.8,0.1-1.5c0-1-0.1-1.7-0.3-2
		C5.2,1.6,4.9,1.4,4.6,1.4C4.3,1.4,4,1.6,3.9,1.9C3.7,2.3,3.6,2.9,3.6,3.8z"/>
	<path class="st0" d="M8.3,12.1c0-1.4,0.3-2.4,0.8-3c0.5-0.6,1.3-0.9,2.3-0.9c0.5,0,0.9,0.1,1.2,0.2c0.3,0.1,0.6,0.3,0.8,0.5
		s0.4,0.4,0.5,0.6c0.1,0.2,0.2,0.5,0.3,0.8c0.1,0.6,0.2,1.1,0.2,1.7c0,1.4-0.2,2.3-0.7,3c-0.5,0.6-1.2,0.9-2.4,0.9
		c-0.6,0-1.1-0.1-1.5-0.3s-0.7-0.5-1-0.9c-0.2-0.3-0.3-0.7-0.4-1.1C8.4,13.2,8.3,12.7,8.3,12.1z M10.4,12.1c0,1,0.1,1.6,0.3,1.9
		c0.2,0.3,0.4,0.5,0.7,0.5c0.2,0,0.4-0.1,0.5-0.2c0.2-0.1,0.3-0.4,0.3-0.7c0.1-0.3,0.1-0.8,0.1-1.5c0-1-0.1-1.7-0.3-2
		c-0.2-0.3-0.4-0.5-0.8-0.5c-0.3,0-0.6,0.2-0.7,0.5C10.5,10.5,10.4,11.2,10.4,12.1z"/>
	<path class="st1" d="M6.8,8.3v7.6H4.7v-5c-0.3,0.3-0.7,0.5-1,0.6C3.4,11.7,3,11.9,2.5,12v-1.7c0.7-0.2,1.3-0.5,1.6-0.8
		C4.5,9.2,4.8,8.8,5,8.3H6.8z"/>
	<path class="st1" d="M13.5,0.1v7.6h-2.1v-5c-0.3,0.3-0.7,0.5-1,0.6c-0.3,0.2-0.7,0.3-1.2,0.5V2.1c0.7-0.2,1.3-0.5,1.6-0.8
		c0.4-0.3,0.7-0.7,0.9-1.2H13.5z"/>
</g>
</svg>
