<?xml version="1.0" encoding="utf-8"?>
<!-- Generator: Adobe Illustrator 24.0.3, SVG Export Plug-In . SVG Version: 6.00 Build 0)  -->
<svg version="1.1" id="Capa_1" xmlns="http://www.w3.org/2000/svg" xmlns:xlink="http://www.w3.org/1999/xlink" x="0px" y="0px"
	 viewBox="0 0 16 16" style="enable-background:new 0 0 16 16;" xml:space="preserve">
<style type="text/css">
	.st0{fill:#FF731E;}
</style>
<g id="layer101_2_">
	<path class="st0" d="M7.3,14.5c-1.1-0.1-2-0.4-2.5-0.8c-0.1-0.1-0.2-0.2-0.5-0.7c-0.3-0.7-0.5-1-1.5-2.6C2.5,9.7,2.1,9,2,8.8
		C1.8,8.6,1.7,8.4,1.7,8.4c0,0-0.1,0.1-0.2,0.3C1.1,9.5,1,10.3,1.4,11c0.2,0.4,0.7,0.9,1.1,1.1c0.3,0.1,0.4,0.2,0.8,0.3
		c0.2,0.1,0.2,0.1,0,0.2c-0.3,0.1-1.2,0.1-1.5,0c-0.9-0.2-1.5-0.8-1.7-1.7c-0.1-0.3-0.1-1,0-1.4c0.2-0.7,0.7-1.4,1.2-1.8l0.1-0.1
		L1.1,7.1C1,6.8,0.9,6.4,0.8,6.1C0.7,5.7,0.6,5,0.7,5c0,0,0.1,0,0.2,0.1c0.3,0.2,0.8,0.4,1.1,0.5c3,1.1,8.1,1.3,11.7,0.3
		c0.8-0.2,1.4-0.4,1.9-0.7C15.8,5.1,16,5,16,5c0.1,0,0,0.7-0.2,1.2c-0.3,1.1-0.7,2-2.1,4.3c-0.8,1.3-1.2,2-1.5,2.6
		c-0.2,0.3-0.3,0.5-0.4,0.6c-0.4,0.3-1.1,0.6-2,0.7C9.3,14.5,7.8,14.5,7.3,14.5z"/>
	<path class="st0" d="M6.9,5.4C4,5.3,1.8,4.7,1,3.9c-0.4-0.4-0.4-0.7-0.1-1C1,2.7,1.4,2.4,1.6,2.4c0.1,0,0.1,0,0,0.1
		C1.4,2.7,1.3,3,1.5,3.2c0.7,1,4.2,1.7,7.8,1.5c2.4-0.1,4.2-0.4,5.2-1c0.7-0.4,0.9-0.7,0.6-1.2c-0.1-0.2-0.1-0.2,0-0.2
		c0.3,0.1,0.7,0.5,0.8,0.7C16,3.3,16,3.5,15.9,3.7c-0.1,0.2-0.3,0.4-0.7,0.5C13.7,5.1,10.2,5.6,6.9,5.4z"/>
	<path class="st0" d="M9.3,3.7C8.8,3.6,8.7,3.4,8.7,3.2c0-0.1,0-0.2,0.1-0.2C8.9,2.9,8.9,2.9,9.2,3c0.6,0.3,1.5,0.3,1.8,0
		c0.2-0.2,0-0.5-0.5-0.7c-0.2-0.1-0.4-0.1-0.8,0C8.9,2.3,8.3,2.5,7,3.1C6,3.6,5.9,3.6,5.3,3.6c-1,0-1.5-0.3-1.6-0.9
		c0-0.6,0.4-0.9,1.4-0.9c0.5,0,0.7,0,0.9,0.2c0.1,0.1,0.1,0.1,0,0.1C6,2.2,5.8,2.2,5.4,2.2c-0.7,0-1,0.1-1,0.3C4.4,2.8,4.8,3,5.2,3
		c0.3,0,0.6-0.1,1.5-0.6c1.1-0.6,1.7-0.8,2.5-0.9c0.7-0.1,1.6,0,2,0.2C11.7,2,12,2.6,11.9,3c-0.1,0.3-0.4,0.6-0.9,0.7
		C10.6,3.7,9.6,3.7,9.3,3.7z"/>
</g>
</svg>
