<?xml version="1.0" encoding="utf-8"?>
<!-- Generator: Adobe Illustrator 24.0.3, SVG Export Plug-In . SVG Version: 6.00 Build 0)  -->
<svg version="1.1" id="Capa_1" xmlns="http://www.w3.org/2000/svg" xmlns:xlink="http://www.w3.org/1999/xlink" x="0px" y="0px"
	 viewBox="0 0 16 16" style="enable-background:new 0 0 16 16;" xml:space="preserve">
<style type="text/css">
	.st0{fill:#3FA9F5;}
	.st1{fill:#FF731E;}
</style>
<g>
	<path class="st0" d="M10.7,9.9c-0.7,1.4-2.2,2.4-3.8,2.4c-2.4,0-4.3-1.9-4.3-4.3c0-2.4,1.9-4.3,4.3-4.3c1.7,0,3.1,1,3.8,2.4L13,4.9
		c-1.1-2.2-3.4-3.8-6.1-3.8C3.1,1.2,0,4.2,0,8c0,3.8,3.1,6.8,6.8,6.8c2.7,0,5-1.5,6.1-3.8L10.7,9.9z"/>
	<path class="st1" d="M9.9,8c0-0.5-0.4-0.9-0.9-0.9H8.2V6.3c0-0.5-0.4-0.9-0.9-0.9c-0.5,0-0.9,0.4-0.9,0.9v0.9H5.6
		C5.2,7.1,4.8,7.5,4.8,8s0.4,0.9,0.9,0.9h0.9v0.9c0,0.5,0.4,0.9,0.9,0.9c0.5,0,0.9-0.4,0.9-0.9V8.9h0.9C9.5,8.9,9.9,8.5,9.9,8z"/>
	<path class="st1" d="M15.1,7.1h-0.9V6.3c0-0.5-0.4-0.9-0.9-0.9s-0.9,0.4-0.9,0.9v0.9h-0.9c-0.5,0-0.9,0.4-0.9,0.9s0.4,0.9,0.9,0.9
		h0.9v0.9c0,0.5,0.4,0.9,0.9,0.9s0.9-0.4,0.9-0.9V8.9h0.9C15.6,8.9,16,8.5,16,8S15.6,7.1,15.1,7.1z"/>
</g>
</svg>
