<?xml version="1.0" encoding="utf-8"?>
<!-- Generator: Adobe Illustrator 24.0.3, SVG Export Plug-In . SVG Version: 6.00 Build 0)  -->
<svg version="1.1" id="Capa_1" xmlns="http://www.w3.org/2000/svg" xmlns:xlink="http://www.w3.org/1999/xlink" x="0px" y="0px"
	 viewBox="0 0 16 16" style="enable-background:new 0 0 16 16;" xml:space="preserve">
<style type="text/css">
	.st0{fill:#7AC943;}
	.st1{fill:#3FA9F5;}
</style>
<g>
	<path class="st0" d="M16,7V6h-1V5h-1v1h-2V5h-1v1h-1v1h1v2h-1v1h1v1h1v-1h2v1h1v-1h1V9h-1V7H16z M14,9h-2V7h2V9z"/>
	<path class="st1" d="M5.5,12C3.6,12,2,10.2,2,8s1.6-4,3.5-4c1.1,0,2,0.6,2.7,1.4L10,4.5C9,3,7.3,2,5.5,2C2.5,2,0,4.7,0,8
		c0,3.3,2.5,6,5.5,6c1.8,0,3.5-1,4.5-2.5l-1.8-0.9C7.5,11.4,6.6,12,5.5,12z"/>
</g>
</svg>
