<?xml version="1.0" encoding="utf-8"?>
<!-- Generator: Adobe Illustrator 24.0.3, SVG Export Plug-In . SVG Version: 6.00 Build 0)  -->
<svg version="1.1" id="Capa_1" xmlns="http://www.w3.org/2000/svg" xmlns:xlink="http://www.w3.org/1999/xlink" x="0px" y="0px"
	 viewBox="0 0 16 16" style="enable-background:new 0 0 16 16;" xml:space="preserve">
<style type="text/css">
	.st0{fill:#7AC943;}
	.st1{fill:#1A1A1A;}
</style>
<g>
	<path class="st0" d="M10.7,9.9c-0.7,1.4-2.2,2.4-3.8,2.4c-2.4,0-4.3-1.9-4.3-4.3c0-2.4,1.9-4.3,4.3-4.3c1.7,0,3.1,1,3.8,2.4L13,4.9
		c-1.1-2.2-3.4-3.8-6.1-3.8C3.1,1.2,0,4.2,0,8c0,3.8,3.1,6.8,6.8,6.8c2.7,0,5-1.5,6.1-3.8L10.7,9.9z"/>
	<path class="st0" d="M8,0v1.3c2.2,0.4,4,1.8,5,3.7l-2.3,1.1C10.1,5,9.2,4.2,8,3.9v8.2c1.2-0.3,2.1-1.1,2.7-2.2l2.3,1.1
		c-1,1.9-2.8,3.3-5,3.7V16h8V0H8z"/>
	<path class="st1" d="M13,11.1l-2.3-1.1C10.1,11,9.2,11.8,8,12.1v2.6C10.2,14.4,12,13,13,11.1z"/>
	<path class="st1" d="M8,1.3v2.6c1.2,0.3,2.1,1.1,2.7,2.2L13,4.9C12,3,10.2,1.6,8,1.3z"/>
</g>
</svg>
