<?xml version="1.0" encoding="utf-8"?>
<!-- Generator: Adobe Illustrator 24.0.3, SVG Export Plug-In . SVG Version: 6.00 Build 0)  -->
<svg version="1.1" id="Capa_1" xmlns="http://www.w3.org/2000/svg" xmlns:xlink="http://www.w3.org/1999/xlink" x="0px" y="0px"
	 viewBox="0 0 16 16" style="enable-background:new 0 0 16 16;" xml:space="preserve">
<style type="text/css">
	.st0{fill:#2A66B0;}
	.st1{fill:#569FD6;}
	.st2{fill:#89C9EE;}
</style>
<g>
	<path class="st0" d="M2.6,2.9l1.3,10.5l-3.4-3.4C0,9.6-0.1,8.8,0.2,8.2L2.6,2.9z"/>
	<path class="st1" d="M9.8,0.6C9.5,0.2,9,0,8.5,0C8.2,0,7.9,0.1,7.6,0.2l-5,2.7v8.6c0,0.4,0.2,0.9,0.5,1.2l0.8,0.8h9.2v-2.1L16,6.7
		L9.8,0.6z"/>
	<path class="st0" d="M2.6,2.9h8.9c0.4,0,0.9,0.2,1.2,0.5L16,6.7v6.7h-2.9L2.6,2.9z"/>
	<polygon class="st2" points="13.1,13.5 3.9,13.5 6.4,16 13.1,16 	"/>
</g>
</svg>
