<?xml version="1.0" encoding="utf-8"?>
<!-- Generator: Adobe Illustrator 24.0.3, SVG Export Plug-In . SVG Version: 6.00 Build 0)  -->
<svg version="1.1" id="Capa_1" xmlns="http://www.w3.org/2000/svg" xmlns:xlink="http://www.w3.org/1999/xlink" x="0px" y="0px"
	 viewBox="0 0 16 16" style="enable-background:new 0 0 16 16;" xml:space="preserve">
<style type="text/css">
	.st0{fill:#333333;}
	.st1{fill:#7AC943;}
	.st2{fill:#926DCC;}
</style>
<g>
	<path class="st0" d="M14.2,0H1.8C0.8,0,0,0.8,0,1.8v12.4c0,1,0.8,1.8,1.8,1.8l0,0h12.4c1,0,1.8-0.8,1.8-1.8l0,0V1.8
		C16,0.8,15.2,0,14.2,0z"/>
	<path class="st1" d="M2.9,10v1.8c0.9,3.2,9.9,2.6,10.2-0.2V9.8C12.7,12.9,3.6,13.1,2.9,10z"/>
	<ellipse class="st2" cx="8" cy="4.4" rx="5.1" ry="2.4"/>
	<path class="st2" d="M2.9,7.5v1.8c0.9,3.2,9.9,2.8,10.3,0V7.6C12.7,10.6,3.6,10.6,2.9,7.5z"/>
	<path class="st1" d="M2.9,5.2V7c0.9,3.2,9.9,2.7,10.3,0V5.2C12.7,8.2,3.6,8.2,2.9,5.2z"/>
</g>
</svg>
