<?xml version="1.0" encoding="utf-8"?>
<!-- Generator: Adobe Illustrator 24.0.3, SVG Export Plug-In . SVG Version: 6.00 Build 0)  -->
<svg version="1.1" id="Capa_1" xmlns="http://www.w3.org/2000/svg" xmlns:xlink="http://www.w3.org/1999/xlink" x="0px" y="0px"
	 viewBox="0 0 16 16" style="enable-background:new 0 0 16 16;" xml:space="preserve">
<style type="text/css">
	.st0{fill:#BDCCD4;}
	.st1{fill:#3FA9F5;}
	.st2{fill:#FF731E;}
</style>
<g>
	<polygon class="st0" points="11.4,4.6 9.1,4.6 9.1,6.1 9.9,6.1 9.9,6.9 11.4,6.9 	"/>
	<path class="st1" d="M9.9,9.9H8.4v1.5h1.5c0.8,0,1.5-0.7,1.5-1.5V8.4H9.9V9.9z"/>
	<path class="st1" d="M1.5,1.5h8.4V3h1.5V1.5c0-0.8-0.7-1.5-1.5-1.5H1.5C0.7,0,0,0.7,0,1.5v8.4c0,0.8,0.7,1.5,1.5,1.5H3V9.9H1.5V1.5
		z"/>
	<polygon class="st0" points="4.6,9.1 4.6,11.4 6.9,11.4 6.9,9.9 6.1,9.9 6.1,9.1 	"/>
	<path class="st2" d="M14.5,4.6H13v1.5h1.5v8.4H6.1V13H4.6v1.5c0,0.8,0.7,1.5,1.5,1.5h8.4c0.8,0,1.5-0.7,1.5-1.5V6.1
		C16,5.2,15.3,4.6,14.5,4.6z"/>
	<path class="st2" d="M7.6,4.6H6.1c-0.8,0-1.5,0.7-1.5,1.5v1.5h1.5V6.1h1.5V4.6z"/>
</g>
</svg>
