<?xml version="1.0" encoding="utf-8"?>
<!-- Generator: Adobe Illustrator 24.0.3, SVG Export Plug-In . SVG Version: 6.00 Build 0)  -->
<svg version="1.1" id="Capa_1" xmlns="http://www.w3.org/2000/svg" xmlns:xlink="http://www.w3.org/1999/xlink" x="0px" y="0px"
	 viewBox="0 0 16 16" style="enable-background:new 0 0 16 16;" xml:space="preserve">
<style type="text/css">
	.st0{fill:#926DCC;}
	.st1{fill:#333333;}
	.st2{fill:#FF731E;}
</style>
<g>
	<path class="st0" d="M14.2,0H1.8C0.8,0,0,0.8,0,1.8v12.4c0,1,0.8,1.8,1.8,1.8l0,0h12.4c1,0,1.8-0.8,1.8-1.8l0,0V1.8
		C16,0.8,15.2,0,14.2,0z"/>
	<path class="st1" d="M2.4,8.6C2.2,8.6,2,8.8,2,9v3.5c0,0.2,0.2,0.4,0.4,0.4h11.2c0.2,0,0.4-0.2,0.4-0.4V9c0-0.2-0.2-0.4-0.4-0.4
		L2.4,8.6L2.4,8.6z M7.3,11.2H3.8c-0.2,0-0.4-0.2-0.4-0.4c0-0.2,0.2-0.4,0.4-0.4h3.5c0.2,0,0.4,0.2,0.4,0.4
		C7.7,11,7.5,11.2,7.3,11.2z M11.1,11c-0.1,0.1-0.2,0.1-0.3,0.1s-0.2,0-0.3-0.1c-0.1-0.1-0.1-0.2-0.1-0.3s0-0.2,0.1-0.3
		c0.1-0.1,0.2-0.1,0.3-0.1s0.2,0,0.3,0.1c0.1,0.1,0.1,0.2,0.1,0.3S11.2,11,11.1,11z M12.5,11c-0.1,0.1-0.2,0.1-0.3,0.1
		s-0.2,0-0.3-0.1c-0.1-0.1-0.1-0.2-0.1-0.3s0-0.2,0.1-0.3c0.1-0.1,0.2-0.1,0.3-0.1s0.2,0,0.3,0.1c0.1,0.1,0.1,0.2,0.1,0.3
		S12.6,11,12.5,11z"/>
	<path class="st2" d="M11.6,8c0.1-0.4,0.2-0.7,0.2-1.2c0-2.1-1.7-3.7-3.7-3.7S4.3,4.8,4.3,6.8c0,0.4,0.1,0.8,0.2,1.2H11.6z M8,5.9
		c0.5,0,0.9,0.4,0.9,0.9S8.5,7.8,8,7.8c-0.5,0-0.9-0.4-0.9-0.9S7.5,5.9,8,5.9z"/>
</g>
</svg>
