<?xml version="1.0" encoding="utf-8"?>
<!-- Generator: Adobe Illustrator 24.0.3, SVG Export Plug-In . SVG Version: 6.00 Build 0)  -->
<svg version="1.1" id="Capa_1" xmlns="http://www.w3.org/2000/svg" xmlns:xlink="http://www.w3.org/1999/xlink" x="0px" y="0px"
	 viewBox="0 0 16 16" style="enable-background:new 0 0 16 16;" xml:space="preserve">
<style type="text/css">
	.st0{opacity:0.4;}
	.st1{fill:#3FA9F5;}
	.st2{fill:#7AC943;}
	.st3{fill:#F2F2F2;}
	.st4{fill:#FF1D25;}
</style>
<g>
	<g class="st0">
		<path class="st1" d="M13.5,5.8c0-1-0.3-1.7-1-2c-0.7,1-0.7,2,0,3c-0.3,0.3-0.8,0.5-1.5,0.5H0c0,3.3,1.7,5,5,5s6.2-1.7,8.5-5
			c1,0,1.8-0.5,2.5-1.5C15.2,5.4,14.3,5.4,13.5,5.8z"/>
		<rect x="5" y="4.2" class="st2" width="2" height="2"/>
		<rect x="2" y="4.2" class="st2" width="2" height="2"/>
		<rect x="5" y="1.2" class="st2" width="2" height="2"/>
		<rect x="8" y="4.2" class="st2" width="2" height="2"/>
		<circle cx="4.5" cy="9.8" r="0.5"/>
		<path class="st3" d="M4.5,9.2c-0.3,0-0.6,0.3-0.6,0.6s0.3,0.6,0.6,0.6s0.6-0.3,0.6-0.6S4.8,9.2,4.5,9.2z M4.5,10.2
			c-0.2,0-0.4-0.2-0.4-0.4s0.2-0.4,0.4-0.4s0.4,0.2,0.4,0.4S4.7,10.2,4.5,10.2z"/>
		<path class="st3" d="M4,10.2l-3.1,0.4c0.8,1.1,2.2,1.6,4.1,1.6c0.3,0,0.6,0,1,0L4,10.2z"/>
	</g>
	<g>
		<circle cx="13" cy="11.8" r="3"/>
		<rect x="11.1" y="10.9" class="st4" width="3.8" height="1.6"/>
	</g>
</g>
</svg>
