<?xml version="1.0" encoding="utf-8"?>
<!-- Generator: Adobe Illustrator 24.0.3, SVG Export Plug-In . SVG Version: 6.00 Build 0)  -->
<svg version="1.1" id="Capa_1" xmlns="http://www.w3.org/2000/svg" xmlns:xlink="http://www.w3.org/1999/xlink" x="0px" y="0px"
	 viewBox="0 0 16 16" style="enable-background:new 0 0 16 16;" xml:space="preserve">
<style type="text/css">
	.st0{fill:#3FA9F5;}
	.st1{fill:#F2F2F2;}
	.st2{fill:#7AC943;}
</style>
<g>
	<g>
		<path class="st0" d="M13.5,8c0-1-0.3-1.7-1-2c-0.7,1-0.7,2,0,3c-0.3,0.3-0.8,0.5-1.5,0.5H0c0,3.3,1.7,5,5,5s6.2-1.7,8.5-5
			c1,0,1.8-0.5,2.5-1.5C15.2,7.7,14.3,7.7,13.5,8z"/>
		<path class="st1" d="M4,12.5l-3.1,0.4C1.7,14,3.1,14.5,5,14.5c0.3,0,0.6,0,1,0L4,12.5z"/>
	</g>
	<g>
		<path class="st0" d="M13.5,7c0-1-0.3-1.7-1-2c-0.7,1-0.7,2,0,3c-0.3,0.3-0.8,0.5-1.5,0.5H0c0,3.3,1.7,5,5,5s6.2-1.7,8.5-5
			c1,0,1.8-0.5,2.5-1.5C15.2,6.7,14.3,6.7,13.5,7z"/>
		<path class="st1" d="M4,11.5l-3.1,0.4C1.7,13,3.1,13.5,5,13.5c0.3,0,0.6,0,1,0L4,11.5z"/>
	</g>
	<g>
		<g>
			<path class="st0" d="M13.5,6c0-1-0.3-1.7-1-2c-0.7,1-0.7,2,0,3c-0.3,0.3-0.8,0.5-1.5,0.5H0c0,3.3,1.7,5,5,5s6.2-1.7,8.5-5
				c1,0,1.8-0.5,2.5-1.5C15.2,5.7,14.3,5.7,13.5,6z"/>
			<path d="M12.5,4.1c0.6,0.3,0.9,0.9,0.9,1.9v0.1l0.1-0.1c0.4-0.2,0.8-0.2,1.2-0.2c0.4,0,0.7,0.1,1.1,0.2c-0.6,0.9-1.4,1.4-2.3,1.4
				h-0.1l0,0c-2.3,3.3-5.1,5-8.4,5c-3.3,0-4.9-1.6-4.9-4.8H11c0.7,0,1.2-0.2,1.6-0.5L12.6,7l0-0.1C12,6,11.9,5.1,12.5,4.1 M12.5,4
				c-0.7,1-0.7,2,0,3c-0.3,0.3-0.8,0.5-1.5,0.5H0c0,3.3,1.7,5,5,5s6.2-1.7,8.5-5c1,0,1.8-0.5,2.5-1.5c-0.4-0.2-0.8-0.2-1.2-0.2
				S13.9,5.8,13.5,6C13.5,5,13.2,4.3,12.5,4L12.5,4z"/>
		</g>
		<path class="st1" d="M4.1,10.4L1,10.8c0.8,1.1,2.2,1.6,4.1,1.6c0.3,0,0.6,0,1,0L4.1,10.4z"/>
	</g>
	<circle cx="4.5" cy="10" r="0.5"/>
	<path class="st1" d="M4.5,9.4c-0.3,0-0.6,0.3-0.6,0.6s0.3,0.6,0.6,0.6s0.6-0.3,0.6-0.6S4.8,9.4,4.5,9.4z M4.5,10.4
		c-0.2,0-0.4-0.2-0.4-0.4s0.2-0.4,0.4-0.4S4.9,9.8,4.9,10S4.7,10.4,4.5,10.4z"/>
	<rect x="5" y="4.5" class="st2" width="2" height="2"/>
	<rect x="2" y="4.5" class="st2" width="2" height="2"/>
	<rect x="2" y="1.5" class="st2" width="2" height="2"/>
	<rect x="5" y="1.5" class="st2" width="2" height="2"/>
	<rect x="8" y="1.5" class="st2" width="2" height="2"/>
	<rect x="8" y="4.5" class="st2" width="2" height="2"/>
</g>
</svg>
