<?xml version="1.0" encoding="utf-8"?>
<!-- Generator: Adobe Illustrator 24.0.3, SVG Export Plug-In . SVG Version: 6.00 Build 0)  -->
<svg version="1.1" id="Capa_1" xmlns="http://www.w3.org/2000/svg" xmlns:xlink="http://www.w3.org/1999/xlink" x="0px" y="0px"
	 viewBox="0 0 16 16" style="enable-background:new 0 0 16 16;" xml:space="preserve">
<style type="text/css">
	.st0{fill:#3FA9F5;}
	.st1{fill:#7AC943;}
	.st2{fill:#F2F2F2;}
</style>
<g>
	<path class="st0" d="M13.5,7c0-1-0.3-1.7-1-2c-0.7,1-0.7,2,0,3c-0.3,0.3-0.8,0.5-1.5,0.5H0c0,3.3,1.7,5,5,5s6.2-1.7,8.5-5
		c1,0,1.8-0.5,2.5-1.5C15.2,6.7,14.3,6.7,13.5,7z"/>
	<rect x="5" y="5.5" class="st1" width="2" height="2"/>
	<rect x="2" y="5.5" class="st1" width="2" height="2"/>
	<rect x="5" y="2.5" class="st1" width="2" height="2"/>
	<rect x="8" y="5.5" class="st1" width="2" height="2"/>
	<circle cx="4.5" cy="11" r="0.5"/>
	<path class="st2" d="M4.5,10.4c-0.3,0-0.6,0.3-0.6,0.6s0.3,0.6,0.6,0.6s0.6-0.3,0.6-0.6S4.8,10.4,4.5,10.4z M4.5,11.4
		c-0.2,0-0.4-0.2-0.4-0.4s0.2-0.4,0.4-0.4s0.4,0.2,0.4,0.4S4.7,11.4,4.5,11.4z"/>
	<path class="st2" d="M4,11.5l-3.1,0.4C1.7,13,3.1,13.5,5,13.5c0.3,0,0.6,0,1,0L4,11.5z"/>
</g>
</svg>
