<?xml version="1.0" encoding="utf-8"?>
<!-- Generator: Adobe Illustrator 24.0.3, SVG Export Plug-In . SVG Version: 6.00 Build 0)  -->
<svg version="1.1" id="Capa_1" xmlns="http://www.w3.org/2000/svg" xmlns:xlink="http://www.w3.org/1999/xlink" x="0px" y="0px"
	 viewBox="0 0 16 16" style="enable-background:new 0 0 16 16;" xml:space="preserve">
<style type="text/css">
	.st0{fill-rule:evenodd;clip-rule:evenodd;fill:#333333;}
	.st1{fill-rule:evenodd;clip-rule:evenodd;fill:#CCCCCC;}
</style>
<g>
	<path class="st0" d="M3.8,9.3c0.2-0.1,0.4-0.5,0.3-0.8C3.8,8.7,3.8,9,3.8,9.3z"/>
	<path class="st0" d="M7.4,10.2c0.2-0.1,0.5-0.4,0.4-0.6C7.5,9.7,7.4,9.9,7.4,10.2z"/>
	<path class="st0" d="M0.4,14.3c0,0.3,0.1,0.7,0.3,0.8c0.8,0.5,3.6,0.1,4.6-0.1c0.5-0.1,0.9-0.5,1.4-0.7c1.1-0.5,1.8-0.8,2.7-1.5
		c0.6-0.5,1.6-1.7,1.7-2.5l-0.8-0.2c0,0.9-0.2,1.1-1,1.3c-0.5,0.1-1.5,0.2-2,0.1c-0.7-0.1-1-0.5-1.3-0.9C5.3,9.8,6,9.2,5.1,9.2
		c-1,1.2-2.8,0.3-3.6,0.2C1.2,9.9,0.4,13,0.4,13.7c0.5-0.2,0.8,0,1.2,0.2c1.5,0.6,0.2,1.1-0.4,1C0.8,14.8,0.7,14.5,0.4,14.3z"/>
	<path class="st0" d="M2.4,7.2C3,7.3,3.6,7.5,4.1,7.8c0.9,0.4,1,0.4,1.1,1c0,0.1,0,0.2,0.3,0.3c0.5,0.2-0.3-0.1,1.1-0.1
		c0.8,0,2.8,0.3,3.4,0.7c0.3,0.2,0.2,0.4,1.1,0.3c0-1-0.3-2.6-0.7-3.5C9.9,5.3,9.3,5.2,8,4.7C7.2,4.5,4.9,4.2,4.2,4.7
		C3.5,5.1,3.4,5.6,2.8,6.4C2.6,6.7,2.5,6.9,2.4,7.2z"/>
	<path class="st0" d="M7.9,9.3c0.5,0.2,0,1.5-0.7,1.2C7,9.9,7.5,9.5,7.6,9.2C7.3,9.2,6.5,9,6.2,9.1C5.9,9.3,5.8,10,6,10.3
		c0.8,1.6,4.3,1.2,4,0C9.8,9.8,9.7,9.7,9.2,9.6C8.8,9.4,8.4,9.3,7.9,9.3z"/>
	<path class="st0" d="M1.6,9.1C2,9.5,2.9,9.6,3.5,9.6c0.1-0.8,0.1-1.4,0.8-1.3c0.3,0.4,0.1,0.9-0.2,1.2c0.5,0,0.9-0.4,0.8-1
		C4.4,8.2,3,7.5,2.3,7.4C2.1,7.6,1.7,8.8,1.6,9.1z"/>
	<path class="st1" d="M0.7,14C1,14,1.9,14.3,2,14.5C1.4,14.6,0.7,14.6,0.7,14z M0.4,14.3c0.2,0.2,0.4,0.4,0.8,0.5
		c0.6,0.2,2-0.4,0.4-1c-0.4-0.2-0.7-0.3-1.2-0.2c0-0.7,0.8-3.9,1.1-4.3c0.8,0.1,2.6,1,3.6-0.2c1,0.1,0.2,0.6,0.8,1.4
		c0.3,0.4,0.6,0.8,1.3,0.9c0.5,0.1,1.5,0.1,2-0.1c0.8-0.2,1-0.4,1-1.3l0.8,0.2c-0.1,0.8-1.1,2-1.7,2.5c-0.9,0.6-1.6,1-2.7,1.5
		c-0.5,0.2-0.9,0.6-1.4,0.7c-1,0.2-3.8,0.6-4.6,0.1C0.5,15,0.4,14.6,0.4,14.3z M7.4,10.2c0-0.3,0.2-0.5,0.4-0.6
		C7.9,9.8,7.6,10.1,7.4,10.2z M7.9,9.3c0.4,0,0.8,0.1,1.3,0.3c0.5,0.2,0.6,0.2,0.8,0.7c0.4,1.2-3.2,1.6-4,0c-0.2-0.3-0.1-1,0.2-1.2
		c0.3-0.1,1.1,0,1.4,0.1C7.5,9.5,7,9.9,7.2,10.5C7.9,10.8,8.4,9.5,7.9,9.3z M3.8,9.3c0-0.3,0-0.7,0.3-0.8C4.3,8.8,4.1,9.2,3.8,9.3z
		 M1.6,9.1c0-0.3,0.5-1.5,0.7-1.7C3,7.5,4.4,8.2,4.9,8.5c0.1,0.6-0.2,1-0.8,1c0.3-0.3,0.5-0.8,0.2-1.2c-0.6,0-0.7,0.5-0.8,1.3
		C2.9,9.6,2,9.5,1.6,9.1z M1.1,8.7C1,8.2,1,7.4,1.7,7.3L1.3,8.5C1.2,8.7,1.2,8.6,1.1,8.7z M2.4,7.2c0.1-0.3,0.2-0.5,0.4-0.7
		c0.6-0.9,0.7-1.4,1.4-1.8c0.7-0.4,3-0.2,3.8,0.1c1.3,0.4,2,0.6,2.5,1.8c0.4,0.9,0.7,2.5,0.7,3.5c-0.9,0-0.8-0.2-1.1-0.3
		C9.4,9.3,7.5,8.9,6.6,8.9C5.2,8.9,6.1,9.2,5.5,9C5.2,8.9,5.2,8.9,5.2,8.8C5.1,8.2,5,8.2,4.1,7.8C3.6,7.5,3,7.3,2.4,7.2z M11.2,6.9
		c-0.1-0.3,0.1-0.3,0.4-0.5c0.2-0.1,0.3-0.3,0.5-0.4c0.8-0.4,2.3-0.5,2.9,0c0.3,0.2,0.7,0.6,0.6,1.2c-0.1,1.1-0.9,1.7-1.5,2.2
		c-0.6,0.5-1.7,1-2.7,0.7c-0.1-0.2,0-1.6-0.1-2.1c-0.1-0.5,0-0.5,0.2-0.8C12.4,6.4,14,5.8,15,6.5c0.4,0.3,0.3,0.4,0.5,0.6
		c0.3-0.3-0.2-1.2-2-1.2C12.3,6,11.8,7,11.2,6.9z M4,4.1C4,3.4,4.6,2,5.3,1.5C6.1,0.9,6.9,0.3,8.1,1c0.3,0.2,0.3,0.2,0.3,0.7
		c0,0.4,0,0.5-0.1,0.9C7.5,5,6.8,3.6,4.3,4.2c0.1-0.8,0.8-1.6,1.2-2c0.7-0.7,1.2-1.1,2.2-1C8,1.7,8,2,7.7,2.6
		C7.2,3.3,7.1,3.3,7.2,3.8C7.5,3.7,7.6,3.3,7.8,3c1-2.1-0.5-2.3-1.3-2c-0.6,0.3-1.7,1.4-2,2.1C4.4,3.3,4.3,3.5,4.2,3.6L4,4.1z
		 M7.9,4.2C8,3.6,8.7,3.4,8.7,1.5c0-0.8-1-1.6-2.3-1C5.2,0.9,5,1.3,4.4,2.2C3.8,3.1,3.8,4,3.3,4.8C3.2,5.1,3.1,5.1,2.9,5.4
		C2.8,5.5,2.7,5.8,2.6,6C2.4,6.3,2.1,6.6,1.9,7.1c-0.6,0-1.1,0-1.2,0.6C0.7,8.6,1.1,8.8,1.1,9.1c0,0.3-1.4,3.8-1,5.9
		c0.1,0.6,0.5,0.6,1.1,0.6c1.4,0.2,3.3,0.1,4.6-0.4l2.3-1.1c0.6-0.3,1.6-1,2-1.4c0.3-0.3,0.5-0.6,0.7-1c0.4-0.5,0.4-0.5,0.5-1.3
		c0.5,0.1,1.4,0.3,1.7,0.6c0,0.3-0.2,0.2-0.2,0.5c0.2,0,0.5-0.2,0.6-0.5c-0.2-0.3-0.4-0.2-0.7-0.5c0.2-0.2,0.7-0.3,1-0.4
		c0.7-0.3,1.9-1.2,2.2-2C16.1,7.5,16,6.4,15.6,6c-0.4-0.4-1.3-0.7-2.1-0.7c-0.9,0-1.8,0.6-2.6,0.9c-0.3-0.2-0.3-0.5-0.5-0.8
		C10.2,5.1,8.7,4.3,7.9,4.2z"/>
	<path class="st0" d="M11.2,6.9c0.5,0,1-0.9,2.2-0.9c1.8-0.1,2.3,0.9,2,1.2c-0.2-0.2-0.1-0.3-0.5-0.6c-1-0.7-2.6-0.1-3.4,0.7
		c-0.3,0.3-0.3,0.3-0.2,0.8c0.1,0.5,0,1.9,0.1,2.1c1.1,0.3,2.1-0.2,2.7-0.7c0.6-0.5,1.4-1.1,1.5-2.2c0.1-0.5-0.4-1-0.6-1.2
		c-0.6-0.5-2.1-0.5-2.9,0c-0.2,0.1-0.4,0.2-0.5,0.4C11.3,6.6,11.2,6.6,11.2,6.9z"/>
	<path class="st0" d="M4,4.1l0.2-0.4c0.1-0.2,0.1-0.3,0.2-0.5c0.3-0.7,1.4-1.9,2-2.1c0.9-0.4,2.3-0.1,1.3,2C7.6,3.3,7.5,3.7,7.2,3.8
		c-0.1-0.5,0-0.5,0.5-1.2C8,2,8,1.7,7.7,1.3c-1-0.1-1.5,0.3-2.2,1c-0.4,0.4-1.1,1.1-1.2,2c2.5-0.6,3.2,0.9,4-1.7
		C8.4,2.2,8.4,2,8.4,1.6c0-0.4,0-0.5-0.3-0.7c-1.2-0.7-2-0.1-2.8,0.5C4.6,2,4,3.4,4,4.1z"/>
	<path class="st0" d="M1.1,8.7c0.1-0.1,0.1,0,0.2-0.3l0.4-1.1C1,7.4,1,8.2,1.1,8.7z"/>
	<path class="st0" d="M2,14.5C1.9,14.3,1,14,0.7,14C0.7,14.6,1.4,14.6,2,14.5z"/>
</g>
</svg>
