<?xml version="1.0" encoding="utf-8"?>
<!-- Generator: Adobe Illustrator 24.0.3, SVG Export Plug-In . SVG Version: 6.00 Build 0)  -->
<svg version="1.1" id="Capa_1" xmlns="http://www.w3.org/2000/svg" xmlns:xlink="http://www.w3.org/1999/xlink" x="0px" y="0px"
	 viewBox="0 0 16 16" style="enable-background:new 0 0 16 16;" xml:space="preserve">
<style type="text/css">
	.st0{fill:#333333;}
	.st1{fill:#7AC943;}
	.st2{fill:#FF731E;}
	.st3{fill:#3FA9F5;}
</style>
<g>
	<path class="st0" d="M15,16H1c-0.6,0-1-0.4-1-1V1c0-0.6,0.4-1,1-1h14c0.6,0,1,0.4,1,1v14C16,15.6,15.6,16,15,16z"/>
	<g>
		<path class="st1" d="M7.2,10.7c-0.3-0.2-0.7-0.3-1-0.3c-0.4,0-0.7,0.1-1,0.3c-0.3,0.2-0.5,0.5-0.7,0.9H2v1.2h2.5
			c0.1,0.4,0.4,0.7,0.7,0.9c0.3,0.2,0.7,0.3,1,0.3c0.4,0,0.7-0.1,1-0.3c0.3-0.2,0.5-0.5,0.7-0.9H14v-1.2H7.9
			C7.8,11.2,7.5,10.9,7.2,10.7z"/>
		<path class="st2" d="M10.8,6.5c-0.3-0.2-0.7-0.3-1-0.3c-0.4,0-0.7,0.1-1,0.3S8.2,7,8.1,7.4H2v1.2h6.1C8.2,9,8.5,9.3,8.8,9.5
			c0.3,0.2,0.7,0.3,1,0.3c0.4,0,0.7-0.1,1-0.3c0.3-0.2,0.5-0.5,0.7-0.9H14V7.4h-2.5C11.4,7,11.1,6.7,10.8,6.5z"/>
		<path class="st3" d="M7.9,3.2C7.8,2.8,7.5,2.5,7.2,2.3C6.9,2.1,6.6,2,6.2,2c-0.4,0-0.7,0.1-1,0.3C4.9,2.5,4.6,2.8,4.5,3.2H2v1.2
			h2.5c0.1,0.4,0.4,0.7,0.7,0.9c0.3,0.2,0.7,0.3,1,0.3c0.4,0,0.7-0.1,1-0.3c0.3-0.2,0.5-0.5,0.7-0.9H14V3.2H7.9z"/>
	</g>
</g>
</svg>
