<?xml version="1.0" encoding="utf-8"?>
<!-- Generator: Adobe Illustrator 24.0.3, SVG Export Plug-In . SVG Version: 6.00 Build 0)  -->
<svg version="1.1" id="Capa_1" xmlns="http://www.w3.org/2000/svg" xmlns:xlink="http://www.w3.org/1999/xlink" x="0px" y="0px"
	 viewBox="0 0 16 16" style="enable-background:new 0 0 16 16;" xml:space="preserve">
<style type="text/css">
	.st0{fill:#FF7BAC;}
	.st1{fill:#7AC943;}
	.st2{fill:#3FA9F5;}
	.st3{opacity:0.5;fill:#BDCCD4;}
</style>
<g>
	<rect x="7.6" y="4" class="st0" width="0.9" height="0.9"/>
	<rect x="1.8" y="11.1" class="st1" width="0.9" height="0.9"/>
	<rect x="13.3" y="11.1" class="st2" width="0.9" height="0.9"/>
	<path class="st3" d="M15.1,0H0.9C0.4,0,0,0.4,0,0.9v14.2C0,15.6,0.4,16,0.9,16h14.2c0.5,0,0.9-0.4,0.9-0.9V0.9
		C16,0.4,15.6,0,15.1,0z M15.1,12.4c0,0.2-0.2,0.4-0.4,0.4h-1.8c-0.2,0-0.4-0.2-0.4-0.4v-1.8c0-0.2,0.2-0.4,0.4-0.4h0.4
		C13.2,9,12.8,7.8,12,6.9C11.3,6,10.4,5.4,9.3,5.1v0.3c0,0.2-0.2,0.4-0.4,0.4H7.1c-0.2,0-0.4-0.2-0.4-0.4V5.1C5.6,5.4,4.7,6,4,6.9
		c-0.8,1-1.2,2.1-1.3,3.3h0.4c0.2,0,0.4,0.2,0.4,0.4v1.8c0,0.2-0.2,0.4-0.4,0.4H1.3c-0.2,0-0.4-0.2-0.4-0.4v-1.8
		c0-0.2,0.2-0.4,0.4-0.4h0.5c0.1-1.4,0.6-2.8,1.5-3.9c0.5-0.6,1-1,1.6-1.4H2.2C2,4.9,1.8,4.7,1.8,4.4C1.8,4.2,2,4,2.2,4h4.4V3.6
		c0-0.2,0.2-0.4,0.4-0.4h1.8c0.2,0,0.4,0.2,0.4,0.4V4h4.4c0.2,0,0.4,0.2,0.4,0.4c0,0.2-0.2,0.4-0.4,0.4h-2.7
		c0.6,0.4,1.2,0.9,1.6,1.4c0.9,1.1,1.4,2.5,1.5,3.9h0.5c0.2,0,0.4,0.2,0.4,0.4V12.4z"/>
</g>
</svg>
