<?xml version="1.0" encoding="utf-8"?>
<!-- Generator: Adobe Illustrator 24.0.3, SVG Export Plug-In . SVG Version: 6.00 Build 0)  -->
<svg version="1.1" id="Capa_1" xmlns="http://www.w3.org/2000/svg" xmlns:xlink="http://www.w3.org/1999/xlink" x="0px" y="0px"
	 viewBox="0 0 16 16" style="enable-background:new 0 0 16 16;" xml:space="preserve">
<style type="text/css">
	.st0{fill:#CCCCCC;}
	.st1{fill:#4D4D4D;}
</style>
<g>
	<g>
		<path id="_x30_2_21_" class="st0" d="M10.4,0H3.7c-1.1,0-2,0.9-2,2v12c0,1.1,0.9,2,2,2h8.7c1.1,0,2-0.9,2-2V3.9L10.4,0z"/>
		<g>
			<path id="_x30_2_20_" class="st1" d="M10.1,0.7l3.5,3.5V14c0,0.7-0.6,1.3-1.3,1.3H3.7c-0.7,0-1.3-0.6-1.3-1.3V2
				c0-0.7,0.6-1.3,1.3-1.3H10.1 M10.4,0H3.7c-1.1,0-2,0.9-2,2v12c0,1.1,0.9,2,2,2h8.7c1.1,0,2-0.9,2-2V3.9L10.4,0L10.4,0z"/>
			<path id="_x30_2_19_" class="st1" d="M10.2,2V0l4.1,4.1h-2C11.2,4.1,10.2,3.2,10.2,2z"/>
		</g>
	</g>
	<g>
		<polygon class="st1" points="7.3,6.2 4.5,6.6 4.5,9 7.3,9 		"/>
		<polygon class="st1" points="7.7,6.2 7.7,9 11.5,8.9 11.5,5.6 		"/>
		<polygon class="st1" points="4.5,11.6 7.3,12 7.4,9.3 4.5,9.3 		"/>
		<polygon class="st1" points="7.7,12.1 11.5,12.6 11.5,9.3 7.7,9.3 		"/>
	</g>
</g>
</svg>
