<?xml version="1.0" encoding="utf-8"?>
<!-- Generator: Adobe Illustrator 24.0.3, SVG Export Plug-In . SVG Version: 6.00 Build 0)  -->
<svg version="1.1" id="Capa_1" xmlns="http://www.w3.org/2000/svg" xmlns:xlink="http://www.w3.org/1999/xlink" x="0px" y="0px"
	 viewBox="0 0 16 16" style="enable-background:new 0 0 16 16;" xml:space="preserve">
<style type="text/css">
	.st0{fill:#7AC943;}
	.st1{fill:#926DCC;}
	.st2{fill:#FF1D25;}
	.st3{fill:#FF7BAC;}
	.st4{fill:#3FA9F5;}
</style>
<title>Figma.logo</title>
<desc>Created using Figma</desc>
<g>
	<path id="path0_fill" class="st0" d="M5.3,16C6.8,16,8,14.8,8,13.3v-2.7H5.3c-1.5,0-2.7,1.2-2.7,2.7S3.9,16,5.3,16z"/>
	<path id="path1_fill" class="st1" d="M2.7,8c0-1.5,1.2-2.7,2.7-2.7H8v5.3H5.3C3.9,10.7,2.7,9.5,2.7,8z"/>
	<path id="path1_fill_1_" class="st2" d="M2.7,2.7C2.7,1.2,3.9,0,5.3,0H8v5.3H5.3C3.9,5.3,2.7,4.1,2.7,2.7z"/>
	<path id="path2_fill" class="st3" d="M8,0h2.7c1.5,0,2.7,1.2,2.7,2.7s-1.2,2.7-2.7,2.7H8V0z"/>
	<path id="path3_fill" class="st4" d="M13.3,8c0,1.5-1.2,2.7-2.7,2.7S8,9.5,8,8s1.2-2.7,2.7-2.7S13.3,6.5,13.3,8z"/>
</g>
</svg>
