<?xml version="1.0" encoding="utf-8"?>
<!-- Generator: Adobe Illustrator 24.0.3, SVG Export Plug-In . SVG Version: 6.00 Build 0)  -->
<svg version="1.1" id="Capa_1" xmlns="http://www.w3.org/2000/svg" xmlns:xlink="http://www.w3.org/1999/xlink" x="0px" y="0px"
	 viewBox="0 0 16 16" style="enable-background:new 0 0 16 16;" xml:space="preserve">
<style type="text/css">
	.st0{fill:#FFC24A;}
	.st1{fill-rule:evenodd;clip-rule:evenodd;fill:#FFA712;}
	.st2{fill:#F4BD62;}
	.st3{fill-rule:evenodd;clip-rule:evenodd;fill:#FFA50E;}
	.st4{fill:#F6820C;}
	.st5{fill:#FDE068;}
	.st6{fill:#FCCA3F;}
	.st7{fill:#EEAB37;}
</style>
<g>
	<path class="st0" d="M2.2,12.9l0.1-0.1l4.6-8.7l0-0.1l-2-3.8C4.7-0.1,4.2,0,4.1,0.3L2.2,12.9z"/>
	<path id="path-1_4_" class="st1" d="M2.2,12.8l0.1-0.1l4.5-8.6l-2-3.8C4.7-0.1,4.2,0,4.2,0.4L2.2,12.8z"/>
	<path class="st2" d="M8.3,6.9l1.5-1.5L8.3,2.5c-0.1-0.3-0.5-0.3-0.7,0L6.8,4v0.1L8.3,6.9z"/>
	<path id="path-3_4_" class="st3" d="M8.3,6.8l1.5-1.5L8.3,2.5c-0.1-0.3-0.5-0.3-0.6,0L6.9,4l0,0.1L8.3,6.8z"/>
	<polygon class="st4" points="2.2,12.9 2.2,12.9 2.4,12.8 8.2,7 8.3,6.8 6.9,4 	"/>
	<path class="st5" d="M8.5,15.9l5.3-3l-1.5-9.3c0-0.3-0.4-0.4-0.6-0.2l-9.5,9.5l5.3,2.9C7.8,16,8.2,16,8.5,15.9"/>
	<path class="st6" d="M13.8,12.9l-1.5-9.3c0-0.3-0.3-0.4-0.6-0.2l-9.5,9.5l5.2,2.9c0.3,0.2,0.7,0.2,1.1,0L13.8,12.9z"/>
	<path class="st7" d="M8.5,15.8c-0.3,0.2-0.7,0.2-1.1,0l-5.2-2.9l0,0l5.3,2.9C7.8,16,8.2,16,8.5,15.8l5.3-2.9l0-0.1L8.5,15.8z"/>
</g>
</svg>
