<?xml version="1.0" encoding="utf-8"?>
<!-- Generator: Adobe Illustrator 24.0.3, SVG Export Plug-In . SVG Version: 6.00 Build 0)  -->
<svg version="1.1" id="Capa_1" xmlns="http://www.w3.org/2000/svg" xmlns:xlink="http://www.w3.org/1999/xlink" x="0px" y="0px"
	 viewBox="0 0 16 16" style="enable-background:new 0 0 16 16;" xml:space="preserve">
<style type="text/css">
	.st0{opacity:0.5;fill:#BDCCD4;}
	.st1{fill:#3FA9F5;}
</style>
<g>
	<path class="st0" d="M15.1,0H0.9C0.4,0,0,0.4,0,0.9v14.2C0,15.6,0.4,16,0.9,16h14.2c0.5,0,0.9-0.4,0.9-0.9V0.9
		C16,0.4,15.6,0,15.1,0z M13.5,4.4c0.3-0.1,0.6,0,0.7,0.2c0.2,0.3,0.3,0.7,0.5,1.1c0.1,0.3-0.1,0.6-0.3,0.7
		c-0.3,0.1-0.6-0.1-0.7-0.3c-0.1-0.3-0.2-0.6-0.4-0.9C13.2,4.9,13.3,4.6,13.5,4.4z M8.8,0.9C9.2,1,9.6,1,10,1.1
		c0.3,0.1,0.5,0.4,0.4,0.7c-0.1,0.3-0.4,0.5-0.7,0.4C9.3,2.1,9,2,8.7,2v0C8.4,2,8.2,1.7,8.2,1.4C8.3,1.1,8.5,0.9,8.8,0.9z M5.5,1.3
		C5.8,1.2,6.2,1.1,6.6,1c0,0,0,0,0,0c0.3-0.1,0.6,0.1,0.6,0.4C7.3,1.7,7.1,2,6.8,2.1C6.5,2.1,6.1,2.2,5.8,2.3c-0.1,0-0.1,0-0.2,0
		C5.4,2.4,5.2,2.2,5.1,2C5,1.7,5.2,1.4,5.5,1.3z M2.7,3.3C2.9,3,3.2,2.7,3.5,2.5c0.2-0.2,0.6-0.2,0.8,0.1c0.2,0.2,0.2,0.6-0.1,0.8
		C3.9,3.5,3.7,3.7,3.5,4C3.3,4.2,2.9,4.2,2.7,4c0,0,0,0,0,0C2.5,3.8,2.5,3.5,2.7,3.3z M1.1,6.3c0.1-0.4,0.2-0.7,0.4-1.1
		c0.1-0.3,0.4-0.4,0.7-0.3s0.4,0.4,0.3,0.7C2.3,5.9,2.2,6.2,2.1,6.5c0,0,0,0,0,0C2.1,6.8,1.8,7,1.5,6.9C1.2,6.9,1,6.6,1.1,6.3z
		 M1.1,9.7C1,9.3,0.9,8.9,0.9,8.6c0,0,0,0,0,0C0.9,8.2,1.1,8,1.4,8C1.7,7.9,2,8.2,2,8.5c0,0.3,0.1,0.6,0.2,1C2.2,9.7,2,10,1.7,10.1
		C1.4,10.2,1.1,10,1.1,9.7z M3.4,12.7c-0.2,0.2-0.6,0.2-0.8,0c-0.3-0.3-0.5-0.6-0.7-0.9c0,0,0,0,0,0c-0.2-0.3-0.1-0.6,0.2-0.8
		c0.3-0.2,0.6-0.1,0.8,0.2c0.2,0.3,0.4,0.5,0.6,0.8C3.7,12.2,3.7,12.5,3.4,12.7z M6.2,14.3c-0.1,0.3-0.4,0.4-0.7,0.3
		c-0.4-0.1-0.7-0.3-1-0.5c-0.3-0.2-0.4-0.5-0.2-0.7C4.4,13.1,4.7,13,5,13.2c0.3,0.2,0.6,0.3,0.9,0.4C6.1,13.7,6.3,14,6.2,14.3z
		 M6.3,10.7c-0.3,0-0.5-0.2-0.5-0.5V5.8c0-0.2,0.1-0.4,0.3-0.5c0.2-0.1,0.4-0.1,0.5,0L11,7.5c0.1,0.1,0.2,0.1,0.2,0.2
		c0.1,0.3,0,0.6-0.2,0.7l-4.4,2.2C6.5,10.7,6.4,10.7,6.3,10.7z M8.9,15c-0.3,0-0.6,0.1-0.9,0.1c-0.1,0-0.2,0-0.3,0
		c-0.3,0-0.5-0.3-0.5-0.6c0-0.3,0.3-0.5,0.6-0.5c0.3,0,0.6,0,1,0c0.3,0,0.6,0.2,0.6,0.5C9.4,14.7,9.2,15,8.9,15z M12,13.8
		c-0.3,0.2-0.6,0.4-1,0.6c0,0,0,0,0,0c-0.3,0.1-0.6,0-0.7-0.3c-0.1-0.3,0-0.6,0.3-0.7c0.3-0.1,0.6-0.3,0.8-0.5c0,0,0,0,0,0
		c0.3-0.2,0.6-0.1,0.8,0.1C12.4,13.3,12.3,13.7,12,13.8z M12.2,3.6c-0.2-0.2-0.5-0.4-0.8-0.6v0c-0.2-0.2-0.3-0.5-0.1-0.8
		C11.4,2,11.8,1.9,12,2.1c0.3,0.2,0.6,0.5,0.9,0.7c0.2,0.2,0.2,0.5,0,0.8C12.7,3.8,12.4,3.8,12.2,3.6z M14.3,11.3
		c-0.2,0.3-0.4,0.7-0.6,1c0,0,0,0,0,0c-0.2,0.2-0.5,0.3-0.8,0.1c-0.2-0.2-0.3-0.5-0.1-0.8c0.2-0.3,0.4-0.5,0.5-0.8
		c0.1-0.3,0.5-0.4,0.7-0.2c0,0,0,0,0,0C14.3,10.7,14.4,11,14.3,11.3z M15.1,8C15.1,8,15.1,8,15.1,8c0,0.4,0,0.8-0.1,1.1
		c0,0.3-0.3,0.5-0.6,0.5c-0.3,0-0.5-0.3-0.5-0.6C14,8.6,14,8.3,14,8v0c0-0.3,0.2-0.5,0.5-0.5C14.9,7.4,15.1,7.7,15.1,8L15.1,8z"/>
	<polygon class="st1" points="6.9,9.3 9.5,8 6.9,6.7 	"/>
</g>
</svg>
