<?xml version="1.0" encoding="utf-8"?>
<!-- Generator: Adobe Illustrator 24.0.3, SVG Export Plug-In . SVG Version: 6.00 Build 0)  -->
<svg version="1.1" id="Capa_1" xmlns="http://www.w3.org/2000/svg" xmlns:xlink="http://www.w3.org/1999/xlink" x="0px" y="0px"
	 viewBox="0 0 16 16" style="enable-background:new 0 0 16 16;" xml:space="preserve">
<style type="text/css">
	.st0{opacity:0.4;}
	.st1{fill:#FF731E;}
	.st2{fill:#FFFFFF;}
	.st3{fill:#FF1D25;}
</style>
<g>
	<g class="st0">
		<path class="st1" d="M15.7,7.3l-7-7c-0.4-0.4-1.1-0.4-1.5,0c0,0,0,0,0,0L5.8,1.8l1.8,1.8C8.3,3.4,9,3.7,9.2,4.4
			c0.1,0.3,0.1,0.5,0,0.8L11,6.9c0.6-0.2,1.3,0.1,1.6,0.8c0.2,0.6-0.1,1.3-0.8,1.6c-0.6,0.2-1.3-0.1-1.6-0.8c-0.1-0.3-0.1-0.6,0-0.9
			L8.6,6v4.4c0.6,0.3,0.9,1,0.6,1.6s-1,0.9-1.6,0.6c-0.6-0.3-0.9-1-0.6-1.6c0.1-0.3,0.4-0.5,0.6-0.6V5.9c-0.6-0.3-0.9-1-0.7-1.6
			c0,0,0,0,0,0L5.1,2.5L0.3,7.3c-0.4,0.4-0.4,1.1,0,1.5c0,0,0,0,0,0l7,7c0.4,0.4,1.1,0.4,1.5,0c0,0,0,0,0,0l7-7
			C16.1,8.3,16.1,7.7,15.7,7.3C15.7,7.3,15.7,7.3,15.7,7.3"/>
		<path class="st2" d="M5.8,1.8l1.8,1.8C8.3,3.4,9,3.7,9.2,4.4c0.1,0.3,0.1,0.5,0,0.8L11,6.9c0.6-0.2,1.3,0.1,1.6,0.8
			c0.2,0.6-0.1,1.3-0.8,1.6c-0.6,0.2-1.3-0.1-1.6-0.8c-0.1-0.3-0.1-0.6,0-0.9L8.6,6v4.4c0.6,0.3,0.9,1,0.6,1.6s-1,0.9-1.6,0.6
			c-0.6-0.3-0.9-1-0.6-1.6c0.1-0.3,0.4-0.5,0.6-0.6V5.9c-0.6-0.3-0.9-1-0.7-1.6c0,0,0,0,0,0L5.1,2.5"/>
	</g>
	<g>
		<circle cx="13" cy="13" r="3"/>
		<rect x="11.1" y="12.2" class="st3" width="3.8" height="1.6"/>
	</g>
</g>
</svg>
