<?xml version="1.0" encoding="utf-8"?>
<!-- Generator: Adobe Illustrator 24.0.3, SVG Export Plug-In . SVG Version: 6.00 Build 0)  -->
<svg version="1.1" id="Capa_1" xmlns="http://www.w3.org/2000/svg" xmlns:xlink="http://www.w3.org/1999/xlink" x="0px" y="0px"
	 viewBox="0 0 16 16" style="enable-background:new 0 0 16 16;" xml:space="preserve">
<style type="text/css">
	.st0{fill:#F67F0B;}
	.st1{fill:#250806;}
	.st2{fill:#FBFEFA;}
</style>
<g>
	<path class="st0" d="M14.4,5.5C14.4,5.5,14.4,5.5,14.4,5.5l0-3l-2.9,1c0,0,0,0,0,0c-1-0.4-2.2-0.6-3.5-0.6c-1.2,0-2.4,0.2-3.4,0.6
		c0,0,0,0,0,0L1.5,2.6v3.1C0.9,6.5,0.6,7.3,0.6,8.3c0,3,3.3,5.4,7.4,5.4s7.4-2.4,7.4-5.4C15.4,7.3,15,6.3,14.4,5.5z"/>
	<path class="st1" d="M14.4,2.6v3c0,0,0,0,0,0c0.7,0.8,1,1.7,1,2.7c0,3-3.3,5.4-7.4,5.4s-7.4-2.4-7.4-5.4c0-0.9,0.3-1.8,0.9-2.6V2.6
		l3.1,0.9c0,0,0,0,0,0c1-0.4,2.2-0.6,3.4-0.6c1.3,0,2.5,0.2,3.5,0.6c0,0,0,0,0,0L14.4,2.6 M15,1.8L14.2,2l-2.7,0.9
		C10.4,2.5,9.2,2.3,8,2.3c-1.2,0-2.3,0.2-3.4,0.6L1.7,2L0.9,1.8v0.8v2.9C0.3,6.4,0,7.3,0,8.3c0,0.8,0.2,1.6,0.7,2.4
		c0.4,0.7,1,1.3,1.8,1.9c1.5,1.1,3.5,1.7,5.6,1.7s4.1-0.6,5.6-1.7c0.7-0.5,1.3-1.2,1.8-1.9C15.8,9.9,16,9.1,16,8.3c0-1-0.4-2-1-2.9
		V2.6V1.8L15,1.8z"/>
	<ellipse class="st2" cx="8" cy="9.3" rx="5.9" ry="4.1"/>
	<path class="st1" d="M8,5.2c3.3,0,5.9,1.8,5.9,4.1s-2.7,4.1-5.9,4.1s-5.9-1.8-5.9-4.1S4.7,5.2,8,5.2 M8,4.8c-1.7,0-3.3,0.5-4.5,1.3
		C2.9,6.5,2.5,7,2.1,7.5C1.8,8.1,1.6,8.7,1.6,9.3c0,0.6,0.2,1.3,0.5,1.8c0.3,0.5,0.8,1,1.4,1.4c1.2,0.8,2.8,1.3,4.5,1.3
		s3.3-0.5,4.5-1.3c0.6-0.4,1.1-0.9,1.4-1.4c0.4-0.6,0.5-1.2,0.5-1.8c0-0.6-0.2-1.3-0.5-1.8c-0.3-0.5-0.8-1-1.4-1.4
		C11.3,5.2,9.7,4.8,8,4.8L8,4.8z"/>
	<g>
		<g>
			<circle class="st2" cx="4.6" cy="8.8" r="1.3"/>
			<path class="st1" d="M4.6,7.6c0.7,0,1.3,0.6,1.3,1.3s-0.6,1.3-1.3,1.3S3.3,9.6,3.3,8.8S3.9,7.6,4.6,7.6 M4.6,7.2
				c-0.9,0-1.7,0.8-1.7,1.7s0.8,1.7,1.7,1.7s1.7-0.8,1.7-1.7S5.5,7.2,4.6,7.2L4.6,7.2z"/>
			<g>
				<circle class="st1" cx="4.6" cy="8.9" r="0.9"/>
			</g>
			<g>
				<circle class="st2" cx="4.2" cy="8.5" r="0.2"/>
			</g>
		</g>
		<g>
			<circle class="st2" cx="11.4" cy="8.8" r="1.3"/>
			<path class="st1" d="M11.4,7.6c0.7,0,1.3,0.6,1.3,1.3s-0.6,1.3-1.3,1.3s-1.3-0.6-1.3-1.3S10.7,7.6,11.4,7.6 M11.4,7.2
				c-0.9,0-1.7,0.8-1.7,1.7s0.8,1.7,1.7,1.7s1.7-0.8,1.7-1.7S12.3,7.2,11.4,7.2L11.4,7.2z"/>
			<g>
				<circle class="st1" cx="11.4" cy="8.9" r="0.9"/>
			</g>
			<g>
				<circle class="st2" cx="11" cy="8.5" r="0.2"/>
			</g>
		</g>
		<path class="st1" d="M8.1,12c-0.2,0-0.5,0-0.7-0.1c-0.6-0.2-1.1-0.6-1.1-0.6c-0.1-0.1-0.1-0.3,0-0.4c0.1-0.1,0.3-0.1,0.4,0l0,0
			c0,0,0.4,0.3,0.9,0.5c0.7,0.2,1.3,0,1.8-0.5c0.1-0.1,0.3-0.1,0.4,0c0.1,0.1,0.1,0.3,0,0.4C9.2,11.8,8.7,12,8.1,12z"/>
	</g>
</g>
</svg>
