<?xml version="1.0" encoding="utf-8"?>
<!-- Generator: Adobe Illustrator 24.0.3, SVG Export Plug-In . SVG Version: 6.00 Build 0)  -->
<svg version="1.1" id="Capa_1" xmlns="http://www.w3.org/2000/svg" xmlns:xlink="http://www.w3.org/1999/xlink" x="0px" y="0px"
	 viewBox="0 0 16 16" style="enable-background:new 0 0 16 16;" xml:space="preserve">
<style type="text/css">
	.st0{fill:#F2F2F2;}
	.st1{fill:#7AC943;}
</style>
<g>
	<rect y="9" class="st0" width="2" height="1"/>
	<rect y="7" class="st0" width="2" height="1"/>
	<rect y="5" class="st0" width="2" height="1"/>
	<path class="st1" d="M15.1,4h-4.1L10,4.9v6.1l0.9,0.9h4.1l0.9-0.9V4.9L15.1,4z M14.5,10.4L14.5,10.4l-2.9,0.1l-0.1-0.1V5.6l0.1-0.1
		h2.9l0.1,0.1V10.4z"/>
	<polygon class="st1" points="3.9,4 3,4.9 3,11.1 3.9,12 8.1,12 9,11.1 9,7.5 6,7.5 6,9 7.5,9 7.5,10.4 7.4,10.5 4.6,10.5 4.5,10.4 
		4.5,5.6 4.6,5.5 7.4,5.5 7.5,5.6 7.5,6 9,6 9,4.9 8.1,4 	"/>
</g>
</svg>
