<?xml version="1.0" encoding="utf-8"?>
<!-- Generator: Adobe Illustrator 24.0.3, SVG Export Plug-In . SVG Version: 6.00 Build 0)  -->
<svg version="1.1" id="Capa_1" xmlns="http://www.w3.org/2000/svg" xmlns:xlink="http://www.w3.org/1999/xlink" x="0px" y="0px"
	 viewBox="0 0 16 16" style="enable-background:new 0 0 16 16;" xml:space="preserve">
<style type="text/css">
	.st0{fill:#FF7BAC;}
</style>
<g>
	<g>
		<g>
			<rect x="-1.4" y="6" transform="matrix(0.5 -0.866 0.866 0.5 -2.9293 7.6429)" class="st0" width="13.1" height="0.7"/>
		</g>
	</g>
	<g>
		<g>
			<rect x="1.5" y="10.9" class="st0" width="13.1" height="0.7"/>
		</g>
	</g>
	<g>
		<g>
			<rect x="4.8" y="9.1" transform="matrix(0.5 -0.866 0.866 0.5 -8.6171 10.9285)" class="st0" width="0.7" height="7.6"/>
		</g>
	</g>
	<g>
		<g>
			<rect x="10.5" y="-0.7" transform="matrix(0.5 -0.866 0.866 0.5 2.7564 10.9282)" class="st0" width="0.7" height="7.6"/>
		</g>
	</g>
	<g>
		<g>
			<rect x="1.4" y="2.7" transform="matrix(0.866 -0.5 0.5 0.866 -0.8462 2.9909)" class="st0" width="7.6" height="0.7"/>
		</g>
	</g>
	<g>
		<g>
			<rect x="10.5" y="-0.2" transform="matrix(0.866 -0.5 0.5 0.866 -1.726 6.2755)" class="st0" width="0.7" height="13.1"/>
		</g>
	</g>
	<g>
		<g>
			<rect x="2" y="4.2" class="st0" width="0.7" height="7.6"/>
		</g>
	</g>
	<g>
		<g>
			<rect x="13.3" y="4.2" class="st0" width="0.7" height="7.6"/>
		</g>
	</g>
	<g>
		<g>
			<rect x="7.6" y="12.6" transform="matrix(0.866 -0.5 0.5 0.866 -5.0091 7.1528)" class="st0" width="6.6" height="0.6"/>
		</g>
	</g>
	<path class="st0" d="M14.9,12c-0.4,0.7-1.3,0.9-1.9,0.5c-0.7-0.4-0.9-1.3-0.5-1.9c0.4-0.7,1.3-0.9,1.9-0.5
		C15.1,10.4,15.3,11.3,14.9,12"/>
	<path class="st0" d="M3.5,5.4C3.2,6.1,2.3,6.3,1.6,5.9C0.9,5.6,0.7,4.7,1.1,4S2.3,3.1,3,3.5C3.7,3.9,3.9,4.7,3.5,5.4"/>
	<path class="st0" d="M1.1,12c-0.4-0.7-0.2-1.6,0.5-1.9c0.7-0.4,1.6-0.2,1.9,0.5c0.4,0.7,0.2,1.6-0.5,1.9C2.3,12.9,1.5,12.7,1.1,12"
		/>
	<path class="st0" d="M12.5,5.4c-0.4-0.7-0.2-1.6,0.5-1.9c0.7-0.4,1.6-0.2,1.9,0.5c0.4,0.7,0.2,1.6-0.5,1.9
		C13.7,6.3,12.8,6.1,12.5,5.4"/>
	<path class="st0" d="M8,16c-0.8,0-1.4-0.6-1.4-1.4c0-0.8,0.6-1.4,1.4-1.4s1.4,0.6,1.4,1.4C9.4,15.4,8.8,16,8,16"/>
	<path class="st0" d="M8,2.9c-0.8,0-1.4-0.6-1.4-1.4S7.2,0,8,0s1.4,0.6,1.4,1.4S8.8,2.9,8,2.9"/>
</g>
</svg>
