<?xml version="1.0" encoding="utf-8"?>
<!-- Generator: Adobe Illustrator 24.0.3, SVG Export Plug-In . SVG Version: 6.00 Build 0)  -->
<svg version="1.1" id="Capa_1" xmlns="http://www.w3.org/2000/svg" xmlns:xlink="http://www.w3.org/1999/xlink" x="0px" y="0px"
	 viewBox="0 0 16 16" style="enable-background:new 0 0 16 16;" xml:space="preserve">
<style type="text/css">
	.st0{fill:#FFFFFF;}
	.st1{fill:#3FA9F5;}
</style>
<g>
	<path class="st0" d="M3.1,15.7c0,0,0.1-0.5,0.2-1c0.1-0.6,0.3-1.7,0.4-2.5c0.1-0.8,0.3-1.6,0.3-1.7l0-0.2l-2-2c-1.1-1.1-2-2-2-2
		c0,0,0.1,0,0.3-0.1c1.8-0.3,2.4-0.4,3.6-0.5c0.7-0.1,1.4-0.2,1.4-0.2c0.1,0,0.4-0.5,0.6-0.9C7.5,1.3,8,0.3,8,0.3
		c0,0,0.2,0.4,0.4,0.8L8.8,2l0.4,0c0.4,0,0.4,0,0.6,0.1c0.4,0.2,0.6,0.4,0.7,0.9c0.1,0.2,0.1,0.3,0.1,0.9c0,0.5,0,0.7-0.1,1.1
		c0,0.2-0.1,0.4,0,0.4c0,0,0.4,0.1,0.9,0.2c0.8,0.1,1.4,0.2,3.8,0.6C15.6,6.1,16,6.2,16,6.2c0,0-0.6,0.6-2.9,2.9l-1.1,1l0.1,0.8
		c0.1,0.7,0.3,1.7,0.6,3.9c0.2,0.9,0.2,0.9,0.1,0.9c0,0-0.4-0.2-0.9-0.5c-0.5-0.3-1.4-0.7-2-1.1l-1.2-0.6l-0.5,0.1
		C7.2,14,6.7,14,6.5,14c-0.1,0-0.1,0-0.7,0.3C3.6,15.4,3.1,15.7,3.1,15.7C3.1,15.7,3.1,15.7,3.1,15.7z"/>
	<path class="st1" d="M3.1,15.7c0,0,0.1-0.5,0.2-1c0.1-0.6,0.3-1.7,0.4-2.5c0.1-0.8,0.3-1.6,0.3-1.7l0-0.2l-2-2c-1.1-1.1-2-2-2-2
		c0,0,0.1,0,0.3-0.1c1.8-0.3,2.4-0.4,3.6-0.5c0.7-0.1,1.4-0.2,1.4-0.2c0.1,0,0.4-0.5,0.6-0.9C7.5,1.3,8,0.3,8,0.3
		c0,0,0.2,0.4,0.4,0.8L8.8,2l0.4,0c0.4,0,0.4,0,0.6,0.1c0.4,0.2,0.6,0.4,0.7,0.9c0.1,0.2,0.1,0.3,0.1,0.9c0,0.5,0,0.7-0.1,1.1
		c0,0.2-0.1,0.4,0,0.4c0,0,0.4,0.1,0.9,0.2c0.8,0.1,1.4,0.2,3.8,0.6C15.6,6.1,16,6.2,16,6.2c0,0-0.6,0.6-2.9,2.9l-1.1,1l0.1,0.8
		c0.1,0.7,0.3,1.7,0.6,3.9c0.2,0.9,0.2,0.9,0.1,0.9c0,0-0.4-0.2-0.9-0.5c-0.5-0.3-1.4-0.7-2-1.1l-1.2-0.6l-0.5,0.1
		C7.2,14,6.7,14,6.5,14c-0.1,0-0.1,0-0.7,0.3C3.6,15.4,3.1,15.7,3.1,15.7C3.1,15.7,3.1,15.7,3.1,15.7z M7.4,13.2
		c2.1-0.5,3.2-1.1,3.6-1.9c0.4-0.7,0.3-1.6-0.3-3.3c-0.2-0.7-0.4-1.3-0.4-1.7c0-0.2,0-0.3-0.1-0.4L10.2,6l-0.1,0.1
		C10,6.3,9.8,6.5,9.7,7.1C9.3,8.3,8.3,9.3,7.4,9.4c-0.2,0-0.7,0-0.9-0.1C6.2,9.2,5.8,8.7,5.7,8.3C5.6,8,5.6,7.5,5.7,7.1
		c0.2-1,0.9-2.1,2-3.2c0.7-0.7,1.1-1,1.4-1c0.3,0,0.4,0.3,0.4,0.9c0,0.8-0.3,1.8-0.7,2.6C8.4,7.1,8.1,7.4,7.9,7.4
		c-0.2,0-0.3-0.2-0.3-0.6c0-0.3,0.1-0.6,0.2-1C8,5.5,8,5.4,8,5.1C8,4.8,8,4.6,7.8,4.5C7.6,4.4,7.3,4.8,7,5.4
		C6.6,6.1,6.5,6.5,6.5,7.1c0,0.6,0,0.7,0.5,0.9c0.1,0.1,0.2,0.1,0.4,0.1c0.4,0,0.8-0.2,1.2-0.6C8.8,7.3,9,7.1,9.1,6.9
		c0.4-0.6,0.7-1.3,0.8-2c0.1-0.3,0.1-0.5,0.1-1c0-0.8,0-0.9-0.2-1.1C9.6,2.6,9.2,2.5,8.9,2.7C8.1,3,6.2,5,5.3,6.7
		C5,7.1,4.9,7.4,4.8,7.7C4.7,8.1,4.7,8.7,5,9.1c0.1,0.2,0.5,0.6,0.7,0.7C6,9.9,6.3,10,6.8,10c0.3,0,0.5,0,0.7-0.1
		c0.6-0.2,1-0.4,1.5-0.9c0.3-0.3,0.5-0.6,0.9-1.1c0.1-0.2,0.3-0.4,0.3-0.4c0.1,0,0,1,0,1.3c-0.2,0.6-0.6,1.1-1.5,1.5
		c-0.5,0.2-0.9,0.4-2.1,0.8c-0.6,0.2-1.1,0.4-1.1,0.4c-0.1,0.1,0.7,1.3,1.2,1.7C6.7,13.4,6.7,13.4,7.4,13.2z"/>
</g>
</svg>
