<?xml version="1.0" encoding="utf-8"?>
<!-- Generator: Adobe Illustrator 24.0.3, SVG Export Plug-In . SVG Version: 6.00 Build 0)  -->
<svg version="1.1" id="Capa_1" xmlns="http://www.w3.org/2000/svg" xmlns:xlink="http://www.w3.org/1999/xlink" x="0px" y="0px"
	 viewBox="0 0 16 16" style="enable-background:new 0 0 16 16;" xml:space="preserve">
<style type="text/css">
	.st0{fill-rule:evenodd;clip-rule:evenodd;fill:#FF731E;}
</style>
<path class="st0" d="M5.7,6.1c-1.8,0-2.8,2.3-3.9,2.3c-0.7,0-0.8-0.5-0.8-0.6c0-0.2,0.2-0.5,0.4-0.5c0.4,0,0.3,0.5,0.3,0.5
	s0.5-0.4,0.2-0.9C1.6,6.5,1,6.5,0.6,6.8C0.2,7.1-0.1,7.6,0,8.4c0.1,0.4,0.3,0.9,0.8,1.2c0.5,0.3,1.3,0.4,1.6,0.4
	c1.5,0,2.9-1.1,4.4-1.6c0.4-0.1,0.7-0.1,1-0.1c0.1,0,0.7,0,1.3,0.2c1.5,0.5,3,1.6,4.4,1.6c0.3,0,1.1-0.1,1.6-0.4
	c0.5-0.3,0.8-0.8,0.8-1.2c0.1-0.8-0.2-1.2-0.6-1.5c-0.4-0.3-1-0.3-1.3,0.1c-0.4,0.5,0.2,0.9,0.2,0.9s-0.1-0.5,0.3-0.5
	c0.2,0,0.4,0.2,0.4,0.5c0,0.2-0.1,0.6-0.8,0.6c-1.1,0-2-2.3-3.9-2.3C8.6,6.1,8.3,6.8,8,7.2c0,0,0,0,0,0c0,0,0,0,0,0
	C7.7,6.8,7.4,6.1,5.7,6.1L5.7,6.1z"/>
</svg>
