<?xml version="1.0" encoding="utf-8"?>
<!-- Generator: Adobe Illustrator 24.0.3, SVG Export Plug-In . SVG Version: 6.00 Build 0)  -->
<svg version="1.1" id="Capa_1" xmlns="http://www.w3.org/2000/svg" xmlns:xlink="http://www.w3.org/1999/xlink" x="0px" y="0px"
	 viewBox="0 0 16 16" style="enable-background:new 0 0 16 16;" xml:space="preserve">
<style type="text/css">
	.st0{fill:#3FA9F5;}
</style>
<g>
	<polygon class="st0" points="4.3,11.4 3.2,11.4 3.2,8.6 1.1,8.6 1.1,11.4 0,11.4 0,4.6 1.1,4.6 1.1,7.3 3.2,7.3 3.2,4.6 4.3,4.6 	
		"/>
	<polygon class="st0" points="8.4,11.4 5.4,11.4 5.4,4.6 6.6,4.6 6.6,10.2 8.4,10.2 	"/>
	<path class="st0" d="M8.8,11.1V9.6C9,9.8,9.2,10,9.5,10.1c0.2,0.1,0.5,0.2,0.7,0.2c0.1,0,0.2,0,0.4-0.1c0.1,0,0.2-0.1,0.3-0.1
		C10.9,10.1,11,10,11,9.9C11,9.8,11,9.7,11,9.6c0-0.1,0-0.2-0.1-0.4c-0.1-0.1-0.1-0.2-0.2-0.3c-0.1-0.1-0.2-0.2-0.3-0.3
		c-0.1-0.1-0.3-0.2-0.4-0.3C9.6,8.3,9.3,8,9.1,7.7C8.9,7.3,8.8,6.9,8.8,6.5c0-0.3,0-0.6,0.2-0.9C9.1,5.4,9.2,5.1,9.4,5
		C9.6,4.8,9.8,4.7,10,4.6c0.2-0.1,0.5-0.1,0.7-0.1c0.2,0,0.5,0,0.7,0.1c0.2,0,0.4,0.1,0.6,0.2v1.4C11.9,6.1,11.8,6,11.7,6
		c-0.1-0.1-0.2-0.1-0.3-0.1c-0.1,0-0.2-0.1-0.3-0.1c-0.1,0-0.2,0-0.3,0c-0.1,0-0.2,0-0.3,0c-0.1,0-0.2,0.1-0.3,0.1
		c-0.1,0.1-0.1,0.1-0.2,0.2C10,6.2,10,6.3,10,6.4c0,0.1,0,0.2,0.1,0.3c0,0.1,0.1,0.2,0.2,0.3c0.1,0.1,0.2,0.2,0.3,0.2
		c0.1,0.1,0.2,0.2,0.4,0.2c0.2,0.1,0.4,0.2,0.5,0.4c0.2,0.1,0.3,0.3,0.4,0.4c0.1,0.2,0.2,0.4,0.3,0.6c0.1,0.2,0.1,0.5,0.1,0.7
		c0,0.3,0,0.7-0.2,1c-0.1,0.2-0.2,0.5-0.4,0.6c-0.2,0.2-0.4,0.3-0.6,0.3c-0.2,0.1-0.5,0.1-0.8,0.1c-0.3,0-0.5,0-0.8-0.1
		C9.2,11.4,9,11.3,8.8,11.1z"/>
	<polygon class="st0" points="16,11.4 13,11.4 13,4.6 14.2,4.6 14.2,10.2 16,10.2 	"/>
</g>
</svg>
