<?xml version="1.0" encoding="utf-8"?>
<!-- Generator: Adobe Illustrator 24.0.3, SVG Export Plug-In . SVG Version: 6.00 Build 0)  -->
<svg version="1.1" id="Capa_1" xmlns="http://www.w3.org/2000/svg" xmlns:xlink="http://www.w3.org/1999/xlink" x="0px" y="0px"
	 viewBox="0 0 16 16" style="enable-background:new 0 0 16 16;" xml:space="preserve">
<style type="text/css">
	.st0{fill:#FF731E;}
	.st1{fill:#FFFFFF;}
</style>
<g>
	<path class="st0" d="M2.2,14.4L1,0H15l-1.3,14.4L8,16"/>
	<polygon class="st1" points="8,2.9 8,2.9 3.6,2.9 3.6,3.4 4,8.3 8,8.3 8,8.3 10.2,8.3 10,10.6 8,11.1 6,10.6 5.9,9.2 5,9.2 
		4.1,9.2 4.4,11.9 8,12.9 8,12.9 8,12.9 11.6,11.9 11.6,11.6 12,7 12.1,6.5 11.6,6.5 8,6.5 8,6.5 5.7,6.5 5.5,4.7 8,4.7 8,4.7 
		12.3,4.7 12.3,4.3 12.4,3.4 12.4,2.9 	"/>
</g>
</svg>
