<?xml version="1.0" encoding="utf-8"?>
<!-- Generator: Adobe Illustrator 24.0.3, SVG Export Plug-In . SVG Version: 6.00 Build 0)  -->
<svg version="1.1" id="Capa_1" xmlns="http://www.w3.org/2000/svg" xmlns:xlink="http://www.w3.org/1999/xlink" x="0px" y="0px"
	 viewBox="0 0 16 16" style="enable-background:new 0 0 16 16;" xml:space="preserve">
<style type="text/css">
	.st0{fill:#3FA9F5;}
	.st1{fill:#7AC943;}
</style>
<g>
	<path class="st0" d="M14.4,2.8H1.6C0.7,2.8,0,3.5,0,4.4v7.3c0,0.9,0.7,1.6,1.6,1.6h12.8c0.9,0,1.6-0.7,1.6-1.6V4.4
		C16,3.5,15.3,2.8,14.4,2.8z M14.7,3.7c0.2,0,0.4,0.2,0.4,0.4s-0.2,0.4-0.4,0.4s-0.4-0.2-0.4-0.4S14.5,3.7,14.7,3.7z M13.4,3.7
		c0.2,0,0.4,0.2,0.4,0.4s-0.2,0.4-0.4,0.4S13,4.3,13,4.1S13.2,3.7,13.4,3.7z M12.1,3.7c0.2,0,0.4,0.2,0.4,0.4s-0.2,0.4-0.4,0.4
		c-0.2,0-0.4-0.2-0.4-0.4S11.9,3.7,12.1,3.7z M15.3,11.6c0,0.5-0.4,0.9-0.9,0.9H1.5c-0.5,0-0.9-0.4-0.9-0.9V5.1h14.7V11.6z"/>
	<g>
		<path class="st1" d="M3.5,10H3V8.9H1.9V10H1.3V7.3h0.6v1.1H3V7.3h0.6V10z"/>
		<path class="st1" d="M6.1,7.7H5.2V10H4.7V7.7H3.8V7.3h2.3V7.7z"/>
		<path class="st1" d="M8.5,7.7H7.7V10H7.1V7.7H6.3V7.3h2.3V7.7z"/>
		<path class="st1" d="M9.4,9.1v1H8.9V7.3H10c0.2,0,0.4,0,0.6,0.1c0.2,0.1,0.3,0.2,0.4,0.3C11,7.8,11,8,11,8.2
			c0,0.3-0.1,0.5-0.3,0.6s-0.4,0.2-0.8,0.2H9.4z M9.4,8.6H10c0.2,0,0.3,0,0.3-0.1c0.1-0.1,0.1-0.2,0.1-0.3c0-0.1,0-0.2-0.1-0.3
			c-0.1-0.1-0.2-0.1-0.3-0.1H9.4V8.6z"/>
		<path class="st1" d="M11.4,8.2c0-0.1,0-0.2,0.1-0.2c0.1-0.1,0.1-0.1,0.2-0.1c0.1,0,0.2,0,0.2,0.1C12,8,12,8.1,12,8.2
			c0,0.1,0,0.2-0.1,0.2c-0.1,0.1-0.1,0.1-0.2,0.1c-0.1,0-0.2,0-0.2-0.1C11.4,8.4,11.4,8.3,11.4,8.2z M11.4,9.8c0-0.1,0-0.2,0.1-0.2
			s0.1-0.1,0.2-0.1c0.1,0,0.2,0,0.2,0.1C12,9.6,12,9.7,12,9.8c0,0.1,0,0.2-0.1,0.2s-0.1,0.1-0.2,0.1c-0.1,0-0.2,0-0.2-0.1
			S11.4,9.9,11.4,9.8z"/>
		<path class="st1" d="M12.6,10.3h-0.4l1-3h0.4L12.6,10.3z"/>
		<path class="st1" d="M13.6,10.3h-0.4l1-3h0.4L13.6,10.3z"/>
	</g>
</g>
</svg>
