<?xml version="1.0" encoding="utf-8"?>
<!-- Generator: Adobe Illustrator 24.0.3, SVG Export Plug-In . SVG Version: 6.00 Build 0)  -->
<svg version="1.1" id="Capa_1" xmlns="http://www.w3.org/2000/svg" xmlns:xlink="http://www.w3.org/1999/xlink" x="0px" y="0px"
	 viewBox="0 0 16 16" style="enable-background:new 0 0 16 16;" xml:space="preserve">
<style type="text/css">
	.st0{fill:#7AC943;}
	.st1{opacity:0.5;fill:#BDCCD4;}
	.st2{fill:#FF731E;}
</style>
<g>
	<path class="st0" d="M11.7,10.7c-0.4-0.6-0.6-1.2-0.6-1.9c0-0.6,0.2-1.2,0.6-1.8c0.1-0.2,0.3-0.4,0.6-0.7C12.1,6.1,12,6,11.8,5.9
		c-0.6-0.4-1.3-0.6-2.5-0.2C8.7,5.9,8.4,6,8.1,6C7.9,6,7.5,5.9,6.9,5.7C6.4,5.6,6,5.5,5.7,5.5c-0.7,0-1.3,0.3-1.8,0.9
		C3.4,7.1,3.1,8,3.1,9c0,1.1,0.4,2.3,1.1,3.6c0.7,1.1,1.3,1.7,1.9,1.7c0.1,0,0.4,0,0.9-0.2c0.4-0.2,0.9-0.3,1.2-0.3
		c0.4,0,0.8,0.1,1.3,0.3c0.5,0.2,0.8,0.2,0.9,0.2c0.5,0,1-0.4,1.6-1.3l0,0c0.3-0.5,0.6-1,0.8-1.4C12.4,11.4,12,11.1,11.7,10.7z"/>
	<path class="st1" d="M15.1,0H0.9C0.4,0,0,0.4,0,0.9v14.2C0,15.6,0.4,16,0.9,16h14.2c0.5,0,0.9-0.4,0.9-0.9V0.9
		C16,0.4,15.6,0,15.1,0z M8,4.2C8,3.4,8.2,2.6,8.7,2l0,0c0.5-0.7,1.3-1.1,2.2-1.1h0.4l0,0.4c0,1-0.2,1.7-0.8,2.4
		C9.8,4.5,9,4.6,8.4,4.6H8V4.2z M13.6,11.5c-0.2,0.6-0.5,1.3-1,2c-0.7,1.1-1.5,1.7-2.3,1.7c-0.3,0-0.7-0.1-1.2-0.3
		c-0.4-0.2-0.7-0.2-1-0.2c-0.2,0-0.6,0.1-0.9,0.2c-0.5,0.2-0.9,0.3-1.2,0.3c-0.9,0-1.8-0.7-2.6-2.1c-0.8-1.4-1.2-2.7-1.2-4
		c0-1.2,0.3-2.3,0.9-3.1c0.6-0.8,1.5-1.2,2.5-1.2c0.4,0,0.9,0.1,1.5,0.2C7.8,5.1,8,5.2,8.1,5.2c0.2,0,0.5-0.1,1-0.2
		c1.5-0.5,2.4-0.3,3.3,0.3c0.3,0.2,0.5,0.4,0.9,0.8l0.3,0.3l-0.3,0.3c-0.4,0.4-0.7,0.6-0.8,0.8C12.1,7.8,12,8.3,12,8.8
		c0,0.5,0.2,1,0.4,1.4c0.3,0.4,0.6,0.7,0.9,0.8l0.4,0.1L13.6,11.5z"/>
	<path class="st2" d="M10.5,1.8C10,1.8,9.6,2.1,9.3,2.5C9.1,2.8,8.9,3.3,8.9,3.7c0.4-0.1,0.7-0.2,1-0.6C10.2,2.7,10.4,2.3,10.5,1.8z
		"/>
</g>
</svg>
