<?xml version="1.0" encoding="utf-8"?>
<!-- Generator: Adobe Illustrator 24.0.3, SVG Export Plug-In . SVG Version: 6.00 Build 0)  -->
<svg version="1.1" id="Capa_1" xmlns="http://www.w3.org/2000/svg" xmlns:xlink="http://www.w3.org/1999/xlink" x="0px" y="0px"
	 viewBox="0 0 16 16" style="enable-background:new 0 0 16 16;" xml:space="preserve">
<style type="text/css">
	.st0{fill:#99B8C4;}
</style>
<path class="st0" d="M12.2,12.8l0.5-0.5c2.4,0.1,2.4,0,2.5-0.3l0.7-1.6l0-0.2l-0.1-0.1c0-0.1-0.1-0.3-1.6-1.7V7.7
	c1.7-1.7,1.7-1.7,1.6-2l-0.7-1.6c-0.1-0.2-0.1-0.3-2.5-0.3l-0.5-0.5c0.1-0.8,0-1.6-0.1-2.3L12,0.8l-1.7-0.7C10.1,0,10-0.1,8.4,1.7
	l-0.7,0C6-0.1,5.9-0.1,5.7,0L4.1,0.7C3.8,0.8,3.8,0.8,3.8,3.2L3.3,3.7C1,3.6,0.9,3.7,0.8,4L0.2,5.6L0.1,5.7l0.1,0.1
	c0,0.1,0.1,0.3,1.6,1.7v0.7c-1.7,1.7-1.7,1.7-1.6,2l0.7,1.6c0.1,0.2,0.1,0.3,2.5,0.3l0.5,0.5c-0.1,0.8,0,1.6,0.1,2.3L4,15.2l1.7,0.7
	C6,16,6,16.1,7.6,14.3l0.7,0c1.7,1.8,1.7,1.7,2,1.6l1.6-0.6C12.2,15.2,12.3,15.2,12.2,12.8z M5.4,9.1C4.8,7.6,5.5,6,7,5.4
	c1.5-0.6,3.1,0.2,3.7,1.6c0.6,1.4-0.2,3.1-1.6,3.6C7.6,11.3,6,10.5,5.4,9.1z"/>
</svg>
