<?xml version="1.0" encoding="utf-8"?>
<!-- Generator: Adobe Illustrator 24.0.3, SVG Export Plug-In . SVG Version: 6.00 Build 0)  -->
<svg version="1.1" id="Capa_1" xmlns="http://www.w3.org/2000/svg" xmlns:xlink="http://www.w3.org/1999/xlink" x="0px" y="0px"
	 viewBox="0 0 16 16" style="enable-background:new 0 0 16 16;" xml:space="preserve">
<style type="text/css">
	.st0{fill:#333333;}
	.st1{fill:#7AC943;}
</style>
<g>
	<path class="st0" d="M14.2,0H1.8C0.8,0,0,0.8,0,1.8v12.4c0,1,0.8,1.8,1.8,1.8l0,0h12.4c1,0,1.8-0.8,1.8-1.8l0,0V1.8
		C16,0.8,15.2,0,14.2,0z"/>
	<g>
		<path class="st1" d="M8,2C4.7,2,2,4.7,2,8c0,3.3,2.7,6,6,6c3.3,0,6-2.7,6-6C14,4.7,11.3,2,8,2z M8,13.3c-2.9,0-5.3-2.4-5.3-5.3
			c0-2.9,2.4-5.3,5.3-5.3s5.3,2.4,5.3,5.3C13.3,10.9,10.9,13.3,8,13.3z"/>
		<path class="st1" d="M8,6.6C7.2,6.6,6.6,7.2,6.6,8c0,0.8,0.6,1.4,1.4,1.4S9.4,8.8,9.4,8C9.4,7.2,8.8,6.6,8,6.6z M8,8.7
			C7.6,8.7,7.3,8.4,7.3,8c0-0.4,0.3-0.7,0.7-0.7c0.4,0,0.7,0.3,0.7,0.7S8.4,8.7,8,8.7z"/>
		<path class="st1" d="M3.7,8.4c0.1,0,0.2-0.1,0.2-0.2c0-0.1,0-0.1,0-0.2c0-0.1-0.1-0.2-0.2-0.2C3.6,7.8,3.5,7.9,3.5,8
			c0,0.1,0,0.2,0,0.2C3.5,8.3,3.6,8.4,3.7,8.4C3.7,8.4,3.7,8.4,3.7,8.4z"/>
		<path class="st1" d="M6,11.6C4.9,11,4.1,9.9,3.9,8.7c0-0.1-0.1-0.2-0.2-0.2c-0.1,0-0.2,0.1-0.2,0.2c0.2,1.3,1,2.5,2.2,3.2
			c0,0,0.1,0,0.1,0c0.1,0,0.1,0,0.2-0.1C6.1,11.8,6,11.7,6,11.6z"/>
		<path class="st1" d="M5.6,10.4c0,0,0.1,0,0.1-0.1c0.1-0.1,0.1-0.2,0-0.3C5.2,9.6,5,9,5,8.3c0-0.1-0.1-0.2-0.2-0.2
			c-0.1,0-0.2,0.1-0.2,0.2c0,0.8,0.3,1.5,0.9,2.1C5.5,10.4,5.5,10.4,5.6,10.4z"/>
		<path class="st1" d="M6.3,10.6c-0.1,0-0.1-0.1-0.2-0.1c-0.1-0.1-0.2,0-0.3,0.1c-0.1,0.1,0,0.2,0.1,0.3c0.1,0,0.1,0.1,0.2,0.1
			c0,0,0.1,0,0.1,0c0.1,0,0.1,0,0.2-0.1C6.4,10.7,6.4,10.6,6.3,10.6z"/>
		<path class="st1" d="M6.6,9.5C6.2,9.3,6,8.9,6,8.5c0-0.1-0.1-0.2-0.2-0.2c-0.1,0-0.2,0.1-0.2,0.2c0,0.5,0.3,1,0.8,1.3
			c0,0,0.1,0,0.1,0c0.1,0,0.1,0,0.2-0.1C6.7,9.7,6.6,9.5,6.6,9.5z"/>
		<path class="st1" d="M10.6,4.1c-0.1-0.1-0.2,0-0.3,0c-0.1,0.1,0,0.2,0,0.3c1.2,0.9,1.8,2.4,1.7,3.8c0,0.1,0.1,0.2,0.2,0.2
			c0,0,0,0,0,0c0.1,0,0.2-0.1,0.2-0.2C12.6,6.7,11.9,5.1,10.6,4.1z"/>
		<path class="st1" d="M10.2,5.2c-0.1-0.1-0.2,0-0.3,0c-0.1,0.1,0,0.2,0,0.3C10.7,6.1,11.1,7,11,8c0,0.1,0.1,0.2,0.2,0.2
			c0,0,0,0,0,0c0.1,0,0.2-0.1,0.2-0.2C11.5,6.9,11,5.9,10.2,5.2z"/>
		<path class="st1" d="M9.8,6.2c-0.1-0.1-0.2,0-0.3,0c-0.1,0.1,0,0.2,0,0.3c0.3,0.2,0.5,0.6,0.5,1c0,0.1,0.1,0.2,0.2,0.2
			c0,0,0,0,0,0c0.1,0,0.2-0.1,0.2-0.2C10.4,7,10.2,6.5,9.8,6.2z"/>
	</g>
</g>
</svg>
