<?xml version="1.0" encoding="utf-8"?>
<!-- Generator: Adobe Illustrator 24.0.3, SVG Export Plug-In . SVG Version: 6.00 Build 0)  -->
<svg version="1.1" id="Capa_1" xmlns="http://www.w3.org/2000/svg" xmlns:xlink="http://www.w3.org/1999/xlink" x="0px" y="0px"
	 viewBox="0 0 16 16" style="enable-background:new 0 0 16 16;" xml:space="preserve">
<style type="text/css">
	.st0{fill:#F0DB4F;}
	.st1{fill:#323330;}
</style>
<g>
	<rect class="st0" width="16" height="16"/>
	<g>
		<path class="st1" d="M4.2,13.4l1.2-0.7c0.2,0.4,0.4,0.8,1,0.8c0.5,0,0.8-0.2,0.8-0.9V7.4h1.5v5.1c0,1.5-0.9,2.3-2.2,2.3
			C5.2,14.7,4.5,14.1,4.2,13.4z"/>
		<path class="st1" d="M9.5,13.2l1.2-0.7c0.3,0.5,0.7,0.9,1.5,0.9c0.6,0,1-0.3,1-0.7c0-0.5-0.4-0.7-1.1-1l-0.4-0.2
			c-1.1-0.5-1.8-1-1.8-2.3c0-1.1,0.9-2,2.2-2c1,0,1.6,0.3,2.1,1.2l-1.2,0.7c-0.3-0.5-0.5-0.6-1-0.6c-0.4,0-0.7,0.3-0.7,0.6
			c0,0.4,0.3,0.6,0.9,0.9l0.4,0.2c1.3,0.5,2,1.1,2,2.4c0,1.3-1.1,2.1-2.5,2.1C10.8,14.7,9.9,14.1,9.5,13.2z"/>
	</g>
</g>
</svg>
