<?xml version="1.0" encoding="utf-8"?>
<!-- Generator: Adobe Illustrator 24.0.3, SVG Export Plug-In . SVG Version: 6.00 Build 0)  -->
<svg version="1.1" id="Capa_1" xmlns="http://www.w3.org/2000/svg" xmlns:xlink="http://www.w3.org/1999/xlink" x="0px" y="0px"
	 viewBox="0 0 16 16" style="enable-background:new 0 0 16 16;" xml:space="preserve">
<style type="text/css">
	.st0{fill:#00D8FF;}
</style>
<g>
	<circle class="st0" cx="8" cy="8" r="1.4"/>
	<path class="st0" d="M8,11.3c-1.7,0-3.4-0.2-5.1-0.7C2.2,10.3,1.5,10,0.8,9.5C0.4,9.1,0.1,8.6,0,8C0,7,1,6.1,2.8,5.5
		C4.5,5,6.2,4.7,8,4.7c1.7,0,3.5,0.2,5.2,0.8c0.7,0.2,1.4,0.6,2,1.1C15.6,6.9,16,7.4,16,8c0,1-1.2,2-3,2.6
		C11.4,11.1,9.7,11.3,8,11.3z M8,5.4c-1.7,0-3.4,0.2-5,0.7C1.4,6.7,0.7,7.5,0.7,8c0,0.5,0.8,1.4,2.5,1.9c1.6,0.5,3.2,0.7,4.9,0.7
		c1.6,0,3.2-0.2,4.8-0.6c1.8-0.6,2.6-1.4,2.6-1.9c-0.1-0.4-0.3-0.7-0.6-0.9c-0.5-0.4-1.2-0.7-1.8-0.9C11.3,5.6,9.7,5.4,8,5.4z"/>
	<path class="st0" d="M4.8,15.1c-0.3,0-0.5-0.1-0.8-0.2c-0.8-0.5-1.1-1.8-0.8-3.6c0.4-1.7,1-3.4,1.9-4.9l0,0C6,4.8,7.1,3.5,8.4,2.3
		C9,1.8,9.6,1.4,10.3,1.1c0.5-0.2,1.1-0.2,1.6,0c0.9,0.5,1.1,2,0.7,3.9c-0.4,1.6-1,3.2-1.9,4.6c-0.8,1.5-1.9,2.9-3.1,4.1
		c-0.6,0.5-1.3,1-2,1.3C5.4,15,5.1,15.1,4.8,15.1z M5.8,6.7c-0.9,1.5-1.5,3-1.9,4.7c-0.3,1.7,0,2.7,0.4,2.9c0.5,0.3,1.6,0,2.9-1.2
		c1.2-1.1,2.2-2.4,3-3.9c0.8-1.4,1.4-2.9,1.8-4.4c0.4-1.8,0.1-2.9-0.4-3.2c-0.3-0.1-0.7-0.1-1.1,0.1C9.9,2,9.4,2.3,8.9,2.8
		C7.6,3.9,6.6,5.3,5.8,6.7L5.8,6.7z"/>
	<path class="st0" d="M11.2,15.1c-0.8,0-1.8-0.5-2.8-1.3C7.2,12.6,6,11.2,5.2,9.6l0,0C4.3,8.1,3.6,6.5,3.3,4.8
		C3.1,4,3.1,3.3,3.2,2.5c0-0.6,0.3-1.1,0.8-1.4c0.8-0.5,2.3,0,3.8,1.3c1.2,1.2,2.3,2.5,3.1,4c0.9,1.5,1.6,3.1,1.9,4.7
		c0.2,0.8,0.2,1.6,0.1,2.4c-0.1,0.6-0.4,1.1-0.9,1.5C11.8,15.1,11.5,15.1,11.2,15.1z M5.8,9.3c0.8,1.5,1.9,2.8,3.1,4
		c1.3,1.1,2.3,1.3,2.7,1.1c0.5-0.3,0.8-1.4,0.4-3.1c-0.4-1.6-1-3.1-1.9-4.5C9.4,5.3,8.5,4,7.3,2.9c-1.4-1.2-2.5-1.5-3-1.2
		C4,1.9,3.9,2.3,3.8,2.6C3.7,3.3,3.8,4,3.9,4.7C4.3,6.3,4.9,7.9,5.8,9.3L5.8,9.3z"/>
</g>
</svg>
