<?xml version="1.0" encoding="utf-8"?>
<!-- Generator: Adobe Illustrator 24.0.3, SVG Export Plug-In . SVG Version: 6.00 Build 0)  -->
<svg version="1.1" id="Capa_1" xmlns="http://www.w3.org/2000/svg" xmlns:xlink="http://www.w3.org/1999/xlink" x="0px" y="0px"
	 viewBox="0 0 16 16" style="enable-background:new 0 0 16 16;" xml:space="preserve">
<style type="text/css">
	.st0{fill:#3FA9F5;}
	.st1{fill:#FF1D25;}
</style>
<g>
	<path class="st0" d="M5.9,12.4c0,0-0.6,0.4,0.4,0.5C7.4,13,8.6,13,9.6,12.7c0.3,0.2,0.6,0.3,0.9,0.4C7.4,14.5,3.4,13.1,5.9,12.4"/>
	<path class="st0" d="M5.5,10.6c0,0-0.7,0.5,0.4,0.6c1.4,0.2,2.9,0.1,4.3-0.2c0.2,0.2,0.4,0.3,0.7,0.4C7,12.5,2.8,11.5,5.5,10.6"/>
	<path class="st1" d="M8.7,7.7c0.4,0.5,0.3,1.2-0.2,1.7c0,0,0,0,0,0c0,0,2-1,1.1-2.3c-0.8-1.2-1.5-1.8,2-3.8
		C11.6,3.3,6.1,4.6,8.7,7.7"/>
	<path class="st0" d="M12.9,13.7c0,0,0.5,0.4-0.5,0.7c-1.8,0.5-7.5,0.7-9.1,0c-0.6-0.2,0.5-0.6,0.8-0.7c0.2,0,0.4-0.1,0.6-0.1
		c-0.6-0.4-4.1,0.9-1.8,1.3C9.3,15.9,14.5,14.4,12.9,13.7"/>
	<path class="st0" d="M6.2,8.8c0,0-2.9,0.7-1,0.9c1.3,0.1,2.6,0.1,3.8,0c1.2-0.1,2.4-0.3,2.4-0.3c-0.3,0.1-0.5,0.2-0.7,0.4
		c-3,0.8-8.7,0.4-7-0.4C4.5,9,5.3,8.8,6.2,8.8"/>
	<path class="st0" d="M11.4,11.7c3-1.6,1.6-3.1,0.6-2.9c-0.1,0-0.2,0.1-0.3,0.1c0.1-0.1,0.2-0.2,0.3-0.2
		C13.9,8.1,15.4,10.7,11.4,11.7C11.4,11.8,11.4,11.8,11.4,11.7"/>
	<path class="st1" d="M9.6,0c0,0,1.7,1.7-1.6,4.2C5.4,6.3,7.4,7.4,8,8.8C6.5,7.4,5.4,6.2,6.1,5.1C7.2,3.4,10.3,2.6,9.6,0"/>
	<path class="st0" d="M6.5,15.9c2.9,0.2,7.3-0.1,7.4-1.5c0,0-0.2,0.5-2.4,0.9c-2.4,0.4-4.9,0.5-7.3,0.1C4.2,15.5,4.6,15.8,6.5,15.9"
		/>
</g>
</svg>
