<?xml version="1.0" encoding="utf-8"?>
<!-- Generator: Adobe Illustrator 24.0.3, SVG Export Plug-In . SVG Version: 6.00 Build 0)  -->
<svg version="1.1" id="Capa_1" xmlns="http://www.w3.org/2000/svg" xmlns:xlink="http://www.w3.org/1999/xlink" x="0px" y="0px"
	 viewBox="0 0 16 16" style="enable-background:new 0 0 16 16;" xml:space="preserve">
<style type="text/css">
	.st0{fill-rule:evenodd;clip-rule:evenodd;fill:#333333;}
	.st1{fill:#B3B2B3;}
</style>
<g>
	<path class="st0" d="M15.4,1.5l0-0.2l0.2-0.1l0.2-0.5l-0.1-0.1c0,0-3,1.5-5.5,1.8S3.1,3,2.1,2.7C1.2,2.5,0.5,2.3,0.5,2.3l0.2,0.7
		L0.1,3.4l0.1,0.2l0.2,0l0.8,0.1l0.1,0.3l0.4,0L2,4.8c0,0,0.9,0.1,1.2,0.1c0.3,0,0.8,0,0.8,0l0,0.3l0.2,0v0.3L3.7,5.9l0.1,0V6
		c0,0-1,0.1-1.3,0C2.1,6,2,6,2,6l0,0l0,0.2h0.1l0,0.7l2-0.1L3.9,9.7L2.2,9.6l0-0.7h0.4l0-0.3L3,8.6L3,8.5L1.8,8.2l-1,0.3L1,8.7h0.2
		l0,0.2l0.3,0v0.7L1.1,9.7l0.1,0.2l0.1,0.1v0.5h0.2v2.4l-0.4,0.1l0.1,0.7l0.2,0l0,1.5l1,0l-0.2-1.5l1.5,0l-0.1,0.8l-0.1,0.6l1.5,0
		l0-1.5l1.1-0.1l0,1l0,0.6h0.9l0-1.5l0.1,0l0-0.7H6.9l0-0.3l-0.1-0.9l0-1h0.2V9.8l-0.2,0l0-0.7l0.3,0l0-0.2l0.2,0l0.2-0.1l-1-0.2
		l-1,0.2l0.1,0.2l0.1,0l0.1,0l0,0.3l0.3,0v0.6l-1.2,0l0-0.7l0-0.6V7.7l0-0.8l2.4-0.1l2.9-0.2l0,0.5l-0.1,1.3l0,1.2L9,9.6l0-0.8
		l0.4,0l0-0.2l0.2,0l0,0l0.2,0l0.1-0.1L8.6,8L7.4,8.3l0.1,0.1l0.1,0v0.1h0.2v0.3l0.3,0l0,0.7H7.8v0.2l0.1,0l0,0.6l0.3,0l0,2.6
		L7.8,13l0,0.1h0.1v0.7h0.2l0,0.9L8,15.4l1.3,0l0-0.7l-0.1-0.6l0-0.5l1.1,0l0,0.8l0,0.8l0.6,0l0.8,0l0.3-0.1l-0.1-0.4l0-0.7
		l-0.1-0.5l1,0l0,0.6l0,0.9l0.4,0l0.4,0l0.2-0.1l-0.1-0.9l0-0.7l0.2,0l0-0.6l0,0l0-0.1h-0.2l0-0.4l0-1.9l0.1,0V9.8l0.1,0V9.7l-0.2,0
		l0-0.7l0.4,0l0-0.2l0.2,0l0,0L14,8.5l-1.1-0.2l-1.1,0.2l0.1,0.1l0.2,0l0,0.1h0.1l0,0.3l0.4,0l0,0.7l-1.3,0l-0.1-1l-0.1-0.6l-0.1-1
		L11,6.5l2.6-0.2l0-0.9l0.1,0l0-0.1l-0.1-0.1l-1.8,0.3l-0.2,0l0-0.2L11,5.1l0-0.3l0.2,0l0-0.4c0,0,1.1-0.1,1.5-0.2s1-0.2,1-0.2
		L14,3.2l0.5-0.2l0-0.1l1.2-0.3l0.1-0.1L15.4,1.5z M3.8,12.7l-1.6,0.1l0-2.3l1.6,0.1l-0.1,0.9v0.8L3.8,12.7z M6,10.5l0,2.2l-1.1,0
		L4.8,12l0-0.7l0-0.8L6,10.5z M5.1,5.9L5.1,5.9l0.2-0.1l0-0.1L4.9,5.6l0-0.4l0.2,0l0-0.4l1.4-0.1l0,0.2l0.1,0.2l0,0.3l0.1,0.2l0,0.2
		l0.1,0.1L5.1,5.9z M9,12.9l0-2.5l1,0.1l0,1.4l0.1,1.1L9,12.9z M10.2,5.1L9.7,5.5l0,0.1l0.2,0l0,0.1L8.2,5.7l0-0.2l0.1-0.1l0-0.1
		l0-0.2l0-0.1l0-0.1V4.9l0.1-0.3L10,4.4l0,0.4l0.3,0L10.2,5.1z M12.6,10.4v2.3l-1,0.1l0-1.2l-0.1-1.2L12.6,10.4z"/>
	<path class="st1" d="M9.2,15.6C9.2,15.6,9.2,15.6,9.2,15.6l-1.3,0c0,0-0.1,0-0.1,0c0,0,0-0.1,0-0.1l0.1-0.8l0-0.8H7.9
		c-0.1,0-0.1-0.1-0.1-0.1v-0.5c-0.1,0-0.1-0.1-0.1-0.1l0-0.1c0-0.1,0-0.1,0.1-0.1L8,12.8l0-2.3l-0.1,0c-0.1,0-0.1-0.1-0.1-0.1l0-0.5
		l0,0c-0.1,0-0.1-0.1-0.1-0.1V9.5c0-0.1,0.1-0.1,0.1-0.1H8l0-0.5l-0.2,0c-0.1,0-0.1-0.1-0.1-0.1V8.6h0c0,0-0.1,0-0.1-0.1l0,0
		c-0.1,0-0.1,0-0.1-0.1L7.3,8.3c0,0,0-0.1,0-0.1c0,0,0-0.1,0.1-0.1l1.2-0.3c0,0,0,0,0.1,0l1.2,0.3c0,0,0.1,0,0.1,0.1
		c0,0,0,0.1,0,0.1L9.8,8.5c0,0-0.1,0-0.1,0l-0.1,0c0,0,0,0,0,0c0,0,0,0-0.1,0l-0.1,0l0,0.1c0,0.1-0.1,0.1-0.1,0.1l-0.3,0l0,0.6
		l0.8,0l0-1.1l0.1-1.3l0-0.4L5,7l0,0.7v0.8L4.9,9.7l0.9,0V9.3l-0.2,0c0,0,0,0,0,0c-0.1,0-0.1,0-0.1-0.1l0-0.2L5.5,9
		c0,0-0.1,0-0.1-0.1L5.3,8.8c0,0,0-0.1,0-0.1c0,0,0-0.1,0.1-0.1l1-0.2c0,0,0,0,0.1,0l1,0.2c0,0,0.1,0,0.1,0.1c0,0,0,0.1,0,0.1L7.3,9
		c0,0,0,0-0.1,0L7.1,9l0,0.1c0,0.1-0.1,0.1-0.1,0.1l-0.2,0l0,0.5l0.1,0c0,0,0.1,0,0.1,0c0,0,0,0.1,0,0.1v0.6c0,0.1-0.1,0.1-0.1,0.1
		H6.9l0,0.9l0.1,1h0c0,0,0.1,0,0.1,0c0,0,0,0.1,0,0.1l0,0.7c0,0,0,0.1,0,0.1c0,0,0,0-0.1,0l0,1.4c0,0,0,0.1,0,0.1c0,0-0.1,0-0.1,0H6
		c0,0-0.1,0-0.1,0c0,0,0-0.1,0-0.1l0.1-1.4l-0.8,0.1l0,1.4c0,0,0,0.1,0,0.1c0,0-0.1,0-0.1,0l-1.5,0c0,0-0.1,0-0.1,0c0,0,0-0.1,0-0.1
		l0.1-0.6l0.1-0.7l-1.2,0l0.2,1.4c0,0,0,0.1,0,0.1c0,0-0.1,0-0.1,0c0,0,0,0,0,0l-1,0c0,0-0.1,0-0.1,0c0,0,0-0.1,0-0.1l0-1.4l-0.1,0
		c-0.1,0-0.1-0.1-0.1-0.1L1,12.8c0-0.1,0-0.1,0.1-0.1l0.3,0v-2.1H1.3c-0.1,0-0.1-0.1-0.1-0.1V9.9l0,0c0,0,0,0,0-0.1L1,9.7
		c0,0,0-0.1,0-0.1c0,0,0-0.1,0.1-0.1l0.3-0.1V9L1.1,9C1.1,9,1,9,1,8.9l0-0.1h0c0,0-0.1,0-0.1,0L0.7,8.6c0,0-0.1-0.1,0-0.1
		c0,0,0-0.1,0.1-0.1l1-0.3c0,0,0,0,0.1,0L3,8.4c0,0,0.1,0,0.1,0.1c0,0,0,0.1,0,0.1L3.1,8.7c0,0,0,0-0.1,0L2.7,8.8l0,0.2
		c0,0.1-0.1,0.1-0.1,0.1H2.3l0,0.4l1.4,0.1L3.9,7L2.1,7.1C2,7.1,2,7,2,7l0-0.6c0,0,0,0-0.1,0c0,0,0-0.1,0-0.1l0-0.2c0,0,0-0.1,0-0.1
		l0,0c0,0,0.1,0,0.1,0c0,0,0.1,0,0.5,0.1c0.3,0,0.8,0,1.1,0c0,0,0,0,0,0c0,0,0-0.1,0-0.1L4,5.5V5.3l-0.1,0c-0.1,0-0.1-0.1-0.1-0.1
		l0-0.2C3.7,5,3.3,5,3.1,5C2.9,5,2,5,2,5c-0.1,0-0.1,0-0.1-0.1L1.7,4.2l-0.3,0c0,0-0.1,0-0.1-0.1L1.1,3.9L0.2,3.8c0,0-0.1,0-0.1-0.1
		L0,3.5c0-0.1,0-0.1,0-0.2l0.5-0.5L0.4,2.3c0,0,0-0.1,0-0.1c0,0,0.1,0,0.1,0c0,0,0.7,0.3,1.6,0.5c0.9,0.2,5.6-0.1,8.1-0.4
		c2.4-0.3,5.4-1.7,5.5-1.8c0,0,0.1,0,0.1,0l0.1,0.1c0,0,0.1,0.1,0,0.1l-0.2,0.5c0,0,0,0.1-0.1,0.1l-0.2,0.1l0,0.1l0.4,1
		c0,0.1,0,0.1,0,0.1l-0.1,0.1c0,0,0,0,0,0L14.6,3l0,0.1c0,0,0,0.1-0.1,0.1L14,3.3L13.8,4c0,0-0.1,0.1-0.1,0.1c0,0-0.6,0.1-1,0.2
		c-0.3,0.1-1.1,0.1-1.4,0.2l0,0.3c0,0.1-0.1,0.1-0.1,0.1l-0.1,0l0,0.1l0.5,0.2c0,0,0.1,0.1,0.1,0.1l0,0l0.1,0l1.8-0.3
		c0,0,0.1,0,0.1,0l0.1,0.1c0,0,0.1,0.1,0.1,0.1l0,0.1c0,0.1,0,0.1-0.1,0.1l0,0l0,0.8c0,0.1-0.1,0.1-0.1,0.1l-2.4,0.2l0,0.5l0.1,1
		l0.1,0.5l0.1,0.9l1,0l0-0.4l-0.2,0h0c-0.1,0-0.1-0.1-0.1-0.1l0-0.2h0c0,0-0.1,0-0.1-0.1l-0.1,0c-0.1,0-0.1,0-0.1-0.1l-0.1-0.1
		c0,0,0-0.1,0-0.1c0,0,0-0.1,0.1-0.1l1.1-0.2c0,0,0,0,0,0l1.1,0.2c0.1,0,0.1,0.1,0.1,0.1c0,0.1,0,0.1-0.1,0.1L14,8.7c0,0,0,0,0,0.1
		c0,0-0.1,0-0.1,0l0,0l0,0.1c0,0.1,0,0.1-0.1,0.1l-0.3,0l0,0.5l0.1,0c0.1,0,0.1,0.1,0.1,0.1v0.1c0,0,0,0.1,0,0.1c0,0,0,0,0,0v0.5
		c0,0.1-0.1,0.1-0.1,0.1l0,0l0,1.8l0,0.3h0.1c0.1,0,0.1,0.1,0.1,0.1l0,0.1c0,0,0,0.1,0,0.1l0,0.5c0,0.1,0,0.1-0.1,0.1l-0.1,0l0,0.5
		l0.1,0.9c0,0.1,0,0.1-0.1,0.1l-0.2,0.1c0,0,0,0,0,0l-0.4,0l-0.4,0c-0.1,0-0.1-0.1-0.1-0.1l0-0.9l0-0.5l-0.7,0l0,0.3l0,0.7l0.1,0.4
		c0,0,0,0.1,0,0.1c0,0,0,0.1-0.1,0.1l-0.3,0.1l-0.8,0l-0.6-0.1c-0.1,0-0.1-0.1-0.1-0.1l0-0.8l0-0.6l-0.8,0l0,0.4l0.1,0.6l0,0.7
		C9.4,15.5,9.4,15.5,9.2,15.6C9.3,15.6,9.3,15.6,9.2,15.6z M8.1,15.3l1,0l0-0.5L9,14.2l0-0.5c0,0,0-0.1,0-0.1s0.1,0,0.1,0l1.1,0
		c0,0,0.1,0,0.1,0c0,0,0,0.1,0,0.1l0,0.8l0,0.7l0.5,0l0.8,0l0.1,0l-0.1-0.3c0,0,0,0,0,0l0-0.7l-0.1-0.5c0,0,0-0.1,0-0.1
		c0,0,0.1,0,0.1,0l1,0c0,0,0.1,0,0.1,0c0,0,0,0.1,0,0.1l0,0.6l0,0.8l0.3,0l0.4,0l0.1,0l-0.1-0.8l0-0.7c0-0.1,0-0.1,0.1-0.1l0.1,0
		l0-0.5c0,0,0,0,0,0h0c-0.1,0-0.1,0-0.1-0.1l0-0.4l0-1.9c0-0.1,0.1-0.1,0.1-0.1l0,0V9.8c0,0,0,0,0,0l0,0c-0.1,0-0.1-0.1-0.1-0.1
		l0-0.7c0-0.1,0-0.1,0.1-0.1l0.2,0l0-0.1c0-0.1,0-0.1,0.1-0.1h0l-0.7-0.1l-0.8,0.2h0c0.1,0,0.1,0.1,0.1,0.1l0,0.2l0.2,0h0
		c0.1,0,0.1,0.1,0.1,0.1l0,0.7c0,0,0,0.1,0,0.1c0,0-0.1,0-0.1,0h0l-1.3,0c-0.1,0-0.1,0-0.1-0.1l-0.2-1L11,8.1l-0.1-1l0.1-0.6
		c0-0.1,0.1-0.1,0.1-0.1l2.4-0.2l0-0.7c0,0,0-0.1,0-0.1l-1.9,0.3c0,0-0.1,0-0.1,0c0,0,0-0.1,0-0.1l0-0.1L11,5.2c0,0-0.1-0.1-0.1-0.1
		l0-0.3c0-0.1,0.1-0.1,0.1-0.1l0.1,0l0-0.3c0-0.1,0.1-0.1,0.1-0.1c0,0,1.1-0.1,1.5-0.2c0.3-0.1,0.7-0.1,0.9-0.2l0.2-0.7
		c0,0,0-0.1,0.1-0.1L14.4,3l0-0.1c0,0,0-0.1,0.1-0.1l1.2-0.3l0,0l-0.4-0.9c0,0,0,0,0-0.1l0-0.2c0,0,0-0.1,0.1-0.1l0.2-0.1l0.1-0.3
		c-0.6,0.3-3.2,1.4-5.4,1.7C7.7,2.8,3.1,3.1,2.1,2.9C1.5,2.7,1,2.6,0.7,2.5l0.1,0.4c0,0,0,0.1,0,0.1L0.3,3.5l0,0l0.2,0l0.8,0.1
		c0,0,0.1,0,0.1,0.1L1.4,4l0.3,0c0.1,0,0.1,0,0.1,0.1l0.2,0.6c0.2,0,0.9,0.1,1.1,0.1c0.3,0,0.8,0,0.8,0c0,0,0.1,0,0.1,0
		c0,0,0,0.1,0,0.1l0,0.2l0.1,0c0.1,0,0.1,0.1,0.1,0.1v0.3c0,0,0,0.1,0,0.1L3.9,5.9c0,0,0,0,0,0V6c0,0.1,0,0.1-0.1,0.1
		c0,0-1,0.1-1.4,0c-0.1,0-0.2,0-0.3,0c0,0,0,0,0,0.1l0,0.6l1.8-0.1c0,0,0.1,0,0.1,0c0,0,0,0.1,0,0.1L4,9.7C4,9.8,4,9.9,3.9,9.9
		L2.2,9.8c-0.1,0-0.1-0.1-0.1-0.1l0-0.7c0,0,0-0.1,0-0.1c0,0,0.1,0,0.1,0h0.3l0-0.2c0-0.1,0-0.1,0.1-0.1l0,0L1.8,8.4L1.2,8.6
		c0,0,0.1,0.1,0.1,0.1l0,0.1l0.2,0c0.1,0,0.1,0.1,0.1,0.1v0.7c0,0.1,0,0.1-0.1,0.1L1.3,9.7l0,0c0,0,0.1,0.1,0.1,0.1v0.4h0.1
		c0.1,0,0.1,0.1,0.1,0.1v2.4c0,0.1,0,0.1-0.1,0.1l-0.3,0l0,0.5l0.1,0c0.1,0,0.1,0.1,0.1,0.1l0,1.4l0.7,0L2,13.6c0,0,0-0.1,0-0.1
		c0,0,0.1,0,0.1,0l1.5,0c0,0,0.1,0,0.1,0c0,0,0,0.1,0,0.1l-0.1,0.8l-0.1,0.4l1.3,0l0-1.4c0-0.1,0-0.1,0.1-0.1L6,13.2
		c0,0,0.1,0,0.1,0c0,0,0,0.1,0,0.1l-0.1,1.4h0.6l0-1.4c0,0,0-0.1,0-0.1c0,0,0.1,0,0.1,0l0-0.5h0c-0.1,0-0.1,0-0.1-0.1l-0.1-0.3
		l-0.1-0.9l0-1c0-0.1,0.1-0.1,0.1-0.1h0.1V10l-0.1,0c0,0-0.1,0-0.1,0c0,0,0-0.1,0-0.1l0-0.7C6.6,9.1,6.7,9,6.7,9l0.2,0l0-0.1
		c0,0,0-0.1,0.1-0.1L6.4,8.7L5.7,8.8c0,0,0.1,0.1,0.1,0.1l0,0.2L6,9c0,0,0.1,0,0.1,0c0,0,0,0.1,0,0.1v0.6c0,0,0,0.1,0,0.1
		c0,0-0.1,0-0.1,0l-1.2,0c0,0-0.1,0-0.1,0c0,0,0-0.1,0-0.1l0.1-1.3V7.7l0-0.9c0-0.1,0.1-0.1,0.1-0.1l2.4-0.1l2.9-0.2
		c0,0,0.1,0,0.1,0c0,0,0,0.1,0,0.1l0,0.5l-0.1,1.3l0,1.2c0,0.1-0.1,0.1-0.1,0.1c0,0,0,0,0,0L9,9.7c-0.1,0-0.1-0.1-0.1-0.1l0-0.8
		c0-0.1,0.1-0.1,0.1-0.1l0.3,0l0-0.1c0-0.1,0-0.1,0.1-0.1l0.1,0c0,0,0,0,0,0c0,0,0,0,0,0L8.6,8.1L7.7,8.3c0,0,0,0,0,0h0.1
		c0.1,0,0.1,0.1,0.1,0.1v0.1l0.2,0c0.1,0,0.1,0.1,0.1,0.1l0,0.7c0,0.1-0.1,0.1-0.1,0.1H8c0,0,0,0,0,0.1l0,0.5l0.1,0
		c0.1,0,0.1,0.1,0.1,0.1l0,2.6c0,0.1,0,0.1-0.1,0.1L8,13c0,0,0,0,0,0v0.5h0.1c0,0,0.1,0,0.1,0s0,0.1,0,0.1l-0.1,0.9L8.1,15.3z
		 M10.1,13C10.1,13,10.1,13,10.1,13L9,13c-0.1,0-0.1-0.1-0.1-0.1l0-2.5c0,0,0-0.1,0-0.1c0,0,0.1,0,0.1,0l1,0.1
		c0.1,0,0.1,0.1,0.1,0.1l0,1.4l0.1,1.1C10.2,12.9,10.2,13,10.1,13C10.2,13,10.2,13,10.1,13z M9.2,12.7l0.8,0l-0.1-1l0-1.3l-0.8-0.1
		L9.2,12.7z M11.6,13C11.5,13,11.5,12.9,11.6,13c-0.1-0.1-0.1-0.1-0.1-0.1l0-1.2l-0.1-1.1c0,0,0-0.1,0-0.1c0,0,0.1,0,0.1,0l1.2,0
		c0,0,0,0,0,0c0,0,0.1,0,0.1,0c0,0,0,0.1,0,0.1v2.3c0,0.1-0.1,0.1-0.1,0.1L11.6,13C11.6,13,11.6,13,11.6,13z M11.6,10.6l0.1,1l0,1.1
		l0.8-0.1v-2.1L11.6,10.6z M2.2,12.9C2.2,12.9,2.2,12.9,2.2,12.9c-0.1-0.1-0.1-0.1-0.1-0.1l0-2.3c0,0,0-0.1,0-0.1c0,0,0,0,0.1,0
		l1.6,0.1c0,0,0.1,0,0.1,0c0,0,0,0.1,0,0.1l-0.1,0.9l0,0.8l0.1,0.4c0,0,0,0.1,0,0.1c0,0-0.1,0-0.1,0.1L2.2,12.9
		C2.2,12.9,2.2,12.9,2.2,12.9z M2.3,10.5l0,2.1l1.3-0.1l-0.1-0.3c0,0,0,0,0,0v-0.8l0.1-0.8L2.3,10.5z M4.9,12.8
		c-0.1,0-0.1,0-0.1-0.1L4.7,12l0-0.7l0-0.8c0,0,0-0.1,0-0.1c0,0,0.1,0,0.1,0c0,0,0,0,0,0l1.2,0c0.1,0,0.1,0.1,0.1,0.1l0,2.2
		c0,0.1-0.1,0.1-0.1,0.1L4.9,12.8C4.9,12.8,4.9,12.8,4.9,12.8z M4.9,10.6l0,0.7l0,0.7l0,0.6l0.9,0l0-1.9L4.9,10.6z M5.1,6.1
		C5,6.1,5,6,5,6l0-0.1c0,0,0-0.1,0.1-0.1L4.8,5.7c0,0-0.1-0.1-0.1-0.1l0-0.4c0,0,0-0.1,0-0.1c0,0,0.1,0,0.1,0l0.1,0l0-0.3
		C5,4.7,5,4.7,5.1,4.7l1.4-0.1c0,0,0.1,0,0.1,0s0,0.1,0,0.1l0,0.2L6.7,5c0,0,0,0.1,0,0.1l0,0.2l0.1,0.2c0,0,0,0.1,0,0.1l0,0.2
		l0.1,0.1c0,0,0,0.1,0,0.1C6.9,6,6.8,6,6.8,6L5.1,6.1C5.1,6.1,5.1,6.1,5.1,6.1z M5,5.5l0.4,0.2c0,0,0.1,0.1,0.1,0.1l1.1,0
		c0,0,0,0,0,0l0-0.2L6.5,5.4c0,0,0,0,0-0.1l0-0.2L6.4,5c0,0,0-0.1,0-0.1l0-0.1L5.2,4.9l0,0.3c0,0.1-0.1,0.1-0.1,0.1L5,5.3L5,5.5z
		 M8.2,5.8C8.2,5.8,8.1,5.8,8.2,5.8C8.1,5.8,8.1,5.8,8.1,5.7l0-0.2c0,0,0,0,0-0.1l0.1-0.1l0-0.2c0,0,0,0,0,0l0-0.1l0-0.1l0,0
		l0.1-0.3c0,0,0.1-0.1,0.1-0.1l1.5-0.2c0,0,0.1,0,0.1,0c0,0,0,0.1,0,0.1l0,0.2l0.2,0c0,0,0.1,0,0.1,0c0,0,0,0.1,0,0.1l0,0.3
		c0,0,0,0.1-0.1,0.1L9.9,5.5c0,0,0,0,0,0c0,0,0,0.1,0,0.1l0,0.1c0,0.1-0.1,0.1-0.1,0.1L8.2,5.8C8.2,5.8,8.2,5.8,8.2,5.8z M8.3,5.5
		L8.3,5.5l1.2,0c0,0,0,0,0,0l0-0.1c0,0,0-0.1,0.1-0.1L10.1,5l0-0.2l-0.2,0c-0.1,0-0.1-0.1-0.1-0.1l0-0.2L8.5,4.7L8.5,4.9l0,0l0,0.1
		l0,0.1l0,0.2C8.4,5.4,8.4,5.4,8.3,5.5L8.3,5.5z M10.2,5.1L10.2,5.1L10.2,5.1z"/>
</g>
</svg>
