<?xml version="1.0" encoding="utf-8"?>
<!-- Generator: Adobe Illustrator 24.0.3, SVG Export Plug-In . SVG Version: 6.00 Build 0)  -->
<svg version="1.1" id="Capa_1" xmlns="http://www.w3.org/2000/svg" xmlns:xlink="http://www.w3.org/1999/xlink" x="0px" y="0px"
	 viewBox="0 0 16 16" style="enable-background:new 0 0 16 16;" xml:space="preserve">
<style type="text/css">
	.st0{fill:#FFFFFF;}
	.st1{fill:#ADD7EB;}
	.st2{fill:#002E4E;}
	.st3{fill:#9DCBE2;}
	.st4{fill:#BFEFFF;}
	.st5{fill:#052E4A;}
	.st6{fill:#B7EDFE;}
	.st7{fill:#B7E4F7;}
	.st8{fill:#ACDAED;}
	.st9{fill:#E8F7FF;}
	.st10{fill:#C2E6F9;}
	.st11{fill:#E5F4FD;}
	.st12{fill:#FFC7BA;}
	.st13{fill:#BD5855;}
	.st14{fill:#FF9F90;}
	.st15{fill:#022E50;}
	.st16{fill:#75A8CC;}
	.st17{fill:#022E4C;}
	.st18{fill:#CCCCCC;}
</style>
<g>
	<path class="st0" d="M6.2,1.9h6.9c0,0,1.1,0.1,1,1.4L6.2,3.2V1.9z"/>
	<path class="st1" d="M6.1,2.4h7c0,0,0.5,0.1,0.5,0.5H6L6.1,2.4z"/>
	<path class="st2" d="M13,2c0,0,0.8,0,0.9,1H6.3V2H13 M13,1.5H6.3C6,1.5,5.8,1.7,5.8,2v1c0,0.3,0.2,0.5,0.5,0.5h7.6
		c0.1,0,0.3-0.1,0.4-0.2c0.1-0.1,0.1-0.2,0.1-0.4c0-0.3-0.1-0.6-0.2-0.8c-0.1-0.2-0.3-0.4-0.5-0.5C13.4,1.5,13.1,1.5,13,1.5L13,1.5
		L13,1.5z"/>
	<rect x="2.3" y="1.8" class="st3" width="3.8" height="1.1"/>
	<path class="st4" d="M6,2H2.2c0,0,0-1,0.9-1.2h2.4C5.5,0.8,6,1,6,1.5S6,2,6,2z"/>
	<path class="st2" d="M5.1,1c0,0,0.6,0,0.7,0.6v0.7c0,0,0.1,0.3,0.2,0.4H2.6c0,0-0.1,0-0.2,0.1V1.7c0,0,0-0.5,0.6-0.7H5.1 M5.1,0.5
		h-2H3C2.4,0.7,2.2,1,2,1.2C1.9,1.4,1.9,1.6,1.9,1.7v1.2c0,0.2,0.2,0.5,0.4,0.5h0.1c0.1,0,0.2,0,0.3-0.1H6c0.2,0,0.4-0.1,0.5-0.4
		c0.1-0.2,0-0.4-0.1-0.5V2.3V1.6l0,0c0-0.4-0.3-0.8-0.6-0.9C5.4,0.5,5.2,0.5,5.1,0.5L5.1,0.5L5.1,0.5z"/>
	<circle class="st5" cx="3.2" cy="2" r="0.3"/>
	<circle class="st5" cx="4.1" cy="2" r="0.3"/>
	<circle class="st5" cx="5.1" cy="2" r="0.3"/>
	<path class="st6" d="M1.2,9.1h13.3c0,0,2.7,1.6,0.2,5c0,0-1,1.1-2.8,1.2l-8.6-0.1c0,0-2.7-0.7-3-2.7C0.4,12.6-0.2,10.8,1.2,9.1z"/>
	<path class="st0" d="M1.3,5.6h13.3c0,0,0.3-2.6-1.9-2.6H2.6C2.6,3,1.5,3.5,1.3,5.6z"/>
	<path class="st7" d="M14.3,4.3c0,0-0.3,0-0.5,0.4l-0.1,4.4c0,0,0.5,0.2,0.6,0.4l0.1-4.8C14.4,4.6,14.4,4.3,14.3,4.3z"/>
	<path class="st8" d="M1.7,4.3c0,0,0.4,0.1,0.5,0.4v5L1.5,9.3V4.4L1.7,4.3L1.7,4.3z"/>
	<path class="st9" d="M9.4,12.6H6.6c-2.4,0-4.4-2-4.4-4.4l0,0c0-2.4,2-4.4,4.4-4.4h2.8c2.4,0,4.4,2,4.4,4.4l0,0
		C13.8,10.6,11.8,12.6,9.4,12.6z"/>
	<path class="st0" d="M2.5,9.4c0,0-1.8,1-1.5,2.7s2.3,2.4,2.3,2.4h9.3c0,0,3-0.7,2.3-3.5c0,0-0.1-1-1.4-1.6c0,0,0.7-2.7-2.5-3
		c0,0-0.6-2-3.3-2c0,0-1.6,0.2-2.3,1.2c0,0-1.7,0.1-2.5,1.4C2.9,7.1,2.2,8.2,2.5,9.4z"/>
	<path class="st10" d="M3.6,8.3c0,0,0.2-1.3,1.8-1.4c0,0,0.2,0,0.4,0.1c0,0,0.1,0,0.2,0c0,0,0.3-0.5,0.8-0.8c0,0,0.3-0.1,0.2-0.4
		c0,0-0.1-0.3-0.4,0c0,0-0.5,0.3-0.7,0.6c0,0,0,0.1-0.1,0.1c0,0-1-0.2-1.9,0.6c0,0-0.5,0.5-0.7,1.1c0,0,0,0.3,0.2,0.4
		C3.4,8.5,3.5,8.5,3.6,8.3z"/>
	<path class="st10" d="M7.8,5.9c0,0,1.7-0.3,2.4,1.6c0,0,0,0.3,0.3,0.3c0,0,1.1-0.2,1.7,0.6c0,0,0.4,0.3,0.4,1c0,0,0,0.3,0,0.4
		c0,0-0.1,0.3,0.3,0.4c0,0,0.3,0,0.3-0.3c0,0,0-0.2-0.2-0.3c0,0,0,0,0-0.1c0,0,0.1-0.1,0.1-0.4c0,0,0-0.7-0.4-1.2c0,0-0.5-0.9-2-0.8
		c0,0-0.5-1.6-2.3-1.9c0,0-0.4-0.1-0.7,0c0,0-0.2,0.1-0.2,0.3C7.5,5.6,7.5,5.9,7.8,5.9z"/>
	<path class="st11" d="M1.3,11c0,0-0.1,2.3,2.2,2.7h8.9c0,0,2.1-0.1,2.3-2.6h0.1c0,0,0.5,2.6-2.4,3.2h-9c0,0-2.7-0.5-2.4-3.2L1.3,11
		z"/>
	<path class="st2" d="M13.2,3.3c0,0,0.9,0,1.1,1.1v4.9c0,0,1.2,0.6,1.2,2.4c0,0,0.1,2.7-3.1,3.3H3.7c0,0-3-0.3-3.2-3.3
		c0,0-0.1-1.5,1.2-2.4V4.6c0,0,0-1.1,1.1-1.2L13.2,3.3 M13.2,2.8L13.2,2.8H2.8l0,0l0,0C2.4,2.9,2.1,3,1.8,3.2
		C1.6,3.3,1.5,3.5,1.4,3.8C1.2,4.1,1.2,4.5,1.2,4.5l0,0l0,0V9c-0.5,0.4-0.9,1-1,1.7c-0.1,0.5-0.1,1-0.1,1c0.1,1.8,1.1,2.7,1.9,3.2
		c0.9,0.5,1.7,0.6,1.7,0.6l0,0l0,0h8.7h0.1l0,0c0.8-0.2,1.5-0.5,2-0.9c0.4-0.3,0.8-0.8,1.1-1.3c0.4-0.8,0.4-1.6,0.4-1.7
		c0-0.5-0.1-0.9-0.2-1.3c-0.1-0.3-0.3-0.6-0.5-0.9C15.1,9.3,15,9.1,14.8,9V4.4l0,0V4.3c-0.2-0.7-0.6-1.1-0.9-1.3
		C13.6,2.8,13.3,2.8,13.2,2.8L13.2,2.8L13.2,2.8z"/>
	<g>
		<circle class="st12" cx="4.6" cy="11.8" r="0.7"/>
		<circle class="st12" cx="11.5" cy="11.8" r="0.7"/>
	</g>
	<g>
		<path class="st2" d="M7.7,11.3c0,0,0.2,0,0.3-0.1c0,0,0.1-0.1,0.2,0c0,0,0.1,0.1,0.2,0.1c0,0,0.2,0.1,0.3-0.2c0,0,0.2-0.3,0.4,0
			c0,0,0.1,0.4,0,0.7c0,0-0.1,0.7-1,0.8c0,0-1,0.1-1.2-1.2c0,0,0-0.4,0.3-0.5c0,0,0.1,0,0.2,0.1C7.4,11.1,7.4,11.3,7.7,11.3z"/>
		<path class="st13" d="M7.4,11.7h0.4c0,0,0.1,0,0.2-0.1c0,0,0.1,0.1,0.2,0.1h0.4c0,0,0,0.4-0.6,0.4C8,12.1,7.5,12.1,7.4,11.7z"/>
		<path class="st14" d="M7.6,12c0,0,0.2-0.1,0.5-0.1c0,0,0.3,0,0.4,0.1C8.4,12,8,12.3,7.6,12z"/>
	</g>
	<g>
		<circle class="st15" cx="5.4" cy="9.8" r="1"/>
		<circle class="st0" cx="5.4" cy="9.5" r="0.4"/>
		<circle class="st0" cx="5.1" cy="10.2" r="0.2"/>
		<circle class="st0" cx="5.8" cy="10.2" r="0.2"/>
	</g>
	<g>
		<circle class="st15" cx="10.6" cy="9.8" r="1"/>
		<circle class="st0" cx="10.5" cy="9.5" r="0.4"/>
		<circle class="st0" cx="10.2" cy="10.2" r="0.2"/>
		<circle class="st0" cx="11" cy="10.2" r="0.2"/>
	</g>
	<path class="st16" d="M1.2,11l-0.1,0.2c0,0,0,0.2,0,0.5c0,0-0.1,2,2.4,2.6h8.9c0,0,1.8-0.2,2.3-2c0,0,0.1-0.8,0-1.2l0.3-0.3
		c0,0,0.4,1.1-0.2,2.1c0,0-0.8,1.6-2.6,1.7H3.6c0,0-1.6-0.1-2.5-1.8c0,0-0.5-1.1-0.2-2.1L1.2,11z"/>
	<path class="st17" d="M1.4,11c0,0,0.3-1.1,1.5-1.4c0,0-0.2-0.3-0.2-0.9c0,0,0-2.5,2.6-2.7c0,0,0.1,0,0.2,0c0,0,0.8-1.2,2.5-1.3
		c0,0,2-0.1,2.8,2c0,0,2.3-0.2,2.5,2c0,0,0,0.4-0.1,0.8c0,0,1.1,0.3,1.4,1.4c0,0,0.2,0.4,0.5,0c0,0-0.1-1.1-1.3-1.7
		c0,0,0.1-0.1,0.1-0.6c0,0-0.1-2.4-2.7-2.5c0,0-0.7-1.9-3.2-2c0,0-1.5-0.1-2.7,1.2c0,0-2.8,0-3.1,3.2c0,0,0,0.3,0.1,0.6
		c0,0-1,0.5-1.3,1.6c0,0-0.1,0.3,0.2,0.3C1.1,11.2,1.3,11.2,1.4,11z"/>
	<path class="st2" d="M5.1,4.3H3C2.9,4.3,2.8,4.2,2.8,4l0,0c0-0.1,0.1-0.2,0.2-0.2h2.1c0.1,0,0.2,0.1,0.2,0.2l0,0
		C5.4,4.2,5.2,4.3,5.1,4.3z"/>
	<path class="st2" d="M4.4,5.2H3C2.9,5.2,2.8,5,2.8,4.9l0,0c0-0.1,0.1-0.2,0.2-0.2h1.4c0.1,0,0.2,0.1,0.2,0.2l0,0
		C4.6,5,4.5,5.2,4.4,5.2z"/>
	<g>
		<path class="st2" d="M13.1,4.7L13.1,4.7c0-0.1-0.1-0.1-0.1-0.1s-0.1,0-0.2,0h-1.2c-0.1,0-0.1,0-0.2,0c0,0-0.1,0-0.1,0.1
			c-0.1,0.1-0.1,0.2-0.1,0.2v0.4c0,0.1,0,0.3,0.3,0.3h1.1c0.3,0,0.3-0.2,0.3-0.3V4.9C13.2,4.9,13.2,4.8,13.1,4.7z M12.5,5.2H12
			c0,0-0.1,0-0.1-0.1S11.9,5,12,5h0.5C12.5,5.1,12.6,5.1,12.5,5.2C12.6,5.2,12.5,5.2,12.5,5.2z"/>
		<path class="st2" d="M13.1,4.4C13.1,4.4,13,4.5,13.1,4.4c-0.1,0-0.2,0-0.2,0h-1.2c-0.1,0-0.1,0-0.2,0h-0.1V4.2
			c0-0.3,0.1-0.4,0.4-0.4H12c0.1,0,0.2,0,0.2,0.1L12.3,4c0,0,0,0,0.1,0h0.2C12.9,4.1,13.1,4.1,13.1,4.4z"/>
	</g>
</g>
<polygon class="st18" points="16,12.8 12,16 8,12.8 8,10.4 12,13.6 16,10.4 "/>
</svg>
