<?xml version="1.0" encoding="utf-8"?>
<!-- Generator: Adobe Illustrator 24.0.3, SVG Export Plug-In . SVG Version: 6.00 Build 0)  -->
<svg version="1.1" id="Capa_1" xmlns="http://www.w3.org/2000/svg" xmlns:xlink="http://www.w3.org/1999/xlink" x="0px" y="0px"
	 viewBox="0 0 16 16" style="enable-background:new 0 0 16 16;" xml:space="preserve">
<style type="text/css">
	.st0{fill:#7AC943;}
	.st1{fill:#3FA9F5;}
</style>
<g>
	<path class="st0" d="M5.1,16c-2-0.5-2.9-1.8-2.9-3.8v-1.6c0-1.1-0.5-1.7-1.5-1.7V7.1c0.9,0,1.4-0.5,1.5-1.6V3.8
		c0-1,0.2-1.8,0.7-2.4S4.1,0.3,5.1,0l0.5,1.3C5.1,1.5,4.8,1.7,4.6,2.1C4.4,2.5,4.3,3,4.3,3.7v1.7c0,1.2-0.5,2.1-1.5,2.6
		c1,0.5,1.5,1.4,1.5,2.6v1.7c0,1.3,0.5,2,1.3,2.3L5.1,16z"/>
	<path class="st1" d="M7.5,16l-1.2-0.6l0.3-0.5c0.4-0.7,0.6-1.3,0.6-2V11h2l0,1.6c0,0.6-0.2,1.2-0.5,1.8C8.4,15.1,8,15.6,7.5,16z
		 M6.7,5.2c0-0.4,0.1-0.7,0.4-0.9s0.6-0.4,1-0.4c0.4,0,0.7,0.1,1,0.4c0.3,0.2,0.4,0.5,0.4,0.9c0,0.4-0.1,0.7-0.4,0.9S8.4,6.4,8,6.4
		c-0.4,0-0.7-0.1-1-0.3S6.7,5.6,6.7,5.2z"/>
	<path class="st0" d="M10.5,14.6c0.8-0.3,1.3-1.1,1.3-2.4v-1.7c0-1.2,0.5-2.1,1.5-2.6c-1-0.5-1.5-1.3-1.5-2.6V3.7
		c0-1.3-0.4-2.1-1.3-2.4L10.9,0c1,0.3,1.7,0.7,2.2,1.3c0.5,0.6,0.7,1.4,0.7,2.4v1.8c0,1.1,0.5,1.6,1.5,1.6v1.7c-1,0-1.5,0.6-1.5,1.7
		v1.8c0,1.9-1,3.1-2.9,3.7L10.5,14.6z"/>
</g>
</svg>
