<?xml version="1.0" encoding="utf-8"?>
<!-- Generator: Adobe Illustrator 24.0.3, SVG Export Plug-In . SVG Version: 6.00 Build 0)  -->
<svg version="1.1" id="Capa_1" xmlns="http://www.w3.org/2000/svg" xmlns:xlink="http://www.w3.org/1999/xlink" x="0px" y="0px"
	 viewBox="0 0 16 16" style="enable-background:new 0 0 16 16;" xml:space="preserve">
<style type="text/css">
	.st0{fill:#7AC943;}
	.st1{fill:#3FA9F5;}
	.st2{fill:#FF731E;}
</style>
<g>
	<path class="st0" d="M3.4,14.1c-1.5-0.4-2.3-1.4-2.3-2.9V10c0-0.9-0.4-1.3-1.1-1.3V7.3c0.7,0,1.1-0.4,1.1-1.2V4.8
		c0-0.8,0.2-1.4,0.6-1.9s0.9-0.8,1.7-1l0.4,1C3.4,3,3.2,3.2,3,3.5S2.7,4.2,2.7,4.7V6c0,0.9-0.4,1.6-1.1,2c0.7,0.4,1.1,1,1.1,2v1.3
		c0,1,0.3,1.6,1,1.8L3.4,14.1z"/>
	<path class="st1" d="M5.2,14.1l-0.9-0.5l0.2-0.4c0.3-0.5,0.4-1,0.4-1.5v-1.4h1.5l0,1.3c0,0.5-0.1,0.9-0.4,1.4
		C5.9,13.4,5.6,13.8,5.2,14.1z M4.6,5.8c0-0.3,0.1-0.5,0.3-0.7C5.1,5,5.3,4.9,5.6,4.9c0.3,0,0.5,0.1,0.7,0.3
		c0.2,0.2,0.3,0.4,0.3,0.7c0,0.3-0.1,0.5-0.3,0.7C6.2,6.7,5.9,6.8,5.6,6.8c-0.3,0-0.5-0.1-0.7-0.3C4.7,6.4,4.6,6.1,4.6,5.8z"/>
	<path class="st2" d="M8.6,12.6H7.2l3.4-9.9h1.3L8.6,12.6z"/>
	<path class="st0" d="M12.3,13.1c0.6-0.2,1-0.8,1-1.8V10c0-0.9,0.4-1.6,1.1-2c-0.8-0.4-1.1-1-1.1-2V4.7c0-1-0.3-1.6-1-1.8l0.4-1
		c0.7,0.2,1.3,0.5,1.7,1c0.4,0.5,0.6,1.1,0.6,1.9v1.3c0,0.8,0.4,1.2,1.1,1.2v1.3c-0.7,0-1.1,0.4-1.1,1.3v1.4c0,1.5-0.8,2.4-2.3,2.8
		L12.3,13.1z"/>
</g>
</svg>
