<?xml version="1.0" encoding="utf-8"?>
<!-- Generator: Adobe Illustrator 24.0.3, SVG Export Plug-In . SVG Version: 6.00 Build 0)  -->
<svg version="1.1" id="Capa_1" xmlns="http://www.w3.org/2000/svg" xmlns:xlink="http://www.w3.org/1999/xlink" x="0px" y="0px"
	 viewBox="0 0 16 16" style="enable-background:new 0 0 16 16;" xml:space="preserve">
<style type="text/css">
	.st0{fill:#7AC943;}
	.st1{fill:#926DCC;}
	.st2{fill:#FF4F4F;}
	.st3{fill:#BDCCD4;}
</style>
<g>
	<g>
		<path class="st0" d="M8,7L8,7C6.1,7,4.5,5.4,4.5,3.5v0C4.5,1.6,6.1,0,8,0h0c1.9,0,3.5,1.6,3.5,3.5v0C11.5,5.4,9.9,7,8,7z"/>
		<path class="st1" d="M12.5,16L12.5,16C10.6,16,9,14.4,9,12.5v0C9,10.6,10.6,9,12.5,9h0c1.9,0,3.5,1.6,3.5,3.5v0
			C16,14.4,14.4,16,12.5,16z"/>
		<path class="st2" d="M3.5,16L3.5,16C1.6,16,0,14.4,0,12.5v0C0,10.6,1.6,9,3.5,9h0C5.4,9,7,10.6,7,12.5v0C7,14.4,5.4,16,3.5,16z"/>
	</g>
	<g>
		<polygon class="st3" points="14,8 14,4 11,4 11,8 9,8 12.5,12 16,8 		"/>
		<polygon class="st3" points="4,6 2,4 0,4 0,12 2,12 2,7 4,9 6,7 6,12 8,12 8,4 6,4 		"/>
	</g>
</g>
</svg>
