<?xml version="1.0" encoding="utf-8"?>
<!-- Generator: Adobe Illustrator 24.0.3, SVG Export Plug-In . SVG Version: 6.00 Build 0)  -->
<svg version="1.1" id="Capa_1" xmlns="http://www.w3.org/2000/svg" xmlns:xlink="http://www.w3.org/1999/xlink" x="0px" y="0px"
	 viewBox="0 0 16 16" style="enable-background:new 0 0 16 16;" xml:space="preserve">
<style type="text/css">
	.st0{fill:#808080;}
	.st1{fill:#F37426;}
	.st2{fill:#979797;}
	.st3{fill:#676767;}
</style>
<g>
	<path id="H_1_" class="st0" d="M13.7,0.9c0,0.2,0,0.4-0.1,0.5s-0.2,0.3-0.4,0.4c-0.2,0.1-0.4,0.1-0.5,0.1c-0.2,0-0.4-0.1-0.5-0.2
		c-0.1-0.1-0.2-0.3-0.3-0.5c0-0.2,0-0.4,0-0.6c0.1-0.2,0.2-0.3,0.3-0.4C12.4,0.1,12.6,0,12.7,0c0.2,0,0.5,0.1,0.7,0.2
		C13.6,0.4,13.7,0.7,13.7,0.9L13.7,0.9z"/>
	<path id="I_1_" class="st1" d="M8.2,12.1c-2.5,0-4.7-0.9-5.8-2.3c0.4,1.2,1.2,2.3,2.3,3S6.9,14,8.2,14s2.5-0.4,3.6-1.2
		c1-0.7,1.8-1.8,2.3-3C12.9,11.2,10.7,12.1,8.2,12.1z"/>
	<path id="J_1_" class="st1" d="M8.2,3.2c2.5,0,4.7,0.9,5.8,2.3c-0.4-1.2-1.2-2.3-2.3-3S9.5,1.3,8.2,1.3S5.7,1.7,4.6,2.5
		s-1.8,1.8-2.3,3C3.5,4.2,5.7,3.2,8.2,3.2z"/>
	<path id="K_1_" class="st2" d="M4.8,14.7c0,0.2,0,0.5-0.2,0.7c-0.1,0.2-0.3,0.4-0.5,0.5C3.9,16,3.6,16,3.4,16
		c-0.2,0-0.4-0.1-0.6-0.3c-0.2-0.2-0.3-0.4-0.4-0.6c-0.1-0.2,0-0.5,0-0.7c0.1-0.2,0.2-0.4,0.4-0.6c0.2-0.1,0.4-0.2,0.7-0.2
		c0.3,0,0.6,0.1,0.9,0.3C4.6,14.1,4.8,14.4,4.8,14.7L4.8,14.7z"/>
	<path id="L_1_" class="st3" d="M2.7,2.9c-0.1,0-0.3,0-0.4-0.1C2.1,2.8,2.1,2.6,2,2.5C1.9,2.4,1.9,2.3,1.9,2.1C2,2,2,1.8,2.1,1.7
		c0.1-0.1,0.2-0.2,0.3-0.2c0.1,0,0.3,0,0.4,0c0.1,0,0.2,0.1,0.3,0.2c0.2,0.3,0.2,0.6,0,0.9C3,2.8,2.8,2.9,2.7,2.9L2.7,2.9z"/>
</g>
</svg>
