<?xml version="1.0" encoding="utf-8"?>
<!-- Generator: Adobe Illustrator 24.0.3, SVG Export Plug-In . SVG Version: 6.00 Build 0)  -->
<svg version="1.1" id="Capa_1" xmlns="http://www.w3.org/2000/svg" xmlns:xlink="http://www.w3.org/1999/xlink" x="0px" y="0px"
	 viewBox="0 0 16 16" style="enable-background:new 0 0 16 16;" xml:space="preserve">
<style type="text/css">
	.st0{fill:#7AC943;}
	.st1{fill:#FFFFFF;}
	.st2{fill:#FF731E;}
</style>
<g>
	<g>
		<path class="st0" d="M1.3,14.4L0,0h14.1l-1.3,14.4L7,16"/>
		<polygon class="st1" points="7.1,2.9 2.6,2.9 2.7,4.7 7.1,4.7 9.6,4.7 9,10.6 7.1,11.2 7,11.2 5.1,10.6 5,9.2 3.2,9.2 3.4,12 
			7,13 7.1,13 10.7,11.9 11.5,2.9 		"/>
	</g>
	<path class="st2" d="M13.9,14.2l0.3-0.3c1.4,0,1.4,0,1.4-0.1l0.4-0.9l0-0.1l0-0.1c0,0-0.1-0.2-0.9-1v-0.4c1-0.9,1-1,0.9-1.1
		l-0.4-0.9c-0.1-0.1-0.1-0.2-1.4-0.2l-0.3-0.3c0-0.4,0-0.9,0-1.3l0-0.1l-1-0.4C12.7,7,12.6,7,11.7,7.9l-0.4,0c-0.9-1-1-1-1.1-0.9
		L9.3,7.4C9.1,7.4,9.1,7.5,9.1,8.8L8.8,9.1c-1.4,0-1.4,0-1.4,0.1L7,10.1l0,0.1l0,0.1c0,0,0.1,0.2,0.9,1v0.4c-1,0.9-1,1-0.9,1.1
		l0.4,0.9c0.1,0.1,0.1,0.2,1.4,0.2l0.3,0.3c0,0.4,0,0.9,0,1.3l0,0.1l1,0.4c0.1,0.1,0.2,0.1,1.1-0.9l0.4,0c0.9,1,1,1,1.1,0.9l0.9-0.4
		C13.9,15.6,13.9,15.5,13.9,14.2z M10,12.1c-0.3-0.8,0.1-1.7,0.9-2.1c0.8-0.3,1.8,0.1,2.1,0.9c0.3,0.8-0.1,1.7-0.9,2
		C11.3,13.3,10.3,12.9,10,12.1z"/>
</g>
</svg>
