<?xml version="1.0" encoding="utf-8"?>
<!-- Generator: Adobe Illustrator 24.0.3, SVG Export Plug-In . SVG Version: 6.00 Build 0)  -->
<svg version="1.1" id="Capa_1" xmlns="http://www.w3.org/2000/svg" xmlns:xlink="http://www.w3.org/1999/xlink" x="0px" y="0px"
	 viewBox="0 0 16 16" style="enable-background:new 0 0 16 16;" xml:space="preserve">
<style type="text/css">
	.st0{fill:#3FA9F5;}
	.st1{fill:#7AC943;}
	.st2{fill:#926DCC;}
	.st3{fill:#FF7BAC;}
</style>
<g>
	<path class="st0" d="M3.7,16c-1,0-1.6-0.2-2.1-0.7C1.2,14.8,1,13.9,1,12.7v-2.2c0-1.1-0.3-1.7-1-1.7V7.2c0.7,0,1-0.6,1-1.7v-2
		c0-1.2,0.2-2.1,0.6-2.6S2.8,0,3.7,0v1.7c-0.7,0-1,0.5-1,1.6v1.9c0,1.5-0.3,2.4-1,2.8v0c0.7,0.4,1,1.3,1,2.8v1.9
		c0,0.6,0.1,1,0.2,1.3c0.2,0.2,0.4,0.4,0.8,0.4V16z"/>
	<path class="st0" d="M16,8.8c-0.7,0-1,0.6-1,1.7v2.1c0,1.3-0.2,2.2-0.6,2.6c-0.4,0.5-1.1,0.7-2.1,0.7v-1.7c0.4,0,0.6-0.1,0.8-0.4
		c0.2-0.2,0.2-0.7,0.2-1.3v-1.9c0-1.4,0.3-2.4,1-2.7v0c-0.7-0.4-1-1.3-1-2.8V3.3c0-1.1-0.3-1.6-1-1.6V0c1,0,1.6,0.3,2.1,0.8
		C14.8,1.3,15,2.1,15,3.4v2.1c0,1.1,0.3,1.7,1,1.7V8.8z"/>
	<circle class="st1" cx="8" cy="2.4" r="2"/>
	<polygon class="st2" points="10,10 6,6 10,6 	"/>
	<rect x="6" y="11.6" class="st3" width="4" height="4"/>
</g>
</svg>
