<?xml version="1.0" encoding="utf-8"?>
<!-- Generator: Adobe Illustrator 24.0.3, SVG Export Plug-In . SVG Version: 6.00 Build 0)  -->
<svg version="1.1" id="Capa_1" xmlns="http://www.w3.org/2000/svg" xmlns:xlink="http://www.w3.org/1999/xlink" x="0px" y="0px"
	 viewBox="0 0 16 16" style="enable-background:new 0 0 16 16;" xml:space="preserve">
<style type="text/css">
	.st0{fill:#926DCC;}
	.st1{fill:#FFFFFF;}
	.st2{fill:#F6F6F6;stroke:#000000;stroke-width:0.1428;stroke-miterlimit:10;}
</style>
<g>
	<g>
		<path class="st0" d="M15.2,10.2c0,0.8-0.6,1.4-1.4,1.4H2.3c-0.8,0-1.4-0.6-1.4-1.4V5.8c0-0.8,0.6-1.4,1.4-1.4h11.5
			c0.8,0,1.4,0.6,1.4,1.4V10.2z"/>
	</g>
	<path class="st1" d="M12.8,7.9C13.3,8,13.7,8.5,13.7,9c0,0.3-0.1,0.6-0.4,0.8c-0.3,0.2-0.7,0.3-1.1,0.3c-0.5,0-0.9-0.1-1.3-0.4
		c0-0.1,0-0.3,0.1-0.4c0-0.1,0.1-0.2,0.2-0.3c0.3,0.2,0.6,0.3,0.9,0.3c0.1,0,0.2,0,0.3-0.1c0.1,0,0.1-0.1,0.1-0.2
		c0-0.1-0.1-0.2-0.3-0.3l-0.4-0.1c-0.6-0.2-0.8-0.5-0.8-1c0-0.3,0.1-0.6,0.4-0.8c0.3-0.2,0.6-0.4,1-0.4c0.2,0,0.4,0,0.7,0.1
		c0.2,0.1,0.4,0.2,0.6,0.3c0,0.1,0,0.3-0.1,0.4c0,0.1-0.1,0.2-0.2,0.3c-0.3-0.1-0.6-0.2-0.9-0.3c-0.1,0-0.1,0-0.2,0.1
		c0,0-0.1,0.1-0.1,0.2c0,0.1,0.1,0.2,0.3,0.3L12.8,7.9L12.8,7.9z"/>
	<path class="st1" d="M9.8,7.9C10.3,8,10.7,8.5,10.7,9c0,0.3-0.1,0.6-0.4,0.8C10,10,9.6,10.1,9.2,10.1C8.8,10.1,8.3,10,8,9.8
		C8,9.6,8,9.5,8,9.4c0-0.1,0.1-0.2,0.2-0.3c0.3,0.2,0.6,0.3,0.9,0.3c0.1,0,0.2,0,0.3-0.1c0.1,0,0.1-0.1,0.1-0.2
		c0-0.1-0.1-0.2-0.3-0.3L8.9,8.6C8.3,8.4,8,8.1,8,7.6C8,7.3,8.2,7,8.4,6.8c0.3-0.2,0.6-0.4,1-0.4c0.2,0,0.4,0,0.7,0.1
		c0.2,0.1,0.4,0.2,0.6,0.3c0,0.1,0,0.3-0.1,0.4c0,0.1-0.1,0.2-0.2,0.3C10,7.4,9.7,7.3,9.4,7.3c-0.1,0-0.1,0-0.2,0.1
		c0,0-0.1,0.1-0.1,0.2c0,0.1,0.1,0.2,0.3,0.3L9.8,7.9z"/>
	<path class="st1" d="M7.6,8c0-0.2,0-0.4-0.1-0.6C7.4,7.2,7.3,7.1,7.2,6.9C7.1,6.8,6.9,6.7,6.8,6.6C6.6,6.5,6.4,6.5,6.2,6.5
		c-0.2,0-0.5,0.1-0.7,0.2C5.3,6.7,5.1,6.9,5,7C4.9,7.2,4.8,7.4,4.7,7.6C4.7,7.8,4.6,8,4.7,8.3c0,0.2,0,0.5,0.1,0.7
		c0,0.2,0.1,0.4,0.3,0.6c0.1,0.2,0.3,0.3,0.5,0.4c0.2,0.1,0.5,0.2,0.7,0.2c0.5,0,0.9-0.1,1.3-0.4c0-0.2-0.1-0.4-0.3-0.6
		C7.1,9.1,6.9,9.2,6.7,9.2c-0.1,0-0.2,0-0.4,0c-0.2,0-0.3,0-0.5-0.2C5.8,9,5.7,8.8,5.7,8.7h1.8C7.6,8.4,7.6,8.2,7.6,8z M5.7,8
		c0-0.2,0-0.4,0.1-0.6C5.9,7.3,6,7.3,6.2,7.3c0.1,0,0.3,0.1,0.3,0.2c0.1,0.2,0.1,0.3,0.1,0.5V8L5.7,8L5.7,8z"/>
	<path class="st2" d="M15.5,8.5c-0.2,0.2-0.3,0.4-0.3,0.7v1.2c0,0.3-0.1,0.7-0.4,0.9c-0.3,0.2-0.6,0.3-0.9,0.3h-0.2V11
		c0.1,0,0.2-0.1,0.3-0.2c0.2-0.2,0.2-0.4,0.2-0.6V9.2c0-0.3,0-0.5,0.1-0.8c0.2-0.2,0.4-0.4,0.7-0.5c-0.3-0.1-0.6-0.4-0.8-0.7
		c-0.1-0.2-0.1-0.4-0.1-0.7V5.8c0-0.2-0.1-0.4-0.2-0.6C13.9,5.1,13.8,5,13.7,5V4.5c0.3,0,0.4,0,0.5,0c0.2,0,0.4,0.1,0.6,0.3
		c0.2,0.1,0.3,0.3,0.4,0.6c0,0.1,0.1,0.3,0,0.4v1c0,0.3,0.1,0.6,0.3,0.8c0.1,0.1,0.3,0.2,0.5,0.3v0.5C15.8,8.2,15.7,8.3,15.5,8.5
		L15.5,8.5z"/>
	<path class="st2" d="M2.1,4.5H1.9c-0.2,0-0.4,0.1-0.6,0.3C1.1,4.8,0.9,5.1,0.9,5.3c0,0.1,0,0.3,0,0.4v1c0,0.3-0.1,0.6-0.3,0.8
		C0.4,7.6,0.2,7.7,0,7.8v0.5c0.2,0,0.4,0.1,0.5,0.2c0.2,0.2,0.3,0.4,0.3,0.7v1.2c0,0.3,0.1,0.7,0.4,0.9c0.3,0.2,0.6,0.3,0.9,0.3h0.2
		V11c-0.1,0-0.3-0.1-0.4-0.2c-0.2-0.2-0.2-0.4-0.2-0.6V9.2c0-0.3,0-0.5-0.2-0.8C1.5,8.2,1.3,8.1,1,8c0.3-0.1,0.6-0.4,0.8-0.7
		c0.1-0.2,0.1-0.4,0.1-0.7V5.8c0-0.2,0-0.4,0.2-0.6C2.1,5.1,2.2,5.1,2.4,5h0.2V4.5H2.1z"/>
	<path class="st1" d="M4.3,9.2H4.1c-0.2,0-0.3-0.1-0.3-0.3V5c0-0.2,0-0.4-0.2-0.5C3.6,4.5,3.5,4.5,3.2,4.5H2.8h0v4.6
		c0,0.3,0.1,0.5,0.2,0.7C3.2,10,3.4,10,3.6,10c0.2,0,0.5,0,0.7-0.1c0-0.1,0-0.2,0-0.3C4.4,9.5,4.4,9.4,4.3,9.2L4.3,9.2z"/>
</g>
</svg>
