<?xml version="1.0" encoding="utf-8"?>
<!-- Generator: Adobe Illustrator 24.0.3, SVG Export Plug-In . SVG Version: 6.00 Build 0)  -->
<svg version="1.1" id="Capa_1" xmlns="http://www.w3.org/2000/svg" xmlns:xlink="http://www.w3.org/1999/xlink" x="0px" y="0px"
	 viewBox="0 0 16 16" style="enable-background:new 0 0 16 16;" xml:space="preserve">
<style type="text/css">
	.st0{fill:#CCCCCC;}
	.st1{fill:#4D4D4D;}
	.st2{fill:#7AC943;}
</style>
<g>
	<path id="_x30_2_30_" class="st0" d="M10.4,0H3.7c-1.1,0-2,0.9-2,2v12c0,1.1,0.9,2,2,2h8.7c1.1,0,2-0.9,2-2V3.9L10.4,0z"/>
	<g>
		<path id="_x30_2_29_" class="st1" d="M10.1,0.7l3.5,3.5V14c0,0.7-0.6,1.3-1.3,1.3H3.7c-0.7,0-1.3-0.6-1.3-1.3V2
			c0-0.7,0.6-1.3,1.3-1.3H10.1 M10.4,0H3.7c-1.1,0-2,0.9-2,2v12c0,1.1,0.9,2,2,2h8.7c1.1,0,2-0.9,2-2V3.9L10.4,0L10.4,0z"/>
		<path id="_x30_2_28_" class="st1" d="M10.2,2V0l4.1,4.1h-2C11.2,4.1,10.2,3.2,10.2,2z"/>
	</g>
	<g>
		<path class="st1" d="M11.5,7.1c0-1.9-1.6-3.5-3.5-3.5S4.5,5.2,4.5,7.1c0,1.3,0.7,2.5,1.8,3.1V14L8,12.3L9.7,14v-3.8
			C10.8,9.6,11.5,8.4,11.5,7.1z M8,9.7c-1.4,0-2.5-1.1-2.5-2.5S6.6,4.6,8,4.6s2.5,1.1,2.5,2.5S9.4,9.7,8,9.7z"/>
		<circle class="st2" cx="8" cy="7.1" r="1.6"/>
	</g>
</g>
</svg>
