<?xml version="1.0" encoding="utf-8"?>
<!-- Generator: Adobe Illustrator 24.0.3, SVG Export Plug-In . SVG Version: 6.00 Build 0)  -->
<svg version="1.1" id="Capa_1" xmlns="http://www.w3.org/2000/svg" xmlns:xlink="http://www.w3.org/1999/xlink" x="0px" y="0px"
	 viewBox="0 0 16 16" style="enable-background:new 0 0 16 16;" xml:space="preserve">
<style type="text/css">
	.st0{fill:#FFFFFF;}
	.st1{fill:#3FA9F5;}
</style>
<g>
	<path class="st0" d="M8.3,16l0-0.2c0.2,0,0.5,0,0.7-0.1l0,0.2C8.7,16,8.5,16,8.3,16z M7.6,16c-0.2,0-0.5,0-0.7-0.1l0-0.2
		c0.2,0,0.5,0.1,0.7,0.1L7.6,16z M9.7,15.8l0-0.2c0.2,0,0.4-0.1,0.7-0.2l0.1,0.2C10.1,15.7,9.9,15.8,9.7,15.8z M6.2,15.8
		c-0.2-0.1-0.5-0.1-0.7-0.2l0.1-0.2c0.2,0.1,0.4,0.1,0.7,0.2L6.2,15.8z M11,15.4l-0.1-0.2c0.2-0.1,0.4-0.2,0.6-0.3h0l0.1,0.2l0,0
		C11.4,15.2,11.2,15.3,11,15.4L11,15.4z M4.9,15.4c-0.2-0.1-0.4-0.2-0.6-0.3l0.1-0.2C4.5,15,4.7,15.1,5,15.2L4.9,15.4z M12.2,14.8
		l-0.1-0.2c0.2-0.1,0.4-0.2,0.6-0.4l0.1,0.1C12.6,14.5,12.4,14.7,12.2,14.8L12.2,14.8z M3.6,14.7c-0.2-0.1-0.4-0.3-0.6-0.4l0.1-0.1
		c0.2,0.1,0.4,0.3,0.6,0.4L3.6,14.7z M13.4,13.9l-0.1-0.1c0.2-0.2,0.3-0.3,0.5-0.5l0.1,0.1C13.7,13.6,13.5,13.8,13.4,13.9L13.4,13.9
		z M2.5,13.9c-0.2-0.2-0.3-0.3-0.5-0.5l0.1-0.1c0.2,0.2,0.3,0.3,0.5,0.5L2.5,13.9z M14.3,12.9l-0.1-0.1c0.1-0.2,0.3-0.4,0.4-0.6
		l0.2,0.1C14.6,12.6,14.4,12.7,14.3,12.9z M1.6,12.8c-0.1-0.2-0.3-0.4-0.4-0.6l0.2-0.1c0.1,0.2,0.3,0.4,0.4,0.6L1.6,12.8z
		 M15.1,11.8l-0.2-0.1c0.1-0.2,0.2-0.4,0.3-0.6l0.2,0.1C15.3,11.3,15.2,11.6,15.1,11.8L15.1,11.8z M0.9,11.6L0.9,11.6
		c-0.1-0.2-0.2-0.4-0.3-0.6l0.2-0.1c0.1,0.2,0.2,0.4,0.3,0.6l0,0L0.9,11.6z M15.6,10.5l-0.2-0.1c0.1-0.2,0.1-0.4,0.2-0.7l0.2,0
		C15.7,10,15.7,10.3,15.6,10.5z M0.3,10.3c-0.1-0.2-0.1-0.4-0.2-0.7l0.2,0c0,0.2,0.1,0.4,0.2,0.7L0.3,10.3z M15.9,9.1l-0.2,0
		c0-0.2,0.1-0.5,0.1-0.7l0.2,0C16,8.6,16,8.9,15.9,9.1z M0.1,9C0,8.8,0,8.5,0,8.3l0.2,0c0,0.2,0,0.5,0.1,0.7L0.1,9z M15.8,7.7
		c0-0.2,0-0.5-0.1-0.7l0.2,0c0,0.2,0,0.5,0.1,0.7L15.8,7.7z M0.2,7.6L0,7.6c0-0.2,0-0.5,0.1-0.7l0.2,0C0.2,7.1,0.2,7.4,0.2,7.6z
		 M15.6,6.4c0-0.2-0.1-0.4-0.2-0.7l0.2-0.1c0.1,0.2,0.1,0.4,0.2,0.7L15.6,6.4z M0.4,6.2l-0.2,0C0.3,6,0.3,5.8,0.4,5.5l0.2,0.1
		C0.5,5.8,0.4,6,0.4,6.2z M15.2,5.1c-0.1-0.2-0.2-0.4-0.3-0.6l0.2-0.1c0.1,0.2,0.2,0.4,0.3,0.6L15.2,5.1z M0.8,5L0.6,4.9
		c0.1-0.2,0.2-0.4,0.3-0.6l0.2,0.1C1,4.5,0.9,4.7,0.8,5z M1.4,3.7L1.3,3.6c0.1-0.2,0.3-0.4,0.4-0.6l0.1,0.1C1.7,3.4,1.6,3.6,1.4,3.7
		z M2.3,2.7L2.1,2.5c0.2-0.2,0.3-0.3,0.5-0.5l0.1,0.1C2.6,2.3,2.4,2.5,2.3,2.7z M3.3,1.8L3.2,1.6c0.2-0.1,0.4-0.3,0.6-0.4l0.1,0.2
		C3.7,1.5,3.5,1.6,3.3,1.8L3.3,1.8z M12.3,1.4L12.3,1.4l0.1-0.2l0,0L12.3,1.4z M11.7,1.1C11.5,1,11.2,0.9,11,0.8l0.1-0.2
		c0.2,0.1,0.4,0.2,0.6,0.3L11.7,1.1z M4.4,1L4.4,0.9l0,0C4.6,0.8,4.8,0.7,5,0.6l0.1,0.2C4.9,0.8,4.6,0.9,4.4,1L4.4,1z M10.4,0.6
		C10.2,0.5,10,0.4,9.7,0.4l0-0.2c0.2,0.1,0.5,0.1,0.7,0.2L10.4,0.6z M5.7,0.5L5.6,0.4c0.2-0.1,0.4-0.1,0.7-0.2l0,0.2
		C6.1,0.4,5.9,0.5,5.7,0.5z M9.1,0.3c-0.2,0-0.5-0.1-0.7-0.1l0-0.2c0.2,0,0.5,0,0.7,0.1L9.1,0.3z M7,0.2l0-0.2C7.2,0,7.5,0,7.7,0
		l0,0.2C7.5,0.2,7.3,0.2,7,0.2L7,0.2z"/>
	<circle class="st1" cx="8" cy="8" r="6.1"/>
	<circle class="st0" cx="10.5" cy="5.5" r="1.8"/>
	<circle class="st1" cx="14.1" cy="1.9" r="1.8"/>
</g>
</svg>
