<?xml version="1.0" encoding="utf-8"?>
<!-- Generator: Adobe Illustrator 24.0.3, SVG Export Plug-In . SVG Version: 6.00 Build 0)  -->
<svg version="1.1" id="Capa_1" xmlns="http://www.w3.org/2000/svg" xmlns:xlink="http://www.w3.org/1999/xlink" x="0px" y="0px"
	 viewBox="0 0 16 16" style="enable-background:new 0 0 16 16;" xml:space="preserve">
<style type="text/css">
	.st0{fill:#FFFFFF;}
</style>
<g>
	<path class="st0" d="M3,9.5C3,9.6,2.8,9.7,2.7,9.7c-0.2-0.1-0.3-0.1-0.5,0C2,9.8,1.8,9.7,1.9,9.5c0-0.2,0.1-0.4,0.3-0.6
		c0.5-0.3,0.1-0.5,0.4-0.7s0.2-0.4,0.2-0.7C2,7.4,1.3,7,0.9,6.4C0.4,5.8,0.1,5,0,4.2c-0.1-0.7,0-1.5,0.4-2.2
		c0.3-0.6,0.8-1.1,1.5-1.4c0.6-0.3,1.3-0.5,2-0.4c0.5,0,1,0.1,1.4,0.3c0.3,0.2,0.6,0.4,0.9,0.5c0.2,0,0.3,0,0.4-0.1
		c0,0.7-0.6,0.7-1.1,0.8S4.6,1.3,4.1,1.4c-0.7,0.1-1.3,0.4-1.7,1C2,2.9,1.9,3.4,2,4c0,0.5,0.4,0.9,0.8,1c0.3,0,0.3-0.1,0.6-0.2
		c0.2-0.2,1.5-1.7,2-2.1c0.4-0.3,0.8-0.5,1.3-0.5c0.3,0,0.7,0,1,0.2c0.3,0.2,0.6,0.4,0.9,0.6c0.1-0.1,0.3-0.2,0.4-0.3
		c0.4-0.3,0.9-0.5,1.4-0.4c0.4,0.1,0.7,0.2,1,0.5c0.4,0.4,0.8,0.9,1.1,1.4c0.2,0.4,0.5,0.7,0.9,0.9c0.4,0.1,0.8-0.4,0.8-0.8
		c0-0.2,0.1-0.4,0.1-0.5c0-0.2,0-0.4-0.1-0.6c-0.1-0.2-0.1-0.4-0.3-0.6c-0.2-0.3-0.4-0.5-0.7-0.7c-0.2-0.1-0.5-0.2-0.8-0.2
		c-0.3,0-0.5,0.1-0.8,0.1c-0.3,0-0.9,0.1-1.2-0.2c-0.1-0.1-0.2-0.3-0.2-0.5C10.3,1,10.4,1,10.5,1c0.2,0,0.4-0.2,0.6-0.3
		c0.2-0.1,0.3-0.2,0.5-0.3c0.5-0.2,1-0.2,1.5-0.1c0.4,0.1,0.9,0.2,1.3,0.4C14.7,1,15,1.3,15.3,1.6c0.3,0.4,0.5,0.8,0.6,1.2
		C16,3.5,16,4.3,15.9,5c-0.2,0.6-0.5,1.2-1,1.6c-0.4,0.3-0.8,0.6-1.3,0.6c0,0.1,0,0.2,0,0.3c0,0.1,0.1,0.2,0.3,0.2
		c0.1,0,0.1,0,0.2,0c0.1,0.1,0,0.3-0.2,0.4c-0.1,0.1-0.3,0.1-0.4,0.1c-0.2,0-0.4,0-0.6,0c-0.2,0-0.3-0.2-0.5-0.2
		C12,8,11.7,7.8,11.5,7.6c-0.1,0-0.1-0.1-0.2-0.1c0,0.1,0.1,0.2,0.1,0.3c0,0.1,0,0.2,0,0.3s0,0.1,0,0.2c0.1,0,0.1,0.1,0.2,0.1
		c0.1,0,0.2,0,0.3,0c0.1,0,0.1-0.1,0.2,0c0.1,0,0.1,0.1,0.2,0.1c0.1,0,0.1,0.1,0.2,0.2c0.1,0.2,0.1,0.3,0.1,0.5c0,0.1,0,0.3-0.1,0.4
		c0,0.1-0.1,0.2-0.2,0.3c-0.2,0.2-0.3,0.3-0.5,0.4c0,0.1,0.1,0.1,0.1,0.2c0.1,0.1,0.2,0.1,0.2,0.2c0.1,0,0.1,0.1,0.1,0.2
		c0,0.1,0,0.2-0.1,0.2c-0.1,0.2-0.3,0.3-0.5,0.3c0,0.2,0.1,0.4,0,0.6c0,0.1-0.1,0.3-0.2,0.3c-0.2,0-0.3,0-0.5,0
		c-0.1,0-0.2,0-0.3,0.1c-0.1,0.1-0.1,0.2-0.2,0.3c0,0.1,0,0.1,0,0.2c0,0.1,0.1,0.2,0.1,0.3c0,0.1,0,0.2,0,0.3c0,0.1-0.1,0.2-0.2,0.3
		c-0.1,0.1-0.3,0.2-0.3,0.2c-0.1,0.1-0.2,0.1-0.1,0.2c0.1,0.2,0.2,0.4,0.4,0.5c0.1,0,0.3,0,0.4,0c0,0.1-0.1,0.2-0.2,0.3
		c0.2-0.1,0.4-0.2,0.6-0.3c-0.1,0.2-0.2,0.4-0.4,0.5c-0.1,0.1-0.2,0.2-0.3,0.2c0.2,0,0.4,0,0.6,0c-0.1,0.1-0.3,0.1-0.4,0.1
		c-0.2,0-0.3,0-0.5,0c-0.2-0.1-0.4-0.2-0.5-0.3c0,0.1,0.1,0.2,0.1,0.3c0.1,0.1,0.2,0.1,0.4,0.2c-0.2,0-0.4,0-0.5-0.1
		c-0.1,0-0.2-0.1-0.3-0.1C9,15.6,9,15.5,8.9,15.4c0,0.1,0.1,0.2,0.1,0.2c0.1,0.1,0.2,0.1,0.3,0.1c-0.1,0-0.2,0-0.3,0
		c-0.1,0-0.2-0.1-0.3-0.1c-0.1-0.1-0.2-0.2-0.3-0.3c-0.1-0.1-0.2-0.2-0.2-0.3c0-0.1,0-0.1,0-0.2c-0.1,0-0.1,0.1-0.2,0.1
		C8,15,7.9,15.1,8,15.2c0,0.1,0.1,0.2,0.2,0.3c-0.2-0.2-0.3-0.2-0.4-0.4c0-0.2,0-0.3,0.2-0.5c0-0.1,0.1-0.1,0.1-0.2
		c-0.1-0.1-0.2-0.2-0.3-0.3c-0.1-0.1-0.1-0.2-0.2-0.3c-0.1-0.1-0.2-0.2-0.3-0.2c0.1,0.2,0.2,0.3,0.2,0.5c0,0.1,0,0.2-0.1,0.3
		c0,0.1-0.1,0.1-0.2,0.1c-0.1,0-0.2,0-0.2,0.1c0,0.1-0.1,0.2,0,0.2l0.2,0.3c-0.1,0-0.2-0.1-0.2-0.2c0-0.1-0.1-0.1-0.1-0.2
		c0-0.1,0-0.2,0-0.2c0.1-0.1,0.2-0.1,0.3-0.2c0.1-0.1,0.1-0.1,0.1-0.2S7.3,14,7.2,14c-0.2-0.1-0.4-0.3-0.6-0.5
		c-0.1-0.1-0.1-0.2-0.2-0.3c0-0.1,0-0.2,0-0.2c0-0.1,0.2-0.2,0.2-0.3c0-0.1-0.1-0.1-0.1-0.1c-0.1,0-0.2,0-0.3,0
		c-0.1-0.1,0-0.2-0.1-0.2c-0.1-0.1-0.3,0-0.3-0.1c-0.1-0.1-0.1-0.2-0.2-0.3c0-0.1,0-0.2,0-0.3c0-0.1,0.1-0.1,0.1-0.1
		c0,0,0.1-0.1,0-0.1c-0.1-0.1-0.2,0-0.3-0.1c-0.1-0.1,0-0.3-0.1-0.3c-0.1-0.1-0.2,0-0.3-0.1c-0.1,0-0.1,0.1-0.1-0.1
		c0-0.1,0-0.5-0.1-0.7c-0.1-0.1-0.2,0-0.2-0.2c0-0.2,0-0.4,0-0.6L4.6,8.8C4.2,9,3.2,9.3,3,9.5"/>
	<path d="M8.4,3.6c0,0.2,0,0.4,0,0.5c0,0.2,0.1,0.3,0.2,0.4c0.3,0.2,0.4,0.2,0.6,0.3C9.4,4.8,9.5,4.9,9.5,5c0,0.1,0,0.2-0.1,0.2
		c0.1,0,0.2-0.1,0.2-0.2c0,0,0-0.1,0-0.1c0-0.1-0.2-0.1-0.2-0.2c0-0.1,0-0.1,0-0.2c0-0.1,0.3-0.3,0.4-0.4C9.9,4.1,10,3.9,9.9,3.7
		C9.7,3.4,9.4,3.2,9.1,3.1C9,3,8.9,3,8.8,3C9,3.1,9.2,3.2,9.3,3.4c0.1,0.2,0,0.3,0,0.5C9.3,4,9.4,4,9.5,4.1c0.1,0.1,0,0.1,0,0.1
		c0-0.1,0-0.1-0.1-0.1C9.3,4.1,9.3,4.1,9.2,4C9.2,3.8,9.3,3.6,9.1,3.4C9.1,3.3,8.9,3.2,8.7,3.1c-0.1,0-0.2,0-0.2,0L8.4,3l0,0
		C8.1,2.8,7.9,2.6,7.6,2.5C7.3,2.3,7,2.3,6.7,2.3c-0.5,0-0.9,0.1-1.3,0.4C5,3.1,3.8,4.7,3.5,4.9C3.3,5,3,5.1,2.8,5.1
		C2.2,5,1.8,4.5,1.8,4C1.7,3.4,1.9,2.8,2.2,2.3c0.4-0.6,1.1-1,1.8-1.1c0.5,0,0.9,0,1.4,0.1c0.4,0,0.9-0.1,1-0.4C6.4,1,6.2,1,6.1,1
		C5.8,0.9,5.4,0.8,5.2,0.6C4.7,0.4,4.3,0.3,3.8,0.3C3.2,0.3,2.6,0.4,2,0.7C1.4,1,0.9,1.5,0.5,2.1C0.2,2.8,0.1,3.5,0.2,4.2
		C0.2,5,0.5,5.7,1,6.3c0.4,0.6,1.1,1,1.9,1L3,6.5L2.7,7l0-0.5L2.4,6.8L2.3,6.3L2,6.7L1.9,6.1L1.6,6.4l0.1-0.5L1.2,6l0.2-0.3L1,5.7
		l0.3-0.4L0.9,5.2l0.3-0.4L0.7,4.6l0.4-0.4L0.7,4L1,3.7L0.7,3.4L1,3L0.9,2.6l0.3-0.2l0.1-0.5l0.3-0.1l0.2-0.4l0.4,0l0.2-0.4l0.5,0
		l0.4-0.2l0.4,0.1l0.5-0.2l0.4,0.1l0.5,0.1l0.5,0.4L4.9,0.9L4.5,1L4.2,0.9L4,1L3.6,1L3.3,1L3.1,1.3l-0.5,0L2.4,1.7L2,1.9l0,0.5
		L1.6,2.6L1.7,3L1.5,3.4l0.2,0.4L1.5,4.2l0.3,0.2L1.7,4.9L2,5l0.1,0.4l0.4,0l0.3,0.3l0.3-0.3C3.6,5.2,4,4.8,4.4,4.4
		c0.4-0.6,0.9-1,1.5-1.4c0.4-0.3,0.9-0.4,1.4-0.3c0.5,0.1,0.7,0.4,1.1,0.7c0-0.1,0.1-0.1,0.1-0.1C8.4,3.4,8.4,3.5,8.4,3.6L8.4,3.6z
		 M11,7C11,7,11,7,10.9,7.1c-0.1,0-0.1,0-0.2,0c0.1,0.2,0.2,0.3,0.3,0.5c0.1,0.2,0.2,0.3,0.3,0.5c0-0.1,0-0.2,0-0.3
		c0-0.1-0.1-0.2-0.1-0.3C11.1,7.3,11.1,7.2,11,7L11,7z M11,6.1C11,6.1,11.1,6.1,11,6.1c0.2,0.1,0.2,0.1,0.2,0.2c0,0.1,0,0.2,0,0.3
		c0,0-0.1,0-0.1,0c0,0-0.1-0.1-0.1-0.1c0,0-0.1,0-0.1,0c0,0.1,0,0.1,0,0.2c0,0.1-0.1,0.2-0.2,0.2c-0.1,0-0.1,0-0.2,0
		c0,0.1,0.1,0.1,0.1,0.1c0.1,0,0.2,0,0.3,0c0.1,0,0.1-0.1,0.2-0.1c0.1,0,0.1,0,0.2,0c-0.1,0.1-0.1,0.1-0.2,0.2l0.1,0.4
		c0.1,0.1,0.2,0.1,0.3,0.2c0.1,0.1,0.3,0.2,0.4,0.3c0.1,0.1,0.3,0.1,0.4,0.2c0.2,0,0.3,0.2,0.5,0.2c0.2,0,0.4,0,0.6,0
		c0.1,0,0.3-0.1,0.4-0.3c-0.2,0-0.4-0.1-0.4-0.2c0-0.1,0-0.3-0.1-0.4c-0.1-0.1-0.2-0.2-0.3-0.3c-0.1-0.2-0.3-0.4-0.4-0.6
		c-0.1-0.2-0.1-0.4-0.2-0.6c-0.1-0.2-0.2-0.3-0.3-0.5c-0.2-0.3-0.4-0.5-0.7-0.7c-0.2-0.1-0.4-0.1-0.5-0.1c-0.1,0-0.2,0.1-0.2,0.2
		c0,0.1,0,0.2,0.1,0.3C11,5,11.1,5.1,11.2,5.3c0,0.2,0,0.4,0,0.6C11.1,5.9,11.1,6,11,6.1L11,6.1z M10.2,6.2c0.2-0.1,0.3-0.1,0.5-0.1
		c0.1,0,0.2,0,0.3,0C11,6,11,5.9,11.1,5.8c0-0.2,0-0.3,0-0.5c-0.1-0.2-0.2-0.3-0.3-0.4c-0.1-0.1-0.1-0.3-0.1-0.4
		c0-0.1,0-0.1-0.1-0.2c-0.2,0-0.4,0-0.6,0c0.1-0.1,0.2-0.2,0.2-0.3c0-0.2,0-0.3-0.1-0.4C10,3.4,9.9,3.3,9.8,3.2
		C9.7,3.1,9.5,3,9.4,2.9c0.1-0.1,0.3-0.1,0.4-0.2c0.4-0.1,0.7,0,1.1,0.3c0.2,0.1,0.4,0.3,0.6,0.5c0.2,0.2,0.5,0.6,0.7,0.9
		c0.2,0.2,0.4,0.4,0.6,0.6c0.2,0.1,0.3,0.2,0.5,0.3l0.3,0.3l0.2-0.3l0.4,0l0.1-0.4l0.3-0.1l-0.1-0.5l0.2-0.2l-0.2-0.3l0.2-0.4
		L14.5,3l0.1-0.4l-0.3-0.2l0-0.4l-0.4-0.1l-0.2-0.4l-0.4,0l-0.2-0.3l-0.3,0l-0.3,0L12.3,1L12,1.1L11.7,1l-0.6,0.2l0.4-0.4l0.4-0.1
		l0.3-0.1l0.4,0.1l0.4-0.1L13.5,1l0.4,0l0.2,0.3l0.4,0l0.2,0.4l0.2,0.1L15,2.4l0.2,0.2L15.1,3l0.3,0.3l-0.2,0.4l0.3,0.2L15,4.2
		l0.3,0.4L15,4.7l0.3,0.4l-0.3,0.1l0.2,0.4l-0.4,0l0.2,0.3l-0.4,0l0.1,0.4L14.3,6l-0.1,0.5L14,6.1l-0.1,0.5l-0.3-0.4l0,0.5l-0.3-0.5
		c0,0.3,0.1,0.5,0.2,0.8c0.5,0,0.9-0.2,1.3-0.6c0.4-0.4,0.7-1,0.9-1.6c0.1-0.7,0.1-1.4,0-2.1c-0.1-0.4-0.3-0.9-0.6-1.2
		c-0.3-0.3-0.6-0.6-0.9-0.8c-0.6-0.3-1.2-0.4-1.8-0.4c-0.3,0-0.5,0-0.8,0.1c-0.4,0.1-0.6,0.4-1,0.5c-0.1,0-0.2,0-0.3,0
		c0.1,0.2,0.2,0.3,0.4,0.3c0.3,0,0.5,0,0.8,0c0.3-0.1,0.5-0.1,0.8-0.1c0.3,0,0.6,0.1,0.8,0.2C13.6,1.7,13.9,2,14,2.3
		c0.1,0.2,0.2,0.4,0.3,0.6c0.1,0.2,0.1,0.4,0.1,0.7c0,0.2,0,0.4-0.1,0.6c-0.1,0.4-0.4,0.9-0.9,0.8c-0.3,0-0.8-0.7-1-0.9
		c-0.3-0.5-0.7-1-1.1-1.4c-0.3-0.2-0.6-0.4-1-0.4c-0.5-0.1-1,0.1-1.4,0.5c0.1,0,0.2,0.1,0.3,0.1C9.5,3,9.7,3.1,9.8,3.3
		c0.2,0.1,0.3,0.3,0.3,0.6c0,0.2-0.1,0.3-0.3,0.4C9.8,4.4,9.7,4.4,9.6,4.5C9.5,4.6,9.4,4.6,9.5,4.8c0.1,0,0.1,0.1,0.2,0.1
		C9.8,5,9.8,5.2,9.6,5.3c-0.2,0.1-0.3,0.1-0.5,0c0.2,0,0.3,0,0.3-0.2c0-0.1-0.1-0.1-0.2-0.2C9,4.8,8.8,4.7,8.6,4.6
		C8.3,4.5,8.3,4.4,8.3,4.1c-0.1,0-0.2,0-0.4,0.1c-0.2,0-0.3,0.2-0.5,0.2C7.3,4.4,7,4.4,6.9,4.4c-0.4,0-0.8,0-1.2,0.2
		c-0.2,0-0.4,0-0.6,0.1C4.7,4.8,4.4,5,4.1,5.2C3.6,5.9,3.2,6.7,3,7.5c0,0.3,0.1,0.5-0.1,0.7C2.6,8.4,2.7,8.8,2.6,8.9
		C2.5,9,2.4,9,2.3,9.1S2.1,9.3,2.1,9.6c0.1-0.1,0.3-0.2,0.5-0.2c0.1,0,0.1,0.2,0.5-0.2C3.3,9,3.7,9,3.9,8.9c0.5-0.2,0.9-0.4,1.2-0.8
		C5.6,7.6,5.9,6.9,6,6.2c0,0.2,0,0.5,0,0.7C5.8,7.3,5.8,7.8,6,8.3l0.2,0.3C6.1,8.4,5.9,8.3,5.8,8.1L5.7,7.7C5.5,8.1,5.2,8.4,4.9,8.6
		c0,0.2,0,0.5,0.1,0.7c0.1,0.2,0,0.5,0,0.6C5,10,5.1,10,5.1,10.1c0,0.1,0,0.4,0,0.6c0.1,0.1,0.2,0.1,0.3,0.1c0.1,0,0.1,0.1,0.1,0.2
		c0,0.1,0,0.2,0.1,0.2s0.2,0,0.3,0.1c0.1,0.1,0.1,0.2,0.1,0.2c0,0.1-0.1,0.1-0.2,0.2c0,0.1,0,0.2,0,0.2C6,12,6.1,12.1,6.2,12.1
		c0.1,0,0.3,0,0.4,0.1c0.1,0.1,0.2,0.2,0.3,0.3c0.1,0.1,0.1,0.2,0.1,0.2c0,0.1,0,0.2-0.1,0.3c0,0.1-0.2,0.2,0,0.4
		C7,13.5,7,13.5,7.1,13.6c0-0.2-0.1-0.3,0-0.5c0.1-0.1,0.2-0.2,0.3-0.2c0.1-0.1,0.2-0.1,0.2-0.2c0,0.1,0,0.2,0,0.3
		c0,0.2-0.1,0.3,0.2,0.3c0.1,0,0.2,0,0.3-0.1c-0.1,0.1-0.2,0.2-0.2,0.3c0,0.1,0,0.3,0.1,0.4c0.1,0.1,0.2,0.2,0.3,0.3
		c0.1,0,0.2,0.1,0.2,0.1c0,0.1,0,0.2,0,0.4c0,0.1,0.1,0.2,0.1,0.3C8.7,14.9,8.8,15,8.9,15c-0.1-0.1-0.2-0.2-0.2-0.4
		c0-0.1,0.1-0.3,0.2-0.3c0.1-0.1,0.4-0.2,0.6-0.3c0.1-0.1,0.2-0.2,0.2-0.3c0-0.1,0.1-0.3,0-0.4c0,0.1,0.1,0.2,0.1,0.3
		c0,0.2-0.1,0.3-0.1,0.5c0.2-0.1,0.3-0.2,0.3-0.3c0,0,0,0.1,0,0.2c0.1-0.1,0.1-0.1,0.2-0.2c0.1-0.1,0.1-0.1,0.2-0.2
		c0-0.1,0-0.2,0-0.3c-0.1-0.1-0.1-0.2-0.2-0.3c-0.1-0.1,0-0.2,0-0.3c-0.1,0-0.2-0.1-0.3-0.1c-0.1,0-0.3,0.2-0.4,0.2
		s-0.2-0.1-0.3-0.2c-0.1,0-0.2,0-0.3,0c0.3-0.1,0.7-0.2,1.1-0.3c0.3-0.1,0.7-0.1,1-0.1c0.1,0,0.3,0,0.4,0c0.1,0,0.1-0.1,0.1-0.2
		c0.1-0.2,0.1-0.4,0-0.6c-0.3,0-0.6-0.1-0.9-0.1c-0.3,0-0.6,0.2-0.9,0.2c-0.3,0-0.6-0.1-0.9-0.2c-0.2-0.2-0.4-0.4-0.6-0.6
		c-0.1-0.2-0.3-0.6-0.4-0.7c0-0.1-0.1-0.2-0.2-0.3C7.5,9.7,7.4,9.7,7.3,9.6c0.1,0,0.2,0,0.3,0c0.1,0.1,0.3,0.4,0.4,0.6
		c0.1-0.3,0.1-0.4,0.4-0.6c-0.2,0.2-0.3,0.5-0.3,0.7c0.2,0.3,0.4,0.8,0.8,0.9c0.2,0,0.3,0.1,0.5,0.1c0.4,0,0.8,0,1.2-0.2
		c0.3-0.1,0.6-0.1,1,0c0.1,0,0.4-0.1,0.5-0.2c0-0.1,0-0.2,0-0.2c0-0.1-0.2-0.1-0.2-0.2c-0.1-0.1-0.1-0.1-0.2-0.2
		c-0.2,0-0.5,0.1-0.7,0.1c0.1-0.1,0.3-0.1,0.4-0.2c0.2-0.1,0.3-0.1,0.4-0.2C11.9,10,12,10,12.1,9.9c0.1-0.1,0.2-0.2,0.3-0.3
		c0.1-0.1,0.1-0.3,0.1-0.4c0-0.2,0-0.3-0.1-0.5c-0.1-0.1-0.1-0.2-0.2-0.2c-0.1,0-0.1,0-0.2,0.1c-0.1,0-0.2,0.1-0.3,0
		c-0.2-0.1-0.3-0.2-0.4-0.4C11.1,8,11,7.7,10.8,7.5c-0.2-0.4-0.5-0.8-0.8-1.1C10,6.3,10,6.2,10,6c0-0.2,0-0.4,0-0.6
		c0-0.2,0.1-0.3,0.3-0.4c0.1,0,0.1,0,0.2,0c0.1,0,0.1,0.1,0.1,0.2c0,0.1-0.1,0.1-0.1,0.1c-0.1,0.1-0.1,0.1-0.1,0.2
		c0.1,0,0.2,0,0.2,0c0.1,0,0.2,0.1,0.2,0.2c-0.1-0.1-0.2-0.1-0.3-0.1c-0.1,0-0.1,0-0.2,0c0,0.1,0,0.1-0.1,0.2c0,0.1-0.1,0-0.1,0.1
		C10.2,6,10.2,6.1,10.2,6.2L10.2,6.2z M10.5,6.3c-0.1,0-0.1,0-0.2,0.1l0.2,0.2C10.4,6.5,10.4,6.4,10.5,6.3L10.5,6.3z M6.4,5.2
		c0,0,0-0.1,0-0.1c-0.2,0-0.2,0.1-0.3,0.3c0,0.1,0,0.1,0,0.2c0,0.1-0.1,0-0.2,0.1c-0.1,0-0.1,0.1-0.2,0.2C5.6,6,5.4,6,5.3,6.1
		C5.4,6,5.5,5.9,5.6,5.8c0-0.1,0-0.2,0.1-0.2c0.1-0.1,0.1-0.1,0.1-0.1c0.1,0,0-0.1,0.1-0.2C5.9,5.3,6,5.2,6,5.2C6.1,5.1,6.1,5,6.2,5
		c0.1,0,0.2,0,0.3,0s0-0.1,0.1-0.1s0.1,0,0.2,0C6.9,4.8,7,4.7,7,4.6C7.1,4.8,7,5,7,5.2C6.9,5.4,6.8,5.6,6.5,5.7
		c-0.1,0-0.2,0.1-0.2,0.1c0-0.1,0.1-0.1,0.1-0.2C6.4,5.5,6.4,5.4,6.4,5.2L6.4,5.2z M7.5,6.1c0.1,0,0.2,0,0.3,0c0.1,0,0.1,0,0.2,0
		c0-0.1,0-0.4-0.1-0.4c-0.2,0-0.3,0-0.5,0C7.3,5.7,7.1,5.8,6.9,5.8C7,5.7,7.2,5.6,7.4,5.6c0.2-0.1,0.4-0.1,0.5-0.1
		c0.1,0,0.1,0,0.1,0.1c0.1,0.2,0.1,0.3,0.2,0.5c0,0,0.1,0.1,0.1,0.1c0,0.1,0,0.1,0,0.2c0,0,0-0.1-0.1-0.1c-0.1,0-0.2,0-0.3,0
		C8,6.4,8.1,6.6,8,6.7c0,0.1-0.1,0.1-0.2,0.1c-0.2,0-0.3,0-0.4-0.2c0-0.1,0-0.2,0-0.2c-0.1,0-0.3,0-0.4,0.1c0.1,0.1,0.2,0.2,0.3,0.3
		C7.4,6.9,7.5,6.9,7.6,7C7.7,7,7.8,7,8,7c0.1,0,0.2-0.1,0.3-0.1c0.1-0.1,0.1-0.2,0.1-0.3c0,0.1,0,0.2,0,0.2C8.2,7,8,7.1,7.8,7.1
		C7.6,7.1,7.4,7,7.3,7C7.1,6.9,6.9,6.8,6.8,6.6c0-0.1,0-0.2,0-0.3C7,6.2,7.1,6.2,7.3,6.1C7.4,6.1,7.5,6.1,7.5,6.1L7.5,6.1z M8.1,4.8
		C8.1,4.9,8.2,4.9,8.4,5c0.1,0,0.1-0.1,0.2-0.1c0.1,0.3,0.2,0.5,0.3,0.8c0.1,0.1,0.1,0.1,0.1,0.1C9,5.9,9,6.1,9,6.2
		c0,0.1,0.1,0.2,0.1,0.3C9.1,6.4,8.9,6.2,8.8,6c-0.1-0.1,0-0.1-0.1-0.3C8.7,5.6,8.6,5.4,8.5,5.2c-0.1,0-0.1,0-0.2,0
		c0,0,0-0.1-0.1-0.1c0,0-0.1,0-0.2-0.1C8.1,5,8,4.9,8.1,4.8L8.1,4.8z M6.9,9.3c0.1-0.1,0.3,0,0.5,0L7,9.4c0,0,0,0.1,0,0.1
		c0,0-0.1,0-0.1,0.1C6.9,9.4,6.9,9.3,6.9,9.3L6.9,9.3z M8.4,7.1C8.5,7,8.5,6.9,8.5,6.8C8.5,6.9,8.5,7.1,8.4,7.1
		c0,0.2-0.1,0.2-0.2,0.2C8.2,7.3,8.3,7.2,8.4,7.1L8.4,7.1z M8.3,8.7c0-0.2,0.1-0.4,0.3-0.5c0.1-0.1,0.3-0.1,0.4-0.1
		c0.2,0,0.5,0,0.7,0.1C9.8,8.2,9.9,8.3,10,8.4c0.1,0.1,0.2,0.1,0.4,0.2C10.6,8.8,10.7,9,10.8,9c0.1,0,0.2,0.1,0.2,0.1
		c-0.1,0-0.2,0-0.2,0c-0.1,0-0.2-0.1-0.3-0.2c-0.1-0.1-0.2-0.2-0.3-0.2c-0.1,0-0.2-0.1-0.3-0.2C9.8,8.5,9.7,8.4,9.6,8.3
		C9.5,8.3,9.3,8.2,9.2,8.2c-0.2,0-0.4,0-0.5,0.2C8.5,8.5,8.4,8.6,8.5,8.8c0-0.1,0.1-0.1,0.1-0.2c0.1-0.1,0.2-0.1,0.3-0.1
		c0.1,0,0.2,0.1,0.3,0.2c0,0-0.1-0.1-0.1-0.1c-0.1,0-0.2,0-0.3,0C8.7,8.8,8.7,8.8,8.7,9c0,0,0,0.1,0,0.1c0,0-0.1,0-0.1-0.1
		c0,0,0,0.1,0,0.1c0,0.1,0,0.1,0.1,0.2C8.5,9.3,8.4,9.2,8.3,9.1C8.3,9,8.3,8.9,8.3,8.7L8.3,8.7z M9.3,8.9c0.1,0,0.2,0,0.3,0.1
		c0.1,0,0.1,0.1,0.2,0.1c0.1,0.1,0.2,0.3,0.3,0.5c0,0.1,0,0.3,0,0.4c0-0.1-0.1-0.3-0.1-0.4C9.9,9.4,9.7,9.3,9.5,9.2c0,0-0.1,0-0.1,0
		c0,0,0,0,0,0.1c0,0.1,0,0.1-0.1,0.1c-0.1,0-0.2,0-0.3-0.1C9,9.3,8.9,9.2,9,9C9,8.9,9.2,8.9,9.3,8.9L9.3,8.9z M3.4,9.3
		c-0.1,0-0.3,0.1-0.3,0.2C3,9.6,2.8,9.7,2.7,9.7c-0.2-0.1-0.3-0.1-0.5,0C2,9.8,1.9,9.7,1.9,9.5c0-0.2,0.1-0.4,0.3-0.6
		c0.5-0.3,0.1-0.5,0.4-0.7s0.2-0.4,0.2-0.7C2,7.4,1.3,7,0.9,6.4C0.4,5.8,0.1,5,0,4.2c-0.1-0.7,0-1.5,0.4-2.2
		c0.3-0.6,0.8-1.1,1.5-1.4c0.6-0.3,1.3-0.5,2-0.4c0.5,0,1,0.1,1.4,0.3c0.3,0.2,0.6,0.4,0.9,0.5c0.2,0,0.3,0,0.4-0.1
		c0,0.7-0.6,0.7-1.1,0.8S4.6,1.3,4.1,1.4c-0.7,0.1-1.3,0.4-1.7,1C2,2.9,1.9,3.4,2,3.9c0,0.5,0.4,0.9,0.8,1c0.3,0,0.3-0.1,0.6-0.2
		c0.2-0.2,1.5-1.7,2-2.1c0.4-0.3,0.8-0.5,1.3-0.5c0.3,0,0.7,0,1,0.2c0.3,0.2,0.6,0.4,0.9,0.6c0.1-0.1,0.3-0.2,0.4-0.3
		c0.4-0.3,0.9-0.5,1.4-0.4c0.4,0.1,0.7,0.2,1,0.5c0.4,0.4,0.8,0.9,1.1,1.4c0.2,0.4,0.5,0.7,0.9,0.9c0.4,0.1,0.8-0.4,0.8-0.8
		c0-0.2,0.1-0.4,0.1-0.5c0-0.2,0-0.4-0.1-0.6c-0.1-0.2-0.1-0.4-0.3-0.6c-0.2-0.3-0.4-0.5-0.7-0.7c-0.2-0.1-0.5-0.2-0.8-0.2
		c-0.3,0-0.5,0.1-0.8,0.1c-0.3,0-0.9,0.1-1.2-0.2c-0.1-0.1-0.2-0.3-0.2-0.5C10.3,1,10.4,1,10.5,1c0.2,0,0.4-0.2,0.6-0.3
		c0.2-0.1,0.3-0.2,0.5-0.3c0.5-0.2,1-0.2,1.5-0.1c0.4,0.1,0.9,0.2,1.3,0.4C14.7,1,15,1.2,15.3,1.6c0.3,0.4,0.5,0.8,0.6,1.2
		C16,3.5,16,4.3,15.9,5c-0.2,0.6-0.5,1.2-1,1.6c-0.4,0.3-0.8,0.6-1.3,0.6c0,0.1,0,0.2,0,0.3c0,0.1,0.1,0.2,0.3,0.2
		c0.1,0,0.1,0,0.2,0c0.1,0.1,0,0.3-0.2,0.4c-0.1,0.1-0.3,0.1-0.4,0.1c-0.2,0-0.4,0-0.6,0c-0.2,0-0.3-0.2-0.5-0.2
		C12,8,11.7,7.8,11.5,7.6c-0.1,0-0.1-0.1-0.2-0.1c0,0.1,0.1,0.2,0.1,0.3c0,0.1,0,0.2,0,0.3s0,0.1,0,0.2c0.1,0,0.1,0.1,0.2,0.1
		c0.1,0,0.2,0,0.3,0c0.1,0,0.1-0.1,0.2,0c0.1,0,0.1,0.1,0.2,0.1c0.1,0,0.1,0.1,0.2,0.2c0.1,0.2,0.1,0.3,0.1,0.5c0,0.1,0,0.3-0.1,0.4
		c0,0.1-0.1,0.2-0.2,0.3c-0.2,0.2-0.3,0.3-0.5,0.4c0,0.1,0.1,0.1,0.1,0.2c0.1,0.1,0.2,0.1,0.2,0.2c0.1,0,0.1,0.1,0.1,0.2
		c0,0.1,0,0.2-0.1,0.2c-0.1,0.2-0.3,0.3-0.5,0.3c0,0.2,0.1,0.4,0,0.6c0,0.1-0.1,0.3-0.2,0.3c-0.2,0-0.3,0-0.5,0
		c-0.1,0-0.2,0-0.3,0.1c-0.1,0.1-0.1,0.2-0.2,0.3c0,0.1,0,0.1,0,0.2c0,0.1,0.1,0.2,0.1,0.3c0,0.1,0,0.2,0,0.3c0,0.1-0.1,0.2-0.2,0.3
		c-0.1,0.1-0.3,0.2-0.3,0.2S10,14.2,10,14.3c0.1,0.2,0.2,0.4,0.4,0.5c0.1,0,0.3,0,0.4,0c0,0.1-0.1,0.2-0.2,0.3
		c0.2-0.1,0.4-0.2,0.6-0.3c-0.1,0.2-0.2,0.4-0.4,0.5c-0.1,0.1-0.2,0.2-0.3,0.2c0.2,0,0.4,0,0.6,0c-0.1,0.1-0.3,0.1-0.4,0.1
		c-0.2,0-0.3,0-0.5,0c-0.2-0.1-0.4-0.2-0.5-0.3c0,0.1,0.1,0.2,0.1,0.3c0.1,0.1,0.2,0.1,0.4,0.2c-0.2,0-0.4,0-0.5-0.1
		c-0.1,0-0.2-0.1-0.3-0.1c-0.1-0.1-0.2-0.1-0.3-0.2c0,0.1,0.1,0.2,0.1,0.2c0.1,0.1,0.2,0.1,0.3,0.1c-0.1,0-0.2,0-0.3,0
		c-0.1,0-0.2-0.1-0.3-0.1c-0.1-0.1-0.2-0.2-0.3-0.3c-0.1-0.1-0.2-0.2-0.2-0.3c0-0.1,0-0.1,0-0.2c-0.1,0-0.1,0.1-0.2,0.1
		C8,15,7.9,15.1,8,15.2c0,0.1,0.1,0.2,0.2,0.3c-0.2-0.2-0.3-0.2-0.4-0.4c0-0.2,0-0.3,0.2-0.5c0-0.1,0.1-0.1,0.1-0.2
		c-0.1-0.1-0.2-0.2-0.3-0.3c-0.1-0.1-0.1-0.2-0.2-0.3c-0.1-0.1-0.2-0.2-0.3-0.2c0.1,0.2,0.2,0.3,0.2,0.5c0,0.1,0,0.2-0.1,0.3
		c0,0.1-0.1,0.1-0.2,0.1s-0.2,0-0.2,0.1c0,0.1-0.1,0.2,0,0.2l0.2,0.3c-0.1,0-0.2-0.1-0.2-0.2c0-0.1-0.1-0.1-0.1-0.2
		c0-0.1,0-0.2,0-0.2c0.1-0.1,0.2-0.1,0.3-0.2s0.1-0.1,0.1-0.2S7.3,14,7.2,14c-0.2-0.1-0.4-0.3-0.6-0.5c-0.1-0.1-0.1-0.2-0.2-0.3
		c0-0.1,0-0.2,0-0.2c0-0.1,0.2-0.2,0.2-0.3c0-0.1-0.1-0.1-0.1-0.1c-0.1,0-0.2,0-0.3,0c-0.1-0.1,0-0.2-0.1-0.2
		c-0.1-0.1-0.3,0-0.3-0.1c-0.1-0.1-0.1-0.2-0.2-0.3c0-0.1,0-0.2,0-0.3c0-0.1,0.1-0.1,0.1-0.1c0,0,0.1-0.1,0-0.1s-0.2,0-0.3-0.1
		c-0.1-0.1,0-0.3-0.1-0.3c-0.1-0.1-0.2,0-0.3-0.1c-0.1,0-0.1,0.1-0.1-0.1c0-0.1,0-0.5-0.1-0.7c-0.1-0.1-0.2,0-0.2-0.2
		c0-0.2,0-0.4,0-0.6L4.6,8.8C4.3,9,4,9.1,3.6,9.2c-0.1,0.8,0,1.7,0.2,2.5c0.3,1,0.9,1.6,1.8,2.5c-0.9-0.6-1.6-1.4-2-2.4
		C3.4,10.9,3.3,10.1,3.4,9.3"/>
</g>
</svg>
