<?xml version="1.0" encoding="utf-8"?>
<!-- Generator: Adobe Illustrator 24.0.3, SVG Export Plug-In . SVG Version: 6.00 Build 0)  -->
<svg version="1.1" id="Capa_1" xmlns="http://www.w3.org/2000/svg" xmlns:xlink="http://www.w3.org/1999/xlink" x="0px" y="0px"
	 viewBox="0 0 16 16" style="enable-background:new 0 0 16 16;" xml:space="preserve">
<style type="text/css">
	.st0{fill:#F0DB4F;}
	.st1{fill:#4D4D4D;}
</style>
<g>
	<rect x="1" y="0.7" class="st0" width="13.1" height="15.3"/>
	<rect x="5.5" class="st1" width="9.5" height="6.9"/>
	<rect x="6.9" y="14.1" class="st1" width="6.4" height="0.7"/>
	<g>
		<path class="st1" d="M9.5,12.2H8.9l-0.2,1.2H8.1l0.2-1.2H7.7v-0.5h0.8l0.1-0.9H7.9v-0.5h0.8l0.2-1.2h0.5l-0.2,1.2h0.6L10,9.1h0.5
			l-0.2,1.2H11v0.5h-0.7l-0.1,0.9h0.7v0.5H10l-0.2,1.2H9.2L9.5,12.2z M9,11.7h0.6l0.1-0.9H9.1L9,11.7z"/>
		<path class="st1" d="M12,12.6c0.1,0,0.3,0,0.4,0.1c0.1,0.1,0.1,0.2,0.1,0.3c0,0.1,0,0.2-0.1,0.3c-0.1,0.1-0.2,0.1-0.4,0.1
			c-0.1,0-0.3,0-0.3-0.1c-0.1-0.1-0.1-0.2-0.1-0.3c0-0.1,0-0.2,0.1-0.3C11.7,12.6,11.8,12.6,12,12.6z M12.3,12.1h-0.7l-0.1-3h0.9
			L12.3,12.1z"/>
	</g>
</g>
</svg>
