<?xml version="1.0" encoding="utf-8"?>
<!-- Generator: Adobe Illustrator 24.0.3, SVG Export Plug-In . SVG Version: 6.00 Build 0)  -->
<svg version="1.1" id="Capa_1" xmlns="http://www.w3.org/2000/svg" xmlns:xlink="http://www.w3.org/1999/xlink" x="0px" y="0px"
	 viewBox="0 0 16 16" style="enable-background:new 0 0 16 16;" xml:space="preserve">
<style type="text/css">
	.st0{fill:#FDDF00;}
	.st1{fill:#F2F2F2;}
	.st2{fill:#333333;}
	.st3{fill:#CCCCCC;}
</style>
<g>
	<path class="st0" d="M14.7,3.6L8.6,0.2C8.2,0,7.8,0,7.4,0.2L1.3,3.6C0.9,3.8,0.6,4.2,0.6,4.7v6.6c0,0.5,0.2,0.9,0.6,1.1l6.1,3.4
		c0.4,0.2,0.8,0.2,1.2,0l6.1-3.4c0.4-0.2,0.6-0.6,0.6-1.1V4.7C15.4,4.2,15.1,3.8,14.7,3.6z M12.3,3.3l1.9,1.1l-2,1.1L12.3,3.3z
		 M8,0.9l0.9,0.5L8,3.3L7.2,1.4L8,0.9z M7.6,6.5c0,0.7-0.6,1.3-1.3,1.3S5,7.3,5,6.5V6.4L7.6,6.5L7.6,6.5z M1.6,5.3l1.6,0.8L1.6,7
		V5.3z M3.7,7v2.4l-2-1V7.9L3.7,7z M1.7,9.2L3.1,10l-1.4,0.8C1.7,10.8,1.7,9.2,1.7,9.2z M3.7,12.7l-1.9-1l2-1L3.7,12.7z M1.8,4.4
		l1.9-1.1l0.2,2L1.8,4.4z M6.5,1.7l0.6,1.9L4.7,4.9l-0.3-2L6.5,1.7z M6.5,14.2l-2-1.1l0.3-2l2.3,1.2L6.5,14.2z M8,15.1l-0.8-0.4
		l0.8-2l0.9,1.9L8,15.1z M9.6,14.2L9,12.3l2.3-1.2l0.3,2L9.6,14.2z M10.2,7.9c-0.7,0-1.3-0.6-1.3-1.3V6.5h2.7v0.1
		C11.5,7.3,11,7.9,10.2,7.9z M11.3,4.9L9,3.6l0.6-1.8l2,1.1L11.3,4.9z M12.3,12.6l-0.1-1.9l1.9,0.9L12.3,12.6z M14.4,10.8L12.9,10
		l1.5-0.8V10.8z M14.4,8.4l-2,1V6.8l2,1V8.4z M14.4,6.9l-1.6-0.8l1.6-0.8V6.9z"/>
	<path class="st1" d="M7.6,6.5c0,0.7-0.6,1.3-1.3,1.3S5,7.3,5,6.5V6.4L7.6,6.5L7.6,6.5z"/>
	<path class="st1" d="M10.2,7.9c-0.7,0-1.3-0.6-1.3-1.3V6.5h2.7v0.1C11.5,7.3,11,7.9,10.2,7.9z"/>
	<path class="st2" d="M9.7,6.4C9.8,6.8,10.1,7,10.5,7s0.7-0.3,0.8-0.6H9.7z"/>
	<path class="st2" d="M5.8,6.4C5.9,6.8,6.2,7,6.6,7s0.7-0.3,0.8-0.6H5.8z"/>
	<path class="st2" d="M8,16c-0.2,0-0.4-0.1-0.6-0.2l-6.1-3.4c-0.4-0.2-0.7-0.7-0.7-1.1V4.7c0-0.5,0.3-0.9,0.7-1.1l6.1-3.4
		C7.8,0,8.3,0,8.7,0.2l6.1,3.4c0.4,0.2,0.7,0.7,0.7,1.1v6.6c0,0.5-0.3,0.9-0.7,1.1l-6.1,3.4C8.4,15.9,8.2,16,8,16z M8,0.1
		c-0.2,0-0.4,0-0.6,0.1L1.3,3.6c-0.4,0.2-0.6,0.6-0.6,1v6.6c0,0.4,0.2,0.8,0.6,1l6.1,3.4c0.4,0.2,0.8,0.2,1.1,0l6.1-3.4
		c0.4-0.2,0.6-0.6,0.6-1V4.7c0-0.4-0.2-0.8-0.6-1l-6-3.4C8.4,0.2,8.2,0.1,8,0.1z M8,15.1l-0.9-0.5l0.9-2l1,2L8,15.1z M7.3,14.6L8,15
		l0.8-0.4L8,12.9L7.3,14.6z M9.6,14.3l-0.7-2l2.4-1.3l0.3,2.2L9.6,14.3z M9,12.3L9.6,14l1.9-1l-0.2-1.9L9,12.3z M6.5,14.3l-2-1.1
		L4.8,11l2.4,1.3L6.5,14.3z M4.6,13.1l1.9,1L7,12.3l-2.2-1.2L4.6,13.1z M3.8,12.8l-2-1.1l2.1-1.1L3.8,12.8z M2,11.7l1.7,0.9l0.1-1.8
		L2,11.7z M12.3,12.7l-0.1-2.1l2.1,1L12.3,12.7z M12.3,10.8l0.1,1.7l1.6-0.9L12.3,10.8z M1.6,10.9V9.1L3.2,10L1.6,10.9z M1.8,9.3
		v1.4L3,10L1.8,9.3z M14.4,10.9L12.8,10l1.7-0.9v1.8H14.4z M13,10l1.3,0.7V9.3L13,10z M12.3,9.5V6.7l2.2,1v0.7L12.3,9.5z M12.4,6.9
		v2.4l1.9-0.9V7.8L12.4,6.9z M3.8,9.5l-2.2-1V7.8l2.2-0.9V9.5z M1.8,8.4l1.9,0.9V7.1L1.8,7.9V8.4z M10.2,7.9c-0.8,0-1.4-0.6-1.4-1.4
		V6.4V6.3h2.8v0.1c0,0,0,0,0,0.1C11.6,7.3,11,7.9,10.2,7.9z M8.9,6.5L8.9,6.5c0,0.7,0.6,1.3,1.3,1.3s1.3-0.6,1.3-1.3l0,0H8.9z
		 M6.3,7.9c-0.8,0-1.4-0.6-1.4-1.4V6.4V6.3h2.8v0.1v0.1C7.7,7.3,7.1,7.9,6.3,7.9z M5,6.5L5,6.5c0,0.7,0.6,1.3,1.3,1.3
		s1.3-0.6,1.3-1.3l0,0H5z M1.6,7.1V5.2l1.8,0.9L1.6,7.1z M1.7,5.4v1.5l1.4-0.8L1.7,5.4z M14.4,7l-1.8-0.9l1.8-0.9V7z M12.9,6.1
		l1.4,0.7V5.4L12.9,6.1z M12.2,5.6l0.1-2.3l2,1.2L12.2,5.6z M12.4,3.4l-0.1,1.9l1.8-1L12.4,3.4z M3.9,5.5L1.7,4.4l2-1.2L3.9,5.5z
		 M1.9,4.4l1.8,0.9L3.6,3.4L1.9,4.4z M11.3,5L8.9,3.6l0.7-1.9l2,1.1L11.3,5z M9,3.6l2.2,1.3L11.4,3L9.5,2L9,3.6z M4.7,5L4.4,2.9
		l2.1-1.2l0.7,2L4.7,5z M4.5,2.9l0.2,1.9L7,3.6L6.5,1.8L4.5,2.9z M8,3.4l-0.9-2L8,0.9l1,0.6L8,3.4z M7.3,1.4L8,3.1l0.8-1.6L8,1
		L7.3,1.4z"/>
	<path class="st2" d="M8.5,10.1c0.5,0,1,0,1.4-0.2s0.6-0.5,0.7-0.9c0-0.1,0.2-0.2,0.3-0.2s0.2,0.2,0.2,0.3c-0.1,0.5-0.5,1-0.9,1.2
		c-0.5,0.3-1.1,0.4-1.7,0.3c-0.1,0-0.3-0.1-0.3-0.3C8.3,10.3,8.4,10.1,8.5,10.1z"/>
</g>
<polygon class="st3" points="16,12.8 12,16 8,12.8 8,10.4 12,13.6 16,10.4 "/>
</svg>
