<?xml version="1.0" encoding="utf-8"?>
<!-- Generator: Adobe Illustrator 24.0.3, SVG Export Plug-In . SVG Version: 6.00 Build 0)  -->
<svg version="1.1" id="Capa_1" xmlns="http://www.w3.org/2000/svg" xmlns:xlink="http://www.w3.org/1999/xlink" x="0px" y="0px"
	 viewBox="0 0 16 16" style="enable-background:new 0 0 16 16;" xml:space="preserve">
<style type="text/css">
	.st0{fill:#333333;}
	.st1{fill:#7AC943;}
	.st2{fill:#3FA9F5;}
</style>
<g>
	<path class="st0" d="M14.2,0H1.8C0.8,0,0,0.8,0,1.8v12.4c0,1,0.8,1.8,1.8,1.8l0,0h12.4c1,0,1.8-0.8,1.8-1.8l0,0V1.8
		C16,0.8,15.2,0,14.2,0z"/>
	<path class="st1" d="M4.7,8.2l0.3-1.6h0.7L5.1,9.3H4.4L4,7.8L3.6,9.3H2.9L2.3,6.7h0.7l0.2,1.6l0.4-1.6h0.5L4.7,8.2z"/>
	<path class="st1" d="M8.7,8.2l0.3-1.6h0.7L9.1,9.3H8.4L8,7.8L7.6,9.3H6.9L6.3,6.7h0.7l0.2,1.6l0.4-1.6h0.5L8.7,8.2z"/>
	<path class="st1" d="M12.7,8.2l0.3-1.6h0.7l-0.6,2.7h-0.7L12,7.8l-0.4,1.6h-0.7l-0.6-2.7h0.7l0.2,1.6l0.4-1.6h0.5L12.7,8.2z"/>
	<path class="st2" d="M12.9,6h0.7c-0.8-2.3-3-4-5.7-4S3.2,3.7,2.3,6h0.7c0.1-0.4,0.3-0.7,0.5-1h1.8C5.3,5.3,5.2,5.6,5.2,6h0.7
		C5.9,5.6,6,5.3,6.1,5h1.6v1h0.7V5h1.6c0.1,0.3,0.2,0.6,0.2,1h0.7c-0.1-0.4-0.1-0.7-0.2-1h1.8C12.6,5.3,12.8,5.6,12.9,6z M4.1,4.3
		c0.6-0.6,1.4-1.1,2.2-1.4C6.1,3.3,5.8,3.8,5.6,4.3H4.1z M6.3,4.3c0.4-0.9,0.8-1.4,1.3-1.6v1.6H6.3z M8.3,4.3V2.7
		c0.5,0.2,1,0.7,1.3,1.6H8.3z M10.4,4.3c-0.2-0.6-0.5-1-0.8-1.4c0.9,0.3,1.6,0.8,2.2,1.4H10.4z"/>
	<path class="st2" d="M12.9,10c-0.1,0.4-0.3,0.7-0.5,1h-1.8c0.1-0.3,0.2-0.6,0.2-1h-0.7c-0.1,0.4-0.2,0.7-0.2,1H8.3v-1H7.7v1H6.1
		c-0.1-0.3-0.2-0.6-0.2-1H5.2c0.1,0.4,0.1,0.7,0.2,1H3.6c-0.2-0.3-0.4-0.6-0.5-1H2.3c0.8,2.3,3,4,5.7,4s4.8-1.7,5.7-4H12.9z
		 M4.1,11.7h1.5c0.2,0.6,0.5,1,0.8,1.4C5.5,12.8,4.8,12.3,4.1,11.7z M6.3,11.7h1.3v1.6C7.2,13.1,6.7,12.5,6.3,11.7z M8.3,13.3v-1.6
		h1.3C9.3,12.5,8.8,13.1,8.3,13.3z M9.6,13.1c0.3-0.4,0.6-0.9,0.8-1.4h1.5C11.2,12.3,10.5,12.8,9.6,13.1z"/>
</g>
</svg>
