<?xml version="1.0" encoding="utf-8"?>
<!-- Generator: Adobe Illustrator 24.0.3, SVG Export Plug-In . SVG Version: 6.00 Build 0)  -->
<svg version="1.1" id="Capa_1" xmlns="http://www.w3.org/2000/svg" xmlns:xlink="http://www.w3.org/1999/xlink" x="0px" y="0px"
	 viewBox="0 0 16 16" style="enable-background:new 0 0 16 16;" xml:space="preserve">
<style type="text/css">
	.st0{fill:#FFFCF1;}
	.st1{fill:#FFD8A3;}
	.st2{fill:#DAD1C8;}
	.st3{fill:#C9C4BD;}
	.st4{fill:#558597;}
	.st5{fill:#FFB0A1;}
	.st6{fill:#08CFD4;}
	.st7{fill:#A1E8DB;}
	.st8{fill:#CCCCCC;}
</style>
<g>
	<g>
		<g>
			<path class="st0" d="M2.7,2.7C3.5,1.9,4.5,1.3,5.5,1v0.6c0,0.1-0.1,0.1,0,0.2C5,1.9,4,2.2,2.8,3.8L1.5,5.2H1.1
				C1.5,4.3,2,3.5,2.7,2.7z"/>
			<path class="st1" d="M2.3,5.2l0.9-1c0,0,0,0,0,0c0.7-1,1.4-1.4,1.8-1.6c0.2-0.1,0.4-0.2,0.5-0.2v2.8H2.3z"/>
			<path class="st2" d="M7.5,3.1L6.1,1.7V0.8c0.5-0.1,1.1-0.2,1.7-0.2v2.3L7.5,3.1z"/>
			<path class="st3" d="M8.4,0.6c0.5,0,0.9,0.1,1.4,0.2L8.4,2.2V0.6z"/>
			<polygon class="st4" points="6.1,5.2 6.1,2.5 8.8,5.2 			"/>
			<path class="st2" d="M9.6,5.2L7.9,3.5L10.4,1c0.1,0.1,0.3,0.1,0.4,0.2v4.1H9.6z"/>
			<path class="st0" d="M11.4,5.2V2.9c0.3,0.2,0.9,0.5,1.4,1.3c0,0,0,0,0,0c0,0,0.4,0.5,1.1,1H11.4z"/>
			<path class="st3" d="M14.8,5.1c-1-0.4-1.5-1.1-1.6-1.1c-0.6-1.1-1.5-1.5-1.9-1.6V1.4c0.7,0.3,1.3,0.8,1.9,1.4
				C13.9,3.4,14.5,4.2,14.8,5.1z"/>
			<path class="st5" d="M0.8,9.8l4-4h0.8v2L5.1,7.8C5.1,7.8,5,7.8,5,7.9l-2.6,2.6H1C0.9,10.2,0.8,10,0.8,9.8z"/>
			<path class="st4" d="M0.9,5.8H4L2.1,7.7H0.6C0.6,7,0.7,6.4,0.9,5.8z"/>
			<path class="st0" d="M0.6,8.2h0.9L0.6,9.1C0.6,8.8,0.6,8.5,0.6,8.2z"/>
			<polygon class="st0" points="3.3,10.4 5.3,8.3 5.5,8.3 5.5,10.4 3.2,10.5 			"/>
			<polygon class="st0" points="7.8,8.1 10.1,5.8 10.8,5.8 10.8,10.4 10.1,10.4 			"/>
			<polygon class="st6" points="9.3,10.4 6.1,10.4 6.1,8.3 7.1,8.3 			"/>
			<polygon class="st7" points="7.4,7.7 6.1,7.7 6.1,5.8 9.3,5.8 			"/>
			<rect x="11.4" y="8.2" class="st4" width="1.7" height="2.2"/>
			<rect x="11.4" y="5.8" class="st5" width="1.7" height="1.9"/>
			<path class="st5" d="M13.6,5.8h1.4c0.2,0.6,0.3,1.2,0.3,1.9h-1.8V5.8z"/>
			<path class="st7" d="M15,10.4h-1.4V8.2h1.8C15.4,9,15.3,9.7,15,10.4z"/>
			<path class="st0" d="M5.5,11v2.7c-0.6-0.1-1.1-0.5-1.4-1c0,0,0-0.1-0.1-0.1c-0.1-0.1-0.2-0.3-0.2-0.5c-0.2-0.4-0.2-0.8-0.3-1.1
				H5.5z"/>
			<path class="st0" d="M9.8,11L7.9,13c-0.1,0.1-0.1,0.1-0.1,0.2v2.3c-0.6,0-1.1-0.1-1.7-0.2V11H9.8z"/>
			<path class="st5" d="M8.4,13.3l2.2-2.3h0.3v3.9c-0.8,0.3-1.6,0.5-2.5,0.5V13.3z"/>
			<path class="st0" d="M11.4,11h2.4c-0.6,0.6-1,1.1-1,1.1c0,0,0,0,0,0c-0.5,0.7-1.1,0.9-1.4,1V11z"/>
			<path class="st7" d="M1.2,11H3c0,0.3,0.1,0.8,0.3,1.3c0.1,0.2,0.1,0.3,0.2,0.4l-0.6,0.7c-0.1-0.1-0.1-0.1-0.2-0.2
				C2.1,12.6,1.6,11.8,1.2,11z"/>
			<path class="st6" d="M3.4,13.8l0.5-0.5c0.4,0.6,1,0.9,1.7,1.1V15C4.8,14.7,4,14.3,3.4,13.8z"/>
			<path class="st3" d="M13.3,13.3c-0.6,0.6-1.2,1-1.9,1.4v-1c0.4-0.1,1.2-0.3,1.9-1.2c0.1-0.1,0.7-0.7,1.3-1.4h0.2
				C14.4,11.8,13.9,12.6,13.3,13.3z"/>
		</g>
		<path d="M15.4,4.9c-0.4-1-1-1.8-1.7-2.5c-0.7-0.7-1.6-1.3-2.5-1.7C10.1,0.2,9.1,0,8,0C6.9,0,5.9,0.2,4.9,0.6c-1,0.4-1.8,1-2.5,1.7
			C1.6,3.1,1,3.9,0.6,4.9C0.2,5.9,0,6.9,0,8c0,1.1,0.2,2.1,0.6,3.1c0.4,1,1,1.8,1.7,2.5c0.7,0.7,1.6,1.3,2.5,1.7
			c1,0.4,2,0.6,3.1,0.6c1.1,0,2.1-0.2,3.1-0.6c1-0.4,1.8-1,2.5-1.7c0.7-0.7,1.3-1.6,1.7-2.5c0.4-1,0.6-2,0.6-3.1
			C16,6.9,15.8,5.9,15.4,4.9z M0.8,9.8l4-4h0.8v2L5.1,7.8C5.1,7.8,5,7.8,5,7.9l-2.6,2.6H1C0.9,10.2,0.8,10,0.8,9.8z M0.9,5.8H4
			L2.1,7.7H0.6C0.6,7,0.7,6.4,0.9,5.8z M2.3,5.2l0.9-1c0,0,0,0,0,0c0.7-1,1.4-1.4,1.8-1.6c0.2-0.1,0.4-0.2,0.5-0.2v2.8H2.3z
			 M0.6,8.2h0.9L0.6,9.1C0.6,8.8,0.6,8.5,0.6,8.2z M3.3,10.4l2-2l0.2,0v2.1l-2.3,0L3.3,10.4z M5.5,11v2.7c-0.6-0.1-1.1-0.5-1.4-1
			c0,0,0-0.1-0.1-0.1c-0.1-0.1-0.2-0.3-0.2-0.5c-0.2-0.4-0.2-0.8-0.3-1.1H5.5z M8.4,0.6c0.5,0,0.9,0.1,1.4,0.2L8.4,2.2V0.6z
			 M7.8,8.1l2.3-2.3h0.8v4.7h-0.7L7.8,8.1z M9.3,10.4H6.1V8.3h1L9.3,10.4z M7.4,7.7H6.1V5.8h3.2L7.4,7.7z M6.1,5.2V2.5l2.7,2.7H6.1z
			 M7.5,3.1L6.1,1.7V0.8c0.5-0.1,1.1-0.2,1.7-0.2v2.3L7.5,3.1z M9.8,11L7.9,13c-0.1,0.1-0.1,0.1-0.1,0.2v2.3c-0.6,0-1.1-0.1-1.7-0.2
			V11H9.8z M8.4,13.3l2.2-2.3h0.3v3.9c-0.8,0.3-1.6,0.5-2.5,0.5V13.3z M9.6,5.2L7.9,3.5L10.4,1c0.1,0.1,0.3,0.1,0.4,0.2v4.1H9.6z
			 M11.4,8.2h1.7v2.2h-1.7V8.2z M11.4,11h2.4c-0.6,0.6-1,1.1-1,1.1c0,0,0,0,0,0c-0.5,0.7-1.1,0.9-1.4,1V11z M13.1,7.7h-1.7V5.8h1.7
			V7.7z M11.4,5.2V2.9c0.3,0.2,0.9,0.5,1.4,1.3c0,0,0,0,0,0c0,0,0.4,0.5,1.1,1H11.4z M13.6,5.8h1.4c0.2,0.6,0.3,1.2,0.3,1.9h-1.8
			V5.8z M14.8,5.1c-1-0.4-1.5-1.1-1.6-1.1c-0.6-1.1-1.5-1.5-1.9-1.6V1.4c0.7,0.3,1.3,0.8,1.9,1.4C13.9,3.4,14.5,4.2,14.8,5.1z
			 M2.7,2.7C3.5,1.9,4.5,1.3,5.5,1v0.6c0,0.1-0.1,0.1,0,0.2C5,1.9,4,2.2,2.8,3.8L1.5,5.2H1.1C1.5,4.3,2,3.5,2.7,2.7z M1.2,11H3
			c0,0.3,0.1,0.8,0.3,1.3c0.1,0.2,0.1,0.3,0.2,0.4l-0.6,0.7c-0.1-0.1-0.1-0.1-0.2-0.2C2.1,12.6,1.6,11.8,1.2,11z M3.4,13.8l0.5-0.5
			c0.4,0.6,1,0.9,1.7,1.1V15C4.8,14.7,4,14.3,3.4,13.8z M13.3,13.3c-0.6,0.6-1.2,1-1.9,1.4v-1c0.4-0.1,1.2-0.3,1.9-1.2
			c0.1-0.1,0.7-0.7,1.3-1.4h0.2C14.4,11.8,13.9,12.6,13.3,13.3z M15,10.4h-1.4V8.2h1.8C15.4,9,15.3,9.7,15,10.4z"/>
	</g>
	<polygon class="st8" points="16,12.8 12,16 8,12.8 8,10.4 12,13.6 16,10.4 	"/>
</g>
</svg>
