<?xml version="1.0" encoding="utf-8"?>
<!-- Generator: Adobe Illustrator 24.0.3, SVG Export Plug-In . SVG Version: 6.00 Build 0)  -->
<svg version="1.1" id="Capa_1" xmlns="http://www.w3.org/2000/svg" xmlns:xlink="http://www.w3.org/1999/xlink" x="0px" y="0px"
	 viewBox="0 0 16 16" style="enable-background:new 0 0 16 16;" xml:space="preserve">
<style type="text/css">
	.st0{fill:#3FA9F5;}
	.st1{fill:#333333;}
</style>
<g>
	<g>
		<path class="st0" d="M14.2,0H1.8C0.8,0,0,0.8,0,1.8v12.4c0,1,0.8,1.8,1.8,1.8l0,0h12.4c1,0,1.8-0.8,1.8-1.8l0,0V1.8
			C16,0.8,15.2,0,14.2,0z"/>
	</g>
	<g>
		<g>
			<path class="st1" d="M1.6,1.9c-0.2,0-0.3,0.2-0.3,0.4v0.9c0,0.2,0.2,0.4,0.4,0.4h0.9C2.8,3.6,3,3.4,3,3.2c0-0.3,0-0.6,0-0.9
				C3,2.2,2.9,2,2.8,1.9c-0.1,0-0.2-0.1-0.2-0.1H1.7C1.7,1.9,1.6,1.9,1.6,1.9z"/>
			<path class="st1" d="M1.6,4.5c-0.1,0-0.3,0.1-0.3,0.3c0,0.1,0,0.2,0,0.3v0.8c0,0.2,0.2,0.4,0.4,0.4c0.3,0,0.5,0,0.8,0
				c0.1,0,0.2,0,0.3,0C2.9,6.1,3,6,3,5.8c0-0.3,0-0.6,0-0.9c0-0.2-0.2-0.4-0.4-0.4c-0.2,0-0.5,0-0.7,0C1.8,4.5,1.7,4.5,1.6,4.5z"/>
			<path class="st1" d="M1.6,7.1c-0.2,0-0.3,0.2-0.3,0.4c0,0.3,0,0.6,0,0.9c0,0.2,0.2,0.4,0.4,0.4h0.9C2.8,8.9,3,8.7,3,8.5
				c0-0.3,0-0.6,0-0.9c0-0.2-0.2-0.4-0.4-0.4c-0.2,0-0.5,0-0.7,0C1.8,7.1,1.7,7.1,1.6,7.1z"/>
			<path class="st1" d="M1.6,9.8c-0.2,0-0.3,0.2-0.3,0.4c0,0.3,0,0.6,0,0.9c0,0.2,0.2,0.4,0.4,0.4h0.9c0.2,0,0.4-0.2,0.4-0.4
				c0-0.3,0-0.6,0-0.9C3,10,2.8,9.8,2.6,9.8c-0.2,0-0.5,0-0.7,0C1.8,9.7,1.7,9.8,1.6,9.8z"/>
			<path class="st1" d="M1.6,12.4c-0.2,0-0.3,0.2-0.3,0.4c0,0.3,0,0.6,0,0.9c0,0.2,0.2,0.4,0.4,0.4h0.9c0.2,0,0.4-0.2,0.4-0.4
				c0-0.3,0-0.6,0-0.9c0-0.2-0.2-0.4-0.4-0.4c-0.2,0-0.5,0-0.7,0C1.8,12.4,1.7,12.4,1.6,12.4z"/>
		</g>
		<g>
			<path class="st1" d="M13.3,1.9c-0.2,0-0.3,0.2-0.3,0.4v0.9c0,0.2,0.2,0.4,0.4,0.4h0.9c0.2,0,0.4-0.2,0.4-0.4c0-0.3,0-0.6,0-0.9
				c0-0.2-0.1-0.3-0.2-0.4c-0.1,0-0.2-0.1-0.2-0.1h-0.8C13.4,1.9,13.4,1.9,13.3,1.9z"/>
			<path class="st1" d="M13.3,4.5c-0.1,0-0.3,0.1-0.3,0.3C13,4.9,13,5,13,5v0.8c0,0.2,0.2,0.4,0.4,0.4c0.3,0,0.5,0,0.8,0
				c0.1,0,0.2,0,0.3,0c0.2-0.1,0.2-0.2,0.2-0.4c0-0.3,0-0.6,0-0.9c0-0.2-0.2-0.4-0.4-0.4c-0.2,0-0.5,0-0.7,0
				C13.5,4.5,13.4,4.5,13.3,4.5z"/>
			<path class="st1" d="M13.3,7.1c-0.2,0-0.3,0.2-0.3,0.4c0,0.3,0,0.6,0,0.9c0,0.2,0.2,0.4,0.4,0.4h0.9c0.2,0,0.4-0.2,0.4-0.4
				c0-0.3,0-0.6,0-0.9c0-0.2-0.2-0.4-0.4-0.4c-0.2,0-0.5,0-0.7,0C13.5,7.1,13.4,7.1,13.3,7.1z"/>
			<path class="st1" d="M13.3,9.8c-0.2,0-0.3,0.2-0.3,0.4c0,0.3,0,0.6,0,0.9c0,0.2,0.2,0.4,0.4,0.4h0.9c0.2,0,0.4-0.2,0.4-0.4
				c0-0.3,0-0.6,0-0.9c0-0.2-0.2-0.4-0.4-0.4c-0.2,0-0.5,0-0.7,0C13.5,9.7,13.4,9.8,13.3,9.8z"/>
			<path class="st1" d="M13.3,12.4c-0.2,0-0.3,0.2-0.3,0.4c0,0.3,0,0.6,0,0.9c0,0.2,0.2,0.4,0.4,0.4h0.9c0.2,0,0.4-0.2,0.4-0.4
				c0-0.3,0-0.6,0-0.9c0-0.2-0.2-0.4-0.4-0.4c-0.2,0-0.5,0-0.7,0C13.5,12.4,13.4,12.4,13.3,12.4z"/>
		</g>
	</g>
	<path class="st1" d="M5.5,5c1.7,1,3.3,2,5,3l-0.1,0.1C8.8,9,7.1,10,5.5,11c0-1,0-2,0-2.9C5.5,7,5.5,6,5.5,5z"/>
</g>
</svg>
