<?xml version="1.0" encoding="utf-8"?>
<!-- Generator: Adobe Illustrator 24.0.3, SVG Export Plug-In . SVG Version: 6.00 Build 0)  -->
<svg version="1.1" id="Capa_1" xmlns="http://www.w3.org/2000/svg" xmlns:xlink="http://www.w3.org/1999/xlink" x="0px" y="0px"
	 viewBox="0 0 16 16" style="enable-background:new 0 0 16 16;" xml:space="preserve">
<style type="text/css">
	.st0{fill:#5F7B6D;}
	.st1{fill:#FFFFF3;}
	.st2{fill:#476256;}
	.st3{fill:#758D7A;}
	.st4{fill:#92A487;}
	.st5{fill:#C4C9A8;}
	.st6{fill:#253B3A;}
	.st7{fill:#678173;}
	.st8{fill:#2F4748;}
	.st9{fill:#BF9455;}
	.st10{fill:#FFE370;}
	.st11{fill:#F0C96C;}
	.st12{fill:#CCCCCC;}
</style>
<path d="M3.9,1.9l0.2-0.1l2-0.5l0,0c0.1-0.1,0.2-0.2,0.3-0.2c0.5-0.2,1-0.4,1.5-0.3H8c0.1,0,0.1,0,0.2,0C9,0.6,9.9,0.4,10.7,0.1h0.1
	l0.5,0.2c0,0,0,0,0.1,0c0.5-0.1,0.9-0.2,1.4-0.4C12.9-0.1,12.9,0,13,0c0.1,0.2,0.2,0.3,0.3,0.5c0.2,0.3,0.3,0.5,0.4,0.8
	c0.1,0.1,0.1,0.3,0.2,0.5c0.1,0.3,0.2,0.7,0.2,1s0.1,0.6,0.1,0.9c0,0.4-0.1,0.9-0.2,1.3v0.1l0,0c-0.6,0.1-1.2,0.3-1.8,0.4
	c-0.1,0-0.2,0-0.3,0.1c-0.2,0-0.3,0.2-0.4,0.2c-0.3,0.1-0.7,0.2-1,0.2c-0.4,0.1-0.8,0.2-1.2,0.3l0,0c0,0.1,0.1,0.3,0.1,0.4
	c0.3,1.2,0.5,2,0.5,2.4c0.1,0.4,0.2,0.9,0.3,1.3c0,0.2,0.1,0.3,0.1,0.5c0.1,0.5,0.3,1.1,0.4,1.6c0.1,0.6,0.3,1.1,0.4,1.7
	c0,0.1,0.1,0.3,0.1,0.4c0,0.1-0.1,0.2-0.2,0.3c-0.4,0.3-0.8,0.4-1.2,0.6c-0.7,0.2-1.3,0.3-2,0.2c-0.3,0-0.6,0-0.8-0.2l-0.1-0.1
	c0-0.1,0-0.2,0-0.2c-0.1-0.9-0.1-1.8-0.2-2.7c-0.1-0.6-0.1-1.1-0.1-1.7c0-0.2,0-0.3,0-0.4c0-0.4-0.1-1-0.1-1.6
	c-0.1-0.5-0.1-1-0.2-1.6l0,0c-0.1,0-0.2,0-0.2,0C5,7.5,4.1,7.7,3.6,7.8l0,0C2.2,7,1.7,5.3,1.8,3.8C1.8,3.4,2,3,2.1,2.6
	c0,0,0-0.1,0.1-0.1l0,0l1.1-0.1l0,0L3.9,1.9z M12.1,0.5l-0.2,0.1h-0.1l0,0l0,0l0,0h-0.1l0,0l0,0c0,0,0,0.1,0.1,0.1l0,0H12l0.7-0.2
	l0,0l0.1,0.1l-1,0.3l0,0l0,0l0.1,0.3v0.1L12,1.9c0.1,0.3,0.2,0.6,0.2,0.8c0.1,0.4,0.2,0.7,0.3,1.1l0,0h0.1c0.4-0.1,0.8-0.2,1.2-0.3
	l0,0c0-0.6-0.1-1.2-0.3-1.7c-0.1-0.4-0.3-0.7-0.5-1c-0.1-0.1-0.2-0.2-0.2-0.3l-0.1-0.1c-0.1,0-0.1,0-0.2,0.1
	C12.3,0.5,12.2,0.5,12.1,0.5z M4.3,2.2l0.4,1.5C4.9,4.3,5,5,5.2,5.6c0,0.1,0.1,0.3,0.1,0.4H5.2l0,0C5.1,5.7,5,5.3,4.9,5.1
	C4.7,4,4.4,3,4.1,2.3l0,0l0,0L4,2.4l0,0c0,0,0,0.1,0.1,0.1c0.2,0.6,0.4,1.3,0.6,1.9c0,0.2,0.1,0.4,0.1,0.5C4.8,5.3,4.9,5.7,5,6
	c0,0,0,0,0,0.1c0,0-0.1,0.1-0.1,0.2C4.7,6.6,4.4,7,4.1,7.3l0,0c0.2-0.1,0.5-0.1,0.7-0.2C5,7.1,5.4,7,5.9,6.9l1.5-0.4
	c0.2,0,0.4-0.1,0.6-0.1c0.2-0.1,0.5-0.1,0.8-0.2c0.6-0.1,1.3-0.3,1.9-0.4c0.2-0.1,0.5-0.1,0.7-0.2c0,0,0.1,0,0.1-0.1l0,0l0,0
	c-0.3,0.1-0.6,0.2-1,0.2c-0.1,0-0.3,0.1-0.4,0.1c-0.1,0-0.1,0-0.1,0l0,0c0.1-0.1,0.2-0.1,0.3-0.1c0.4-0.1,0.9-0.2,1.3-0.3l0,0
	l0.1-0.1l0,0l0,0c-0.1,0-0.2,0-0.2,0.1c-0.3,0.1-0.6,0.1-0.8,0.2S10.2,5.7,10,5.8C9.3,5.7,8.6,5.8,7.9,6H7.8
	C7.3,6.1,6.9,6.3,6.5,6.4c-0.3,0-0.6,0.1-0.9,0.2c0,0-0.1,0-0.2,0L5,6.7l0,0l0,0l0.3-0.6C5.5,6.1,5.7,6,6,6c1-0.2,1.9-0.5,2.9-0.7
	c0.1,0,0.3-0.1,0.4-0.1C10.2,5,11.1,4.7,12,4.5h0.1l0,0l0,0c0-0.5-0.1-0.9-0.2-1.2c-0.2-0.8-0.4-1.6-0.7-2.5c0-0.1,0-0.1-0.1-0.2
	s-0.2-0.1-0.3-0.2l0,0c-0.1,0-0.2,0-0.2,0c-0.4,0.1-0.7,0.2-1.1,0.3C9.1,0.9,8.7,1,8.4,1.1C8.1,1.2,7.8,1.3,7.5,1.3
	C6.8,1.5,6.2,1.7,5.8,1.8C5.3,1.9,4.8,2,4.3,2.2C4.3,2.1,4.3,2.2,4.3,2.2L4.3,2.2z M3.5,4.9c0,0.1,0,0.1,0,0.2c0,0,0,0.1,0,0.2v0.1
	l0,0l0,0c0,0.1,0,0.3,0,0.4c0,0.4,0,0.8-0.1,1.1c0,0.1-0.1,0.2-0.1,0.3l0,0l0.2,0.1l0.1,0.1l0,0l0,0c0.1,0,0.2-0.2,0.3-0.4
	c0-0.6,0-1.1-0.1-1.6c0-0.2-0.1-0.3-0.1-0.4c-0.2-0.7-0.4-1.5-1-2l0,0H2.5l0,0C3,3.6,3.3,4.2,3.5,4.9z M4,4.9c0.1,0.3,0.1,0.6,0.2,1
	c0,0.1,0,0.3,0,0.4l0,0l0.1-0.1V6.1c0-0.4-0.1-0.7-0.1-0.9c-0.1-0.5-0.3-1-0.4-1.5C3.7,3.5,3.6,3.3,3.4,3l0,0H3.2l0,0l0,0
	c0.1,0.1,0.2,0.3,0.3,0.4c0.1,0.1,0.1,0.2,0.2,0.4c0,0.2,0.1,0.5,0.2,0.8C3.9,4.7,4,4.8,4,4.9z M13.8,3.7L12.5,4l0,0v0.1l0,0l0,0
	C13,4,13.4,3.9,13.8,3.7L13.8,3.7L13.8,3.7L13.8,3.7L13.8,3.7z M13.8,4L13.8,4l-1.2,0.3l0,0l0,0l0,0l0,0L13.8,4
	C13.8,4.1,13.8,4.1,13.8,4C13.8,4.1,13.8,4.1,13.8,4L13.8,4z M13.7,4.5L13.7,4.5L13.7,4.5L13.7,4.5c-0.4,0-0.7,0.1-1.1,0.2l0,0l0,0
	l0,0L13.7,4.5L13.7,4.5z M12.5,5c0.4-0.1,0.7-0.1,1.1-0.2c0,0,0.1,0,0.1-0.1l0,0l0,0c-0.1,0-0.3,0.1-0.4,0.1
	c-0.2,0.1-0.4,0.1-0.4,0.1C12.7,4.9,12.6,5,12.5,5L12.5,5L12.5,5L12.5,5z M12.9,5.2c-0.1,0-0.1,0-0.2,0.1l0,0l0,0L13.5,5l0,0l0,0
	l0,0C13.3,5,13.1,5.1,12.9,5.2z M3.2,5.8C3.3,5.8,3.3,5.8,3.2,5.8C3.3,5.8,3.3,5.8,3.2,5.8L3.2,5.8L3.2,5.8L3.2,5.8L3.2,5.8z M3.1,6
	L3.1,6L3.1,6L3.1,6L3.1,6L3.1,6L3.1,6L3.1,6L3.1,6z M3.2,6.1C3.3,6.1,3.3,6.1,3.2,6.1L3.2,6.1C3.3,6,3.3,6,3.2,6.1
	C3.2,6,3.2,6,3.2,6.1C3.2,6,3.2,6,3.2,6.1L3.2,6.1L3.2,6.1L3.2,6.1z M3.1,6.2L3.1,6.2L3.1,6.2L3.1,6.2L3.1,6.2L3.1,6.2L3.1,6.2z
	 M3.3,6.4C3.3,6.4,3.3,6.3,3.3,6.4L3.3,6.4C3.3,6.3,3.3,6.3,3.3,6.4C3.2,6.3,3.2,6.3,3.3,6.4C3.2,6.3,3.2,6.3,3.3,6.4
	C3.2,6.4,3.2,6.4,3.3,6.4z M3.1,6.5L3.1,6.5C3.1,6.4,3.1,6.4,3.1,6.5C3.1,6.4,3.1,6.4,3.1,6.5C3.1,6.4,3.1,6.4,3.1,6.5
	C3.1,6.4,3.1,6.4,3.1,6.5C3.1,6.4,3.1,6.5,3.1,6.5L3.1,6.5z M9,7l0.1,0.6l0,0l0,0C9,7.5,8.9,7.2,8.9,7L8.8,6.5l0,0
	C8.4,6.6,8,6.6,7.7,6.8l0,0C7.8,7.2,7.8,7.6,7.9,8C7.9,8.2,8,8.5,8,8.9C8,9,8,9.1,8,9.2l0,0c0,0,0,0,0,0.1l0,0V9.2
	C7.9,8.9,7.8,8.5,7.8,8.3C7.7,7.9,7.6,7.4,7.5,7V6.9l0,0H7.3l0,0c0.1,0.5,0.2,0.9,0.2,1.2c0,0.1,0,0.1,0,0.2v0.1v0.1l0,0
	c0,0.1,0,0.1,0,0.2v0.1v0.1l0,0l0,0l0,0V9l0,0c0,0.1,0.1,0.1,0.1,0.2c0,0.1,0,0.1,0.1,0.2l0,0v0.1l0,0c0.1,0,0.1,0.1,0,0.2
	c0,0,0,0,0,0.1L7.8,10l0,0v0.1c0,0,0.1,0,0.1,0.1v0.1l0,0L8,10.4l0,0c-0.1,0.1,0,0.1,0,0.2l0,0l0,0c0,0.1-0.1,0.1,0,0.2l0,0v0.1V11
	l0,0v0.1l0,0c-0.1,0.1,0,0.1,0,0.1s0,0,0,0.1s-0.1,0.1,0,0.2v0.1l0,0C8,12,8,12,8.1,12.1l0,0v0.1c0,0.1,0.1,0.1,0.1,0.2
	c0,0.1,0,0.1,0.1,0.2c0,0,0,0,0,0.1l0,0c-0.1,0,0,0.1,0,0.1c0.1,0.1-0.1,0.2,0,0.3c0,0,0.1,0.1,0,0.2l0,0c0,0,0,0.1,0.1,0.1
	c0.1,0.1-0.1,0.2,0,0.3l0,0v0.1v0.1L8.5,14c0,0,0,0,0,0.1s0,0.1,0,0.2c0.1,0.1,0,0.2,0.1,0.3l0,0v0.1c0,0.1,0,0.1,0,0.2V15v0.1v0.1
	c0,0.1,0.1,0.2,0.1,0.4c-0.4,0.1-0.7,0.2-1,0.2c-0.1,0-0.1,0,0,0c1,0.1,2-0.1,2.9-0.4c0.1,0,0.2-0.1,0.3-0.1l0.2-0.2l0,0
	c-0.4-1.9-0.9-3.7-1.3-5.6C9.5,8.5,9.3,7.7,9.2,7L9.1,6.5l0,0H9l0,0V7z M3.2,6.6C3.3,6.6,3.3,6.6,3.2,6.6C3.3,6.6,3.3,6.6,3.2,6.6
	C3.3,6.5,3.3,6.5,3.2,6.6C3.2,6.5,3.2,6.5,3.2,6.6L3.2,6.6L3.2,6.6z M3.1,6.7L3.1,6.7L3.1,6.7C3.1,6.6,3.1,6.6,3.1,6.7
	C3.1,6.6,3.1,6.6,3.1,6.7L3.1,6.7C3,6.7,3.1,6.7,3.1,6.7z M3.2,6.9C3.2,6.9,3.3,6.8,3.2,6.9C3.3,6.8,3.3,6.8,3.2,6.9
	C3.2,6.8,3.2,6.8,3.2,6.9L3.2,6.9C3.2,6.8,3.2,6.8,3.2,6.9C3.2,6.8,3.2,6.8,3.2,6.9C3.2,6.8,3.2,6.9,3.2,6.9L3.2,6.9z M3,6.9
	C3.1,6.9,3.1,6.9,3,6.9C3.1,6.8,3.1,6.8,3,6.9C3,6.8,3,6.9,3,6.9L3,6.9z M3.2,7.1L3.2,7.1C3.2,7,3.2,7,3.2,7.1C3.2,7,3.2,7,3.2,7.1
	C3.2,7,3.2,7,3.2,7.1C3.2,7,3.2,7,3.2,7.1L3.2,7.1z M7.2,7.5L7.2,7.5C7.1,7.5,7.1,7.5,7.2,7.5L7.2,7.5C7.1,7.5,7.1,7.5,7.2,7.5
	L7.2,7.5L7.2,7.5z M7.2,7.8L7.2,7.8C7.2,7.7,7.2,7.7,7.2,7.8C7.2,7.7,7.2,7.7,7.2,7.8C7.2,7.7,7.2,7.7,7.2,7.8L7.2,7.8L7.2,7.8z
	 M7,7.8L7,7.8L7,7.8L7,7.8L7,7.8z M7.3,8C7.3,8,7.2,7.9,7.3,8C7.2,7.9,7.2,8,7.3,8C7.2,8,7.2,8,7.3,8C7.2,8,7.2,8,7.3,8
	C7.2,8,7.3,8,7.3,8L7.3,8z M7.3,8.3C7.3,8.3,7.3,8.2,7.3,8.3C7.3,8.2,7.3,8.2,7.3,8.3C7.2,8.2,7.2,8.2,7.3,8.3
	C7.2,8.2,7.2,8.2,7.3,8.3C7.2,8.3,7.3,8.3,7.3,8.3z M7.3,8.5L7.3,8.5C7.3,8.4,7.3,8.4,7.3,8.5C7.3,8.4,7.3,8.4,7.3,8.5L7.3,8.5
	C7.3,8.4,7.3,8.4,7.3,8.5L7.3,8.5L7.3,8.5L7.3,8.5L7.3,8.5z M7.1,8.5L7.1,8.5L7.1,8.5L7.1,8.5L7.1,8.5L7.1,8.5L7.1,8.5L7.1,8.5
	L7.1,8.5z M7.4,8.7L7.4,8.7C7.3,8.7,7.3,8.7,7.4,8.7L7.4,8.7C7.3,8.7,7.3,8.8,7.4,8.7L7.4,8.7C7.4,8.8,7.4,8.7,7.4,8.7z M7.1,8.8
	L7.1,8.8C7.1,8.7,7.1,8.7,7.1,8.8C7.1,8.7,7.1,8.7,7.1,8.8C7.1,8.7,7.1,8.7,7.1,8.8L7.1,8.8z M7.4,9L7.4,9c0-0.1,0-0.1,0-0.1l0,0
	C7.3,8.9,7.3,8.9,7.4,9L7.4,9L7.4,9z M7.2,9L7.2,9L7.2,9L7.2,9C7.1,9,7.1,9,7.2,9C7.1,9,7.2,9,7.2,9z M7.4,9.3
	C7.4,9.2,7.5,9.2,7.4,9.3C7.5,9.2,7.5,9.2,7.4,9.3c0-0.1,0-0.1,0-0.1l0,0C7.4,9.2,7.4,9.2,7.4,9.3C7.4,9.2,7.4,9.2,7.4,9.3
	C7.4,9.2,7.4,9.3,7.4,9.3L7.4,9.3z M7.2,9.3L7.2,9.3C7.2,9.2,7.2,9.2,7.2,9.3C7.2,9.2,7.2,9.2,7.2,9.3C7.2,9.2,7.2,9.2,7.2,9.3
	C7.2,9.2,7.2,9.2,7.2,9.3C7.2,9.2,7.2,9.2,7.2,9.3L7.2,9.3L7.2,9.3z M7.5,9.5L7.5,9.5L7.5,9.5C7.5,9.4,7.4,9.4,7.5,9.5
	C7.4,9.4,7.4,9.4,7.5,9.5C7.4,9.5,7.4,9.5,7.5,9.5C7.4,9.5,7.4,9.5,7.5,9.5z M7.2,9.5C7.2,9.5,7.3,9.5,7.2,9.5
	C7.3,9.5,7.2,9.5,7.2,9.5L7.2,9.5L7.2,9.5L7.2,9.5L7.2,9.5z M7.5,9.7L7.5,9.7L7.5,9.7L7.5,9.7L7.5,9.7L7.5,9.7
	C7.4,9.7,7.5,9.8,7.5,9.7L7.5,9.7C7.5,9.8,7.5,9.8,7.5,9.7L7.5,9.7L7.5,9.7z M7.3,9.8C7.3,9.7,7.3,9.7,7.3,9.8
	C7.3,9.7,7.3,9.7,7.3,9.8C7.3,9.7,7.2,9.7,7.3,9.8L7.3,9.8C7.2,9.8,7.3,9.8,7.3,9.8L7.3,9.8z M7.6,10L7.6,10C7.6,9.9,7.6,9.9,7.6,10
	C7.5,9.9,7.5,9.9,7.6,10C7.5,9.9,7.5,9.9,7.6,10C7.5,10,7.5,10,7.6,10C7.5,10,7.5,10,7.6,10C7.5,10,7.5,10,7.6,10L7.6,10z M7.3,10
	L7.3,10L7.3,10L7.3,10L7.3,10L7.3,10L7.3,10z M7.6,10.3L7.6,10.3c0-0.1,0-0.1,0-0.1l0,0C7.5,10.2,7.5,10.2,7.6,10.3
	C7.5,10.3,7.5,10.3,7.6,10.3L7.6,10.3z M7.4,10.3L7.4,10.3L7.4,10.3C7.3,10.2,7.3,10.2,7.4,10.3C7.3,10.3,7.3,10.3,7.4,10.3
	C7.3,10.3,7.3,10.3,7.4,10.3C7.3,10.3,7.4,10.3,7.4,10.3z M7.6,10.5L7.6,10.5L7.6,10.5c0-0.1,0-0.1,0-0.1V10.5L7.6,10.5L7.6,10.5z
	 M7.4,10.6C7.4,10.6,7.4,10.5,7.4,10.6C7.4,10.5,7.4,10.5,7.4,10.6C7.4,10.5,7.4,10.5,7.4,10.6C7.4,10.5,7.4,10.5,7.4,10.6z
	 M7.7,10.7L7.7,10.7C7.6,10.7,7.6,10.7,7.7,10.7C7.6,10.8,7.6,10.8,7.7,10.7L7.7,10.7C7.7,10.8,7.7,10.8,7.7,10.7L7.7,10.7z
	 M7.4,10.8L7.4,10.8L7.4,10.8L7.4,10.8L7.4,10.8L7.4,10.8L7.4,10.8L7.4,10.8L7.4,10.8z M7.7,11.1C7.7,11,7.7,11,7.7,11.1
	c0-0.1,0-0.1,0-0.1l0,0C7.6,10.9,7.6,11,7.7,11.1C7.6,11,7.7,11.1,7.7,11.1L7.7,11.1z M7.5,11.1L7.5,11.1C7.5,11,7.5,11,7.5,11.1
	C7.5,11,7.5,11,7.5,11.1C7.4,11,7.4,11,7.5,11.1C7.4,11,7.4,11,7.5,11.1L7.5,11.1C7.4,11.1,7.5,11.1,7.5,11.1L7.5,11.1z M7.7,11.3
	C7.8,11.3,7.8,11.3,7.7,11.3C7.7,11.2,7.7,11.2,7.7,11.3C7.7,11.2,7.7,11.3,7.7,11.3L7.7,11.3z M7.5,11.3L7.5,11.3L7.5,11.3
	L7.5,11.3L7.5,11.3L7.5,11.3L7.5,11.3z M7.7,11.5L7.7,11.5L7.7,11.5C7.8,11.5,7.8,11.5,7.7,11.5C7.8,11.5,7.8,11.5,7.7,11.5
	C7.8,11.4,7.8,11.4,7.7,11.5C7.8,11.4,7.8,11.4,7.7,11.5C7.7,11.4,7.7,11.5,7.7,11.5z M7.6,11.5C7.6,11.5,7.5,11.5,7.6,11.5
	C7.5,11.5,7.5,11.5,7.6,11.5C7.5,11.5,7.5,11.5,7.6,11.5C7.5,11.5,7.5,11.5,7.6,11.5C7.5,11.5,7.6,11.5,7.6,11.5L7.6,11.5z
	 M7.8,11.8L7.8,11.8c0.1-0.1,0-0.1,0-0.1l0,0C7.8,11.7,7.7,11.7,7.8,11.8C7.7,11.8,7.8,11.8,7.8,11.8L7.8,11.8z M7.6,11.8L7.6,11.8
	C7.6,11.8,7.6,11.7,7.6,11.8C7.6,11.7,7.6,11.7,7.6,11.8C7.6,11.7,7.6,11.7,7.6,11.8C7.5,11.8,7.6,11.8,7.6,11.8L7.6,11.8z M7.9,12
	L7.9,12C7.9,11.9,7.8,11.9,7.9,12C7.8,11.9,7.8,11.9,7.9,12L7.9,12C7.8,11.9,7.8,12,7.9,12C7.8,12,7.8,12,7.9,12L7.9,12
	C7.8,12,7.8,12,7.9,12L7.9,12C7.8,12,7.8,12,7.9,12L7.9,12z M7.6,12L7.6,12L7.6,12L7.6,12L7.6,12L7.6,12L7.6,12z M7.9,12.2L7.9,12.2
	L7.9,12.2C7.8,12.2,7.8,12.2,7.9,12.2C7.8,12.2,7.8,12.2,7.9,12.2C7.8,12.3,7.8,12.3,7.9,12.2L7.9,12.2C7.9,12.3,7.9,12.3,7.9,12.2
	L7.9,12.2z M7.6,12.3C7.7,12.3,7.7,12.3,7.6,12.3L7.6,12.3C7.7,12.3,7.6,12.3,7.6,12.3L7.6,12.3L7.6,12.3z M7.9,12.6
	C7.9,12.6,8,12.5,7.9,12.6L7.9,12.6c0-0.1,0-0.1,0-0.1C7.9,12.4,7.9,12.5,7.9,12.6L7.9,12.6C7.9,12.5,7.9,12.6,7.9,12.6z M7.7,12.6
	L7.7,12.6C7.7,12.5,7.7,12.5,7.7,12.6L7.7,12.6C7.7,12.5,7.7,12.5,7.7,12.6L7.7,12.6L7.7,12.6z M8,12.8L8,12.8c0-0.1,0-0.1,0-0.1
	l0,0C7.9,12.7,7.9,12.7,8,12.8C7.9,12.8,7.9,12.8,8,12.8L8,12.8z M7.7,12.8L7.7,12.8L7.7,12.8L7.7,12.8L7.7,12.8L7.7,12.8L7.7,12.8
	L7.7,12.8L7.7,12.8z M8,13.1L8,13.1C8,13,8,13,8,13S7.9,13,8,13.1C7.9,13.1,8,13.1,8,13.1z M7.7,13.1C7.8,13.1,7.8,13.1,7.7,13.1
	C7.8,13.1,7.8,13.1,7.7,13.1C7.8,13.1,7.8,13.1,7.7,13.1L7.7,13.1z M8,13.4C8.1,13.4,8.1,13.3,8,13.4c0-0.1,0-0.1,0-0.1l0,0
	C8,13.2,8,13.3,8,13.4C8,13.3,8,13.4,8,13.4L8,13.4z M7.8,13.3L7.8,13.3L7.8,13.3C7.8,13.4,7.8,13.4,7.8,13.3
	C7.8,13.4,7.8,13.4,7.8,13.3z M8.1,13.6L8.1,13.6L8.1,13.6c0-0.1,0-0.1,0-0.1l0,0C8,13.5,8,13.5,8.1,13.6C8,13.6,8.1,13.6,8.1,13.6
	L8.1,13.6z M7.9,13.6L7.9,13.6C7.8,13.6,7.8,13.6,7.9,13.6C7.8,13.6,7.8,13.6,7.9,13.6L7.9,13.6L7.9,13.6L7.9,13.6z M8.1,13.9
	C8.1,13.9,8.2,13.8,8.1,13.9L8.1,13.9c0-0.1,0-0.1,0-0.1l0,0C8.1,13.8,8.1,13.8,8.1,13.9C8.1,13.8,8.1,13.8,8.1,13.9L8.1,13.9
	L8.1,13.9z M7.9,13.9C7.9,13.8,7.9,13.8,7.9,13.9C7.9,13.8,7.9,13.8,7.9,13.9C7.9,13.8,7.8,13.8,7.9,13.9L7.9,13.9
	C7.8,13.9,7.9,13.9,7.9,13.9L7.9,13.9z M8.2,14.1L8.2,14.1c0-0.1,0-0.1,0-0.1l0,0C8.1,14,8.1,14.1,8.2,14.1
	C8.1,14.1,8.1,14.1,8.2,14.1C8.1,14.1,8.1,14.1,8.2,14.1L8.2,14.1z M7.9,14.2C7.9,14.1,8,14.1,7.9,14.2C7.9,14.1,7.9,14.1,7.9,14.2
	C7.9,14.1,7.9,14.1,7.9,14.2C7.9,14.1,7.9,14.1,7.9,14.2C7.9,14.1,7.9,14.1,7.9,14.2C7.9,14.1,7.9,14.1,7.9,14.2L7.9,14.2L7.9,14.2z
	 M8.2,14.4L8.2,14.4C8.2,14.3,8.2,14.3,8.2,14.4L8.2,14.4C8.2,14.3,8.1,14.3,8.2,14.4L8.2,14.4C8.1,14.4,8.2,14.4,8.2,14.4L8.2,14.4
	L8.2,14.4z M8,14.4L8,14.4C7.9,14.4,7.9,14.4,8,14.4C7.9,14.4,7.9,14.4,8,14.4C7.9,14.4,8,14.4,8,14.4L8,14.4L8,14.4z M8.3,14.6
	L8.3,14.6L8.3,14.6C8.2,14.6,8.2,14.6,8.3,14.6C8.2,14.6,8.2,14.6,8.3,14.6C8.2,14.6,8.2,14.6,8.3,14.6C8.2,14.6,8.2,14.6,8.3,14.6
	C8.2,14.6,8.3,14.6,8.3,14.6z M8.3,14.8L8.3,14.8C8.3,14.8,8.2,14.8,8.3,14.8C8.2,14.9,8.3,14.9,8.3,14.8
	C8.3,14.9,8.3,14.9,8.3,14.8z M8.3,15.1L8.3,15.1C8.3,15,8.3,15,8.3,15.1L8.3,15.1L8.3,15.1L8.3,15.1z"/>
<path class="st0" d="M12.7,0.5c-0.1,0-0.1,0-0.2,0c-0.1,0-0.3,0.1-0.4,0.1l0,0c0.1,0,0.2-0.1,0.3-0.1S12.5,0.5,12.7,0.5
	C12.7,0.4,12.7,0.4,12.7,0.5z"/>
<path class="st1" d="M12.7,0.5c0.1,0.1,0.2,0.2,0.2,0.3c0.2,0.3,0.4,0.6,0.5,1c0.2,0.6,0.3,1.1,0.3,1.7l0,0l0,0c0-0.1,0-0.1,0-0.2
	V3.2c-0.1-0.4-0.2-0.8-0.3-1.2c0-0.1-0.1-0.3-0.1-0.4c-0.1-0.1-0.1-0.3-0.2-0.4c0,0,0,0-0.1,0l-0.3,0.1l-0.5,0.1l0,0V1.3l0,0l0,0
	l0,0L13,1.1l0,0l0,0L12.9,1c0,0,0-0.1-0.1-0.1l0,0L12,1V0.9l0,0l0,0l0.8-0.2l0,0l0,0L12.7,0.5c-0.1,0.1-0.1,0-0.1,0.1l-0.7,0.2h-0.1
	h-0.1l0,0c0,0-0.1,0-0.1-0.1l0,0l0,0h0.1l0,0h0.2H12c0.1,0,0.3-0.1,0.4-0.1C12.6,0.4,12.6,0.4,12.7,0.5z"/>
<path class="st1" d="M12.1,4.5L12.1,4.5c-0.1,0-0.1,0-0.1,0V4.3L11.9,4l-0.2-0.7c-0.2-0.7-0.3-1.2-0.4-1.5c-0.1-0.3-0.2-0.6-0.3-0.9
	l0,0c-0.1,0-0.2,0-0.3,0.1c-0.2-0.1-0.5,0-0.7,0C9.4,1.2,8.7,1.3,8.1,1.5c-0.1,0-0.2,0-0.2,0.1H7.8l0,0l0,0l0,0c-0.1,0-0.1,0-0.2,0
	s-0.1,0-0.1,0c-0.4,0-0.7,0.1-1.1,0.2C5.8,1.9,5.2,2,4.7,2.2c-0.1,0-0.2,0.1-0.4,0.1l0,0l0,0l0,0c0.5-0.1,1-0.3,1.5-0.4
	c0.4-0.1,1.1-0.3,1.7-0.4c0.3-0.1,0.6-0.2,0.9-0.2c0.3-0.3,0.7-0.4,1-0.5c0.4-0.1,0.7-0.2,1.1-0.3c0.1,0,0.2,0,0.2,0l0,0
	c0.1,0.1,0.2,0.1,0.3,0.2c0.1,0,0.1,0.1,0.1,0.2c0.3,0.9,0.5,1.7,0.7,2.5C12,3.6,12.1,4,12.1,4.5C12.2,4.5,12.2,4.5,12.1,4.5
	C12.2,4.5,12.1,4.5,12.1,4.5z"/>
<path class="st2" d="M12.1,0.5L12.1,0.5L12,0.6l0,0L12.1,0.5z"/>
<path class="st3" d="M11.9,0.6L11.9,0.6h-0.1l0,0l0,0H11.9z"/>
<path class="st2" d="M11.7,0.6C11.7,0.7,11.7,0.7,11.7,0.6L11.7,0.6z"/>
<path class="st4" d="M12.7,0.7L12.7,0.7L12.7,0.7L11.9,1l0,0l0,0H12c0,0,0,0,0,0.1c0,0,0,0,0.1,0s0.1,0,0.1,0h-0.1l-0.3,0.1L11.7,1
	l0,0l0,0L12.7,0.7z"/>
<path class="st5" d="M11.9,0.7h-0.2H11.9C11.9,0.7,11.9,0.7,11.9,0.7z"/>
<path class="st3" d="M11.7,3.3C11.7,3.2,11.7,3.2,11.7,3.3C11.7,3.2,11.7,3.2,11.7,3.3C11.7,3.2,11.7,3.2,11.7,3.3
	C11.7,3.2,11.7,3.2,11.7,3.3C11.7,3.2,11.7,3.2,11.7,3.3C11.7,3.2,11.7,3.2,11.7,3.3h-0.2c0,0,0,0,0,0.1v0.1
	c-0.1-0.5-0.2-0.9-0.4-1.4C11.1,2,11.1,2,11,2s-0.2,0-0.2,0.1c0,0,0,0,0,0.1c0,0,0,0,0-0.1l0,0l0,0v0.1l0,0l0,0l0,0l0,0l0,0l0,0l0,0
	l0,0l0,0l0,0l0,0l0,0h-0.1l0,0l0,0l0,0l0,0l0,0l0,0l0,0l0,0h-0.1l0,0l0,0l0,0l0,0l0,0l0,0l0,0h-0.1l0,0l0,0l0,0l0,0
	C9.8,1.6,9.3,1.8,9,2.2c0,0.1,0,0.2-0.1,0.2l0,0l0,0v0.1l0,0l0,0l0,0v0.4l0,0H8.8l0,0l0,0l0,0H8.7l0,0l0,0l0,0c0,0-0.1-0.1-0.2-0.1
	c-0.1,0-0.1,0-0.2-0.1c-0.1,0-0.1,0-0.1,0c-0.1,0-0.1,0-0.2,0l0,0l0,0c0,0-0.1,0-0.2,0s-0.1,0-0.2,0c0,0,0,0-0.1,0l0,0l0,0l0,0l0,0
	l0,0c0,0,0,0,0-0.1l0,0l0,0L7.2,2.7c0,0,0,0-0.1,0l0,0c-0.4-0.3-0.9-0.3-1.2,0C5.7,3,5.6,3.4,5.7,3.7V3.6l0,0l0,0l0,0V3.5l0,0
	c0,0.1,0,0.1,0,0.1c0,0.1,0,0.1,0,0.2l0,0l0,0l0,0l0,0l0,0l0,0l0,0l0,0l0,0l0,0l0,0H5.6l0,0l0,0l0,0H5.5c-0.1,0-0.2,0-0.2-0.1H5.2
	l0,0l0,0l0,0l0,0l0,0l0,0H5.1l0,0l0,0l0,0l0,0l0,0L4.3,2.2l0,0l0,0l0,0l0,0c0,0,0,0,0,0.1l0,0h0.1c0.1,0,0.3,0,0.4-0.1
	C5.6,2,6.3,1.8,7,1.7c0.3-0.1,0.5-0.1,0.8-0.2c0.1,0,0.2,0,0.2-0.1C8.7,1.3,9.4,1.2,10,1c0.2-0.1,0.5-0.1,0.7-0.2
	c0.1,0,0.2,0,0.3-0.1l0,0c0.1,0.3,0.2,0.6,0.3,0.9C11.4,2.1,11.6,2.6,11.7,3.3z M10.8,1.1c0,0-0.1-0.1-0.1,0c-0.1,0-0.1,0.1-0.1,0.1
	s0.1,0.1,0.1,0l0,0C10.8,1.2,10.8,1.2,10.8,1.1z M10.4,1.2l-0.1-0.1c-0.1,0-0.1,0-0.1,0.1l0,0C10.2,1.3,10.3,1.3,10.4,1.2
	C10.3,1.3,10.3,1.3,10.4,1.2C10.4,1.3,10.4,1.3,10.4,1.2L10.4,1.2z M10,1.3c0,0-0.1-0.1-0.1,0l0,0c-0.1,0-0.1,0.1-0.1,0.1l0,0
	c0,0,0.1,0.1,0.1,0l0,0C10,1.4,10,1.4,10,1.3L10,1.3z M9.6,1.4C9.6,1.4,9.6,1.3,9.6,1.4H9.4L9.3,1.5l0,0l0.1,0.1L9.6,1.4
	C9.6,1.5,9.6,1.4,9.6,1.4L9.6,1.4z M9.1,1.5C9.1,1.5,9.1,1.4,9.1,1.5H8.9c0,0-0.1,0,0,0.1l0,0c0,0,0,0.1,0.1,0L9.1,1.5
	C9.1,1.6,9.1,1.5,9.1,1.5L9.1,1.5z M11,1.7c0-0.1,0-0.1-0.1-0.1l0,0c-0.1,0-0.1,0-0.1,0.1s0,0.1,0.1,0.1l0,0C11,1.8,11,1.8,11,1.7z
	 M4.8,2.8c-0.1-0.1-0.2-0.1-0.3,0l0,0c0,0,0,0,0,0.1l0,0h0.1C4.7,2.9,4.7,2.9,4.8,2.8C4.8,2.9,4.8,2.9,4.8,2.8
	C4.8,2.9,4.8,2.9,4.8,2.8L4.8,2.8z"/>
<path class="st5" d="M12.9,0.9l-0.7,0.2h-0.1c0,0,0,0-0.1,0c0,0,0,0,0-0.1L12.9,0.9C12.8,0.9,12.8,0.9,12.9,0.9
	C12.8,0.9,12.9,0.9,12.9,0.9z"/>
<path class="st0" d="M12.9,0.9L13,1l0,0l0,0l-0.8,0.2l0,0l0,0l0,0c0,0,0,0,0.1,0l0,0c0,0,0,0,0-0.1l0,0l0,0h-0.1h0.1L12.9,0.9z"/>
<ellipse class="st1" cx="10.7" cy="1.1" rx="0.1" ry="0.1"/>
<path class="st6" d="M12.2,1.2L12.2,1.2c-0.1,0-0.1,0-0.1,0c-0.1,0-0.2,0.1-0.3,0.1V1.2l0.3-0.1h0.1l0,0l0,0
	C12.2,1.2,12.2,1.2,12.2,1.2L12.2,1.2L12.2,1.2L12.2,1.2L12.2,1.2C12.2,1.3,12.2,1.3,12.2,1.2z"/>
<ellipse class="st1" cx="10.3" cy="1.2" rx="0.1" ry="0.1"/>
<path class="st5" d="M13.4,2c-0.2,0-0.4,0.1-0.6,0.1c-0.2,0-0.3,0.1-0.5,0.1l0,0l-0.2-0.6l0,0l0,0h0.1l0,0L12.4,2l0,0l0.7-0.2l0,0
	l0,0L13,1.4l0,0l-0.3,0.1c-0.1,0,0-0.1,0-0.1l0,0c0,0,0,0,0.1,0l0,0l0,0l0,0l0,0l0,0l0,0L13,1.2h0.1c0.1,0.1,0.1,0.3,0.2,0.4
	C13.3,1.8,13.4,1.9,13.4,2z"/>
<path class="st4" d="M12.1,1.3L12.1,1.3L12.1,1.3c0,0.1,0,0.1,0,0.1l0,0l0.5-0.1l0,0l0,0l0,0l0,0l0,0l0,0c0,0,0,0-0.1,0l0,0
	c-0.1,0-0.1,0,0,0.1l-0.4,0.1l0,0l0,0V1.4c0,0,0,0-0.1,0s-0.1,0-0.2,0.1l0,0C12,1.6,12,1.7,12,1.9l0,0l-0.2-0.6
	C11.9,1.3,12,1.3,12.1,1.3L12.1,1.3z"/>
<ellipse class="st1" cx="9.9" cy="1.3" rx="0.1" ry="0.1"/>
<path class="st1" d="M9.4,1.4h0.2c0,0,0.1,0,0.1,0.1l0,0c0,0,0,0.1-0.1,0.1H9.4C9.4,1.5,9.3,1.5,9.4,1.4L9.4,1.4
	C9.3,1.4,9.3,1.4,9.4,1.4z"/>
<path class="st1" d="M12.2,1.6l0.4-0.1l0.3-0.1l0,0l0.2,0.4l0,0l0,0L12.4,2l0,0L12.2,1.6z"/>
<path class="st7" d="M12.2,1.6h-0.1l0,0l0,0l0.2,0.6l0,0c0.2,0,0.4-0.1,0.5-0.1C13,2.1,13.2,2,13.4,2c0.1,0.4,0.2,0.8,0.3,1.2
	c-0.2,0.1-0.4,0.1-0.6,0.2c-0.2,0.1-0.4,0.1-0.6,0.2l0,0l0,0l0,0l0,0c0.2,0,0.4-0.1,0.5-0.1s0.3-0.1,0.7-0.2l0,0V3.2
	c0,0.1,0,0.1,0,0.2l0,0c-0.4,0.1-0.8,0.2-1.2,0.3h-0.1l0,0c-0.1-0.4-0.2-0.7-0.3-1.1C12,2.3,11.9,2,11.9,1.8l0,0
	c0-0.1,0-0.2-0.1-0.3l0,0c0.1,0,0.1-0.1,0.2-0.1c0,0,0,0,0.1,0C12.2,1.5,12.2,1.5,12.2,1.6C12.2,1.5,12.2,1.6,12.2,1.6z M13.1,2.3
	c0,0-0.1,0-0.2,0l0,0c-0.1,0-0.2,0.1-0.2,0.1s0.1,0,0.2,0l0,0C13,2.4,13.1,2.3,13.1,2.3z M12.8,3c0.2,0,0.5-0.1,0.7-0.2l0,0l0,0l0,0
	L12.8,3L12.8,3L12.8,3L12.8,3L12.8,3z"/>
<path class="st1" d="M8.9,1.5H9h0.1l0,0v0.1H9C8.9,1.6,8.9,1.6,8.9,1.5L8.9,1.5C8.8,1.5,8.9,1.5,8.9,1.5z"/>
<path class="st5" d="M7.9,1.5C7.6,1.6,7.4,1.7,7.1,1.7C6.4,1.9,5.7,2.1,4.9,2.3c-0.1,0-0.3,0.1-0.4,0.1c0,0,0,0-0.1,0l0,0
	c0,0,0,0,0-0.1l0,0l0,0l0,0c0.1,0,0.2,0,0.4-0.1c0.4-0.2,1-0.3,1.6-0.5c0.4-0.1,0.8-0.2,1.1-0.2c0,0,0,0,0.1,0c0,0,0.1,0,0.2,0l0,0
	l0,0l0,0H7.9z"/>
<ellipse class="st1" cx="10.9" cy="1.7" rx="0.1" ry="0.1"/>
<path class="st1" d="M10.3,1.9c0.2,0.1,0.3,0.3,0.4,0.5c0,0.1,0,0.2,0,0.3c0,0.5-0.4,0.9-0.9,0.8C9.2,3.5,8.8,3,9,2.4
	c0,0,0-0.1,0-0.2C9.3,1.8,9.8,1.6,10.3,1.9z M10.4,2.4c-0.1-0.3-0.5-0.5-0.9-0.3C9.2,2.2,9,2.6,9.2,2.9C9.3,3.2,9.7,3.4,10,3.3l0,0
	C10.4,3.1,10.5,2.7,10.4,2.4z"/>
<path class="st0" d="M4.1,1.8L3.9,1.9C3.9,1.9,4,1.8,4.1,1.8z"/>
<path class="st7" d="M10.9,2.1l0.4,1.5c0,0,0,0,0,0.1v0.1c0,0.1,0.1,0.1,0.2,0.1c0.1,0,0.1-0.2,0.1-0.3V3.5V3.4V3.3l0.1-0.1l0,0l0,0
	l0,0l0,0l0,0l0,0L11.9,4l0,0l0,0c-0.3,0-0.7,0.1-0.9,0.2l0,0l0,0l0,0l0,0l0,0l0,0l0,0l0,0l0,0l0,0l0,0l0,0l0,0l0,0l0,0l0,0h-0.1l0,0
	l0,0l0,0l0,0l0,0l0,0l0,0l0,0l0,0l0,0h-0.1l0,0c0,0-0.1,0-0.1-0.1l0,0l0,0l0,0l0,0h-0.1h-0.1c-0.1,0-0.3,0-0.4,0H10l0,0l0,0l0,0l0,0
	l0,0c0,0,0,0-0.1,0l0,0H9.7l0,0l0,0l0,0c0,0,0,0-0.1,0C9.6,4,9.5,4,9.4,4c0,0,0,0-0.1,0.1c-0.5,0.1-1,0.2-1.4,0C7.8,4.1,7.7,4,7.6,4
	l0,0l0,0c0,0,0,0-0.1-0.1c0,0,0,0,0-0.1l0,0l0,0c0,0,0,0,0-0.1l0,0l0,0V3.6l0,0l0,0v0.1c0.1-0.3,0-0.7-0.3-0.9l0,0c0,0,0,0,0.1,0
	l0.1,0.1l0,0l0,0c0,0,0,0,0,0.1l0,0l0,0l0,0l0,0l0,0c0,0,0,0,0.1,0s0.1,0,0.2,0s0.1,0,0.2,0l0,0l0,0C8,3,8,3,8.1,3h0.1
	c0.1,0,0.1,0,0.2,0.1c0.1,0,0.1,0.1,0.2,0.1l0,0l0,0l0,0h0.1l0,0l0,0l0,0c0,0,0,0,0.1,0l0,0V2.8l0,0l0,0l0,0V2.7l0,0l0,0
	c0,0.3,0.4,0.8,1,0.8c0.5,0,0.9-0.4,0.9-0.8c0-0.1,0-0.2,0-0.3c0-0.2-0.2-0.4-0.4-0.5l0,0l0,0l0,0l0,0h0.1l0,0l0,0l0,0l0,0l0,0l0,0
	l0,0h0.1l0,0l0,0l0,0l0,0l0,0l0,0l0,0l0,0h0.1l0,0l0,0l0,0l0,0l0,0l0,0l0,0l0,0C10.8,2.1,10.8,2.1,10.9,2.1
	C10.8,2.1,10.9,2.1,10.9,2.1C10.9,2.2,10.9,2.2,10.9,2.1C10.9,2.2,10.9,2.2,10.9,2.1L10.9,2.1C10.9,2,10.9,2,10.9,2.1
	C10.9,2,10.9,2,10.9,2.1L10.9,2.1z"/>
<path class="st1" d="M11.5,3.4L11.5,3.4L11.5,3.4L11.5,3.4L11.5,3.4c-0.1,0.1-0.1,0.1-0.2,0.1L10.9,2c0,0,0,0,0-0.1s0.1-0.1,0.2-0.1
	l0.1,0.1C11.3,2.5,11.4,3,11.5,3.4z"/>
<path d="M10.4,2.4c0.1,0.3,0,0.7-0.3,0.9C9.8,3.4,9.4,3.3,9.2,3l0,0C9,2.6,9.2,2.2,9.5,2.1C9.9,1.9,10.2,2.1,10.4,2.4z M10.2,2.5
	c0.1-0.1,0-0.3-0.1-0.4C9.9,2,9.7,2.1,9.7,2.2c-0.1,0.1,0,0.3,0.1,0.4l0,0C9.9,2.7,10.1,2.6,10.2,2.5z"/>
<ellipse class="st1" cx="9.9" cy="2.3" rx="0.3" ry="0.3"/>
<path class="st4" d="M5.3,5.9C5.4,6,5.4,6,5.3,5.9c0.1,0,0.2,0,0.2,0h0.1l0,0c0.3-0.1,0.7-0.2,1-0.2C6.9,5.6,7,5.6,7.1,5.5
	c0.1,0,0.3-0.1,0.3-0.1C8,5.3,8.5,5.2,9.1,5.1C9.4,5,9.8,4.9,10.2,4.8c0.2,0,0.6-0.1,1.3-0.3c0.2,0,0.3-0.1,0.5-0.1l0,0l0,0v0.2l0,0
	h0.1H12C11.1,4.7,10.2,5,9.3,5.2c-0.2,0-0.3,0-0.5,0.1C7.9,5.5,7,5.7,6,6C5.7,6,5.5,6.1,5.2,6.2c0,0,0,0,0-0.1l0,0
	c-0.1,0-0.1,0-0.1-0.1l0,0c0,0,0,0,0-0.1l0,0l0,0l0,0C5,6,5,6,5,6C4.9,5.7,4.8,5.3,4.8,5c0-0.2-0.1-0.4-0.1-0.5
	C4.5,3.8,4.3,3.1,4,2.5c0,0,0-0.1-0.1-0.1l0,0L4,2.3l0,0l0,0C4.4,3,4.7,4,4.9,5.1C5,5.3,5.1,5.7,5.2,6l0,0L5.3,5.9z"/>
<path class="st8" d="M12.9,2.4c0.1,0,0.2,0,0.2,0S13,2.4,12.9,2.4c-0.1,0-0.2,0-0.2,0S12.8,2.4,12.9,2.4z"/>
<path class="st1" d="M7.1,2.7c0.3,0.3,0.4,0.6,0.3,1S6.8,4.4,6.3,4.3C6,4.2,5.8,4,5.7,3.7C5.6,3.4,5.7,3,5.9,2.8
	C6.3,2.4,6.8,2.5,7.1,2.7z M7.2,3.1C7,2.8,6.6,2.7,6.3,2.8C6,3,5.8,3.3,6,3.7C6.1,4,6.5,4.1,6.8,4C7.2,3.8,7.3,3.5,7.2,3.1z"/>
<path d="M7.2,3.1c0.1,0.3,0,0.7-0.3,0.9C6.5,4.1,6.1,4,6,3.7C5.8,3.3,6,3,6.3,2.8C6.6,2.7,7,2.8,7.2,3.1z M6.9,3.2
	c0.1-0.1,0-0.3-0.1-0.4l0,0c-0.2,0-0.3,0-0.4,0.2c-0.1,0.1,0,0.3,0.1,0.4l0,0C6.7,3.4,6.9,3.3,6.9,3.2z"/>
<path class="st4" d="M4.8,2.8L4.8,2.8C4.8,2.9,4.8,2.9,4.8,2.8C4.8,2.9,4.8,2.9,4.8,2.8C4.7,2.9,4.7,2.9,4.7,2.9H4.6l0,0
	c0,0,0,0,0-0.1l0,0C4.6,2.8,4.7,2.8,4.8,2.8z"/>
<ellipse class="st1" cx="6.7" cy="3.1" rx="0.3" ry="0.3"/>
<path class="st8" d="M13.5,2.9c-0.2,0-0.4,0.1-0.7,0.1l0,0l0,0l0,0l0,0L13.5,2.9C13.6,2.8,13.6,2.8,13.5,2.9L13.5,2.9
	C13.6,2.8,13.6,2.9,13.5,2.9z"/>
<path class="st1" d="M3.5,7.4C3.6,7.2,3.6,7,3.6,6.9c0.1-0.6,0-1.1-0.1-1.7V5.1V5C3.3,4.2,3,3.6,2.5,3l0,0h0.1l0,0
	c0.5,0.5,0.8,1.3,1,2c0,0.1,0.1,0.3,0.1,0.4C3.8,6,3.9,6.5,3.9,7c0,0.2-0.1,0.3-0.2,0.5C3.6,7.5,3.6,7.5,3.5,7.4
	C3.6,7.5,3.6,7.5,3.5,7.4L3.5,7.4z"/>
<path class="st7" d="M3.9,4.6C3.8,4.3,3.7,4,3.6,3.8c0-0.1-0.1-0.3-0.2-0.4c0-0.1-0.1-0.3-0.2-0.4l0,0l0,0h0.2l0,0
	c0.2,0.3,0.3,0.5,0.3,0.7c0.2,0.5,0.3,1,0.4,1.5c0,0.2,0.1,0.5,0.2,0.9v0.1L4.2,6.3l0,0c0-0.1,0-0.2,0-0.4C4.1,5.6,4,5.2,4,4.9
	C4,4.8,3.9,4.7,3.9,4.6z"/>
<path d="M13.7,3.2L13.7,3.2L13.7,3.2L13.7,3.2c-0.3,0.2-0.6,0.2-0.7,0.3c-0.2,0-0.4,0.1-0.5,0.1l0,0l0,0l0,0l0,0
	c0.2-0.1,0.4-0.1,0.6-0.2C13.3,3.4,13.5,3.3,13.7,3.2z"/>
<path class="st0" d="M5.7,3.7C5.8,4,6,4.2,6.3,4.3c0.5,0.1,0.9-0.1,1.1-0.6V3.6l0,0l0,0v0.1l0,0l0,0c0,0,0,0,0,0.1l0,0l0,0v0.1
	L7.5,4l0,0l0,0c-0.1,0-0.1,0.2,0,0.3C7.7,4.5,8,4.6,8.2,4.5c0.4,0,0.7-0.2,0.9-0.6c0-0.1,0-0.1,0-0.2c0,0,0,0,0.1,0l0,0l0,0l0,0h0.2
	l0,0c0,0,0,0,0.1,0l0,0l0,0l0,0l0,0l0,0h0.1c0.1,0,0.3,0,0.4,0h0.1h0.1l0,0l0,0l0,0l0,0c0,0,0.1,0,0.1,0.1l0,0h0.1l0,0l0,0l0,0l0,0
	l0,0l0,0l0,0l0,0l0,0l0,0h0.1l0,0l0,0l0,0l0,0l0,0l0,0l0,0l0,0l0,0l0,0l0,0l0,0l0,0l0,0l0,0l0,0L9.6,4l0,0l0,0l0,0
	c0.3-0.1,0.6-0.1,0.9-0.2c0.3-0.1,0.5-0.1,0.8-0.2l0,0l0,0l0,0l0,0L12,4.3l0,0l0,0c-0.2,0-0.3,0.1-0.5,0.1c-0.7,0.2-1.1,0.3-1.3,0.3
	C9.8,4.9,9.4,5,9.1,5.1C8.5,5.2,8,5.3,7.4,5.5c-0.1,0-0.2,0.1-0.3,0.1c-0.1,0-0.2,0-0.4,0C6.3,5.7,6,5.8,5.7,5.9l0,0L5.6,5.6l0,0
	l0.7-0.2l0,0l0,0l0,0L5.6,5.5l0,0c0-0.1-0.1-0.2,0-0.2l0,0c0.1,0,0.2,0,0.2-0.1l0,0c-0.1,0-0.2,0-0.3,0.1l0,0L5.1,4.1l0,0
	c0,0,0,0.2,0,0.3c0,0.2,0.1,0.6,0.3,1.2c0,0.1,0,0.2,0.1,0.2c0,0,0,0,0.1,0H5.5H5.4c0-0.1-0.1-0.3-0.1-0.4C5.1,4.9,4.9,4.3,4.7,3.7
	l0,0l0,0l0,0l0,0l0,0h0.1l0,0l0,0l0,0l0,0l0,0l0,0h0.1c0.1,0,0.2,0,0.2,0.1c0,0,0,0,0.1,0l0,0l0,0l0,0h0.1l0,0l0,0l0,0l0,0l0,0l0,0
	l0,0l0,0l0,0C5.7,3.8,5.7,3.8,5.7,3.7C5.7,3.8,5.7,3.8,5.7,3.7L5.7,3.7C5.6,3.6,5.6,3.6,5.6,3.5l0,0v0.1C5.7,3.6,5.7,3.6,5.7,3.7
	C5.7,3.6,5.7,3.6,5.7,3.7C5.7,3.6,5.7,3.6,5.7,3.7L5.7,3.7z"/>
<path class="st4" d="M11.5,3.6c0,0.1,0.1,0.3-0.1,0.3c-0.1,0-0.1,0-0.2-0.1V3.7c0,0,0,0,0-0.1C11.4,3.6,11.5,3.6,11.5,3.6L11.5,3.6
	L11.5,3.6L11.5,3.6z"/>
<path d="M9.2,3.8c0,0.1,0,0.1,0,0.2C9,4.3,8.7,4.5,8.3,4.5c-0.2,0-0.5-0.1-0.7-0.2C7.5,4.2,7.5,4,7.6,4s0.2,0.1,0.3,0.1
	c0.4,0.2,0.9,0,1.1-0.4c0,0,0,0,0.1-0.1C9.1,3.6,9.2,3.7,9.2,3.8z"/>
<path class="st0" d="M13.8,3.7L13.8,3.7L13.8,3.7L13.8,3.7L13.8,3.7C13.4,3.9,13,4,12.5,4.1l0,0l0,0V4l0,0L13.8,3.7z"/>
<path class="st6" d="M11.9,4L11.9,4C11.8,4,11.8,4,11.9,4c-0.3,0.1-0.6,0.2-0.8,0.3c-0.3,0.1-0.7,0.1-0.9,0.2l0,0l0,0l0,0L11,4.2
	C11.2,4.1,11.6,4,11.9,4z"/>
<path class="st0" d="M12.6,4.3L13.8,4l0,0l0,0l0,0L12.6,4.3C12.6,4.4,12.6,4.4,12.6,4.3L12.6,4.3L12.6,4.3z"/>
<path d="M5.6,5.9L5.6,5.9c-0.1,0-0.2,0-0.2,0c0-0.1,0-0.2-0.1-0.2c0-0.7-0.1-1.1-0.1-1.3c0-0.1,0-0.3,0-0.3l0,0l0.3,1.1l0,0
	c0.1,0,0.2,0,0.3-0.1l0,0c-0.1,0-0.1,0.1-0.2,0.1l0,0c0,0.1,0,0.2,0,0.2l0,0l0.7-0.2l0,0l0,0l0,0L5.6,5.6l0,0V5.9z"/>
<path class="st0" d="M13.7,4.5L13.7,4.5l-1.1,0.2l0,0l0,0l0,0c0.4-0.1,0.7-0.2,1.1-0.3l0,0l0,0V4.5z"/>
<path class="st0" d="M13.6,4.7c-0.4,0.1-0.7,0.2-1.1,0.2l0,0l0,0l0,0c0,0,0.1,0,0.3-0.1c0.1,0,0.2-0.1,0.4-0.1S13.5,4.7,13.6,4.7
	C13.7,4.7,13.7,4.7,13.6,4.7C13.7,4.7,13.7,4.7,13.6,4.7C13.7,4.7,13.7,4.7,13.6,4.7z"/>
<path class="st3" d="M3.5,4.9L3.5,4.9v0.2c0.1,0.6,0.2,1.1,0.1,1.7c0,0.1,0,0.3-0.1,0.5H3.4l0,0c0-0.1,0-0.3,0.1-0.4
	c0.1-0.4,0.1-0.8,0.1-1.1c0-0.1,0-0.2,0-0.4l0,0l0,0V5.3c0,0,0-0.1,0-0.2C3.5,5.1,3.5,5,3.5,4.9z"/>
<path class="st0" d="M12.7,5.2c0.1,0,0.1-0.1,0.2-0.1c0.2,0,0.4-0.1,0.7-0.1l0,0l0,0l0,0L12.7,5.2L12.7,5.2L12.7,5.2z"/>
<path class="st5" d="M3.5,5.2C3.5,5.1,3.5,5.1,3.5,5.2C3.5,5.1,3.5,5.1,3.5,5.2z"/>
<path class="st2" d="M7.4,6.5L7.4,6.5C7.4,6.4,7.3,6.4,7.4,6.5L7.4,6.5L7.2,6.4c0.4-0.1,0.7-0.2,1-0.3c0.2,0,0.4-0.1,0.7-0.2l0,0
	l0,0l0,0l-1,0.2c0,0,0,0,0-0.1l0,0c0,0,0,0-0.1,0h0.1C8.6,5.8,9.3,5.7,10,5.5c0.2-0.1,0.5-0.1,0.7-0.2c0.2,0,0.5-0.1,0.8-0.2
	c0.1,0,0.2,0,0.2-0.1l0,0l0,0l-0.1,0.1l0,0c-0.4,0.1-0.9,0.2-1.3,0.3c-0.1,0-0.2,0.1-0.3,0.1l0,0h0.1c0.1,0,0.3,0,0.4-0.1
	c0.3-0.1,0.6-0.1,1-0.2l0,0l0,0c0,0,0,0-0.1,0.1c-0.2,0.1-0.5,0.1-0.7,0.2c-0.6,0.1-1.3,0.3-1.9,0.4C8.6,6.3,8.3,6.3,8.1,6.4
	C7.9,6.4,7.6,6.5,7.4,6.5z"/>
<polygon class="st8" points="3.2,5.8 3.2,5.8 3.2,5.8 3.2,5.8 "/>
<path class="st5" d="M5.2,6.2L5,6.7l0,0l0,0l0.4-0.1h0.1l0,0c0,0,0,0,0,0.1c-0.2,0-0.4,0.1-0.7,0.2c0,0-0.1,0-0.1,0.1v0.1l0,0
	l0.9-0.2h0.1c0,0,0.1,0,0.1,0.1C5.4,7,5,7.1,4.8,7.2c-0.2,0-0.4,0.1-0.7,0.2l0,0C4.4,7,4.7,6.6,4.9,6.2C5,6.2,5,6.1,5,6.1s0,0,0-0.1
	c0,0,0,0,0-0.1l0,0l0,0l0,0c0,0,0,0,0,0.1l0,0C5.1,6.1,5.2,6.1,5.2,6.2C5.2,6.1,5.2,6.1,5.2,6.2C5.2,6.1,5.2,6.1,5.2,6.2z"/>
<path d="M7.2,6.5L5.7,6.8L4.9,7.1l0,0V7c0,0,0,0,0.1-0.1c0.2-0.1,0.4-0.1,0.7-0.2l2.2-0.5l1-0.2l0,0l0,0l0,0C8.6,6,8.4,6.1,8.2,6.2
	C7.9,6.2,7.6,6.3,7.2,6.5z"/>
<polygon class="st2" points="3.1,6 3.1,6 3.1,6 3.1,6 "/>
<polygon class="st0" points="3.2,6.1 3.2,6.1 3.2,6.1 3.2,6.1 "/>
<path class="st3" d="M7.8,6C7.8,6,7.8,6.1,7.8,6C7.8,6.1,7.8,6.1,7.8,6C7.9,6.1,7.9,6.1,7.8,6L5.6,6.7c0,0,0,0,0-0.1l0,0H5.5
	c0.1,0,0.1,0,0.2,0C6,6.5,6.3,6.4,6.5,6.4C6.9,6.3,7.3,6.1,7.8,6z"/>
<polygon class="st8" points="3.1,6.2 3.1,6.2 3.1,6.2 3.1,6.2 "/>
<path class="st0" d="M3.3,6.2C3.3,6.2,3.3,6.2,3.3,6.2c0,0.2,0,0.2,0,0.2S3.3,6.3,3.3,6.2C3.3,6.2,3.3,6.2,3.3,6.2z"/>
<polygon class="st8" points="3.1,6.4 3.1,6.4 3.1,6.4 3.1,6.4 "/>
<path class="st4" d="M7.4,6.5L5.9,6.9c0-0.1,0-0.1-0.1-0.1H5.7l1.4-0.4h0.1l0,0C7.3,6.4,7.4,6.4,7.4,6.5L7.4,6.5z"/>
<path class="st9" d="M9.2,7H9.1l0,0L8.9,6.5l0,0H9l0,0L9.2,7z"/>
<path class="st9" d="M8.9,7L8,7.2l0,0C8,7.5,8,7.7,8.1,8c0.1,0.4,0.2,0.8,0.2,1.2c0,0.1,0,0.2,0,0.3l0,0c0-0.1-0.1-0.2-0.1-0.3l0,0
	l0,0c0,0.1,0,0.2,0,0.3c0.1,0.6,0.2,1.3,0.3,1.9c0.2,0.9,0.3,1.9,0.5,2.8l0.2,1.1H9c0,0,0,0,0-0.1c-0.1-0.4-0.1-0.8-0.2-1.1
	c-0.2-1-0.4-2-0.6-2.9c0-0.1-0.1-0.3-0.1-0.6C8,10.4,7.9,10.1,7.9,9.8c0,0,0,0,0-0.1l0,0l0,0l0,0v0.1c0,0.3,0.1,0.5,0.1,0.8
	c0,0.1,0,0.2,0,0.3s0,0.2,0,0.3C8.2,12.1,8.3,13,8.5,14c0.1,0.4,0.2,0.9,0.3,1.3l0,0l0,0l0,0H8.6c0-0.1-0.1-0.2-0.1-0.4v-0.1v-0.1
	v-0.1c0,0-0.1-0.1,0-0.2v-0.1l0,0c-0.1-0.1,0-0.2-0.1-0.3c0-0.1,0-0.1,0-0.2c0,0,0,0,0-0.1l-0.1-0.1v-0.1v-0.1l0,0
	c-0.1-0.1,0-0.2,0-0.3c0,0,0-0.1-0.1-0.1l0,0c0-0.1,0-0.1,0-0.2c-0.1-0.1,0.1-0.2,0-0.3c0,0-0.1-0.1,0-0.1c0,0,0,0,0-0.1l0,0
	c-0.1-0.1-0.1-0.1-0.1-0.2C8.1,12,8,12,8,11.9v-0.1l0,0C8,12,8,12,8,11.9l0,0v-0.1c-0.1-0.1,0-0.1,0-0.2c0,0,0,0,0-0.1
	c0,0-0.1-0.1,0-0.1l0,0v-0.1c0,0,0,0,0-0.1l0,0v-0.1l0,0c-0.1,0-0.1-0.1,0-0.2l0,0l0,0c-0.1,0-0.1-0.1,0-0.2l0,0c0,0,0-0.1-0.1-0.1
	l0,0c0,0,0.1-0.1,0-0.1c0,0-0.1,0-0.1-0.1s0-0.1,0-0.1l0,0L7.7,10c0,0,0,0,0-0.1c0,0,0.1-0.1,0-0.2l0,0c0-0.1,0-0.1,0-0.1l0,0
	c0-0.1-0.1-0.2,0-0.2c0.1-0.1-0.1-0.1-0.1-0.2l0,0V9.1l0,0l0,0l0,0V9V8.9c0,0-0.1-0.1,0-0.2l0,0V8.6V8.5c0,0,0-0.1,0-0.2
	c0-0.3-0.1-0.7-0.2-1.2l0,0L7.5,7l0,0v0.1C7.6,7.5,7.7,8,7.8,8.4C7.8,8.6,7.9,9,8,9.2v0.1l0,0c0,0,0-0.1,0.1-0.1l0,0
	c0-0.1,0-0.2,0-0.3C8,8.5,7.9,8.2,7.9,8C7.8,7.6,7.8,7.2,7.7,6.8l0,0c0.3-0.2,0.7-0.2,1-0.3l0,0L8.9,7z"/>
<polygon class="st0" points="3.2,6.6 3.2,6.6 3.2,6.6 3.2,6.6 "/>
<polygon class="st2" points="3.1,6.6 3.1,6.6 3.1,6.6 3.1,6.6 "/>
<path class="st3" d="M3.2,6.8C3.2,6.8,3.2,6.7,3.2,6.8C3.2,6.7,3.2,6.8,3.2,6.8C3.2,6.9,3.2,6.9,3.2,6.8C3.2,6.9,3.2,6.9,3.2,6.8z"
	/>
<polygon class="st0" points="3,6.9 3,6.9 3,6.9 3,6.9 "/>
<path class="st10" d="M8.9,7c0,0.2,0.1,0.5,0.2,0.7l0,0l0,0C9.2,8,9.3,8.3,9.3,8.5c0.2,1,0.4,1.9,0.6,2.8c0.1,0.4,0.2,0.8,0.3,1.2
	c0.1,0.3,0.1,0.6,0.2,0.9v0.1c-0.1-0.1-0.1-0.1-0.2,0l0,0c0,0,0,0-0.1,0l0,0l0,0l0,0H10l0,0l0,0l0,0l0,0l0,0l0,0L9.9,13l0,0l0,0l0,0
	l0.1,0.7l0,0l0,0l0,0l0,0l0,0l0,0l0,0c-0.1,0-0.1,0-0.2,0l0,0H9.6l0,0l0,0l0,0l0,0c-0.1-0.4-0.1-0.6-0.2-0.8
	c-0.1-0.3-0.2-0.6-0.2-0.9l0,0l0,0l0,0c0,0.3,0.1,0.5,0.1,0.8c0.1,0.3,0.1,0.6,0.2,0.9c0,0.2,0.1,0.3,0.1,0.5l0,0l0,0l0,0l0,0H9.3
	l0,0l0,0l0,0l0,0c-0.2-0.9-0.4-1.9-0.5-2.8c-0.1-0.6-0.2-1.3-0.3-1.9c0-0.1,0-0.2,0-0.3l0,0l0,0c0,0.1,0.1,0.2,0.1,0.3l0,0
	c0-0.1,0-0.2,0-0.3C8.2,8.8,8.2,8.4,8.1,8C8,7.7,8,7.5,8,7.2l0,0L8.9,7z M9,10.6C8.9,10,8.8,9.5,8.6,8.8c-0.1-0.3-0.2-0.7-0.3-1l0,0
	l0,0l0,0c0,0.2,0.1,0.5,0.2,0.8C8.7,9.5,8.8,10,9,10.6L9,10.6L9,10.6L9,10.6z M9.4,9.3C9.4,9.3,9.4,9.2,9.4,9.3L9.4,9.3L9.4,9.3
	c-0.1-0.1-0.2,0-0.2,0l0,0l0,0C9.3,9.4,9.3,9.4,9.4,9.3L9.4,9.3L9.4,9.3C9.4,9.4,9.4,9.4,9.4,9.3L9.4,9.3L9.4,9.3z M8.5,10.5
	c0,0.3,0.1,0.5,0.1,0.8c0,0.1,0,0.2,0.1,0.3l0,0l0,0l0,0v-0.1c0-0.1,0-0.2,0-0.3c0-0.3-0.1-0.6-0.2-0.9l0,0l0,0l0,0
	C8.5,10.4,8.5,10.4,8.5,10.5z"/>
<path class="st1" d="M9.2,7c0.2,0.8,0.4,1.5,0.5,2.3c0.4,1.9,0.9,3.7,1.3,5.6l0,0L10.7,15c0,0,0-0.1-0.1-0.1h0.1l0,0l0,0l-0.3-1.4
	v-0.1c-0.1-0.3-0.1-0.6-0.2-0.9c-0.1-0.4-0.2-0.8-0.3-1.2c-0.2-0.9-0.4-1.9-0.6-2.8c0-0.2-0.1-0.6-0.2-0.8L9,7l0,0
	C9.1,7,9.1,7,9.2,7z"/>
<path class="st3" d="M3.2,6.9C3.2,6.9,3.2,6.9,3.2,6.9c0,0.2,0,0.2,0,0.2S3.2,7.1,3.2,6.9C3.2,6.9,3.2,6.9,3.2,6.9z"/>
<polygon class="st9" points="7.2,7.5 7.2,7.5 7.2,7.5 7.2,7.5 "/>
<polygon class="st9" points="7.2,7.7 7.2,7.7 7.2,7.7 7.2,7.7 "/>
<polygon class="st9" points="7,7.8 7,7.8 7,7.8 7,7.8 "/>
<path d="M9,10.6L9,10.6L9,10.6L9,10.6c-0.1-0.6-0.3-1.1-0.5-2C8.4,8.3,8.4,8,8.3,7.8l0,0l0,0l0,0c0.1,0.3,0.2,0.7,0.3,1
	C8.8,9.5,8.9,10,9,10.6z"/>
<polygon class="st9" points="7.2,8 7.2,8 7.2,8 7.2,8 "/>
<polygon class="st9" points="7.3,8.2 7.3,8.2 7.3,8.2 7.3,8.2 "/>
<path class="st9" d="M7.3,8.5L7.3,8.5L7.3,8.5L7.3,8.5L7.3,8.5C7.3,8.4,7.3,8.4,7.3,8.5L7.3,8.5C7.3,8.4,7.3,8.4,7.3,8.5
	C7.3,8.4,7.3,8.4,7.3,8.5L7.3,8.5z"/>
<polygon class="st9" points="7.1,8.5 7.1,8.5 7.1,8.5 7.1,8.5 "/>
<polygon class="st9" points="7.3,8.7 7.3,8.7 7.3,8.7 7.3,8.7 "/>
<polygon class="st9" points="7.1,8.7 7.1,8.7 7.1,8.7 7.1,8.7 "/>
<path class="st9" d="M7.4,8.8C7.4,8.8,7.4,8.8,7.4,8.8C7.4,8.9,7.4,9,7.4,9S7.4,8.9,7.4,8.8C7.4,8.8,7.4,8.8,7.4,8.8z"/>
<polygon class="st9" points="7.2,9 7.2,9 7.2,9 7.2,9 "/>
<path class="st9" d="M7.4,9.1C7.4,9.1,7.4,9.2,7.4,9.1c0,0.1,0.1,0.2,0.1,0.2S7.4,9.3,7.4,9.1C7.4,9.2,7.4,9.1,7.4,9.1z"/>
<polygon class="st9" points="7.2,9.2 7.2,9.2 7.2,9.2 7.2,9.2 "/>
<path class="st1" d="M9.3,9.2L9.3,9.2C9.4,9.2,9.4,9.3,9.3,9.2L9.3,9.2c0.1,0.1,0.1,0.2,0,0.2l0,0C9.3,9.4,9.3,9.4,9.3,9.2L9.3,9.2
	C9.3,9.3,9.3,9.2,9.3,9.2z"/>
<path class="st9" d="M7.4,9.4C7.4,9.4,7.4,9.5,7.4,9.4c0.1,0.1,0.1,0.2,0.1,0.2S7.4,9.6,7.4,9.4C7.4,9.5,7.4,9.4,7.4,9.4z"/>
<polygon class="st9" points="7.2,9.5 7.2,9.5 7.2,9.5 7.2,9.5 "/>
<path class="st9" d="M7.5,9.7L7.5,9.7C7.5,9.7,7.5,9.8,7.5,9.7C7.5,9.8,7.5,9.8,7.5,9.7L7.5,9.7C7.5,9.8,7.4,9.7,7.5,9.7L7.5,9.7
	L7.5,9.7L7.5,9.7L7.5,9.7L7.5,9.7z"/>
<path d="M9,15.3H8.9l0,0c-0.1-0.4-0.2-0.9-0.3-1.3c-0.2-0.9-0.3-1.8-0.5-2.8c0-0.1,0-0.2,0-0.3s0-0.2,0-0.3c0-0.3-0.1-0.5-0.1-0.8
	V9.7l0,0l0,0l0,0c0,0,0,0,0,0.1c0.1,0.3,0.1,0.6,0.2,0.9c0.1,0.3,0.1,0.5,0.1,0.6c0.2,0.9,0.4,1.9,0.6,2.9C8.9,14.5,8.9,14.9,9,15.3
	L9,15.3z"/>
<polygon class="st9" points="7.3,9.8 7.3,9.8 7.3,9.8 7.3,9.8 "/>
<path class="st9" d="M7.5,9.9C7.5,9.9,7.5,10,7.5,9.9c0.1,0.1,0.1,0.1,0.1,0.1S7.6,10,7.5,9.9C7.5,10,7.5,9.9,7.5,9.9z"/>
<polygon class="st9" points="7.3,10 7.3,10 7.3,10 7.3,10 "/>
<path class="st9" d="M7.5,10.2C7.5,10.1,7.5,10.1,7.5,10.2C7.5,10.1,7.5,10.1,7.5,10.2c0,0.1,0,0.1,0,0.1S7.5,10.3,7.5,10.2z"/>
<polygon class="st9" points="7.3,10.3 7.3,10.3 7.3,10.3 7.3,10.3 "/>
<path d="M8.5,10.5c0,0,0-0.1,0-0.2l0,0l0,0c0.1,0.3,0.1,0.6,0.2,0.9c0,0.2,0,0.3,0,0.3s0,0,0,0.1l0,0l0,0l0,0c0-0.1,0-0.2-0.1-0.3
	C8.6,11,8.5,10.8,8.5,10.5z"/>
<path class="st9" d="M7.6,10.4C7.6,10.4,7.6,10.4,7.6,10.4c0,0.2,0,0.2,0,0.2S7.6,10.6,7.6,10.4C7.6,10.4,7.6,10.4,7.6,10.4z"/>
<polygon class="st9" points="7.4,10.5 7.4,10.5 7.4,10.5 7.4,10.5 "/>
<polygon class="st9" points="7.6,10.7 7.6,10.7 7.6,10.7 7.6,10.7 "/>
<polygon class="st9" points="7.4,10.8 7.4,10.8 7.4,10.8 7.4,10.8 "/>
<path class="st9" d="M7.7,10.9C7.7,10.9,7.7,10.9,7.7,10.9c0,0.2,0,0.2,0,0.2S7.7,11,7.7,10.9C7.7,10.9,7.7,10.9,7.7,10.9z"/>
<polygon class="st9" points="7.5,11 7.5,11 7.5,11 7.5,11 "/>
<path class="st9" d="M7.7,11.2C7.7,11.2,7.7,11.3,7.7,11.2c0.1,0.1,0.1,0.2,0.1,0.2S7.7,11.3,7.7,11.2C7.7,11.3,7.7,11.2,7.7,11.2z"
	/>
<polygon class="st9" points="7.5,11.3 7.5,11.3 7.5,11.3 7.5,11.3 "/>
<path class="st9" d="M7.7,11.5C7.7,11.5,7.7,11.4,7.7,11.5C7.8,11.4,7.8,11.4,7.7,11.5C7.8,11.4,7.8,11.4,7.7,11.5
	C7.8,11.5,7.8,11.5,7.7,11.5C7.8,11.5,7.8,11.5,7.7,11.5L7.7,11.5L7.7,11.5z"/>
<polygon class="st9" points="7.5,11.5 7.5,11.5 7.5,11.5 7.5,11.5 "/>
<path class="st9" d="M7.8,11.7C7.8,11.7,7.8,11.6,7.8,11.7C7.8,11.6,7.8,11.7,7.8,11.7C7.7,11.8,7.7,11.8,7.8,11.7
	C7.7,11.8,7.7,11.8,7.8,11.7z"/>
<polygon class="st9" points="7.6,11.7 7.6,11.7 7.6,11.7 7.6,11.7 "/>
<path class="st9" d="M7.9,12C7.8,12,7.8,12,7.9,12C7.8,12,7.8,12,7.9,12L7.9,12C7.8,12,7.8,12,7.9,12L7.9,12C7.8,12,7.8,11.9,7.9,12
	C7.8,11.9,7.8,11.9,7.9,12L7.9,12C7.8,11.9,7.9,11.9,7.9,12C7.9,11.9,7.9,11.9,7.9,12L7.9,12z"/>
<path d="M9.5,13.6c0.1,0.4,0.2,0.9,0.2,1.3V15l0,0l0,0c-0.1-0.3-0.1-0.6-0.2-0.9C9.5,14,9.4,13.9,9.5,13.6c-0.2-0.3-0.2-0.6-0.3-0.9
	c-0.1-0.3-0.1-0.5-0.1-0.8l0,0l0,0l0,0c0.1,0.3,0.1,0.6,0.2,0.9C9.4,13,9.4,13.3,9.5,13.6z"/>
<polygon class="st9" points="7.6,12 7.6,12 7.6,12 7.6,12 "/>
<polygon class="st9" points="7.9,12.2 7.9,12.2 7.9,12.2 7.9,12.2 "/>
<polygon class="st9" points="7.6,12.3 7.6,12.3 7.6,12.3 7.6,12.3 "/>
<path class="st9" d="M7.9,12.4C7.9,12.4,7.9,12.4,7.9,12.4c0,0.2,0,0.2,0,0.2S7.9,12.6,7.9,12.4C7.9,12.4,7.9,12.4,7.9,12.4z"/>
<polygon class="st9" points="7.6,12.5 7.6,12.5 7.6,12.5 7.6,12.5 "/>
<path class="st9" d="M7.9,12.7C7.9,12.7,7.9,12.8,7.9,12.7c0,0.2,0,0.2,0,0.2S7.9,12.9,7.9,12.7C7.9,12.8,7.9,12.7,7.9,12.7z"/>
<path class="st9" d="M7.7,12.8L7.7,12.8L7.7,12.8L7.7,12.8L7.7,12.8L7.7,12.8L7.7,12.8L7.7,12.8L7.7,12.8z"/>
<path class="st9" d="M8,12.9C8,12.9,8,12.9,8,12.9c0,0.2,0,0.2,0,0.2S8,13.1,8,12.9C8,12.9,8,12.9,8,12.9z"/>
<path d="M10,13.6c0,0.2,0.1,0.5,0.1,0.7l0,0l0,0l0,0L10,13.6L9.9,13l0,0l0,0l0,0L10,13.6z"/>
<polygon class="st9" points="7.8,13.1 7.8,13.1 7.8,13.1 7.8,13.1 "/>
<path class="st9" d="M8,13.2C8,13.2,8,13.2,8,13.2c0,0.2,0,0.2,0,0.2S8,13.4,8,13.2C8,13.2,8,13.2,8,13.2z"/>
<polygon class="st9" points="7.8,13.3 7.8,13.3 7.8,13.3 7.8,13.3 "/>
<path class="st11" d="M10.5,13.5l0.3,1.4l0,0l0,0h-0.1h-0.1c-0.1-0.3-0.1-0.6-0.2-0.9l0,0l0,0l0,0c0,0.1,0,0.2,0.1,0.3
	c0,0.2,0.1,0.4,0.1,0.7h-0.1c-0.1,0-0.3,0.1-0.4,0.1c-0.1,0-0.2,0.1-0.4,0.1c-0.1,0-0.2,0.1-0.4,0.1l-0.2-1.1l0,0l0,0l0,0l0,0h0.3
	l0,0l0,0l0,0l0,0c0.1,0.3,0.1,0.6,0.2,0.9l0,0l0,0V15c-0.1-0.4-0.2-0.9-0.2-1.3l0,0l0,0l0,0l0,0h0.2l0,0c0.1,0,0.1,0,0.2,0l0,0l0,0
	l0,0l0,0l0,0l0,0l0,0l0.1,0.6l0,0l0,0l0,0c0-0.2-0.1-0.5-0.1-0.7l0,0l0,0l0,0l0,0l0,0l0,0h0.1l0,0l0,0l0,0c0,0,0,0,0.1,0l0,0
	C10.4,13.5,10.4,13.5,10.5,13.5z"/>
<path class="st9" d="M8.1,13.5C8.1,13.5,8.1,13.5,8.1,13.5c0,0.1,0.1,0.2,0.1,0.2S8.1,13.6,8.1,13.5C8.1,13.5,8.1,13.5,8.1,13.5z"/>
<polygon class="st9" points="7.8,13.6 7.8,13.6 7.8,13.6 7.8,13.6 "/>
<path class="st9" d="M8.1,13.7C8.1,13.7,8.1,13.8,8.1,13.7c0.1,0.1,0.1,0.2,0.1,0.2S8.1,13.9,8.1,13.7C8.1,13.8,8.1,13.7,8.1,13.7z"
	/>
<polygon class="st9" points="7.9,13.9 7.9,13.9 7.9,13.9 7.9,13.9 "/>
<path d="M10.5,14.9V15l0,0l0,0l0,0V14.9c-0.1-0.2-0.1-0.5-0.2-0.6c0-0.1,0-0.2-0.1-0.3l0,0l0,0l0,0C10.4,14.3,10.5,14.6,10.5,14.9z"
	/>
<path class="st9" d="M8.2,14C8.2,14,8.2,14,8.2,14c0,0.1,0.1,0.2,0.1,0.2S8.2,14.1,8.2,14C8.2,14,8.2,14,8.2,14z"/>
<polygon class="st9" points="7.9,14.1 7.9,14.1 7.9,14.1 7.9,14.1 "/>
<path class="st9" d="M8.2,14.4L8.2,14.4L8.2,14.4C8.2,14.4,8.1,14.4,8.2,14.4L8.2,14.4C8.1,14.3,8.2,14.3,8.2,14.4L8.2,14.4
	C8.2,14.3,8.2,14.3,8.2,14.4L8.2,14.4z"/>
<polygon class="st9" points="8,14.4 8,14.4 8,14.4 8,14.4 "/>
<polygon class="st9" points="8.2,14.6 8.2,14.6 8.2,14.6 8.2,14.6 "/>
<polygon class="st9" points="8.3,14.8 8.3,14.8 8.3,14.8 8.3,14.8 "/>
<path class="st10" d="M10.7,14.9c0,0,0,0.1,0.1,0.1c-0.1,0.1-0.2,0.1-0.3,0.1c-0.9,0.4-1.9,0.5-2.9,0.4c-0.1,0-0.1,0,0,0
	c0.3,0,0.7-0.1,1-0.2h0.2l0,0l0,0h0.1l0.3-0.1c0.1,0,0.2-0.1,0.4-0.1c0.1,0,0.3-0.1,0.4-0.1c0.1,0,0.3-0.1,0.4-0.1c0,0,0,0,0.1,0V15
	l0,0l0,0l0,0v-0.1L10.7,14.9z"/>
<polygon class="st9" points="8.3,15.1 8.3,15.1 8.3,15.1 8.3,15.1 "/>
<polygon class="st12" points="16,12.8 12,16 8,12.8 8,10.4 12,13.6 16,10.4 "/>
</svg>
