<?xml version="1.0" encoding="utf-8"?>
<!-- Generator: Adobe Illustrator 24.0.3, SVG Export Plug-In . SVG Version: 6.00 Build 0)  -->
<svg version="1.1" id="Capa_1" xmlns="http://www.w3.org/2000/svg" xmlns:xlink="http://www.w3.org/1999/xlink" x="0px" y="0px"
	 viewBox="0 0 16 16" style="enable-background:new 0 0 16 16;" xml:space="preserve">
<style type="text/css">
	.st0{fill:#5F7B6D;}
	.st1{fill:#FFFFF3;}
	.st2{fill:#476256;}
	.st3{fill:#758D7A;}
	.st4{fill:#92A487;}
	.st5{fill:#C4C9A8;}
	.st6{fill:#253B3A;}
	.st7{fill:#678173;}
	.st8{fill:#2F4748;}
	.st9{fill:#BF9455;}
	.st10{fill:#FFE370;}
	.st11{fill:#F0C96C;}
</style>
<path d="M3.9,1.9l0.2-0.1l2-0.5c0,0,0,0,0,0c0.1-0.1,0.2-0.2,0.3-0.2c0.5-0.2,1-0.4,1.5-0.3c0,0,0.1,0,0.1,0c0.1,0,0.1,0,0.2,0
	C9,0.6,9.9,0.4,10.7,0.1c0,0,0.1,0,0.1,0l0.5,0.2c0,0,0,0,0.1,0c0.5-0.1,0.9-0.2,1.4-0.4c0.1,0,0.1,0.1,0.2,0.1
	c0.1,0.2,0.2,0.3,0.3,0.5c0.2,0.3,0.3,0.5,0.4,0.8c0.1,0.1,0.1,0.3,0.2,0.5c0.1,0.3,0.2,0.7,0.2,1c0,0.3,0.1,0.6,0.1,0.9
	c0,0.4-0.1,0.9-0.2,1.3c0,0,0,0.1,0,0.1c0,0,0,0,0,0c-0.6,0.1-1.2,0.3-1.8,0.4c-0.1,0-0.2,0-0.3,0.1c-0.2,0-0.3,0.2-0.4,0.2
	c-0.3,0.1-0.7,0.2-1,0.2c-0.4,0.1-0.8,0.2-1.2,0.3c0,0,0,0,0,0c0,0.1,0.1,0.3,0.1,0.4c0.3,1.2,0.5,2,0.5,2.4
	c0.1,0.4,0.2,0.9,0.3,1.3c0,0.2,0.1,0.3,0.1,0.5c0.1,0.5,0.3,1.1,0.4,1.6c0.1,0.6,0.3,1.1,0.4,1.7c0,0.1,0.1,0.3,0.1,0.4
	c0,0.1-0.1,0.2-0.2,0.3c-0.4,0.3-0.8,0.4-1.2,0.6c-0.7,0.2-1.3,0.3-2,0.2c-0.3,0-0.6,0-0.8-0.2c0,0-0.1-0.1-0.1-0.1
	c0-0.1,0-0.2,0-0.2c-0.1-0.9-0.1-1.8-0.2-2.7c-0.1-0.6-0.1-1.1-0.1-1.7c0-0.2,0-0.3,0-0.4C6.6,10,6.5,9.4,6.5,8.8
	c-0.1-0.5-0.1-1-0.2-1.6c0,0,0,0,0,0c-0.1,0-0.2,0-0.2,0c-1.1,0.3-2,0.5-2.5,0.6c0,0,0,0,0,0c-1.4-0.8-1.9-2.5-1.8-4
	c0-0.4,0.2-0.8,0.3-1.2c0,0,0-0.1,0.1-0.1c0,0,0,0,0,0l1.1-0.1c0,0,0,0,0,0L3.9,1.9z M12.1,0.5l-0.2,0.1l-0.1,0c0,0,0,0,0,0l0,0
	c0,0,0,0,0,0c0,0-0.1,0-0.1,0c0,0,0,0,0,0c0,0,0,0,0,0c0,0,0,0.1,0.1,0.1c0,0,0,0,0,0l0.2,0l0.7-0.2c0,0,0,0,0,0l0.1,0.1l-1,0.3
	c0,0,0,0,0,0c0,0,0,0,0,0l0.1,0.3c0,0,0,0.1,0,0.1L12,1.9c0.1,0.3,0.2,0.6,0.2,0.8c0.1,0.4,0.2,0.7,0.3,1.1c0,0,0,0,0,0
	c0,0,0.1,0,0.1,0c0.4-0.1,0.8-0.2,1.2-0.3c0,0,0,0,0,0c0-0.6-0.1-1.2-0.3-1.7c-0.1-0.4-0.3-0.7-0.5-1c-0.1-0.1-0.2-0.2-0.2-0.3
	c0,0-0.1-0.1-0.1-0.1c-0.1,0-0.1,0-0.2,0.1C12.3,0.5,12.2,0.5,12.1,0.5z M4.3,2.2l0.4,1.5c0.2,0.6,0.3,1.3,0.5,1.9
	c0,0.1,0.1,0.3,0.1,0.4L5.2,6c0,0,0,0,0,0C5.1,5.7,5,5.3,4.9,5.1C4.7,4,4.4,3,4.1,2.3c0,0,0,0,0,0c0,0,0,0,0,0L4,2.4c0,0,0,0,0,0
	c0,0,0,0.1,0.1,0.1c0.2,0.6,0.4,1.3,0.6,1.9c0,0.2,0.1,0.4,0.1,0.5C4.8,5.3,4.9,5.7,5,6c0,0,0,0,0,0.1c0,0-0.1,0.1-0.1,0.2
	C4.7,6.6,4.4,7,4.1,7.3c0,0,0,0,0,0c0.2-0.1,0.5-0.1,0.7-0.2C5,7.1,5.4,7,5.9,6.9l1.5-0.4c0.2,0,0.4-0.1,0.6-0.1
	c0.2-0.1,0.5-0.1,0.8-0.2c0.6-0.1,1.3-0.3,1.9-0.4c0.2-0.1,0.5-0.1,0.7-0.2c0,0,0.1,0,0.1-0.1l0,0c0,0,0,0,0,0
	c-0.3,0.1-0.6,0.2-1,0.2c-0.1,0-0.3,0.1-0.4,0.1c-0.1,0-0.1,0-0.1,0c0,0,0,0,0,0c0.1-0.1,0.2-0.1,0.3-0.1c0.4-0.1,0.9-0.2,1.3-0.3
	c0,0,0,0,0,0l0.1-0.1c0,0,0,0,0,0c0,0,0,0,0,0c-0.1,0-0.2,0-0.2,0.1c-0.3,0.1-0.6,0.1-0.8,0.2c-0.2,0.1-0.5,0.1-0.7,0.2
	C9.3,5.7,8.6,5.8,7.9,6c0,0-0.1,0-0.1,0C7.3,6.1,6.9,6.3,6.5,6.4C6.2,6.4,5.9,6.5,5.6,6.6c0,0-0.1,0-0.2,0L5,6.7c0,0,0,0,0,0
	c0,0,0,0,0,0l0.3-0.6C5.5,6.1,5.7,6,6,6c1-0.2,1.9-0.5,2.9-0.7c0.1,0,0.3-0.1,0.4-0.1C10.2,5,11.1,4.7,12,4.5c0,0,0.1,0,0.1,0
	c0,0,0,0,0,0c0,0,0,0,0,0C12.1,4,12,3.6,11.9,3.3c-0.2-0.8-0.4-1.6-0.7-2.5c0-0.1,0-0.1-0.1-0.2c-0.1-0.1-0.2-0.1-0.3-0.2
	c0,0,0,0,0,0c-0.1,0-0.2,0-0.2,0c-0.4,0.1-0.7,0.2-1.1,0.3C9.1,0.9,8.7,1,8.4,1.1C8.1,1.2,7.8,1.3,7.5,1.3C6.8,1.5,6.2,1.7,5.8,1.8
	C5.3,1.9,4.8,2,4.3,2.2C4.3,2.1,4.3,2.2,4.3,2.2C4.3,2.2,4.3,2.2,4.3,2.2z M3.5,4.9c0,0.1,0,0.1,0,0.2c0,0,0,0.1,0,0.2
	c0,0,0,0.1,0,0.1c0,0,0,0,0,0c0,0,0,0,0,0c0,0.1,0,0.3,0,0.4c0,0.4,0,0.8-0.1,1.1c0,0.1-0.1,0.2-0.1,0.3c0,0,0,0,0,0l0.2,0.1
	l0.1,0.1c0,0,0,0,0,0c0,0,0,0,0,0C3.7,7.4,3.8,7.2,3.9,7c0-0.6,0-1.1-0.1-1.6c0-0.2-0.1-0.3-0.1-0.4c-0.2-0.7-0.4-1.5-1-2
	c0,0,0,0,0,0L2.5,3c0,0,0,0,0,0C3,3.6,3.3,4.2,3.5,4.9z M4,4.9c0.1,0.3,0.1,0.6,0.2,1c0,0.1,0,0.3,0,0.4c0,0,0,0,0,0l0.1-0.1
	c0,0,0-0.1,0-0.1C4.3,5.7,4.2,5.4,4.2,5.2c-0.1-0.5-0.3-1-0.4-1.5C3.7,3.5,3.6,3.3,3.4,3c0,0,0,0,0,0L3.2,3c0,0,0,0,0,0c0,0,0,0,0,0
	c0.1,0.1,0.2,0.3,0.3,0.4c0.1,0.1,0.1,0.2,0.2,0.4C3.7,4,3.8,4.3,3.9,4.6C3.9,4.7,4,4.8,4,4.9z M13.8,3.7L12.5,4c0,0,0,0,0,0l0,0.1
	c0,0,0,0,0,0c0,0,0,0,0,0C13,4,13.4,3.9,13.8,3.8c0,0,0,0,0,0L13.8,3.7C13.8,3.7,13.8,3.7,13.8,3.7C13.8,3.7,13.8,3.7,13.8,3.7z
	 M13.8,4C13.8,4,13.8,4,13.8,4l-1.2,0.3c0,0,0,0,0,0c0,0,0,0,0,0l0,0c0,0,0,0,0,0L13.8,4C13.8,4.1,13.8,4.1,13.8,4
	C13.8,4.1,13.8,4.1,13.8,4L13.8,4z M13.7,4.5l0-0.1c0,0,0,0,0,0c0,0,0,0,0,0c-0.4,0.1-0.7,0.2-1.1,0.3c0,0,0,0,0,0l0,0c0,0,0,0,0,0
	L13.7,4.5C13.7,4.5,13.7,4.5,13.7,4.5z M12.5,5c0.4-0.1,0.7-0.1,1.1-0.2c0,0,0.1,0,0.1-0.1c0,0,0,0,0,0c0,0,0,0,0,0
	c-0.1,0-0.3,0.1-0.4,0.1c-0.2,0.1-0.4,0.1-0.4,0.1C12.7,4.9,12.6,5,12.5,5C12.5,5,12.5,5,12.5,5L12.5,5C12.5,5,12.5,5,12.5,5z
	 M12.9,5.2c-0.1,0-0.1,0-0.2,0.1c0,0,0,0,0,0c0,0,0,0,0,0L13.5,5c0,0,0,0,0,0l0,0c0,0,0,0,0,0C13.3,5,13.1,5.1,12.9,5.2z M3.2,5.8
	C3.3,5.8,3.3,5.8,3.2,5.8C3.3,5.8,3.3,5.8,3.2,5.8C3.2,5.8,3.2,5.8,3.2,5.8C3.2,5.8,3.2,5.8,3.2,5.8C3.2,5.8,3.2,5.8,3.2,5.8
	C3.2,5.8,3.2,5.8,3.2,5.8z M3.1,6C3.1,6,3.1,6,3.1,6L3.1,6C3.1,6,3.1,6,3.1,6C3.1,6,3.1,6,3.1,6C3.1,6,3.1,6,3.1,6
	C3.1,6,3.1,6,3.1,6C3.1,6,3.1,6,3.1,6C3.1,6,3.1,6,3.1,6z M3.2,6.1C3.3,6.1,3.3,6.1,3.2,6.1L3.2,6.1C3.3,6,3.3,6,3.2,6.1
	C3.2,6,3.2,6,3.2,6.1C3.2,6,3.2,6,3.2,6.1C3.2,6.1,3.2,6.1,3.2,6.1C3.2,6.1,3.2,6.1,3.2,6.1C3.2,6.1,3.2,6.1,3.2,6.1z M3.1,6.2
	C3.1,6.2,3.1,6.2,3.1,6.2L3.1,6.2C3.1,6.2,3.1,6.2,3.1,6.2C3.1,6.2,3.1,6.2,3.1,6.2C3.1,6.2,3.1,6.2,3.1,6.2
	C3.1,6.2,3.1,6.2,3.1,6.2z M3.3,6.4C3.3,6.4,3.3,6.3,3.3,6.4L3.3,6.4c0-0.1,0-0.1,0-0.1C3.2,6.3,3.2,6.3,3.3,6.4
	C3.2,6.3,3.2,6.3,3.3,6.4C3.2,6.4,3.2,6.4,3.3,6.4z M3.1,6.5C3.1,6.5,3.1,6.5,3.1,6.5C3.1,6.4,3.1,6.4,3.1,6.5
	C3.1,6.4,3.1,6.4,3.1,6.5C3.1,6.4,3.1,6.4,3.1,6.5C3.1,6.4,3.1,6.4,3.1,6.5C3.1,6.4,3.1,6.5,3.1,6.5L3.1,6.5z M9,7l0.1,0.6
	c0,0,0,0,0,0c0,0,0,0,0,0C9,7.5,8.9,7.2,8.9,7L8.8,6.5c0,0,0,0,0,0C8.4,6.6,8,6.6,7.7,6.8c0,0,0,0,0,0C7.8,7.2,7.8,7.6,7.9,8
	c0,0.2,0.1,0.5,0.1,0.9c0,0.1,0,0.2,0,0.3c0,0,0,0,0,0C8,9.2,8,9.2,8,9.3c0,0,0,0,0,0c0,0,0-0.1,0-0.1C7.9,8.9,7.8,8.5,7.8,8.3
	C7.7,7.9,7.6,7.4,7.5,7c0,0,0-0.1,0-0.1c0,0,0,0,0,0L7.3,6.9c0,0,0,0,0,0c0.1,0.5,0.2,0.9,0.2,1.2c0,0.1,0,0.1,0,0.2
	c0,0,0,0.1,0,0.1c0,0,0,0.1,0,0.1c0,0,0,0,0,0c0,0.1,0,0.1,0,0.2c0,0,0,0.1,0,0.1c0,0,0,0.1,0,0.1c0,0,0,0,0,0l0,0c0,0,0,0,0,0
	c0,0,0,0.1,0,0.1c0,0,0,0,0,0c0,0.1,0.1,0.1,0.1,0.2c0,0.1,0,0.1,0.1,0.2c0,0,0,0,0,0c0,0,0,0.1,0,0.1c0,0,0,0,0,0
	c0.1,0,0.1,0.1,0,0.2c0,0,0,0,0,0.1L7.8,10c0,0,0,0,0,0c0,0,0,0.1,0,0.1c0,0,0.1,0,0.1,0.1c0,0,0,0.1,0,0.1c0,0,0,0,0,0
	c0,0,0.1,0.1,0.1,0.1c0,0,0,0,0,0c-0.1,0.1,0,0.1,0,0.2c0,0,0,0,0,0c0,0,0,0,0,0c0,0.1-0.1,0.1,0,0.2c0,0,0,0,0,0c0,0,0,0.1,0,0.1
	c0,0,0,0.1,0,0.1c0,0,0,0,0,0c0,0,0,0.1,0,0.1c0,0,0,0,0,0c-0.1,0.1,0,0.1,0,0.1c0,0,0,0,0,0.1c0,0.1-0.1,0.1,0,0.2c0,0,0,0.1,0,0.1
	c0,0,0,0,0,0C8,12,8,12,8.1,12.1c0,0,0,0,0,0c0,0,0,0.1,0,0.1c0,0.1,0.1,0.1,0.1,0.2c0,0.1,0,0.1,0.1,0.2c0,0,0,0,0,0.1c0,0,0,0,0,0
	c-0.1,0,0,0.1,0,0.1c0.1,0.1-0.1,0.2,0,0.3c0,0,0.1,0.1,0,0.2c0,0,0,0,0,0c0,0,0,0.1,0.1,0.1c0.1,0.1-0.1,0.2,0,0.3c0,0,0,0,0,0
	c0,0,0,0.1,0,0.1c0,0,0,0.1,0,0.1l0.1,0.1c0,0,0,0,0,0.1c0,0.1,0,0.1,0,0.2c0.1,0.1,0,0.2,0.1,0.3c0,0,0,0,0,0c0,0,0,0.1,0,0.1
	c0,0.1,0,0.1,0,0.2c0,0,0,0.1,0,0.1c0,0,0,0.1,0,0.1c0,0,0,0.1,0,0.1c0,0.1,0.1,0.2,0.1,0.4c-0.4,0.1-0.7,0.2-1,0.2
	c-0.1,0-0.1,0,0,0c1,0.1,2-0.1,2.9-0.4c0.1,0,0.2-0.1,0.3-0.1l0.2-0.2c0,0,0,0,0,0c-0.4-1.9-0.9-3.7-1.3-5.6C9.5,8.5,9.3,7.7,9.2,7
	L9.1,6.5c0,0,0,0,0,0l-0.1,0c0,0,0,0,0,0L9,7z M3.2,6.6C3.3,6.6,3.3,6.6,3.2,6.6C3.3,6.6,3.3,6.6,3.2,6.6C3.3,6.5,3.3,6.5,3.2,6.6
	C3.2,6.5,3.2,6.5,3.2,6.6C3.2,6.6,3.2,6.6,3.2,6.6C3.2,6.6,3.2,6.6,3.2,6.6z M3.1,6.7C3.1,6.7,3.1,6.7,3.1,6.7
	C3.1,6.7,3.1,6.7,3.1,6.7C3.1,6.6,3.1,6.6,3.1,6.7C3.1,6.6,3.1,6.6,3.1,6.7C3.1,6.7,3.1,6.7,3.1,6.7C3,6.7,3.1,6.7,3.1,6.7z
	 M3.2,6.9C3.2,6.9,3.3,6.8,3.2,6.9C3.3,6.8,3.3,6.8,3.2,6.9c0-0.1,0-0.1,0-0.1c0,0,0,0,0,0C3.2,6.8,3.2,6.8,3.2,6.9
	C3.2,6.8,3.2,6.8,3.2,6.9C3.2,6.8,3.2,6.9,3.2,6.9L3.2,6.9z M3,6.9C3.1,6.9,3.1,6.9,3,6.9C3.1,6.8,3.1,6.8,3,6.9C3,6.8,3,6.9,3,6.9
	C3,6.9,3,6.9,3,6.9z M3.2,7.1C3.2,7.1,3.2,7.1,3.2,7.1C3.2,7,3.2,7,3.2,7.1c0-0.1,0-0.1,0-0.1C3.2,7,3.2,7,3.2,7.1
	C3.2,7,3.2,7,3.2,7.1C3.2,7.1,3.2,7.1,3.2,7.1z M7.2,7.5C7.2,7.5,7.2,7.5,7.2,7.5C7.1,7.5,7.1,7.5,7.2,7.5L7.2,7.5
	C7.1,7.5,7.1,7.5,7.2,7.5L7.2,7.5C7.2,7.5,7.2,7.5,7.2,7.5z M7.2,7.8C7.2,7.8,7.2,7.8,7.2,7.8C7.2,7.7,7.2,7.7,7.2,7.8
	C7.2,7.7,7.2,7.7,7.2,7.8C7.2,7.7,7.2,7.7,7.2,7.8C7.2,7.8,7.2,7.8,7.2,7.8C7.2,7.8,7.2,7.8,7.2,7.8z M7,7.8C7,7.8,7,7.8,7,7.8
	C7,7.8,7,7.8,7,7.8C7,7.8,7,7.8,7,7.8C7,7.8,7,7.8,7,7.8z M7.3,8C7.3,8,7.2,7.9,7.3,8C7.2,7.9,7.2,8,7.3,8C7.2,8,7.2,8,7.3,8
	C7.2,8,7.2,8,7.3,8C7.2,8,7.3,8,7.3,8L7.3,8z M7.3,8.3C7.3,8.3,7.3,8.2,7.3,8.3C7.3,8.2,7.3,8.2,7.3,8.3C7.2,8.2,7.2,8.2,7.3,8.3
	C7.2,8.2,7.2,8.2,7.3,8.3C7.2,8.3,7.3,8.3,7.3,8.3z M7.3,8.5L7.3,8.5C7.3,8.4,7.3,8.4,7.3,8.5C7.3,8.4,7.3,8.4,7.3,8.5L7.3,8.5
	C7.3,8.4,7.3,8.4,7.3,8.5L7.3,8.5C7.3,8.5,7.3,8.5,7.3,8.5L7.3,8.5C7.3,8.5,7.3,8.5,7.3,8.5z M7.1,8.5C7.1,8.5,7.1,8.5,7.1,8.5
	L7.1,8.5C7.1,8.5,7.1,8.5,7.1,8.5C7.1,8.5,7.1,8.5,7.1,8.5C7.1,8.5,7.1,8.5,7.1,8.5L7.1,8.5C7.1,8.5,7.1,8.5,7.1,8.5
	C7.1,8.5,7.1,8.5,7.1,8.5z M7.4,8.7C7.4,8.7,7.4,8.7,7.4,8.7C7.3,8.7,7.3,8.7,7.4,8.7L7.4,8.7C7.3,8.7,7.3,8.8,7.4,8.7L7.4,8.7
	C7.4,8.8,7.4,8.7,7.4,8.7z M7.1,8.8C7.1,8.8,7.1,8.8,7.1,8.8C7.1,8.7,7.1,8.7,7.1,8.8C7.1,8.7,7.1,8.7,7.1,8.8
	C7.1,8.7,7.1,8.7,7.1,8.8C7.1,8.8,7.1,8.8,7.1,8.8z M7.4,9C7.4,9,7.4,9,7.4,9c0-0.1,0-0.1,0-0.1l0,0C7.3,8.9,7.3,8.9,7.4,9
	C7.4,9,7.4,9,7.4,9L7.4,9z M7.2,9C7.2,9,7.2,9,7.2,9C7.2,9,7.2,9,7.2,9C7.2,9,7.2,9,7.2,9C7.1,9,7.1,9,7.2,9C7.1,9,7.2,9,7.2,9z
	 M7.4,9.3C7.4,9.2,7.5,9.2,7.4,9.3C7.5,9.2,7.5,9.2,7.4,9.3c0-0.1,0-0.1,0-0.1l0,0C7.4,9.2,7.4,9.2,7.4,9.3C7.4,9.2,7.4,9.2,7.4,9.3
	C7.4,9.2,7.4,9.3,7.4,9.3C7.4,9.3,7.4,9.3,7.4,9.3z M7.2,9.3C7.2,9.3,7.2,9.3,7.2,9.3C7.2,9.2,7.2,9.2,7.2,9.3
	C7.2,9.2,7.2,9.2,7.2,9.3C7.2,9.2,7.2,9.2,7.2,9.3C7.2,9.2,7.2,9.2,7.2,9.3C7.2,9.2,7.2,9.2,7.2,9.3C7.2,9.3,7.2,9.3,7.2,9.3
	C7.2,9.3,7.2,9.3,7.2,9.3z M7.5,9.5C7.5,9.5,7.5,9.5,7.5,9.5L7.5,9.5C7.5,9.4,7.4,9.4,7.5,9.5C7.4,9.4,7.4,9.4,7.5,9.5
	C7.4,9.5,7.4,9.5,7.5,9.5C7.4,9.5,7.4,9.5,7.5,9.5z M7.2,9.5C7.2,9.5,7.3,9.5,7.2,9.5C7.3,9.5,7.2,9.5,7.2,9.5L7.2,9.5
	C7.2,9.5,7.2,9.5,7.2,9.5C7.2,9.5,7.2,9.5,7.2,9.5C7.2,9.5,7.2,9.5,7.2,9.5z M7.5,9.7C7.5,9.7,7.5,9.7,7.5,9.7L7.5,9.7
	C7.5,9.7,7.5,9.7,7.5,9.7C7.5,9.7,7.5,9.7,7.5,9.7L7.5,9.7C7.4,9.7,7.5,9.8,7.5,9.7L7.5,9.7C7.5,9.8,7.5,9.8,7.5,9.7
	C7.5,9.7,7.5,9.7,7.5,9.7L7.5,9.7z M7.3,9.8C7.3,9.7,7.3,9.7,7.3,9.8C7.3,9.7,7.3,9.7,7.3,9.8C7.3,9.7,7.2,9.7,7.3,9.8L7.3,9.8
	C7.2,9.8,7.3,9.8,7.3,9.8C7.3,9.8,7.3,9.8,7.3,9.8z M7.6,10C7.6,10,7.6,10,7.6,10C7.6,9.9,7.6,9.9,7.6,10C7.5,9.9,7.5,9.9,7.6,10
	C7.5,9.9,7.5,9.9,7.6,10C7.5,10,7.5,10,7.6,10C7.5,10,7.5,10,7.6,10C7.5,10,7.5,10,7.6,10C7.6,10,7.6,10,7.6,10z M7.3,10
	C7.3,10,7.3,10,7.3,10C7.3,10,7.3,10,7.3,10C7.3,10,7.3,10,7.3,10C7.3,10,7.3,10,7.3,10L7.3,10C7.3,10,7.3,10,7.3,10z M7.6,10.3
	C7.6,10.3,7.6,10.3,7.6,10.3c0-0.1,0-0.1,0-0.1h0C7.5,10.2,7.5,10.2,7.6,10.3C7.5,10.3,7.5,10.3,7.6,10.3
	C7.6,10.3,7.6,10.3,7.6,10.3z M7.4,10.3C7.4,10.3,7.4,10.3,7.4,10.3C7.4,10.3,7.4,10.3,7.4,10.3C7.3,10.2,7.3,10.2,7.4,10.3
	C7.3,10.3,7.3,10.3,7.4,10.3C7.3,10.3,7.3,10.3,7.4,10.3C7.3,10.3,7.4,10.3,7.4,10.3z M7.6,10.5C7.6,10.5,7.6,10.5,7.6,10.5
	C7.6,10.5,7.6,10.5,7.6,10.5c0-0.1,0-0.1,0-0.1C7.6,10.4,7.6,10.5,7.6,10.5C7.6,10.5,7.6,10.5,7.6,10.5C7.6,10.5,7.6,10.5,7.6,10.5z
	 M7.4,10.6C7.4,10.6,7.4,10.5,7.4,10.6C7.4,10.5,7.4,10.5,7.4,10.6C7.4,10.5,7.4,10.5,7.4,10.6C7.4,10.5,7.4,10.5,7.4,10.6z
	 M7.7,10.7C7.7,10.7,7.7,10.7,7.7,10.7C7.6,10.7,7.6,10.7,7.7,10.7C7.6,10.8,7.6,10.8,7.7,10.7L7.7,10.7C7.7,10.8,7.7,10.8,7.7,10.7
	C7.7,10.7,7.7,10.7,7.7,10.7z M7.4,10.8C7.4,10.8,7.4,10.8,7.4,10.8L7.4,10.8C7.4,10.8,7.4,10.8,7.4,10.8
	C7.4,10.8,7.4,10.8,7.4,10.8C7.4,10.8,7.4,10.8,7.4,10.8L7.4,10.8C7.4,10.8,7.4,10.8,7.4,10.8L7.4,10.8z M7.7,11.1
	C7.7,11,7.7,11,7.7,11.1c0-0.1,0-0.1,0-0.1c0,0,0,0,0,0C7.6,10.9,7.6,11,7.7,11.1C7.6,11,7.7,11.1,7.7,11.1
	C7.7,11.1,7.7,11.1,7.7,11.1z M7.5,11.1C7.5,11.1,7.5,11.1,7.5,11.1C7.5,11,7.5,11,7.5,11.1C7.5,11,7.5,11,7.5,11.1
	C7.4,11,7.4,11,7.5,11.1C7.4,11,7.4,11,7.5,11.1L7.5,11.1C7.4,11.1,7.5,11.1,7.5,11.1C7.5,11.1,7.5,11.1,7.5,11.1z M7.7,11.3
	C7.8,11.3,7.8,11.3,7.7,11.3C7.7,11.2,7.7,11.2,7.7,11.3C7.7,11.2,7.7,11.3,7.7,11.3C7.7,11.3,7.7,11.3,7.7,11.3z M7.5,11.3
	C7.5,11.3,7.5,11.3,7.5,11.3C7.5,11.3,7.5,11.3,7.5,11.3C7.5,11.3,7.5,11.3,7.5,11.3C7.5,11.3,7.5,11.3,7.5,11.3
	C7.5,11.3,7.5,11.3,7.5,11.3C7.5,11.3,7.5,11.3,7.5,11.3z M7.7,11.5C7.7,11.5,7.7,11.5,7.7,11.5C7.7,11.5,7.7,11.5,7.7,11.5
	C7.8,11.5,7.8,11.5,7.7,11.5C7.8,11.5,7.8,11.5,7.7,11.5C7.8,11.4,7.8,11.4,7.7,11.5C7.8,11.4,7.8,11.4,7.7,11.5
	C7.7,11.4,7.7,11.5,7.7,11.5z M7.6,11.5C7.6,11.5,7.5,11.5,7.6,11.5C7.5,11.5,7.5,11.5,7.6,11.5C7.5,11.5,7.5,11.5,7.6,11.5
	C7.5,11.5,7.5,11.5,7.6,11.5C7.5,11.5,7.6,11.5,7.6,11.5L7.6,11.5z M7.8,11.8C7.8,11.8,7.8,11.8,7.8,11.8c0.1-0.1,0-0.1,0-0.1
	c0,0,0,0,0,0C7.8,11.7,7.7,11.7,7.8,11.8C7.7,11.8,7.8,11.8,7.8,11.8C7.8,11.8,7.8,11.8,7.8,11.8z M7.6,11.8
	C7.6,11.8,7.6,11.8,7.6,11.8C7.6,11.8,7.6,11.7,7.6,11.8C7.6,11.7,7.6,11.7,7.6,11.8C7.6,11.7,7.6,11.7,7.6,11.8
	C7.5,11.8,7.6,11.8,7.6,11.8C7.6,11.8,7.6,11.8,7.6,11.8z M7.9,12L7.9,12C7.9,11.9,7.8,11.9,7.9,12C7.8,11.9,7.8,11.9,7.9,12L7.9,12
	C7.8,11.9,7.8,12,7.9,12C7.8,12,7.8,12,7.9,12L7.9,12C7.8,12,7.8,12,7.9,12L7.9,12C7.8,12,7.8,12,7.9,12C7.9,12,7.9,12,7.9,12z
	 M7.6,12C7.6,12,7.6,12,7.6,12C7.6,12,7.6,12,7.6,12C7.6,12,7.6,12,7.6,12C7.6,12,7.6,12,7.6,12L7.6,12C7.6,12,7.6,12,7.6,12z
	 M7.9,12.2C7.9,12.2,7.9,12.2,7.9,12.2L7.9,12.2C7.8,12.2,7.8,12.2,7.9,12.2C7.8,12.2,7.8,12.2,7.9,12.2C7.8,12.3,7.8,12.3,7.9,12.2
	L7.9,12.2C7.9,12.3,7.9,12.3,7.9,12.2L7.9,12.2z M7.6,12.3C7.7,12.3,7.7,12.3,7.6,12.3L7.6,12.3C7.7,12.3,7.6,12.3,7.6,12.3
	C7.6,12.3,7.6,12.3,7.6,12.3C7.6,12.3,7.6,12.3,7.6,12.3z M7.9,12.6C7.9,12.6,8,12.5,7.9,12.6L7.9,12.6c0-0.1,0-0.1,0-0.1
	C7.9,12.4,7.9,12.5,7.9,12.6L7.9,12.6C7.9,12.5,7.9,12.6,7.9,12.6z M7.7,12.6C7.7,12.6,7.7,12.6,7.7,12.6
	C7.7,12.5,7.7,12.5,7.7,12.6L7.7,12.6C7.7,12.5,7.7,12.5,7.7,12.6C7.7,12.6,7.7,12.6,7.7,12.6C7.7,12.6,7.7,12.6,7.7,12.6z M8,12.8
	C8,12.8,8,12.8,8,12.8c0-0.1,0-0.1,0-0.1c0,0,0,0,0,0C7.9,12.7,7.9,12.7,8,12.8C7.9,12.8,7.9,12.8,8,12.8C8,12.8,8,12.8,8,12.8z
	 M7.7,12.8C7.7,12.8,7.7,12.8,7.7,12.8C7.7,12.8,7.7,12.8,7.7,12.8C7.7,12.8,7.7,12.8,7.7,12.8C7.7,12.8,7.7,12.8,7.7,12.8
	C7.7,12.8,7.7,12.8,7.7,12.8C7.7,12.8,7.7,12.8,7.7,12.8C7.7,12.8,7.7,12.8,7.7,12.8L7.7,12.8z M8,13.1C8,13.1,8,13.1,8,13.1
	C8,13,8,13,8,13C8,13,7.9,13,8,13.1C7.9,13.1,8,13.1,8,13.1z M7.7,13.1C7.8,13.1,7.8,13.1,7.7,13.1C7.8,13.1,7.8,13.1,7.7,13.1
	C7.8,13.1,7.8,13.1,7.7,13.1C7.7,13.1,7.7,13.1,7.7,13.1z M8,13.4C8.1,13.4,8.1,13.3,8,13.4c0-0.1,0-0.1,0-0.1c0,0,0,0,0,0
	C8,13.2,8,13.3,8,13.4C8,13.3,8,13.4,8,13.4C8,13.4,8,13.4,8,13.4z M7.8,13.3C7.8,13.3,7.8,13.3,7.8,13.3
	C7.8,13.3,7.8,13.3,7.8,13.3C7.8,13.4,7.8,13.4,7.8,13.3C7.8,13.4,7.8,13.4,7.8,13.3z M8.1,13.6C8.1,13.6,8.1,13.6,8.1,13.6
	C8.1,13.6,8.1,13.6,8.1,13.6c0-0.1,0-0.1,0-0.1l0,0C8,13.5,8,13.5,8.1,13.6C8,13.6,8.1,13.6,8.1,13.6C8.1,13.6,8.1,13.6,8.1,13.6z
	 M7.9,13.6C7.9,13.6,7.9,13.6,7.9,13.6C7.8,13.6,7.8,13.6,7.9,13.6C7.8,13.6,7.8,13.6,7.9,13.6L7.9,13.6C7.9,13.6,7.9,13.6,7.9,13.6
	L7.9,13.6z M8.1,13.9C8.1,13.9,8.2,13.8,8.1,13.9L8.1,13.9c0-0.1,0-0.1,0-0.1l0,0C8.1,13.8,8.1,13.8,8.1,13.9
	C8.1,13.8,8.1,13.8,8.1,13.9C8.1,13.9,8.1,13.9,8.1,13.9C8.1,13.9,8.1,13.9,8.1,13.9z M7.9,13.9C7.9,13.8,7.9,13.8,7.9,13.9
	C7.9,13.8,7.9,13.8,7.9,13.9C7.9,13.8,7.8,13.8,7.9,13.9L7.9,13.9C7.8,13.9,7.9,13.9,7.9,13.9C7.9,13.9,7.9,13.9,7.9,13.9z
	 M8.2,14.1C8.2,14.1,8.2,14.1,8.2,14.1c0-0.1,0-0.1,0-0.1c0,0,0,0,0,0C8.1,14,8.1,14.1,8.2,14.1C8.1,14.1,8.1,14.1,8.2,14.1
	C8.1,14.1,8.1,14.1,8.2,14.1L8.2,14.1z M7.9,14.2C7.9,14.1,8,14.1,7.9,14.2C7.9,14.1,7.9,14.1,7.9,14.2C7.9,14.1,7.9,14.1,7.9,14.2
	C7.9,14.1,7.9,14.1,7.9,14.2C7.9,14.1,7.9,14.1,7.9,14.2C7.9,14.1,7.9,14.1,7.9,14.2C7.9,14.2,7.9,14.2,7.9,14.2
	C7.9,14.2,7.9,14.2,7.9,14.2z M8.2,14.4L8.2,14.4C8.2,14.3,8.2,14.3,8.2,14.4L8.2,14.4C8.2,14.3,8.1,14.3,8.2,14.4L8.2,14.4
	C8.1,14.4,8.2,14.4,8.2,14.4L8.2,14.4C8.2,14.4,8.2,14.4,8.2,14.4z M8,14.4C8,14.4,8,14.4,8,14.4C7.9,14.4,7.9,14.4,8,14.4
	C7.9,14.4,7.9,14.4,8,14.4C7.9,14.4,8,14.4,8,14.4C8,14.4,8,14.4,8,14.4L8,14.4z M8.3,14.6C8.3,14.6,8.3,14.6,8.3,14.6
	C8.3,14.6,8.3,14.6,8.3,14.6C8.2,14.6,8.2,14.6,8.3,14.6C8.2,14.6,8.2,14.6,8.3,14.6C8.2,14.6,8.2,14.6,8.3,14.6
	C8.2,14.6,8.2,14.6,8.3,14.6C8.2,14.6,8.3,14.6,8.3,14.6z M8.3,14.8C8.3,14.8,8.3,14.8,8.3,14.8C8.3,14.8,8.2,14.8,8.3,14.8
	C8.2,14.9,8.3,14.9,8.3,14.8C8.3,14.9,8.3,14.9,8.3,14.8z M8.3,15.1C8.3,15.1,8.3,15.1,8.3,15.1C8.3,15,8.3,15,8.3,15.1
	C8.3,15.1,8.3,15.1,8.3,15.1C8.3,15.1,8.3,15.1,8.3,15.1C8.3,15.1,8.3,15.1,8.3,15.1z"/>
<path class="st0" d="M12.7,0.5c-0.1,0-0.1,0-0.2,0c-0.1,0-0.3,0.1-0.4,0.1l0,0c0.1,0,0.2-0.1,0.3-0.1c0.1,0,0.1,0,0.2-0.1
	C12.7,0.4,12.7,0.4,12.7,0.5z"/>
<path class="st1" d="M12.7,0.5c0.1,0.1,0.2,0.2,0.2,0.3c0.2,0.3,0.4,0.6,0.5,1c0.2,0.6,0.3,1.1,0.3,1.7c0,0,0,0,0,0c0,0,0,0,0,0
	c0-0.1,0-0.1,0-0.2l0-0.1c-0.1-0.4-0.2-0.8-0.3-1.2c0-0.1-0.1-0.3-0.1-0.4c-0.1-0.1-0.1-0.3-0.2-0.4c0,0,0,0-0.1,0l-0.3,0.1
	l-0.5,0.1c0,0,0,0,0,0c0,0,0-0.1,0-0.1c0,0,0,0,0,0l0,0l0,0L13,1.1c0,0,0,0,0,0c0,0,0,0,0,0l-0.1-0.1c0,0,0-0.1-0.1-0.1c0,0,0,0,0,0
	L12,1l0-0.1c0,0,0,0,0,0c0,0,0,0,0,0l0.8-0.2c0,0,0,0,0,0c0,0,0,0,0,0L12.7,0.5c-0.1,0.1-0.1,0-0.1,0.1l-0.7,0.2c0,0-0.1,0-0.1,0
	c0,0-0.1,0-0.1,0c0,0,0,0,0,0c0,0-0.1,0-0.1-0.1c0,0,0,0,0,0c0,0,0,0,0,0c0,0,0.1,0,0.1,0c0,0,0,0,0,0l0.2,0l0.1,0
	c0.1,0,0.3-0.1,0.4-0.1C12.6,0.4,12.6,0.4,12.7,0.5z"/>
<path class="st1" d="M12.1,4.5L12.1,4.5c-0.1,0-0.1,0-0.1,0l0-0.2L11.9,4l-0.2-0.7c-0.2-0.7-0.3-1.2-0.4-1.5
	c-0.1-0.3-0.2-0.6-0.3-0.9c0,0,0,0,0,0c-0.1,0-0.2,0-0.3,0.1C10.5,0.9,10.2,1,10,1C9.4,1.2,8.7,1.3,8.1,1.5c-0.1,0-0.2,0-0.2,0.1
	l-0.1,0c0,0,0,0,0,0c0,0,0,0,0,0c0,0,0,0,0,0c-0.1,0-0.1,0-0.2,0c-0.1,0-0.1,0-0.1,0c-0.4,0-0.7,0.1-1.1,0.2C5.8,1.9,5.2,2,4.7,2.2
	c-0.1,0-0.2,0.1-0.4,0.1l0,0c0,0,0,0,0,0c0,0,0,0,0,0c0.5-0.1,1-0.3,1.5-0.4c0.4-0.1,1.1-0.3,1.7-0.4c0.3-0.1,0.6-0.2,0.9-0.2
	C8.7,1,9.1,0.9,9.4,0.8c0.4-0.1,0.7-0.2,1.1-0.3c0.1,0,0.2,0,0.2,0c0,0,0,0,0,0c0.1,0.1,0.2,0.1,0.3,0.2c0.1,0,0.1,0.1,0.1,0.2
	c0.3,0.9,0.5,1.7,0.7,2.5C12,3.6,12.1,4,12.1,4.5C12.2,4.5,12.2,4.5,12.1,4.5C12.2,4.5,12.1,4.5,12.1,4.5z"/>
<path class="st2" d="M12.1,0.5L12.1,0.5L12,0.6l0,0L12.1,0.5z"/>
<path class="st3" d="M11.9,0.6L11.9,0.6l-0.1,0l0,0c0,0,0,0,0,0L11.9,0.6z"/>
<path class="st2" d="M11.7,0.6C11.7,0.7,11.7,0.7,11.7,0.6C11.7,0.6,11.7,0.6,11.7,0.6z"/>
<path class="st4" d="M12.7,0.7C12.7,0.7,12.7,0.7,12.7,0.7C12.7,0.7,12.7,0.7,12.7,0.7l-0.8,0.3c0,0,0,0,0,0c0,0,0,0,0,0L12,1
	c0,0,0,0,0,0.1c0,0,0,0,0.1,0c0.1,0,0.1,0,0.1,0l-0.1,0l-0.3,0.1L11.7,1c0,0,0,0,0,0c0,0,0,0,0,0L12.7,0.7z"/>
<path class="st5" d="M11.9,0.7l-0.2,0c0,0,0.1,0,0.1,0C11.9,0.7,11.9,0.7,11.9,0.7z"/>
<path class="st3" d="M11.7,3.3C11.7,3.2,11.7,3.2,11.7,3.3C11.7,3.2,11.7,3.2,11.7,3.3C11.7,3.2,11.7,3.2,11.7,3.3
	C11.7,3.2,11.7,3.2,11.7,3.3C11.7,3.2,11.7,3.2,11.7,3.3C11.7,3.2,11.7,3.2,11.7,3.3l-0.2,0c0,0,0,0,0,0.1c0,0,0,0.1,0,0.1
	c-0.1-0.5-0.2-0.9-0.4-1.4c0-0.1,0-0.1-0.1-0.1c-0.1,0-0.2,0-0.2,0.1c0,0,0,0,0,0.1c0,0,0,0,0-0.1c0,0,0,0,0,0c0,0,0,0,0,0
	c0,0,0,0.1,0,0.1c0,0,0,0,0,0c0,0,0,0,0,0c0,0,0,0,0,0c0,0,0,0,0,0c0,0,0,0,0,0c0,0,0,0,0,0c0,0,0,0,0,0c0,0,0,0,0,0c0,0,0,0,0,0
	c0,0,0,0,0,0c0,0,0,0,0,0c0,0,0,0,0,0c0,0-0.1,0-0.1,0c0,0,0,0,0,0c0,0,0,0,0,0c0,0,0,0,0,0l0,0c0,0,0,0,0,0c0,0,0,0,0,0
	c0,0,0,0,0,0c0,0,0,0,0,0l-0.1,0c0,0,0,0,0,0c0,0,0,0,0,0c0,0,0,0,0,0c0,0,0,0,0,0c0,0,0,0,0,0c0,0,0,0,0,0c0,0,0,0,0,0l-0.1,0
	c0,0,0,0,0,0c0,0,0,0,0,0c0,0,0,0,0,0c0,0,0,0,0,0C9.8,1.6,9.3,1.8,9,2.2C9,2.3,9,2.4,8.9,2.4c0,0,0,0,0,0c0,0,0,0,0,0l0,0.1
	c0,0,0,0,0,0c0,0,0,0,0,0c0,0,0,0,0,0l0,0.4c0,0,0,0,0,0c0,0-0.1,0-0.1,0c0,0,0,0,0,0c0,0,0,0,0,0c0,0,0,0,0,0l-0.1,0c0,0,0,0,0,0
	l0,0c0,0,0,0,0,0c0,0-0.1-0.1-0.2-0.1c-0.1,0-0.1,0-0.2-0.1c-0.1,0-0.1,0-0.1,0c-0.1,0-0.1,0-0.2,0c0,0,0,0,0,0c0,0,0,0,0,0
	c0,0-0.1,0-0.2,0c-0.1,0-0.1,0-0.2,0c0,0,0,0-0.1,0c0,0,0,0,0,0c0,0,0,0,0,0c0,0,0,0,0,0c0,0,0,0,0,0c0,0,0,0,0,0c0,0,0,0,0-0.1
	c0,0,0,0,0,0c0,0,0,0,0,0L7.2,2.7c0,0,0,0-0.1,0c0,0,0,0,0,0c-0.4-0.3-0.9-0.3-1.2,0C5.7,3,5.6,3.4,5.7,3.7l0-0.1c0,0,0,0,0,0
	c0,0,0,0,0,0c0,0,0,0,0,0l0-0.1c0,0,0,0,0,0c0,0.1,0,0.1,0,0.1c0,0.1,0,0.1,0,0.2c0,0,0,0,0,0c0,0,0,0,0,0c0,0,0,0,0,0c0,0,0,0,0,0
	c0,0,0,0,0,0c0,0,0,0,0,0c0,0,0,0,0,0c0,0,0,0,0,0c0,0,0,0,0,0c0,0,0,0,0,0c0,0,0,0,0,0c0,0-0.1,0-0.1,0c0,0,0,0,0,0c0,0,0,0,0,0
	c0,0,0,0,0,0c0,0-0.1,0-0.1,0c-0.1,0-0.2,0-0.2-0.1c0,0-0.1,0-0.1,0c0,0,0,0,0,0c0,0,0,0,0,0c0,0,0,0,0,0c0,0,0,0,0,0c0,0,0,0,0,0
	c0,0,0,0,0,0c0,0-0.1,0-0.1,0c0,0,0,0,0,0c0,0,0,0,0,0c0,0,0,0,0,0c0,0,0,0,0,0c0,0,0,0,0,0L4.3,2.2l0,0c0,0,0,0,0,0c0,0,0,0,0,0
	c0,0,0,0,0,0c0,0,0,0,0,0.1c0,0,0,0,0,0c0,0,0.1,0,0.1,0c0.1,0,0.3,0,0.4-0.1c0.8-0.2,1.5-0.4,2.2-0.5c0.3-0.1,0.5-0.1,0.8-0.2
	c0.1,0,0.2,0,0.2-0.1C8.7,1.3,9.4,1.2,10,1c0.2-0.1,0.5-0.1,0.7-0.2c0.1,0,0.2,0,0.3-0.1c0,0,0,0,0,0c0.1,0.3,0.2,0.6,0.3,0.9
	C11.4,2.1,11.6,2.6,11.7,3.3z M10.8,1.1c0,0-0.1-0.1-0.1,0c-0.1,0-0.1,0.1-0.1,0.1c0,0,0.1,0.1,0.1,0c0,0,0,0,0,0
	C10.8,1.2,10.8,1.2,10.8,1.1z M10.4,1.2c0,0-0.1-0.1-0.1-0.1c-0.1,0-0.1,0-0.1,0.1c0,0,0,0,0,0C10.2,1.3,10.3,1.3,10.4,1.2
	C10.3,1.3,10.3,1.3,10.4,1.2C10.4,1.3,10.4,1.3,10.4,1.2C10.4,1.2,10.4,1.2,10.4,1.2z M10,1.3c0,0-0.1-0.1-0.1,0c0,0,0,0,0,0
	c-0.1,0-0.1,0.1-0.1,0.1v0c0,0,0.1,0.1,0.1,0c0,0,0,0,0,0C10,1.4,10,1.4,10,1.3L10,1.3z M9.6,1.4C9.6,1.4,9.6,1.3,9.6,1.4l-0.2,0
	c0,0-0.1,0.1-0.1,0.1l0,0c0,0,0.1,0.1,0.1,0.1L9.6,1.4C9.6,1.5,9.6,1.4,9.6,1.4L9.6,1.4z M9.1,1.5C9.1,1.5,9.1,1.4,9.1,1.5l-0.2,0
	c0,0-0.1,0,0,0.1l0,0c0,0,0,0.1,0.1,0L9.1,1.5C9.1,1.6,9.1,1.5,9.1,1.5L9.1,1.5z M11,1.7c0-0.1,0-0.1-0.1-0.1c0,0,0,0,0,0
	c-0.1,0-0.1,0-0.1,0.1c0,0.1,0,0.1,0.1,0.1l0,0C11,1.8,11,1.8,11,1.7z M4.8,2.8c-0.1-0.1-0.2-0.1-0.3,0c0,0,0,0,0,0c0,0,0,0,0,0.1
	c0,0,0,0,0,0c0,0,0.1,0,0.1,0C4.7,2.9,4.7,2.9,4.8,2.8C4.8,2.9,4.8,2.9,4.8,2.8C4.8,2.9,4.8,2.9,4.8,2.8C4.8,2.8,4.8,2.8,4.8,2.8z"
	/>
<path class="st5" d="M12.9,0.9l-0.7,0.2c0,0-0.1,0-0.1,0c0,0,0,0-0.1,0c0,0,0,0,0-0.1L12.9,0.9C12.8,0.9,12.8,0.9,12.9,0.9
	C12.8,0.9,12.9,0.9,12.9,0.9z"/>
<path class="st0" d="M12.9,0.9L13,1c0,0,0,0,0,0c0,0,0,0,0,0l-0.8,0.2c0,0,0,0,0,0c0,0,0,0,0,0c0,0,0,0,0,0c0,0,0,0,0.1,0
	c0,0,0,0,0,0c0,0,0,0,0-0.1c0,0,0,0,0,0c0,0,0,0,0,0l-0.1,0l0.1,0L12.9,0.9z"/>
<ellipse transform="matrix(0.9646 -0.2639 0.2639 0.9646 7.822357e-02 2.8697)" class="st1" cx="10.7" cy="1.1" rx="0.1" ry="0.1"/>
<path class="st6" d="M12.2,1.2L12.2,1.2c-0.1,0-0.1,0-0.1,0c-0.1,0-0.2,0.1-0.3,0.1c0,0,0-0.1,0-0.1l0.3-0.1l0.1,0c0,0,0,0,0,0
	c0,0,0,0,0,0C12.2,1.2,12.2,1.2,12.2,1.2C12.2,1.2,12.2,1.2,12.2,1.2C12.2,1.2,12.2,1.2,12.2,1.2C12.2,1.2,12.2,1.2,12.2,1.2
	C12.2,1.2,12.2,1.2,12.2,1.2C12.2,1.3,12.2,1.3,12.2,1.2z"/>
<ellipse transform="matrix(0.99 -0.1409 0.1409 0.99 -7.204803e-02 1.4633)" class="st1" cx="10.3" cy="1.2" rx="0.1" ry="0.1"/>
<path class="st5" d="M13.4,2c-0.2,0-0.4,0.1-0.6,0.1c-0.2,0-0.3,0.1-0.5,0.1c0,0,0,0,0,0l-0.2-0.6c0,0,0,0,0,0c0,0,0,0,0,0l0.1,0
	l0,0L12.4,2c0,0,0,0,0,0l0.7-0.2c0,0,0,0,0,0c0,0,0,0,0,0L13,1.4c0,0,0,0,0,0l-0.3,0.1c-0.1,0,0-0.1,0-0.1c0,0,0,0,0,0
	c0,0,0,0,0.1,0c0,0,0,0,0,0c0,0,0,0,0,0c0,0,0,0,0,0c0,0,0,0,0,0c0,0,0,0,0,0c0,0,0,0,0,0L13,1.2c0,0,0.1,0,0.1,0
	c0.1,0.1,0.1,0.3,0.2,0.4C13.3,1.8,13.4,1.9,13.4,2z"/>
<path class="st4" d="M12.1,1.3L12.1,1.3C12.1,1.3,12.1,1.3,12.1,1.3c0,0.1,0,0.1,0,0.1c0,0,0,0,0,0l0.5-0.1c0,0,0,0,0,0c0,0,0,0,0,0
	c0,0,0,0,0,0c0,0,0,0,0,0c0,0,0,0,0,0c0,0,0,0,0,0c0,0,0,0-0.1,0c0,0,0,0,0,0c-0.1,0-0.1,0,0,0.1l-0.4,0.1l0,0c0,0,0,0,0,0
	c0,0,0-0.1,0-0.1c0,0,0,0-0.1,0c-0.1,0-0.1,0-0.2,0.1c0,0,0,0,0,0C12,1.6,12,1.7,12,1.9c0,0,0,0,0,0l-0.2-0.6
	C11.9,1.3,12,1.3,12.1,1.3C12.1,1.3,12.1,1.3,12.1,1.3z"/>
<ellipse transform="matrix(0.9699 -0.2436 0.2436 0.9699 -2.867522e-02 2.4466)" class="st1" cx="9.9" cy="1.3" rx="0.1" ry="0.1"/>
<path class="st1" d="M9.4,1.4l0.2,0c0,0,0.1,0,0.1,0.1l0,0c0,0,0,0.1-0.1,0.1l-0.2,0C9.4,1.5,9.3,1.5,9.4,1.4L9.4,1.4
	C9.3,1.4,9.3,1.4,9.4,1.4z"/>
<path class="st1" d="M12.2,1.6l0.4-0.1l0.3-0.1c0,0,0,0,0,0l0.2,0.4c0,0,0,0,0,0c0,0,0,0,0,0L12.4,2c0,0,0,0,0,0L12.2,1.6z"/>
<path class="st7" d="M12.2,1.6l-0.1,0c0,0,0,0,0,0c0,0,0,0,0,0l0.2,0.6c0,0,0,0,0,0c0.2,0,0.4-0.1,0.5-0.1c0.2,0,0.4-0.1,0.6-0.1
	c0.1,0.4,0.2,0.8,0.3,1.2c-0.2,0.1-0.4,0.1-0.6,0.2c-0.2,0.1-0.4,0.1-0.6,0.2c0,0,0,0,0,0l0,0c0,0,0,0,0,0c0,0,0,0,0,0
	c0.2,0,0.4-0.1,0.5-0.1c0.1,0,0.3-0.1,0.7-0.2c0,0,0,0,0,0l0-0.1c0,0.1,0,0.1,0,0.2c0,0,0,0,0,0c-0.4,0.1-0.8,0.2-1.2,0.3
	c0,0-0.1,0-0.1,0c0,0,0,0,0,0c-0.1-0.4-0.2-0.7-0.3-1.1c-0.1-0.3-0.2-0.6-0.2-0.8c0,0,0,0,0,0c0-0.1,0-0.2-0.1-0.3c0,0,0,0,0,0
	c0.1,0,0.1-0.1,0.2-0.1c0,0,0,0,0.1,0C12.2,1.5,12.2,1.5,12.2,1.6C12.2,1.5,12.2,1.6,12.2,1.6z M13.1,2.3c0,0-0.1,0-0.2,0
	c0,0,0,0,0,0c-0.1,0-0.2,0.1-0.2,0.1s0.1,0,0.2,0c0,0,0,0,0,0C13,2.4,13.1,2.3,13.1,2.3z M12.8,3c0.2,0,0.5-0.1,0.7-0.2c0,0,0,0,0,0
	l0,0c0,0,0,0,0,0L12.8,3C12.8,3,12.8,3,12.8,3L12.8,3C12.8,3,12.8,3,12.8,3C12.8,3,12.8,3,12.8,3z"/>
<path class="st1" d="M8.9,1.5l0.1,0c0,0,0.1,0,0.1,0l0,0c0,0,0,0.1,0,0.1l-0.1,0C8.9,1.6,8.9,1.6,8.9,1.5L8.9,1.5
	C8.8,1.5,8.9,1.5,8.9,1.5z"/>
<path class="st5" d="M7.9,1.5C7.6,1.6,7.4,1.7,7.1,1.7C6.4,1.9,5.7,2.1,4.9,2.3c-0.1,0-0.3,0.1-0.4,0.1c0,0,0,0-0.1,0c0,0,0,0,0,0
	c0,0,0,0,0-0.1c0,0,0,0,0,0c0,0,0,0,0,0c0,0,0,0,0,0c0.1,0,0.2,0,0.4-0.1C5.2,2,5.8,1.9,6.4,1.7c0.4-0.1,0.8-0.2,1.1-0.2
	c0,0,0,0,0.1,0c0,0,0.1,0,0.2,0c0,0,0,0,0,0c0,0,0,0,0,0c0,0,0,0,0,0L7.9,1.5z"/>
<ellipse transform="matrix(1.047178e-02 -0.9999 0.9999 1.047178e-02 9.1106 12.6097)" class="st1" cx="10.9" cy="1.7" rx="0.1" ry="0.1"/>
<path class="st1" d="M10.3,1.9c0.2,0.1,0.3,0.3,0.4,0.5c0,0.1,0,0.2,0,0.3c0,0.5-0.4,0.9-0.9,0.8c-0.6,0-1-0.5-0.8-1.1
	C9,2.4,9,2.3,9,2.2C9.3,1.8,9.8,1.6,10.3,1.9z M10.4,2.4c-0.1-0.3-0.5-0.5-0.9-0.3C9.2,2.2,9,2.6,9.2,2.9C9.3,3.2,9.7,3.4,10,3.3
	c0,0,0,0,0,0C10.4,3.1,10.5,2.7,10.4,2.4z"/>
<path class="st0" d="M4.1,1.8L3.9,1.9C3.9,1.9,4,1.8,4.1,1.8z"/>
<path class="st7" d="M10.9,2.1l0.4,1.5c0,0,0,0,0,0.1c0,0,0,0.1,0,0.1c0,0.1,0.1,0.1,0.2,0.1c0.1,0,0.1-0.2,0.1-0.3l0-0.1
	c0,0,0-0.1,0-0.1c0,0,0-0.1,0-0.1l0.1-0.1c0,0,0,0,0,0c0,0,0,0,0,0c0,0,0,0,0,0c0,0,0,0,0,0c0,0,0,0,0,0c0,0,0,0,0,0L11.9,4
	c0,0,0,0,0,0c0,0,0,0,0,0C11.6,4,11.2,4.1,11,4.2l0,0c0,0,0,0,0,0c0,0,0,0,0,0c0,0,0,0,0,0c0,0,0,0,0,0l0,0c0,0,0,0,0,0c0,0,0,0,0,0
	c0,0,0,0,0,0c0,0,0,0,0,0c0,0,0,0,0,0c0,0,0,0,0,0c0,0,0,0,0,0c0,0,0,0,0,0c0,0,0,0,0,0c0,0,0,0,0,0l-0.1,0c0,0,0,0,0,0c0,0,0,0,0,0
	c0,0,0,0,0,0c0,0,0,0,0,0l0,0c0,0,0,0,0,0c0,0,0,0,0,0c0,0,0,0,0,0c0,0,0,0,0,0c0,0,0,0,0,0l-0.1,0c0,0,0,0,0,0c0,0-0.1,0-0.1-0.1
	c0,0,0,0,0,0c0,0,0,0,0,0c0,0,0,0,0,0c0,0,0,0,0,0c0,0-0.1,0-0.1,0c0,0-0.1,0-0.1,0c-0.1,0-0.3,0-0.4,0c0,0-0.1,0-0.1,0c0,0,0,0,0,0
	c0,0,0,0,0,0c0,0,0,0,0,0c0,0,0,0,0,0c0,0,0,0,0,0c0,0,0,0-0.1,0c0,0,0,0,0,0l-0.2,0c0,0,0,0,0,0c0,0,0,0,0,0c0,0,0,0,0,0
	c0,0,0,0-0.1,0c0-0.1-0.1-0.1-0.2-0.1c0,0,0,0-0.1,0.1C8.8,4.2,8.3,4.3,7.9,4.1C7.8,4.1,7.7,4,7.6,4c0,0,0,0,0,0c0,0,0,0,0,0
	c0,0,0,0-0.1-0.1c0,0,0,0,0-0.1c0,0,0,0,0,0c0,0,0,0,0,0c0,0,0,0,0-0.1c0,0,0,0,0,0c0,0,0,0,0,0c0,0,0-0.1,0-0.1c0,0,0,0,0,0
	c0,0,0,0,0,0c0,0,0,0.1,0,0.1c0.1-0.3,0-0.7-0.3-0.9c0,0,0,0,0,0c0,0,0,0,0.1,0l0.1,0.1c0,0,0,0,0,0c0,0,0,0,0,0c0,0,0,0,0,0.1
	c0,0,0,0,0,0c0,0,0,0,0,0c0,0,0,0,0,0c0,0,0,0,0,0c0,0,0,0,0,0c0,0,0,0,0.1,0c0.1,0,0.1,0,0.2,0c0.1,0,0.1,0,0.2,0c0,0,0,0,0,0
	c0,0,0,0,0,0c0.1,0,0.1,0,0.2,0c0,0,0.1,0,0.1,0c0.1,0,0.1,0,0.2,0.1c0.1,0,0.1,0.1,0.2,0.1c0,0,0,0,0,0l0,0c0,0,0,0,0,0l0.1,0
	c0,0,0,0,0,0c0,0,0,0,0,0c0,0,0,0,0,0c0,0,0,0,0.1,0c0,0,0,0,0,0l0-0.4c0,0,0,0,0,0c0,0,0,0,0,0c0,0,0,0,0,0l0-0.1c0,0,0,0,0,0
	c0,0,0,0,0,0C8.8,3,9.2,3.5,9.8,3.5c0.5,0,0.9-0.4,0.9-0.8c0-0.1,0-0.2,0-0.3c0-0.2-0.2-0.4-0.4-0.5c0,0,0,0,0,0c0,0,0,0,0,0
	c0,0,0,0,0,0c0,0,0,0,0,0l0.1,0c0,0,0,0,0,0c0,0,0,0,0,0c0,0,0,0,0,0c0,0,0,0,0,0c0,0,0,0,0,0c0,0,0,0,0,0c0,0,0,0,0,0l0.1,0
	c0,0,0,0,0,0c0,0,0,0,0,0c0,0,0,0,0,0c0,0,0,0,0,0l0,0c0,0,0,0,0,0c0,0,0,0,0,0c0,0,0,0,0,0c0,0,0.1,0,0.1,0c0,0,0,0,0,0
	c0,0,0,0,0,0c0,0,0,0,0,0c0,0,0,0,0,0c0,0,0,0,0,0c0,0,0,0,0,0c0,0,0,0,0,0c0,0,0,0,0,0C10.8,2.1,10.8,2.1,10.9,2.1
	C10.8,2.1,10.9,2.1,10.9,2.1C10.9,2.2,10.9,2.2,10.9,2.1C10.9,2.2,10.9,2.2,10.9,2.1C10.9,2.1,10.9,2.1,10.9,2.1
	C10.9,2,10.9,2,10.9,2.1C10.9,2,10.9,2,10.9,2.1C10.9,2.1,10.9,2.1,10.9,2.1z"/>
<path class="st1" d="M11.5,3.4l0,0.1c0,0,0,0,0,0c0,0,0,0,0,0c0,0,0,0,0,0c-0.1,0-0.1,0-0.2,0l-0.4-1.5c0,0,0,0,0-0.1
	c0-0.1,0.1-0.1,0.2-0.1c0,0,0.1,0.1,0.1,0.1C11.3,2.5,11.4,3,11.5,3.4z"/>
<path d="M10.4,2.4c0.1,0.3,0,0.7-0.3,0.9c-0.3,0.1-0.7,0-0.9-0.3c0,0,0,0,0,0C9,2.6,9.2,2.2,9.5,2.1C9.9,1.9,10.2,2.1,10.4,2.4z
	 M10.2,2.5c0.1-0.1,0-0.3-0.1-0.4C9.9,2,9.7,2.1,9.7,2.2c-0.1,0.1,0,0.3,0.1,0.4c0,0,0,0,0,0C9.9,2.7,10.1,2.6,10.2,2.5z"/>
<ellipse transform="matrix(0.4741 -0.8805 0.8805 0.4741 3.1571 9.9564)" class="st1" cx="9.9" cy="2.3" rx="0.3" ry="0.3"/>
<path class="st4" d="M5.3,5.9C5.4,6,5.4,6,5.3,5.9c0.1,0,0.2,0,0.2,0l0.1,0c0,0,0,0,0,0c0.3-0.1,0.7-0.2,1-0.2
	C6.9,5.6,7,5.6,7.1,5.5c0.1,0,0.3-0.1,0.3-0.1C8,5.3,8.5,5.2,9.1,5.1C9.4,5,9.8,4.9,10.2,4.8c0.2,0,0.6-0.1,1.3-0.3
	c0.2,0,0.3-0.1,0.5-0.1c0,0,0,0,0,0l0,0l0,0.2c0,0,0,0,0,0l0.1,0c0,0-0.1,0-0.1,0C11.1,4.7,10.2,5,9.3,5.2C9.1,5.2,9,5.2,8.8,5.3
	C7.9,5.5,7,5.7,6,6C5.7,6,5.5,6.1,5.2,6.2c0,0,0,0,0-0.1c0,0,0,0,0,0c-0.1,0-0.1,0-0.1-0.1c0,0,0,0,0,0c0,0,0,0,0-0.1c0,0,0,0,0,0
	c0,0,0,0,0,0c0,0,0,0,0,0C5,6,5,6,5,6C4.9,5.7,4.8,5.3,4.8,5c0-0.2-0.1-0.4-0.1-0.5C4.5,3.8,4.3,3.1,4,2.5c0,0,0-0.1-0.1-0.1
	c0,0,0,0,0,0l0.1-0.1c0,0,0,0,0,0c0,0,0,0,0,0C4.4,3,4.7,4,4.9,5.1C5,5.3,5.1,5.7,5.2,6c0,0,0,0,0,0L5.3,5.9z"/>
<ellipse transform="matrix(0.9792 -0.2028 0.2028 0.9792 -0.213 2.6662)" class="st8" cx="12.9" cy="2.4" rx="0.2" ry="0"/>
<path class="st1" d="M7.1,2.7C7.4,3,7.5,3.3,7.4,3.7C7.3,4.1,6.8,4.4,6.3,4.3C6,4.2,5.8,4,5.7,3.7C5.6,3.4,5.7,3,5.9,2.8
	C6.3,2.4,6.8,2.5,7.1,2.7z M7.2,3.1C7,2.8,6.6,2.7,6.3,2.8C6,3,5.8,3.3,6,3.7C6.1,4,6.5,4.1,6.8,4C7.2,3.8,7.3,3.5,7.2,3.1z"/>
<path d="M7.2,3.1c0.1,0.3,0,0.7-0.3,0.9C6.5,4.1,6.1,4,6,3.7C5.8,3.3,6,3,6.3,2.8C6.6,2.7,7,2.8,7.2,3.1z M6.9,3.2
	c0.1-0.1,0-0.3-0.1-0.4c0,0,0,0,0,0C6.6,2.8,6.5,2.8,6.4,3c-0.1,0.1,0,0.3,0.1,0.4c0,0,0,0,0,0C6.7,3.4,6.9,3.3,6.9,3.2z"/>
<path class="st4" d="M4.8,2.8C4.8,2.8,4.8,2.8,4.8,2.8C4.8,2.9,4.8,2.9,4.8,2.8C4.8,2.9,4.8,2.9,4.8,2.8C4.7,2.9,4.7,2.9,4.7,2.9
	c0,0-0.1,0-0.1,0c0,0,0,0,0,0c0,0,0,0,0-0.1c0,0,0,0,0,0C4.6,2.8,4.7,2.8,4.8,2.8z"/>
<ellipse transform="matrix(0.4115 -0.9114 0.9114 0.4115 1.1263 7.8894)" class="st1" cx="6.7" cy="3.1" rx="0.3" ry="0.3"/>
<path class="st8" d="M13.5,2.9C13.3,2.9,13.1,3,12.8,3c0,0,0,0,0,0c0,0,0,0,0,0l0,0c0,0,0,0,0,0L13.5,2.9
	C13.6,2.8,13.6,2.8,13.5,2.9L13.5,2.9C13.6,2.8,13.6,2.9,13.5,2.9z"/>
<path class="st1" d="M3.5,7.4C3.6,7.2,3.6,7,3.6,6.9c0.1-0.6,0-1.1-0.1-1.7c0,0,0-0.1,0-0.1l0-0.1C3.3,4.2,3,3.6,2.5,3c0,0,0,0,0,0
	l0.1,0c0,0,0,0,0,0c0.5,0.5,0.8,1.3,1,2c0,0.1,0.1,0.3,0.1,0.4C3.8,6,3.9,6.5,3.9,7c0,0.2-0.1,0.3-0.2,0.5C3.6,7.5,3.6,7.5,3.5,7.4
	C3.6,7.5,3.6,7.5,3.5,7.4L3.5,7.4z"/>
<path class="st7" d="M3.9,4.6C3.8,4.3,3.7,4,3.6,3.8C3.6,3.7,3.5,3.5,3.4,3.4C3.4,3.3,3.3,3.1,3.2,3c0,0,0,0,0,0c0,0,0,0,0,0l0.2,0
	c0,0,0,0,0,0c0.2,0.3,0.3,0.5,0.3,0.7c0.2,0.5,0.3,1,0.4,1.5c0,0.2,0.1,0.5,0.2,0.9c0,0,0,0.1,0,0.1L4.2,6.3c0,0,0,0,0,0
	c0-0.1,0-0.2,0-0.4C4.1,5.6,4,5.2,4,4.9C4,4.8,3.9,4.7,3.9,4.6z"/>
<path d="M13.7,3.2L13.7,3.2l0,0.1c0,0,0,0,0,0c-0.3,0.1-0.6,0.1-0.7,0.2c-0.2,0-0.4,0.1-0.5,0.1c0,0,0,0,0,0c0,0,0,0,0,0l0,0
	c0,0,0,0,0,0c0.2-0.1,0.4-0.1,0.6-0.2C13.3,3.4,13.5,3.3,13.7,3.2z"/>
<path class="st0" d="M5.7,3.7C5.8,4,6,4.2,6.3,4.3c0.5,0.1,0.9-0.1,1.1-0.6c0,0,0-0.1,0-0.1c0,0,0,0,0,0c0,0,0,0,0,0
	c0,0,0,0.1,0,0.1c0,0,0,0,0,0c0,0,0,0,0,0c0,0,0,0,0,0.1c0,0,0,0,0,0c0,0,0,0,0,0c0,0,0,0.1,0,0.1c0,0,0.1,0.1,0.1,0.1c0,0,0,0,0,0
	c0,0,0,0,0,0c-0.1,0-0.1,0.2,0,0.3c0.2,0.2,0.5,0.3,0.7,0.2c0.4,0,0.7-0.2,0.9-0.6c0-0.1,0-0.1,0-0.2c0,0,0,0,0.1,0c0,0,0,0,0,0
	c0,0,0,0,0,0c0,0,0,0,0,0l0.2,0c0,0,0,0,0,0c0,0,0,0,0.1,0c0,0,0,0,0,0c0,0,0,0,0,0c0,0,0,0,0,0c0,0,0,0,0,0c0,0,0,0,0,0
	c0,0,0.1,0,0.1,0c0.1,0,0.3,0,0.4,0c0,0,0.1,0,0.1,0c0,0,0.1,0,0.1,0c0,0,0,0,0,0c0,0,0,0,0,0c0,0,0,0,0,0c0,0,0,0,0,0
	c0,0,0.1,0,0.1,0.1c0,0,0,0,0,0l0.1,0c0,0,0,0,0,0c0,0,0,0,0,0c0,0,0,0,0,0c0,0,0,0,0,0c0,0,0,0,0,0l0,0c0,0,0,0,0,0c0,0,0,0,0,0
	c0,0,0,0,0,0c0,0,0,0,0,0l0.1,0c0,0,0,0,0,0c0,0,0,0,0,0c0,0,0,0,0,0c0,0,0,0,0,0c0,0,0,0,0,0c0,0,0,0,0,0c0,0,0,0,0,0c0,0,0,0,0,0
	c0,0,0,0,0,0c0,0,0,0,0,0l0,0c0,0,0,0,0,0c0,0,0,0,0,0c0,0,0,0,0,0c0,0,0,0,0,0l0,0l-0.9,0.2c0,0,0,0,0,0l0,0c0,0,0,0,0,0
	c0.3-0.1,0.6-0.1,0.9-0.2c0.3-0.1,0.5-0.1,0.8-0.2c0,0,0,0,0,0c0,0,0,0,0,0c0,0,0,0,0,0c0,0,0,0,0,0L12,4.3l0,0c0,0,0,0,0,0
	c-0.2,0-0.3,0.1-0.5,0.1c-0.7,0.2-1.1,0.3-1.3,0.3C9.8,4.9,9.4,5,9.1,5.1C8.5,5.2,8,5.3,7.4,5.5c-0.1,0-0.2,0.1-0.3,0.1
	C7,5.6,6.9,5.6,6.7,5.6C6.3,5.7,6,5.8,5.7,5.9c0,0,0,0,0,0L5.6,5.6c0,0,0,0,0,0l0.7-0.2c0,0,0,0,0,0l0,0c0,0,0,0,0,0L5.6,5.5
	c0,0,0,0,0,0c0-0.1-0.1-0.2,0-0.2c0,0,0,0,0,0c0.1,0,0.2,0,0.2-0.1c0,0,0,0,0,0c-0.1,0-0.2,0-0.3,0.1c0,0,0,0,0,0L5.1,4.1
	c0,0,0,0,0,0c0,0,0,0.2,0,0.3c0,0.2,0.1,0.6,0.3,1.2c0,0.1,0,0.2,0.1,0.2c0,0,0,0,0.1,0c0,0-0.1,0-0.1,0c0,0-0.1,0-0.1,0
	c0-0.1-0.1-0.3-0.1-0.4C5.1,4.9,4.9,4.3,4.7,3.7c0,0,0,0,0,0c0,0,0,0,0,0c0,0,0,0,0,0c0,0,0,0,0,0c0,0,0,0,0,0c0,0,0.1,0,0.1,0
	c0,0,0,0,0,0c0,0,0,0,0,0c0,0,0,0,0,0c0,0,0,0,0,0c0,0,0,0,0,0c0,0,0,0,0,0c0,0,0.1,0,0.1,0c0.1,0,0.2,0,0.2,0.1c0,0,0,0,0.1,0
	c0,0,0,0,0,0c0,0,0,0,0,0c0,0,0,0,0,0c0,0,0.1,0,0.1,0c0,0,0,0,0,0c0,0,0,0,0,0c0,0,0,0,0,0c0,0,0,0,0,0c0,0,0,0,0,0c0,0,0,0,0,0
	c0,0,0,0,0,0c0,0,0,0,0,0c0,0,0,0,0,0C5.7,3.8,5.7,3.8,5.7,3.7C5.7,3.8,5.7,3.8,5.7,3.7C5.7,3.7,5.7,3.7,5.7,3.7
	C5.6,3.6,5.6,3.6,5.6,3.5c0,0,0,0,0,0l0,0.1C5.7,3.6,5.7,3.6,5.7,3.7C5.7,3.6,5.7,3.6,5.7,3.7C5.7,3.6,5.7,3.6,5.7,3.7L5.7,3.7z"/>
<path class="st4" d="M11.5,3.6c0,0.1,0.1,0.3-0.1,0.3c-0.1,0-0.1,0-0.2-0.1c0,0,0-0.1,0-0.1c0,0,0,0,0-0.1
	C11.4,3.6,11.5,3.6,11.5,3.6C11.5,3.6,11.5,3.6,11.5,3.6C11.5,3.6,11.5,3.6,11.5,3.6C11.5,3.6,11.5,3.6,11.5,3.6z"/>
<path d="M9.2,3.8c0,0.1,0,0.1,0,0.2C9,4.3,8.7,4.5,8.3,4.5c-0.2,0-0.5-0.1-0.7-0.2C7.5,4.2,7.5,4,7.6,4c0.1,0,0.2,0.1,0.3,0.1
	c0.4,0.2,0.9,0,1.1-0.4c0,0,0,0,0.1-0.1C9.1,3.6,9.2,3.7,9.2,3.8z"/>
<path class="st0" d="M13.8,3.7C13.8,3.7,13.8,3.7,13.8,3.7C13.8,3.7,13.8,3.7,13.8,3.7l0,0.1c0,0,0,0,0,0C13.4,3.9,13,4,12.5,4.1
	c0,0,0,0,0,0c0,0,0,0,0,0l0-0.1c0,0,0,0,0,0L13.8,3.7z"/>
<path class="st6" d="M11.9,4C11.9,4,11.9,4,11.9,4C11.8,4,11.8,4,11.9,4c-0.3,0.1-0.6,0.2-0.8,0.3c-0.3,0.1-0.7,0.1-0.9,0.2
	c0,0,0,0,0,0l0,0c0,0,0,0,0,0L11,4.2C11.2,4.1,11.6,4,11.9,4z"/>
<path class="st0" d="M12.6,4.3L13.8,4c0,0,0,0,0,0l0,0c0,0,0,0,0,0L12.6,4.3C12.6,4.4,12.6,4.4,12.6,4.3L12.6,4.3
	C12.6,4.3,12.6,4.3,12.6,4.3z"/>
<path d="M5.6,5.9L5.6,5.9c-0.1,0-0.2,0-0.2,0c0-0.1,0-0.2-0.1-0.2C5.3,5,5.2,4.6,5.2,4.4c0-0.1,0-0.3,0-0.3c0,0,0,0,0,0l0.3,1.1
	c0,0,0,0,0,0c0.1,0,0.2,0,0.3-0.1c0,0,0,0,0,0c-0.1,0-0.1,0.1-0.2,0.1c0,0,0,0,0,0c0,0.1,0,0.2,0,0.2c0,0,0,0,0,0l0.7-0.2
	c0,0,0,0,0,0l0,0c0,0,0,0,0,0L5.6,5.6c0,0,0,0,0,0L5.6,5.9z"/>
<path class="st0" d="M13.7,4.5C13.7,4.5,13.7,4.5,13.7,4.5l-1.1,0.2c0,0,0,0,0,0l0,0c0,0,0,0,0,0c0.4-0.1,0.7-0.2,1.1-0.3
	c0,0,0,0,0,0c0,0,0,0,0,0L13.7,4.5z"/>
<path class="st0" d="M13.6,4.7c-0.4,0.1-0.7,0.2-1.1,0.2c0,0,0,0,0,0l0,0c0,0,0,0,0,0c0,0,0.1,0,0.3-0.1c0.1,0,0.2-0.1,0.4-0.1
	C13.4,4.7,13.5,4.7,13.6,4.7C13.7,4.7,13.7,4.7,13.6,4.7C13.7,4.7,13.7,4.7,13.6,4.7C13.7,4.7,13.7,4.7,13.6,4.7z"/>
<path class="st3" d="M3.5,4.9l0,0.1c0,0,0,0.1,0,0.1c0.1,0.6,0.2,1.1,0.1,1.7c0,0.1,0,0.3-0.1,0.5L3.4,7.3c0,0,0,0,0,0
	C3.4,7.2,3.4,7,3.5,6.9c0.1-0.4,0.1-0.8,0.1-1.1c0-0.1,0-0.2,0-0.4c0,0,0,0,0,0c0,0,0,0,0,0c0,0,0-0.1,0-0.1c0,0,0-0.1,0-0.2
	C3.5,5.1,3.5,5,3.5,4.9z"/>
<path class="st0" d="M12.7,5.2c0.1,0,0.1-0.1,0.2-0.1C13.1,5.1,13.3,5,13.6,5c0,0,0,0,0,0l0,0c0,0,0,0,0,0L12.7,5.2
	C12.7,5.2,12.7,5.2,12.7,5.2C12.7,5.2,12.7,5.2,12.7,5.2z"/>
<path class="st5" d="M3.5,5.2C3.5,5.1,3.5,5.1,3.5,5.2C3.5,5.1,3.5,5.1,3.5,5.2z"/>
<path class="st2" d="M7.4,6.5C7.4,6.5,7.4,6.5,7.4,6.5C7.4,6.4,7.3,6.4,7.3,6.4c0,0,0,0,0,0l-0.1,0c0.4-0.1,0.7-0.2,1-0.3
	C8.4,6.1,8.6,6,8.9,5.9c0,0,0,0,0,0l0,0c0,0,0,0,0,0l-1,0.2c0,0,0,0,0-0.1c0,0,0,0,0,0c0,0,0,0-0.1,0c0,0,0.1,0,0.1,0
	C8.6,5.8,9.3,5.7,10,5.5c0.2-0.1,0.5-0.1,0.7-0.2c0.2,0,0.5-0.1,0.8-0.2c0.1,0,0.2,0,0.2-0.1c0,0,0,0,0,0c0,0,0,0,0,0l-0.1,0.1
	c0,0,0,0,0,0c-0.4,0.1-0.9,0.2-1.3,0.3c-0.1,0-0.2,0.1-0.3,0.1c0,0,0,0,0,0c0,0,0.1,0,0.1,0c0.1,0,0.3,0,0.4-0.1
	c0.3-0.1,0.6-0.1,1-0.2c0,0,0,0,0,0l0,0c0,0,0,0-0.1,0.1c-0.2,0.1-0.5,0.1-0.7,0.2c-0.6,0.1-1.3,0.3-1.9,0.4
	C8.6,6.3,8.3,6.3,8.1,6.4C7.9,6.4,7.6,6.5,7.4,6.5z"/>
<ellipse transform="matrix(0.9659 -0.2588 0.2588 0.9659 -1.3896 1.0324)" class="st8" cx="3.2" cy="5.8" rx="0" ry="0"/>
<path class="st5" d="M5.2,6.2L5,6.7c0,0,0,0,0,0c0,0,0,0,0,0l0.4-0.1l0.1,0c0,0,0,0,0,0c0,0,0,0,0,0.1c-0.2,0-0.4,0.1-0.7,0.2
	c0,0-0.1,0-0.1,0.1l0,0.1c0,0,0,0,0,0l0.9-0.2c0,0,0.1,0,0.1,0c0,0,0.1,0,0.1,0.1C5.4,7,5,7.1,4.8,7.2C4.6,7.2,4.4,7.3,4.1,7.4
	c0,0,0,0,0,0C4.4,7,4.7,6.6,4.9,6.2C5,6.2,5,6.1,5,6.1c0,0,0,0,0-0.1C5,6,5,6,5,5.9c0,0,0,0,0,0c0,0,0,0,0,0c0,0,0,0,0,0
	c0,0,0,0,0,0.1c0,0,0,0,0,0C5.1,6.1,5.2,6.1,5.2,6.2C5.2,6.1,5.2,6.1,5.2,6.2C5.2,6.1,5.2,6.1,5.2,6.2z"/>
<path d="M7.2,6.5L5.7,6.8L4.9,7.1c0,0,0,0,0,0l0-0.1c0,0,0,0,0.1-0.1c0.2-0.1,0.4-0.1,0.7-0.2l2.2-0.5l1-0.2c0,0,0,0,0,0l0,0
	c0,0,0,0,0,0C8.6,6,8.4,6.1,8.2,6.2C7.9,6.2,7.6,6.3,7.2,6.5z"/>
<ellipse transform="matrix(0.1149 -0.9934 0.9934 0.1149 -3.1922 8.3897)" class="st2" cx="3.1" cy="6" rx="0" ry="0"/>
<ellipse transform="matrix(0.9991 -4.187568e-02 4.187568e-02 0.9991 -0.2514 0.1411)" class="st0" cx="3.2" cy="6.1" rx="0" ry="0"/>
<path class="st3" d="M7.8,6C7.8,6,7.8,6.1,7.8,6C7.8,6.1,7.8,6.1,7.8,6c0.1,0.1,0.1,0.1,0.1,0.1L5.6,6.7c0,0,0,0,0-0.1c0,0,0,0,0,0
	l-0.1,0c0.1,0,0.1,0,0.2,0c0.3-0.1,0.6-0.2,0.8-0.2C6.9,6.3,7.3,6.1,7.8,6z"/>
<ellipse transform="matrix(7.497878e-02 -0.9972 0.9972 7.497878e-02 -3.3073 8.8516)" class="st8" cx="3.1" cy="6.2" rx="0" ry="0"/>
<ellipse transform="matrix(0.9836 -0.1805 0.1805 0.9836 -1.0883 0.691)" class="st0" cx="3.3" cy="6.3" rx="0" ry="0.1"/>
<ellipse transform="matrix(0.1201 -0.9928 0.9928 0.1201 -3.6628 8.7364)" class="st8" cx="3.1" cy="6.4" rx="0" ry="0"/>
<path class="st4" d="M7.4,6.5L5.9,6.9c0-0.1,0-0.1-0.1-0.1c0,0-0.1,0-0.1,0l1.4-0.4l0.1,0c0,0,0,0,0,0C7.3,6.4,7.4,6.4,7.4,6.5
	C7.4,6.5,7.4,6.5,7.4,6.5z"/>
<path class="st9" d="M9.2,7c0,0-0.1,0-0.1,0c0,0,0,0,0,0L8.9,6.5c0,0,0,0,0,0l0.1,0c0,0,0,0,0,0L9.2,7z"/>
<path class="st9" d="M8.9,7L8,7.2c0,0,0,0,0,0C8,7.5,8,7.7,8.1,8c0.1,0.4,0.2,0.8,0.2,1.2c0,0.1,0,0.2,0,0.3c0,0,0,0,0,0
	c0-0.1-0.1-0.2-0.1-0.3c0,0,0,0,0,0c0,0,0,0,0,0c0,0.1,0,0.2,0,0.3c0.1,0.6,0.2,1.3,0.3,1.9c0.2,0.9,0.3,1.9,0.5,2.8l0.2,1.1L9,15.3
	c0,0,0,0,0-0.1c-0.1-0.4-0.1-0.8-0.2-1.1c-0.2-1-0.4-2-0.6-2.9c0-0.1-0.1-0.3-0.1-0.6C8,10.4,7.9,10.1,7.9,9.8c0,0,0,0,0-0.1
	c0,0,0,0,0,0c0,0,0,0,0,0c0,0,0,0,0,0c0,0,0,0.1,0,0.1c0,0.3,0.1,0.5,0.1,0.8c0,0.1,0,0.2,0,0.3c0,0.1,0,0.2,0,0.3
	c0.2,0.9,0.3,1.8,0.5,2.8c0.1,0.4,0.2,0.9,0.3,1.3c0,0,0,0,0,0c0,0,0,0,0,0c0,0,0,0,0,0l-0.2,0c0-0.1-0.1-0.2-0.1-0.4
	c0,0,0-0.1,0-0.1c0,0,0-0.1,0-0.1c0,0,0-0.1,0-0.1c0,0-0.1-0.1,0-0.2c0,0,0-0.1,0-0.1c0,0,0,0,0,0c-0.1-0.1,0-0.2-0.1-0.3
	c0-0.1,0-0.1,0-0.2c0,0,0,0,0-0.1l-0.1-0.1c0,0,0-0.1,0-0.1c0,0,0-0.1,0-0.1c0,0,0,0,0,0c-0.1-0.1,0-0.2,0-0.3c0,0,0-0.1-0.1-0.1
	c0,0,0,0,0,0c0-0.1,0-0.1,0-0.2c-0.1-0.1,0.1-0.2,0-0.3c0,0-0.1-0.1,0-0.1c0,0,0,0,0-0.1c0,0,0,0,0,0c-0.1-0.1-0.1-0.1-0.1-0.2
	c0-0.1-0.1-0.1-0.1-0.2c0,0,0-0.1,0-0.1c0,0,0,0,0,0C8,12,8,12,8,11.9c0,0,0,0,0,0c0,0,0-0.1,0-0.1c-0.1-0.1,0-0.1,0-0.2
	c0,0,0,0,0-0.1c0,0-0.1-0.1,0-0.1c0,0,0,0,0,0c0,0,0-0.1,0-0.1c0,0,0,0,0-0.1c0,0,0,0,0,0c0,0,0-0.1,0-0.1c0,0,0,0,0,0
	c-0.1,0-0.1-0.1,0-0.2c0,0,0,0,0,0c0,0,0,0,0,0c-0.1,0-0.1-0.1,0-0.2c0,0,0,0,0,0c0,0,0-0.1-0.1-0.1c0,0,0,0,0,0c0,0,0.1-0.1,0-0.1
	c0,0-0.1,0-0.1-0.1c0-0.1,0-0.1,0-0.1c0,0,0,0,0,0L7.7,10c0,0,0,0,0-0.1c0,0,0.1-0.1,0-0.2c0,0,0,0,0,0c0-0.1,0-0.1,0-0.1
	c0,0,0,0,0,0C7.7,9.5,7.6,9.4,7.7,9.4c0.1-0.1-0.1-0.1-0.1-0.2c0,0,0,0,0,0c0,0,0-0.1,0-0.1c0,0,0,0,0,0l0,0c0,0,0,0,0,0
	c0,0,0-0.1,0-0.1c0,0,0-0.1,0-0.1c0,0-0.1-0.1,0-0.2c0,0,0,0,0,0c0,0,0-0.1,0-0.1c0,0,0-0.1,0-0.1c0,0,0-0.1,0-0.2
	c0-0.3-0.1-0.7-0.2-1.2c0,0,0,0,0,0l0.1-0.1c0,0,0,0,0,0c0,0,0,0.1,0,0.1c0.1,0.4,0.2,0.9,0.3,1.3c0,0.2,0.1,0.6,0.2,0.8
	c0,0,0,0.1,0,0.1c0,0,0,0,0,0c0,0,0-0.1,0.1-0.1c0,0,0,0,0,0c0-0.1,0-0.2,0-0.3C8,8.5,7.9,8.2,7.9,8C7.8,7.6,7.8,7.2,7.7,6.8
	c0,0,0,0,0,0C8,6.6,8.4,6.6,8.7,6.5c0,0,0,0,0,0L8.9,7z"/>
<ellipse transform="matrix(0.9996 -2.792161e-02 2.792161e-02 0.9996 -0.1821 9.312846e-02)" class="st0" cx="3.2" cy="6.6" rx="0" ry="0"/>
<ellipse transform="matrix(0.1719 -0.9851 0.9851 0.1719 -4.0076 8.5445)" class="st2" cx="3.1" cy="6.7" rx="0" ry="0"/>
<ellipse transform="matrix(0.1478 -0.989 0.989 0.1478 -3.9837 8.9953)" class="st3" cx="3.2" cy="6.8" rx="0.1" ry="0"/>
<ellipse transform="matrix(0.9914 -0.1305 0.1305 0.9914 -0.8708 0.4561)" class="st0" cx="3" cy="6.9" rx="0" ry="0"/>
<path class="st10" d="M8.9,7C8.9,7.2,9,7.5,9.1,7.7c0,0,0,0,0,0c0,0,0,0,0,0c0.1,0.3,0.2,0.6,0.2,0.8c0.2,1,0.4,1.9,0.6,2.8
	c0.1,0.4,0.2,0.8,0.3,1.2c0.1,0.3,0.1,0.6,0.2,0.9c0,0,0,0.1,0,0.1c-0.1-0.1-0.1-0.1-0.2,0c0,0,0,0,0,0c0,0,0,0-0.1,0c0,0,0,0,0,0
	l0,0c0,0,0,0,0,0c0,0-0.1,0-0.1,0c0,0,0,0,0,0c0,0,0,0,0,0l0,0c0,0,0,0,0,0c0,0,0,0,0,0c0,0,0,0,0,0L9.9,13c0,0,0,0,0,0h0
	c0,0,0,0,0,0l0.1,0.7c0,0,0,0,0,0c0,0,0,0,0,0c0,0,0,0,0,0c0,0,0,0,0,0c0,0,0,0,0,0c0,0,0,0,0,0c0,0,0,0,0,0c-0.1,0-0.1,0-0.2,0
	c0,0,0,0,0,0l-0.2,0c0,0,0,0,0,0c0,0,0,0,0,0c0,0,0,0,0,0c0,0,0,0,0,0c-0.1-0.4-0.1-0.6-0.2-0.8c-0.1-0.3-0.2-0.6-0.2-0.9
	c0,0,0,0,0,0h0c0,0,0,0,0,0c0,0.3,0.1,0.5,0.1,0.8c0.1,0.3,0.1,0.6,0.2,0.9c0,0.2,0.1,0.3,0.1,0.5l0,0c0,0,0,0,0,0l0,0c0,0,0,0,0,0
	l-0.3,0c0,0,0,0,0,0c0,0,0,0,0,0c0,0,0,0,0,0c0,0,0,0,0,0c-0.2-0.9-0.4-1.9-0.5-2.8c-0.1-0.6-0.2-1.3-0.3-1.9c0-0.1,0-0.2,0-0.3
	c0,0,0,0,0,0c0,0,0,0,0,0c0,0.1,0.1,0.2,0.1,0.3c0,0,0,0,0,0c0-0.1,0-0.2,0-0.3C8.2,8.8,8.2,8.4,8.1,8C8,7.7,8,7.5,8,7.2
	c0,0,0,0,0,0L8.9,7z M9,10.6C8.9,10,8.8,9.5,8.6,8.8c-0.1-0.3-0.2-0.7-0.3-1c0,0,0,0,0,0l0,0c0,0,0,0,0,0c0,0.2,0.1,0.5,0.2,0.8
	C8.7,9.5,8.8,10,9,10.6C9,10.6,9,10.6,9,10.6L9,10.6C9,10.6,9,10.6,9,10.6z M9.4,9.3C9.4,9.3,9.4,9.2,9.4,9.3L9.4,9.3L9.4,9.3
	c-0.1-0.1-0.2,0-0.2,0v0l0,0C9.3,9.4,9.3,9.4,9.4,9.3L9.4,9.3L9.4,9.3C9.4,9.4,9.4,9.4,9.4,9.3L9.4,9.3L9.4,9.3z M8.5,10.5
	c0,0.3,0.1,0.5,0.1,0.8c0,0.1,0,0.2,0.1,0.3c0,0,0,0,0,0c0,0,0,0,0,0c0,0,0,0,0,0c0,0,0-0.1,0-0.1c0-0.1,0-0.2,0-0.3
	c0-0.3-0.1-0.6-0.2-0.9c0,0,0,0,0,0s0,0,0,0l0,0C8.5,10.4,8.5,10.4,8.5,10.5z"/>
<path class="st1" d="M9.2,7c0.2,0.8,0.4,1.5,0.5,2.3c0.4,1.9,0.9,3.7,1.3,5.6c0,0,0,0,0,0L10.7,15c0,0,0-0.1-0.1-0.1l0.1,0
	c0,0,0,0,0,0c0,0,0,0,0,0l-0.3-1.4c0,0,0-0.1,0-0.1c-0.1-0.3-0.1-0.6-0.2-0.9c-0.1-0.4-0.2-0.8-0.3-1.2c-0.2-0.9-0.4-1.9-0.6-2.8
	c0-0.2-0.1-0.6-0.2-0.8L9,7c0,0,0,0,0,0C9.1,7,9.1,7,9.2,7z"/>
<ellipse transform="matrix(0.9986 -5.233596e-02 5.233596e-02 0.9986 -0.3638 0.1771)" class="st3" cx="3.2" cy="7" rx="0" ry="0.1"/>
<circle class="st9" cx="7.2" cy="7.5" r="0"/>
<ellipse transform="matrix(0.9219 -0.3875 0.3875 0.9219 -2.4403 3.394)" class="st9" cx="7.2" cy="7.7" rx="0" ry="0"/>
<ellipse transform="matrix(0.866 -0.5 0.5 0.866 -2.9615 4.5434)" class="st9" cx="7" cy="7.8" rx="0" ry="0"/>
<path d="M9,10.6C9,10.6,9,10.6,9,10.6L9,10.6C9,10.6,9,10.6,9,10.6c-0.1-0.6-0.3-1.1-0.5-2C8.4,8.3,8.4,8,8.3,7.8c0,0,0,0,0,0l0,0
	c0,0,0,0,0,0c0.1,0.3,0.2,0.7,0.3,1C8.8,9.5,8.9,10,9,10.6z"/>
<circle class="st9" cx="7.2" cy="8" r="0"/>
<ellipse transform="matrix(0.9694 -0.2453 0.2453 0.9694 -1.7942 2.034)" class="st9" cx="7.3" cy="8.2" rx="0" ry="0"/>
<path class="st9" d="M7.3,8.5C7.3,8.5,7.3,8.5,7.3,8.5L7.3,8.5C7.3,8.5,7.3,8.5,7.3,8.5L7.3,8.5C7.3,8.4,7.3,8.4,7.3,8.5L7.3,8.5
	C7.3,8.4,7.3,8.4,7.3,8.5C7.3,8.4,7.3,8.4,7.3,8.5L7.3,8.5z"/>
<ellipse transform="matrix(0.9085 -0.4179 0.4179 0.9085 -2.8996 3.7401)" class="st9" cx="7.1" cy="8.5" rx="0" ry="0"/>
<circle class="st9" cx="7.3" cy="8.7" r="0"/>
<ellipse transform="matrix(0.9962 -8.715574e-02 8.715574e-02 0.9962 -0.7353 0.6547)" class="st9" cx="7.1" cy="8.7" rx="0" ry="0"/>
<ellipse transform="matrix(0.9659 -0.2588 0.2588 0.9659 -2.0647 2.2148)" class="st9" cx="7.4" cy="8.9" rx="0" ry="0.1"/>
<ellipse transform="matrix(0.9751 -0.2215 0.2215 0.9751 -1.8139 1.809)" class="st9" cx="7.2" cy="9" rx="0" ry="0"/>
<ellipse transform="matrix(0.9659 -0.2588 0.2588 0.9659 -2.1293 2.2324)" class="st9" cx="7.4" cy="9.2" rx="0" ry="0.1"/>
<ellipse transform="matrix(0.9874 -0.1582 0.1582 0.9874 -1.3707 1.2552)" class="st9" cx="7.2" cy="9.2" rx="0" ry="0"/>
<path class="st1" d="M9.3,9.2L9.3,9.2C9.4,9.2,9.4,9.3,9.3,9.2L9.3,9.2c0.1,0.1,0.1,0.2,0,0.2l0,0C9.3,9.4,9.3,9.4,9.3,9.2L9.3,9.2
	C9.3,9.3,9.3,9.2,9.3,9.2z"/>
<ellipse transform="matrix(0.9171 -0.3987 0.3987 0.9171 -3.1535 3.7543)" class="st9" cx="7.4" cy="9.5" rx="0" ry="0.1"/>
<ellipse transform="matrix(0.9994 -3.489950e-02 3.489950e-02 0.9994 -0.3268 0.2581)" class="st9" cx="7.2" cy="9.5" rx="0" ry="0"/>
<path class="st9" d="M7.5,9.7L7.5,9.7C7.5,9.7,7.5,9.8,7.5,9.7C7.5,9.8,7.5,9.8,7.5,9.7L7.5,9.7C7.5,9.8,7.4,9.7,7.5,9.7L7.5,9.7
	C7.5,9.7,7.5,9.7,7.5,9.7C7.5,9.7,7.5,9.7,7.5,9.7L7.5,9.7C7.5,9.7,7.5,9.7,7.5,9.7z"/>
<path d="M9,15.3l-0.1,0c0,0,0,0,0,0c-0.1-0.4-0.2-0.9-0.3-1.3c-0.2-0.9-0.3-1.8-0.5-2.8c0-0.1,0-0.2,0-0.3c0-0.1,0-0.2,0-0.3
	c0-0.3-0.1-0.5-0.1-0.8c0,0,0-0.1,0-0.1c0,0,0,0,0,0c0,0,0,0,0,0l0,0c0,0,0,0,0,0.1c0.1,0.3,0.1,0.6,0.2,0.9
	c0.1,0.3,0.1,0.5,0.1,0.6c0.2,0.9,0.4,1.9,0.6,2.9C8.9,14.5,8.9,14.9,9,15.3C9,15.3,9,15.3,9,15.3z"/>
<circle class="st9" cx="7.3" cy="9.8" r="0"/>
<ellipse transform="matrix(0.7083 -0.7059 0.7059 0.7083 -4.847 8.2178)" class="st9" cx="7.5" cy="10" rx="0" ry="0.1"/>
<ellipse transform="matrix(0.9736 -0.2284 0.2284 0.9736 -2.0934 1.932)" class="st9" cx="7.3" cy="10" rx="0" ry="0"/>
<ellipse transform="matrix(1.745302e-03 -1 1 1.745302e-03 -2.6774 17.7784)" class="st9" cx="7.6" cy="10.2" rx="0.1" ry="0"/>
<ellipse transform="matrix(0.7181 -0.6959 0.6959 0.7181 -5.0776 8.0046)" class="st9" cx="7.3" cy="10.3" rx="0" ry="0"/>
<path d="M8.5,10.5c0,0,0-0.1,0-0.2c0,0,0,0,0,0s0,0,0,0c0.1,0.3,0.1,0.6,0.2,0.9c0,0.2,0,0.3,0,0.3c0,0,0,0,0,0.1c0,0,0,0,0,0
	c0,0,0,0,0,0c0,0,0,0,0,0c0-0.1,0-0.2-0.1-0.3C8.6,11,8.5,10.8,8.5,10.5z"/>
<ellipse transform="matrix(0.9999 -1.570734e-02 1.570734e-02 0.9999 -0.1638 0.1207)" class="st9" cx="7.6" cy="10.5" rx="0" ry="0.1"/>
<ellipse transform="matrix(0.2957 -0.9553 0.9553 0.2957 -4.8576 14.4623)" class="st9" cx="7.4" cy="10.5" rx="0" ry="0"/>
<circle class="st9" cx="7.6" cy="10.7" r="0"/>
<circle class="st9" cx="7.4" cy="10.8" r="0"/>
<ellipse transform="matrix(0.9703 -0.2419 0.2419 0.9703 -2.4324 2.183)" class="st9" cx="7.7" cy="11" rx="0" ry="0.1"/>
<ellipse transform="matrix(0.8829 -0.4695 0.4695 0.8829 -4.3139 4.7935)" class="st9" cx="7.5" cy="11" rx="0" ry="0"/>
<ellipse transform="matrix(0.891 -0.454 0.454 0.891 -4.2708 4.7277)" class="st9" cx="7.7" cy="11.3" rx="0" ry="0.1"/>
<ellipse transform="matrix(0.9516 -0.3074 0.3074 0.9516 -3.1056 2.8486)" class="st9" cx="7.5" cy="11.3" rx="0" ry="0"/>
<path class="st9" d="M7.7,11.5C7.7,11.5,7.7,11.4,7.7,11.5C7.8,11.4,7.8,11.4,7.7,11.5C7.8,11.4,7.8,11.4,7.7,11.5
	C7.8,11.5,7.8,11.5,7.7,11.5C7.8,11.5,7.8,11.5,7.7,11.5C7.7,11.5,7.7,11.5,7.7,11.5C7.7,11.5,7.7,11.5,7.7,11.5z"/>
<circle class="st9" cx="7.5" cy="11.5" r="0"/>
<ellipse transform="matrix(0.1547 -0.988 0.988 0.1547 -5.0122 17.6082)" class="st9" cx="7.8" cy="11.7" rx="0.1" ry="0"/>
<ellipse transform="matrix(0.2672 -0.9636 0.9636 0.2672 -5.7917 15.9159)" class="st9" cx="7.6" cy="11.8" rx="0" ry="0"/>
<path class="st9" d="M7.9,12C7.8,12,7.8,12,7.9,12C7.8,12,7.8,12,7.9,12L7.9,12C7.8,12,7.8,12,7.9,12L7.9,12C7.8,12,7.8,11.9,7.9,12
	C7.8,11.9,7.8,11.9,7.9,12L7.9,12C7.8,11.9,7.9,11.9,7.9,12C7.9,11.9,7.9,11.9,7.9,12L7.9,12z"/>
<path d="M9.5,13.6c0.1,0.4,0.2,0.9,0.2,1.3c0,0,0,0.1,0,0.1c0,0,0,0,0,0c0,0,0,0,0,0c-0.1-0.3-0.1-0.6-0.2-0.9
	C9.5,14,9.4,13.9,9.5,13.6c-0.2-0.3-0.2-0.6-0.3-0.9c-0.1-0.3-0.1-0.5-0.1-0.8c0,0,0,0,0,0h0c0,0,0,0,0,0c0.1,0.3,0.1,0.6,0.2,0.9
	C9.4,13,9.4,13.3,9.5,13.6z"/>
<ellipse transform="matrix(0.9516 -0.3074 0.3074 0.9516 -3.3253 2.9213)" class="st9" cx="7.6" cy="12" rx="0" ry="0"/>
<circle class="st9" cx="7.9" cy="12.2" r="0"/>
<ellipse transform="matrix(0.9836 -0.1805 0.1805 0.9836 -2.0918 1.5816)" class="st9" cx="7.6" cy="12.3" rx="0" ry="0"/>
<ellipse transform="matrix(0.9945 -0.1045 0.1045 0.9945 -1.2633 0.8952)" class="st9" cx="7.9" cy="12.5" rx="0" ry="0.1"/>
<ellipse transform="matrix(3.838776e-02 -0.9993 0.9993 3.838776e-02 -5.1441 19.7399)" class="st9" cx="7.7" cy="12.5" rx="0" ry="0"/>
<ellipse transform="matrix(0.989 -0.1478 0.1478 0.989 -1.7988 1.3143)" class="st9" cx="7.9" cy="12.8" rx="0" ry="0.1"/>
<path class="st9" d="M7.7,12.8L7.7,12.8C7.7,12.8,7.7,12.8,7.7,12.8C7.7,12.8,7.7,12.8,7.7,12.8C7.7,12.8,7.7,12.8,7.7,12.8
	C7.7,12.8,7.7,12.8,7.7,12.8C7.7,12.8,7.7,12.8,7.7,12.8C7.7,12.8,7.7,12.8,7.7,12.8C7.7,12.8,7.7,12.8,7.7,12.8z"/>
<ellipse transform="matrix(0.9954 -9.584575e-02 9.584575e-02 0.9954 -1.2119 0.8248)" class="st9" cx="8" cy="13" rx="0" ry="0.1"/>
<path d="M10,13.6c0,0.2,0.1,0.5,0.1,0.7c0,0,0,0,0,0h0c0,0,0,0,0,0L10,13.6L9.9,13c0,0,0,0,0,0h0c0,0,0,0,0,0L10,13.6z"/>
<ellipse transform="matrix(0.5534 -0.8329 0.8329 0.5534 -7.4311 12.3113)" class="st9" cx="7.8" cy="13.1" rx="0" ry="0"/>
<ellipse transform="matrix(0.9823 -0.1874 0.1874 0.9823 -2.3505 1.7386)" class="st9" cx="8" cy="13.3" rx="0" ry="0.1"/>
<circle class="st9" cx="7.8" cy="13.3" r="0"/>
<path class="st11" d="M10.5,13.5l0.3,1.4c0,0,0,0,0,0c0,0,0,0,0,0l-0.1,0l-0.1,0c-0.1-0.3-0.1-0.6-0.2-0.9c0,0,0,0,0,0h0
	c0,0,0,0,0,0c0,0.1,0,0.2,0.1,0.3c0,0.2,0.1,0.4,0.1,0.7c0,0-0.1,0-0.1,0c-0.1,0-0.3,0.1-0.4,0.1c-0.1,0-0.2,0.1-0.4,0.1
	c-0.1,0-0.2,0.1-0.4,0.1l-0.2-1.1c0,0,0,0,0,0c0,0,0,0,0,0c0,0,0,0,0,0c0,0,0,0,0,0l0.3,0c0,0,0,0,0,0l0,0c0,0,0,0,0,0l0,0
	c0.1,0.3,0.1,0.6,0.2,0.9c0,0,0,0,0,0c0,0,0,0,0,0c0,0,0-0.1,0-0.1c-0.1-0.4-0.2-0.9-0.2-1.3c0,0,0,0,0,0c0,0,0,0,0,0c0,0,0,0,0,0
	c0,0,0,0,0,0l0.2,0c0,0,0,0,0,0c0.1,0,0.1,0,0.2,0c0,0,0,0,0,0c0,0,0,0,0,0c0,0,0,0,0,0c0,0,0,0,0,0c0,0,0,0,0,0c0,0,0,0,0,0
	c0,0,0,0,0,0l0.1,0.6c0,0,0,0,0,0h0c0,0,0,0,0,0c0-0.2-0.1-0.5-0.1-0.7c0,0,0,0,0,0c0,0,0,0,0,0c0,0,0,0,0,0l0,0c0,0,0,0,0,0
	c0,0,0,0,0,0c0,0,0.1,0,0.1,0c0,0,0,0,0,0l0,0c0,0,0,0,0,0c0,0,0,0,0.1,0c0,0,0,0,0,0C10.4,13.5,10.4,13.5,10.5,13.5z"/>
<ellipse transform="matrix(0.9568 -0.2907 0.2907 0.9568 -3.5951 2.9307)" class="st9" cx="8.1" cy="13.6" rx="0" ry="0.1"/>
<circle class="st9" cx="7.8" cy="13.6" r="0"/>
<ellipse transform="matrix(0.9455 -0.3256 0.3256 0.9455 -4.0589 3.3933)" class="st9" cx="8.1" cy="13.8" rx="0" ry="0.1"/>
<circle class="st9" cx="7.9" cy="13.9" r="0"/>
<path d="M10.5,14.9l0,0.1c0,0,0,0,0,0l0,0c0,0,0,0,0,0L10.5,14.9c-0.1-0.2-0.1-0.5-0.2-0.6c0-0.1,0-0.2-0.1-0.3c0,0,0,0,0,0h0
	c0,0,0,0,0,0C10.4,14.3,10.5,14.6,10.5,14.9z"/>
<ellipse transform="matrix(0.9583 -0.2857 0.2857 0.9583 -3.6837 2.916)" class="st9" cx="8.2" cy="14.1" rx="0" ry="0.1"/>
<ellipse transform="matrix(0.8499 -0.527 0.527 0.8499 -6.256 6.2941)" class="st9" cx="7.9" cy="14.1" rx="0" ry="0"/>
<path class="st9" d="M8.2,14.4C8.2,14.4,8.2,14.4,8.2,14.4L8.2,14.4C8.2,14.4,8.1,14.4,8.2,14.4L8.2,14.4
	C8.1,14.3,8.2,14.3,8.2,14.4L8.2,14.4C8.2,14.3,8.2,14.3,8.2,14.4L8.2,14.4z"/>
<ellipse transform="matrix(0.9996 -2.966624e-02 2.966624e-02 0.9996 -0.4233 0.2426)" class="st9" cx="8" cy="14.4" rx="0" ry="0"/>
<ellipse transform="matrix(0.7771 -0.6293 0.6293 0.7771 -7.3553 8.4426)" class="st9" cx="8.2" cy="14.6" rx="0" ry="0"/>
<circle class="st9" cx="8.3" cy="14.8" r="0"/>
<path class="st10" d="M10.7,14.9c0,0,0,0.1,0.1,0.1c-0.1,0.1-0.2,0.1-0.3,0.1c-0.9,0.4-1.9,0.5-2.9,0.4c-0.1,0-0.1,0,0,0
	c0.3,0,0.7-0.1,1-0.2l0.2,0c0,0,0,0,0,0c0,0,0,0,0,0l0.1,0l0.3-0.1c0.1,0,0.2-0.1,0.4-0.1c0.1,0,0.3-0.1,0.4-0.1
	c0.1,0,0.3-0.1,0.4-0.1c0,0,0,0,0.1,0l0,0.1c0,0,0,0,0,0l0,0c0,0,0,0,0,0l0-0.1L10.7,14.9z"/>
<ellipse transform="matrix(0.6129 -0.7902 0.7902 0.6129 -8.6872 12.402)" class="st9" cx="8.3" cy="15.1" rx="0" ry="0"/>
</svg>
