<?xml version="1.0" encoding="utf-8"?>
<!-- Generator: Adobe Illustrator 24.0.3, SVG Export Plug-In . SVG Version: 6.00 Build 0)  -->
<svg version="1.1" id="Capa_1" xmlns="http://www.w3.org/2000/svg" xmlns:xlink="http://www.w3.org/1999/xlink" x="0px" y="0px"
	 viewBox="0 0 16 16" style="enable-background:new 0 0 16 16;" xml:space="preserve">
<style type="text/css">
	.st0{fill:#3FA9F5;}
	.st1{fill:#FF731E;}
</style>
<g>
	<path class="st0" d="M6.7,0.2V0H0v6.7h0.5C1.1,3.5,3.5,0.9,6.7,0.2z"/>
	<path class="st0" d="M3.6,6.7h3.1V3.3C5.2,3.9,4,5.1,3.6,6.7z"/>
	<path class="st1" d="M16,6.7V0H9.3v0.1c2.7,0.3,5.1,2,6.3,4.4l-2.7,1.3c-0.7-1.4-2-2.4-3.6-2.7v3.6H16z"/>
	<path class="st0" d="M12.9,10.2l2.7,1.3c-1.2,2.4-3.5,4.1-6.3,4.4V16H16V9.3H9.3v3.6C10.9,12.6,12.2,11.6,12.9,10.2z"/>
	<path class="st1" d="M6.7,12.7V9.3H3.6C4,10.9,5.2,12.1,6.7,12.7z"/>
	<path class="st1" d="M0.5,9.3H0V16h6.7v-0.2C3.5,15.1,1.1,12.5,0.5,9.3z"/>
</g>
</svg>
