<?xml version="1.0" encoding="utf-8"?>
<!-- Generator: Adobe Illustrator 24.0.3, SVG Export Plug-In . SVG Version: 6.00 Build 0)  -->
<svg version="1.1" id="Capa_1" xmlns="http://www.w3.org/2000/svg" xmlns:xlink="http://www.w3.org/1999/xlink" x="0px" y="0px"
	 viewBox="0 0 16 16" style="enable-background:new 0 0 16 16;" xml:space="preserve">
<style type="text/css">
	.st0{fill:#3FA9F5;}
	.st1{fill:#926DCC;}
</style>
<g>
	<path class="st0" d="M5.3,8c0,0.9,0.2,1.8,0.6,2.6c0.7,1.1,2,1.6,3.2,1.2c0.8-0.2,1.5-1,1.6-1.8c0.1-0.3,0.1-0.3,0.1-0.3
		c0.9,0.1,2.3,0.3,3.2,0.5l-0.1,0.2c-0.2,1-0.7,2-1.4,2.7c-0.7,0.7-1.7,1.2-2.7,1.4c-1.4,0.3-2.9,0.1-4.2-0.4
		c-1.4-0.6-2.5-1.7-2.9-3.2C1.9,9,1.9,7,2.7,5.1c0.7-2,2.5-3.4,4.5-3.6c1.1-0.2,2.3-0.1,3.4,0.3c1.6,0.5,2.7,1.9,3.1,3.5
		c0,0.2,0.1,0.2,0.1,0.2c-1,0.2-2.2,0.4-3.2,0.6c-0.2-1-0.6-1.7-1.6-2C7.6,3.7,6.1,4.5,5.6,5.9c0,0,0,0,0,0.1
		C5.5,6.2,5.5,6.4,5.4,6.7C5.3,7.1,5.3,7.5,5.3,8z"/>
	<polygon class="st1" points="0,16 0,0 3.4,0 3.4,1.3 1.6,1.3 1.6,14.7 3.4,14.7 3.4,16 	"/>
	<polygon class="st1" points="16,16 12.6,16 12.6,14.7 14.4,14.7 14.4,1.3 12.6,1.3 12.6,0 16,0 	"/>
</g>
</svg>
