<?xml version="1.0" encoding="utf-8"?>
<!-- Generator: Adobe Illustrator 24.0.3, SVG Export Plug-In . SVG Version: 6.00 Build 0)  -->
<svg version="1.1" id="Capa_1" xmlns="http://www.w3.org/2000/svg" xmlns:xlink="http://www.w3.org/1999/xlink" x="0px" y="0px"
	 viewBox="0 0 16 16" style="enable-background:new 0 0 16 16;" xml:space="preserve">
<style type="text/css">
	.st0{fill:#3FA9F5;}
	.st1{fill:#FF731E;}
	.st2{fill:#926DCC;}
</style>
<g>
	<path class="st0" d="M10,13c-0.9,0.4-1.9,0.6-2.9,0.6c-1.4,0.1-2.7-0.5-3.7-1.5C2.4,11.1,1.9,9.7,2,8.2C1.9,6.7,2.5,5.2,3.5,4
		c1-1.1,2.5-1.7,3.9-1.6c0.9,0,1.7,0.1,2.5,0.4v2.4C9.3,4.7,8.5,4.5,7.7,4.5c-0.9,0-1.7,0.3-2.3,1C4.7,6.2,4.4,7.1,4.4,8.1
		c0,0.9,0.3,1.8,0.8,2.5c0.6,0.6,1.4,1,2.3,0.9c0.9,0,1.7-0.2,2.5-0.7V13z"/>
	<polygon class="st1" points="8.3,7.5 8.3,6.4 9.4,6.4 9.4,7.5 10.4,7.5 10.4,8.5 9.4,8.5 9.4,9.6 8.3,9.6 8.3,8.5 7.3,8.5 7.3,7.5 
			"/>
	<polygon class="st1" points="12,7.5 12,6.4 13.1,6.4 13.1,7.5 14.1,7.5 14.1,8.5 13.1,8.5 13.1,9.6 12,9.6 12,8.5 11,8.5 11,7.5 	
		"/>
	<polygon class="st2" points="0,16 0,0 3.4,0 3.4,1.3 1.6,1.3 1.6,14.7 3.4,14.7 3.4,16 	"/>
	<polygon class="st2" points="16,16 12.6,16 12.6,14.7 14.4,14.7 14.4,1.3 12.6,1.3 12.6,0 16,0 	"/>
</g>
</svg>
