<?xml version="1.0" encoding="utf-8"?>
<!-- Generator: Adobe Illustrator 24.0.3, SVG Export Plug-In . SVG Version: 6.00 Build 0)  -->
<svg version="1.1" id="Capa_1" xmlns="http://www.w3.org/2000/svg" xmlns:xlink="http://www.w3.org/1999/xlink" x="0px" y="0px"
	 viewBox="0 0 16 16" style="enable-background:new 0 0 16 16;" xml:space="preserve">
<style type="text/css">
	.st0{fill:#E74C3C;}
	.st1{fill:#ECF0F1;}
</style>
<g>
	<path class="st0" d="M14.2,0H1.8C0.8,0,0,0.8,0,1.8v12.4c0,1,0.8,1.8,1.8,1.8l0,0h12.4c1,0,1.8-0.8,1.8-1.8l0,0V1.8
		C16,0.8,15.2,0,14.2,0z"/>
	<path class="st1" d="M14.1,5.6h-0.2c-0.1,0.1-0.5,0.7-0.7,0.9C13.1,6.5,13,6.6,13,6.6c-0.6,0.8-2,2.1-2.8,2.7
		C10.1,9.4,10,9.5,9.9,9.5C9.9,9.6,9.3,10,9.1,10.1c-0.8,0.5-1.7,0.9-2.4,1.1c-1.4,0.3-2.5,0.3-3.9-0.4c-0.4-0.2-1-0.5-1.4-0.8
		c-0.3-0.3-0.3-0.3-0.3,0.2v0.4l0.2,0.1c0.3,0.2,0.9,0.5,1.3,0.7c0.3,0.2,0.4,0.3,0.2,0.3c-0.2-0.1-1-0.1-1.4,0H1.2c0,0,0,0.2,0,0.3
		v0.3h0.1c0.5-0.2,1.5-0.2,2-0.1c0.6,0.1,1,0.2,1.5,0.4c0.9,0.4,1.7,1.3,2,2.1L6.9,15h0.4h0.4l0-0.1c-0.1-0.5-0.5-1.1-0.9-1.5
		c-0.3-0.3-0.8-0.7-1-0.9H5.7c0-0.1-0.4-0.3-0.5-0.3c-0.1-0.1-0.1-0.1-0.1-0.1c0-0.1,0.1-0.1,0.1,0c0.2,0,0.9-0.1,1.2-0.2
		c0.9-0.2,1.8-0.5,2.7-1c0.3-0.2,1-0.8,1.3-0.9c0.2-0.3,0.3-0.3,0.2-0.2c0,0.1-0.1,0.2-0.1,0.3c0,0.1-0.1,0.2-0.2,0.3
		c-0.7,1-1.1,2.3-1.2,3.8c0,0.3,0,0.5,0,0.6V15h2h2L13,14.9c-0.4-0.5-0.8-1.6-1-2.4C12,11.9,11.9,11,12,10.5c0.2-1.4,1-2.6,2.3-3.3
		c0.1-0.1,0.3-0.2,0.4-0.3l0.1-0.1V6.5c0-0.2,0-0.3,0-0.3c-0.3,0.2-1,0.6-1.3,0.8c-0.2,0.2-0.2,0.2,0,0c0.2-0.3,0.6-0.7,1-1.2
		l0.2-0.2h-0.4H14.1z"/>
</g>
</svg>
