<?xml version="1.0" encoding="utf-8"?>
<!-- Generator: Adobe Illustrator 24.0.3, SVG Export Plug-In . SVG Version: 6.00 Build 0)  -->
<svg version="1.1" id="Capa_1" xmlns="http://www.w3.org/2000/svg" xmlns:xlink="http://www.w3.org/1999/xlink" x="0px" y="0px"
	 viewBox="0 0 16 16" style="enable-background:new 0 0 16 16;" xml:space="preserve">
<style type="text/css">
	.st0{fill:#926DCC;}
</style>
<path class="st0" d="M8.4,9.6C7.6,9.6,6,10.4,6,11.2c0,1.6,2.4,1.6,2.4,1.6V12c-0.4,0-0.8-0.4-0.8-0.8s0.4-0.8,0.8-0.8V9.6
	 M8.4,13.6c0,0-3.2-0.4-3.2-2c0-2.4,2.4-3,3.2-3v-1c-0.8,0-4,1.2-4,3.6c0,3.2,4,3.2,4,3.2V13.6 M6.9,4l1,0.4c0.3-2,1.3-3.2,1.3-3.2
	C8.7,2,8.5,2.7,8.4,3.2c1-2,2.9-3.2,2.9-3.2c-0.9,0.9-1.6,2-2.1,2.8c1.3-1.3,3-2.2,3-2.2C10,2,9.1,4.2,8.8,4.8l0.4,0.1
	c0,0.4,0,0.8,0.2,1.1c0.6,1.5,3.7,1.6,3.7,5.3S10,16,8.3,16s-5.5-0.8-5.5-4.8s4-4.1,4.7-5.7C7.6,5.2,6.9,4,6.9,4z"/>
</svg>
