<?xml version="1.0" encoding="utf-8"?>
<!-- Generator: Adobe Illustrator 24.0.3, SVG Export Plug-In . SVG Version: 6.00 Build 0)  -->
<svg version="1.1" id="Capa_1" xmlns="http://www.w3.org/2000/svg" xmlns:xlink="http://www.w3.org/1999/xlink" x="0px" y="0px"
	 viewBox="0 0 16 16" style="enable-background:new 0 0 16 16;" xml:space="preserve">
<style type="text/css">
	.st0{fill:#1A1A1A;}
	.st1{fill:#7AC943;}
	.st2{fill:#3FA9F5;}
	.st3{fill:#FF7BAC;}
	.st4{fill:#0000FF;}
	.st5{fill:#F4FF1F;}
	.st6{fill:#F2F2F2;}
	.st7{fill:#FF3366;}
</style>
<g>
	<g>
		<path d="M5.9,13.1c-1.1,0.9-2.8,0.8-3.7-0.4C1.4,11.5,1.8,9.9,3,9.1c1.1-0.9,2.8-0.8,3.7,0.3C7.5,10.7,7.1,12.3,5.9,13.1z"/>
		<path d="M4.2,13.7c-0.1,0-0.2,0-0.3,0c-1.3-0.1-2.3-1.2-2.2-2.5c0-0.1,0-0.3,0.1-0.4c0.4-1.5,1.8-2.5,3.4-2.3
			c1.3,0.2,2.2,1.3,2,2.6c0,0.1,0,0.2,0,0.2c-0.2,0.7-0.6,1.3-1.2,1.8l0,0C5.4,13.5,4.8,13.7,4.2,13.7z M4.8,8.5
			C4.1,8.5,3.5,8.8,3,9.1c-0.6,0.4-1,1-1.1,1.7c-0.3,1.2,0.4,2.4,1.6,2.7c0.1,0,0.3,0.1,0.4,0.1c0.1,0,0.2,0,0.3,0
			c0.6,0,1.2-0.2,1.7-0.6l0,0c0.6-0.4,1-1,1.1-1.7c0.3-1.2-0.4-2.4-1.6-2.7c-0.1,0-0.2,0-0.2,0C5,8.6,4.9,8.5,4.8,8.5z"/>
		<path d="M5.2,3.1c1.5,1.1,2,3.2,1,4.5S3.1,9.2,1.6,8s-2-3.2-1-4.5S3.7,1.9,5.2,3.1z"/>
		<path d="M3.8,8.8C3,8.8,2.2,8.6,1.6,8.1C0.8,7.5,0.3,6.8,0.1,5.9c-0.4-1.6,0.6-3.1,2.1-3.5c0.2,0,0.3-0.1,0.5-0.1
			C3.6,2.2,4.5,2.5,5.3,3c0.8,0.6,1.3,1.4,1.5,2.4C7.1,7,6,8.5,4.4,8.8c-0.1,0-0.2,0-0.3,0C4,8.8,3.9,8.8,3.8,8.8z M3,2.4
			c-0.9,0-1.8,0.4-2.4,1.1C0.2,4.2,0,5,0.2,5.8C0.4,6.7,0.9,7.5,1.6,8C2.3,8.4,3,8.7,3.8,8.7c0.1,0,0.2,0,0.3,0
			c1.5-0.1,2.7-1.4,2.6-2.9c0-0.1,0-0.2,0-0.3C6.5,4.5,6,3.7,5.2,3.1l0,0C4.6,2.6,3.8,2.4,3,2.4z"/>
		<path d="M13.2,9.1c1.2,0.8,1.6,2.4,0.8,3.6c-0.9,1.1-2.6,1.3-3.7,0.4c-1.2-0.8-1.6-2.4-0.8-3.6C10.4,8.4,12.1,8.2,13.2,9.1z"/>
		<path d="M12,13.7c-0.6,0-1.3-0.2-1.8-0.6C9,12.3,8.7,10.7,9.5,9.4c0.4-0.5,1-0.9,1.7-0.9c1.5-0.1,2.9,0.9,3.2,2.4
			c0.3,1.2-0.5,2.5-1.7,2.8c-0.1,0-0.3,0.1-0.4,0.1C12.2,13.7,12.1,13.7,12,13.7z M11.4,8.6c-0.1,0-0.2,0-0.3,0
			C10.5,8.6,9.9,9,9.5,9.5c-0.8,1.2-0.4,2.8,0.8,3.6c0.5,0.4,1.1,0.6,1.7,0.6c0.8,0,1.5-0.3,1.9-0.9c0.4-0.5,0.5-1.2,0.4-1.9
			c-0.2-0.7-0.6-1.3-1.1-1.7l0,0C12.7,8.8,12.1,8.6,11.4,8.6z"/>
		<path d="M8.1,11.2c-0.7,0-1.3-0.2-1.9-0.6c-0.5-0.4-0.8-0.9-0.8-1.5c0-1.2,1.2-2.2,2.7-2.2s2.7,1,2.7,2.2c0,0.6-0.3,1.2-0.8,1.5
			C9.4,11,8.7,11.2,8.1,11.2z M8.1,7.1c-1.4,0-2.5,0.9-2.5,2s1.1,2,2.5,2s2.5-0.9,2.5-2S9.4,7.1,8.1,7.1L8.1,7.1z"/>
		<path d="M6.3,9.1C5.7,9.1,5.1,8.6,5.1,8c0-0.6,0.5-1.1,1.1-1.1c0.6,0,1.1,0.5,1.1,1.1C7.4,8.6,6.9,9.1,6.3,9.1z M6.3,7.1
			C5.8,7.1,5.3,7.5,5.3,8S5.8,9,6.3,9S7.2,8.5,7.2,8C7.2,7.5,6.8,7.1,6.3,7.1L6.3,7.1z"/>
		<path d="M14.4,8.1c-1.5,1.1-3.6,0.9-4.6-0.4s-0.6-3.4,1-4.5s3.6-0.9,4.6,0.4S16,7,14.4,8.1z"/>
		<path d="M12.2,8.9c-0.1,0-0.2,0-0.3,0c-1.6-0.1-2.8-1.5-2.7-3.1c0-0.2,0-0.3,0.1-0.5c0.4-1.8,2.1-3.1,4-2.9
			c1.6,0.1,2.8,1.5,2.7,3.1c0,0.2,0,0.3-0.1,0.5c-0.2,0.9-0.7,1.7-1.5,2.2l0,0C13.8,8.7,13,8.9,12.2,8.9z M13,2.5
			c-0.8,0-1.5,0.3-2.1,0.7c-1.5,1.1-1.9,3.1-1,4.4c0.5,0.7,1.2,1.1,2,1.1c0.9,0.1,1.7-0.2,2.4-0.7l0,0c1.5-1.1,1.9-3.1,1-4.4
			c-0.5-0.7-1.2-1.1-2-1.1C13.2,2.5,13.1,2.5,13,2.5z"/>
		<path d="M9.7,9.1C9.1,9.1,8.6,8.6,8.6,8c0-0.6,0.5-1.1,1.1-1.1c0.6,0,1.1,0.5,1.1,1.1C10.8,8.6,10.3,9.1,9.7,9.1z M9.7,7.1
			C9.2,7.1,8.8,7.5,8.8,8S9.2,9,9.7,9s0.9-0.4,0.9-0.9C10.7,7.5,10.2,7.1,9.7,7.1L9.7,7.1z"/>
		<path d="M7.6,7c0-0.2,0-0.4,0-0.6c0.1-0.4,0-0.7-0.1-1.1v0L7.4,4.9L7.3,5.1l0.1,0l0,0.2l-0.2,0c0,0-0.1-0.1-0.1-0.1c0,0,0,0,0,0
			l0.3-0.5c0,0,0.1-0.1,0.1,0c0,0,0,0,0,0l0.2,0.5C7.9,5.6,7.9,6,7.8,6.4c0,0.2,0,0.4,0,0.6L7.6,7z"/>
		<path d="M8.5,7L8.3,7c0-0.2,0-0.4,0-0.6C8.2,6,8.2,5.6,8.4,5.2l0.2-0.5c0,0,0.1-0.1,0.1,0c0,0,0,0,0,0L9,5.2c0,0,0,0.1,0,0.1
			c0,0,0,0,0,0l-0.2,0l0-0.2l0.1,0L8.7,4.9L8.5,5.3v0C8.4,5.6,8.4,6,8.4,6.4C8.5,6.6,8.5,6.8,8.5,7z"/>
		<path d="M7.8,12.5l-0.4-0.6c0,0,0,0,0,0v-0.7h0.2v0.7l0.4,0.6L7.8,12.5z"/>
		<path d="M8.6,12.5l-0.4-0.6c0,0,0,0,0,0v-0.7h0.2v0.7l0.4,0.6L8.6,12.5z"/>
	</g>
	<rect x="5.2" y="8.5" width="0.1" height="0.1"/>
	<path d="M5.3,8.6H5.2V8.5h0.1V8.6z M5.2,8.5L5.2,8.5L5.2,8.5L5.2,8.5L5.2,8.5z"/>
	<path class="st0" d="M5.9,13.1c-1.1,0.9-2.8,0.8-3.7-0.4C1.4,11.5,1.8,9.9,3,9.1c1.1-0.9,2.8-0.8,3.7,0.3
		C7.5,10.7,7.1,12.3,5.9,13.1z"/>
	<path d="M4.2,13.7c-0.1,0-0.2,0-0.3,0c-1.3-0.1-2.3-1.2-2.2-2.5c0-0.1,0-0.3,0.1-0.4c0.4-1.5,1.8-2.5,3.4-2.3
		c1.3,0.2,2.2,1.3,2,2.6c0,0.1,0,0.2,0,0.2c-0.2,0.7-0.6,1.3-1.2,1.8l0,0C5.4,13.5,4.8,13.7,4.2,13.7z M4.8,8.5
		C4.1,8.5,3.5,8.8,3,9.1c-0.6,0.4-1,1-1.1,1.7c-0.3,1.2,0.4,2.4,1.6,2.7c0.1,0,0.3,0.1,0.4,0.1c0.1,0,0.2,0,0.3,0
		c0.6,0,1.2-0.2,1.7-0.6l0,0c0.6-0.4,1-1,1.1-1.7c0.3-1.2-0.4-2.4-1.6-2.7c-0.1,0-0.2,0-0.2,0C5,8.6,4.9,8.5,4.8,8.5z"/>
	<path class="st0" d="M5.2,3.1c1.5,1.1,2,3.2,1,4.5S3.1,9.2,1.6,8s-2-3.2-1-4.5S3.7,1.9,5.2,3.1z"/>
	<path d="M3.8,8.8C3,8.8,2.2,8.6,1.6,8.1C0.8,7.5,0.3,6.8,0.1,5.9c-0.4-1.6,0.6-3.1,2.1-3.5c0.2,0,0.3-0.1,0.5-0.1
		C3.6,2.2,4.5,2.5,5.3,3c0.8,0.6,1.3,1.4,1.5,2.4C7.1,7,6,8.5,4.4,8.8c-0.1,0-0.2,0-0.3,0C4,8.8,3.9,8.8,3.8,8.8z M3,2.4
		c-0.9,0-1.8,0.4-2.4,1.1C0.2,4.2,0,5,0.2,5.8C0.4,6.7,0.9,7.5,1.6,8C2.3,8.4,3,8.7,3.8,8.7c0.1,0,0.2,0,0.3,0
		c1.5-0.1,2.7-1.4,2.6-2.9c0-0.1,0-0.2,0-0.3C6.5,4.5,6,3.7,5.2,3.1l0,0C4.6,2.6,3.8,2.4,3,2.4z"/>
	<path class="st1" d="M3.9,6.5C3.3,5.9,3.3,5,3.8,4.4c0.5-0.6,1.4-0.8,2-0.3c0.6,0.5,0.6,1.5,0.1,2C5.4,6.8,4.5,6.9,3.9,6.5z"/>
	<path d="M3.4,6.4C2.8,5.8,2.8,4.9,3.3,4.3c0.5-0.6,1.4-0.8,2-0.3C5.9,4.5,6,5.4,5.4,6C4.9,6.7,4,6.8,3.4,6.4z"/>
	<path class="st2" d="M4.5,8C4.2,7.8,3.9,7.6,3.6,7.4C2.8,7.1,2.2,6.6,1.7,6C1.6,5.8,1.5,5.7,1.4,5.6C1.1,5.2,0.8,4.9,1.3,4.3
		C1.4,4.1,1.5,4,1.6,3.9c0.2-0.5,0.7-0.8,1.2-1c0,0,0,0,0.1,0l0,0C3.6,3,4.3,3.1,4.8,4c0,0,0,0.1,0,0.1c0,0.1,0,0.2,0,0.4
		c0,0.6,0,1.3-0.6,1.7c0,0,0,0,0,0l-1,0.5C3.4,6.9,3.6,7,3.8,7.1c0.3,0.2,0.7,0.4,0.9,0.6L4.5,8z M2.8,3.3C2.4,3.4,2.2,3.7,1.9,4.1
		C1.8,4.2,1.7,4.4,1.6,4.5C1.3,4.9,1.4,5,1.7,5.4C1.8,5.5,1.9,5.6,2,5.8c0.3,0.4,0.6,0.7,1,0.9L2.9,6.5L4,5.9C4.3,5.5,4.5,5,4.4,4.5
		c0-0.1,0-0.2,0-0.3C4,3.5,3.5,3.4,2.8,3.3L2.8,3.3z"/>
	<path class="st3" d="M3,5.8c-0.5,0-0.9-0.4-0.9-1c0-0.5,0.4-0.9,1-0.9C3.6,3.9,4,4.3,4,4.9C4,5.4,3.5,5.8,3,5.8z"/>
	<path class="st2" d="M3.5,5.4C3.3,5.6,2.9,5.5,2.8,5.3C2.6,5.1,2.6,4.8,2.8,4.7C3,4.5,3.3,4.5,3.5,4.7c0,0,0,0,0,0
		C3.7,4.9,3.7,5.2,3.5,5.4z"/>
	<path class="st2" d="M4.6,8C4.2,7.8,3.8,7.6,3.3,7.5C2.7,7.4,2.1,7,1.6,6.5C1.6,6.4,1.5,6.3,1.4,6.3C1.2,6,1,5.7,0.9,5.3
		C0.7,5,0.8,4.6,1,4.3C1.4,3.5,2.1,3.1,2.9,3h0C3.3,3,3.7,3.1,4,3.3c0.3,0.1,0.6,0.4,0.7,0.8c0,0,0,0.1,0,0.1c0,0.1,0,0.2,0,0.3
		C4.8,5,4.6,5.6,4.1,6l-1,0.8L2.9,6.5l1-0.8l0,0c0.4-0.3,0.5-0.8,0.5-1.3c0-0.1,0-0.2,0-0.3C4.2,3.8,3.7,3.5,2.9,3.4
		C2.2,3.5,1.6,3.9,1.3,4.5c0,0,0,0,0,0C1,4.9,1.3,5.4,1.8,6c0.1,0.1,0.1,0.2,0.2,0.3C2.3,6.7,2.9,7,3.4,7.1c0.5,0.1,0.9,0.3,1.4,0.6
		L4.6,8z"/>
	<path class="st4" d="M5.1,8.1C5,8.2,4.8,8.2,4.5,8C4.2,7.9,4,7.6,4.1,7.5c0.1-0.1,0.3-0.1,0.6,0.1C5,7.8,5.2,8,5.1,8.1z"/>
	<path class="st2" d="M5.1,8.1C5,8.2,4.8,8.2,4.5,8C4.2,7.9,4,7.6,4.1,7.5c0.1-0.1,0.3-0.1,0.6,0.1C5,7.8,5.2,8,5.1,8.1z"/>
	<path class="st0" d="M13.2,9.1c1.2,0.8,1.6,2.4,0.8,3.6c-0.9,1.1-2.6,1.3-3.7,0.4c-1.2-0.8-1.6-2.4-0.8-3.6
		C10.4,8.4,12.1,8.2,13.2,9.1z"/>
	<path d="M12,13.7c-0.6,0-1.3-0.2-1.8-0.6C9,12.3,8.7,10.7,9.5,9.4c0.4-0.5,1-0.9,1.7-0.9c1.5-0.1,2.9,0.9,3.2,2.4
		c0.3,1.2-0.5,2.5-1.7,2.8c-0.1,0-0.3,0.1-0.4,0.1C12.2,13.7,12.1,13.7,12,13.7z M11.4,8.6c-0.1,0-0.2,0-0.3,0
		C10.5,8.6,9.9,9,9.5,9.5c-0.8,1.2-0.4,2.8,0.8,3.6c0.5,0.4,1.1,0.6,1.7,0.6c0.8,0,1.5-0.3,1.9-0.9c0.4-0.5,0.5-1.2,0.4-1.9
		c-0.2-0.7-0.6-1.3-1.1-1.7l0,0C12.7,8.8,12.1,8.6,11.4,8.6z"/>
	<path class="st5" d="M8.1,11.2c-1.4,0-2.6-0.9-2.6-2.1S6.6,7,8.1,7s2.6,0.9,2.6,2.1S9.5,11.2,8.1,11.2z"/>
	<path d="M8.1,11.2c-0.7,0-1.3-0.2-1.9-0.6c-0.5-0.4-0.8-0.9-0.8-1.5c0-1.2,1.2-2.2,2.7-2.2s2.7,1,2.7,2.2c0,0.6-0.3,1.2-0.8,1.5
		C9.4,11,8.7,11.2,8.1,11.2z M8.1,7.1c-1.4,0-2.5,0.9-2.5,2s1.1,2,2.5,2s2.5-0.9,2.5-2S9.4,7.1,8.1,7.1L8.1,7.1z"/>
	<path class="st6" d="M6.3,9.1c-0.6,0-1-0.5-1-1c0-0.6,0.5-1,1-1c0.6,0,1,0.5,1,1C7.3,8.6,6.8,9.1,6.3,9.1C6.3,9.1,6.3,9.1,6.3,9.1z
		"/>
	<path d="M6.3,9.1C5.7,9.1,5.1,8.6,5.1,8c0-0.6,0.5-1.1,1.1-1.1c0.6,0,1.1,0.5,1.1,1.1C7.4,8.6,6.9,9.1,6.3,9.1z M6.3,7.1
		C5.8,7.1,5.3,7.5,5.3,8S5.8,9,6.3,9S7.2,8.5,7.2,8C7.2,7.5,6.8,7.1,6.3,7.1L6.3,7.1z"/>
	<path class="st0" d="M14.4,8.1c-1.5,1.1-3.6,0.9-4.6-0.4s-0.6-3.4,1-4.5s3.6-0.9,4.6,0.4S16,7,14.4,8.1z"/>
	<path d="M12.2,8.9c-0.1,0-0.2,0-0.3,0c-1.6-0.1-2.8-1.5-2.7-3.1c0-0.2,0-0.3,0.1-0.5c0.4-1.8,2.1-3.1,4-2.9
		c1.6,0.1,2.8,1.5,2.7,3.1c0,0.2,0,0.3-0.1,0.5c-0.2,0.9-0.7,1.7-1.5,2.2l0,0C13.8,8.7,13,8.9,12.2,8.9z M13,2.5
		c-0.8,0-1.5,0.3-2.1,0.7c-1.5,1.1-1.9,3.1-1,4.4c0.5,0.7,1.2,1.1,2,1.1c0.9,0.1,1.7-0.2,2.4-0.7l0,0c1.5-1.1,1.9-3.1,1-4.4
		c-0.5-0.7-1.2-1.1-2-1.1C13.2,2.5,13.1,2.5,13,2.5z"/>
	<path class="st1" d="M14.8,7.3c-0.6,0.5-1.5,0.3-2-0.3c-0.5-0.6-0.5-1.5,0.1-2c0.6-0.5,1.5-0.3,2,0.3C15.4,5.8,15.3,6.7,14.8,7.3z"
		/>
	<path d="M14.3,7.3c-0.6,0.5-1.5,0.3-2-0.3c-0.5-0.6-0.5-1.5,0.1-2c0.6-0.5,1.5-0.3,2,0.3C14.9,5.8,14.9,6.7,14.3,7.3z"/>
	<path class="st2" d="M11.5,7.9c-0.3,0-0.6-0.2-0.7-0.4c-0.3-0.3-0.4-0.7-0.5-1.1c-0.1-0.4,0-0.8,0.2-1.2L10.6,5
		c0.2-0.5,0.6-0.8,1.1-1.1l0.2-0.2c0.7-0.4,1.5-0.6,2.3-0.4c0.4,0.1,0.7,0.5,0.8,0.9l-0.4,0.1c-0.1-0.3-0.3-0.5-0.6-0.6
		c-0.7-0.2-1.4,0-2,0.3l-0.2,0.2l-0.1,0l0.6,0.4l0,0c0.4,0.3,0.7,0.6,0.9,0.9c0.3,0.3,0.4,0.8,0.3,1.2c-0.2,0.7-0.5,0.7-1.3,0.8h0
		c-0.1,0-0.3,0-0.4,0.1C11.8,7.8,11.7,7.9,11.5,7.9z M11.6,4.5c-0.3,0.2-0.5,0.5-0.7,0.8l-0.1,0.1c-0.3,0.6-0.2,1.3,0.3,1.8
		c0.3,0.3,0.4,0.3,0.7,0.2c0.2,0,0.3-0.1,0.5-0.1h0c0.7-0.1,0.8-0.1,0.9-0.6c0.2-0.6-0.6-1.4-1-1.7L11.6,4.5L11.6,4.5z"/>
	<path class="st3" d="M11.9,7c-0.5,0-0.9-0.4-0.9-0.8c0-0.5,0.4-0.9,0.8-0.9c0.5,0,0.9,0.4,0.9,0.8c0,0,0,0,0,0
		C12.7,6.7,12.3,7,11.9,7C11.9,7,11.9,7,11.9,7z"/>
	<path class="st4" d="M12.2,6.7c-0.2,0.2-0.5,0.1-0.7-0.1c-0.2-0.2-0.1-0.5,0.1-0.7C11.7,5.8,12,5.8,12.2,6c0,0,0,0,0,0
		C12.4,6.2,12.4,6.5,12.2,6.7z"/>
	<path class="st2" d="M12.2,6.7c-0.2,0.2-0.5,0.1-0.7-0.1c-0.2-0.2-0.1-0.5,0.1-0.7C11.7,5.8,12,5.8,12.2,6c0,0,0,0,0,0
		C12.4,6.2,12.4,6.5,12.2,6.7z"/>
	<path class="st2" d="M11.7,8c-0.4,0-0.7-0.2-0.9-0.5c-0.3-0.4-0.5-0.8-0.6-1.2C10,5.8,10,5.3,10.3,4.9l0.1-0.2
		c0.3-0.5,0.6-0.8,1.1-1.1l0.2-0.1c0.4-0.2,0.8-0.3,1.2-0.4c0.5-0.1,1,0,1.4,0.1c0.5,0.1,0.8,0.5,1,1l-0.4,0.1
		c-0.1-0.3-0.4-0.6-0.7-0.7c-0.7-0.2-1.6-0.2-2.3,0.2L11.7,4c-0.4,0.2-0.8,0.5-1,0.9l-0.1,0.2c-0.3,0.5,0,1.5,0.4,2.1
		c0.3,0.4,0.6,0.4,1.1,0.3c0.1,0,0.1,0,0.2,0l0.2,0c0.6-0.1,0.7-0.1,0.8-0.5c0.2-0.7,0.1-1.4-0.4-1.9l-1.3-0.6l0.1-0.4l1.4,0.6
		c0,0,0,0,0,0c0.3,0.3,0.6,0.6,0.7,1.1c0.1,0.4,0.1,0.8-0.1,1.2c-0.2,0.6-0.5,0.7-1.2,0.8l-0.2,0c-0.1,0-0.2,0-0.2,0
		C12,8,11.8,8,11.7,8z"/>
	<path class="st6" d="M9.7,9.1c-0.6,0-1-0.5-1-1s0.5-1,1-1c0.6,0,1,0.5,1,1l0,0C10.7,8.6,10.3,9.1,9.7,9.1z"/>
	<path d="M9.7,9.1C9.1,9.1,8.6,8.6,8.6,8c0-0.6,0.5-1.1,1.1-1.1c0.6,0,1.1,0.5,1.1,1.1C10.8,8.6,10.3,9.1,9.7,9.1z M9.7,7.1
		C9.2,7.1,8.8,7.5,8.8,8S9.2,9,9.7,9s0.9-0.4,0.9-0.9C10.7,7.5,10.2,7.1,9.7,7.1L9.7,7.1z"/>
	<path class="st0" d="M6.3,8.5C6,8.5,5.8,8.3,5.8,8c0-0.3,0.2-0.5,0.5-0.5c0.3,0,0.5,0.2,0.5,0.5c0,0,0,0,0,0
		C6.8,8.3,6.6,8.5,6.3,8.5z"/>
	<path class="st0" d="M9.7,8.5C9.5,8.5,9.2,8.2,9.2,8c0-0.3,0.2-0.5,0.5-0.5s0.5,0.2,0.5,0.5C10.3,8.2,10,8.5,9.7,8.5z"/>
	<path class="st7" d="M8.3,10.5c-0.3,0-0.6-0.1-0.8-0.2C7.2,10.2,7,9.9,7.1,9.6l0.2,0c0,0.2,0.2,0.4,0.3,0.4
		c0.3,0.2,0.7,0.3,1.1,0.1c0.1-0.1,0.2-0.3,0.1-0.4c0,0,0,0,0,0V9.7H9v0c0.1,0.2,0,0.5-0.2,0.6C8.7,10.5,8.5,10.5,8.3,10.5z"/>
	<path d="M7.6,7c0-0.2,0-0.4,0-0.6c0.1-0.4,0-0.7-0.1-1.1v0L7.4,4.9L7.3,5.1l0.1,0l0,0.2l-0.2,0c0,0-0.1-0.1-0.1-0.1c0,0,0,0,0,0
		l0.3-0.5c0,0,0.1-0.1,0.1,0c0,0,0,0,0,0l0.2,0.5C7.9,5.6,7.9,6,7.8,6.4c0,0.2,0,0.4,0,0.6L7.6,7z"/>
	<path d="M8.5,7L8.3,7c0-0.2,0-0.4,0-0.6C8.2,6,8.2,5.6,8.4,5.2l0.2-0.5c0,0,0.1-0.1,0.1,0c0,0,0,0,0,0L9,5.2c0,0,0,0.1,0,0.1
		c0,0,0,0,0,0l-0.2,0l0-0.2l0.1,0L8.7,4.9L8.5,5.3v0C8.4,5.6,8.4,6,8.4,6.4C8.5,6.6,8.5,6.8,8.5,7z"/>
	<path class="st3" d="M3.2,12.6c-0.6-0.6-0.6-1.5,0-2.2C3.6,9.7,4.5,9.6,5.2,10c0.6,0.6,0.6,1.5,0,2.2C4.8,12.9,3.8,13,3.2,12.6z"/>
	<path class="st0" d="M7.8,12.5l-0.4-0.6c0,0,0,0,0,0v-0.7h0.2v0.7l0.4,0.6L7.8,12.5z"/>
	<path class="st0" d="M8.6,12.5l-0.4-0.6c0,0,0,0,0,0v-0.7h0.2v0.7l0.4,0.6L8.6,12.5z"/>
	<path class="st2" d="M3.9,11.8c-0.3-0.2-0.2-0.7,0.1-1.1s0.8-0.5,1.1-0.3s0.2,0.7-0.1,1.1C4.6,11.9,4.1,12,3.9,11.8z"/>
	<path class="st3" d="M12.9,12.6c-0.7,0.5-1.6,0.3-2.1-0.4c-0.6-0.6-0.6-1.6,0-2.2c0.7-0.5,1.6-0.3,2.1,0.4
		C13.5,11,13.5,12,12.9,12.6z"/>
	<path class="st4" d="M12.1,11.8c-0.3,0.2-0.7,0.1-1.1-0.3c-0.3-0.4-0.4-0.9-0.1-1.1s0.7-0.1,1.1,0.3C12.4,11.1,12.4,11.6,12.1,11.8
		z"/>
	<path class="st2" d="M12.1,11.8c-0.3,0.2-0.7,0.1-1.1-0.3c-0.3-0.4-0.4-0.9-0.1-1.1s0.7-0.1,1.1,0.3C12.4,11.1,12.4,11.6,12.1,11.8
		z"/>
	<path class="st4" d="M15.3,4.8c-0.1,0.1-0.4-0.1-0.7-0.4c-0.2-0.3-0.3-0.7-0.2-0.8c0.1-0.1,0.4,0.1,0.7,0.4S15.4,4.7,15.3,4.8z"/>
	<path class="st2" d="M15.3,4.8c-0.1,0.1-0.4-0.1-0.7-0.4c-0.2-0.3-0.3-0.7-0.2-0.8c0.1-0.1,0.4,0.1,0.7,0.4S15.4,4.7,15.3,4.8z"/>
	<rect x="10.7" y="8.5" width="0.1" height="0.1"/>
	<path d="M10.8,8.6h-0.1V8.5h0.1V8.6z M10.7,8.6L10.7,8.6L10.7,8.6L10.7,8.6L10.7,8.6z"/>
</g>
</svg>
