<?xml version="1.0" encoding="utf-8"?>
<!-- Generator: Adobe Illustrator 24.0.3, SVG Export Plug-In . SVG Version: 6.00 Build 0)  -->
<svg version="1.1" id="Capa_1" xmlns="http://www.w3.org/2000/svg" xmlns:xlink="http://www.w3.org/1999/xlink" x="0px" y="0px"
	 viewBox="0 0 16 16" style="enable-background:new 0 0 16 16;" xml:space="preserve">
<style type="text/css">
	.st0{fill-rule:evenodd;clip-rule:evenodd;fill:#3FA9F5;}
</style>
<path class="st0" d="M8,12.1c-4.4,0-8-1.8-8-4.1s3.6-4.1,8-4.1s8,1.8,8,4.1S12.4,12.1,8,12.1 M4.5,6.8c0.4,0,0.6,0.1,0.7,0.2
	c0.1,0.1,0.1,0.4,0.1,0.7C5.3,8,5.2,8.2,5,8.4C4.8,8.5,4.5,8.6,4.1,8.6H3.5l0.4-1.8L4.5,6.8 M2.2,10.5h1l0.2-1.2h0.8
	c0.4,0,0.7,0,0.9-0.1C5.3,9.1,5.5,9,5.7,8.8C5.9,8.6,6,8.5,6.1,8.3c0.1-0.2,0.2-0.4,0.2-0.6c0.1-0.5,0-0.9-0.2-1.2
	C5.9,6.2,5.5,6.1,4.9,6.1H3.1L2.2,10.5 M7,4.9L6.2,9.3h0.9l0.5-2.5h0.8c0.2,0,0.4,0,0.5,0.1c0.1,0.1,0.1,0.2,0,0.4l-0.4,2h1l0.4-2
	c0.1-0.4,0-0.7-0.2-0.9C9.5,6.2,9.1,6.1,8.6,6.1H7.8L8,4.9L7,4.9 M12,6.8c0.4,0,0.6,0.1,0.7,0.2c0.1,0.1,0.1,0.4,0.1,0.7
	c-0.1,0.4-0.2,0.6-0.4,0.7c-0.2,0.1-0.5,0.2-0.9,0.2H11l0.3-1.8L12,6.8 M9.7,10.5h1l0.2-1.2h0.8c0.4,0,0.7,0,0.9-0.1
	C12.8,9.1,13,9,13.2,8.8c0.2-0.1,0.3-0.3,0.4-0.5c0.1-0.2,0.2-0.4,0.2-0.6c0.1-0.5,0-0.9-0.2-1.2c-0.2-0.3-0.7-0.4-1.2-0.4h-1.8
	L9.7,10.5z"/>
</svg>
