<?xml version="1.0" encoding="utf-8"?>
<!-- Generator: Adobe Illustrator 24.0.3, SVG Export Plug-In . SVG Version: 6.00 Build 0)  -->
<svg version="1.1" id="Capa_1" xmlns="http://www.w3.org/2000/svg" xmlns:xlink="http://www.w3.org/1999/xlink" x="0px" y="0px"
	 viewBox="0 0 16 16" style="enable-background:new 0 0 16 16;" xml:space="preserve">
<style type="text/css">
	.st0{fill:#54A3DA;}
	.st1{fill:#ECE721;}
</style>
<g>
	<path class="st0" d="M13.1,3.4L13.1,3.4c-3.2,0-3,1.6-3,1.6V11c0,0,0,1.6,1.5,1.6h0c1.4,0,1.4-1.6,1.4-1.6V8.3h1.7
		C16,8.3,16,7.5,16,7.5V4.7C16,4.7,16.2,3.4,13.1,3.4z M15.2,4.8L15.2,4.8c0,0.3-0.2,0.5-0.5,0.5c-0.3,0-0.5-0.2-0.5-0.5
		c0-0.3,0.2-0.5,0.5-0.5c0,0,0,0,0,0l0,0l0,0C15,4.3,15.2,4.5,15.2,4.8L15.2,4.8z"/>
	<path class="st1" d="M8,12.6L8,12.6c-1.5,0-1.5-2-1.5-2v-5c0,0,0-2,1.5-2h0c1.4,0,1.4,2,1.4,2v5C9.4,10.6,9.4,12.6,8,12.6z
		 M8.5,11.3L8.5,11.3c0-0.3-0.2-0.5-0.5-0.5c-0.3,0-0.5,0.2-0.5,0.5c0,0.3,0.2,0.5,0.5,0.5c0,0,0,0,0,0l0,0l0,0
		C8.3,11.8,8.5,11.6,8.5,11.3L8.5,11.3z"/>
	<path class="st0" d="M3,3.4L3,3.4C-0.2,3.4,0,5,0,5V11c0,0,0,1.6,1.5,1.6h0c1.4,0,1.4-1.6,1.4-1.6V8.3h1.7c1.2,0,1.2-0.8,1.2-0.8
		V4.7C5.8,4.7,6,3.4,3,3.4z M5.1,4.8L5.1,4.8c0,0.3-0.2,0.5-0.5,0.5C4.3,5.3,4,5.1,4,4.8c0-0.3,0.2-0.5,0.5-0.5c0,0,0,0,0,0l0,0l0,0
		C4.8,4.3,5.1,4.5,5.1,4.8L5.1,4.8L5.1,4.8z"/>
</g>
</svg>
