<?xml version="1.0" encoding="utf-8"?>
<!-- Generator: Adobe Illustrator 24.0.3, SVG Export Plug-In . SVG Version: 6.00 Build 0)  -->
<svg version="1.1" id="Capa_1" xmlns="http://www.w3.org/2000/svg" xmlns:xlink="http://www.w3.org/1999/xlink" x="0px" y="0px"
	 viewBox="0 0 16 16" style="enable-background:new 0 0 16 16;" xml:space="preserve">
<style type="text/css">
	.st0{fill:#FFFFFF;}
	.st1{fill:#3FA9F5;}
</style>
<g>
	<path id="_x30_2_18_" class="st0" d="M10.4,0H3.7c-1.1,0-2,0.9-2,2v12c0,1.1,0.9,2,2,2h8.7c1.1,0,2-0.9,2-2V3.9L10.4,0z"/>
	<g>
		<path id="_x30_2_17_" class="st1" d="M10.1,0.7l3.5,3.5V14c0,0.7-0.6,1.3-1.3,1.3H3.7c-0.7,0-1.3-0.6-1.3-1.3V2
			c0-0.7,0.6-1.3,1.3-1.3H10.1 M10.4,0H3.7c-1.1,0-2,0.9-2,2v12c0,1.1,0.9,2,2,2h8.7c1.1,0,2-0.9,2-2V3.9L10.4,0L10.4,0z"/>
		<path id="_x30_2_16_" class="st1" d="M10.2,2V0l4.1,4.1h-2C11.2,4.1,10.2,3.2,10.2,2z"/>
	</g>
	<g>
		<rect x="4.3" y="6" class="st1" width="7.4" height="1"/>
		<rect x="4.3" y="8" class="st1" width="6.5" height="1"/>
		<rect x="4.3" y="10" class="st1" width="3.6" height="1"/>
		<rect x="4.3" y="12" class="st1" width="7.4" height="1"/>
	</g>
</g>
</svg>
