<?xml version="1.0" encoding="utf-8"?>
<!-- Generator: Adobe Illustrator 24.0.3, SVG Export Plug-In . SVG Version: 6.00 Build 0)  -->
<svg version="1.1" id="Capa_1" xmlns="http://www.w3.org/2000/svg" xmlns:xlink="http://www.w3.org/1999/xlink" x="0px" y="0px"
	 viewBox="0 0 16 16" style="enable-background:new 0 0 16 16;" xml:space="preserve">
<style type="text/css">
	.st0{fill:#3FA9F5;}
	.st1{fill:#FF7BAC;}
	.st2{fill:#7AC943;}
	.st3{fill:#FF731E;}
	.st4{opacity:0.5;fill:#BDCCD4;}
</style>
<g>
	<rect x="4.8" y="4.8" class="st0" width="1.3" height="1.3"/>
	<rect x="7.4" y="12.5" class="st1" width="1.3" height="1.3"/>
	<rect x="7.4" y="9.9" class="st1" width="1.3" height="1.3"/>
	<rect x="4.8" y="7.4" class="st1" width="1.3" height="1.3"/>
	<rect x="4.8" y="9.9" class="st2" width="1.3" height="1.3"/>
	<rect x="2.2" y="12.5" class="st1" width="1.3" height="1.3"/>
	<rect x="7.4" y="7.4" class="st3" width="1.3" height="1.3"/>
	<rect x="2.2" y="7.4" class="st1" width="1.3" height="1.3"/>
	<rect x="2.2" y="2.2" class="st1" width="1.3" height="1.3"/>
	<rect x="9.9" y="4.8" class="st2" width="1.3" height="1.3"/>
	<rect x="12.5" y="7.4" class="st1" width="1.3" height="1.3"/>
	<rect x="12.5" y="2.2" class="st1" width="1.3" height="1.3"/>
	<path class="st4" d="M15,0H1C0.4,0,0,0.4,0,1v14c0,0.6,0.4,1,1,1h14c0.6,0,1-0.4,1-1V1C16,0.4,15.6,0,15,0z M15.1,4.1
		c0,0.4-0.3,0.6-0.6,0.6h-1.9v1.3h1.9c0.4,0,0.6,0.3,0.6,0.6v2.6c0,0.4-0.3,0.6-0.6,0.6h-1.9v1.3h1.9c0.4,0,0.6,0.3,0.6,0.6v2.6
		c0,0.4-0.3,0.6-0.6,0.6h-2.6c-0.4,0-0.6-0.3-0.6-0.6v-1.9H9.9v1.9c0,0.4-0.3,0.6-0.6,0.6H6.7c-0.4,0-0.6-0.3-0.6-0.6v-1.9H4.8v1.9
		c0,0.4-0.3,0.6-0.6,0.6H1.5c-0.4,0-0.6-0.3-0.6-0.6v-2.6c0-0.4,0.3-0.6,0.6-0.6h1.9V9.9H1.5c-0.4,0-0.6-0.3-0.6-0.6V6.7
		c0-0.4,0.3-0.6,0.6-0.6h1.9V4.8H1.5c-0.4,0-0.6-0.3-0.6-0.6V1.5c0-0.4,0.3-0.6,0.6-0.6h2.6c0.4,0,0.6,0.3,0.6,0.6v1.9h1.3V1.5
		c0-0.4,0.3-0.6,0.6-0.6h2.6c0.4,0,0.6,0.3,0.6,0.6v1.9h1.3V1.5c0-0.4,0.3-0.6,0.6-0.6h2.6c0.4,0,0.6,0.3,0.6,0.6V4.1z"/>
	<rect x="7.4" y="4.8" class="st1" width="1.3" height="1.3"/>
	<rect x="12.5" y="12.5" class="st1" width="1.3" height="1.3"/>
	<rect x="7.4" y="2.2" class="st1" width="1.3" height="1.3"/>
	<rect x="9.9" y="7.4" class="st1" width="1.3" height="1.3"/>
	<rect x="9.9" y="9.9" class="st0" width="1.3" height="1.3"/>
</g>
</svg>
