<?xml version="1.0" encoding="utf-8"?>
<!-- Generator: Adobe Illustrator 24.0.3, SVG Export Plug-In . SVG Version: 6.00 Build 0)  -->
<svg version="1.1" id="Capa_1" xmlns="http://www.w3.org/2000/svg" xmlns:xlink="http://www.w3.org/1999/xlink" x="0px" y="0px"
	 viewBox="0 0 16 16" style="enable-background:new 0 0 16 16;" xml:space="preserve">
<style type="text/css">
	.st0{fill:#3FA9F5;}
	.st1{fill:#FFFFFF;}
</style>
<g>
	<path class="st0" d="M3,2h13l-3,12H0L3,2z"/>
	<g>
		<path class="st1" d="M9.6,8.1c0-0.2,0-0.4-0.1-0.5L6,3.6C5.7,3.3,5.3,3.3,5.1,3.5C4.8,3.8,4.8,4.2,5,4.4l3,3.5L3.2,11
			c-0.3,0.2-0.4,0.6-0.2,0.9c0.1,0.2,0.3,0.3,0.5,0.3c0.1,0,0.2,0,0.3-0.1l5.5-3.5C9.5,8.4,9.6,8.3,9.6,8.1z"/>
		<path class="st1" d="M11,10.9H8c-0.3,0-0.6,0.3-0.6,0.6s0.3,0.6,0.6,0.6h3c0.3,0,0.6-0.3,0.6-0.6S11.3,10.9,11,10.9z"/>
	</g>
</g>
</svg>
