<?xml version="1.0" encoding="utf-8"?>
<!-- Generator: Adobe Illustrator 24.0.3, SVG Export Plug-In . SVG Version: 6.00 Build 0)  -->
<svg version="1.1" id="Capa_1" xmlns="http://www.w3.org/2000/svg" xmlns:xlink="http://www.w3.org/1999/xlink" x="0px" y="0px"
	 viewBox="0 0 16 16" style="enable-background:new 0 0 16 16;" xml:space="preserve">
<style type="text/css">
	.st0{fill-rule:evenodd;clip-rule:evenodd;fill:#926DCC;}
</style>
<path class="st0" d="M13.3,12.7l-7.2,2.1c-0.2,0.1-0.4-0.1-0.4-0.3L8.3,2.2c0-0.2,0.4-0.3,0.5-0.1l4.8,10.1
	C13.6,12.4,13.5,12.6,13.3,12.7L13.3,12.7z M14.5,12.2L9,0.5v0C8.9,0.2,8.6,0,8.3,0C7.9,0,7.6,0.1,7.5,0.4l-6,9.7
	c-0.2,0.3-0.2,0.7,0,1l2.9,4.5C4.6,15.8,4.9,16,5.2,16c0.1,0,0.2,0,0.3,0l8.5-2.5c0.3-0.1,0.5-0.3,0.6-0.5
	C14.7,12.7,14.7,12.4,14.5,12.2L14.5,12.2z"/>
</svg>
