<?xml version="1.0" encoding="utf-8"?>
<!-- Generator: Adobe Illustrator 24.0.3, SVG Export Plug-In . SVG Version: 6.00 Build 0)  -->
<svg version="1.1" id="Capa_1" xmlns="http://www.w3.org/2000/svg" xmlns:xlink="http://www.w3.org/1999/xlink" x="0px" y="0px"
	 viewBox="0 0 16 16" style="enable-background:new 0 0 16 16;" xml:space="preserve">
<style type="text/css">
	.st0{fill:#BDCCD4;}
	.st1{fill:#666666;}
	.st2{fill:#3FA9F5;}
</style>
<g>
	<path class="st0" d="M1.4,8.8H0.3C0.1,8.8,0,8.7,0,8.5V4.1c0-0.2,0.1-0.3,0.3-0.3h1.1c0.2,0,0.3,0.1,0.3,0.3v4.4
		C1.7,8.7,1.6,8.8,1.4,8.8z"/>
	<path class="st1" d="M2,4.3v3.8c0,0,1,0.1,2,1c0,0,0.9,0.6,2.3,0.4c0,0,0.6,0.1,1.9-0.1c0,0,0.5-0.2,1.5,0c0,0,1.3,0.2,1.4-0.6
		c0,0,0.3-1-1.4-1.4c0,0-1.1-0.2-2.3-0.3c0,0-1.2-0.5-0.1-1.4c0,0,1.2-0.3,1.7,0.1c0,0,0.7,0.6,0.9,0.5c0,0,0.6-0.7,1.8-0.9
		c0,0-2.5-2.6-4.8-1.9C7,3.5,2.8,4.4,2,4.3z"/>
	<path class="st2" d="M12.6,5.7c-1.1,0-2.1,0.5-2.7,1.4C10.5,7.3,11,7.6,11.3,8c0.2,0.4,0.2,0.7,0.2,0.9c0,0.3-0.2,0.9-1.4,0.9
		c-0.2,0-0.3,0-0.3,0c0,0,0,0,0,0c-0.2,0-0.3,0-0.5-0.1c0.2,1.7,1.7,2.9,3.4,2.9c1.9,0,3.4-1.5,3.4-3.4S14.5,5.7,12.6,5.7z"/>
</g>
</svg>
