<?xml version="1.0" encoding="utf-8"?>
<!-- Generator: Adobe Illustrator 24.0.3, SVG Export Plug-In . SVG Version: 6.00 Build 0)  -->
<svg version="1.1" id="Capa_1" xmlns="http://www.w3.org/2000/svg" xmlns:xlink="http://www.w3.org/1999/xlink" x="0px" y="0px"
	 viewBox="0 0 16 16" style="enable-background:new 0 0 16 16;" xml:space="preserve">
<style type="text/css">
	.st0{fill:#EFCCA3;}
	.st1{fill:#CCAC8D;}
	.st2{fill:#FFFFFF;}
	.st3{fill:#56332B;}
	.st4{fill:#442823;}
	.st5{fill:#7F4A41;}
	.st6{fill:#331712;}
</style>
<g transform="translate(-.25 -1.7109)">
	<path class="st0" d="M13.6,7.9c0-0.5,0-1-0.2-1.4c-0.6-1-2.1-1.6-5.1-1.6v0.1H8.3h0.1V4.8c-3,0-4.6,0.6-5.2,1.6
		C2.9,6.8,3,7.3,2.9,7.9c0,0.4-0.2,0.9-0.1,1.4c0.1,0.6,0.1,1.3,0.2,1.9c0.1,0.5,0.7,0.9,0.8,1.4c0.2,1.3,1.5,1.9,4.5,1.9v0.1H8.3
		h0.1v-0.1c3,0,4.3-0.6,4.4-1.9c0.1-0.5,0.7-0.9,0.8-1.4c0.1-0.6,0.1-1.2,0.2-1.9C13.9,8.8,13.7,8.3,13.6,7.9z"/>
	<path class="st1" d="M8.3,8.3c0.5,0,0.9,0.3,1.3,0.7C10,9.3,10.7,9.6,11,9.9s0.7,0.6,0.8,1.1c0.1,0.5,0.2,1.1,0.2,1.3
		s0.1,0.1,0.3,0c0.6-0.3,1.2-1.1,1.2-1.1c-0.1,0.5-0.7,0.9-0.8,1.4c-0.1,1.3-1.4,1.9-4.4,1.9h0h0.1"/>
	<path class="st1" d="M10.3,7.3C10.4,7.7,10.8,9,10,8.6c0,0,0.3,0.2,0.5,0.9c0.2,0.7,0.7,0.8,0.7,0.8s0.8,0.2,1.5-0.4
		c0.5-0.4,0.6-1.2,0.4-1.9c-0.2-0.6-0.6-0.8-1.2-0.9C11.3,7,10.1,6.9,10.3,7.3z"/>
	<circle cx="11.8" cy="8.8" r="1.1"/>
	<circle class="st2" cx="11.5" cy="8.3" r="0.3"/>
	<path class="st0" d="M10.1,8.7c0,0,1,0.7,1.5,1.3c0.5,0.7,0.5,0.8,0.5,0.8L11.7,11c0,0-0.5-1-1.2-1.4C9.8,9.2,9.8,8.9,9.8,8.9
		L10.1,8.7z"/>
	<path class="st1" d="M8.3,8.3C7.8,8.3,7.4,8.7,7,9C6.6,9.3,5.9,9.6,5.6,9.9S4.9,10.5,4.8,11s-0.2,1.1-0.2,1.3s0,0.2-0.3,0
		C3.7,12,3,11.2,3,11.2c0.1,0.5,0.7,0.9,0.8,1.4c0.2,1.3,1.4,1.9,4.5,1.9h0.1"/>
	<path class="st3" d="M11.2,10.4C10.6,9.7,9.7,9,8.3,9h0C7,9,6,9.7,5.4,10.4c-0.6,0.8-0.6,1.1-0.6,1.8c0,2.6,0.9,1.9,1.5,2.2
		c0.6,0.3,1.3,0.2,1.9,0.2h0c0.7,0,1.3,0.1,1.9-0.2c0.6-0.3,1.5,0.5,1.5-2.2C11.8,11.5,11.9,11.2,11.2,10.4z"/>
	<path class="st4" d="M8.3,9.6c0,0-0.1,1.2-0.3,1.4L8.3,11L8.3,9.6z"/>
	<path class="st4" d="M8.4,9.6c0,0,0.1,1.2,0.3,1.4L8.3,11L8.4,9.6z"/>
	<path class="st3" d="M7.3,9.4c-0.1-0.3,0.3-0.7,1-0.8c0.7,0,1.2,0.5,1,0.8c-0.1,0.3-0.6,0.4-1,0.4C7.9,9.7,7.4,9.7,7.3,9.4z"/>
	<path d="M8.3,9.6c0,0,0.4-0.1,0.6-0.2c0,0-0.5,0.1-0.6,0.1c-0.1,0-0.1-0.2-0.1-0.2s0,0.1-0.1,0.2c-0.1,0-0.6-0.1-0.6-0.1
		S8.3,9.6,8.3,9.6c-0.1,0-0.1,0.2-0.1,0.2c0,0.3,0,1.1,0,1.1c0.1,0.1,0-0.8,0-1.1C8.4,9.8,8.4,9.7,8.3,9.6z"/>
	<path class="st5" d="M8.4,11.3c0.2,0,0.6,0.1,0.9,0.4c-0.3-0.4-0.7-0.6-0.9-0.6c-0.2,0-0.7,0.3-1,0.7C7.7,11.5,8.1,11.3,8.4,11.3z"
		/>
	<g>
		<path class="st4" d="M8.3,13.5c-0.5,0-0.9-0.1-1.4-0.3c-0.1,0-0.2,0-0.3,0c-0.8-0.2-1.4-0.7-1.8-1.2v0.1c0,2.6,0.9,1.9,1.5,2.2
			c0.6,0.3,1.3,0.2,1.9,0.2h0c0.7,0,1.3,0.1,1.9-0.2c0.6-0.3,1.5,0.4,1.5-2.2c0-0.1,0-0.2,0-0.3c-0.4,0.6-1,1-1.8,1.3
			c-0.1,0-0.2,0-0.3,0C9.2,13.4,8.8,13.5,8.3,13.5z"/>
		<path class="st4" d="M7.1,12.1c0,0-0.3,0.9-0.1,1.3l-0.3-0.1C6.7,13.3,6.9,12.4,7.1,12.1z"/>
		<path class="st4" d="M9.6,12.1c0,0,0.3,0.9,0.1,1.3l0.3-0.1C10,13.3,9.7,12.4,9.6,12.1z"/>
	</g>
	<path class="st1" d="M6.3,7.3C6.2,7.7,5.8,9,6.6,8.6c0,0-0.3,0.2-0.5,0.9s-0.7,0.8-0.7,0.8s-0.8,0.2-1.5-0.4
		C3.3,9.5,3.2,8.7,3.5,8.1s0.6-0.8,1.2-0.9C5.3,7,6.4,6.9,6.3,7.3z"/>
	<path d="M8.3,11.1c0.3,0,1.4,0.7,1.4,1.6v0C9.7,11.7,8.9,11,8.3,11.1c-0.5-0.1-1.4,0.6-1.4,1.6v0C6.9,11.8,8,11.1,8.3,11.1z"/>
	<g>
		<ellipse transform="matrix(0.9683 -0.2497 0.2497 0.9683 -2.0225 2.4277)" class="st6" cx="8.6" cy="9.2" rx="0.1" ry="0.2"/>
		<ellipse transform="matrix(0.2963 -0.9551 0.9551 0.2963 -3.1315 14.1216)" class="st6" cx="8" cy="9.2" rx="0.2" ry="0.1"/>
	</g>
	<circle cx="4.9" cy="8.8" r="1.1"/>
	<circle class="st2" cx="5.2" cy="8.3" r="0.3"/>
	<path class="st5" d="M8.7,8.8c0,0-0.3,0.1-0.4,0.1c-0.1,0-0.4-0.1-0.4-0.1h0.4H8.7z"/>
	<path class="st0" d="M6.5,8.7c0,0-1,0.7-1.5,1.3s-0.5,0.8-0.5,0.8L4.8,11c0,0,0.5-1,1.2-1.4s0.8-0.7,0.8-0.7L6.5,8.7z"/>
	<g>
		<path class="st1" d="M4.3,6.7c0,0-0.3,0.9-1.1,1.3C3.2,8,4.4,7.9,4.3,6.7z"/>
		<path class="st1" d="M12.2,6.7c0,0,0.3,0.9,1.1,1.3C13.3,8,12.1,7.9,12.2,6.7z"/>
		<path class="st1" d="M10.1,8.4c0,0-0.7-0.8-1.7-0.8h0h0c-1,0-1.7,0.8-1.7,0.8c0.9-0.6,1.6-0.6,1.7-0.6C8.3,7.8,9.2,7.8,10.1,8.4z"
			/>
		<path class="st1" d="M9.2,6.8c0,0-0.4-0.5-0.9-0.5h0h0C8,6.3,7.5,6.8,7.5,6.8c0.4-0.4,0.9-0.4,0.9-0.4S8.8,6.4,9.2,6.8z"/>
		<path class="st1" d="M4.9,10.6c0,0-0.6,0.3-1,0.1h0c-0.4-0.2-0.6-0.8-0.6-0.8S3.7,11,4.9,10.6z"/>
		<path class="st1" d="M11.7,10.6c0,0,0.6,0.3,1,0.1c0.5-0.2,0.6-0.8,0.6-0.8S12.9,11,11.7,10.6z"/>
	</g>
	<path class="st1" d="M5.5,6.6c0.3-0.1,0.9-0.1,1.3,0.1C7.4,6.9,6.9,7.6,7,7.6s0.3-0.5,1.3-0.4c1,0,1.1,0.5,1.3,0.4
		c0.1-0.1-0.1-1.2,1.4-1c0,0-1.6-0.4-1.5,0.7c0,0-0.9-0.7-2.2-0.1C7.3,7.3,7.6,6.2,5.5,6.6z"/>
	<g>
		<path class="st1" d="M11.1,6.6C11.1,6.6,11.1,6.7,11.1,6.6C11.1,6.7,11.1,6.6,11.1,6.6z"/>
		<path class="st1" d="M5.1,5.1c0,0-1.3,1.7-1.5,2.3C3.4,8.1,3.2,10.8,3,11.2L2.4,8.5l1.1-2.8L5.1,5.1z"/>
		<path class="st1" d="M11.5,5.1c0,0,1.3,1.7,1.5,2.3c0.2,0.7,0.3,3.4,0.5,3.8l0.6-2.7L13,5.8L11.5,5.1z"/>
	</g>
	<path class="st3" d="M11.4,5.1c0,0,1.4,1.2,1.9,2.6s0.2,3.1,0.6,3.3c0.5,0.3,1-1.5,1.2-1.7c0.3-0.3,1.2-1.1,1.2-1.2
		c0.1-0.1-1.8-2.2-2.7-2.6C12.6,5.1,11.3,5,11.4,5.1z"/>
	<path class="st4" d="M12.6,5.9c0,0,1.7,2.2,1.7,4.9L15,9.4C15,9.4,14.4,7.6,12.6,5.9z"/>
	<path class="st3" d="M5.1,5.1c0,0-1.4,1.2-1.9,2.6S3,10.8,2.7,11c-0.5,0.3-1-1.5-1.2-1.7C1.2,9.1,0.3,8.3,0.3,8.2
		C0.2,8,2.1,5.9,2.9,5.5C3.9,5.1,5.2,5,5.1,5.1z"/>
	<path class="st4" d="M3.9,5.9c0,0-1.7,2.2-1.7,4.9L1.5,9.4C1.5,9.4,2.1,7.6,3.9,5.9z"/>
	<path class="st1" d="M2.9,10.8c0,0,0.1,0.7,0.3,0.9c0.2,0.2,0.1-0.2,0.1-0.2s-0.2-0.1-0.2-1S2.9,10.8,2.9,10.8z"/>
	<path class="st1" d="M13.6,10.8c0,0-0.1,0.7-0.3,0.9s-0.1-0.2-0.1-0.2s0.2-0.1,0.2-1S13.6,10.8,13.6,10.8z"/>
	<g>
		<circle class="st4" cx="7" cy="10.3" r="0.1"/>
		<circle class="st4" cx="6.5" cy="10.9" r="0.1"/>
		<circle class="st4" cx="6.3" cy="10.3" r="0.1"/>
	</g>
	<g>
		<circle class="st4" cx="9.5" cy="10.3" r="0.1"/>
		<circle class="st4" cx="10" cy="10.9" r="0.1"/>
		<circle class="st4" cx="10.2" cy="10.3" r="0.1"/>
	</g>
</g>
</svg>
