<?xml version="1.0" encoding="utf-8"?>
<!-- Generator: Adobe Illustrator 24.0.3, SVG Export Plug-In . SVG Version: 6.00 Build 0)  -->
<svg version="1.1" id="Capa_1" xmlns="http://www.w3.org/2000/svg" xmlns:xlink="http://www.w3.org/1999/xlink" x="0px" y="0px"
	 viewBox="0 0 16 16" style="enable-background:new 0 0 16 16;" xml:space="preserve">
<style type="text/css">
	.st0{fill:#333333;}
	.st1{fill:#FF731E;}
</style>
<g>
	<path class="st0" d="M8,0C7.9,0,7.7,0.1,7.6,0.2L7.4,0.4c0,0,0,0,0,0c-0.4,0.4-0.6,1-0.9,2.1c0,0,0,0.1,0,0.1
		c-0.1,0-0.2-0.1-0.3-0.1C6,2.5,5.6,2.5,5.4,2.5c-0.1,0-0.2,0-0.3,0c0,0,0,0,0,0C4.9,2.6,4.8,2.7,4.7,2.9C4.6,3.3,4.8,3.5,5,3.8
		C5.1,3.9,5.2,4,5.2,4.2C5,4.2,4.9,4.4,4.9,4.5C4.8,4.6,4.7,4.7,4.7,4.8C4.5,5.1,4.4,5.3,4.4,5.6c0,0,0,0,0,0c0,0.1-0.1,0.3-0.1,0.5
		C4.1,5.9,3.9,5.9,3.8,5.9C3.6,5.9,3.3,6,3.1,6.4c0,0,0,0,0,0C3.1,6.6,3,6.6,3,6.7C2.8,7.2,2.7,7.6,2.7,8.8c0,0.1,0,0.3,0,0.4
		C2.4,9.2,2.1,9.4,2,9.7c0,0.1,0,0.2,0,0.4c0,0.5,0.1,1.1,0.3,1.7c0.2,1.3,0.9,2.4,2,3.2c1,0.7,2.3,1,3.8,1c1.5,0,2.8-0.4,3.8-1
		c1.1-0.7,1.8-1.8,2-3.2c0.2-1.1,0.1-2.3-0.4-3.4c-0.1-0.3-0.3-0.8-0.8-0.8c0,0-0.1,0-0.1,0c0.1-0.2,0.1-0.4,0.2-0.5c0,0,0,0,0,0
		c0.1-0.2,0.1-0.4,0-0.6c-0.1-0.1-0.2-0.3-0.6-0.3c-0.1,0-0.1,0-0.2,0c0-0.1,0-0.2,0-0.3c0,0,0,0,0,0c0-1.1-0.1-1.5-0.3-2
		c0,0,0-0.1,0-0.1c0,0,0,0,0,0l0,0c-0.1-0.1-0.1-0.3-0.1-0.4c-0.1-0.2-0.1-0.3-0.2-0.4c-0.1-0.1-0.3-0.2-0.5-0.2c0,0,0,0,0,0
		c-0.1,0-0.2,0-0.3,0.1C10.3,2.7,10.2,2.4,9.9,2c0,0,0,0,0,0C9.8,1.8,9.7,1.7,9.6,1.5C9.5,1.4,9.3,1.2,9,1.2c-0.1,0-0.2,0-0.3,0.1
		l0-0.7c0-0.2-0.2-0.4-0.4-0.5C8.2,0,8.1,0,8,0L8,0z"/>
	<path class="st1" d="M13,8.6c-0.2-0.6-0.4-0.6-0.3,0.1c0,0.6-0.1,0.9-0.3,1c-0.3,0.1-0.5-0.2-0.5-0.9c0-0.9,0.1-1.5,0.4-2
		c0-0.1-0.3,0-0.6,0.1C11.5,7,11.3,7,11.3,7c0,0,0.1-0.4,0.1-1.1c0-1.2-0.2-1.4-0.3-1.9c-0.1-0.3-0.2-0.5-0.2-0.6
		c-0.1-0.1-0.2,0.1-0.2,0.4c0,0.1,0,0.3,0,0.4c0,0.3-0.2,0.1-0.3-0.2c-0.1-0.5-0.4-0.9-0.8-1.7C9.1,1.7,8.9,1.6,9,1.9
		C9.3,3.4,9.3,4.1,9,4.3c-0.1,0.1-0.1,0.1-0.3,0C8.7,4.2,8.5,3.9,8.4,3.5C8.1,2.8,8.1,2.7,8.1,1.7l0-1.1L7.8,0.9
		C7.5,1.2,7.3,1.6,7.1,2.7C7,3.1,6.9,3.5,6.9,3.5c0,0-0.1,0-0.2-0.1C6.5,3.3,5.5,3,5.3,3.1c-0.1,0-0.1,0.1,0.2,0.4
		c0.6,0.9,1,2.3,0.7,2.5C6,6.2,5.9,6.1,5.5,4.8c0-0.1-0.1-0.1-0.1-0.1c-0.1,0-0.4,0.6-0.5,1C4.8,6.1,4.7,7.2,4.7,7.8
		c0,0.3,0,0.4-0.1,0.4C4.4,8.2,4.1,7.5,4,7C3.9,6.7,3.8,6.5,3.8,6.5c0,0-0.1,0.1-0.1,0.2C3.4,7.3,3.3,7.4,3.3,8.8
		c0,0.8,0.1,1.5,0.1,1.5c0,0-0.2-0.1-0.3-0.3c-0.4-0.4-0.5-0.4-0.5,0c0,0.4,0.1,1,0.3,1.6c0.3,2.5,2.5,3.7,5.2,3.7
		c2.7,0,4.9-1.2,5.2-3.7C13.5,10.8,13.4,9.7,13,8.6z"/>
	<path class="st0" d="M11.6,11.2c0.1,0.1,0.1,0.3,0.1,0.6c0,0.7-0.3,1-1,1.2c-0.8,0.2-1.5,0.2-2.2-0.1c-0.3-0.1-0.4-0.2-0.2-0.3
		c0.1,0,0.5-0.3,1-0.6C11,10.9,11.3,10.8,11.6,11.2z"/>
	<path class="st0" d="M5.7,11.9c1.4,0.8,1.4,0.8,0.3,0.8c-1,0-1.5-0.2-1.7-0.7c-0.1-0.2,0-0.7,0.1-0.7C4.4,11.2,5,11.6,5.7,11.9z"/>
</g>
</svg>
