<?xml version="1.0" encoding="utf-8"?>
<!-- Generator: Adobe Illustrator 24.0.3, SVG Export Plug-In . SVG Version: 6.00 Build 0)  -->
<svg version="1.1" id="Capa_1" xmlns="http://www.w3.org/2000/svg" xmlns:xlink="http://www.w3.org/1999/xlink" x="0px" y="0px"
	 viewBox="0 0 16 16" style="enable-background:new 0 0 16 16;" xml:space="preserve">
<style type="text/css">
	.st0{fill:#3FA9F5;}
	.st1{fill:#F4FF1F;}
</style>
<g>
	<path class="st0" d="M7.9,0C3.9,0,4.1,1.8,4.1,1.8v1.8H8v0.6H2.6C2.6,4.2,0,3.9,0,8s2.3,4,2.3,4h1.3V10c0,0-0.1-2.3,2.2-2.3h3.9
		c0,0,2.2,0,2.2-2.1V2.1C11.9,2.1,12.2,0,7.9,0L7.9,0L7.9,0z M5.8,1.2c0.4,0,0.7,0.3,0.7,0.7c0,0.4-0.3,0.7-0.7,0.7S5.1,2.3,5.1,2
		c0,0,0,0,0,0v0C5.1,1.6,5.4,1.2,5.8,1.2L5.8,1.2L5.8,1.2z"/>
	<path class="st1" d="M8,16c4.1,0,3.8-1.8,3.8-1.8v-1.8H8v-0.6h5.4c0,0,2.6,0.3,2.6-3.8s-2.3-4-2.3-4h-1.3v1.9c0,0,0.1,2.3-2.2,2.3
		H6.3c0,0-2.2,0-2.2,2.1v3.5C4.1,13.9,3.8,16,8,16L8,16L8,16z M10.2,14.8c-0.4,0-0.7-0.3-0.7-0.7c0-0.4,0.3-0.7,0.7-0.7
		c0.4,0,0.7,0.3,0.7,0.7c0,0,0,0,0,0v0C10.9,14.5,10.5,14.8,10.2,14.8L10.2,14.8L10.2,14.8L10.2,14.8z"/>
</g>
</svg>
