<?xml version="1.0" encoding="utf-8"?>
<!-- Generator: Adobe Illustrator 24.0.3, SVG Export Plug-In . SVG Version: 6.00 Build 0)  -->
<svg version="1.1" id="Capa_1" xmlns="http://www.w3.org/2000/svg" xmlns:xlink="http://www.w3.org/1999/xlink" x="0px" y="0px"
	 viewBox="0 0 16 16" style="enable-background:new 0 0 16 16;" xml:space="preserve">
<style type="text/css">
	.st0{fill:#FF731E;}
	.st1{fill:#7AC943;}
</style>
<g>
	<path id="pz66A2Mbc" class="st0" d="M0,12V8h4h4V4V0h4h4v8v8H8H0V12z"/>
	<path class="st1" d="M0.6,6.2c0.3,0,0.6-0.3,0.6-0.6V2.1l4.7,4.7c0.2,0.2,0.6,0.2,0.9,0c0.2-0.2,0.2-0.6,0-0.9L2.1,1.2h3.4
		c0.3,0,0.6-0.3,0.6-0.6S5.9,0,5.6,0H0.6C0.3,0,0,0.3,0,0.6v4.9C0,5.9,0.3,6.2,0.6,6.2z"/>
</g>
</svg>
