<?xml version="1.0" encoding="utf-8"?>
<!-- Generator: Adobe Illustrator 24.0.3, SVG Export Plug-In . SVG Version: 6.00 Build 0)  -->
<svg version="1.1" id="Capa_1" xmlns="http://www.w3.org/2000/svg" xmlns:xlink="http://www.w3.org/1999/xlink" x="0px" y="0px"
	 viewBox="0 0 16 16" style="enable-background:new 0 0 16 16;" xml:space="preserve">
<style type="text/css">
	.st0{fill:#FF731E;}
	.st1{fill:#926DCC;}
</style>
<g>
	<path id="pz66A2Mbc_1_" class="st0" d="M0,12V8h4h4V4V0h4h4v8v8H8H0V12z"/>
	<path class="st1" d="M3.5,0C1.6,0,0,1.6,0,3.5S1.6,7,3.5,7S7,5.4,7,3.5C7,1.6,5.4,0,3.5,0z M3.5,6.2C2,6.2,0.8,5,0.8,3.5
		S2,0.8,3.5,0.8S6.2,2,6.2,3.5C6.2,5,5,6.2,3.5,6.2z M5.7,3.5c0,0.2-0.2,0.4-0.4,0.4H3.5c-0.2,0-0.4-0.2-0.4-0.4V1.7
		c0-0.2,0.2-0.4,0.4-0.4c0.2,0,0.4,0.2,0.4,0.4v1.4h1.4C5.5,3.1,5.7,3.3,5.7,3.5z"/>
</g>
</svg>
