<?xml version="1.0" encoding="utf-8"?>
<!-- Generator: Adobe Illustrator 24.0.3, SVG Export Plug-In . SVG Version: 6.00 Build 0)  -->
<svg version="1.1" id="Capa_1" xmlns="http://www.w3.org/2000/svg" xmlns:xlink="http://www.w3.org/1999/xlink" x="0px" y="0px"
	 viewBox="0 0 16 16" style="enable-background:new 0 0 16 16;" xml:space="preserve">
<style type="text/css">
	.st0{fill:#F2F2F2;}
</style>
<path class="st0" d="M16,7.5c0-2.9-3.6-5.3-8-5.3c-4.4,0-8,2.4-8,5.3c0,2.5,2.7,4.7,6.2,5.2v1.2h2.3v-1.1c1,0,2-0.2,2.9-0.5l1.1,1.5
	h2.5v-0.1l-1.6-2.3C14.9,10.5,16,9.1,16,7.5z M3.2,7.9c0-2,2.7-3.7,6.1-3.7s6.1,1.6,6.1,3.7c0,1.2-1,2.3-2.6,3l-0.3-0.5
	c0.7-0.2,1.2-0.5,1.5-0.9c0.3-0.4,0.5-0.9,0.5-1.4c0-0.8-0.4-1.4-1.1-1.9c-0.7-0.4-1.7-0.7-3-0.7H6.2V11C4.4,10.4,3.2,9.2,3.2,7.9z
	 M11.7,9.1c-0.3,0.2-0.8,0.3-1.3,0.3H8.5V6.9h1.8c0.6,0,1.1,0.1,1.4,0.3c0.3,0.2,0.4,0.5,0.4,0.9C12.2,8.5,12,8.8,11.7,9.1z
	 M9.3,11.5c-0.3,0-0.5,0-0.8,0v-0.7h1.8l0.4,0.6C10.3,11.5,9.8,11.5,9.3,11.5z"/>
</svg>
