<?xml version="1.0" encoding="utf-8"?>
<!-- Generator: Adobe Illustrator 24.0.3, SVG Export Plug-In . SVG Version: 6.00 Build 0)  -->
<svg version="1.1" id="Capa_1" xmlns="http://www.w3.org/2000/svg" xmlns:xlink="http://www.w3.org/1999/xlink" x="0px" y="0px"
	 viewBox="0 0 16 16" style="enable-background:new 0 0 16 16;" xml:space="preserve">
<style type="text/css">
	.st0{fill:#BDCCD4;}
	.st1{fill:#926DCC;}
	.st2{fill:#7AC943;}
	.st3{fill:#FF731E;}
</style>
<g>
	<path class="st0" d="M10.5,5.2V4.3H9.5c-0.7,0-1.2,0.6-1.2,1.2v4.9c0,0.7,0.6,1.2,1.2,1.2h0.9v-0.9c0-0.7,0.6-1.2,1.2-1.2h3.1
		c0.7,0,1.2,0.6,1.2,1.2v3.1c0,0.7-0.6,1.2-1.2,1.2h-3.1c-0.7,0-1.2-0.6-1.2-1.2v-0.9H9.5c-1.4,0-2.5-1.1-2.5-2.5V8.6H4.9v0.6
		c0,0.7-0.6,1.2-1.2,1.2H1.2C0.6,10.5,0,9.9,0,9.2V6.8c0-0.7,0.6-1.2,1.2-1.2h2.5c0.7,0,1.2,0.6,1.2,1.2v0.6h2.2V5.5
		c0-1.4,1.1-2.5,2.5-2.5h0.9V2.2c0-0.7,0.6-1.2,1.2-1.2h3.1c0.7,0,1.2,0.6,1.2,1.2v3.1c0,0.7-0.6,1.2-1.2,1.2h-3.1
		C11,6.5,10.5,5.9,10.5,5.2z"/>
	<path class="st1" d="M3.7,10.5H1.2C0.5,10.5,0,9.9,0,9.2V6.8c0-0.7,0.5-1.2,1.2-1.2h2.5c0.7,0,1.2,0.5,1.2,1.2v2.5
		C4.9,9.9,4.4,10.5,3.7,10.5z"/>
	<path class="st2" d="M14.8,6.5h-3.1c-0.7,0-1.2-0.5-1.2-1.2V2.1c0-0.7,0.5-1.2,1.2-1.2h3.1c0.7,0,1.2,0.5,1.2,1.2v3.1
		C16,5.9,15.5,6.5,14.8,6.5z"/>
	<path class="st3" d="M14.8,15.1h-3.1c-0.7,0-1.2-0.5-1.2-1.2v-3.1c0-0.7,0.5-1.2,1.2-1.2h3.1c0.7,0,1.2,0.5,1.2,1.2v3.1
		C16,14.5,15.5,15.1,14.8,15.1z"/>
</g>
</svg>
