<?xml version="1.0" encoding="utf-8"?>
<!-- Generator: Adobe Illustrator 24.0.3, SVG Export Plug-In . SVG Version: 6.00 Build 0)  -->
<svg version="1.1" id="Capa_1" xmlns="http://www.w3.org/2000/svg" xmlns:xlink="http://www.w3.org/1999/xlink" x="0px" y="0px"
	 viewBox="0 0 16 16" style="enable-background:new 0 0 16 16;" xml:space="preserve">
<style type="text/css">
	.st0{fill:#FF731E;}
	.st1{fill:#FF7BAC;}
	.st2{fill:#7AC943;}
	.st3{fill:#3FA9F5;}
</style>
<g>
	<path class="st0" d="M1.2,12.2c0-0.1,0-0.2,0-0.3c0-3.7,3-6.8,6.8-6.8s6.8,3,6.8,6.8c0,0.1,0,0.2,0,0.3H16c0-0.1,0-0.2,0-0.3
		c0-4.4-3.6-8-8-8s-8,3.6-8,8c0,0.1,0,0.2,0,0.3H1.2z"/>
	<path class="st1" d="M2.5,12.2c0-0.1,0-0.2,0-0.3c0-3.1,2.5-5.5,5.5-5.5s5.5,2.5,5.5,5.5c0,0.1,0,0.2,0,0.3h1.2c0-0.1,0-0.2,0-0.3
		c0-3.7-3-6.8-6.8-6.8s-6.8,3-6.8,6.8c0,0.1,0,0.2,0,0.3H2.5z"/>
	<path class="st2" d="M3.7,12.2c0-0.1,0-0.2,0-0.3c0-2.4,1.9-4.3,4.3-4.3s4.3,1.9,4.3,4.3c0,0.1,0,0.2,0,0.3h1.2c0-0.1,0-0.2,0-0.3
		c0-3.1-2.5-5.5-5.5-5.5s-5.5,2.5-5.5,5.5c0,0.1,0,0.2,0,0.3H3.7z"/>
	<path class="st3" d="M4.9,12.2c0-0.1,0-0.2,0-0.3c0-1.7,1.4-3.1,3.1-3.1s3.1,1.4,3.1,3.1c0,0.1,0,0.2,0,0.3h1.2c0-0.1,0-0.2,0-0.3
		c0-2.4-1.9-4.3-4.3-4.3s-4.3,1.9-4.3,4.3c0,0.1,0,0.2,0,0.3C3.7,12.2,4.9,12.2,4.9,12.2z"/>
</g>
</svg>
