<?xml version="1.0" encoding="utf-8"?>
<!-- Generator: Adobe Illustrator 24.0.3, SVG Export Plug-In . SVG Version: 6.00 Build 0)  -->
<svg version="1.1" id="Capa_1" xmlns="http://www.w3.org/2000/svg" xmlns:xlink="http://www.w3.org/1999/xlink" x="0px" y="0px"
	 viewBox="0 0 16 16" style="enable-background:new 0 0 16 16;" xml:space="preserve">
<style type="text/css">
	.st0{fill:#333333;}
	.st1{fill:#3FA9F5;}
	.st2{fill:#E74C3C;}
	.st3{fill:#7AC943;}
	.st4{fill:#F0DB4F;}
</style>
<g>
	<path class="st0" d="M14.2,0H1.8C0.8,0,0,0.8,0,1.8v12.4c0,1,0.8,1.8,1.8,1.8l0,0h12.4c1,0,1.8-0.8,1.8-1.8l0,0V1.8
		C16,0.8,15.2,0,14.2,0z"/>
	<g>
		<path class="st1" d="M1.9,9.8h2.6V6.2H1.9c-0.2,0-0.5,0.1-0.6,0.3C1.1,6.7,1,6.9,1,7.1v1.8c0,0.2,0.1,0.5,0.3,0.6
			C1.4,9.7,1.6,9.8,1.9,9.8z"/>
		<path class="st2" d="M1.9,5.4h2.6c0-0.3,0.1-0.6,0.2-0.9C4.9,4.2,5.1,4,5.4,3.9v-2H1.9C1.6,1.9,1.4,2,1.3,2.1C1.1,2.3,1,2.5,1,2.8
			v1.8C1,4.7,1.1,5,1.3,5.1C1.4,5.3,1.6,5.4,1.9,5.4z"/>
		<path class="st3" d="M4.7,11.5c-0.2-0.3-0.2-0.6-0.2-0.9H1.9c-0.2,0-0.5,0.1-0.6,0.3C1.1,11.1,1,11.3,1,11.5v1.8
			c0,0.2,0.1,0.5,0.3,0.6c0.2,0.2,0.4,0.3,0.6,0.3h3.5v-2C5.1,12,4.9,11.8,4.7,11.5z"/>
		<path class="st4" d="M10.6,5.4c0-0.2-0.1-0.5-0.3-0.6C10.2,4.6,10,4.5,9.8,4.5V1.9c0-0.2-0.1-0.5-0.3-0.6C9.3,1.1,9.1,1,8.9,1H7.1
			C6.9,1,6.7,1.1,6.5,1.3C6.3,1.4,6.2,1.6,6.2,1.9v2.6C6,4.5,5.8,4.6,5.6,4.8C5.5,4.9,5.4,5.1,5.4,5.4v5.2c0,0.2,0.1,0.5,0.3,0.6
			c0.2,0.2,0.4,0.3,0.6,0.3v2.6c0,0.2,0.1,0.5,0.3,0.6C6.7,14.9,6.9,15,7.1,15h1.8c0.2,0,0.5-0.1,0.6-0.3c0.2-0.2,0.3-0.4,0.3-0.6
			v-2.6c0.2,0,0.4-0.1,0.6-0.3c0.2-0.2,0.3-0.4,0.3-0.6V5.4z M9.8,9.8c0,0.2-0.1,0.5-0.3,0.6c-0.2,0.2-0.4,0.3-0.6,0.3H7.1
			c-0.2,0-0.5-0.1-0.6-0.3C6.3,10.2,6.2,10,6.2,9.8V6.2c0-0.2,0.1-0.4,0.3-0.6c0.2-0.2,0.4-0.3,0.6-0.3v1.8c0,0.2,0.1,0.5,0.3,0.6
			C7.5,7.9,7.8,8,8,8s0.5-0.1,0.6-0.3c0.2-0.2,0.3-0.4,0.3-0.6V5.4c0.2,0,0.5,0.1,0.6,0.3C9.7,5.8,9.8,6,9.8,6.2V9.8z"/>
		<path class="st3" d="M14.1,10.6h-2.6c0,0.3-0.1,0.6-0.2,0.9c-0.2,0.3-0.4,0.5-0.6,0.6v2h3.5c0.2,0,0.4-0.1,0.6-0.3
			c0.2-0.2,0.3-0.4,0.3-0.6v-1.8c0-0.2-0.1-0.4-0.3-0.6C14.6,10.7,14.4,10.6,14.1,10.6z"/>
		<path class="st1" d="M14.1,6.2h-2.6v3.5h2.6c0.2,0,0.4-0.1,0.6-0.3C14.9,9.3,15,9.1,15,8.9V7.1c0-0.2-0.1-0.4-0.3-0.6
			C14.6,6.3,14.4,6.2,14.1,6.2z"/>
		<path class="st2" d="M14.7,2.1c-0.2-0.2-0.4-0.3-0.6-0.3h-3.5v2c0.3,0.2,0.5,0.4,0.6,0.6c0.2,0.3,0.2,0.6,0.2,0.9h2.6
			c0.2,0,0.4-0.1,0.6-0.3C14.9,5,15,4.7,15,4.5V2.8C15,2.5,14.9,2.3,14.7,2.1z"/>
	</g>
</g>
</svg>
