<?xml version="1.0" encoding="utf-8"?>
<!-- Generator: Adobe Illustrator 24.0.3, SVG Export Plug-In . SVG Version: 6.00 Build 0)  -->
<svg version="1.1" id="Capa_1" xmlns="http://www.w3.org/2000/svg" xmlns:xlink="http://www.w3.org/1999/xlink" x="0px" y="0px"
	 viewBox="0 0 16 16" style="enable-background:new 0 0 16 16;" xml:space="preserve">
<style type="text/css">
	.st0{fill:#F37426;}
</style>
<g>
	<path class="st0" d="M16,8c0,1.3-0.3,2.5-0.8,3.5h-3.8c0.3-0.2,0.5-0.5,0.7-0.8l0,0l0.1-0.2c0,0,0-0.1,0.1-0.1L15.4,5
		C15.8,5.9,16,6.9,16,8L16,8z"/>
	<path class="st0" d="M3.9,5.3L3.8,5.5c0,0,0,0.1-0.1,0.1L0.6,11C0.2,10.1,0,9.1,0,8c0-1.3,0.3-2.5,0.8-3.5h3.8
		C4.3,4.7,4.1,5,3.9,5.3L3.9,5.3z"/>
	<path class="st0" d="M14.6,3.5l-1.9,3.3c-0.1-0.5-0.4-1.1-0.7-1.5L9,0C11.4,0.4,13.4,1.7,14.6,3.5L14.6,3.5z"/>
	<path class="st0" d="M7.4,0l1.9,3.2C8.9,3.1,8.6,3.1,8.2,3.1l-6.5,0C3,1.3,5.1,0.2,7.4,0L7.4,0z"/>
	<path class="st0" d="M1.4,12.5l1.9-3.3c0.1,0.3,0.2,0.7,0.4,1l3.3,5.7C4.6,15.6,2.6,14.3,1.4,12.5L1.4,12.5z"/>
	<path class="st0" d="M8.6,16l-1.9-3.3c0.3,0.1,0.6,0.1,1,0.2l6.6,0C13,14.7,10.9,15.8,8.6,16L8.6,16z"/>
</g>
</svg>
