<?xml version="1.0" encoding="utf-8"?>
<!-- Generator: Adobe Illustrator 24.0.3, SVG Export Plug-In . SVG Version: 6.00 Build 0)  -->
<svg version="1.1" id="Capa_1" xmlns="http://www.w3.org/2000/svg" xmlns:xlink="http://www.w3.org/1999/xlink" x="0px" y="0px"
	 viewBox="0 0 16 16" style="enable-background:new 0 0 16 16;" xml:space="preserve">
<style type="text/css">
	.st0{fill:#FF731E;}
	.st1{fill:#F2F2F2;}
</style>
<g>
	<polygon class="st0" points="1,0 2.5,14.4 8,16 13.5,14.4 15,0 	"/>
	<path class="st1" d="M12.3,10.9h1.1c-0.4,0.7-0.9,1.3-1.6,1.7c-0.8,0.5-1.9,0.7-3.1,0.7c-1.2,0-2.2-0.2-3.1-0.6
		c-0.9-0.4-1.5-1-1.9-1.8c-0.4-0.8-0.6-1.6-0.6-2.5c0-1,0.2-1.9,0.7-2.8c0.5-0.9,1.1-1.5,2-2S7.5,3,8.6,3c0.9,0,1.7,0.2,2.4,0.5
		c0.7,0.4,1.2,0.8,1.6,1.5c0.4,0.6,0.6,1.4,0.6,2.1c0,0.9-0.3,1.7-0.8,2.5c-0.7,0.9-1.6,1.4-2.7,1.4c-0.3,0-0.5-0.1-0.7-0.2
		c-0.2-0.1-0.3-0.3-0.3-0.5C8.2,10.8,7.7,11,7.2,11c-0.6,0-1.1-0.2-1.5-0.6c-0.4-0.4-0.6-1-0.6-1.6c0-0.8,0.2-1.6,0.7-2.3
		C6.4,5.6,7.1,5.2,8,5.2c0.6,0,1.1,0.2,1.4,0.7l0.1-0.6H11l-0.8,3.8c-0.1,0.2-0.1,0.4-0.1,0.5c0,0.1,0,0.2,0.1,0.2
		c0,0,0.1,0.1,0.1,0.1c0.2,0,0.4-0.1,0.7-0.3c0.4-0.3,0.7-0.6,0.9-1.1c0.2-0.5,0.3-0.9,0.3-1.4c0-0.9-0.3-1.6-1-2.2
		C10.6,4.3,9.7,4,8.6,4c-1,0-1.8,0.2-2.5,0.6C5.4,5,4.9,5.5,4.6,6.2C4.2,6.9,4.1,7.7,4.1,8.5c0,0.8,0.2,1.4,0.6,2.1
		c0.4,0.6,0.9,1.1,1.6,1.4c0.7,0.3,1.5,0.4,2.4,0.4c0.9,0,1.6-0.1,2.2-0.4C11.4,11.7,11.9,11.4,12.3,10.9z M6.5,8.7
		c0,0.5,0.1,0.8,0.3,1C7,9.9,7.2,10,7.5,10C7.7,10,7.8,10,8,9.9c0.1-0.1,0.3-0.2,0.4-0.3c0.2-0.2,0.4-0.5,0.5-1
		c0.1-0.4,0.2-0.8,0.2-1.2C9.1,7,9,6.7,8.8,6.5C8.7,6.2,8.4,6.1,8.1,6.1c-0.3,0-0.6,0.1-0.9,0.4C7,6.7,6.8,7.1,6.7,7.5
		C6.6,7.9,6.5,8.3,6.5,8.7z"/>
</g>
</svg>
