<?xml version="1.0" encoding="utf-8"?>
<!-- Generator: Adobe Illustrator 24.0.3, SVG Export Plug-In . SVG Version: 6.00 Build 0)  -->
<svg version="1.1" id="Capa_1" xmlns="http://www.w3.org/2000/svg" xmlns:xlink="http://www.w3.org/1999/xlink" x="0px" y="0px"
	 viewBox="0 0 16 16" style="enable-background:new 0 0 16 16;" xml:space="preserve">
<style type="text/css">
	.st0{fill:#CCCCCC;}
	.st1{fill:#4D4D4D;}
	.st2{fill:#7AC943;}
</style>
<g>
	<path id="_x30_2_15_" class="st0" d="M10.4,0H3.7c-1.1,0-2,0.9-2,2v12c0,1.1,0.9,2,2,2h8.7c1.1,0,2-0.9,2-2V3.9L10.4,0z"/>
	<g>
		<path id="_x30_2_14_" class="st1" d="M10.1,0.7l3.5,3.5V14c0,0.7-0.6,1.3-1.3,1.3H3.7c-0.7,0-1.3-0.6-1.3-1.3V2
			c0-0.7,0.6-1.3,1.3-1.3H10.1 M10.4,0H3.7c-1.1,0-2,0.9-2,2v12c0,1.1,0.9,2,2,2h8.7c1.1,0,2-0.9,2-2V3.9L10.4,0L10.4,0z"/>
		<path id="_x30_2_13_" class="st1" d="M10.2,2V0l4.1,4.1h-2C11.2,4.1,10.2,3.2,10.2,2z"/>
	</g>
	<g>
		<path class="st1" d="M12.1,4.5H9.4c-0.5,0-1,0.2-1.4,0.6C7.6,4.7,7.1,4.5,6.6,4.5H3.9C3.4,4.5,3,4.9,3,5.4v5.5
			c0,0.5,0.4,0.9,0.9,0.9h2.8c0.5,0,0.9,0.4,0.9,0.9c0,0.3,0.2,0.5,0.5,0.5s0.5-0.2,0.5-0.5l0,0c0-0.5,0.4-0.9,0.9-0.9h2.8
			c0.5,0,0.9-0.4,0.9-0.9V5.4C13,4.9,12.6,4.5,12.1,4.5z M6.6,10.7H4V5.5h2.6c0.5,0,0.9,0.4,0.9,0.9v4.5C7.2,10.8,6.9,10.7,6.6,10.7
			z M12,10.7H9.4c-0.3,0-0.6,0.1-0.9,0.2V6.4c0-0.5,0.4-0.9,0.9-0.9H12V10.7z"/>
		<path class="st2" d="M9.6,6.7h1.4c0.3,0,0.5,0.2,0.5,0.5c0,0.3-0.2,0.5-0.5,0.5H9.6C9.3,7.8,9,7.5,9,7.3C9,7,9.3,6.7,9.6,6.7z"/>
		<path class="st2" d="M11.4,9c0,0.3-0.2,0.5-0.5,0.5H9.6C9.3,9.5,9,9.3,9,9c0-0.3,0.2-0.5,0.5-0.5h1.4C11.2,8.5,11.4,8.7,11.4,9z"
			/>
	</g>
</g>
</svg>
