<?xml version="1.0" encoding="utf-8"?>
<!-- Generator: Adobe Illustrator 24.0.3, SVG Export Plug-In . SVG Version: 6.00 Build 0)  -->
<svg version="1.1" id="Capa_1" xmlns="http://www.w3.org/2000/svg" xmlns:xlink="http://www.w3.org/1999/xlink" x="0px" y="0px"
	 viewBox="0 0 16 16" style="enable-background:new 0 0 16 16;" xml:space="preserve">
<style type="text/css">
	.st0{fill:#3FA9F5;}
</style>
<g id="l51kg5dTM2Np9DxeA9W3CsJ_2_">
	<g>
		<path id="pBbuZcI4q_2_" class="st0" d="M0,8V4.1h2.5c1.5,0,2.6,0,2.7,0c0.6,0.1,1.1,0.3,1.5,0.6c0.5,0.4,0.7,1,0.7,1.8
			c0,0.2,0,0.3,0,0.4c0,0.1,0.1,0.2,0.2,0.3c0.1,0.1,0.2,0.1,1.1,0.1c0.4,0,0.8,0,0.8,0c0,0,0,0.2,0,0.8v0.8H8.5
			c-1.1,0-1.4,0-1.8-0.1C6.1,8.5,5.6,8.2,5.3,7.8C5.1,7.5,5,7.1,4.9,6.7c0-0.1,0-0.2,0-0.3C4.8,6.2,4.6,6.1,4.2,6C4.1,6,4,6,3.2,6
			L2.4,6v0.5v1h0.8c0.4,0,0.8,0,0.9,0c0.3,0,0.5-0.1,0.6-0.2c0.1-0.1,0.1-0.1,0.1-0.1C4.9,7.5,5,7.7,5.1,7.9
			c0.1,0.2,0.4,0.4,0.6,0.6C6,8.6,6.4,8.8,6.7,8.9l0.2,0L7,9C7,9.2,7.1,9.4,7.2,9.6c0.1,0.2,0.1,0.6,0.1,1c0,0.6,0.1,0.9,0.2,1.1
			c0,0.1,0,0.1,0,0.1c0,0-0.5,0-1.2,0H5.2l0,0c0-0.1-0.1-0.4-0.1-0.6c0-0.1,0-0.3-0.1-0.5c-0.1-0.6-0.1-0.8-0.2-1.1
			C4.7,9.5,4.6,9.4,4.4,9.3C4.2,9.2,4.2,9.2,3.2,9.2H2.4v1.4v1.4H1.2H0V8z"/>
		<path id="pPPtDlFFL_2_" class="st0" d="M7.8,11.8c-0.1-0.2-0.2-0.6-0.2-1.3c0-0.2,0-0.4-0.1-0.5l0-0.1h2.7c1.8,0,2.8,0,2.9,0
			c0.3,0,0.5-0.1,0.6-0.3c0-0.1,0-0.1,0-0.3c0-0.2,0-0.2,0-0.3c-0.1-0.1-0.1-0.2-0.3-0.2c-0.1,0-0.3-0.1-0.7-0.1h-0.4V8.3V7.9V7.2
			c0,0,0.2,0,0.9,0c0.4,0,0.6,0,0.8,0c1.1,0.2,1.7,0.6,2,1.3C16,8.9,16,9,16,9.4c0,0.3,0,0.4,0,0.5c0,0.2-0.1,0.5-0.2,0.6
			c-0.4,0.8-1.2,1.3-2.6,1.4c-0.1,0-1.2,0-2.8,0L7.8,11.8L7.8,11.8z"/>
		<path id="pqXKps3df_2_" class="st0" d="M9.6,7.9V6.1H8.8c-0.8,0-0.9,0-1,0c-0.1,0-0.2,0-0.2,0c0,0,0-0.1,0-0.1
			c0-0.6-0.3-1.2-0.8-1.6C6.6,4.4,6.5,4.4,6.5,4.4c0,0,0.3-0.1,0.5-0.1c0.5-0.1,0.2-0.1,4.7-0.1l4.1,0l-0.1,0.1c0,0-0.1,0.1-0.2,0.2
			c-0.3,0.3-0.5,0.6-0.7,0.9c-0.2,0.3-0.4,0.5-0.5,0.7l-0.1,0.1l-1.1,0h-1.1v0.4v1.9v1.2h-1.2H9.6V7.9z"/>
	</g>
</g>
</svg>
