<?xml version="1.0" encoding="utf-8"?>
<!-- Generator: Adobe Illustrator 24.0.3, SVG Export Plug-In . SVG Version: 6.00 Build 0)  -->
<svg version="1.1" id="Capa_1" xmlns="http://www.w3.org/2000/svg" xmlns:xlink="http://www.w3.org/1999/xlink" x="0px" y="0px"
	 viewBox="0 0 16 16" style="enable-background:new 0 0 16 16;" xml:space="preserve">
<style type="text/css">
	.st0{fill:#FF731E;}
</style>
<path class="st0" d="M7.5,1.9c0-0.3,0.2-0.5,0.5-0.5c0.3,0,0.5,0.2,0.5,0.5S8.2,2.4,8,2.4C7.7,2.4,7.5,2.1,7.5,1.9 M1.8,6.2
	c0-0.3,0.2-0.5,0.5-0.5c0.3,0,0.5,0.2,0.5,0.5c0,0.3-0.2,0.5-0.5,0.5C2,6.7,1.8,6.5,1.8,6.2 M13.2,6.2c0-0.3,0.2-0.5,0.5-0.5
	s0.5,0.2,0.5,0.5s-0.2,0.5-0.5,0.5S13.2,6.5,13.2,6.2L13.2,6.2 M3.2,6.9c0.2-0.1,0.3-0.4,0.2-0.6L3.2,5.8H4v3.7H2.4
	C2.2,8.8,2.1,8.1,2.2,7.3L3.2,6.9z M6.7,7V5.9h2c0.1,0,0.7,0.1,0.7,0.6C9.4,6.8,8.9,7,8.5,7L6.7,7z M4,12.9c0-0.3,0.2-0.5,0.5-0.5
	c0.3,0,0.5,0.2,0.5,0.5c0,0.3-0.2,0.5-0.5,0.5C4.2,13.4,4,13.2,4,12.9 M11,12.9c0-0.3,0.2-0.5,0.5-0.5s0.5,0.2,0.5,0.5
	c0,0.3-0.2,0.5-0.5,0.5S11,13.2,11,12.9 M11.2,11.8c-0.2-0.1-0.5,0.1-0.5,0.3l-0.2,1.1c-1.6,0.7-3.3,0.7-4.9,0l-0.2-1.1
	c-0.1-0.2-0.3-0.4-0.5-0.3l-1,0.2c-0.2-0.2-0.4-0.4-0.5-0.6h4.8c0.1,0,0.1,0,0.1-0.1V9.7c0,0,0-0.1-0.1-0.1H6.7V8.5h1.5
	c0.1,0,0.7,0,0.9,0.8c0.1,0.2,0.2,1,0.3,1.2c0.1,0.3,0.5,0.8,0.8,0.8h2.5c-0.2,0.2-0.3,0.4-0.5,0.6L11.2,11.8z M13.8,7.4
	c0,0.3,0,0.7,0,1h-0.6c-0.1,0-0.1,0-0.1,0.1v0.3c0,0.6-0.4,0.8-0.7,0.8c-0.3,0-0.6-0.1-0.7-0.3c-0.2-1-0.5-1.2-1-1.6
	C11.4,7.3,12,6.7,12,6c0-0.8-0.5-1.3-0.9-1.5C10.6,4.1,10,4,9.9,4H3.6c0.9-1,2-1.6,3.3-1.8L7.6,3c0.2,0.2,0.4,0.2,0.6,0l0.8-0.8
	c1.7,0.3,3.2,1.4,4,2.9l-0.6,1.3c-0.1,0.2,0,0.5,0.2,0.6L13.8,7.4z M15.2,7.4l0-0.2l0.6-0.5c0.1-0.1,0.1-0.3-0.1-0.4L15,6l-0.1-0.2
	l0.5-0.6c0.1-0.1,0-0.3-0.2-0.4l-0.8-0.1l-0.1-0.2l0.3-0.7c0.1-0.1-0.1-0.3-0.2-0.3l-0.8,0l-0.1-0.2l0.2-0.8c0-0.2-0.1-0.3-0.3-0.3
	l-0.8,0.2l-0.2-0.1l0-0.8c0-0.2-0.2-0.3-0.3-0.2l-0.7,0.3l-0.2-0.1l-0.1-0.8c0-0.2-0.2-0.2-0.4-0.2l-0.6,0.5L10,1L9.7,0.3
	C9.7,0.1,9.5,0.1,9.3,0.2L8.8,0.8l-0.2,0L8.2,0.1C8.1,0,7.9,0,7.8,0.1L7.4,0.8l-0.2,0L6.7,0.2C6.5,0.1,6.3,0.1,6.3,0.3L6,1L5.8,1.1
	L5.2,0.6C5,0.5,4.8,0.6,4.8,0.8L4.7,1.6L4.5,1.7L3.8,1.3C3.6,1.3,3.4,1.4,3.4,1.5l0,0.8L3.3,2.5L2.6,2.3c-0.2,0-0.3,0.1-0.3,0.3
	l0.2,0.8L2.3,3.5l-0.8,0c-0.2,0-0.3,0.2-0.2,0.3l0.3,0.7L1.6,4.7L0.8,4.8C0.6,4.8,0.5,5,0.6,5.2l0.5,0.6L1,6L0.3,6.3
	C0.1,6.3,0.1,6.5,0.2,6.7l0.6,0.5l0,0.2L0.1,7.8C0,7.9,0,8.1,0.1,8.2l0.7,0.4l0,0.2L0.2,9.3C0.1,9.5,0.1,9.7,0.3,9.7L1,10l0.1,0.2
	l-0.5,0.6c-0.1,0.1,0,0.3,0.2,0.4l0.8,0.1l0.1,0.2l-0.3,0.7c-0.1,0.1,0.1,0.3,0.2,0.3l0.8,0l0.1,0.2l-0.2,0.8c0,0.2,0.1,0.3,0.3,0.3
	l0.8-0.2l0.2,0.1l0,0.8c0,0.2,0.2,0.3,0.3,0.2l0.7-0.3l0.2,0.1l0.1,0.8c0,0.2,0.2,0.2,0.4,0.2l0.6-0.5L6,15l0.3,0.7
	c0.1,0.1,0.3,0.2,0.4,0.1l0.5-0.6l0.2,0l0.4,0.7c0.1,0.1,0.3,0.1,0.4,0l0.4-0.7l0.2,0l0.5,0.6c0.1,0.1,0.3,0.1,0.4-0.1L10,15
	l0.2-0.1l0.6,0.5c0.1,0.1,0.3,0,0.4-0.2l0.1-0.8l0.2-0.1l0.7,0.3c0.1,0.1,0.3-0.1,0.3-0.2l0-0.8l0.2-0.1l0.8,0.2
	c0.2,0,0.3-0.1,0.3-0.3l-0.2-0.8l0.1-0.2l0.8,0c0.2,0,0.3-0.2,0.2-0.3l-0.3-0.7l0.1-0.2l0.8-0.1c0.2,0,0.2-0.2,0.2-0.4l-0.5-0.6
	L15,10l0.7-0.3c0.2-0.1,0.2-0.3,0.1-0.4l-0.6-0.5l0-0.2l0.7-0.4c0.1-0.1,0.1-0.3,0-0.4L15.2,7.4z"/>
</svg>
