<?xml version="1.0" encoding="utf-8"?>
<!-- Generator: Adobe Illustrator 24.0.3, SVG Export Plug-In . SVG Version: 6.00 Build 0)  -->
<svg version="1.1" id="Capa_1" xmlns="http://www.w3.org/2000/svg" xmlns:xlink="http://www.w3.org/1999/xlink" x="0px" y="0px"
	 viewBox="0 0 16 16" style="enable-background:new 0 0 16 16;" xml:space="preserve">
<style type="text/css">
	.st0{fill:#43B7FF;}
	.st1{fill:#4D4D4D;}
	.st2{opacity:0.2;enable-background:new    ;}
	.st3{fill:#FF4D5E;}
	.st4{opacity:0.15;enable-background:new    ;}
	.st5{fill:#7AC943;}
	.st6{fill:#CCCCCC;}
</style>
<path class="st0" d="M7.2,4c0-0.5,0.4-0.9,0.8-0.9C7.9,2.6,7.7,2.2,7.5,1.8C7.1,2.1,6.6,2.1,6.2,1.8C5.9,1.4,5.9,0.9,6.2,0.5
	C5.8,0.3,5.4,0.1,4.9,0C4.9,0.5,4.5,0.8,4,0.8S3.1,0.5,3.1,0C2.6,0.1,2.2,0.3,1.8,0.5c0.3,0.4,0.3,0.9-0.1,1.2S0.9,2.1,0.5,1.8
	C0.3,2.2,0.1,2.6,0,3.1C0.5,3.1,0.8,3.5,0.8,4S0.5,4.9,0,4.9c0.1,0.4,0.3,0.9,0.5,1.2c0.4-0.3,0.9-0.3,1.2,0.1
	c0.3,0.3,0.4,0.9,0.1,1.2C2.2,7.7,2.6,7.9,3.1,8C3.1,7.5,3.5,7.2,4,7.2S4.9,7.5,4.9,8c0.4-0.1,0.9-0.3,1.2-0.5
	C5.9,7.1,5.9,6.6,6.2,6.3c0.3-0.3,0.9-0.4,1.2-0.1C7.7,5.8,7.9,5.4,8,4.9C7.5,4.9,7.2,4.5,7.2,4z"/>
<path class="st1" d="M3.1,8L3.1,8C2.6,7.9,2.2,7.7,1.8,7.5l0,0l0,0c0.3-0.4,0.3-0.9-0.1-1.2C1.4,5.9,0.9,5.9,0.5,6.2l0,0l0,0
	C0.3,5.8,0.1,5.4,0,4.9l0,0l0,0C0.5,4.9,0.8,4.5,0.8,4c0-0.5-0.3-0.9-0.8-0.9l0,0l0,0c0.1-0.4,0.3-0.9,0.5-1.2l0,0l0,0
	c0.4,0.3,0.9,0.3,1.2-0.1c0.3-0.3,0.4-0.8,0.1-1.2l0,0l0,0C2.2,0.3,2.6,0.1,3.1,0l0,0l0,0C3.2,0.5,3.5,0.8,4,0.8
	c0.5,0,0.9-0.3,0.9-0.8l0,0l0,0c0.4,0.1,0.9,0.3,1.2,0.5l0,0l0,0C5.9,0.9,5.9,1.4,6.3,1.8c0.3,0.3,0.8,0.4,1.2,0.1l0,0l0,0
	C7.7,2.2,7.9,2.6,8,3.1l0,0l0,0C7.5,3.2,7.2,3.5,7.2,4c0,0.5,0.3,0.9,0.8,0.9l0,0l0,0C7.9,5.4,7.7,5.8,7.5,6.2l0,0l0,0
	C7.1,5.9,6.6,5.9,6.3,6.3C5.9,6.6,5.9,7.1,6.2,7.5l0,0l0,0C5.8,7.7,5.4,7.9,4.9,8l0,0l0,0C4.9,7.5,4.5,7.2,4,7.2
	C3.5,7.2,3.2,7.5,3.1,8L3.1,8z M4,7.2C4.5,7.2,4.9,7.5,5,8c0.4-0.1,0.8-0.3,1.2-0.5C5.9,7.1,5.9,6.6,6.2,6.2
	c0.3-0.3,0.9-0.4,1.2-0.1C7.7,5.8,7.9,5.4,8,5C7.5,4.9,7.2,4.5,7.2,4c0-0.5,0.4-0.9,0.8-0.9C7.9,2.6,7.7,2.2,7.5,1.9
	C7.1,2.2,6.6,2.1,6.2,1.8C5.9,1.4,5.9,0.9,6.2,0.5C5.8,0.3,5.4,0.1,5,0C4.9,0.5,4.5,0.9,4,0.9C3.5,0.9,3.1,0.5,3.1,0
	C2.6,0.1,2.2,0.3,1.9,0.5c0.3,0.4,0.3,0.9-0.1,1.2C1.4,2.1,0.9,2.2,0.5,1.9C0.3,2.2,0.1,2.6,0,3.1C0.5,3.1,0.9,3.5,0.9,4
	C0.9,4.5,0.5,4.9,0,5c0.1,0.4,0.3,0.8,0.5,1.2c0.4-0.3,0.9-0.3,1.2,0.1c0.3,0.3,0.4,0.9,0.1,1.2C2.2,7.7,2.6,7.9,3.1,8
	C3.1,7.5,3.5,7.2,4,7.2z"/>
<path class="st2" d="M7.2,4c0-0.5,0.4-0.9,0.8-0.9C7.9,2.6,7.7,2.2,7.5,1.8C7.1,2.1,6.6,2.1,6.2,1.8C5.9,1.4,5.9,0.9,6.2,0.5
	C5.8,0.3,5.4,0.1,4.9,0C4.9,0.5,4.5,0.8,4,0.8S3.1,0.5,3.1,0C2.6,0.1,2.2,0.3,1.8,0.5c0.3,0.4,0.3,0.9-0.1,1.2S0.9,2.1,0.5,1.8
	C0.3,2.2,0.1,2.6,0,3.1C0.5,3.1,0.8,3.5,0.8,4S0.5,4.9,0,4.9c0.1,0.4,0.3,0.9,0.5,1.2c0.4-0.3,0.9-0.3,1.2,0.1
	c0.3,0.3,0.4,0.9,0.1,1.2C2.2,7.7,2.6,7.9,3.1,8C3.1,7.5,3.5,7.2,4,7.2S4.9,7.5,4.9,8c0.4-0.1,0.9-0.3,1.2-0.5
	C5.9,7.1,5.9,6.6,6.2,6.3c0.3-0.3,0.9-0.4,1.2-0.1C7.7,5.8,7.9,5.4,8,4.9C7.5,4.9,7.2,4.5,7.2,4z"/>
<path class="st3" d="M14.9,5c0-0.6,0.5-1.1,1-1.2c-0.1-0.6-0.3-1.1-0.6-1.6c-0.5,0.4-1.1,0.3-1.5-0.1s-0.5-1.1-0.1-1.5
	c-0.5-0.3-1-0.5-1.6-0.6c-0.1,0.6-0.6,1-1.2,1S9.9,0.6,9.8,0C9.3,0.1,8.8,0.4,8.3,0.7c0.4,0.5,0.3,1.1-0.1,1.5
	C7.8,2.6,7.1,2.7,6.6,2.3C6.4,2.8,6.1,3.3,6,3.9C6.6,3.9,7,4.4,7,5S6.6,6.1,6,6.2c0.1,0.6,0.3,1.1,0.6,1.6c0.5-0.4,1.1-0.3,1.5,0.1
	c0.4,0.4,0.5,1.1,0.1,1.5c0.5,0.3,1,0.5,1.6,0.6c0.1-0.6,0.6-1,1.2-1s1.1,0.5,1.2,1c0.6-0.1,1.1-0.3,1.6-0.6
	c-0.4-0.5-0.3-1.1,0.1-1.5c0.4-0.4,1.1-0.5,1.5-0.1c0.3-0.5,0.5-1,0.6-1.6C15.4,6.1,14.9,5.6,14.9,5z"/>
<path class="st1" d="M12.1,10L12.1,10c-0.1-0.6-0.6-1-1.1-1c-0.6,0-1.1,0.4-1.1,1l0,0l0,0C9.3,9.9,8.8,9.7,8.3,9.4l0,0l0,0
	c0.4-0.5,0.3-1.1-0.1-1.5C7.8,7.4,7.1,7.4,6.7,7.7l0,0l0,0C6.3,7.2,6.1,6.7,6,6.2l0,0l0,0C6.6,6.1,7,5.6,7,5S6.6,3.9,6,3.9l0,0l0,0
	c0.1-0.6,0.3-1.1,0.6-1.6l0,0l0,0c0.5,0.4,1.1,0.3,1.5-0.1c0.4-0.4,0.4-1.1,0.1-1.5l0,0l0,0c0.5-0.3,1-0.5,1.6-0.6l0,0l0,0
	c0.1,0.6,0.6,1,1.1,1c0.6,0,1.1-0.4,1.1-1l0,0l0,0c0.6,0.1,1.1,0.3,1.6,0.6l0,0l0,0c-0.4,0.5-0.3,1.1,0.1,1.5
	c0.4,0.4,1.1,0.4,1.5,0.1l0,0l0,0c0.3,0.5,0.5,1,0.6,1.6l0,0l0,0c-0.6,0.1-1,0.6-1,1.1s0.4,1.1,1,1.1l0,0l0,0
	c-0.1,0.6-0.3,1.1-0.6,1.6l0,0l0,0c-0.5-0.4-1.1-0.3-1.5,0.1c-0.4,0.4-0.4,1.1-0.1,1.5l0,0l0,0C13.2,9.7,12.7,9.9,12.1,10L12.1,10z
	 M8.3,9.4c0.5,0.3,1,0.5,1.5,0.6c0.1-0.6,0.6-1,1.2-1c0.6,0,1.1,0.4,1.2,1c0.5-0.1,1-0.3,1.5-0.6c-0.4-0.5-0.3-1.1,0.1-1.6
	s1.1-0.5,1.6-0.1c0.3-0.5,0.5-1,0.6-1.5c-0.6-0.1-1-0.6-1-1.2c0-0.6,0.4-1.1,1-1.2c-0.1-0.5-0.3-1-0.6-1.5c-0.5,0.4-1.1,0.3-1.6-0.1
	c-0.4-0.4-0.5-1.1-0.1-1.6c-0.5-0.3-1-0.5-1.5-0.6c-0.1,0.6-0.6,1-1.2,1c-0.6,0-1.1-0.4-1.2-1c-0.5,0.1-1,0.3-1.5,0.6
	c0.4,0.5,0.3,1.1-0.1,1.6C7.8,2.6,7.1,2.7,6.7,2.3C6.4,2.8,6.2,3.3,6,3.8c0.6,0.1,1,0.6,1,1.2c0,0.6-0.4,1.1-1,1.2
	c0.1,0.5,0.3,1,0.6,1.5c0.5-0.4,1.1-0.3,1.6,0.1C8.6,8.2,8.7,8.9,8.3,9.4z"/>
<path class="st4" d="M14.9,5c0-0.6,0.5-1.1,1-1.2c-0.1-0.6-0.3-1.1-0.6-1.6c-0.5,0.4-1.1,0.3-1.5-0.1s-0.5-1.1-0.1-1.5
	c-0.5-0.3-1-0.5-1.6-0.6c-0.1,0.6-0.6,1-1.2,1S9.9,0.6,9.8,0C9.3,0.1,8.8,0.4,8.3,0.7c0.4,0.5,0.3,1.1-0.1,1.5
	C7.8,2.6,7.1,2.7,6.6,2.3C6.4,2.8,6.1,3.3,6,3.9C6.6,3.9,7,4.4,7,5S6.6,6.1,6,6.2c0.1,0.6,0.3,1.1,0.6,1.6c0.5-0.4,1.1-0.3,1.5,0.1
	c0.4,0.4,0.5,1.1,0.1,1.5c0.5,0.3,1,0.5,1.6,0.6c0.1-0.6,0.6-1,1.2-1s1.1,0.5,1.2,1c0.6-0.1,1.1-0.3,1.6-0.6
	c-0.4-0.5-0.3-1.1,0.1-1.5c0.4-0.4,1.1-0.5,1.5-0.1c0.3-0.5,0.5-1,0.6-1.6C15.4,6.1,14.9,5.6,14.9,5z"/>
<path class="st5" d="M10.7,10c0-0.7,0.5-1.3,1.2-1.4c-0.2-0.7-0.4-1.3-0.8-1.9c-0.6,0.4-1.3,0.4-1.9-0.1C8.9,6.1,8.8,5.3,9.3,4.8
	C8.7,4.4,8.1,4.2,7.4,4C7.3,4.7,6.7,5.3,6,5.3S4.7,4.7,4.6,4C4,4.2,3.3,4.4,2.8,4.8c0.4,0.6,0.4,1.3-0.1,1.9S1.4,7.2,0.8,6.7
	C0.4,7.3,0.2,7.9,0,8.6C0.7,8.7,1.3,9.3,1.3,10S0.7,11.3,0,11.4c0.2,0.7,0.4,1.3,0.8,1.9c0.6-0.4,1.3-0.4,1.9,0.1
	c0.5,0.5,0.5,1.3,0.1,1.9c0.6,0.4,1.2,0.6,1.9,0.8c0.1-0.7,0.7-1.2,1.4-1.2s1.3,0.5,1.4,1.2c0.7-0.2,1.3-0.4,1.9-0.8
	c-0.4-0.6-0.4-1.3,0.1-1.9c0.5-0.5,1.3-0.5,1.9-0.1c0.4-0.6,0.6-1.2,0.8-1.9C11.3,11.3,10.7,10.7,10.7,10z"/>
<path class="st1" d="M7.4,16L7.4,16c-0.1-0.7-0.7-1.2-1.4-1.2S4.7,15.3,4.6,16l0,0l0,0c-0.7-0.1-1.3-0.4-1.9-0.8l0,0l0,0
	c0.4-0.5,0.4-1.3-0.1-1.8c-0.5-0.5-1.3-0.5-1.8-0.1l0,0l0,0c-0.4-0.6-0.6-1.2-0.8-1.9l0,0l0,0c0.7-0.1,1.2-0.7,1.2-1.4
	c0-0.7-0.5-1.3-1.2-1.4l0,0l0,0c0.1-0.7,0.4-1.3,0.8-1.9l0,0l0,0c0.6,0.4,1.3,0.4,1.8-0.1c0.5-0.5,0.5-1.3,0.1-1.8l0,0l0,0
	C3.3,4.4,4,4.2,4.6,4l0,0l0,0C4.7,4.7,5.3,5.2,6,5.2S7.3,4.7,7.4,4l0,0l0,0c0.7,0.1,1.3,0.4,1.9,0.8l0,0l0,0
	C8.8,5.3,8.9,6.1,9.4,6.6c0.5,0.5,1.3,0.5,1.8,0.1l0,0l0,0c0.4,0.6,0.6,1.2,0.8,1.9l0,0l0,0c-0.7,0.1-1.2,0.7-1.2,1.4
	c0,0.7,0.5,1.3,1.2,1.4l0,0l0,0c-0.1,0.7-0.4,1.3-0.8,1.9l0,0l0,0c-0.5-0.4-1.3-0.4-1.8,0.1c-0.5,0.5-0.5,1.3-0.1,1.8l0,0l0,0
	C8.7,15.6,8.1,15.8,7.4,16L7.4,16z M2.8,15.2C3.3,15.6,4,15.8,4.6,16c0.1-0.7,0.7-1.2,1.4-1.2c0.7,0,1.3,0.5,1.4,1.2
	c0.6-0.2,1.3-0.4,1.8-0.8c-0.4-0.6-0.4-1.4,0.1-1.9c0.5-0.5,1.3-0.6,1.9-0.1c0.4-0.6,0.6-1.2,0.8-1.8c-0.7-0.1-1.2-0.7-1.2-1.4
	c0-0.7,0.5-1.3,1.2-1.4c-0.2-0.6-0.4-1.3-0.8-1.8c-0.6,0.4-1.4,0.4-1.9-0.1C8.8,6.2,8.8,5.4,9.2,4.8C8.7,4.4,8.1,4.2,7.4,4
	C7.3,4.7,6.7,5.3,6,5.3C5.3,5.3,4.7,4.7,4.6,4C4,4.2,3.3,4.4,2.8,4.8c0.4,0.6,0.4,1.4-0.1,1.9C2.2,7.2,1.4,7.2,0.8,6.8
	C0.5,7.3,0.2,8,0.1,8.6C0.8,8.7,1.3,9.3,1.3,10c0,0.7-0.5,1.3-1.2,1.4c0.2,0.6,0.4,1.3,0.8,1.8c0.6-0.4,1.4-0.4,1.9,0.1
	C3.2,13.8,3.2,14.6,2.8,15.2z"/>
<polygon class="st6" points="16,12.8 12,16 8,12.8 8,10.4 12,13.6 16,10.4 "/>
</svg>
