<?xml version="1.0" encoding="utf-8"?>
<!-- Generator: Adobe Illustrator 24.0.3, SVG Export Plug-In . SVG Version: 6.00 Build 0)  -->
<svg version="1.1" id="Capa_1" xmlns="http://www.w3.org/2000/svg" xmlns:xlink="http://www.w3.org/1999/xlink" x="0px" y="0px"
	 viewBox="0 0 16 16" style="enable-background:new 0 0 16 16;" xml:space="preserve">
<style type="text/css">
	.st0{fill:#FFFFFF;}
	.st1{fill:#EA1D25;}
	.st2{fill:#CCCCCC;}
</style>
<g>
	<path class="st0" d="M8,15.6c-4.5,0-8-2.1-8-4.7C0,9,1.8,7.4,4.7,6.6c0.1,0,0.2,0,0.4,0C4.9,5.7,5.1,4.8,5.5,4l0.1-0.2
		c0.2-0.3,0.5-0.4,0.8-0.4c0.2,0,0.3,0.1,0.4,0.2c-0.2-0.9,0-1.9,0.5-2.7l0.1-0.2c0.2-0.3,0.5-0.4,0.8-0.4C8.6,0.4,8.9,0.7,8.9,1
		c0,0.2,0.1,0.5,0.3,0.7l2.2,3.9c0.2,0.3,0.4,0.7,0.5,1.2c2.6,0.8,4.2,2.4,4.1,4.1C16,13.5,12.5,15.6,8,15.6z M9.2,11.5
		c0.2,0.8,0,1.7-0.3,2.5c2.7-0.2,5.5-1.4,5.5-3c0-1-1.4-2.1-3.4-2.6c0.2,1,0.1,2-0.4,2.9l-0.1,0.2c-0.2,0.3-0.5,0.4-0.8,0.4
		C9.4,11.6,9.3,11.6,9.2,11.5z M4.2,8.5C2.6,9.1,1.6,10,1.6,10.9c0,1.6,2.7,2.8,5.5,3C7,13.8,7,13.6,6.9,13.4L4.6,9.5
		C4.4,9.2,4.3,8.8,4.2,8.5z"/>
	<path class="st1" d="M11.1,7.5c0-0.5-0.2-1-0.4-1.4L8.5,2.1c-0.2-0.3-0.3-0.6-0.4-1L8,1.4c-0.6,1-0.6,2.2,0,3.1l1.8,3.1
		c0.6,1,0.6,2.2,0,3.1l-0.1,0.2c-0.1-0.3-0.2-0.7-0.4-1L7.7,7.1l-1-1.8c-0.2-0.3-0.3-0.6-0.4-1L6.2,4.4c-0.6,1-0.6,2.1,0,3.1l0,0
		L8,10.7c0.6,1,0.6,2.2,0,3.1L7.9,14c-0.1-0.3-0.2-0.7-0.4-1L5.3,9.1C5,8.6,4.9,8,4.9,7.4c-2.4,0.6-4.1,2-4.1,3.5
		c0,2.2,3.2,3.9,7.2,3.9s7.2-1.7,7.2-3.9C15.2,9.4,13.6,8.1,11.1,7.5z"/>
</g>
<polygon class="st2" points="16,12.8 12,16 8,12.8 8,10.4 12,13.6 16,10.4 "/>
</svg>
