<?xml version="1.0" encoding="utf-8"?>
<!-- Generator: Adobe Illustrator 24.0.3, SVG Export Plug-In . SVG Version: 6.00 Build 0)  -->
<svg version="1.1" id="Capa_1" xmlns="http://www.w3.org/2000/svg" xmlns:xlink="http://www.w3.org/1999/xlink" x="0px" y="0px"
	 viewBox="0 0 16 16" style="enable-background:new 0 0 16 16;" xml:space="preserve">
<style type="text/css">
	.st0{fill:#3FA9F5;}
</style>
<g>
	<path class="st0" d="M2.7,9.2c0-0.2-0.1-0.3-0.2-0.4S2.2,8.5,1.8,8.4C1.5,8.3,1.2,8.2,1,8.1C0.4,7.8,0.2,7.4,0.2,6.9
		c0-0.3,0.1-0.5,0.2-0.7S0.7,5.8,1,5.7C1.3,5.6,1.6,5.5,2,5.5c0.3,0,0.7,0.1,0.9,0.2S3.4,6,3.5,6.2C3.7,6.4,3.7,6.7,3.7,7h-1
		c0-0.2-0.1-0.4-0.2-0.5C2.4,6.4,2.2,6.3,1.9,6.3c-0.2,0-0.4,0.1-0.6,0.2C1.2,6.6,1.2,6.7,1.2,6.9c0,0.2,0.1,0.3,0.2,0.4
		c0.2,0.1,0.4,0.2,0.7,0.3c0.6,0.2,1,0.4,1.3,0.6c0.3,0.3,0.4,0.6,0.4,1c0,0.4-0.2,0.8-0.5,1S2.5,10.5,2,10.5c-0.4,0-0.7-0.1-1-0.2
		S0.4,10,0.2,9.7C0.1,9.5,0,9.2,0,8.9h1c0,0.5,0.3,0.8,1,0.8c0.2,0,0.4,0,0.6-0.1C2.7,9.5,2.7,9.3,2.7,9.2z"/>
	<path class="st0" d="M8.3,8.8c0,0.5-0.2,0.9-0.6,1.2c-0.3,0.3-0.8,0.5-1.4,0.5c-0.6,0-1.1-0.2-1.5-0.6c-0.4-0.4-0.5-1-0.5-1.7V7.8
		c0-0.5,0.1-0.9,0.2-1.2C4.7,6.2,4.9,6,5.2,5.8c0.3-0.2,0.7-0.3,1.1-0.3c0.6,0,1,0.2,1.4,0.5C8,6.2,8.2,6.7,8.3,7.2h-1
		c0-0.3-0.1-0.5-0.3-0.7C6.8,6.4,6.6,6.3,6.3,6.3C6,6.3,5.7,6.4,5.6,6.7S5.3,7.3,5.3,7.8v0.4c0,0.5,0.1,0.9,0.2,1.2s0.4,0.4,0.8,0.4
		c0.3,0,0.5-0.1,0.7-0.2c0.2-0.1,0.2-0.4,0.3-0.7H8.3z"/>
	<path class="st0" d="M10.2,5.6l1.3,3.5l1.2-3.5h1.3v4.9h-1V9.1l0.1-2.3l-1.3,3.6h-0.7L9.8,6.8l0.1,2.3v1.3h-1V5.6H10.2z"/>
	<path class="st0" d="M16,10.4h-1V5.6h1V10.4z"/>
</g>
</svg>
