<?xml version="1.0" encoding="utf-8"?>
<!-- Generator: Adobe Illustrator 24.0.3, SVG Export Plug-In . SVG Version: 6.00 Build 0)  -->
<svg version="1.1" id="Capa_1" xmlns="http://www.w3.org/2000/svg" xmlns:xlink="http://www.w3.org/1999/xlink" x="0px" y="0px"
	 viewBox="0 0 16 16" style="enable-background:new 0 0 16 16;" xml:space="preserve">
<style type="text/css">
	.st0{fill:#FF7BAC;}
</style>
<path class="st0" d="M13.8,8.9c-0.5,0-1,0.1-1.4,0.3C12.2,9,12.1,8.8,12,8.5c0-0.2-0.1-0.4,0-0.6c0-0.2,0.1-0.5,0.2-0.7
	c0,0,0-0.2-0.4-0.2c-0.3,0-0.6,0.1-0.6,0.1c-0.1,0.2-0.1,0.3-0.1,0.5c-0.3,0.7-0.6,1.3-1,1.9C9.8,9.2,9.8,8.7,9.8,8.3
	c0-0.2,0.1-0.5,0.2-0.7c0,0,0-0.2-0.4-0.2C9.3,7.5,9,7.5,9,7.6c0,0.1-0.1,0.3-0.1,0.5C8.8,8.3,8,10,7.8,10.5
	c-0.1,0.2-0.2,0.4-0.3,0.5l0,0c0,0,0,0,0,0c-0.1,0.1-0.1,0.2-0.1,0.2v0c0,0.1-0.1,0.2-0.1,0.2c0-0.2,0-0.3,0-0.5
	c0.1-0.6,0.4-1.5,0.4-1.6c0,0,0.1-0.2-0.2-0.3C7.5,9,7.3,9,7.2,9.1c0,0,0,0,0,0s0.3-1.1-0.5-1.1C6.1,8.2,5.6,8.5,5.3,9
	C5.1,9.2,4.7,9.4,4.2,9.6C4.1,9.7,3.9,9.8,3.7,9.9c0,0,0,0,0,0C2.8,8.9,1.1,8.2,1.2,7c0-0.5,0.2-1.7,3.2-3.2
	c2.5-1.2,4.4-0.9,4.8-0.1c0.5,1.1-1,3-3.6,3.3C5,7.1,4.4,6.9,3.9,6.6C3.8,6.4,3.8,6.4,3.7,6.4c-0.1,0,0,0.2,0,0.3
	C3.9,7,4.3,7.3,4.6,7.4c1,0.2,2,0.1,3-0.3c1.5-0.6,2.7-2.3,2.4-3.6C9.7,2.1,7.3,1.6,5.1,2.4C3.7,2.9,2.4,3.6,1.3,4.5
	C0.1,5.7-0.1,6.7,0,7.1c0.3,1.5,2.3,2.4,3.1,3.1c0,0-0.1,0-0.1,0.1c-0.4,0.2-2,1-2.3,1.9c-0.4,1,0.1,1.7,0.4,1.8
	c1,0.2,2.1-0.2,2.7-1.1c0.5-0.7,0.6-1.7,0.2-2.5c0,0,0,0,0,0l0.3-0.2C4.5,10,4.7,9.9,4.9,9.8c-0.1,0.3-0.2,0.7-0.2,1.1
	c0,0.6,0.1,1.1,0.5,1.5c0.1,0.1,0.2,0.1,0.4,0.1c0.3,0,0.5-0.3,0.7-0.6C6.5,11.5,6.6,11,6.6,11s-0.2,1.3,0.4,1.3
	c0.2,0,0.5-0.3,0.6-0.5v0c0,0,0,0,0,0l0-0.1v0c0.1-0.2,0.3-0.5,0.6-1.2c0.4-0.8,0.8-1.8,0.8-1.8c0,0.2,0.1,0.4,0.2,0.6
	c0.1,0.3,0.2,0.5,0.3,0.7c-0.1,0.1-0.2,0.2-0.2,0.2l0,0c-0.1,0.1-0.2,0.2-0.2,0.3c-0.3,0.3-0.5,0.6-0.8,0.9c-0.1,0.1,0,0.3,0.1,0.3
	c0.1,0.1,0.3,0.1,0.4,0.1c0.2,0,0.4-0.1,0.6-0.1c0.2-0.1,0.4-0.2,0.5-0.3c0.3-0.2,0.5-0.6,0.5-1c0-0.2-0.1-0.5-0.2-0.7
	c0,0,0.1-0.1,0.1-0.1c0.3-0.5,0.6-1,0.9-1.5c0,0.2,0.1,0.4,0.2,0.6c0.1,0.2,0.2,0.4,0.3,0.6c-0.4,0.3-0.7,0.7-0.9,1.1
	c-0.2,0.5,0,0.8,0.2,0.8c0.1,0,0.3,0,0.4-0.1c0.2-0.1,0.4-0.2,0.5-0.3c0.4-0.2,0.6-0.6,0.6-1c0-0.2-0.1-0.4-0.1-0.6
	c0.5-0.2,1-0.3,1.6-0.2c1.4,0.2,1.7,1,1.6,1.4c0,0.3-0.2,0.5-0.4,0.6c-0.1,0.1-0.1,0.1-0.1,0.1c0,0.1,0.1,0.1,0.1,0
	c0.4-0.1,0.7-0.5,0.8-1C16,9.8,15.2,8.9,13.8,8.9L13.8,8.9z M3,12.5c-0.5,0.5-1.1,0.7-1.4,0.5c-0.3-0.2-0.2-0.9,0.4-1.4
	c0.3-0.3,0.7-0.6,1.1-0.8c0.1,0,0.2-0.1,0.3-0.2l0,0l0,0l0.1,0C3.7,11.3,3.5,12,3,12.5z M6.4,10.2c-0.2,0.4-0.5,1.4-0.7,1.3
	c-0.2,0-0.3-0.8,0-1.6C5.8,9.7,6,9.3,6.2,9c0.3-0.3,0.5-0.4,0.6-0.3C6.8,9.3,6.6,9.8,6.4,10.2z M9.2,11.6c-0.1,0-0.1,0.1-0.2,0
	c0,0,0-0.1,0-0.1s0.3-0.4,0.5-0.5c0.1-0.1,0.2-0.2,0.3-0.3v0C9.8,11.1,9.4,11.4,9.2,11.6L9.2,11.6z M11.3,11.1c0,0,0-0.2,0.1-0.5
	c0.1-0.2,0.3-0.4,0.5-0.6c0,0.1,0,0.2,0,0.3C12,10.6,11.7,11,11.3,11.1L11.3,11.1z"/>
</svg>
