<?xml version="1.0" encoding="utf-8"?>
<!-- Generator: Adobe Illustrator 24.0.3, SVG Export Plug-In . SVG Version: 6.00 Build 0)  -->
<svg version="1.1" id="Capa_1" xmlns="http://www.w3.org/2000/svg" xmlns:xlink="http://www.w3.org/1999/xlink" x="0px" y="0px"
	 viewBox="0 0 16 16" style="enable-background:new 0 0 16 16;" xml:space="preserve">
<style type="text/css">
	.st0{fill:#3FA9F5;}
	.st1{fill:#7AC943;}
</style>
<g>
	<path class="st0" d="M14.1,16c-0.2-0.1-1-0.8-2.2-2L9.9,12l-0.7,0.3c-1,0.5-1.7,0.6-2.9,0.6c-2.1,0-3.9-0.9-5.2-2.6
		c-2.7-3.5-1-8.7,3.2-10.1C5.2,0,5.5,0,6.5,0c1,0,1.3,0,2,0.3c2.4,0.8,4.1,2.8,4.4,5.4c0.2,1.2-0.1,2.6-0.7,3.9L12,9.9l2,2
		c1.4,1.4,2,2.1,2,2.3c0.1,0.3-0.1,0.9-0.3,1.2C15.4,15.9,14.6,16.1,14.1,16z M7.8,11.9C10.3,11.2,12,9,12,6.5s-1.7-4.8-4.2-5.4
		c-0.8-0.2-2-0.2-2.8,0C3.2,1.6,1.6,3.2,1.1,5c-0.2,0.8-0.2,2.1,0,2.8c0.5,1.9,2.1,3.5,4,4C5.8,12.1,7.1,12.1,7.8,11.9z"/>
	<path class="st1" d="M4.3,7.9C3.9,7.4,3.5,7,3.5,6.9c0-0.1,0.3-0.4,0.4-0.4c0.1,0,0.4,0.3,0.8,0.7l0.7,0.7l1.8-1.8
		c1-1,1.9-1.8,1.9-1.8c0.2,0,0.4,0.3,0.3,0.4c0,0.1-0.9,1-2,2.1c-1.5,1.5-2,2-2.1,2C5.2,8.7,5,8.5,4.3,7.9z"/>
</g>
</svg>
