<?xml version="1.0" encoding="utf-8"?>
<!-- Generator: Adobe Illustrator 24.0.3, SVG Export Plug-In . SVG Version: 6.00 Build 0)  -->
<svg version="1.1" id="Capa_1" xmlns="http://www.w3.org/2000/svg" xmlns:xlink="http://www.w3.org/1999/xlink" x="0px" y="0px"
	 viewBox="0 0 16 16" style="enable-background:new 0 0 16 16;" xml:space="preserve">
<style type="text/css">
	.st0{fill:#7AC943;}
	.st1{fill:#CCCCCC;}
</style>
<g>
	<path class="st0" d="M14.2,7.4c0-0.6-0.2-1.2-0.4-1.7l1.4-1.2l-2.3-3l-1.4,1.2C11,2.3,10.4,2,9.9,1.9V0H6.1v1.9
		C5.5,2.1,5,2.4,4.4,2.7L3,1.6l-2.3,3l1.5,1.2C2,6.3,1.9,6.9,1.8,7.5L0,8l0.9,3.7l1.3-0.3c0.6-0.6,1.2-1.2,1.9-2
		c-1-2.8,1-5.7,3.9-5.7c2.3,0,4.2,1.9,4.2,4.3c0,2.9-2.8,5-5.5,4c-0.2,0.2-2.4,2.5-2.8,2.8L6.4,16l0.8-1.8c0.6,0.1,1.1,0.1,1.7,0
		L9.7,16l3.4-1.7l-0.8-1.8c0.4-0.4,0.8-0.9,1.1-1.4l1.8,0.4L16,7.8L14.2,7.4z"/>
	<path class="st1" d="M10.7,6.8l-0.3-0.7L8.8,8.8L7.1,7l2.6-1.6L9,5.1C6.4,4.1,4,7,5.4,9.4C1.9,13,4.9,9.9,0.7,14.2l1.2,1.3
		C4.4,13,2,15.4,6.7,10.6C9.1,11.8,11.7,9.4,10.7,6.8z"/>
</g>
</svg>
