<?xml version="1.0" encoding="utf-8"?>
<!-- Generator: Adobe Illustrator 24.0.3, SVG Export Plug-In . SVG Version: 6.00 Build 0)  -->
<svg version="1.1" id="Capa_1" xmlns="http://www.w3.org/2000/svg" xmlns:xlink="http://www.w3.org/1999/xlink" x="0px" y="0px"
	 viewBox="0 0 16 16" style="enable-background:new 0 0 16 16;" xml:space="preserve">
<style type="text/css">
	.st0{fill:#333333;}
	.st1{fill:#7AC943;}
	.st2{fill:#3FA9F5;}
</style>
<g>
	<g>
		<path class="st0" d="M13.7,2.3C12.1,0.8,10.1,0,8,0C5.9,0,3.9,0.8,2.3,2.3C0.8,3.9,0,5.9,0,8c0,2.1,0.8,4.1,2.3,5.7
			C3.9,15.2,5.9,16,8,16c2.1,0,4.1-0.8,5.7-2.3C15.2,12.1,16,10.1,16,8C16,5.9,15.2,3.9,13.7,2.3L13.7,2.3z"/>
	</g>
	<path class="st1" d="M14.2,8c0,1-0.2,1.9-0.6,2.7h-2.9c0.2-0.2,0.4-0.4,0.5-0.6l0,0l0.1-0.1c0,0,0-0.1,0.1-0.1l2.4-4.2
		C14,6.4,14.2,7.2,14.2,8L14.2,8z"/>
	<path class="st1" d="M4.8,5.9L4.7,6.1c0,0,0,0.1-0.1,0.1l-2.4,4.2C2,9.6,1.8,8.8,1.8,8c0-1,0.2-1.9,0.6-2.7h2.9
		C5.2,5.5,5,5.7,4.8,5.9L4.8,5.9z"/>
	<path class="st1" d="M13.1,4.6l-1.4,2.5c-0.1-0.4-0.3-0.8-0.5-1.2l-2.3-4C10.6,2.1,12.2,3.1,13.1,4.6L13.1,4.6z"/>
	<path class="st1" d="M7.5,1.8L9,4.3C8.7,4.3,8.4,4.2,8.2,4.2l-5,0C4.2,2.9,5.8,2,7.5,1.8L7.5,1.8z"/>
	<path class="st1" d="M2.9,11.4l1.4-2.5c0.1,0.3,0.2,0.5,0.3,0.8l2.6,4.4C5.4,13.9,3.8,12.9,2.9,11.4L2.9,11.4z"/>
	<path class="st1" d="M8.4,14.2L7,11.7c0.2,0.1,0.5,0.1,0.8,0.1l5.1,0C11.8,13.1,10.2,14,8.4,14.2L8.4,14.2z"/>
	<path class="st2" d="M6.2,8.6C5.9,8.6,5.6,8.3,5.6,8c0-1.3,1.1-2.4,2.4-2.4c0.3,0,0.6,0.3,0.6,0.6c0,0.3-0.3,0.6-0.6,0.6
		C7.3,6.8,6.8,7.3,6.8,8C6.8,8.3,6.5,8.6,6.2,8.6L6.2,8.6z"/>
</g>
</svg>
