<?xml version="1.0" encoding="utf-8"?>
<!-- Generator: Adobe Illustrator 24.0.3, SVG Export Plug-In . SVG Version: 6.00 Build 0)  -->
<svg version="1.1" id="Capa_1" xmlns="http://www.w3.org/2000/svg" xmlns:xlink="http://www.w3.org/1999/xlink" x="0px" y="0px"
	 viewBox="0 0 16 16" style="enable-background:new 0 0 16 16;" xml:space="preserve">
<style type="text/css">
	.st0{fill:#F4FF1F;}
</style>
<g>
	<path class="st0" d="M3.7,7.6C5.1,8.1,6.6,8.3,8,8.3c1.4,0,2.9-0.2,4.3-0.7c1.1-0.4,1.4-0.9,1.4-1.1v-2c-0.4,0.2-0.8,0.5-1.2,0.6
		c-1.4,0.5-3,0.8-4.5,0.7C6.5,5.8,4.9,5.5,3.5,5C3.1,4.9,2.7,4.7,2.3,4.4v2C2.3,6.7,2.7,7.2,3.7,7.6z"/>
	<path class="st0" d="M3.7,11.4c0.5,0.2,1,0.3,1.5,0.4C6.1,12,7.1,12.1,8,12.1c0.9,0,1.9-0.1,2.8-0.3c0.5-0.1,1-0.2,1.5-0.4
		c1.1-0.4,1.4-0.9,1.4-1.1V8.3c-0.3,0.2-0.6,0.3-1,0.5C11.2,9.3,9.6,9.6,8,9.6c-1.6,0-3.2-0.2-4.7-0.8c-0.3-0.1-0.7-0.3-1-0.5v1.9
		C2.3,10.5,2.7,11,3.7,11.4z"/>
	<path class="st0" d="M8,16c3.1,0,5.7-1,5.7-2.2v-1.6c-0.3,0.2-0.6,0.3-0.9,0.4l-0.1,0c-1.5,0.5-3.1,0.8-4.7,0.8
		c-1.6,0-3.2-0.2-4.7-0.8c0,0-0.1,0-0.1,0c-0.3-0.1-0.6-0.3-0.9-0.4v1.6C2.3,15,4.9,16,8,16z"/>
	<ellipse class="st0" cx="8" cy="2.2" rx="5.7" ry="2.2"/>
</g>
</svg>
