<?xml version="1.0" encoding="utf-8"?>
<!-- Generator: Adobe Illustrator 24.0.3, SVG Export Plug-In . SVG Version: 6.00 Build 0)  -->
<svg version="1.1" id="Capa_1" xmlns="http://www.w3.org/2000/svg" xmlns:xlink="http://www.w3.org/1999/xlink" x="0px" y="0px"
	 viewBox="0 0 16 16" style="enable-background:new 0 0 16 16;" xml:space="preserve">
<style type="text/css">
	.st0{fill:#FF731E;}
</style>
<g>
	<path class="st0" d="M2.5,10.7c0.4-0.5,0.5-1,0.1-2C2.4,8.2,2.1,7.7,2.3,7.3c0.3-0.4,0.8,0,0.4,0.5l0.1,0.1C3.3,8,3.6,7.2,3.2,7
		C2.1,6.4,1.1,7.5,1.5,8.8C1.7,9.4,2,9.9,1.8,10.4C1.6,10.7,1.4,11,1,11c-0.5,0-0.2-1.1,0.4-1.4c0,0,0.1-0.1,0.1-0.1
		c-0.5-0.1-1.1,0.2-1.3,0.7C-0.5,11.5,1.4,12,2.5,10.7z"/>
	<path class="st0" d="M14.5,6.9c0.2,0.4,0.4,0.8,0.3,1.1c-0.1,0.3-0.3,0.4-0.4,0.4c-0.2,0-0.2-0.7,0.2-0.9c0,0,0.1-0.1,0-0.2
		c-0.4-0.1-0.8,0.2-1,0.5c-0.5,1,1,1.2,1.8,0.3c0.3-0.4,0.3-0.8,0-1.4c-0.2-0.4-0.5-0.8-0.3-1c0.2-0.3,0.6,0,0.3,0.4l0.1,0
		c0.4,0,0.6-0.5,0.3-0.7c-0.5-0.2-1.1,0.1-1.3,0.6C14.4,6.4,14.4,6.7,14.5,6.9z"/>
	<path class="st0" d="M9.1,5.9C8.8,5.7,8,6.1,7.7,6.7C7.5,7.5,7.1,8.2,6.6,9C6.1,9.5,6.1,9.1,6.1,8.8c0.2-1,0.6-1.9,1.1-2.7
		c-0.1-0.2-1-0.2-1.6,0.8C5.4,7.2,4.9,8.4,4.3,9.4C4.2,9.6,4,9.4,4.1,8.9c0.3-1.1,0.6-2.2,1.1-3.2c1.3-0.3,2.6-0.4,4-0.5
		c0.2,0,0.3-0.2,0-0.2C7.9,5,6.6,5.1,5.4,5.3c0.2-0.4,0.5-0.8,0.8-1.1c-0.5-0.2-1,0-1.3,0.4C4.8,4.9,4.6,5.1,4.5,5.4
		C3.7,5.5,2.9,5.7,2.2,5.9C1.7,6.1,1.8,6.6,2.1,6.5c0.7-0.3,1.4-0.5,2.2-0.6C3.8,6.9,3.4,8,3.2,9.1c-0.3,1.4,0.6,1.4,1.1,0.9
		c0.5-0.6,1.4-2.8,1.6-3c0-0.1,0.1,0,0.1,0c-1.1,2.2-1,3-0.1,2.8c0.5-0.2,1-0.6,1.3-1.1c0-0.1,0.1-0.1,0.1,0
		c-0.7,1.8-1.6,3.2-2.2,3.7c-0.5,0.4-0.9-0.5,1-1.8c0.3-0.2,0.2-0.5-0.2-0.4l0,0c-1.8,0.4-3.5,1-5,1.9c-0.1,0.1-0.2,0.1-0.2,0.3
		c0,0.1,0.1,0,0.2,0c1.4-0.8,2.8-1.4,4.4-1.6c0,0,0,0,0.1,0c0.1,0,0.1,0,0,0C5.2,10.9,5.1,11,5.1,11c-1,0.4-1.6,1.3-1.4,1.7
		c0.2,0.4,1.2,0.2,1.6,0c1.1-0.6,2-1.8,2.6-3.5C8.3,7.6,9,6,9.1,5.9z"/>
	<path class="st0" d="M15.8,9.4c-2.6-0.2-5.2,0-7.7,0.6C7.6,10,7.7,10.3,8,10.3c0,0,0.1,0,0.1,0c2.3-0.4,4.7-0.4,7.1-0.1
		C15.4,10.2,16.2,9.4,15.8,9.4z"/>
	<path class="st0" d="M9.6,9.1c0.5-0.3,1.3-1.9,1.8-2.8c0-0.1,0.1,0,0.1,0c-1.3,2.2-0.7,2.5-0.2,2.4c0.7,0,1.3-1,1.4-1.2
		c0.1-0.1,0.1,0,0.1,0c0,0.1-0.2,0.3-0.3,0.5c-0.2,0.3,0,0.5,0.1,0.5c0.2,0.1,0.8,0,0.9-0.3c-0.6,0,0.8-2.7,0.9-2.9
		c-0.5-0.2-1.1,0.1-1.3,0.6c-0.6,1.2-1.1,2.1-1.4,2.1c-0.6,0,0.7-2.6,0.9-2.6c-0.1-0.2-0.9-0.1-1.4,0.6c-0.2,0.3-1.2,2-1.4,2.3
		C9.5,8.9,9.5,8.5,9.6,8c0.1-0.2,0.1-0.4,0.2-0.6c0.2-0.4,0.4-0.8,0.8-1.1c1.3-1.4,2-2.5,1.7-3c-0.3-0.4-1.1-0.2-1.6,0.6
		c-1,1.5-1.9,3.5-2,4.5S9.2,9.4,9.6,9.1z M10.2,6.4c0-0.1,0.1-0.1,0.2-0.3l0,0c0.4-0.9,0.8-1.7,1.4-2.5c0.2-0.3,0.6,0.1,0,1
		c-0.3,0.5-0.8,1-1.2,1.5v0C10.4,6.3,10.3,6.4,10.2,6.4C10.2,6.5,10.1,6.5,10.2,6.4z"/>
</g>
</svg>
