<?xml version="1.0" encoding="utf-8"?>
<!-- Generator: Adobe Illustrator 24.0.3, SVG Export Plug-In . SVG Version: 6.00 Build 0)  -->
<svg version="1.1" id="Capa_1" xmlns="http://www.w3.org/2000/svg" xmlns:xlink="http://www.w3.org/1999/xlink" x="0px" y="0px"
	 viewBox="0 0 16 16" style="enable-background:new 0 0 16 16;" xml:space="preserve">
<style type="text/css">
	.st0{fill:#FF731E;}
	.st1{fill:#F2F2F2;}
</style>
<g>
	<path class="st0" d="M13.8,2.1C12.3,0,9.4-0.6,7.3,0.7L3.5,3.1C2.5,3.7,1.8,4.8,1.6,6c-0.2,1,0,2,0.4,2.9c-0.3,0.5-0.5,1-0.6,1.6
		c-0.2,1.2,0.1,2.5,0.8,3.4c1.5,2.1,4.4,2.8,6.5,1.4l3.7-2.4c1-0.6,1.7-1.7,1.9-2.9c0.2-1,0-2-0.4-2.9c0.3-0.5,0.5-1,0.6-1.6
		C14.8,4.4,14.5,3.1,13.8,2.1"/>
	<path class="st1" d="M6.9,14.1c-1.2,0.3-2.5-0.2-3.2-1.2c-0.4-0.6-0.6-1.3-0.5-2.1c0-0.1,0.1-0.2,0.1-0.4l0.1-0.2l0.2,0.1
		C4,10.7,4.5,11,5.1,11.1l0.1,0l0,0.1c0,0.2,0,0.4,0.1,0.6c0.2,0.3,0.6,0.5,1,0.4c0.1,0,0.2-0.1,0.2-0.1l3.7-2.4
		c0.2-0.1,0.3-0.3,0.4-0.5c0-0.2,0-0.4-0.1-0.6c-0.2-0.3-0.6-0.4-1-0.4c-0.1,0-0.2,0.1-0.2,0.1L7.8,9.3C7.6,9.4,7.3,9.5,7.1,9.6
		C5.9,9.9,4.6,9.4,3.9,8.4C3.5,7.8,3.3,7.1,3.4,6.3C3.6,5.6,4,5,4.6,4.6l3.7-2.4C8.6,2.1,8.8,2,9.1,1.9c1.2-0.3,2.5,0.2,3.2,1.2
		c0.4,0.6,0.6,1.3,0.5,2.1c0,0.1-0.1,0.2-0.1,0.4l-0.1,0.2l-0.2-0.1c-0.4-0.3-0.9-0.6-1.5-0.7l-0.1,0l0-0.1c0-0.2,0-0.4-0.1-0.6
		c-0.2-0.3-0.6-0.4-1-0.4c-0.1,0-0.2,0.1-0.2,0.1L5.7,6.3C5.6,6.4,5.4,6.5,5.4,6.8c0,0.2,0,0.4,0.1,0.6c0.2,0.3,0.6,0.4,1,0.4
		c0.1,0,0.2-0.1,0.2-0.1l1.4-0.9c0.2-0.1,0.5-0.3,0.8-0.3c1.2-0.3,2.5,0.2,3.2,1.2c0.4,0.6,0.6,1.3,0.5,2.1
		c-0.1,0.7-0.6,1.3-1.2,1.7l-3.7,2.4C7.4,13.9,7.2,14,6.9,14.1"/>
</g>
</svg>
