<?xml version="1.0" encoding="utf-8"?>
<!-- Generator: Adobe Illustrator 24.0.3, SVG Export Plug-In . SVG Version: 6.00 Build 0)  -->
<svg version="1.1" id="Capa_1" xmlns="http://www.w3.org/2000/svg" xmlns:xlink="http://www.w3.org/1999/xlink" x="0px" y="0px"
	 viewBox="0 0 16 16" style="enable-background:new 0 0 16 16;" xml:space="preserve">
<style type="text/css">
	.st0{fill:#FF7BAC;}
	.st1{fill:#7AC943;}
	.st2{fill:#FF1D25;}
	.st3{fill:#FF731E;}
	.st4{opacity:0.5;fill:#BDCCD4;}
	.st5{fill:#3FA9F5;}
</style>
<g>
	<path class="st0" d="M12.5,4.8h-0.6c-0.4,0-0.6-0.3-0.6-0.6V3.5H4.8v0.6c0,0.4-0.3,0.6-0.6,0.6H3.5v6.5h0.6c0.4,0,0.6,0.3,0.6,0.6
		v0.6h6.5v-0.6c0-0.4,0.3-0.6,0.6-0.6h0.6V4.8z"/>
	<rect x="2.2" y="2.2" class="st1" width="1.3" height="1.3"/>
	<rect x="2.2" y="12.5" class="st2" width="1.3" height="1.3"/>
	<rect x="12.5" y="12.5" class="st3" width="1.3" height="1.3"/>
	<path class="st4" d="M15.1,0H0.9C0.4,0,0,0.4,0,0.9v14.2C0,15.6,0.4,16,0.9,16h14.2c0.5,0,0.9-0.4,0.9-0.9V0.9
		C16,0.4,15.6,0,15.1,0z M15.1,4.1c0,0.4-0.3,0.6-0.6,0.6h-0.6v6.5h0.6c0.4,0,0.6,0.3,0.6,0.6v2.6c0,0.4-0.3,0.6-0.6,0.6h-2.6
		c-0.4,0-0.6-0.3-0.6-0.6v-0.6H4.8v0.6c0,0.4-0.3,0.6-0.6,0.6H1.5c-0.4,0-0.6-0.3-0.6-0.6v-2.6c0-0.4,0.3-0.6,0.6-0.6h0.6V4.8H1.5
		c-0.4,0-0.6-0.3-0.6-0.6V1.5c0-0.4,0.3-0.6,0.6-0.6h2.6c0.4,0,0.6,0.3,0.6,0.6v0.6h6.5V1.5c0-0.4,0.3-0.6,0.6-0.6h2.6
		c0.4,0,0.6,0.3,0.6,0.6V4.1z"/>
	<rect x="12.5" y="2.2" class="st5" width="1.3" height="1.3"/>
</g>
</svg>
