<?xml version="1.0" encoding="utf-8"?>
<!-- Generator: Adobe Illustrator 24.0.3, SVG Export Plug-In . SVG Version: 6.00 Build 0)  -->
<svg version="1.1" id="Capa_1" xmlns="http://www.w3.org/2000/svg" xmlns:xlink="http://www.w3.org/1999/xlink" x="0px" y="0px"
	 viewBox="0 0 16 16" style="enable-background:new 0 0 16 16;" xml:space="preserve">
<style type="text/css">
	.st0{fill:#FF731E;}
</style>
<path class="st0" d="M12.1,14.2c-1.9,1.1-4.5,1.2-7.1,0.1c-2.1-0.9-3.9-2.5-5-4.3c0.5,0.4,1.2,0.8,1.8,1.1c2.7,1.3,5.4,1.2,7.3,0
	c-2.7-2.1-5-4.8-6.7-7C2.1,3.8,1.8,3.3,1.5,2.9C8.1,7.8,7.9,9,3.5,2.1c3.9,4,7.5,6.2,7.5,6.2c0.1,0.1,0.2,0.1,0.3,0.2
	c0.1-0.2,0.2-0.4,0.2-0.6c0.6-2.3-0.1-4.9-1.7-7c3.6,2.2,5.8,6.3,4.9,9.8c0,0.1,0,0.2,0,0.3c1.8,2.3,1.3,4.6,1.1,4.2
	C14.8,13.2,13,13.8,12.1,14.2z"/>
</svg>
