<?xml version="1.0" encoding="utf-8"?>
<!-- Generator: Adobe Illustrator 24.0.3, SVG Export Plug-In . SVG Version: 6.00 Build 0)  -->
<svg version="1.1" id="Capa_1" xmlns="http://www.w3.org/2000/svg" xmlns:xlink="http://www.w3.org/1999/xlink" x="0px" y="0px"
	 viewBox="0 0 16 16" style="enable-background:new 0 0 16 16;" xml:space="preserve">
<style type="text/css">
	.st0{fill:#A5A5A5;}
	.st1{fill:#FCBB9A;}
	.st2{fill:#FC8059;}
	.st3{fill:#F75631;}
	.st4{fill:#4C4C4C;}
</style>
<g>
	<path class="st0" d="M15.6,3v2.1H0.4V3c0-0.6,0.5-1,1-1h13.1C15.1,2,15.6,2.4,15.6,3z"/>
	<path class="st1" d="M15.6,4.6V14c0,0.6-0.5,1-1,1H1.4c-0.6,0-1-0.5-1-1V4.6h2.1V1.4c0-0.3,0.2-0.5,0.5-0.5h3.1
		c0.3,0,0.5,0.2,0.5,0.5v3.1H15.6z"/>
	<path class="st2" d="M6.7,1.4v3.1H2.5V1.4c0-0.3,0.2-0.5,0.5-0.5h3.1C6.5,0.9,6.7,1.2,6.7,1.4z"/>
	<path class="st3" d="M5.4,3H3.8C3.7,3,3.5,2.9,3.5,2.8V2.2C3.5,2.1,3.7,2,3.8,2h1.6c0.1,0,0.3,0.1,0.3,0.3v0.5C5.6,2.9,5.5,3,5.4,3
		z"/>
	<path class="st2" d="M13.8,13.5H2.2c-0.1,0-0.3-0.1-0.3-0.3V9c0-0.1,0.1-0.3,0.3-0.3h11.5C13.9,8.8,14,8.9,14,9v4.2
		C14,13.4,13.9,13.5,13.8,13.5z M5.6,7.5V7c0-0.1-0.1-0.3-0.3-0.3H2.2C2.1,6.7,2,6.8,2,7v0.5c0,0.1,0.1,0.3,0.3,0.3h3.1
		C5.5,7.7,5.6,7.6,5.6,7.5z M14,7.5V7c0-0.1-0.1-0.3-0.3-0.3H7C6.8,6.7,6.7,6.8,6.7,7v0.5c0,0.1,0.1,0.3,0.3,0.3h6.8
		C13.9,7.7,14,7.6,14,7.5z"/>
	<path class="st4" d="M12.5,2.9c-0.2,0-0.4,0.2-0.4,0.4v0.1c0,0.2,0.2,0.4,0.4,0.4c0.2,0,0.4-0.2,0.4-0.4V3.3
		C12.9,3,12.7,2.9,12.5,2.9z"/>
	<path class="st4" d="M14,2.9c-0.2,0-0.4,0.2-0.4,0.4v0.1c0,0.2,0.2,0.4,0.4,0.4c0.2,0,0.4-0.2,0.4-0.4V3.3C14.4,3,14.3,2.9,14,2.9z
		"/>
	<path class="st4" d="M10.9,2.9c-0.2,0-0.4,0.2-0.4,0.4v0.1c0,0.2,0.2,0.4,0.4,0.4c0.2,0,0.4-0.2,0.4-0.4V3.3
		C11.3,3,11.1,2.9,10.9,2.9z"/>
	<path class="st4" d="M14.6,15.5c0.8,0,1.4-0.6,1.4-1.4l0-11c0-0.8-0.6-1.4-1.4-1.4H7.1V1.4c0-0.5-0.4-0.9-0.9-0.9H3
		c-0.5,0-0.9,0.4-0.9,0.9v0.1H1.4C0.6,1.6,0,2.2,0,3v11c0,0.8,0.6,1.4,1.4,1.4L14.6,15.5z M7.1,2.4h7.5c0.4,0,0.7,0.3,0.7,0.7v1.2
		H7.1V2.4z M2.9,1.4c0-0.1,0.1-0.1,0.1-0.1h3.1c0.1,0,0.1,0.1,0.1,0.1v2.8H2.9V1.4z M0.8,3c0-0.4,0.3-0.7,0.7-0.7h0.7v1.8H0.8V3z
		 M1.4,14.7c-0.4,0-0.7-0.3-0.7-0.7V5h14.4v9c0,0.4-0.3,0.7-0.7,0.7H1.4z"/>
</g>
</svg>
