<?xml version="1.0" encoding="utf-8"?>
<!-- Generator: Adobe Illustrator 24.0.3, SVG Export Plug-In . SVG Version: 6.00 Build 0)  -->
<svg version="1.1" id="Capa_1" xmlns="http://www.w3.org/2000/svg" xmlns:xlink="http://www.w3.org/1999/xlink" x="0px" y="0px"
	 viewBox="0 0 16 16" style="enable-background:new 0 0 16 16;" xml:space="preserve">
<style type="text/css">
	.st0{fill:#CCCCCC;}
	.st1{fill:#3FA9F5;}
</style>
<g>
	<path class="st0" d="M11.8,0H0.7C0.3,0,0,0.3,0,0.7v2.8h12.5V0.7C12.5,0.3,12.2,0,11.8,0z"/>
	<path class="st0" d="M0.7,16h11.1c0.4,0,0.7-0.3,0.7-0.7v-2.8H0v2.8C0,15.7,0.3,16,0.7,16z"/>
	<rect y="4.2" class="st0" width="12.5" height="3.5"/>
	<path class="st1" d="M15.3,8.3h-11c-0.4,0-0.7,0.3-0.7,0.7v2c0,0.4,0.3,0.7,0.7,0.7h11c0.4,0,0.7-0.3,0.7-0.7v-2
		C16,8.7,15.7,8.3,15.3,8.3z"/>
</g>
</svg>
