<?xml version="1.0" encoding="utf-8"?>
<!-- Generator: Adobe Illustrator 24.0.3, SVG Export Plug-In . SVG Version: 6.00 Build 0)  -->
<svg version="1.1" id="Capa_1" xmlns="http://www.w3.org/2000/svg" xmlns:xlink="http://www.w3.org/1999/xlink" x="0px" y="0px"
	 viewBox="0 0 16 16" style="enable-background:new 0 0 16 16;" xml:space="preserve">
<style type="text/css">
	.st0{fill:#BDCCD4;}
</style>
<g>
	<path class="st0" d="M4.6,0.7V7c0,0.1,0,0.1,0,0.2c0,0.1,0,0.1,0.1,0.1c0,0,0.1,0.1,0.2,0.1c0.1,0,0.2,0.1,0.4,0.1
		c0.1,0,0.2,0.1,0.2,0.2c0,0,0,0.1,0,0.1c0,0,0,0.1,0,0.1c-0.3,0-0.5,0-0.8,0c-0.3,0-0.6,0-0.8,0c-0.2,0-0.5,0-0.8,0
		c-0.3,0-0.6,0-0.8,0c0,0,0-0.1,0-0.1c0,0,0-0.1,0-0.1c0-0.1,0-0.1,0-0.1s0.1-0.1,0.2-0.1c0.3,0,0.5-0.1,0.6-0.2S3.1,7.1,3.1,7V0.7
		H2.1c-0.2,0-0.4,0-0.6,0.1c-0.2,0-0.3,0.1-0.4,0.2C1,1,0.9,1.2,0.8,1.3C0.7,1.5,0.6,1.6,0.5,1.8c0,0.1-0.1,0.1-0.2,0.1
		c0,0-0.1,0-0.2,0C0.1,1.9,0,1.9,0,1.9c0.1-0.2,0.1-0.4,0.1-0.5c0-0.1,0.1-0.3,0.1-0.4c0-0.2,0.1-0.3,0.1-0.5c0-0.1,0-0.2,0.1-0.3
		C0.4,0,0.5,0,0.6,0c0.1,0,0.3,0,0.5,0c0.3,0,0.6,0,0.9,0h3.7c0.4,0,0.7,0,0.9,0s0.4,0,0.5,0c0.1,0,0.2,0,0.2,0.1
		c0,0.1,0,0.2,0.1,0.3c0,0.1,0,0.3,0.1,0.5c0,0.1,0.1,0.3,0.1,0.4c0,0.1,0.1,0.3,0.1,0.5c0,0-0.1,0-0.1,0.1c-0.1,0-0.1,0-0.2,0
		c-0.1,0-0.2,0-0.2-0.1C7.2,1.6,7.1,1.5,7,1.3C6.9,1.2,6.8,1,6.7,0.9C6.5,0.9,6.4,0.8,6.2,0.7c-0.2,0-0.3-0.1-0.6-0.1H4.6z"/>
	<path class="st0" d="M7.2,8.7v2.9h1.7c0.2,0,0.3-0.1,0.3-0.2c0.1-0.1,0.1-0.3,0.1-0.6c0-0.1,0-0.1,0.1-0.1c0,0,0.1,0,0.2,0
		c0,0,0.1,0,0.1,0c0.1,0,0.1,0,0.1,0c0,0.2,0,0.4,0,0.6c0,0.2,0,0.5,0,0.6c0,0.1,0,0.3,0,0.5c0,0.2,0,0.4,0,0.7c0,0-0.1,0-0.1,0
		c-0.1,0-0.1,0-0.1,0c-0.1,0-0.2-0.1-0.2-0.2c0-0.3-0.1-0.5-0.2-0.6c-0.1-0.1-0.2-0.2-0.3-0.2H7.2v2.7c0,0.2,0.1,0.3,0.3,0.3
		c0.2,0.1,0.6,0.1,1.1,0.1h0.5c0.2,0,0.4,0,0.6-0.1c0.2-0.1,0.3-0.2,0.4-0.3s0.2-0.3,0.3-0.4c0.1-0.2,0.2-0.3,0.3-0.5
		c0-0.1,0.1-0.1,0.2-0.1c0,0,0.1,0,0.1,0c0.1,0,0.1,0,0.2,0.1c0,0.1,0,0.1-0.1,0.2c0,0.1,0,0.1-0.1,0.2c0,0.1-0.1,0.2-0.1,0.3
		c0,0.1,0,0.2-0.1,0.3c0,0.1,0,0.2-0.1,0.3s0,0.2-0.1,0.3c0,0.1,0,0.2-0.1,0.2c0,0.1,0,0.1,0,0.1c0,0.1-0.1,0.1-0.2,0.1
		c-0.1,0-0.2,0-0.3,0s-0.2,0-0.4,0c-0.1,0-0.3,0-0.4,0s-0.3,0-0.4,0H6.4c-0.2,0-0.5,0-0.8,0c-0.3,0-0.6,0-0.8,0c0,0,0-0.1,0-0.1
		c0-0.1,0-0.1,0-0.1c0-0.1,0-0.2,0.1-0.2c0.3-0.1,0.5-0.1,0.7-0.2c0.1-0.1,0.2-0.2,0.2-0.3V9c0-0.1,0-0.1,0-0.2
		c0-0.1-0.1-0.1-0.1-0.1c-0.1,0-0.2-0.1-0.3-0.1C5.2,8.6,5,8.6,4.9,8.5c-0.1,0-0.1-0.1-0.1-0.2c0,0,0-0.1,0-0.1s0-0.1,0-0.1
		c0.3,0,0.6,0,0.9,0c0.3,0,0.5,0,0.7,0h2.5c0.4,0,0.7,0,0.9,0c0.3,0,0.4,0,0.5,0c0.1,0,0.2,0,0.2,0.1c0,0.1,0,0.2,0.1,0.4
		s0,0.4,0.1,0.5c0,0.1,0.1,0.3,0.1,0.4c0,0.1,0.1,0.3,0.1,0.5c0,0-0.1,0-0.1,0s-0.1,0-0.1,0c-0.1,0-0.2,0-0.2-0.1
		c-0.1-0.2-0.2-0.4-0.3-0.5C10,9.2,9.9,9.1,9.8,9C9.7,8.9,9.5,8.8,9.4,8.8C9.2,8.8,9,8.7,8.8,8.7H7.2z"/>
	<path class="st0" d="M14.8,7c0.1,0.1,0.2,0.2,0.3,0.3c0.1,0.1,0.4,0.1,0.7,0.2c0,0,0.1,0,0.1,0.1c0,0,0.1,0.1,0.1,0.2
		c0,0,0,0.1,0,0.1c0,0.1,0,0.1,0,0.1c-0.1,0-0.3,0-0.5,0s-0.3,0-0.5,0s-0.3,0-0.5,0c-0.2,0-0.3,0-0.4,0c-0.3,0-0.6,0-0.9,0
		s-0.7,0-1,0c0,0,0-0.1,0-0.1s0-0.1,0-0.1c0-0.1,0-0.1,0-0.2c0,0,0.1-0.1,0.1-0.1c0.2,0,0.4-0.1,0.5-0.1c0.1,0,0.2-0.1,0.2-0.2
		c0-0.1,0-0.2-0.1-0.3l-1.5-2.4L9.9,6.7C9.9,6.8,9.8,6.9,9.8,6.9c0,0.1-0.1,0.1-0.1,0.2c0,0.1,0,0.2,0.1,0.2s0.3,0.1,0.5,0.1
		c0,0,0.1,0,0.1,0.1c0,0,0,0.1,0,0.2c0,0,0,0.1,0,0.1s0,0.1,0,0.1c-0.2,0-0.4,0-0.7,0c-0.3,0-0.5,0-0.7,0c-0.2,0-0.4,0-0.6,0
		c-0.2,0-0.4,0-0.7,0c0,0,0-0.1,0-0.1s0-0.1,0-0.1c0-0.1,0.1-0.2,0.2-0.2c0.2,0,0.4-0.1,0.6-0.2C8.7,7.2,8.8,7.1,8.9,7L11,3.9L9,0.9
		C8.9,0.7,8.8,0.7,8.7,0.6C8.5,0.5,8.3,0.5,8.1,0.5c-0.1,0-0.2-0.1-0.2-0.2c0,0,0-0.1,0-0.1s0-0.1,0-0.1C8,0,8.2,0,8.3,0
		c0.2,0,0.3,0,0.5,0c0.2,0,0.3,0,0.4,0s0.3,0,0.4,0c0.1,0,0.2,0,0.4,0c0.2,0,0.3,0,0.5,0c0.2,0,0.4,0,0.5,0c0.2,0,0.3,0,0.5,0
		c0,0,0,0.1,0,0.1c0,0,0,0.1,0,0.1c0,0.1,0,0.2-0.1,0.2c-0.4,0-0.6,0.1-0.6,0.3c0,0.1,0,0.2,0.1,0.3l1.3,2.1l1.4-2
		c0-0.1,0.1-0.1,0.1-0.2c0-0.1,0-0.1,0-0.1c0-0.2-0.2-0.3-0.6-0.3C13,0.4,13,0.4,13,0.2c0,0,0-0.1,0-0.1c0,0,0-0.1,0-0.1
		c0.2,0,0.5,0,0.7,0c0.3,0,0.5,0,0.6,0c0.2,0,0.5,0,0.7,0c0.2,0,0.4,0,0.6,0c0,0,0,0.1,0,0.1c0,0,0,0.1,0,0.1c0,0.1,0,0.1,0,0.2
		c0,0-0.1,0.1-0.1,0.1c-0.2,0-0.4,0.1-0.6,0.1c-0.1,0.1-0.3,0.2-0.4,0.3l-1.9,2.7L14.8,7z"/>
</g>
</svg>
