<?xml version="1.0" encoding="utf-8"?>
<!-- Generator: Adobe Illustrator 24.0.3, SVG Export Plug-In . SVG Version: 6.00 Build 0)  -->
<svg version="1.1" id="Capa_1" xmlns="http://www.w3.org/2000/svg" xmlns:xlink="http://www.w3.org/1999/xlink" x="0px" y="0px"
	 viewBox="0 0 16 16" style="enable-background:new 0 0 16 16;" xml:space="preserve">
<style type="text/css">
	.st0{fill:#7AC943;}
</style>
<path class="st0" d="M8,0C3.6,0,0,3.6,0,8s3.6,8,8,8s8-3.6,8-8S12.4,0,8,0z M5.2,6.8H3.8v3.5H2.3V6.8H0.9V5.7h4.4V6.8z M9.6,9.6
	c-0.2,0.3-0.4,0.4-0.7,0.6c-0.3,0.1-0.7,0.2-1.1,0.2c-0.8,0-1.3-0.2-1.6-0.5C5.8,9.6,5.7,9.3,5.6,8.8L7,8.7c0,0.2,0.1,0.4,0.2,0.5
	c0.1,0.2,0.4,0.3,0.6,0.3c0.2,0,0.4,0,0.5-0.1C8.4,9.2,8.4,9.1,8.4,9c0-0.1-0.1-0.2-0.2-0.3C8.2,8.6,7.9,8.5,7.6,8.4
	C6.9,8.3,6.5,8.1,6.2,7.9C5.9,7.6,5.8,7.3,5.8,7c0-0.2,0.1-0.5,0.2-0.7c0.1-0.2,0.3-0.4,0.6-0.5c0.3-0.1,0.7-0.2,1.1-0.2
	c0.6,0,1,0.1,1.4,0.3C9.4,6.2,9.6,6.5,9.7,7L8.3,7.1c0-0.2-0.1-0.4-0.2-0.5C8,6.5,7.8,6.5,7.6,6.5c-0.2,0-0.3,0-0.4,0.1
	C7.2,6.6,7.1,6.7,7.1,6.8c0,0.1,0,0.1,0.1,0.2c0.1,0.1,0.2,0.1,0.5,0.2c0.6,0.1,1.1,0.3,1.3,0.4c0.3,0.1,0.5,0.3,0.6,0.5
	c0.1,0.2,0.2,0.4,0.2,0.7C9.8,9.1,9.8,9.4,9.6,9.6z M13.4,10.3h-1.6l-1.7-4.6h1.5l1,3.3l1-3.3h1.5L13.4,10.3z"/>
</svg>
