<?xml version="1.0" encoding="utf-8"?>
<!-- Generator: Adobe Illustrator 24.0.3, SVG Export Plug-In . SVG Version: 6.00 Build 0)  -->
<svg version="1.1" id="Capa_1" xmlns="http://www.w3.org/2000/svg" xmlns:xlink="http://www.w3.org/1999/xlink" x="0px" y="0px"
	 viewBox="0 0 16 16" style="enable-background:new 0 0 16 16;" xml:space="preserve">
<style type="text/css">
	.st0{fill:#BDCCD4;}
	.st1{fill:#926DCC;stroke:#000000;stroke-width:0.25;stroke-miterlimit:10;}
	.st2{fill:#3FA9F5;stroke:#000000;stroke-width:0.25;stroke-miterlimit:10;}
</style>
<g>
	<path class="st0" d="M15,16H1c-0.6,0-1-0.4-1-1V1c0-0.6,0.4-1,1-1h14c0.6,0,1,0.4,1,1v14C16,15.6,15.6,16,15,16z"/>
	<path class="st1" d="M6.6,10.3H3.8l-0.5,1.6H1.5L4.4,4h1.5l3,7.9H7.2L6.6,10.3z M4.2,8.9h2l-1-3L4.2,8.9z"/>
	<path class="st2" d="M12.9,11.9c-0.1-0.1-0.1-0.3-0.2-0.5c-0.4,0.4-0.9,0.6-1.5,0.6c-0.6,0-1-0.2-1.4-0.5s-0.6-0.8-0.6-1.3
		c0-0.6,0.2-1.1,0.7-1.4s1.1-0.5,2-0.5h0.7V8c0-0.3-0.1-0.5-0.2-0.6c-0.1-0.2-0.4-0.2-0.7-0.2c-0.3,0-0.5,0.1-0.6,0.2
		C11.1,7.4,11,7.6,11,7.8H9.4c0-0.3,0.1-0.7,0.3-0.9c0.2-0.3,0.5-0.5,0.9-0.7C11,6,11.4,5.9,11.9,5.9c0.7,0,1.3,0.2,1.7,0.5
		c0.4,0.4,0.6,0.9,0.6,1.5v2.5c0,0.6,0.1,1,0.2,1.3v0.1H12.9z M11.6,10.8c0.2,0,0.4-0.1,0.6-0.2s0.3-0.2,0.4-0.4v-1h-0.6
		c-0.8,0-1.2,0.3-1.3,0.8l0,0.1c0,0.2,0.1,0.4,0.2,0.5S11.4,10.8,11.6,10.8z"/>
</g>
</svg>
