<?xml version="1.0" encoding="utf-8"?>
<!-- Generator: Adobe Illustrator 24.0.3, SVG Export Plug-In . SVG Version: 6.00 Build 0)  -->
<svg version="1.1" id="Capa_1" xmlns="http://www.w3.org/2000/svg" xmlns:xlink="http://www.w3.org/1999/xlink" x="0px" y="0px"
	 viewBox="0 0 16 16" style="enable-background:new 0 0 16 16;" xml:space="preserve">
<style type="text/css">
	.st0{fill-rule:evenodd;clip-rule:evenodd;fill:#1A1A1A;}
	.st1{fill-rule:evenodd;clip-rule:evenodd;fill:#7AC943;}
	.st2{fill:#1A1A1A;}
</style>
<g>
	<g>
		<path class="st0" d="M6.1,9.1l0,2.7c0,1.5,0,2.7,0,2.7l0,0h0.7c0.6,0,0.7,0,0.7,0c0,0,0-1.2,0-2.7V9.1l0.9,0l0.9,0V8.5
			c0-0.5,0-0.6,0-0.6c0,0-0.6,0-1.5,0h0l0,0c-0.3,0-0.7,0-1.1,0c-2.1,0-2.6,0-2.6,0c0,0,0,0.1,0,0.6v0.6l0.9,0L6.1,9.1z"/>
		<path class="st0" d="M11.7,14.6c0.2,0,0.6,0,0.9,0c0.2,0,0.4,0,0.5-0.1c0.7-0.2,1.2-0.6,1.3-1.2c0.1-0.2,0.1-0.5,0.1-0.8
			c0-0.5-0.2-0.9-0.5-1.2c-0.3-0.3-0.7-0.5-1.5-0.9c-0.7-0.3-0.9-0.4-0.9-0.6c-0.1-0.2-0.1-0.4,0-0.6C11.8,9.1,12.1,9,12.3,9
			c0.3,0,0.4,0.1,0.6,0.4c0.1,0.1,0.1,0.2,0.2,0.2c0,0,0.1-0.1,0.5-0.3C14,9,14.1,8.9,14.1,8.9c0,0,0-0.1-0.2-0.4
			c-0.4-0.4-0.8-0.7-1.3-0.7c-0.1,0-0.3,0-0.5,0v0l0,0c-0.1,0-0.2,0-0.2,0c-0.5,0-1,0.3-1.3,0.6c-0.2,0.2-0.3,0.4-0.4,0.6
			c-0.1,0.2-0.1,0.2-0.1,0.6c0,0.5,0,0.6,0.2,0.9c0.2,0.3,0.4,0.6,0.8,0.8c0.2,0.1,0.6,0.3,0.9,0.4c0.7,0.3,0.9,0.5,1,0.7l0,0.1v0.2
			c0,0.2,0,0.2,0,0.3c-0.1,0.2-0.3,0.3-0.5,0.4c-0.1,0-0.1,0-0.3,0c-0.2,0-0.3,0-0.3,0c-0.2,0-0.3-0.1-0.4-0.2
			c-0.1-0.1-0.4-0.3-0.5-0.5c0-0.1-0.1-0.1-0.1-0.1c0,0-0.9,0.5-1.1,0.6c-0.1,0-0.1,0-0.1,0.1c0,0.1,0.2,0.4,0.4,0.6
			C10.5,14.1,11.1,14.5,11.7,14.6z"/>
	</g>
	<path class="st1" d="M0,0v16h16V0H0z M12.2,7.8L12.2,7.8c0.2,0,0.3,0,0.5,0c0.5,0.1,1,0.3,1.3,0.7c0.2,0.2,0.2,0.3,0.2,0.4
		c0,0-0.1,0.1-0.5,0.4c-0.4,0.3-0.5,0.3-0.5,0.3c0,0-0.1-0.1-0.2-0.2c-0.2-0.2-0.3-0.3-0.6-0.4c-0.3,0-0.5,0.1-0.7,0.2
		c-0.1,0.2-0.1,0.4,0,0.6c0.1,0.2,0.3,0.3,0.9,0.6c0.8,0.3,1.2,0.6,1.5,0.9c0.3,0.3,0.5,0.7,0.5,1.2c0,0.2,0,0.5-0.1,0.8
		c-0.2,0.6-0.6,1-1.3,1.2c-0.2,0.1-0.4,0.1-0.5,0.1c-0.3,0-0.7,0-0.9,0c-0.6-0.1-1.2-0.4-1.6-0.8c-0.2-0.2-0.4-0.5-0.4-0.6
		c0,0,0,0,0.1-0.1c0.2-0.1,1-0.6,1.1-0.6c0,0,0.1,0.1,0.1,0.1c0.1,0.2,0.4,0.4,0.5,0.5c0.1,0.1,0.2,0.1,0.4,0.2c0.1,0,0.1,0,0.3,0
		c0.2,0,0.2,0,0.3,0c0.2-0.1,0.4-0.2,0.5-0.4c0-0.1,0-0.1,0-0.3v-0.2l0-0.1c-0.1-0.2-0.3-0.4-1-0.7c-0.3-0.1-0.7-0.3-0.9-0.4
		c-0.4-0.2-0.6-0.5-0.8-0.8c-0.2-0.3-0.2-0.4-0.2-0.9c0-0.4,0-0.4,0.1-0.6c0.1-0.2,0.2-0.5,0.4-0.6C11,8,11.4,7.8,11.9,7.8
		C12,7.8,12.1,7.8,12.2,7.8L12.2,7.8z M7.9,7.8L7.9,7.8c1,0,1.5,0,1.5,0c0,0,0,0.1,0,0.6v0.6l-0.9,0l-0.9,0v2.7c0,1.5,0,2.7,0,2.7
		c0,0-0.1,0-0.7,0H6.1l0,0c0,0,0-1.2,0-2.7l0-2.7l-0.9,0l-0.9,0V8.5c0-0.5,0-0.6,0-0.6c0,0,0.5,0,2.6,0C7.2,7.8,7.6,7.8,7.9,7.8
		L7.9,7.8z"/>
	<g>
		<circle class="st2" cx="4" cy="3.6" r="0.7"/>
		<path class="st2" d="M4,5.2c-0.9,0-1.7-0.1-2.5-0.3c-0.4-0.1-0.7-0.3-1-0.6C0.2,4.1,0,3.8,0,3.6c0-0.5,0.5-0.9,1.4-1.2
			C2.2,2,3.1,1.9,4,1.9c0.9,0,1.7,0.1,2.6,0.4c0.4,0.1,0.7,0.3,1,0.5C7.8,3,8,3.3,8,3.6c0,0.5-0.6,1-1.5,1.3C5.7,5.1,4.8,5.2,4,5.2z
			 M4,2.3c-0.8,0-1.7,0.1-2.5,0.4C0.7,2.9,0.3,3.3,0.3,3.6c0,0.3,0.4,0.7,1.2,1C2.4,4.8,3.2,4.9,4,4.8c0.8,0,1.6-0.1,2.4-0.3
			c0.9-0.3,1.3-0.7,1.3-1c0-0.2-0.1-0.3-0.3-0.4C7.1,2.9,6.8,2.7,6.5,2.6C5.7,2.4,4.8,2.3,4,2.3z"/>
		<path class="st2" d="M2.4,7.1C2.2,7.1,2.1,7.1,2,7C1.6,6.8,1.4,6.1,1.6,5.2c0.2-0.9,0.5-1.7,1-2.5l0,0c0.4-0.8,1-1.5,1.6-2
			c0.3-0.3,0.6-0.5,1-0.6C5.4,0,5.7,0,6,0.1c0.4,0.2,0.6,1,0.4,2C6.2,2.9,5.8,3.7,5.4,4.4C5,5.1,4.5,5.8,3.8,6.4
			C3.6,6.7,3.2,6.9,2.8,7C2.7,7.1,2.5,7.1,2.4,7.1z M2.9,2.9C2.5,3.6,2.1,4.4,2,5.3c-0.2,0.8,0,1.3,0.2,1.5c0.2,0.1,0.8,0,1.5-0.6
			c0.6-0.6,1.1-1.2,1.5-1.9C5.5,3.5,5.8,2.8,6,2c0.2-0.9,0-1.5-0.2-1.6c-0.2-0.1-0.4-0.1-0.5,0C5,0.5,4.7,0.7,4.4,1
			C3.8,1.5,3.3,2.2,2.9,2.9L2.9,2.9z"/>
		<path class="st2" d="M5.6,7.1c-0.4,0-0.9-0.2-1.4-0.7C3.6,5.8,3,5.1,2.6,4.4l0,0C2.1,3.6,1.8,2.8,1.6,2c-0.1-0.4-0.1-0.8,0-1.1
			c0-0.3,0.2-0.5,0.4-0.7c0.4-0.2,1.1,0,1.9,0.7C4.5,1.3,5,2,5.4,2.7c0.4,0.7,0.8,1.5,1,2.4c0.1,0.4,0.1,0.8,0,1.2
			C6.4,6.6,6.2,6.9,6,7C5.9,7.1,5.8,7.1,5.6,7.1z M2.9,4.2c0.4,0.7,0.9,1.4,1.6,2c0.6,0.6,1.2,0.7,1.4,0.5C6.1,6.6,6.2,6.1,6,5.2
			C5.9,4.4,5.5,3.6,5.1,2.9C4.7,2.2,4.2,1.6,3.6,1C3,0.4,2.4,0.3,2.2,0.4C2,0.5,1.9,0.7,1.9,0.9c0,0.3,0,0.7,0,1
			C2.1,2.7,2.5,3.5,2.9,4.2L2.9,4.2z"/>
	</g>
</g>
</svg>
