<?xml version="1.0" encoding="utf-8"?>
<!-- Generator: Adobe Illustrator 24.0.3, SVG Export Plug-In . SVG Version: 6.00 Build 0)  -->
<svg version="1.1" id="Capa_1" xmlns="http://www.w3.org/2000/svg" xmlns:xlink="http://www.w3.org/1999/xlink" x="0px" y="0px"
	 viewBox="0 0 16 16" style="enable-background:new 0 0 16 16;" xml:space="preserve">
<style type="text/css">
	.st0{fill-rule:evenodd;clip-rule:evenodd;fill:#1A1A1A;}
	.st1{fill-rule:evenodd;clip-rule:evenodd;fill:#7AC943;}
</style>
<g>
	<g>
		<path class="st0" d="M6.1,9.1l0,2.7c0,1.5,0,2.7,0,2.7l0,0h0.7c0.6,0,0.7,0,0.7,0c0,0,0-1.2,0-2.7V9.1l0.9,0l0.9,0V8.5
			c0-0.5,0-0.6,0-0.6c0,0-0.6,0-1.5,0h0l0,0c-0.3,0-0.7,0-1.1,0c-2.1,0-2.6,0-2.6,0c0,0,0,0.1,0,0.6v0.6l0.9,0L6.1,9.1z"/>
		<path class="st0" d="M11.7,14.6c0.2,0,0.6,0,0.9,0c0.2,0,0.4,0,0.5-0.1c0.7-0.2,1.2-0.6,1.3-1.2c0.1-0.2,0.1-0.5,0.1-0.8
			c0-0.5-0.2-0.9-0.5-1.2c-0.3-0.3-0.7-0.5-1.5-0.9c-0.7-0.3-0.9-0.4-0.9-0.6c-0.1-0.2-0.1-0.4,0-0.6C11.8,9.1,12.1,9,12.3,9
			c0.3,0,0.4,0.1,0.6,0.4c0.1,0.1,0.1,0.2,0.2,0.2c0,0,0.1-0.1,0.5-0.3C14,9,14.1,8.9,14.1,8.9c0,0,0-0.1-0.2-0.4
			c-0.4-0.4-0.8-0.7-1.3-0.7c-0.1,0-0.3,0-0.5,0v0l0,0c-0.1,0-0.2,0-0.2,0c-0.5,0-1,0.3-1.3,0.6c-0.2,0.2-0.3,0.4-0.4,0.6
			c-0.1,0.2-0.1,0.2-0.1,0.6c0,0.5,0,0.6,0.2,0.9c0.2,0.3,0.4,0.6,0.8,0.8c0.2,0.1,0.6,0.3,0.9,0.4c0.7,0.3,0.9,0.5,1,0.7l0,0.1v0.2
			c0,0.2,0,0.2,0,0.3c-0.1,0.2-0.3,0.3-0.5,0.4c-0.1,0-0.1,0-0.3,0c-0.2,0-0.3,0-0.3,0c-0.2,0-0.3-0.1-0.4-0.2
			c-0.1-0.1-0.4-0.3-0.5-0.5c0-0.1-0.1-0.1-0.1-0.1c0,0-0.9,0.5-1.1,0.6c-0.1,0-0.1,0-0.1,0.1c0,0.1,0.2,0.4,0.4,0.6
			C10.5,14.1,11.1,14.5,11.7,14.6z"/>
	</g>
	<path class="st1" d="M0,0v16h16V0H0z M12.2,7.8L12.2,7.8c0.2,0,0.3,0,0.5,0c0.5,0.1,1,0.3,1.3,0.7c0.2,0.2,0.2,0.3,0.2,0.4
		c0,0-0.1,0.1-0.5,0.4c-0.4,0.3-0.5,0.3-0.5,0.3c0,0-0.1-0.1-0.2-0.2c-0.2-0.2-0.3-0.3-0.6-0.4c-0.3,0-0.5,0.1-0.7,0.2
		c-0.1,0.2-0.1,0.4,0,0.6c0.1,0.2,0.3,0.3,0.9,0.6c0.8,0.3,1.2,0.6,1.5,0.9c0.3,0.3,0.5,0.7,0.5,1.2c0,0.2,0,0.5-0.1,0.8
		c-0.2,0.6-0.6,1-1.3,1.2c-0.2,0.1-0.4,0.1-0.5,0.1c-0.3,0-0.7,0-0.9,0c-0.6-0.1-1.2-0.4-1.6-0.8c-0.2-0.2-0.4-0.5-0.4-0.6
		c0,0,0,0,0.1-0.1c0.2-0.1,1-0.6,1.1-0.6c0,0,0.1,0.1,0.1,0.1c0.1,0.2,0.4,0.4,0.5,0.5c0.1,0.1,0.2,0.1,0.4,0.2c0.1,0,0.1,0,0.3,0
		c0.2,0,0.2,0,0.3,0c0.2-0.1,0.4-0.2,0.5-0.4c0-0.1,0-0.1,0-0.3v-0.2l0-0.1c-0.1-0.2-0.3-0.4-1-0.7c-0.3-0.1-0.7-0.3-0.9-0.4
		c-0.4-0.2-0.6-0.5-0.8-0.8c-0.2-0.3-0.2-0.4-0.2-0.9c0-0.4,0-0.4,0.1-0.6c0.1-0.2,0.2-0.5,0.4-0.6C11,8,11.4,7.8,11.9,7.8
		C12,7.8,12.1,7.8,12.2,7.8L12.2,7.8z M7.9,7.8L7.9,7.8c1,0,1.5,0,1.5,0c0,0,0,0.1,0,0.6v0.6l-0.9,0l-0.9,0v2.7c0,1.5,0,2.7,0,2.7
		c0,0-0.1,0-0.7,0H6.1l0,0c0,0,0-1.2,0-2.7l0-2.7l-0.9,0l-0.9,0V8.5c0-0.5,0-0.6,0-0.6c0,0,0.5,0,2.6,0C7.2,7.8,7.6,7.8,7.9,7.8
		L7.9,7.8z"/>
</g>
</svg>
