<?xml version="1.0" encoding="utf-8"?>
<!-- Generator: Adobe Illustrator 24.0.3, SVG Export Plug-In . SVG Version: 6.00 Build 0)  -->
<svg version="1.1" id="Capa_1" xmlns="http://www.w3.org/2000/svg" xmlns:xlink="http://www.w3.org/1999/xlink" x="0px" y="0px"
	 viewBox="0 0 16 16" style="enable-background:new 0 0 16 16;" xml:space="preserve">
<style type="text/css">
	.st0{opacity:0.4;}
	.st1{fill:#3FA9F5;}
	.st2{fill:#FF1D25;}
</style>
<g>
	<g class="st0">
		<path class="st1" d="M0.2,5.6c0,0-0.4-0.3,0.1-0.7l1.1-1c0,0,0.3-0.3,0.6,0L12,11.5v3.7c0,0,0,0.6-0.7,0.5L0.2,5.6z"/>
		<path class="st1" d="M2.7,8l-2.6,2.4c0,0-0.3,0.2,0,0.6L1.4,12c0,0,0.3,0.3,0.7,0l2.7-2.1L2.7,8z"/>
		<path class="st1" d="M7.3,8L12,4.3l0-3.6c0,0-0.2-0.8-0.9-0.4L4.8,6.1L7.3,8z"/>
		<path class="st1" d="M11.3,15.7c0.3,0.3,0.6,0.2,0.6,0.2l3.7-1.8c0.5-0.3,0.4-0.7,0.4-0.7V2.5c0-0.5-0.5-0.6-0.5-0.6l-3.2-1.5
			c-0.7-0.4-1.2,0.1-1.2,0.1s0.6-0.4,0.9,0.4v14.4c0,0.1,0,0.2-0.1,0.3C11.9,15.6,11.7,15.7,11.3,15.7L11.3,15.7z"/>
	</g>
	<g>
		<circle cx="13" cy="12.9" r="3"/>
		<rect x="11.1" y="12.1" class="st2" width="3.8" height="1.6"/>
	</g>
</g>
</svg>
