<?xml version="1.0" encoding="utf-8"?>
<!-- Generator: Adobe Illustrator 24.0.3, SVG Export Plug-In . SVG Version: 6.00 Build 0)  -->
<svg version="1.1" id="Capa_1" xmlns="http://www.w3.org/2000/svg" xmlns:xlink="http://www.w3.org/1999/xlink" x="0px" y="0px"
	 viewBox="0 0 16 16" style="enable-background:new 0 0 16 16;" xml:space="preserve">
<style type="text/css">
	.st0{fill:#4D4D4D;}
	.st1{fill:#3FA9F5;}
	.st2{fill:#808080;}
</style>
<g>
	<path class="st0" d="M15,16H1c-0.6,0-1-0.4-1-1V1c0-0.6,0.4-1,1-1h14c0.6,0,1,0.4,1,1v14C16,15.6,15.6,16,15,16z"/>
	<g>
		<path class="st1" d="M4,8.8c0,0-0.2-0.1,0-0.3L4.6,8c0,0,0.2-0.2,0.3,0l5.1,3.9v1.9c0,0,0,0.3-0.4,0.3L4,8.8z"/>
		<path class="st1" d="M5.3,10L4,11.2c0,0-0.1,0.1,0,0.3L4.6,12c0,0,0.1,0.2,0.4,0l1.4-1.1L5.3,10z"/>
		<path class="st1" d="M7.6,10l2.4-1.8l0-1.8c0,0-0.1-0.4-0.4-0.2L6.4,9L7.6,10z"/>
		<path class="st1" d="M9.7,13.9C9.8,14.1,10,14,10,14l1.9-0.9c0.2-0.2,0.2-0.4,0.2-0.4V7.2c0-0.2-0.2-0.3-0.2-0.3l-1.6-0.8
			c-0.4-0.2-0.6,0-0.6,0S9.9,5.9,10,6.3v7.3c0,0.1,0,0.1,0,0.1C10,13.9,9.9,13.9,9.7,13.9L9.7,13.9z"/>
	</g>
	<polygon class="st2" points="10.6,4.3 8,2.2 5.4,4.3 5.4,0 10.6,0 	"/>
</g>
</svg>
