<?xml version="1.0" encoding="utf-8"?>
<!-- Generator: Adobe Illustrator 24.0.3, SVG Export Plug-In . SVG Version: 6.00 Build 0)  -->
<svg version="1.1" id="Capa_1" xmlns="http://www.w3.org/2000/svg" xmlns:xlink="http://www.w3.org/1999/xlink" x="0px" y="0px"
	 viewBox="0 0 16 16" style="enable-background:new 0 0 16 16;" xml:space="preserve">
<style type="text/css">
	.st0{fill:#926DCC;}
	.st1{fill:#FF731E;}
	.st2{fill:#41B883;}
	.st3{fill:#35495E;}
</style>
<g>
	<path class="st0" d="M3.4,15C1.5,15,0,13.5,0,11.6c0-1.9,1.5-3.4,3.4-3.4s3.4,1.5,3.4,3.4C6.7,13.5,5.2,15,3.4,15z M3.4,9.3
		C2.1,9.3,1,10.3,1,11.6C1,12.9,2.1,14,3.4,14s2.4-1.1,2.4-2.4C5.7,10.3,4.7,9.3,3.4,9.3z"/>
	<path class="st1" d="M12.6,15c-1.9,0-3.4-1.5-3.4-3.4c0-1.9,1.5-3.4,3.4-3.4S16,9.8,16,11.6C16,13.5,14.5,15,12.6,15z"/>
	<g>
		<path class="st2" d="M0,1l8,14l8-14h-3.5L8,9L3.5,1H0z"/>
		<path class="st3" d="M3.5,1L8,9l4.5-8h-3L8,3.5L6.5,1H3.5z"/>
	</g>
</g>
</svg>
