<?xml version="1.0" encoding="utf-8"?>
<!-- Generator: Adobe Illustrator 24.0.3, SVG Export Plug-In . SVG Version: 6.00 Build 0)  -->
<svg version="1.1" id="Capa_1" xmlns="http://www.w3.org/2000/svg" xmlns:xlink="http://www.w3.org/1999/xlink" x="0px" y="0px"
	 viewBox="0 0 16 16" style="enable-background:new 0 0 16 16;" xml:space="preserve">
<style type="text/css">
	.st0{fill:#F4FF1F;}
	.st1{fill:#4D4D4D;}
</style>
<g>
	<path id="p6gN2Ah0Z" class="st0" d="M10.3,16c-0.4,0-0.8-0.1-1.1-0.2c-0.2,0-0.5-0.2-0.6-0.2l0,0l0.1,0c0.9-0.3,1.7-0.8,2.5-1.5
		c0.2-0.1,0.4-0.4,0.6-0.5l0.1-0.1l0.1,0c0.5,0.3,1,0.6,1.6,0.8l0.2,0.1l0,0.5l0,0.5l-0.1,0.1c-0.5,0.3-1.2,0.5-2.2,0.5
		C11.1,16,10.4,16,10.3,16z"/>
	<path id="p1DqA7MnZb" class="st1" d="M14.3,14.7v-0.5l0.1,0c0.3,0,0.5,0,0.7-0.1c0.1,0,0.3,0,0.3,0l0.1,0l-0.1,0.1
		c-0.2,0.3-0.6,0.7-0.9,0.9c-0.1,0-0.1,0.1-0.2,0.1l-0.1,0V14.7z"/>
	<path id="ppLSSAPJ2" class="st1" d="M7.1,13.8c-0.4,0-0.7-0.1-1.1-0.2c-0.1,0-0.1,0-0.2-0.2c-0.4-0.6-0.7-1.3-0.8-2
		c0-0.1,0-0.2,0-0.5l0-0.3l0.1,0c0.3,0.3,0.9,0.5,1.6,0.7c0.9,0.2,2.3,0.3,3.8,0.3c0.3,0,0.5,0,0.5,0c0,0,0,0.1,0,0.1
		c0,0.2,0,0.5,0,0.6c0,0.1,0.1,0.3,0.1,0.4l0,0.1l-0.2,0.1c-0.9,0.5-1.8,0.8-2.6,0.9c-0.3,0-0.5,0.1-0.8,0.1
		C7.3,13.8,7.1,13.8,7.1,13.8z"/>
	<path id="p1H3G0sD7Y" class="st0" d="M10.9,10.6c-1.7-0.3-3-0.7-3.8-1.2C6.9,9.2,6.6,8.9,6.5,8.7C6.4,8.6,6.3,8.4,6.2,8.2l0-0.1
		l0.1-0.1c0.2-0.2,0.5-0.4,1.1-0.8c0.2-0.1,0.2-0.2,0.2-0.2C7.6,6.9,7.5,6.7,7.5,6.5c0-0.2,0-0.4,0.1-0.6c0-0.2,0.1-0.3,0.2-0.5
		C8,4.9,8.4,4.5,8.9,4.2C9.2,4.1,9.4,4,9.8,4c0.3,0,0.5,0,0.8,0.1c0.1,0,0.1,0,0.1,0c0,0,0-0.1,0-0.2c0-0.3,0-0.5,0.1-0.7
		c0.2-0.5,0.5-1,0.9-1.2c0.1,0,0.1,0,0.1-0.1c0,0-0.1-0.2-0.3-0.5L11.2,1l0-0.1c0-0.1,0-0.2,0.1-0.2c0,0,0.3-0.1,1-0.3
		C12.8,0.2,13.3,0,13.3,0c0,0,0.1,0,0.1,0c0.1,0,0.2,0,0.2,0.1c0.1,0.1,0.1,0.1,0.1,0.2c0,0.1,0,0.1,0,0.1c0,0.1-0.1,0.1-0.2,0.1
		c0,0-0.4,0.1-0.8,0.3c-0.4,0.1-0.8,0.3-0.8,0.3c0,0,0.1,0.2,0.2,0.3l0.2,0.3l0.5-0.3l0.5-0.3H14c0.7,0,0.7,0,0.7,0
		c0.1,0,0.1,0.1,0.2,0.1c0.1,0.2,0,0.3-0.2,0.4c0,0-0.1,0-0.7,0h-0.6l-0.1,0c-0.1,0-0.1,0.1-0.1,0.1c0,0,0,0,0.1,0
		c0.6,0.2,1.4,0.8,1.9,1.6c0.2,0.4,0.5,0.8,0.6,1.1c0.1,0.3,0.1,0.6,0,0.7C15.7,5.7,14.9,6,13.9,6c-0.2,0-0.8,0-1,0
		c-0.2,0-0.3,0-0.4-0.1c0,0-0.1,0-0.1,0c0,0,0,0,0,0.1c0.1,0.2,0.1,0.5,0.2,0.7c0,0.2,0,0.5,0,0.7c0,0.3-0.2,0.6-0.3,0.9
		c-0.1,0.2-0.3,0.4-0.5,0.5C11.7,9,11.6,9,11.4,9.1c-0.1,0-0.1,0-0.4,0c-0.1,0-0.3,0-0.3,0s0,0,0.1,0.1c0.2,0.4,0.3,0.8,0.3,1.2
		c0,0.1,0,0.2,0,0.2l0,0L10.9,10.6z M14.1,4.5c0.2,0,0.5-0.2,0.6-0.3c0-0.1,0-0.1,0-0.2c-0.1-0.3-0.5-0.8-0.7-1
		c-0.3-0.2-0.5-0.3-0.7-0.3c-0.1,0-0.2,0-0.3,0.1c-0.2,0.1-0.3,0.3-0.3,0.5c0,0.1,0,0.3,0,0.4c0.1,0.4,0.4,0.7,0.8,0.8
		c0.1,0,0.1,0,0.2,0C13.7,4.5,14,4.5,14.1,4.5z"/>
	<path id="pzvzCjuwH" class="st1" d="M6.5,7C4.7,6.6,3.1,5.8,1.9,4.6C1.6,4.3,1.4,4.1,1.2,3.8C0.8,3.2,0.5,2.6,0.3,2.1
		c0-0.2-0.1-0.5-0.1-0.7c0-0.2,0-0.2,0-0.5c0-0.3,0-0.4,0.1-0.5C0.3,0.2,0.4,0.1,0.6,0c0,0,0.1,0,0.2,0c1.1,0,3,0.7,4.8,1.7
		C6.6,2.3,7.6,3,8.3,3.6l0.1,0.1l-0.1,0C8.2,3.8,7.9,4,7.7,4.3c0,0-0.1,0.1-0.1,0.1c0,0-0.1-0.1-0.1-0.1c-1.3-1-3.1-2.1-4.8-2.7
		C2.2,1.3,1.7,1.1,1.6,1.1c-0.1,0-0.2,0-0.3,0C1,1.2,1.1,1.7,1.5,2.4C2.4,4,3.8,5.2,5.7,5.7C6,5.8,6.4,6,6.7,6c0,0,0.1,0,0.1,0
		c0,0,0,0,0,0.1c0,0.2-0.1,0.3-0.1,0.5c0,0.1,0,0.2,0,0.3c0,0,0,0.1,0,0.1C6.7,7,6.6,7,6.5,7z"/>
	<path id="p16vxu0vVK" class="st1" d="M9.9,3.5c-0.1,0-0.2,0-0.4-0.1c-0.2,0-0.2,0-0.2,0c-0.5-0.6-1-1.2-1.7-1.7
		c-0.8-0.6-1.6-0.9-2-0.8c0,0,0,0-0.1,0c0,0-0.2-0.1-0.4-0.2L4.8,0.4l0,0c0.1-0.1,0.3-0.2,0.4-0.3C5.4,0,5.6,0,5.8,0
		c0.4,0,0.9,0.1,1.4,0.4C8.3,0.9,9.3,1.8,10.1,3l0.1,0.1l0,0c0,0-0.1,0.1-0.1,0.2c0,0,0,0.1,0,0.1C10.1,3.5,10,3.5,9.9,3.5z"/>
</g>
</svg>
