<?xml version="1.0" encoding="utf-8"?>
<!-- Generator: Adobe Illustrator 24.0.3, SVG Export Plug-In . SVG Version: 6.00 Build 0)  -->
<svg version="1.1" id="Capa_1" xmlns="http://www.w3.org/2000/svg" xmlns:xlink="http://www.w3.org/1999/xlink" x="0px" y="0px"
	 viewBox="0 0 16 16" style="enable-background:new 0 0 16 16;" xml:space="preserve">
<style type="text/css">
	.st0{fill:#F2F2F2;}
	.st1{fill:#926DCC;}
</style>
<g>
	<polygon class="st0" points="13.5,14.3 14.6,14.3 12.9,8.6 11.2,8.6 9.9,14.3 10.9,14.3 11.2,13 13.1,13 	"/>
	<polygon class="st0" points="7.6,14.3 8.7,14.3 10,8.6 9,8.6 8.2,12.5 8.2,12.5 7.4,8.6 6.4,8.6 5.5,12.5 5.5,12.5 4.8,8.6 
		3.7,8.6 4.9,14.3 6,14.3 6.8,10.4 6.9,10.4 	"/>
	<path class="st1" d="M9.8,0H16v16H0V0h6.2c0,0,0,0.1,0,0.1c0,1,0.8,1.8,1.8,1.8S9.8,1.1,9.8,0C9.8,0.1,9.8,0,9.8,0z M13.5,14.3h1.1
		l-1.7-5.7h-1.7l-1.4,5.7h1.1l0.3-1.3h1.9L13.5,14.3z M7.6,14.3h1.1L10,8.6H9l-0.8,3.9h0L7.4,8.6h-1l-0.9,3.9h0L4.8,8.6H3.7l1.2,5.7
		H6l0.8-3.9h0L7.6,14.3z M11.9,10h0.4l0.5,2.1h-1.4L11.9,10z"/>
</g>
</svg>
