<?xml version="1.0" encoding="utf-8"?>
<!-- Generator: Adobe Illustrator 24.0.3, SVG Export Plug-In . SVG Version: 6.00 Build 0)  -->
<svg version="1.1" id="Capa_1" xmlns="http://www.w3.org/2000/svg" xmlns:xlink="http://www.w3.org/1999/xlink" x="0px" y="0px"
	 viewBox="0 0 16 16" style="enable-background:new 0 0 16 16;" xml:space="preserve">
<style type="text/css">
	.st0{fill:#7AC943;}
	.st1{opacity:0.5;fill:#BDCCD4;}
	.st2{fill:#FF731E;}
</style>
<g>
	<path class="st0" d="M12.4,5.1c0.6,0,1.1,0.5,1.1,1.1v2.8v2.3c0,0.6-0.5,1.1-1.1,1.1H3.6c-0.6,0-1.1-0.5-1.1-1.1V8.9V6.2l0,0
		c0-0.6,0.5-1.1,1.1-1.1h2.1l0.1-0.4c0.2-0.7,0.7-1.1,1.4-1.1h1.7c0.7,0,1.2,0.5,1.4,1.1l0.1,0.4H12.4L12.4,5.1z M4.7,6.6
		c0-0.3-0.2-0.5-0.5-0.5c-0.3,0-0.5,0.2-0.5,0.5s0.2,0.5,0.5,0.5C4.5,7.2,4.7,6.9,4.7,6.6z M10.6,8.8c0-1.4-1.2-2.6-2.6-2.6
		S5.4,7.3,5.4,8.8s1.2,2.6,2.6,2.6S10.6,10.2,10.6,8.8z"/>
	<path class="st1" d="M15.1,0H0.9C0.4,0,0,0.4,0,0.9v14.2C0,15.6,0.4,16,0.9,16h14.2c0.5,0,0.9-0.4,0.9-0.9V0.9
		C16,0.4,15.6,0,15.1,0z M14.5,11.3c0,1.2-1,2.1-2.1,2.1H3.6c-1.2,0-2.1-1-2.1-2.1V6.2c0-1.1,0.9-2.1,2.1-2.1h1.3
		c0.4-0.9,1.2-1.5,2.3-1.5h1.7c1,0,1.9,0.6,2.3,1.5h1.3c1.1,0,2.1,0.9,2.1,2.1V11.3z"/>
	<circle class="st2" cx="8" cy="8.8" r="1.5"/>
</g>
</svg>
