<?xml version="1.0" encoding="utf-8"?>
<!-- Generator: Adobe Illustrator 24.0.3, SVG Export Plug-In . SVG Version: 6.00 Build 0)  -->
<svg version="1.1" id="Capa_1" xmlns="http://www.w3.org/2000/svg" xmlns:xlink="http://www.w3.org/1999/xlink" x="0px" y="0px"
	 viewBox="0 0 16 16" style="enable-background:new 0 0 16 16;" xml:space="preserve">
<style type="text/css">
	.st0{fill:#BDCCD4;}
	.st1{fill:#926DCC;stroke:#000000;stroke-width:0.25;stroke-miterlimit:10;}
	.st2{fill:#3FA9F5;stroke:#000000;stroke-width:0.25;stroke-miterlimit:10;}
</style>
<path class="st0" d="M15,16H1c-0.6,0-1-0.4-1-1V1c0-0.6,0.4-1,1-1h14c0.6,0,1,0.4,1,1v14C16,15.6,15.6,16,15,16z"/>
<path class="st1" d="M3,11.2L1.5,4.8h1.3l1,4.4L5,4.8h1.5l1.1,4.5l1-4.5h1.3l-1.6,6.4H7L5.7,6.4l-1.3,4.8H3z"/>
<path class="st2" d="M14.5,10.1v1.1h-4.3c0-0.4,0.2-0.8,0.4-1.2s0.7-0.9,1.4-1.5c0.6-0.5,0.9-0.9,1-1.1c0.2-0.3,0.3-0.5,0.3-0.8
	c0-0.3-0.1-0.5-0.2-0.6c-0.1-0.1-0.4-0.2-0.6-0.2c-0.3,0-0.5,0.1-0.6,0.2s-0.2,0.4-0.3,0.8l-1.2-0.1C10.4,6,10.6,5.5,11,5.2
	s0.9-0.4,1.5-0.4c0.6,0,1.1,0.2,1.5,0.5s0.5,0.8,0.5,1.3c0,0.3-0.1,0.6-0.2,0.8c-0.1,0.3-0.3,0.5-0.5,0.8C13.7,8.4,13.4,8.7,13,9
	s-0.6,0.6-0.7,0.7c-0.1,0.1-0.2,0.2-0.3,0.3H14.5z"/>
</svg>
