<?xml version="1.0" encoding="utf-8"?>
<!-- Generator: Adobe Illustrator 24.0.3, SVG Export Plug-In . SVG Version: 6.00 Build 0)  -->
<svg version="1.1" id="Capa_1" xmlns="http://www.w3.org/2000/svg" xmlns:xlink="http://www.w3.org/1999/xlink" x="0px" y="0px"
	 viewBox="0 0 16 16" style="enable-background:new 0 0 16 16;" xml:space="preserve">
<style type="text/css">
	.st0{fill:#BDCCD4;}
	.st1{fill:#926DCC;stroke:#000000;stroke-width:0.25;stroke-miterlimit:10;}
	.st2{fill:#3FA9F5;stroke:#000000;stroke-width:0.25;stroke-miterlimit:10;}
</style>
<path class="st0" d="M15,16H1c-0.6,0-1-0.4-1-1V1c0-0.6,0.4-1,1-1h14c0.6,0,1,0.4,1,1v14C16,15.6,15.6,16,15,16z"/>
<path class="st1" d="M2.8,11.2L1.2,4.8h1.3l1,4.4l1.2-4.4h1.5l1.1,4.5l1-4.5h1.3l-1.6,6.4H6.7L5.5,6.4l-1.3,4.8H2.8z"/>
<path class="st2" d="M10.4,11.2V4.8h4.4v1.1h-3.1v1.5h2.7v1.1h-2.7v2.7H10.4z"/>
</svg>
