<?xml version="1.0" encoding="utf-8"?>
<!-- Generator: Adobe Illustrator 24.0.3, SVG Export Plug-In . SVG Version: 6.00 Build 0)  -->
<svg version="1.1" id="Capa_1" xmlns="http://www.w3.org/2000/svg" xmlns:xlink="http://www.w3.org/1999/xlink" x="0px" y="0px"
	 viewBox="0 0 16 16" style="enable-background:new 0 0 16 16;" xml:space="preserve">
<style type="text/css">
	.st0{fill:#FF7BAC;}
	.st1{fill:#3FA9F5;}
</style>
<g>
	<path class="st0" d="M5,16C3,15.4,2,14.2,2,12.2v-1.6c0-1.2-0.5-1.7-1.5-1.7V7.2C1.5,7.2,2,6.6,2,5.5V3.8c0-1,0.2-1.8,0.7-2.4
		S4,0.3,5,0l0.5,1.3C5,1.5,4.7,1.7,4.5,2.1S4.2,3,4.2,3.7v1.7c0,1.2-0.5,2.1-1.5,2.6c1,0.5,1.5,1.4,1.5,2.6v1.7
		c0,1.3,0.5,2.1,1.3,2.3L5,16z"/>
	<path class="st1" d="M8.1,10.7c0.4,0,0.7,0.1,1,0.4s0.4,0.5,0.4,0.9c0,0.4-0.1,0.7-0.4,0.9c-0.2,0.2-0.6,0.4-1,0.4
		c-0.4,0-0.7-0.1-1-0.4c-0.2-0.2-0.4-0.5-0.4-0.9c0-0.4,0.1-0.7,0.4-0.9C7.3,10.8,7.7,10.7,8.1,10.7z M9,9.4h-2L6.8,1.2h2.5L9,9.4z"
		/>
	<path class="st0" d="M10.6,14.7c0.8-0.3,1.3-1.1,1.3-2.4v-1.7c0-1.2,0.5-2.1,1.5-2.6c-1-0.5-1.5-1.3-1.5-2.6V3.7
		c0-1.3-0.4-2.1-1.3-2.4L11,0c1,0.3,1.7,0.7,2.2,1.3C13.7,2,14,2.8,14,3.8v1.8c0,1.1,0.5,1.6,1.5,1.6v1.7c-1,0-1.5,0.6-1.5,1.7v1.8
		c0,1.9-1,3.1-2.9,3.7L10.6,14.7z"/>
</g>
</svg>
