<?xml version="1.0" encoding="utf-8"?>
<!-- Generator: Adobe Illustrator 24.0.3, SVG Export Plug-In . SVG Version: 6.00 Build 0)  -->
<svg version="1.1" id="Capa_1" xmlns="http://www.w3.org/2000/svg" xmlns:xlink="http://www.w3.org/1999/xlink" x="0px" y="0px"
	 viewBox="0 0 16 16" style="enable-background:new 0 0 16 16;" xml:space="preserve">
<style type="text/css">
	.st0{fill:#FCCA3F;}
	.st1{fill:#333333;}
</style>
<g>
	<path class="st0" d="M14.2,0H1.8C0.8,0,0,0.8,0,1.8v12.4c0,1,0.8,1.8,1.8,1.8l0,0h12.4c1,0,1.8-0.8,1.8-1.8l0,0V1.8
		C16,0.8,15.2,0,14.2,0z"/>
	<g>
		<rect x="6.8" y="2.5" class="st1" width="1.2" height="1.2"/>
		<rect x="8" y="1.2" class="st1" width="1.2" height="1.2"/>
		<rect x="8" y="3.8" class="st1" width="1.2" height="1.2"/>
		<rect x="6.7" y="0" class="st1" width="1.2" height="1.2"/>
		<rect x="6.8" y="5" class="st1" width="1.2" height="1.2"/>
		<rect x="8" y="6.2" class="st1" width="1.2" height="1.2"/>
		<path class="st1" d="M10,12.6L9.3,9.1c0-0.2-0.2-0.4-0.5-0.4H8V7.5H6.8v1.2L6,12.5C5.7,13.8,6.7,15,8,15C9.3,15,10.3,13.8,10,12.6
			z M8,14c-0.7,0-1.3-0.5-1.3-1.1c0-0.6,0.6-1.1,1.3-1.1c0.7,0,1.3,0.5,1.3,1.1C9.3,13.5,8.7,14,8,14z"/>
	</g>
</g>
</svg>
