<svg xmlns="http://www.w3.org/2000/svg" fill="none" overflow="visible" viewBox="0 0 418 450">
	<g clip-path="url(#a)">
		<path fill="#FDDF00"
			d="M397.7 100.9 225.6 6a34.81 34.81 0 0 0-33.7 0L19.7 100.9C8.6 107 1.6 118.8 1.6 131.5v187c0 12.7 6.9 24.4 18.1 30.6L191.9 444c10.5 5.8 23.2 5.8 33.7 0l172.1-94.9c11.1-6.1 18.1-17.9 18.1-30.6v-187c0-12.7-6.9-24.4-18.1-30.6ZM331 94l52.4 29.9-54.9 29.9L331 94ZM208.7 26.7l24.9 15-24.9 49.9-22.5-52.4 22.5-12.5Zm-10 157.1c0 20.7-16.8 37.4-37.4 37.4-20.6 0-37.4-16.8-37.4-37.4 0-.8.1-1.7.1-2.5h74.6c.1.9.1 1.7.1 2.5ZM29.1 148.9 74 171.4l-44.9 24.9v-47.4ZM89 196.3v67.4l-57.4-27.4v-15l57.4-25Zm-57.4 62.4 39.9 22.5-39.9 22.5v-45ZM89 356l-52.4-27.4 54.9-27.4L89 356ZM34.1 124l52.4-30 5 57.4L34.1 124Zm132.2-74.9 17.5 52.4-67.4 37.4-7.5-57.4 57.4-32.4Zm0 349.3-54.9-29.9 7.5-57.4 64.9 34.9-17.5 52.4Zm42.4 24.9-22.5-12.5 22.5-52.4 24.9 52.4-24.9 12.5Zm44.9-24.9L236.2 346l64.9-34.9 7.5 57.4-55 29.9Zm17.5-177.1c-20.7 0-37.4-16.8-37.4-37.4 0-.8.1-1.7.1-2.5h74.6c.1.8.1 1.7.1 2.5 0 20.6-16.7 37.4-37.4 37.4Zm29.9-82.4-64.9-37.4 17.5-49.9 54.9 29.9-7.5 57.4Zm30 214.6-2.5-52.4 52.4 24.9-49.9 27.5Zm57.3-49.9-42.4-22.5 42.4-22.5v45Zm0-67.4L331 263.7v-72.3l57.4 27.4v17.4h-.1Zm0-42.4-44.9-22.5 44.9-22.5v45Z"
			class="body_meme" />
		<path fill="#F2F2F2"
			d="M198.7 183.8c0 20.7-16.8 37.4-37.4 37.4-20.6 0-37.4-16.8-37.4-37.4 0-.8.1-1.7.1-2.5h74.6c.1.9.1 1.7.1 2.5ZM271.1 221.3c-20.7 0-37.4-16.8-37.4-37.4 0-.8.1-1.7.1-2.5h74.6c.1.8.1 1.7.1 2.5 0 20.6-16.7 37.4-37.4 37.4Z" />
		<path fill="currentColor"
			d="M257.3 181.3c3.2 10.1 12.6 17.5 23.8 17.5 11.2 0 20.6-7.3 23.8-17.5h-47.6ZM147.5 181.3c3.2 10.1 12.6 17.5 23.8 17.5 11.2 0 20.6-7.3 23.8-17.5h-47.6Z" />
		<path fill="currentColor"
			d="M208.7 450c-6.1 0-12.1-1.5-17.7-4.6L18.9 350.6C7.3 344.1 0 331.8 0 318.5v-187c0-13.3 7.3-25.6 18.9-32.1L191.1 4.6c11.1-6.1 24.3-6.1 35.3 0l172.1 94.9c11.7 6.4 18.9 18.7 18.9 32.1v187c0 13.3-7.3 25.6-18.9 32.1l-172.1 94.9c-5.5 2.9-11.6 4.4-17.7 4.4Zm0-446.6c-5.5 0-11 1.4-16.1 4.2L20.5 102.4c-10.6 5.8-17.2 17-17.2 29.1v187c0 12.1 6.6 23.3 17.2 29.1l172.1 94.9c10 5.5 22.1 5.5 32.1 0l172.1-94.9c10.6-5.8 17.2-17 17.2-29.1v-187c0-12.1-6.6-23.3-17.2-29.1l-172-94.9c-5.1-2.8-10.6-4.1-16.1-4.1Zm0 421.8-24.5-13.6 24.5-57.2 27.2 57.2-27.2 13.6Zm-20.3-15.1 20.4 11.3 22.7-11.3-22.6-47.6-20.5 47.6Zm64.3-9.3-18.5-55.6 68.2-36.7 7.9 60.9-57.6 31.4Zm-14.5-54 16.4 49.1 52.1-28.4-7-53.8-61.5 33.1Zm-70.9 54-57.6-31.4 7.9-60.9 68.2 36.7-18.5 55.6Zm-54.1-33.3 52.1 28.4 16.4-49.1-61.5-33.1-7 53.8Zm-22.7-8.8-57.6-30.2 60.4-30.2-2.8 60.4Zm-50.2-30.1 47.2 24.7 2.2-49.4-49.4 24.7Zm289.1 27.6-2.8-57.9 57.9 27.6-55.1 30.3Zm.9-52.4 2.2 46.9 44.7-24.6-46.9-22.3Zm-300.4 2.6v-50.6l45 25.3-45 25.3Zm3.4-44.9v39.2l34.8-19.6-34.8-19.6ZM390 306.4l-47.7-25.2L390 256v50.4Zm-40.5-25.3 37.2 19.7v-39.3l-37.2 19.6Zm-20.2-14.8v-77.7l60.7 29v19.6l-60.7 29.1Zm3.3-72.3v67l54-25.8v-15.4l-54-25.8ZM90.7 266.3l-60.7-29v-17.1l60.7-26.4v72.5Zm-57.4-31.1 54 25.8v-62.1l-54 23.5v12.8Zm237.8-12.3c-21.6 0-39.1-17.5-39.1-39.1 0-.8.1-1.5.1-2.2l.1-2h77.7l.1 2c0 .7.1 1.4.1 2.1.1 21.7-17.5 39.2-39 39.2ZM235.4 183v.8c0 19.7 16 35.7 35.7 35.7 19.7 0 35.7-16 35.7-35.7v-.8h-71.4Zm-74.1 39.9c-21.6 0-39.1-17.5-39.1-39.1 0-.7 0-1.4.1-2.1l.1-2h77.7l.1 2c0 .7.1 1.4.1 2.1.1 21.6-17.4 39.1-39 39.1ZM125.6 183v.8c0 19.7 16 35.7 35.7 35.7 19.7 0 35.7-16 35.7-35.7v-.8h-71.4Zm-98.2 16.2v-53l50.2 25.1-50.2 27.9Zm3.4-47.6v41.8l39.6-22-39.6-19.8ZM390 196.5l-50.3-25.2 50.3-25.2v50.4Zm-42.8-25.1 39.5 19.7v-39.5l-39.5 19.8Zm-20.5-14.6 2.7-65.6 57.4 32.8-60.1 32.8Zm5.8-59.9-2.3 54.2 49.6-27.1-47.3-27.1ZM93.4 154.2l-62.9-30.1 57.4-32.8 5.5 62.9Zm-55.7-30.4 51.8 24.8L85 96.8l-47.3 27Zm264.7 17.8-68.2-39.4 18.6-53.1 57.6 31.4-8 61.1Zm-64.2-40.8 61.5 35.5 7-53.7L254.6 54l-16.4 46.8Zm-123.1 40.8-7.9-60.9 60.1-34 18.5 55.6-70.7 39.3Zm-4.4-59.1 7 53.8 64-35.5-16.4-49.1-54.6 30.8Zm97.9 13-24.5-57.1 24.6-13.7L235.9 41l-27.3 54.5Zm-20.2-55.6 20.4 47.7 22.6-45.3-22.8-13.7-20.2 11.3Z" />
		<path fill="currentColor"
			d="M223.8 284.6c13.8 1.4 28.3.2 40.5-6.8 10.1-5.8 17.6-15.1 19.9-26.6.8-4 5.5-6.2 9.2-5.2 4.1 1.1 6 5.2 5.2 9.2-3 14.8-13.2 27.4-26 35.1-14.5 8.7-32.2 11-48.9 9.3-4-.4-7.5-3.1-7.5-7.5.1-3.7 3.6-7.9 7.6-7.5Z" />
	</g>
	<defs>
		<clipPath id="a">
			<path fill="#fff" d="M0 0h417.4v450H0z" />
		</clipPath>
	</defs>
</svg>